<svg width="58" height="59" viewBox="0 0 58 59" xmlns="http://www.w3.org/2000/svg" xmlns:xlink="http://www.w3.org/1999/xlink">
    <defs>
        <path id="a" d="M0 0h24.141v24H0z"/>
    </defs>
    <g transform="translate(1 1.5)" fill="none" fill-rule="evenodd">
        <g transform="translate(16 16)">
            <mask id="b" fill="#fff">
                <use xlink:href="#a"/>
            </mask>
            <path d="M10.184 24v-8.44H7.12v-3.49h3.041c.055-2.58-.457-5.52 2.357-6.908 1.5-.74 3.385-.397 4.928-.211v2.97c-1.306 0-2.443-.182-3.136.684-.522.653-.353 2.477-.353 3.466h3.336l-.519 3.477-2.817.013V24c.334 0 .881-.162 1.179-.236.399-.098.726-.215 1.114-.347 1.279-.435 2.632-1.27 3.634-2.119.566-.48 1.314-1.242 1.772-1.858 1.248-1.679 2.05-3.454 2.371-5.55.054-.35.092-.702.114-1.055v-1.547a11.847 11.847 0 0 0-.828-3.67c-.491-1.218-1.16-2.402-2.037-3.385-.075-.085-.103-.1-.18-.198-.34-.438-.732-.742-1.092-1.076l-1.218-.951c-1.228-.836-2.614-1.39-4.065-1.735A11.293 11.293 0 0 0 12.501 0h-.844c-.773.024-1.533.112-2.198.264C8.653.45 7.98.671 7.28.963 6.603 1.245 6 1.6 5.413 1.97l-1.021.77c-.991.8-1.862 1.795-2.544 2.88-.436.692-.421.717-.763 1.405C.848 7.502.658 8.08.489 8.599A10.755 10.755 0 0 0 0 11.324v1.373c.043.789.158 1.564.34 2.288.17.682.441 1.52.745 2.13.38.765.512 1.097 1.064 1.86.843 1.164 1.038 1.329 2.06 2.278.088.083.1.08.183.147.083.068.108.103.201.176.153.12.274.211.433.321 1.222.841 2.47 1.494 3.942 1.858.319.079.874.245 1.216.245" fill="#FEFEFE" mask="url(#b)"/>
        </g>
        <circle stroke="#FFF" stroke-width="2" opacity=".2" cx="28" cy="28" r="28"/>
    </g>
</svg>
