<svg xmlns="http://www.w3.org/2000/svg" width="18.171" height="23.31" viewBox="0 0 18.171 23.31">
  <g id="Group_981" data-name="Group 981" transform="translate(-7875.532 -14338.552)">
    <path id="Path_64" data-name="Path 64" d="M1800.273,4.6a9.562,9.562,0,0,0-9.085,9.536,11.007,11.007,0,0,0,1.186,4.4c.021.042.045.085.071.127,5.492,9.244,7.132,9.244,7.828,9.244,1.091,0,2.271-.805,5.068-4.911,1.458-2.14,2.71-4.243,2.761-4.333.025-.042.05-.085.07-.127a11.007,11.007,0,0,0,1.186-4.4A9.562,9.562,0,0,0,1800.273,4.6Z" transform="translate(6084.344 14333.952)" fill="#61acf7" fill-rule="evenodd"/>
  </g>
</svg>
