<svg xmlns="http://www.w3.org/2000/svg" width="20.624" height="23.523" viewBox="0 0 20.624 23.523">
  <g id="Group_984" data-name="Group 984" transform="translate(-7991 -14256.775)">
    <g id="Group_968" data-name="Group 968" transform="translate(116 -0.224)">
      <g id="Icon_-_Task_status_-_Unassigned" data-name="Icon - Task status - Unassigned" transform="translate(7875 14257)">
        <path id="Path_64" data-name="Path 64" d="M1800.357,4.6a9.65,9.65,0,0,0-9.169,9.623,11.108,11.108,0,0,0,1.2,4.443c.021.043.046.086.072.128,5.542,9.329,7.2,9.329,7.9,9.329,1.1,0,2.292-.813,5.114-4.956,1.472-2.16,2.735-4.282,2.786-4.373.025-.043.051-.086.071-.128a11.108,11.108,0,0,0,1.2-4.443A9.65,9.65,0,0,0,1800.357,4.6Z" transform="translate(-1791.188 -4.6)" fill="#61acf7" fill-rule="evenodd"/>
      </g>
    </g>
    <path id="Path_784" data-name="Path 784" d="M40.127,1.8a5.688,5.688,0,0,1,5.727,5.647,5.728,5.728,0,0,1-11.455,0A5.688,5.688,0,0,1,40.127,1.8" transform="translate(7965.769 14254.976)" fill="#ff8900"/>
  </g>
</svg>
