<svg xmlns="http://www.w3.org/2000/svg" xmlns:xlink="http://www.w3.org/1999/xlink" width="18.171" height="23.31" viewBox="0 0 18.171 23.31">
  <defs>
    <linearGradient id="linear-gradient" x1="0.5" x2="0.5" y2="1" gradientUnits="objectBoundingBox">
      <stop offset="0" stop-color="#ffce00"/>
      <stop offset="1" stop-color="#efd773"/>
    </linearGradient>
  </defs>
  <g id="Group_975" data-name="Group 975" transform="translate(-7875.532 -14338.552)">
    <path id="Path_64" data-name="Path 64" d="M1800.273,4.6a9.562,9.562,0,0,0-9.085,9.536,11.007,11.007,0,0,0,1.186,4.4c.021.042.045.085.071.127,5.492,9.244,7.132,9.244,7.828,9.244,1.091,0,2.271-.805,5.068-4.911,1.458-2.14,2.71-4.243,2.761-4.333.025-.042.05-.085.07-.127a11.007,11.007,0,0,0,1.186-4.4A9.562,9.562,0,0,0,1800.273,4.6Z" transform="translate(6084.344 14333.952)" fill="#61acf7" fill-rule="evenodd"/>
    <path id="Path_774" data-name="Path 774" d="M126.89,273.922a1.161,1.161,0,1,0,1.161,1.161A1.161,1.161,0,0,0,126.89,273.922Z" transform="translate(7757.855 14080.734)" fill="url(#linear-gradient)"/>
    <path id="Path_775" data-name="Path 775" d="M126.585,245.712c.426,0,.8-.521.842-1.159l.444-7.55a1.084,1.084,0,0,0-1.093-1.159h-.387A1.084,1.084,0,0,0,125.3,237l.444,7.55C125.781,245.19,126.16,245.712,126.585,245.712Z" transform="translate(7758.16 14107.591)" fill="url(#linear-gradient)"/>
  </g>
</svg>
