<svg xmlns="http://www.w3.org/2000/svg" xmlns:xlink="http://www.w3.org/1999/xlink" width="744" height="487" viewBox="0 0 744 487">
  <defs>
    <linearGradient id="linear-gradient" x1="0.978" y1="0.032" x2="0.023" y2="0.967" gradientUnits="objectBoundingBox">
      <stop offset="0" stop-color="#ba96f6"/>
      <stop offset="1" stop-color="#7dd"/>
    </linearGradient>
  </defs>
  <g id="Group_911" data-name="Group 911" transform="translate(-1034 -233)">
    <text id="Dispatcher_Web_App" data-name="Dispatcher Web App" transform="translate(1399 577)" fill="#fff" font-size="16" font-family="Nunito-SemiBold, Nunito" font-weight="600" letter-spacing="0.02em"><tspan x="0" y="0">Dispatcher Web App</tspan></text>
    <text id="Driver_app" data-name="Driver app" transform="translate(1085 555)" fill="#fff" font-size="16" font-family="Nunito-SemiBold, Nunito" font-weight="600" letter-spacing="0.02em"><tspan x="0" y="0">Driver app</tspan></text>
    <g id="Group_888" data-name="Group 888" transform="translate(3 -1)">
      <g id="Group_884" data-name="Group 884" transform="translate(-133 -476)">
        <g id="Group_883" data-name="Group 883" transform="translate(406 305.641)">
          <rect id="Rectangle_307" data-name="Rectangle 307" width="744" height="487" rx="41" transform="translate(758 404.359)" fill="url(#linear-gradient)"/>
        </g>
      </g>
    </g>
    <g id="Group_907" data-name="Group 907" transform="translate(1132.914 232)">
      <g id="Group_899" data-name="Group 899" transform="translate(-16.75 20.395)">
        <path id="Path_1174" data-name="Path 1174" d="M471.91,71.526,233.946,208.919,317.571,257.2,555.533,119.808Z" transform="translate(-233.946 37.221)" opacity="0.2" style="mix-blend-mode: multiply;isolation: isolate"/>
        <path id="Path_1175" data-name="Path 1175" d="M440.487,88.776,344.85,129.369l-22.9,13.252v12.123l11.459,6.616v-.032L440.487,100.9Z" transform="translate(-147.891 54.088)" fill="#273234"/>
        <path id="Path_1176" data-name="Path 1176" d="M389.489,98.255l-9.44-5.35c-2.579-1.517-6.05-1.5-9.539.607-7.84,4.729-13.558,14.715-13.73,23.862-.081,4.242,1.778,7.391,4.571,8.825l10.55,5.912c2.478,1.1,5.619.9,8.774-1,7.838-4.725,13.56-14.723,13.73-23.86C394.491,102.834,392.471,99.6,389.489,98.255Z" transform="translate(-113.839 57.085)" fill="#343433"/>
        <g id="Group_882" data-name="Group 882" transform="translate(253.101 154.651)">
          <path id="Path_1177" data-name="Path 1177" d="M389.378,104.416c-.17,9.138-5.892,19.135-13.73,23.86-6.978,4.211-13.88.089-13.73-8,.172-9.151,5.892-19.135,13.73-23.866C382.624,92.2,389.533,96.327,389.378,104.416Z" transform="translate(-361.916 -94.735)" fill="#424040"/>
        </g>
        <g id="Group_883-2" data-name="Group 883" transform="translate(254.573 156.484)">
          <path id="Path_1178" data-name="Path 1178" d="M387.7,104.57c-.156,8.412-5.37,17.611-12.518,21.962-6.363,3.875-12.656.081-12.518-7.367.158-8.42,5.372-17.609,12.518-21.964C381.536,93.328,387.838,97.127,387.7,104.57Z" transform="translate(-362.66 -95.662)" fill="#575656"/>
        </g>
        <g id="Group_884-2" data-name="Group 884" transform="translate(258.856 161.591)">
          <path id="Path_1179" data-name="Path 1179" d="M382.115,104.337a19.037,19.037,0,0,1-8.643,15.024c-4.395,2.648-8.74.053-8.645-5.041A19.02,19.02,0,0,1,373.472,99.3C377.863,96.648,382.212,99.247,382.115,104.337Z" transform="translate(-364.825 -98.244)" fill="#cccbca"/>
        </g>
        <path id="Path_1180" data-name="Path 1180" d="M376.353,98.272c2.508.259,4.385,2.429,4.326,5.694a17.89,17.89,0,0,1-8.093,14.114c-3.313,2.006-6.6.809-7.7-2.237.712,4.057,4.6,5.886,8.53,3.517a19.037,19.037,0,0,0,8.643-15.024C382.133,100.4,379.554,97.962,376.353,98.272Z" transform="translate(-105.912 63.348)" fill="#424040"/>
        <g id="Group_885" data-name="Group 885" transform="translate(263.384 166.998)">
          <path id="Path_1181" data-name="Path 1181" d="M376.32,104.223a10.128,10.128,0,0,1-4.6,8c-2.338,1.41-4.654.028-4.6-2.682a10.121,10.121,0,0,1,4.6-8C374.056,100.127,376.372,101.512,376.32,104.223Z" transform="translate(-367.115 -100.978)" fill="#e7e8e7"/>
        </g>
        <path id="Path_1182" data-name="Path 1182" d="M372.98,107.889l-9.438-5.352c-2.581-1.515-6.052-1.5-9.541.607-7.84,4.731-13.558,14.717-13.732,23.864-.077,4.242,1.778,7.393,4.571,8.825l10.55,5.912c2.48,1.1,5.621.9,8.776-1,7.838-4.729,13.558-14.729,13.73-23.864C377.98,112.465,375.965,109.234,372.98,107.889Z" transform="translate(-129.983 66.504)" fill="#343433"/>
        <g id="Group_886" data-name="Group 886" transform="translate(220.449 173.703)">
          <path id="Path_1183" data-name="Path 1183" d="M372.869,114.047c-.172,9.136-5.892,19.135-13.73,23.864-6.98,4.207-13.882.085-13.73-8.008.172-9.149,5.892-19.133,13.73-23.864C366.113,101.832,373.024,105.958,372.869,114.047Z" transform="translate(-345.407 -104.368)" fill="#424040"/>
        </g>
        <g id="Group_887" data-name="Group 887" transform="translate(221.921 176.284)">
          <path id="Path_1184" data-name="Path 1184" d="M371.186,114.581c-.156,8.41-5.372,17.609-12.518,21.962-6.361,3.873-12.654.077-12.516-7.369.156-8.422,5.37-17.611,12.516-21.962C365.029,103.339,371.327,107.137,371.186,114.581Z" transform="translate(-346.151 -105.673)" fill="#575656"/>
        </g>
        <g id="Group_888-2" data-name="Group 888" transform="translate(226.204 180.643)">
          <path id="Path_1185" data-name="Path 1185" d="M365.608,113.971a19.042,19.042,0,0,1-8.645,15.024c-4.393,2.648-8.742.053-8.645-5.043a19.019,19.019,0,0,1,8.645-15.022C361.354,106.281,365.7,108.878,365.608,113.971Z" transform="translate(-348.316 -107.877)" fill="#cccbca"/>
        </g>
        <path id="Path_1186" data-name="Path 1186" d="M359.844,107.9c2.506.261,4.387,2.431,4.323,5.7a17.877,17.877,0,0,1-8.089,14.112c-3.317,2.006-6.6.809-7.7-2.235.708,4.058,4.6,5.884,8.528,3.517a19.042,19.042,0,0,0,8.645-15.024C365.623,110.038,363.042,107.6,359.844,107.9Z" transform="translate(-122.054 72.767)" fill="#424040"/>
        <g id="Group_889" data-name="Group 889" transform="translate(230.732 186.051)">
          <path id="Path_1187" data-name="Path 1187" d="M359.809,113.856a10.1,10.1,0,0,1-4.6,8c-2.338,1.412-4.652.03-4.6-2.682a10.125,10.125,0,0,1,4.6-8C357.547,109.76,359.863,111.145,359.809,113.856Z" transform="translate(-350.606 -110.611)" fill="#e7e8e7"/>
        </g>
        <path id="Path_1188" data-name="Path 1188" d="M352.928,126.638l-19.042-10.994-38.052,22.02v20.147l19.04,10.991v-.05l38.054-21.968Z" transform="translate(-173.431 80.36)" fill="#273234"/>
        <g id="Group_890" data-name="Group 890" transform="translate(78.239)">
          <path id="Path_1189" data-name="Path 1189" d="M438.186,16.543,273.5,111.619v92.955l68.127,39.663L506.549,148.6l-.236-92.4Z" transform="translate(-273.504 -16.543)" fill="#cbb8ea"/>
          <path id="Path_1190" data-name="Path 1190" d="M472.633,36.6,307.949,131.674v92.953l164.682-95.076Z" transform="translate(-239.824 3.066)" fill="#ad8de2" opacity="0.2" style="mix-blend-mode: multiply;isolation: isolate"/>
          <path id="Path_1191" data-name="Path 1191" d="M341.63,104.278,273.5,64.614v92.955l68.127,39.663Z" transform="translate(-273.504 30.462)" fill="#af8ee6" opacity="0.3" style="mix-blend-mode: multiply;isolation: isolate"/>
        </g>
        <path id="Path_1192" data-name="Path 1192" d="M302.214,136.018l.028-.1-11.633,6.717,20.607,12a31.483,31.483,0,0,0,.366-4.693C311.581,141.51,308.543,135.458,302.214,136.018Z" transform="translate(-178.541 100.188)" fill="#343433"/>
        <g id="Group_895" data-name="Group 895" transform="translate(93.089 235.044)">
          <path id="Path_1193" data-name="Path 1193" d="M313.724,141.8l-9.438-5.35c-2.579-1.517-6.052-1.5-9.539.605-7.84,4.729-13.56,14.717-13.732,23.866-.079,4.24,1.778,7.391,4.571,8.821l10.55,5.914c2.478,1.1,5.619.9,8.778-1,7.836-4.729,13.556-14.725,13.728-23.864C318.726,146.374,316.709,143.14,313.724,141.8Z" transform="translate(-281.013 -135.383)" fill="#343433"/>
          <g id="Group_891" data-name="Group 891" transform="translate(10.164 5.725)">
            <path id="Path_1194" data-name="Path 1194" d="M313.616,147.956c-.172,9.14-5.892,19.135-13.728,23.864-6.982,4.209-13.884.087-13.734-8.006.172-9.147,5.894-19.135,13.734-23.866C306.86,135.741,313.771,139.869,313.616,147.956Z" transform="translate(-286.152 -138.277)" fill="#424040"/>
          </g>
          <g id="Group_892" data-name="Group 892" transform="translate(11.636 7.559)">
            <path id="Path_1195" data-name="Path 1195" d="M311.933,148.111c-.156,8.41-5.37,17.611-12.518,21.962-6.363,3.873-12.656.079-12.518-7.367.158-8.42,5.372-17.611,12.518-21.962C305.776,136.87,312.074,140.669,311.933,148.111Z" transform="translate(-286.896 -139.205)" fill="#575656"/>
          </g>
          <g id="Group_893" data-name="Group 893" transform="translate(15.918 12.665)">
            <path id="Path_1196" data-name="Path 1196" d="M306.351,147.878a19.033,19.033,0,0,1-8.643,15.026c-4.395,2.648-8.74.053-8.645-5.043a19.019,19.019,0,0,1,8.645-15.022C302.1,140.19,306.448,142.787,306.351,147.878Z" transform="translate(-289.061 -141.786)" fill="#cccbca"/>
          </g>
          <path id="Path_1197" data-name="Path 1197" d="M300.589,141.814c2.506.259,4.387,2.429,4.323,5.7a17.885,17.885,0,0,1-8.091,14.112c-3.317,2-6.6.807-7.7-2.233.708,4.053,4.6,5.882,8.526,3.513a19.032,19.032,0,0,0,8.643-15.025C306.367,143.946,303.789,141.5,300.589,141.814Z" transform="translate(-273.083 -129.12)" fill="#424040"/>
          <g id="Group_894" data-name="Group 894" transform="translate(20.446 18.073)">
            <path id="Path_1198" data-name="Path 1198" d="M300.556,147.765a10.128,10.128,0,0,1-4.6,8c-2.338,1.41-4.652.028-4.6-2.684a10.133,10.133,0,0,1,4.6-8C298.292,143.669,300.609,145.054,300.556,147.765Z" transform="translate(-291.351 -144.52)" fill="#e7e8e7"/>
          </g>
          <path id="Path_1199" data-name="Path 1199" d="M296.824,143.058l0,0-.091-.142C296.765,142.961,296.794,143.011,296.824,143.058Z" transform="translate(-265.637 -128.02)" fill="#bd1e2d" fill-rule="evenodd"/>
        </g>
        <path id="Path_1200" data-name="Path 1200" d="M297.607,133.979l-1.131,3.979c6.329-.56,9.367,5.492,9.367,13.926a31.5,31.5,0,0,1-.366,4.693l2.777-1.6a36.7,36.7,0,0,0,.314-4.7C308.566,140.4,305.01,133.326,297.607,133.979Z" transform="translate(-172.803 98.248)" fill="#404b4d"/>
        <path id="Path_1201" data-name="Path 1201" d="M362.523,123.651c-.079-3.637-2.257-4.672-2.257-4.672L298.589,83.2l-34.232,19.762s-7.547,4.529-9.169,11.634h0l-5.38,17.6a2.841,2.841,0,0,0-1.26-2.045l-2.913-1.681a1.329,1.329,0,0,0-.241-.115c-.042-.014-.077-.018-.117-.028s-.077-.02-.113-.024a.757.757,0,0,0-.134,0c-.022,0-.048,0-.069,0a.5.5,0,0,0-.14.042l-.04.014a.66.66,0,0,0-.132.091l-.016.014a.638.638,0,0,0-.115.142l0,.006a1.1,1.1,0,0,0-.15.583V139a2.823,2.823,0,0,0,1.272,2.2l1.21.7-2.435,7.967v33.5l-.512.295a3.431,3.431,0,0,0-1.545,2.676v10.987a1.077,1.077,0,0,0,.461,1v0l59.734,34.616a10.584,10.584,0,0,0,4.476,1.458,12.139,12.139,0,0,0,3.971-.92l15.658-9.041V210.339a42.4,42.4,0,0,1,8.934-14.877l26.936-15.552Z" transform="translate(-225.725 48.635)" fill="#893bff"/>
        <path id="Path_1202" data-name="Path 1202" d="M362.523,105.085a6.69,6.69,0,0,0-.661-2.9l-33.506,19.345s-7.545,4.529-9.169,11.632l-.384.22-10.393,35.047v.674l-64-37.088v5.827l4.183,2.452v12.284l-.463-.271V140.587l-3.72-2.183V164.8l-.512.295a3.431,3.431,0,0,0-1.545,2.676v10.987a1.077,1.077,0,0,0,.461,1v0l59.734,34.616a10.585,10.585,0,0,0,4.476,1.458,8.831,8.831,0,0,0,1.384-.15h0l.022,0h0a13.315,13.315,0,0,0,2.565-.765l15.658-9.041V191.773a42.4,42.4,0,0,1,8.934-14.877l26.936-15.552Zm-51.21,69.378-1.462.848a5.31,5.31,0,0,1-3.358-.405l-3.934-2.306v-.671l3.934,2.3a5.3,5.3,0,0,0,3.358.405l1.462-.847Z" transform="translate(-225.725 67.201)" opacity="0.15" style="mix-blend-mode: multiply;isolation: isolate"/>
        <path id="Path_1203" data-name="Path 1203" d="M280.933,157.171a3.959,3.959,0,0,1-1.663-.447l-9.594-5.54a1.714,1.714,0,0,1-.773-1.337V144.24c0-.491.35-.692.773-.447l9.594,5.538a3.9,3.9,0,0,0,1.663.445l.625,0a4.349,4.349,0,0,0,1.638-.37c.409-.2.724.036.694.526l-.285,4.784a3.7,3.7,0,0,1-.566,1.62l-.075.107a1.936,1.936,0,0,1-1.406.73Z" transform="translate(-199.766 107.783)" fill="#eef5f9"/>
        <path id="Path_1204" data-name="Path 1204" d="M243.394,136.3l11.717,6.582c.429.241.779.036.779-.455v-5.607a1.681,1.681,0,0,0-.779-1.329l-11.717-6.584Z" transform="translate(-224.708 93.331)" fill="#eef5f9"/>
        <path id="Path_1205" data-name="Path 1205" d="M277.19,146.613a4.348,4.348,0,0,1-1.638.37l-.508,0v7.4h.508a1.935,1.935,0,0,0,1.406-.73l.075-.107a3.7,3.7,0,0,0,.566-1.62l.285-4.784C277.914,146.649,277.6,146.413,277.19,146.613Z" transform="translate(-193.76 110.573)" fill="#f5911e"/>
        <g id="Group_896" data-name="Group 896" transform="translate(91.024 192.963)">
          <path id="Path_1206" data-name="Path 1206" d="M280.054,150.023c-.4,2.136.641,2.8,2.314,1.483l18.677-14.871a8.718,8.718,0,0,0,3.038-5.965V116.313c0-1.962-1.39-2.767-3.089-1.794l-11.557,6.521a9.306,9.306,0,0,0-3.813,5.661Z" transform="translate(-279.968 -114.106)" fill="#141c1e"/>
        </g>
        <path id="Path_1207" data-name="Path 1207" d="M301.894,114.583a1.893,1.893,0,0,0-.9.289L289.436,121.4a8.347,8.347,0,0,0-3.352,5.012l0,.022-.006.024-5.562,23.3a2.2,2.2,0,0,0-.02,1.015,2.21,2.21,0,0,0,.821-.465l18.679-14.871a7.753,7.753,0,0,0,2.682-5.225V115.847C302.673,115.374,302.572,114.583,301.894,114.583Z" transform="translate(-188.478 79.323)" fill="#303e42"/>
        <path id="Path_1208" data-name="Path 1208" d="M318.059,137.444a7.367,7.367,0,0,1-2.646-.781l-61.953-36.5-10.008,32.753,61.52,35.731s2.969,1.4,4.859-.239a5.99,5.99,0,0,0,2.077-3l7.059-26.176C319.261,138.136,318.852,137.333,318.059,137.444Z" transform="translate(-224.653 65.218)" fill="#141c1e"/>
        <path id="Path_1209" data-name="Path 1209" d="M317.548,139.2a1.336,1.336,0,0,0,.046-.593c-.044,0-.089,0-.134,0a6.812,6.812,0,0,1-2.609-.678l-.028-.016-.4-.222-61.789-36.412-9.043,29.594L305.262,166.7a5.757,5.757,0,0,0,2.1.451,2.559,2.559,0,0,0,1.719-.564l.044-.04.051-.034a5.056,5.056,0,0,0,1.683-2.462Z" transform="translate(-224.512 66.319)" fill="#303e42"/>
        <path id="Path_1210" data-name="Path 1210" d="M317.548,139.2a1.336,1.336,0,0,0,.046-.593c-.044,0-.089,0-.134,0a6.812,6.812,0,0,1-2.609-.678l-.028-.016-.4-.222-61.789-36.412-9.043,29.594L305.262,166.7a5.757,5.757,0,0,0,2.1.451,2.559,2.559,0,0,0,1.719-.564l.044-.04.051-.034a5.056,5.056,0,0,0,1.683-2.462Z" transform="translate(-224.512 66.319)" fill="#303e42"/>
        <path id="Path_1211" data-name="Path 1211" d="M251.24,102.15l-3.159,16.918c-.4,2.14.643,2.806,2.312,1.487L264.1,109.731Z" transform="translate(-220.207 67.166)" fill="#c5d0d3"/>
        <path id="Path_1212" data-name="Path 1212" d="M252.58,101.284l-8.926,29.21,1.717-1.139a6.007,6.007,0,0,0,2.075-3l6.535-24.244Z" transform="translate(-224.454 66.319)" fill="#c5d0d3"/>
        <path id="Path_1213" data-name="Path 1213" d="M288.45,137.985l1.649-1.313,2.633-21.679h-.487l-1.137.64Z" transform="translate(-180.652 79.725)" fill="#233135"/>
        <path id="Path_1214" data-name="Path 1214" d="M252.638,101.284l-9.043,29.594,16.564,9.624a48.683,48.683,0,0,1,21.916-21.871Z" transform="translate(-224.512 66.319)" fill="#fff" opacity="0.2"/>
        <path id="Path_1215" data-name="Path 1215" d="M318.473,166.909l-1.036-1.663-6.212,3.738c-2.6,1.559-6.212-.253-6.212-.253l-60.6-34.889-.512.295a3.431,3.431,0,0,0-1.545,2.676V147.8a1.077,1.077,0,0,0,.461,1l59.734,34.618a10.585,10.585,0,0,0,4.476,1.458,12.141,12.141,0,0,0,3.971-.92l7.476-4.316C318.516,179.51,318.425,167.036,318.473,166.909Z" transform="translate(-225.725 98.155)" fill="#404b4d"/>
        <path id="Path_1216" data-name="Path 1216" d="M317.284,165.246l-6.212,3.738c-2.6,1.559-6.212-.253-6.212-.253l-60.6-34.889-.512.295a3.318,3.318,0,0,0-1.236,1.44l62.084,35.878s3.61,1.808,6.212.253l7.514-4.8Z" transform="translate(-225.573 98.155)" fill="#5a6567"/>
        <path id="Path_1217" data-name="Path 1217" d="M282.075,157.636c-.344,1.159-1.632,1.527-2.856.819l-23.908-13.8a7.158,7.158,0,0,1-2.858-4.12l-1.895-6.274c-.346-1.557.376-2.251,1.6-1.545l30.211,17.442a3.2,3.2,0,0,1,1.6,3.394Z" transform="translate(-217.787 96.783)" fill="#273234"/>
        <path id="Path_1218" data-name="Path 1218" d="M299.7,153.219l-54.193-31.765v11.938l53.965,31.514Z" transform="translate(-222.64 86.042)" fill="#404b4d"/>
        <path id="Path_1219" data-name="Path 1219" d="M254.287,146.788c.2.548.016.8-.409.55l-6.21-3.586a1.709,1.709,0,0,1-.771-1.337v-2.239c0-.489.348-.688.771-.443l4.355,2.516a3.128,3.128,0,0,1,1.137,1.442Z" transform="translate(-221.284 103.813)" fill="#273234"/>
        <path id="Path_1220" data-name="Path 1220" d="M264.89,152.361a.779.779,0,0,0,.409,1.025l6.212,3.586c.425.243.771.044.771-.445v-2.239a1.709,1.709,0,0,0-.771-1.335l-4.357-2.518a.849.849,0,0,0-1.133.132Z" transform="translate(-203.766 114.234)" fill="#273234"/>
        <g id="Group_897" data-name="Group 897" transform="translate(72.936 270.76)">
          <path id="Path_1221" data-name="Path 1221" d="M274.48,156.857c0,1.167-.819,1.636-1.829,1.054a4.042,4.042,0,0,1-1.828-3.167c0-1.165.819-1.638,1.828-1.054A4.036,4.036,0,0,1,274.48,156.857Z" transform="translate(-270.823 -153.441)" fill="#273234"/>
          <path id="Path_1222" data-name="Path 1222" d="M272.1,153.573l-.022-.012c-.423.107-.7.516-.7,1.159a3.685,3.685,0,0,0,1.669,2.89,1.734,1.734,0,0,0,.495.19,1.4,1.4,0,0,0,.386-1.06A4.036,4.036,0,0,0,272.1,153.573Z" transform="translate(-270.275 -153.323)" fill="#fff"/>
        </g>
        <g id="Group_898" data-name="Group 898" transform="translate(19.238 240.751)">
          <path id="Path_1223" data-name="Path 1223" d="M247.33,141.683c0,1.165-.819,1.638-1.827,1.054a4.037,4.037,0,0,1-1.829-3.165c0-1.165.821-1.638,1.829-1.056A4.042,4.042,0,0,1,247.33,141.683Z" transform="translate(-243.673 -138.268)" fill="#273234"/>
          <path id="Path_1224" data-name="Path 1224" d="M244.953,138.4l-.024-.01c-.423.107-.694.514-.694,1.157a3.677,3.677,0,0,0,1.667,2.89,1.745,1.745,0,0,0,.491.192,1.394,1.394,0,0,0,.388-1.062A4.042,4.042,0,0,0,244.953,138.4Z" transform="translate(-243.123 -138.15)" fill="#fff"/>
        </g>
      </g>
    </g>
    <g id="Group_909" data-name="Group 909" transform="translate(1244.732 331.973)">
      <g id="Group_899-2" data-name="Group 899" transform="translate(0 0)">
        <path id="Path_1174-2" data-name="Path 1174" d="M471.91,71.526,233.946,208.919,317.571,257.2,555.533,119.808Z" transform="translate(-233.946 37.221)" opacity="0.2" style="mix-blend-mode: multiply;isolation: isolate"/>
        <path id="Path_1175-2" data-name="Path 1175" d="M440.487,88.776,344.85,129.369l-22.9,13.252v12.123l11.459,6.616v-.032L440.487,100.9Z" transform="translate(-147.891 54.088)" fill="#273234"/>
        <path id="Path_1176-2" data-name="Path 1176" d="M389.489,98.255l-9.44-5.35c-2.579-1.517-6.05-1.5-9.539.607-7.84,4.729-13.558,14.715-13.73,23.862-.081,4.242,1.778,7.391,4.571,8.825l10.55,5.912c2.478,1.1,5.619.9,8.774-1,7.838-4.725,13.56-14.723,13.73-23.86C394.491,102.834,392.471,99.6,389.489,98.255Z" transform="translate(-113.839 57.085)" fill="#343433"/>
        <g id="Group_882-2" data-name="Group 882" transform="translate(253.101 154.651)">
          <path id="Path_1177-2" data-name="Path 1177" d="M389.378,104.416c-.17,9.138-5.892,19.135-13.73,23.86-6.978,4.211-13.88.089-13.73-8,.172-9.151,5.892-19.135,13.73-23.866C382.624,92.2,389.533,96.327,389.378,104.416Z" transform="translate(-361.916 -94.735)" fill="#424040"/>
        </g>
        <g id="Group_883-3" data-name="Group 883" transform="translate(254.573 156.484)">
          <path id="Path_1178-2" data-name="Path 1178" d="M387.7,104.57c-.156,8.412-5.37,17.611-12.518,21.962-6.363,3.875-12.656.081-12.518-7.367.158-8.42,5.372-17.609,12.518-21.964C381.536,93.328,387.838,97.127,387.7,104.57Z" transform="translate(-362.66 -95.662)" fill="#575656"/>
        </g>
        <g id="Group_884-3" data-name="Group 884" transform="translate(258.856 161.591)">
          <path id="Path_1179-2" data-name="Path 1179" d="M382.115,104.337a19.037,19.037,0,0,1-8.643,15.024c-4.395,2.648-8.74.053-8.645-5.041A19.02,19.02,0,0,1,373.472,99.3C377.863,96.648,382.212,99.247,382.115,104.337Z" transform="translate(-364.825 -98.244)" fill="#cccbca"/>
        </g>
        <path id="Path_1180-2" data-name="Path 1180" d="M376.353,98.272c2.508.259,4.385,2.429,4.326,5.694a17.89,17.89,0,0,1-8.093,14.114c-3.313,2.006-6.6.809-7.7-2.237.712,4.057,4.6,5.886,8.53,3.517a19.037,19.037,0,0,0,8.643-15.024C382.133,100.4,379.554,97.962,376.353,98.272Z" transform="translate(-105.912 63.348)" fill="#424040"/>
        <g id="Group_885-2" data-name="Group 885" transform="translate(263.384 166.998)">
          <path id="Path_1181-2" data-name="Path 1181" d="M376.32,104.223a10.128,10.128,0,0,1-4.6,8c-2.338,1.41-4.654.028-4.6-2.682a10.121,10.121,0,0,1,4.6-8C374.056,100.127,376.372,101.512,376.32,104.223Z" transform="translate(-367.115 -100.978)" fill="#e7e8e7"/>
        </g>
        <path id="Path_1182-2" data-name="Path 1182" d="M372.98,107.889l-9.438-5.352c-2.581-1.515-6.052-1.5-9.541.607-7.84,4.731-13.558,14.717-13.732,23.864-.077,4.242,1.778,7.393,4.571,8.825l10.55,5.912c2.48,1.1,5.621.9,8.776-1,7.838-4.729,13.558-14.729,13.73-23.864C377.98,112.465,375.965,109.234,372.98,107.889Z" transform="translate(-129.983 66.504)" fill="#343433"/>
        <g id="Group_886-2" data-name="Group 886" transform="translate(220.449 173.703)">
          <path id="Path_1183-2" data-name="Path 1183" d="M372.869,114.047c-.172,9.136-5.892,19.135-13.73,23.864-6.98,4.207-13.882.085-13.73-8.008.172-9.149,5.892-19.133,13.73-23.864C366.113,101.832,373.024,105.958,372.869,114.047Z" transform="translate(-345.407 -104.368)" fill="#424040"/>
        </g>
        <g id="Group_887-2" data-name="Group 887" transform="translate(221.921 176.284)">
          <path id="Path_1184-2" data-name="Path 1184" d="M371.186,114.581c-.156,8.41-5.372,17.609-12.518,21.962-6.361,3.873-12.654.077-12.516-7.369.156-8.422,5.37-17.611,12.516-21.962C365.029,103.339,371.327,107.137,371.186,114.581Z" transform="translate(-346.151 -105.673)" fill="#575656"/>
        </g>
        <g id="Group_888-3" data-name="Group 888" transform="translate(226.204 180.643)">
          <path id="Path_1185-2" data-name="Path 1185" d="M365.608,113.971a19.042,19.042,0,0,1-8.645,15.024c-4.393,2.648-8.742.053-8.645-5.043a19.019,19.019,0,0,1,8.645-15.022C361.354,106.281,365.7,108.878,365.608,113.971Z" transform="translate(-348.316 -107.877)" fill="#cccbca"/>
        </g>
        <path id="Path_1186-2" data-name="Path 1186" d="M359.844,107.9c2.506.261,4.387,2.431,4.323,5.7a17.877,17.877,0,0,1-8.089,14.112c-3.317,2.006-6.6.809-7.7-2.235.708,4.058,4.6,5.884,8.528,3.517a19.042,19.042,0,0,0,8.645-15.024C365.623,110.038,363.042,107.6,359.844,107.9Z" transform="translate(-122.054 72.767)" fill="#424040"/>
        <g id="Group_889-2" data-name="Group 889" transform="translate(230.732 186.051)">
          <path id="Path_1187-2" data-name="Path 1187" d="M359.809,113.856a10.1,10.1,0,0,1-4.6,8c-2.338,1.412-4.652.03-4.6-2.682a10.125,10.125,0,0,1,4.6-8C357.547,109.76,359.863,111.145,359.809,113.856Z" transform="translate(-350.606 -110.611)" fill="#e7e8e7"/>
        </g>
        <path id="Path_1188-2" data-name="Path 1188" d="M352.928,126.638l-19.042-10.994-38.052,22.02v20.147l19.04,10.991v-.05l38.054-21.968Z" transform="translate(-173.431 80.36)" fill="#273234"/>
        <g id="Group_890-2" data-name="Group 890" transform="translate(78.239)">
          <path id="Path_1189-2" data-name="Path 1189" d="M438.186,16.543,273.5,111.619v92.955l68.127,39.663L506.549,148.6l-.236-92.4Z" transform="translate(-273.504 -16.543)" fill="#c5f4f4"/>
          <path id="Path_1190-2" data-name="Path 1190" d="M472.633,36.6,307.949,131.674v92.953l164.682-95.076Z" transform="translate(-239.824 3.066)" fill="#ad8de2" opacity="0.2" style="mix-blend-mode: multiply;isolation: isolate"/>
          <path id="Path_1191-2" data-name="Path 1191" d="M341.63,104.278,273.5,64.614v92.955l68.127,39.663Z" transform="translate(-273.504 30.462)" fill="#af8ee6" opacity="0.3" style="mix-blend-mode: multiply;isolation: isolate"/>
        </g>
        <path id="Path_1192-2" data-name="Path 1192" d="M302.214,136.018l.028-.1-11.633,6.717,20.607,12a31.483,31.483,0,0,0,.366-4.693C311.581,141.51,308.543,135.458,302.214,136.018Z" transform="translate(-178.541 100.188)" fill="#343433"/>
        <g id="Group_895-2" data-name="Group 895" transform="translate(93.089 235.044)">
          <path id="Path_1193-2" data-name="Path 1193" d="M313.724,141.8l-9.438-5.35c-2.579-1.517-6.052-1.5-9.539.605-7.84,4.729-13.56,14.717-13.732,23.866-.079,4.24,1.778,7.391,4.571,8.821l10.55,5.914c2.478,1.1,5.619.9,8.778-1,7.836-4.729,13.556-14.725,13.728-23.864C318.726,146.374,316.709,143.14,313.724,141.8Z" transform="translate(-281.013 -135.383)" fill="#343433"/>
          <g id="Group_891-2" data-name="Group 891" transform="translate(10.164 5.725)">
            <path id="Path_1194-2" data-name="Path 1194" d="M313.616,147.956c-.172,9.14-5.892,19.135-13.728,23.864-6.982,4.209-13.884.087-13.734-8.006.172-9.147,5.894-19.135,13.734-23.866C306.86,135.741,313.771,139.869,313.616,147.956Z" transform="translate(-286.152 -138.277)" fill="#424040"/>
          </g>
          <g id="Group_892-2" data-name="Group 892" transform="translate(11.636 7.559)">
            <path id="Path_1195-2" data-name="Path 1195" d="M311.933,148.111c-.156,8.41-5.37,17.611-12.518,21.962-6.363,3.873-12.656.079-12.518-7.367.158-8.42,5.372-17.611,12.518-21.962C305.776,136.87,312.074,140.669,311.933,148.111Z" transform="translate(-286.896 -139.205)" fill="#575656"/>
          </g>
          <g id="Group_893-2" data-name="Group 893" transform="translate(15.918 12.665)">
            <path id="Path_1196-2" data-name="Path 1196" d="M306.351,147.878a19.033,19.033,0,0,1-8.643,15.026c-4.395,2.648-8.74.053-8.645-5.043a19.019,19.019,0,0,1,8.645-15.022C302.1,140.19,306.448,142.787,306.351,147.878Z" transform="translate(-289.061 -141.786)" fill="#cccbca"/>
          </g>
          <path id="Path_1197-2" data-name="Path 1197" d="M300.589,141.814c2.506.259,4.387,2.429,4.323,5.7a17.885,17.885,0,0,1-8.091,14.112c-3.317,2-6.6.807-7.7-2.233.708,4.053,4.6,5.882,8.526,3.513a19.032,19.032,0,0,0,8.643-15.025C306.367,143.946,303.789,141.5,300.589,141.814Z" transform="translate(-273.083 -129.12)" fill="#424040"/>
          <g id="Group_894-2" data-name="Group 894" transform="translate(20.446 18.073)">
            <path id="Path_1198-2" data-name="Path 1198" d="M300.556,147.765a10.128,10.128,0,0,1-4.6,8c-2.338,1.41-4.652.028-4.6-2.684a10.133,10.133,0,0,1,4.6-8C298.292,143.669,300.609,145.054,300.556,147.765Z" transform="translate(-291.351 -144.52)" fill="#e7e8e7"/>
          </g>
          <path id="Path_1199-2" data-name="Path 1199" d="M296.824,143.058l0,0-.091-.142C296.765,142.961,296.794,143.011,296.824,143.058Z" transform="translate(-265.637 -128.02)" fill="#bd1e2d" fill-rule="evenodd"/>
        </g>
        <path id="Path_1200-2" data-name="Path 1200" d="M297.607,133.979l-1.131,3.979c6.329-.56,9.367,5.492,9.367,13.926a31.5,31.5,0,0,1-.366,4.693l2.777-1.6a36.7,36.7,0,0,0,.314-4.7C308.566,140.4,305.01,133.326,297.607,133.979Z" transform="translate(-172.803 98.248)" fill="#404b4d"/>
        <path id="Path_1201-2" data-name="Path 1201" d="M362.523,123.651c-.079-3.637-2.257-4.672-2.257-4.672L298.589,83.2l-34.232,19.762s-7.547,4.529-9.169,11.634h0l-5.38,17.6a2.841,2.841,0,0,0-1.26-2.045l-2.913-1.681a1.329,1.329,0,0,0-.241-.115c-.042-.014-.077-.018-.117-.028s-.077-.02-.113-.024a.757.757,0,0,0-.134,0c-.022,0-.048,0-.069,0a.5.5,0,0,0-.14.042l-.04.014a.66.66,0,0,0-.132.091l-.016.014a.638.638,0,0,0-.115.142l0,.006a1.1,1.1,0,0,0-.15.583V139a2.823,2.823,0,0,0,1.272,2.2l1.21.7-2.435,7.967v33.5l-.512.295a3.431,3.431,0,0,0-1.545,2.676v10.987a1.077,1.077,0,0,0,.461,1v0l59.734,34.616a10.584,10.584,0,0,0,4.476,1.458,12.139,12.139,0,0,0,3.971-.92l15.658-9.041V210.339a42.4,42.4,0,0,1,8.934-14.877l26.936-15.552Z" transform="translate(-225.725 48.635)" fill="#3bffff"/>
        <path id="Path_1202-2" data-name="Path 1202" d="M362.523,105.085a6.69,6.69,0,0,0-.661-2.9l-33.506,19.345s-7.545,4.529-9.169,11.632l-.384.22-10.393,35.047v.674l-64-37.088v5.827l4.183,2.452v12.284l-.463-.271V140.587l-3.72-2.183V164.8l-.512.295a3.431,3.431,0,0,0-1.545,2.676v10.987a1.077,1.077,0,0,0,.461,1v0l59.734,34.616a10.585,10.585,0,0,0,4.476,1.458,8.831,8.831,0,0,0,1.384-.15h0l.022,0h0a13.315,13.315,0,0,0,2.565-.765l15.658-9.041V191.773a42.4,42.4,0,0,1,8.934-14.877l26.936-15.552Zm-51.21,69.378-1.462.848a5.31,5.31,0,0,1-3.358-.405l-3.934-2.306v-.671l3.934,2.3a5.3,5.3,0,0,0,3.358.405l1.462-.847Z" transform="translate(-225.725 67.201)" opacity="0.15" style="mix-blend-mode: multiply;isolation: isolate"/>
        <path id="Path_1203-2" data-name="Path 1203" d="M280.933,157.171a3.959,3.959,0,0,1-1.663-.447l-9.594-5.54a1.714,1.714,0,0,1-.773-1.337V144.24c0-.491.35-.692.773-.447l9.594,5.538a3.9,3.9,0,0,0,1.663.445l.625,0a4.349,4.349,0,0,0,1.638-.37c.409-.2.724.036.694.526l-.285,4.784a3.7,3.7,0,0,1-.566,1.62l-.075.107a1.936,1.936,0,0,1-1.406.73Z" transform="translate(-199.766 107.783)" fill="#eef5f9"/>
        <path id="Path_1204-2" data-name="Path 1204" d="M243.394,136.3l11.717,6.582c.429.241.779.036.779-.455v-5.607a1.681,1.681,0,0,0-.779-1.329l-11.717-6.584Z" transform="translate(-224.708 93.331)" fill="#eef5f9"/>
        <path id="Path_1205-2" data-name="Path 1205" d="M277.19,146.613a4.348,4.348,0,0,1-1.638.37l-.508,0v7.4h.508a1.935,1.935,0,0,0,1.406-.73l.075-.107a3.7,3.7,0,0,0,.566-1.62l.285-4.784C277.914,146.649,277.6,146.413,277.19,146.613Z" transform="translate(-193.76 110.573)" fill="#f5911e"/>
        <g id="Group_896-2" data-name="Group 896" transform="translate(91.024 192.963)">
          <path id="Path_1206-2" data-name="Path 1206" d="M280.054,150.023c-.4,2.136.641,2.8,2.314,1.483l18.677-14.871a8.718,8.718,0,0,0,3.038-5.965V116.313c0-1.962-1.39-2.767-3.089-1.794l-11.557,6.521a9.306,9.306,0,0,0-3.813,5.661Z" transform="translate(-279.968 -114.106)" fill="#141c1e"/>
        </g>
        <path id="Path_1207-2" data-name="Path 1207" d="M301.894,114.583a1.893,1.893,0,0,0-.9.289L289.436,121.4a8.347,8.347,0,0,0-3.352,5.012l0,.022-.006.024-5.562,23.3a2.2,2.2,0,0,0-.02,1.015,2.21,2.21,0,0,0,.821-.465l18.679-14.871a7.753,7.753,0,0,0,2.682-5.225V115.847C302.673,115.374,302.572,114.583,301.894,114.583Z" transform="translate(-188.478 79.323)" fill="#303e42"/>
        <path id="Path_1208-2" data-name="Path 1208" d="M318.059,137.444a7.367,7.367,0,0,1-2.646-.781l-61.953-36.5-10.008,32.753,61.52,35.731s2.969,1.4,4.859-.239a5.99,5.99,0,0,0,2.077-3l7.059-26.176C319.261,138.136,318.852,137.333,318.059,137.444Z" transform="translate(-224.653 65.218)" fill="#141c1e"/>
        <path id="Path_1209-2" data-name="Path 1209" d="M317.548,139.2a1.336,1.336,0,0,0,.046-.593c-.044,0-.089,0-.134,0a6.812,6.812,0,0,1-2.609-.678l-.028-.016-.4-.222-61.789-36.412-9.043,29.594L305.262,166.7a5.757,5.757,0,0,0,2.1.451,2.559,2.559,0,0,0,1.719-.564l.044-.04.051-.034a5.056,5.056,0,0,0,1.683-2.462Z" transform="translate(-224.512 66.319)" fill="#303e42"/>
        <path id="Path_1210-2" data-name="Path 1210" d="M317.548,139.2a1.336,1.336,0,0,0,.046-.593c-.044,0-.089,0-.134,0a6.812,6.812,0,0,1-2.609-.678l-.028-.016-.4-.222-61.789-36.412-9.043,29.594L305.262,166.7a5.757,5.757,0,0,0,2.1.451,2.559,2.559,0,0,0,1.719-.564l.044-.04.051-.034a5.056,5.056,0,0,0,1.683-2.462Z" transform="translate(-224.512 66.319)" fill="#303e42"/>
        <path id="Path_1211-2" data-name="Path 1211" d="M251.24,102.15l-3.159,16.918c-.4,2.14.643,2.806,2.312,1.487L264.1,109.731Z" transform="translate(-220.207 67.166)" fill="#c5d0d3"/>
        <path id="Path_1212-2" data-name="Path 1212" d="M252.58,101.284l-8.926,29.21,1.717-1.139a6.007,6.007,0,0,0,2.075-3l6.535-24.244Z" transform="translate(-224.454 66.319)" fill="#c5d0d3"/>
        <path id="Path_1213-2" data-name="Path 1213" d="M288.45,137.985l1.649-1.313,2.633-21.679h-.487l-1.137.64Z" transform="translate(-180.652 79.725)" fill="#233135"/>
        <path id="Path_1214-2" data-name="Path 1214" d="M252.638,101.284l-9.043,29.594,16.564,9.624a48.683,48.683,0,0,1,21.916-21.871Z" transform="translate(-224.512 66.319)" fill="#fff" opacity="0.2"/>
        <path id="Path_1215-2" data-name="Path 1215" d="M318.473,166.909l-1.036-1.663-6.212,3.738c-2.6,1.559-6.212-.253-6.212-.253l-60.6-34.889-.512.295a3.431,3.431,0,0,0-1.545,2.676V147.8a1.077,1.077,0,0,0,.461,1l59.734,34.618a10.585,10.585,0,0,0,4.476,1.458,12.141,12.141,0,0,0,3.971-.92l7.476-4.316C318.516,179.51,318.425,167.036,318.473,166.909Z" transform="translate(-225.725 98.155)" fill="#404b4d"/>
        <path id="Path_1216-2" data-name="Path 1216" d="M317.284,165.246l-6.212,3.738c-2.6,1.559-6.212-.253-6.212-.253l-60.6-34.889-.512.295a3.318,3.318,0,0,0-1.236,1.44l62.084,35.878s3.61,1.808,6.212.253l7.514-4.8Z" transform="translate(-225.573 98.155)" fill="#5a6567"/>
        <path id="Path_1217-2" data-name="Path 1217" d="M282.075,157.636c-.344,1.159-1.632,1.527-2.856.819l-23.908-13.8a7.158,7.158,0,0,1-2.858-4.12l-1.895-6.274c-.346-1.557.376-2.251,1.6-1.545l30.211,17.442a3.2,3.2,0,0,1,1.6,3.394Z" transform="translate(-217.787 96.783)" fill="#273234"/>
        <path id="Path_1218-2" data-name="Path 1218" d="M299.7,153.219l-54.193-31.765v11.938l53.965,31.514Z" transform="translate(-222.64 86.042)" fill="#404b4d"/>
        <path id="Path_1219-2" data-name="Path 1219" d="M254.287,146.788c.2.548.016.8-.409.55l-6.21-3.586a1.709,1.709,0,0,1-.771-1.337v-2.239c0-.489.348-.688.771-.443l4.355,2.516a3.128,3.128,0,0,1,1.137,1.442Z" transform="translate(-221.284 103.813)" fill="#273234"/>
        <path id="Path_1220-2" data-name="Path 1220" d="M264.89,152.361a.779.779,0,0,0,.409,1.025l6.212,3.586c.425.243.771.044.771-.445v-2.239a1.709,1.709,0,0,0-.771-1.335l-4.357-2.518a.849.849,0,0,0-1.133.132Z" transform="translate(-203.766 114.234)" fill="#273234"/>
        <g id="Group_897-2" data-name="Group 897" transform="translate(72.936 270.76)">
          <path id="Path_1221-2" data-name="Path 1221" d="M274.48,156.857c0,1.167-.819,1.636-1.829,1.054a4.042,4.042,0,0,1-1.828-3.167c0-1.165.819-1.638,1.828-1.054A4.036,4.036,0,0,1,274.48,156.857Z" transform="translate(-270.823 -153.441)" fill="#273234"/>
          <path id="Path_1222-2" data-name="Path 1222" d="M272.1,153.573l-.022-.012c-.423.107-.7.516-.7,1.159a3.685,3.685,0,0,0,1.669,2.89,1.734,1.734,0,0,0,.495.19,1.4,1.4,0,0,0,.386-1.06A4.036,4.036,0,0,0,272.1,153.573Z" transform="translate(-270.275 -153.323)" fill="#fff"/>
        </g>
        <g id="Group_898-2" data-name="Group 898" transform="translate(19.238 240.751)">
          <path id="Path_1223-2" data-name="Path 1223" d="M247.33,141.683c0,1.165-.819,1.638-1.827,1.054a4.037,4.037,0,0,1-1.829-3.165c0-1.165.821-1.638,1.829-1.056A4.042,4.042,0,0,1,247.33,141.683Z" transform="translate(-243.673 -138.268)" fill="#273234"/>
          <path id="Path_1224-2" data-name="Path 1224" d="M244.953,138.4l-.024-.01c-.423.107-.694.514-.694,1.157a3.677,3.677,0,0,0,1.667,2.89,1.745,1.745,0,0,0,.491.192,1.394,1.394,0,0,0,.388-1.062A4.042,4.042,0,0,0,244.953,138.4Z" transform="translate(-243.123 -138.15)" fill="#fff"/>
        </g>
      </g>
    </g>
    <g id="Group_910" data-name="Group 910" transform="translate(1374.25 406.184)">
      <g id="Group_899-3" data-name="Group 899" transform="translate(0 0)">
        <path id="Path_1174-3" data-name="Path 1174" d="M471.91,71.526,233.946,208.919,317.571,257.2,555.533,119.808Z" transform="translate(-233.946 37.221)" opacity="0.2" style="mix-blend-mode: multiply;isolation: isolate"/>
        <path id="Path_1175-3" data-name="Path 1175" d="M440.487,88.776,344.85,129.369l-22.9,13.252v12.123l11.459,6.616v-.032L440.487,100.9Z" transform="translate(-147.891 54.088)" fill="#273234"/>
        <path id="Path_1176-3" data-name="Path 1176" d="M389.489,98.255l-9.44-5.35c-2.579-1.517-6.05-1.5-9.539.607-7.84,4.729-13.558,14.715-13.73,23.862-.081,4.242,1.778,7.391,4.571,8.825l10.55,5.912c2.478,1.1,5.619.9,8.774-1,7.838-4.725,13.56-14.723,13.73-23.86C394.491,102.834,392.471,99.6,389.489,98.255Z" transform="translate(-113.839 57.085)" fill="#343433"/>
        <g id="Group_882-3" data-name="Group 882" transform="translate(253.101 154.651)">
          <path id="Path_1177-3" data-name="Path 1177" d="M389.378,104.416c-.17,9.138-5.892,19.135-13.73,23.86-6.978,4.211-13.88.089-13.73-8,.172-9.151,5.892-19.135,13.73-23.866C382.624,92.2,389.533,96.327,389.378,104.416Z" transform="translate(-361.916 -94.735)" fill="#424040"/>
        </g>
        <g id="Group_883-4" data-name="Group 883" transform="translate(254.573 156.484)">
          <path id="Path_1178-3" data-name="Path 1178" d="M387.7,104.57c-.156,8.412-5.37,17.611-12.518,21.962-6.363,3.875-12.656.081-12.518-7.367.158-8.42,5.372-17.609,12.518-21.964C381.536,93.328,387.838,97.127,387.7,104.57Z" transform="translate(-362.66 -95.662)" fill="#575656"/>
        </g>
        <g id="Group_884-4" data-name="Group 884" transform="translate(258.856 161.591)">
          <path id="Path_1179-3" data-name="Path 1179" d="M382.115,104.337a19.037,19.037,0,0,1-8.643,15.024c-4.395,2.648-8.74.053-8.645-5.041A19.02,19.02,0,0,1,373.472,99.3C377.863,96.648,382.212,99.247,382.115,104.337Z" transform="translate(-364.825 -98.244)" fill="#cccbca"/>
        </g>
        <path id="Path_1180-3" data-name="Path 1180" d="M376.353,98.272c2.508.259,4.385,2.429,4.326,5.694a17.89,17.89,0,0,1-8.093,14.114c-3.313,2.006-6.6.809-7.7-2.237.712,4.057,4.6,5.886,8.53,3.517a19.037,19.037,0,0,0,8.643-15.024C382.133,100.4,379.554,97.962,376.353,98.272Z" transform="translate(-105.912 63.348)" fill="#424040"/>
        <g id="Group_885-3" data-name="Group 885" transform="translate(263.384 166.998)">
          <path id="Path_1181-3" data-name="Path 1181" d="M376.32,104.223a10.128,10.128,0,0,1-4.6,8c-2.338,1.41-4.654.028-4.6-2.682a10.121,10.121,0,0,1,4.6-8C374.056,100.127,376.372,101.512,376.32,104.223Z" transform="translate(-367.115 -100.978)" fill="#e7e8e7"/>
        </g>
        <path id="Path_1182-3" data-name="Path 1182" d="M372.98,107.889l-9.438-5.352c-2.581-1.515-6.052-1.5-9.541.607-7.84,4.731-13.558,14.717-13.732,23.864-.077,4.242,1.778,7.393,4.571,8.825l10.55,5.912c2.48,1.1,5.621.9,8.776-1,7.838-4.729,13.558-14.729,13.73-23.864C377.98,112.465,375.965,109.234,372.98,107.889Z" transform="translate(-129.983 66.504)" fill="#343433"/>
        <g id="Group_886-3" data-name="Group 886" transform="translate(220.449 173.703)">
          <path id="Path_1183-3" data-name="Path 1183" d="M372.869,114.047c-.172,9.136-5.892,19.135-13.73,23.864-6.98,4.207-13.882.085-13.73-8.008.172-9.149,5.892-19.133,13.73-23.864C366.113,101.832,373.024,105.958,372.869,114.047Z" transform="translate(-345.407 -104.368)" fill="#424040"/>
        </g>
        <g id="Group_887-3" data-name="Group 887" transform="translate(221.921 176.284)">
          <path id="Path_1184-3" data-name="Path 1184" d="M371.186,114.581c-.156,8.41-5.372,17.609-12.518,21.962-6.361,3.873-12.654.077-12.516-7.369.156-8.422,5.37-17.611,12.516-21.962C365.029,103.339,371.327,107.137,371.186,114.581Z" transform="translate(-346.151 -105.673)" fill="#575656"/>
        </g>
        <g id="Group_888-4" data-name="Group 888" transform="translate(226.204 180.643)">
          <path id="Path_1185-3" data-name="Path 1185" d="M365.608,113.971a19.042,19.042,0,0,1-8.645,15.024c-4.393,2.648-8.742.053-8.645-5.043a19.019,19.019,0,0,1,8.645-15.022C361.354,106.281,365.7,108.878,365.608,113.971Z" transform="translate(-348.316 -107.877)" fill="#cccbca"/>
        </g>
        <path id="Path_1186-3" data-name="Path 1186" d="M359.844,107.9c2.506.261,4.387,2.431,4.323,5.7a17.877,17.877,0,0,1-8.089,14.112c-3.317,2.006-6.6.809-7.7-2.235.708,4.058,4.6,5.884,8.528,3.517a19.042,19.042,0,0,0,8.645-15.024C365.623,110.038,363.042,107.6,359.844,107.9Z" transform="translate(-122.054 72.767)" fill="#424040"/>
        <g id="Group_889-3" data-name="Group 889" transform="translate(230.732 186.051)">
          <path id="Path_1187-3" data-name="Path 1187" d="M359.809,113.856a10.1,10.1,0,0,1-4.6,8c-2.338,1.412-4.652.03-4.6-2.682a10.125,10.125,0,0,1,4.6-8C357.547,109.76,359.863,111.145,359.809,113.856Z" transform="translate(-350.606 -110.611)" fill="#e7e8e7"/>
        </g>
        <path id="Path_1188-3" data-name="Path 1188" d="M352.928,126.638l-19.042-10.994-38.052,22.02v20.147l19.04,10.991v-.05l38.054-21.968Z" transform="translate(-173.431 80.36)" fill="#273234"/>
        <g id="Group_890-3" data-name="Group 890" transform="translate(78.239)">
          <path id="Path_1189-3" data-name="Path 1189" d="M438.186,16.543,273.5,111.619v92.955l68.127,39.663L506.549,148.6l-.236-92.4Z" transform="translate(-273.504 -16.543)" fill="#e8df76"/>
          <path id="Path_1190-3" data-name="Path 1190" d="M472.633,36.6,307.949,131.674v92.953l164.682-95.076Z" transform="translate(-239.824 3.066)" fill="#ad8de2" opacity="0.2" style="mix-blend-mode: multiply;isolation: isolate"/>
          <path id="Path_1191-3" data-name="Path 1191" d="M341.63,104.278,273.5,64.614v92.955l68.127,39.663Z" transform="translate(-273.504 30.462)" fill="#af8ee6" opacity="0.3" style="mix-blend-mode: multiply;isolation: isolate"/>
        </g>
        <path id="Path_1192-3" data-name="Path 1192" d="M302.214,136.018l.028-.1-11.633,6.717,20.607,12a31.483,31.483,0,0,0,.366-4.693C311.581,141.51,308.543,135.458,302.214,136.018Z" transform="translate(-178.541 100.188)" fill="#343433"/>
        <g id="Group_895-3" data-name="Group 895" transform="translate(93.089 235.044)">
          <path id="Path_1193-3" data-name="Path 1193" d="M313.724,141.8l-9.438-5.35c-2.579-1.517-6.052-1.5-9.539.605-7.84,4.729-13.56,14.717-13.732,23.866-.079,4.24,1.778,7.391,4.571,8.821l10.55,5.914c2.478,1.1,5.619.9,8.778-1,7.836-4.729,13.556-14.725,13.728-23.864C318.726,146.374,316.709,143.14,313.724,141.8Z" transform="translate(-281.013 -135.383)" fill="#343433"/>
          <g id="Group_891-3" data-name="Group 891" transform="translate(10.164 5.725)">
            <path id="Path_1194-3" data-name="Path 1194" d="M313.616,147.956c-.172,9.14-5.892,19.135-13.728,23.864-6.982,4.209-13.884.087-13.734-8.006.172-9.147,5.894-19.135,13.734-23.866C306.86,135.741,313.771,139.869,313.616,147.956Z" transform="translate(-286.152 -138.277)" fill="#424040"/>
          </g>
          <g id="Group_892-3" data-name="Group 892" transform="translate(11.636 7.559)">
            <path id="Path_1195-3" data-name="Path 1195" d="M311.933,148.111c-.156,8.41-5.37,17.611-12.518,21.962-6.363,3.873-12.656.079-12.518-7.367.158-8.42,5.372-17.611,12.518-21.962C305.776,136.87,312.074,140.669,311.933,148.111Z" transform="translate(-286.896 -139.205)" fill="#575656"/>
          </g>
          <g id="Group_893-3" data-name="Group 893" transform="translate(15.918 12.665)">
            <path id="Path_1196-3" data-name="Path 1196" d="M306.351,147.878a19.033,19.033,0,0,1-8.643,15.026c-4.395,2.648-8.74.053-8.645-5.043a19.019,19.019,0,0,1,8.645-15.022C302.1,140.19,306.448,142.787,306.351,147.878Z" transform="translate(-289.061 -141.786)" fill="#cccbca"/>
          </g>
          <path id="Path_1197-3" data-name="Path 1197" d="M300.589,141.814c2.506.259,4.387,2.429,4.323,5.7a17.885,17.885,0,0,1-8.091,14.112c-3.317,2-6.6.807-7.7-2.233.708,4.053,4.6,5.882,8.526,3.513a19.032,19.032,0,0,0,8.643-15.025C306.367,143.946,303.789,141.5,300.589,141.814Z" transform="translate(-273.083 -129.12)" fill="#424040"/>
          <g id="Group_894-3" data-name="Group 894" transform="translate(20.446 18.073)">
            <path id="Path_1198-3" data-name="Path 1198" d="M300.556,147.765a10.128,10.128,0,0,1-4.6,8c-2.338,1.41-4.652.028-4.6-2.684a10.133,10.133,0,0,1,4.6-8C298.292,143.669,300.609,145.054,300.556,147.765Z" transform="translate(-291.351 -144.52)" fill="#e7e8e7"/>
          </g>
          <path id="Path_1199-3" data-name="Path 1199" d="M296.824,143.058l0,0-.091-.142C296.765,142.961,296.794,143.011,296.824,143.058Z" transform="translate(-265.637 -128.02)" fill="#bd1e2d" fill-rule="evenodd"/>
        </g>
        <path id="Path_1200-3" data-name="Path 1200" d="M297.607,133.979l-1.131,3.979c6.329-.56,9.367,5.492,9.367,13.926a31.5,31.5,0,0,1-.366,4.693l2.777-1.6a36.7,36.7,0,0,0,.314-4.7C308.566,140.4,305.01,133.326,297.607,133.979Z" transform="translate(-172.803 98.248)" fill="#404b4d"/>
        <path id="Path_1201-3" data-name="Path 1201" d="M362.523,123.651c-.079-3.637-2.257-4.672-2.257-4.672L298.589,83.2l-34.232,19.762s-7.547,4.529-9.169,11.634h0l-5.38,17.6a2.841,2.841,0,0,0-1.26-2.045l-2.913-1.681a1.329,1.329,0,0,0-.241-.115c-.042-.014-.077-.018-.117-.028s-.077-.02-.113-.024a.757.757,0,0,0-.134,0c-.022,0-.048,0-.069,0a.5.5,0,0,0-.14.042l-.04.014a.66.66,0,0,0-.132.091l-.016.014a.638.638,0,0,0-.115.142l0,.006a1.1,1.1,0,0,0-.15.583V139a2.823,2.823,0,0,0,1.272,2.2l1.21.7-2.435,7.967v33.5l-.512.295a3.431,3.431,0,0,0-1.545,2.676v10.987a1.077,1.077,0,0,0,.461,1v0l59.734,34.616a10.584,10.584,0,0,0,4.476,1.458,12.139,12.139,0,0,0,3.971-.92l15.658-9.041V210.339a42.4,42.4,0,0,1,8.934-14.877l26.936-15.552Z" transform="translate(-225.725 48.635)" fill="#ffd421"/>
        <path id="Path_1202-3" data-name="Path 1202" d="M362.523,105.085a6.69,6.69,0,0,0-.661-2.9l-33.506,19.345s-7.545,4.529-9.169,11.632l-.384.22-10.393,35.047v.674l-64-37.088v5.827l4.183,2.452v12.284l-.463-.271V140.587l-3.72-2.183V164.8l-.512.295a3.431,3.431,0,0,0-1.545,2.676v10.987a1.077,1.077,0,0,0,.461,1v0l59.734,34.616a10.585,10.585,0,0,0,4.476,1.458,8.831,8.831,0,0,0,1.384-.15h0l.022,0h0a13.315,13.315,0,0,0,2.565-.765l15.658-9.041V191.773a42.4,42.4,0,0,1,8.934-14.877l26.936-15.552Zm-51.21,69.378-1.462.848a5.31,5.31,0,0,1-3.358-.405l-3.934-2.306v-.671l3.934,2.3a5.3,5.3,0,0,0,3.358.405l1.462-.847Z" transform="translate(-225.725 67.201)" opacity="0.15" style="mix-blend-mode: multiply;isolation: isolate"/>
        <path id="Path_1203-3" data-name="Path 1203" d="M280.933,157.171a3.959,3.959,0,0,1-1.663-.447l-9.594-5.54a1.714,1.714,0,0,1-.773-1.337V144.24c0-.491.35-.692.773-.447l9.594,5.538a3.9,3.9,0,0,0,1.663.445l.625,0a4.349,4.349,0,0,0,1.638-.37c.409-.2.724.036.694.526l-.285,4.784a3.7,3.7,0,0,1-.566,1.62l-.075.107a1.936,1.936,0,0,1-1.406.73Z" transform="translate(-199.766 107.783)" fill="#eef5f9"/>
        <path id="Path_1204-3" data-name="Path 1204" d="M243.394,136.3l11.717,6.582c.429.241.779.036.779-.455v-5.607a1.681,1.681,0,0,0-.779-1.329l-11.717-6.584Z" transform="translate(-224.708 93.331)" fill="#eef5f9"/>
        <path id="Path_1205-3" data-name="Path 1205" d="M277.19,146.613a4.348,4.348,0,0,1-1.638.37l-.508,0v7.4h.508a1.935,1.935,0,0,0,1.406-.73l.075-.107a3.7,3.7,0,0,0,.566-1.62l.285-4.784C277.914,146.649,277.6,146.413,277.19,146.613Z" transform="translate(-193.76 110.573)" fill="#f5911e"/>
        <g id="Group_896-3" data-name="Group 896" transform="translate(91.024 192.963)">
          <path id="Path_1206-3" data-name="Path 1206" d="M280.054,150.023c-.4,2.136.641,2.8,2.314,1.483l18.677-14.871a8.718,8.718,0,0,0,3.038-5.965V116.313c0-1.962-1.39-2.767-3.089-1.794l-11.557,6.521a9.306,9.306,0,0,0-3.813,5.661Z" transform="translate(-279.968 -114.106)" fill="#141c1e"/>
        </g>
        <path id="Path_1207-3" data-name="Path 1207" d="M301.894,114.583a1.893,1.893,0,0,0-.9.289L289.436,121.4a8.347,8.347,0,0,0-3.352,5.012l0,.022-.006.024-5.562,23.3a2.2,2.2,0,0,0-.02,1.015,2.21,2.21,0,0,0,.821-.465l18.679-14.871a7.753,7.753,0,0,0,2.682-5.225V115.847C302.673,115.374,302.572,114.583,301.894,114.583Z" transform="translate(-188.478 79.323)" fill="#303e42"/>
        <path id="Path_1208-3" data-name="Path 1208" d="M318.059,137.444a7.367,7.367,0,0,1-2.646-.781l-61.953-36.5-10.008,32.753,61.52,35.731s2.969,1.4,4.859-.239a5.99,5.99,0,0,0,2.077-3l7.059-26.176C319.261,138.136,318.852,137.333,318.059,137.444Z" transform="translate(-224.653 65.218)" fill="#141c1e"/>
        <path id="Path_1209-3" data-name="Path 1209" d="M317.548,139.2a1.336,1.336,0,0,0,.046-.593c-.044,0-.089,0-.134,0a6.812,6.812,0,0,1-2.609-.678l-.028-.016-.4-.222-61.789-36.412-9.043,29.594L305.262,166.7a5.757,5.757,0,0,0,2.1.451,2.559,2.559,0,0,0,1.719-.564l.044-.04.051-.034a5.056,5.056,0,0,0,1.683-2.462Z" transform="translate(-224.512 66.319)" fill="#303e42"/>
        <path id="Path_1210-3" data-name="Path 1210" d="M317.548,139.2a1.336,1.336,0,0,0,.046-.593c-.044,0-.089,0-.134,0a6.812,6.812,0,0,1-2.609-.678l-.028-.016-.4-.222-61.789-36.412-9.043,29.594L305.262,166.7a5.757,5.757,0,0,0,2.1.451,2.559,2.559,0,0,0,1.719-.564l.044-.04.051-.034a5.056,5.056,0,0,0,1.683-2.462Z" transform="translate(-224.512 66.319)" fill="#303e42"/>
        <path id="Path_1211-3" data-name="Path 1211" d="M251.24,102.15l-3.159,16.918c-.4,2.14.643,2.806,2.312,1.487L264.1,109.731Z" transform="translate(-220.207 67.166)" fill="#c5d0d3"/>
        <path id="Path_1212-3" data-name="Path 1212" d="M252.58,101.284l-8.926,29.21,1.717-1.139a6.007,6.007,0,0,0,2.075-3l6.535-24.244Z" transform="translate(-224.454 66.319)" fill="#c5d0d3"/>
        <path id="Path_1213-3" data-name="Path 1213" d="M288.45,137.985l1.649-1.313,2.633-21.679h-.487l-1.137.64Z" transform="translate(-180.652 79.725)" fill="#233135"/>
        <path id="Path_1214-3" data-name="Path 1214" d="M252.638,101.284l-9.043,29.594,16.564,9.624a48.683,48.683,0,0,1,21.916-21.871Z" transform="translate(-224.512 66.319)" fill="#fff" opacity="0.2"/>
        <path id="Path_1215-3" data-name="Path 1215" d="M318.473,166.909l-1.036-1.663-6.212,3.738c-2.6,1.559-6.212-.253-6.212-.253l-60.6-34.889-.512.295a3.431,3.431,0,0,0-1.545,2.676V147.8a1.077,1.077,0,0,0,.461,1l59.734,34.618a10.585,10.585,0,0,0,4.476,1.458,12.141,12.141,0,0,0,3.971-.92l7.476-4.316C318.516,179.51,318.425,167.036,318.473,166.909Z" transform="translate(-225.725 98.155)" fill="#404b4d"/>
        <path id="Path_1216-3" data-name="Path 1216" d="M317.284,165.246l-6.212,3.738c-2.6,1.559-6.212-.253-6.212-.253l-60.6-34.889-.512.295a3.318,3.318,0,0,0-1.236,1.44l62.084,35.878s3.61,1.808,6.212.253l7.514-4.8Z" transform="translate(-225.573 98.155)" fill="#5a6567"/>
        <path id="Path_1217-3" data-name="Path 1217" d="M282.075,157.636c-.344,1.159-1.632,1.527-2.856.819l-23.908-13.8a7.158,7.158,0,0,1-2.858-4.12l-1.895-6.274c-.346-1.557.376-2.251,1.6-1.545l30.211,17.442a3.2,3.2,0,0,1,1.6,3.394Z" transform="translate(-217.787 96.783)" fill="#273234"/>
        <path id="Path_1218-3" data-name="Path 1218" d="M299.7,153.219l-54.193-31.765v11.938l53.965,31.514Z" transform="translate(-222.64 86.042)" fill="#404b4d"/>
        <path id="Path_1219-3" data-name="Path 1219" d="M254.287,146.788c.2.548.016.8-.409.55l-6.21-3.586a1.709,1.709,0,0,1-.771-1.337v-2.239c0-.489.348-.688.771-.443l4.355,2.516a3.128,3.128,0,0,1,1.137,1.442Z" transform="translate(-221.284 103.813)" fill="#273234"/>
        <path id="Path_1220-3" data-name="Path 1220" d="M264.89,152.361a.779.779,0,0,0,.409,1.025l6.212,3.586c.425.243.771.044.771-.445v-2.239a1.709,1.709,0,0,0-.771-1.335l-4.357-2.518a.849.849,0,0,0-1.133.132Z" transform="translate(-203.766 114.234)" fill="#273234"/>
        <g id="Group_897-3" data-name="Group 897" transform="translate(72.936 270.76)">
          <path id="Path_1221-3" data-name="Path 1221" d="M274.48,156.857c0,1.167-.819,1.636-1.829,1.054a4.042,4.042,0,0,1-1.828-3.167c0-1.165.819-1.638,1.828-1.054A4.036,4.036,0,0,1,274.48,156.857Z" transform="translate(-270.823 -153.441)" fill="#273234"/>
          <path id="Path_1222-3" data-name="Path 1222" d="M272.1,153.573l-.022-.012c-.423.107-.7.516-.7,1.159a3.685,3.685,0,0,0,1.669,2.89,1.734,1.734,0,0,0,.495.19,1.4,1.4,0,0,0,.386-1.06A4.036,4.036,0,0,0,272.1,153.573Z" transform="translate(-270.275 -153.323)" fill="#fff"/>
        </g>
        <g id="Group_898-3" data-name="Group 898" transform="translate(19.238 240.751)">
          <path id="Path_1223-3" data-name="Path 1223" d="M247.33,141.683c0,1.165-.819,1.638-1.827,1.054a4.037,4.037,0,0,1-1.829-3.165c0-1.165.821-1.638,1.829-1.056A4.042,4.042,0,0,1,247.33,141.683Z" transform="translate(-243.673 -138.268)" fill="#273234"/>
          <path id="Path_1224-3" data-name="Path 1224" d="M244.953,138.4l-.024-.01c-.423.107-.694.514-.694,1.157a3.677,3.677,0,0,0,1.667,2.89,1.745,1.745,0,0,0,.491.192,1.394,1.394,0,0,0,.388-1.062A4.042,4.042,0,0,0,244.953,138.4Z" transform="translate(-243.123 -138.15)" fill="#fff"/>
        </g>
      </g>
    </g>
  </g>
</svg>
