<svg width="58" height="59" viewBox="0 0 58 59" xmlns="http://www.w3.org/2000/svg" xmlns:xlink="http://www.w3.org/1999/xlink">
    <defs>
        <path id="a" d="M0 0h24v24H0z"/>
    </defs>
    <g transform="translate(1 1.5)" fill="none" fill-rule="evenodd">
        <g transform="translate(16 16)">
            <mask id="b" fill="#fff">
                <use xlink:href="#a"/>
            </mask>
            <path d="M7.053.073C5.775.13 4.903.333 4.14.63a5.888 5.888 0 0 0-2.126 1.384A5.863 5.863 0 0 0 .63 4.14c-.297.763-.5 1.635-.557 2.913C.013 8.332 0 8.74 0 12c0 3.259.014 3.668.073 4.947.058 1.278.26 2.15.557 2.913.306.79.716 1.46 1.384 2.126A5.901 5.901 0 0 0 4.14 23.37c.764.297 1.635.5 2.913.557C8.333 23.985 8.74 24 12 24c3.259 0 3.668-.014 4.947-.073 1.278-.058 2.15-.26 2.913-.557a5.9 5.9 0 0 0 2.126-1.384 5.878 5.878 0 0 0 1.384-2.126c.297-.763.5-1.635.557-2.913.059-1.28.072-1.688.072-4.947 0-3.259-.013-3.668-.072-4.947-.058-1.278-.26-2.15-.557-2.913a5.901 5.901 0 0 0-1.384-2.126A5.871 5.871 0 0 0 19.86.63c-.764-.297-1.636-.5-2.913-.557C15.668.014 15.26 0 12.001 0 8.742 0 8.333.013 7.053.073zm.099 21.695c1.265.058 1.643.07 4.848.07s3.585-.012 4.85-.07c1.17-.053 1.806-.248 2.228-.413a3.73 3.73 0 0 0 1.38-.898c.42-.419.68-.819.898-1.379.164-.423.36-1.058.413-2.228.058-1.266.07-1.645.07-4.85 0-3.204-.012-3.583-.07-4.85-.053-1.17-.248-1.805-.413-2.228a3.717 3.717 0 0 0-.898-1.38c-.42-.42-.82-.68-1.38-.898-.424-.163-1.059-.36-2.229-.413-1.266-.057-1.646-.07-4.849-.07-3.203 0-3.583.012-4.848.07-1.17.054-1.806.249-2.228.413a3.7 3.7 0 0 0-1.38.898c-.42.42-.68.82-.898 1.38-.164.424-.36 1.059-.413 2.229-.057 1.266-.07 1.645-.07 4.85 0 3.204.012 3.584.07 4.849.053 1.17.248 1.806.413 2.228.217.56.477.96.897 1.38.42.42.82.679 1.38.897.423.165 1.06.36 2.229.413zm9.814-16.174a1.44 1.44 0 1 1 2.88 0 1.44 1.44 0 0 1-2.88 0zM5.838 12a6.162 6.162 0 1 0 12.324 0 6.162 6.162 0 0 0-12.324 0zm2.163 0a4 4 0 1 1 8-.001A4 4 0 0 1 8 12z" fill="#FEFEFE" mask="url(#b)"/>
        </g>
        <circle stroke="#FFF" stroke-width="2" opacity=".2" cx="28" cy="28" r="28"/>
    </g>
</svg>
