<svg width="58" height="59" viewBox="0 0 58 59" xmlns="http://www.w3.org/2000/svg">
    <g transform="translate(1 1.5)" fill="none" fill-rule="evenodd">
        <path d="M28.12 29.005c.364 0 .741-.194 1.132-.582l7.903-7.937c-.345-.324-.965-.486-1.86-.486H20.676c-.78 0-1.324.152-1.63.457l7.942 7.966c.383.388.76.582 1.132.582zm-9.88 5.47 6.465-6.48-6.475-6.48c-.153.285-.23.755-.23 1.41v10.141c0 .66.08 1.13.24 1.409zm19.75-.01c.147-.278.22-.745.22-1.399V22.924c0-.641-.073-1.1-.22-1.38l-6.456 6.451 6.456 6.47zM35.534 36c.78 0 1.33-.152 1.65-.457l-6.6-6.615-.575.583c-.614.595-1.243.893-1.89.893-.645 0-1.275-.298-1.889-.893l-.585-.583-6.57 6.606c.357.31.971.466 1.841.466h14.618z" fill="#FFF" fill-rule="nonzero"/>
        <circle stroke="#FFF" stroke-width="2" opacity=".2" cx="28" cy="28" r="28"/>
    </g>
</svg>
