<svg id="Group_832" data-name="Group 832" xmlns="http://www.w3.org/2000/svg" xmlns:xlink="http://www.w3.org/1999/xlink" width="278.549" height="208.926" viewBox="0 0 278.549 208.926">
  <defs>
    <linearGradient id="linear-gradient" x1="0.936" y1="0.138" x2="-0.016" y2="0.929" gradientUnits="objectBoundingBox">
      <stop offset="0" stop-color="#c1c0c0"/>
      <stop offset="1" stop-color="#dedddc"/>
    </linearGradient>
    <linearGradient id="linear-gradient-2" x1="0.936" y1="0.138" x2="-0.016" y2="0.929" xlink:href="#linear-gradient"/>
  </defs>
  <path id="Path_871" data-name="Path 871" d="M870.882,82.958c-27.188-16.731-85.387-49.3-85.387-49.3l-184.8,110.366s-15.013,22.237,22.03,42.983c53.619,30.036,73.4,17.071,73.4,17.071L866.07,106.124S885.267,91.809,870.882,82.958Z" transform="translate(-597.679 2.064)" opacity="0.2" style="mix-blend-mode: multiply;isolation: isolate"/>
  <g id="Group_825" data-name="Group 825" transform="translate(86.259 149.115)">
    <path id="Path_872" data-name="Path 872" d="M649.993,80.97l-3.657,3.815-2.908,1.677-12.548-19.7,16.82.216Z" transform="translate(-600.716 -64.083)"/>
    <g id="Group_824" data-name="Group 824">
      <path id="Path_873" data-name="Path 873" d="M662.246,74.086l-12.26-7.035c-2.939-1.673-6.986-1.413-11.453,1.164C629.556,73.4,622.279,86,622.279,96.368c0,5.215,1.841,8.869,4.818,10.555l12.256,7.028c2.935,1.662,6.975,1.406,11.439-1.171,8.974-5.18,16.254-17.786,16.254-28.149C667.047,79.423,665.209,75.773,662.246,74.086Z" transform="translate(-622.279 -65.995)" fill="#2e373a"/>
      <path id="Path_874" data-name="Path 874" d="M658.283,79.6c0,10.363-7.28,22.969-16.254,28.149-4.464,2.577-8.5,2.833-11.439,1.171-2.974-1.687-4.815-5.341-4.815-10.555,0-10.363,7.273-22.966,16.254-28.149,4.468-2.581,8.515-2.834,11.453-1.161C656.445,70.746,658.283,74.4,658.283,79.6Z" transform="translate(-613.515 -60.968)" fill="#555e61"/>
      <path id="Path_875" data-name="Path 875" d="M656.4,79.218c0,9.6-6.74,21.276-15.055,26.073-4.127,2.385-7.873,2.627-10.594,1.087-2.75-1.564-4.461-4.948-4.461-9.78,0-9.6,6.74-21.269,15.055-26.073,4.141-2.388,7.887-2.623,10.608-1.073C654.7,71.012,656.4,74.4,656.4,79.218Z" transform="translate(-612.224 -59.789)" fill="#3b4447"/>
      <g id="Group_823" data-name="Group 823" transform="translate(18.594 14.274)">
        <g id="Group_821" data-name="Group 821">
          <path id="Path_876" data-name="Path 876" d="M649.4,77.752A23.987,23.987,0,0,1,638.49,96.706c-5.541,3.345-11.029.07-10.906-6.358A24,24,0,0,1,638.49,71.394C644.03,68.049,649.518,71.331,649.4,77.752Z" transform="translate(-627.581 -70.065)" fill="url(#linear-gradient)"/>
        </g>
        <g id="Group_822" data-name="Group 822" transform="translate(0.6 0.893)">
          <path id="Path_877" data-name="Path 877" d="M648.521,77.639a22.859,22.859,0,0,1-10.38,18.042c-5.281,3.184-10.5.063-10.387-6.056a22.852,22.852,0,0,1,10.387-18.042C643.412,68.4,648.637,71.523,648.521,77.639Z" transform="translate(-627.752 -70.32)" fill="#cccbca"/>
        </g>
        <path id="Path_878" data-name="Path 878" d="M640.357,70.322c2.848.61,4.906,3.251,4.832,7.091a22.58,22.58,0,0,1-10.254,17.821,7.133,7.133,0,0,1-6.3.852c1.96,1.192,4.622,1.206,7.3-.41a22.859,22.859,0,0,0,10.38-18.042C646.392,73.285,643.773,70.452,640.357,70.322Z" transform="translate(-624.943 -69.421)" fill="#fff" opacity="0.5"/>
      </g>
    </g>
  </g>
  <g id="Group_830" data-name="Group 830" transform="translate(219.117 72.034)">
    <path id="Path_879" data-name="Path 879" d="M687.146,56.594l-1.909,4.738-4.854-.637-11.874-15.9,15.5.51Z" transform="translate(-639.246 -42.06)"/>
    <g id="Group_829" data-name="Group 829">
      <path id="Path_880" data-name="Path 880" d="M700.125,52.107l-12.253-7.035c-2.942-1.673-6.989-1.417-11.453,1.161-8.977,5.187-16.254,17.786-16.254,28.156,0,5.215,1.841,8.865,4.815,10.552l12.256,7.031c2.938,1.662,6.978,1.406,11.439-1.168,8.974-5.183,16.251-17.79,16.251-28.156C704.926,57.444,703.092,53.794,700.125,52.107Z" transform="translate(-660.165 -44.014)" fill="#2e373a"/>
      <path id="Path_881" data-name="Path 881" d="M696.165,57.62c0,10.366-7.277,22.973-16.251,28.156-4.461,2.574-8.5,2.83-11.439,1.168-2.974-1.683-4.815-5.337-4.815-10.552,0-10.37,7.277-22.973,16.254-28.152,4.464-2.581,8.515-2.833,11.45-1.161C694.33,48.766,696.165,52.416,696.165,57.62Z" transform="translate(-651.404 -38.986)" fill="#555e61"/>
      <path id="Path_882" data-name="Path 882" d="M694.285,57.235c0,9.6-6.74,21.276-15.055,26.076-4.131,2.385-7.873,2.623-10.594,1.087-2.753-1.564-4.461-4.948-4.461-9.78,0-9.6,6.74-21.272,15.055-26.073,4.135-2.388,7.887-2.623,10.6-1.077C692.584,49.032,694.285,52.416,694.285,57.235Z" transform="translate(-650.11 -37.808)" fill="#3b4447"/>
      <g id="Group_828" data-name="Group 828" transform="translate(18.591 14.275)">
        <g id="Group_826" data-name="Group 826">
          <path id="Path_883" data-name="Path 883" d="M687.284,55.772A24.027,24.027,0,0,1,676.378,74.73c-5.544,3.338-11.032.07-10.91-6.361a24.008,24.008,0,0,1,10.91-18.958C681.915,46.072,687.407,49.348,687.284,55.772Z" transform="translate(-665.466 -48.085)" fill="url(#linear-gradient-2)"/>
        </g>
        <g id="Group_827" data-name="Group 827" transform="translate(0.603 0.895)">
          <path id="Path_884" data-name="Path 884" d="M686.4,55.655A22.838,22.838,0,0,1,676.024,73.7c-5.278,3.184-10.5.067-10.383-6.056a22.837,22.837,0,0,1,10.383-18.039C681.3,46.421,686.52,49.542,686.4,55.655Z" transform="translate(-665.638 -48.34)" fill="#cccbca"/>
        </g>
        <path id="Path_885" data-name="Path 885" d="M678.24,48.341c2.847.614,4.91,3.254,4.836,7.091a22.57,22.57,0,0,1-10.258,17.825,7.126,7.126,0,0,1-6.3.852c1.956,1.192,4.618,1.2,7.294-.41a22.839,22.839,0,0,0,10.377-18.046C684.278,51.308,681.659,48.471,678.24,48.341Z" transform="translate(-662.826 -47.443)" fill="#fff" opacity="0.5"/>
      </g>
    </g>
  </g>
  <path id="Path_886" data-name="Path 886" d="M867.4,99.518a35.226,35.226,0,0,0,0-8.318c-.593-3.479-4.482-9.163-4.482-9.163s-2.816-8.662-4.769-11.884-9.847-9.844-26.311-20.708-34.286-18.926-40.223-20.876a50.434,50.434,0,0,0-11.2-2.29s-5-2.718-8.23-2.8a8.01,8.01,0,0,0-5.011,1.357s-20.62,6.533-33.262,13.07S702.592,55.129,693.429,61.41c-6.9,4.727-20.339,15.177-28.338,21.795l0,0c-.182-1.564-.558-3.44-1.322-4.2-1.406-1.413-3.942-1.343-5.916,0s-2.676,4.1-2.325,6.628a58.369,58.369,0,0,1,.33,5.835c-5.842,5.365-15.135,13.568-15.135,13.568L623.16,117.252c-11.969,7.3-17.229,20.455-17.229,20.455s-6.617,10.352-7.894,15.111,1.276,15.949,1.189,16.373-2.206,7.3,5.6,15.447,26.767,18.986,33.244,22.927,21.251,11.66,33.742,12.179c10.682.445,16.661-2.4,18.169-3.237.014-.074.018-.147.035-.224,2.427-12.232,7.483-28.675,23.425-37.463,10.706-5.9,20.963-2.118,16.254,14l-.137.473,95.016-56.109c2.069-11.667,11.155-28.289,21.588-34.31,10.569-6.105,17.846-2.455,16.626,11.909a24.117,24.117,0,0,0,4.446-6.943A13.2,13.2,0,0,0,867.4,99.518Z" transform="translate(-597.68 -23.473)" fill="#52d4de"/>
  <path id="Path_887" data-name="Path 887" d="M867.4,88.4a35.23,35.23,0,0,0,0-8.318c-.593-3.479-4.482-9.163-4.482-9.163s-2.816-8.662-4.769-11.885-9.847-9.844-26.311-20.708c-5.885-3.878-11.934-7.406-17.562-10.419,9.619,8.616,23.937,21.29,24.88,23.38l.063.021c-1.589-.466-2.676-.761-2.676-.761l-.231.231c-.687.154-7.315-.063-7.315-.063s-1.532.14-4.4-2.381c0,0-10.443.274-25.154,7.75-14.687,7.473-31.249,17.2-41.86,30.172s-12.256,16.692-17.481,24.684-16.752,29.138-19.5,32.8-16.791,13.61-16.791,13.61l-2.76,4.888-48.846,11.709-6.849,1.462-.144.186-.277-.168c-4.534.088-12.533-3.331-17.1-6.309-4.885-3.184-13.277-11.145-13.277-11.145a60.549,60.549,0,0,1-1.389-6.13c-.5-.428-.768-.663-.768-.663l-5.786-26.126c-.466.961-.7,1.532-.7,1.532s-6.617,10.352-7.894,15.111a20.732,20.732,0,0,0-.224,6.428l0,.007c-.087-1.918,13.316,14.052,13.316,14.052l30.113,20.294,21.033,6.467,1.41.782.936-.06,5.043,1.55s-3.384,4.818-8.729,5.583a34.972,34.972,0,0,1-20.15-3.672l-.628-2.749-25.417-14.949-.281,1.788S603.846,168.695,602,163.806a97.425,97.425,0,0,1-4.163-15.447c.4,4.636,1.448,9.44,1.392,9.714-.084.424-2.206,7.3,5.6,15.447s26.767,18.986,33.244,22.927,21.251,11.66,33.742,12.179c10.682.445,16.661-2.4,18.169-3.237.014-.074.018-.147.035-.224,2.427-12.232,7.483-28.675,23.425-37.463,10.706-5.9,20.963-2.118,16.254,14l-.137.473,95.016-56.109c2.069-11.667,11.155-28.289,21.588-34.31,9.714-5.611,16.636-2.974,16.752,8.63.333.649.652,1.319.94,2.006a21.981,21.981,0,0,0,3.38-5.67A13.2,13.2,0,0,0,867.4,88.4ZM668.16,204.692c-9.633-.487-22.973-7.266-22.973-7.266s9.906,1.739,12.53,1.557c0,0,17.011,4.59,27.763,2.5A39.4,39.4,0,0,1,668.16,204.692Zm94.157-73.558c-.7,1.2-2.676,2.4-5.635,2.321s-9.016-.491-10.075.708-4.506,1.476-3.521-1.834c0,0,6.761-7.592,8.735-8.834s5-.537,7.4,1.227S763.018,129.934,762.317,131.134Z" transform="translate(-597.681 -12.355)" opacity="0.2" style="mix-blend-mode: multiply;isolation: isolate"/>
  <path id="Path_888" data-name="Path 888" d="M685.5,122a122.655,122.655,0,0,0,9.226-10.562c3.486-4.713,21.532-34.956,26.655-41.11,0,0-23.166-12.095-33.115-18.351s-25.729-17.117-25.729-17.117S637.21,53.613,629.422,60.377s-16.969,15.945-16.969,15.945a11.22,11.22,0,0,0-.666,13.171c4.51,7.28,16.71,15.994,26.757,21.328S672.376,126.508,685.5,122Z" transform="translate(-566.949 5.06)" fill="#141c1e"/>
  <path id="Path_889" data-name="Path 889" d="M686.355,51.954c-8.939-5.618-22.748-15.072-25.337-16.847-3.31,2.462-25.519,18.986-32.655,25.189-7.687,6.67-16.84,15.812-16.9,15.868a8.761,8.761,0,0,0-.912,1.361c3.416,5.713,10.545,13.722,26.673,23.425,22.177,13.343,46.346,19.785,46.346,19.785a122.374,122.374,0,0,0,9.044-10.359c1.353-1.838,4.98-7.638,9.174-14.364,6.053-9.7,13.5-21.626,16.948-26.087C714.616,67.759,695.181,57.5,686.355,51.954Z" transform="translate(-565.417 5.691)" fill="#303e42"/>
  <path id="Path_890" data-name="Path 890" d="M696.057,59.565s15.16,6.786,18.2,7.249,6.011,0,5.5-2.111S704.28,51.292,697.39,46.919s-21.742-13.157-31.4-17.376c0,0-10.127-4.317-15.219-4.934,0,0,13.726,6.733,21.332,11.516s20.41,14.806,21.848,17.376A23.651,23.651,0,0,1,696.057,59.565Z" transform="translate(-464.606 -20.625)" fill="#141c1e"/>
  <path id="Path_891" data-name="Path 891" d="M652.553,39.731c-2.273-1.529-4.32-2.921-5.927-4.019h0S625.26,52.594,617.534,59.667Z" transform="translate(-547.914 7.208)" fill="#c5d0d3" opacity="0.7"/>
  <path id="Path_892" data-name="Path 892" d="M689.206,53.693c-1.038-.617-2-1.2-2.851-1.739-8.939-5.618-22.748-15.072-25.337-16.847-3.31,2.462-25.519,18.986-32.655,25.189-7.687,6.67-16.84,15.812-16.9,15.868a8.761,8.761,0,0,0-.912,1.361A44.347,44.347,0,0,0,617.317,86C623.85,80.716,648.7,62.428,689.206,53.693Z" transform="translate(-565.417 5.691)" fill="#fff" opacity="0.2"/>
  <g id="Group_831" data-name="Group 831" transform="translate(250.947 46.006)">
    <path id="Path_893" data-name="Path 893" d="M684.08,49.977c-.33-.519-.544-.828-.544-.828s-2.816-8.662-4.769-11.884c-.13-.207-.284-.438-.459-.673a6.409,6.409,0,0,1-.719,2.171c-.754,1.042-4.98,4.334-6.2,5.365s-3.384,3.759-1.224,5.734,11.092,3.886,12.779,2.444A3.894,3.894,0,0,0,684.08,49.977Z" transform="translate(-669.242 -36.592)" fill="#970007"/>
    <path id="Path_894" data-name="Path 894" d="M679.332,46.633a3.894,3.894,0,0,0,1.14-2.329c-.329-.519-.544-.828-.544-.828s-.684-2.1-1.613-4.622a35.181,35.181,0,0,1-7.634,7.234C674.058,47.089,678.235,47.573,679.332,46.633Z" transform="translate(-665.634 -30.919)" fill="#c5ccd0"/>
  </g>
  <path id="Path_895" data-name="Path 895" d="M613.232,83.1s19.129-7.122,26.108-9.609,17.807-7.024,21.079-8.248,5.8-2.048,5.123,1.077-6.978,14.2-17.229,17.811S629.142,88.712,613.232,83.1Z" transform="translate(-558.699 78.495)" fill="#e1e8ec"/>
  <path id="Path_896" data-name="Path 896" d="M618.476,50.177l-.2.133c-9.745,5.944-15.044,15.77-16.675,19.214-.165.361-.266.575-.277.607l-.007.011c-.007.018-2.357,6.424-1.508,11.453s6.326,11.6,7.574,12.3c0,0-2.094-13.5-.4-20.227S615.215,54.333,618.476,50.177Z" transform="translate(-592.8 43.468)" fill="#e1e8ec"/>
  <path id="Path_897" data-name="Path 897" d="M670.728,104.852c.242,2.672-2.462,5.218-5.962,7.231s-9.051,1.711-14.406,0a34.976,34.976,0,0,1-8.487-3.878l-.48-1.266s-9.658-5.257-13.908-7.754-11.478-7.753-11.478-7.753l-.929.333s-7.8-5.551-11.152-9.507-5.064-10.99-5.59-14.16-.67-6.568.186-7.217S602,63.29,605.2,66.457s9.016,8.013,9.016,8.013a16.342,16.342,0,0,0,4.285,4.885,167.217,167.217,0,0,0,16.664,10.513c3.2,1.6,8.087,3.465,10.1,3.054,0,0,7.561,3.321,13.364,5.4S670.429,101.57,670.728,104.852Z" transform="translate(-597.1 70.08)" fill="#303e42"/>
  <path id="Path_898" data-name="Path 898" d="M615.766,74.844a2.882,2.882,0,0,0-1.227-.41,2.26,2.26,0,0,0-.754,1.89,6.778,6.778,0,0,0,3.075,5.323,2.918,2.918,0,0,0,1.227.417,2.278,2.278,0,0,0,.754-1.894A6.8,6.8,0,0,0,615.766,74.844Z" transform="translate(-557.312 104.276)" fill="#e1e8ec"/>
  <path id="Path_899" data-name="Path 899" d="M600.328,65.676a2.909,2.909,0,0,0-1.227-.414,2.27,2.27,0,0,0-.754,1.89,6.8,6.8,0,0,0,3.079,5.327,2.913,2.913,0,0,0,1.224.414A2.279,2.279,0,0,0,603.4,71,6.8,6.8,0,0,0,600.328,65.676Z" transform="translate(-596.012 81.283)" fill="#e1e8ec"/>
  <path id="Path_900" data-name="Path 900" d="M727.952,36.457c-1.512-1.922-18.993,1.813-29.541,6.922s-23.527,14.073-29.794,19.13-22.977,31.656-27.868,39.63c0,0-6.238,10.331-4.243,13.575s5.292.877,9.356-1.6c.168-.1.424-.26.754-.47a3.105,3.105,0,0,1,.133-1.462s6.761-7.592,8.735-8.834c1.634-1.027,3.994-.7,6.119.435,17.1-11.337,41.808-27.812,41.808-27.812s16.752-13.522,21.648-23.085S729.456,38.378,727.952,36.457Z" transform="translate(-501.344 7.789)" fill="#141c1e"/>
  <path id="Path_901" data-name="Path 901" d="M644.792,93.718a5.865,5.865,0,0,1,5.369.063c11.758-7.789,27.265-18.116,35.822-23.818-1.322-5.983-5.071-22.524-7.792-30.176a194.6,194.6,0,0,0-19.813,13.648c-3.595,2.9-11.092,13.592-18,24.144l1.1,19.161A26.113,26.113,0,0,1,644.792,93.718Z" transform="translate(-490.652 17.423)" fill="#303e42"/>
  <path id="Path_902" data-name="Path 902" d="M646.241,73.448s1.8-2.016,3.812-4.142l-1.4-17.909c-2.9,4.5-5.625,8.827-7.8,12.379-2.325,3.847-5.537,10.734-4.254,12.821a2.166,2.166,0,0,0,1.929,1.238c1.445,0,3.458-1.238,5.594-2.549l.848-.522c.224-.133.614-.382,1.129-.708A4.557,4.557,0,0,1,646.241,73.448Z" transform="translate(-500.836 46.527)" fill="#303e42"/>
  <path id="Path_903" data-name="Path 903" d="M614.569,52.509c1.459-1.336,2.7-2.5,3.535-3.317,1.027-1.006,3.072-2.767,5.7-4.945-.182-1.564-.558-3.44-1.322-4.2-1.406-1.413-3.942-1.343-5.916,0s-2.676,4.1-2.325,6.628A58.37,58.37,0,0,1,614.569,52.509Z" transform="translate(-556.389 15.481)" opacity="0.2" style="mix-blend-mode: multiply;isolation: isolate"/>
  <path id="Path_904" data-name="Path 904" d="M685.334,36.4s-.3-.249-1.722-.249c-5.32,0-18.523,3.286-26.946,7.368-1.238.6-2.5,1.245-3.777,1.932,1.631,4.7,6.109,17.811,9.2,28.461,3.893-3.265,16.254-14.01,20.273-21.865C686.8,43.376,686.8,38.274,685.334,36.4Z" transform="translate(-459.287 8.303)" fill="#303e42"/>
  <path id="Path_905" data-name="Path 905" d="M696.345,47.2c-7.438-4.717-21.974-13.571-31.372-17.671-.052-.021-8.279-2.872-13.943-4.794,3.2,1.589,13.985,7.021,20.409,11.06,7.61,4.78,20.409,14.806,21.847,17.376a22.444,22.444,0,0,1,1.981,5.485c5.712,2.5,16.31,6.786,18.432,7.115a13.08,13.08,0,0,0,1.932.154,3.679,3.679,0,0,0,2.665-.7.715.715,0,0,0,.095-.67C717.859,62.8,703.87,51.976,696.345,47.2Z" transform="translate(-463.947 -20.299)" fill="#303e42"/>
</svg>
