<svg xmlns="http://www.w3.org/2000/svg" width="270.37" height="229.912" viewBox="0 0 270.37 229.912">
  <g id="Group_768" data-name="Group 768" transform="translate(-156.717 -195.594)">
    <path id="Path_767" data-name="Path 767" d="M248,421.192l175.2-101.717a7.823,7.823,0,0,0-.017-13.541l-80.456-46.451L165.146,362.58a16.929,16.929,0,0,0,.035,29.3l50.836,29.35A31.914,31.914,0,0,0,248,421.192Z" fill="#90a3ba" style="mix-blend-mode: multiply;isolation: isolate"/>
    <g id="Group_809" data-name="Group 809">
      <g id="Group_808" data-name="Group 808">
        <g id="Group_807" data-name="Group 807">
          <g id="Group_805" data-name="Group 805">
            <g id="Group_804" data-name="Group 804">
              <g id="Group_803" data-name="Group 803">
                <g id="Group_781" data-name="Group 781">
                  <path id="Path_768" data-name="Path 768" d="M270.784,382.22v-3.356l-5.773-3.317-18.06,32.886,4.387,2.533Z" fill="#01284f"/>
                  <g id="Group_768-2" data-name="Group 768">
                    <path id="Path_769" data-name="Path 769" d="M255.954,407.264c7.346-4.241,13.322-14.55,13.322-22.979s-5.976-11.837-13.322-7.6-13.323,14.55-13.323,22.979S248.608,411.505,255.954,407.264Z" fill="#01284f"/>
                  </g>
                  <g id="Group_769" data-name="Group 769">
                    <path id="Path_770" data-name="Path 770" d="M261.213,410.3c7.346-4.241,13.322-14.55,13.322-22.979s-5.976-11.837-13.322-7.6S247.89,394.275,247.89,402.7,253.867,414.542,261.213,410.3Zm0-24.943c4.639-2.678,8.414-.526,8.414,4.8s-3.775,11.834-8.414,14.513-8.415.527-8.415-4.8S256.573,388.036,261.213,385.357Z" fill="#30314a"/>
                  </g>
                  <g id="Group_770" data-name="Group 770">
                    <path id="Path_771" data-name="Path 771" d="M252.3,400.157c0,5.648,3.989,7.922,8.911,5.081s8.911-9.723,8.911-15.37-3.99-7.922-8.911-5.081S252.3,394.51,252.3,400.157Z" fill="#c5ffff"/>
                  </g>
                  <g id="Group_771" data-name="Group 771">
                    <path id="Path_772" data-name="Path 772" d="M263.343,392.9,268.2,388.1a4.026,4.026,0,0,0-1.735-2.132l-3.646,6.289A1.233,1.233,0,0,1,263.343,392.9Z" fill="#01284f"/>
                  </g>
                  <g id="Group_772" data-name="Group 772">
                    <path id="Path_773" data-name="Path 773" d="M263.262,394.936l4.665-.173a12.9,12.9,0,0,0,.707-4.034l-5.158,2.977A3.967,3.967,0,0,1,263.262,394.936Z" fill="#01284f"/>
                  </g>
                  <g id="Group_773" data-name="Group 773">
                    <path id="Path_774" data-name="Path 774" d="M262.814,395.925a5.185,5.185,0,0,1-.835,1.089l1.748,4.562A17.244,17.244,0,0,0,266.46,398Z" fill="#01284f"/>
                  </g>
                  <g id="Group_774" data-name="Group 774">
                    <path id="Path_775" data-name="Path 775" d="M260.247,397.92l-2.194,6.622a6.9,6.9,0,0,0,3.16-1.014V397.61A2.109,2.109,0,0,1,260.247,397.92Z" fill="#01284f"/>
                  </g>
                  <g id="Group_775" data-name="Group 775">
                    <path id="Path_776" data-name="Path 776" d="M264.372,385.483a6.9,6.9,0,0,0-3.159,1.015v5.916a2.094,2.094,0,0,1,.962-.308Z" fill="#01284f"/>
                  </g>
                  <g id="Group_776" data-name="Group 776">
                    <path id="Path_777" data-name="Path 777" d="M255.967,392.021l3.646,2.079a5.268,5.268,0,0,1,.832-1.088l-1.746-4.56A17.2,17.2,0,0,0,255.967,392.021Z" fill="#01284f"/>
                  </g>
                  <g id="Group_777" data-name="Group 777">
                    <path id="Path_778" data-name="Path 778" d="M253.793,399.3l5.155-2.977a3.913,3.913,0,0,1,.216-1.23l-4.665.174A12.89,12.89,0,0,0,253.793,399.3Z" fill="#01284f"/>
                  </g>
                  <g id="Group_778" data-name="Group 778">
                    <path id="Path_779" data-name="Path 779" d="M259.082,397.123l-4.853,4.8a4.023,4.023,0,0,0,1.738,2.135l3.646-6.289A1.229,1.229,0,0,1,259.082,397.123Z" fill="#01284f"/>
                  </g>
                  <g id="Group_779" data-name="Group 779">
                    <path id="Path_780" data-name="Path 780" d="M261.213,392.414v0Z" fill="#01284f"/>
                  </g>
                  <g id="Group_780" data-name="Group 780">
                    <path id="Path_781" data-name="Path 781" d="M258.206,396.745c0,1.9,1.345,2.67,3,1.713a6.622,6.622,0,0,0,3-5.182c0-1.9-1.345-2.67-3-1.712A6.618,6.618,0,0,0,258.206,396.745Z" fill="#fff"/>
                  </g>
                </g>
                <g id="Group_795" data-name="Group 795">
                  <path id="Path_782" data-name="Path 782" d="M412.308,302.173v-3.356l-5.773-3.317-18.06,32.886,4.387,2.533Z" fill="#01284f"/>
                  <g id="Group_782" data-name="Group 782">
                    <path id="Path_783" data-name="Path 783" d="M397.478,327.218c7.346-4.241,13.323-14.55,13.323-22.98s-5.977-11.837-13.323-7.6-13.323,14.55-13.323,22.979S390.132,331.459,397.478,327.218Z" fill="#01284f"/>
                  </g>
                  <g id="Group_783" data-name="Group 783">
                    <path id="Path_784" data-name="Path 784" d="M402.737,330.254c7.346-4.241,13.323-14.55,13.323-22.979s-5.977-11.837-13.323-7.6-13.323,14.55-13.323,22.979S395.391,334.5,402.737,330.254Zm0-24.943c4.64-2.679,8.414-.527,8.414,4.8s-3.774,11.834-8.414,14.513-8.414.527-8.414-4.8S398.1,307.99,402.737,305.311Z" fill="#30314a"/>
                  </g>
                  <g id="Group_784" data-name="Group 784">
                    <ellipse id="Ellipse_50" data-name="Ellipse 50" cx="12.563" cy="7.253" rx="12.563" ry="7.253" transform="translate(390.135 322.152) rotate(-59.69)" fill="#c5ffff"/>
                  </g>
                  <g id="Group_785" data-name="Group 785">
                    <path id="Path_785" data-name="Path 785" d="M404.867,312.856l4.853-4.807a4.028,4.028,0,0,0-1.736-2.132l-3.646,6.289A1.234,1.234,0,0,1,404.867,312.856Z" fill="#01284f"/>
                  </g>
                  <g id="Group_786" data-name="Group 786">
                    <path id="Path_786" data-name="Path 786" d="M404.787,314.89l4.664-.173a12.9,12.9,0,0,0,.707-4.034L405,313.66A4,4,0,0,1,404.787,314.89Z" fill="#01284f"/>
                  </g>
                  <g id="Group_787" data-name="Group 787">
                    <path id="Path_787" data-name="Path 787" d="M404.338,315.879a5.183,5.183,0,0,1-.835,1.089l1.748,4.561a17.213,17.213,0,0,0,2.733-3.571Z" fill="#01284f"/>
                  </g>
                  <g id="Group_788" data-name="Group 788">
                    <path id="Path_788" data-name="Path 788" d="M401.772,317.874l-2.2,6.622a6.884,6.884,0,0,0,3.16-1.015v-5.917A2.109,2.109,0,0,1,401.772,317.874Z" fill="#01284f"/>
                  </g>
                  <g id="Group_789" data-name="Group 789">
                    <path id="Path_789" data-name="Path 789" d="M405.9,305.437a6.9,6.9,0,0,0-3.159,1.015v5.916a2.1,2.1,0,0,1,.963-.309Z" fill="#01284f"/>
                  </g>
                  <g id="Group_790" data-name="Group 790">
                    <path id="Path_790" data-name="Path 790" d="M397.491,311.975l3.646,2.079a5.237,5.237,0,0,1,.833-1.088l-1.746-4.56A17.174,17.174,0,0,0,397.491,311.975Z" fill="#01284f"/>
                  </g>
                  <g id="Group_791" data-name="Group 791">
                    <path id="Path_791" data-name="Path 791" d="M395.317,319.251l5.156-2.977a3.951,3.951,0,0,1,.215-1.231l-4.664.175A12.892,12.892,0,0,0,395.317,319.251Z" fill="#01284f"/>
                  </g>
                  <g id="Group_792" data-name="Group 792">
                    <path id="Path_792" data-name="Path 792" d="M400.606,317.076l-4.852,4.805a4.017,4.017,0,0,0,1.737,2.135l3.646-6.289A1.228,1.228,0,0,1,400.606,317.076Z" fill="#01284f"/>
                  </g>
                  <g id="Group_793" data-name="Group 793">
                    <path id="Path_793" data-name="Path 793" d="M402.737,312.368v0Z" fill="#01284f"/>
                  </g>
                  <g id="Group_794" data-name="Group 794">
                    <path id="Path_794" data-name="Path 794" d="M399.73,316.7c0,1.9,1.345,2.67,3,1.713a6.62,6.62,0,0,0,3-5.182c0-1.9-1.345-2.67-3-1.712A6.618,6.618,0,0,0,399.73,316.7Z" fill="#fff"/>
                  </g>
                </g>
                <path id="Path_795" data-name="Path 795" d="M415.912,231.833c-2.679-1.716-6.479-1.534-10.639.869l-97.965,56.344c-6.769,3.908-13.2,10.487-18.135,18.346a66.186,66.186,0,0,0-5.1,9.868L272.31,345.71q-.4.332-.832.68c-10.517,8.609-31.793,26.268-33.765,29.838-2.629,4.759-6.048,19.861-6.048,19.861l-1.316,4.6L232.92,415.2l.058.339-62.309-35.576-.061-.34-2.569-14.513,1.314-4.6s.479-2.117,1.217-5.017c1.232-4.843,3.186-11.869,4.831-14.846,2.024-3.666,24.415-22.2,34.6-30.519l11.762-28.449a66.022,66.022,0,0,1,5.3-10.172c4.912-7.724,11.26-14.183,17.94-18.041l97.968-56.344c7.264-4.194,17.486,1.192,24.4,4.633C382.459,209.27,413.51,230.208,415.912,231.833Z" fill="#60e3ac"/>
                <path id="Path_796" data-name="Path 796" d="M415.629,310.493a20.335,20.335,0,0,0,.154-2.454c0-8.606-6.079-12.072-13.58-7.742s-13.58,14.817-13.58,23.423a16.138,16.138,0,0,0,.151,2.247l-114.48,65.768a21.527,21.527,0,0,0,.5-4.485c0-8.607-6.081-12.074-13.58-7.743s-13.581,14.817-13.581,23.422a14.411,14.411,0,0,0,.492,3.886l-15.147,8.728-.058-.339-2.571-14.514,1.316-4.6s3.419-15.1,6.048-19.861c1.972-3.57,23.248-21.229,33.765-29.838q.428-.35.832-.68l11.762-28.45a66.186,66.186,0,0,1,5.1-9.868c4.939-7.859,11.366-14.438,18.135-18.346L405.273,232.7c4.16-2.4,7.96-2.585,10.639-.869.051.033.1.067.148.1l5.953,74.88Z" fill="#60e3ac"/>
                <path id="Path_797" data-name="Path 797" d="M220.115,367.8h-.435l.366-.376Z" fill="#14243f"/>
                <g id="Group_798" data-name="Group 798">
                  <path id="Path_798" data-name="Path 798" d="M422.013,306.813l-5.953-74.88c1.921,1.3,3.241,3.607,3.674,6.795l7.227,58.154A10.033,10.033,0,0,1,422.013,306.813Z" fill="#60e3ac"/>
                  <path id="Path_799" data-name="Path 799" d="M281.933,348.8c-3.075,1.864-3.617-2.583-2.064-6.527,4.555-11.57,11.216-29.141,16.448-34.836,4.284-4.661,10.559-8.909,15.236-11.738,3.537-2.139,6.522-.766,6.8,3.123l1.348,19.035c.3,4.195-2.658,9.66-6.474,11.973Z" fill="#013f66"/>
                  <g id="Group_796" data-name="Group 796">
                    <path id="Path_800" data-name="Path 800" d="M283.522,333.01c4.284-10.849,8.464-20.857,12.795-25.571,4.284-4.661,10.559-8.909,15.236-11.738,3.537-2.139,6.522-.766,6.8,3.123l1.348,19.035c.3,4.195-2.658,9.66-6.474,11.973L285.912,346.39S282.63,335.268,283.522,333.01Z" fill="#c5ffff" opacity="0.65"/>
                    <path id="Path_801" data-name="Path 801" d="M285.466,347.541l-.277-.937c-.56-1.9-3.309-11.492-2.368-13.87,4.275-10.831,8.484-20.953,12.941-25.8,4.379-4.765,10.791-9.086,15.4-11.873,2.013-1.219,3.962-1.453,5.494-.657a5.023,5.023,0,0,1,2.447,4.372l1.347,19.034c.319,4.508-2.747,10.193-6.835,12.671Zm29.228-52.1a5.472,5.472,0,0,0-2.752.9c-4.525,2.736-10.812,6.97-15.07,11.6-4.284,4.66-8.428,14.645-12.65,25.337-.512,1.3.872,7.461,2.141,11.949l26.471-16.049c3.592-2.177,6.391-7.34,6.111-11.275L317.6,298.878a3.6,3.6,0,0,0-1.635-3.14A2.726,2.726,0,0,0,314.694,295.445Z" fill="#01284f"/>
                  </g>
                  <path id="Path_802" data-name="Path 802" d="M221.688,306.471l1.55-.412A2.237,2.237,0,0,1,221.688,306.471Z" fill="#06172b"/>
                  <g id="Group_797" data-name="Group 797">
                    <path id="Path_803" data-name="Path 803" d="M282.761,386.073a6.174,6.174,0,0,1-2.474-.49,6.567,6.567,0,0,1-3.649-4.838l-3.007-12.852c-1.6-6.824-.718-15.463,2.475-24.326,5.256-14.591,12.958-33.677,19.81-41.744,11.033-12.989,26.576-17.361,26.731-17.4l.415-.113.1.419c.292,1.294,7.135,31.832,6.436,41.468-.692,9.56-.7,34.164-.7,34.411v.237l-41.015,23.679A10.41,10.41,0,0,1,282.761,386.073Zm-8.332-18.366,3.007,12.852a5.782,5.782,0,0,0,3.176,4.271c1.876.811,4.31.45,6.856-1.021l40.6-23.441c0-2.567.045-25.149.7-34.233.644-8.907-5.48-36.982-6.324-40.8-2.524.785-16.048,5.408-25.911,17.02-6.773,7.973-14.431,26.963-19.662,41.491-3.141,8.714-4.011,17.188-2.45,23.861Z" fill="#bab7b3" opacity="0.191"/>
                  </g>
                  <path id="Path_804" data-name="Path 804" d="M330.818,294.092l1.014,17.617c.285,4.952,4.013,6.765,8.481,4.124l66.781-39.046c5.325-3.147,9.247-11.081,8.1-16.387l-3.187-14.75c-.837-3.877-4.176-5.078-8.067-2.9l-64.609,36.18C334.431,281.667,330.505,288.66,330.818,294.092Z"/>
                  <path id="Path_805" data-name="Path 805" d="M330.818,291.456l1.014,17.616c.285,4.952,4.013,6.765,8.481,4.124l66.781-39.046c5.325-3.147,9.247-11.08,8.1-16.386l-3.187-14.75c-.837-3.877-4.176-5.079-8.067-2.9l-64.609,36.18C334.431,279.03,330.505,286.023,330.818,291.456Z" fill="#61e5ae" opacity="0.44"/>
                </g>
                <g id="Group_799" data-name="Group 799">
                  <path id="Path_806" data-name="Path 806" d="M271.478,346.8a.423.423,0,0,1-.111-.015A169.143,169.143,0,0,1,235.134,331.8c-11.9-6.752-20.711-14.169-25.475-21.449a.405.405,0,0,1-.035-.376l11.762-28.45a66.444,66.444,0,0,1,5.328-10.234.406.406,0,0,1,.342-.188.412.412,0,0,1,.167.036c1.674.759,3.337,1.529,4.943,2.289,8.51,4.02,17.147,8.548,25.673,13.457,10.506,6.048,21.126,12.835,31.567,20.174a.405.405,0,0,1,.11.547,65.651,65.651,0,0,0-5.069,9.807l-11.763,28.45a.406.406,0,0,1-.117.158l-.833.681A.4.4,0,0,1,271.478,346.8Z" fill="#c5ffff"/>
                </g>
                <path id="Path_807" data-name="Path 807" d="M247.89,410.042s-7.774,7.973-14.657,8.378-29.957-10.526-42.1-17.873-18-14.714-20.462-19.331c-1.5-2.822-2.63-9.757-4.638-12.548s2.008-4.9,2.008-4.9l2.1-5.3a104.6,104.6,0,0,0,23.529,20.679,161.177,161.177,0,0,0,38,18.187l16.225-.164s-.757,5.324-.939,7.077S247.89,410.042,247.89,410.042Z" fill="#54566d"/>
                <path id="Path_808" data-name="Path 808" d="M208.686,407.068l-19.24-11.108a40.342,40.342,0,0,1-12.866-12.68c-.037-.055,45.009,25.952,45.009,25.952C217.949,410.548,213.39,409.783,208.686,407.068Z" fill="#0d213b"/>
                <path id="Path_809" data-name="Path 809" d="M208.956,401.808l-25.53-14.739A2.6,2.6,0,0,1,182.343,385v-4.53c0-.8.485-1.165,1.083-.819l25.53,14.74a2.592,2.592,0,0,1,1.084,2.07v4.53C210.04,401.787,209.555,402.154,208.956,401.808Z" fill="#93c6d1"/>
                <path id="Path_810" data-name="Path 810" d="M247.89,397.174s-11.418,3.8-17.541,3.516-18.977-6.3-34.158-14.191-28.152-22.732-28.152-22.732l2.1-5.3a104.6,104.6,0,0,0,23.529,20.679,161.177,161.177,0,0,0,38,18.187Z" fill="#016984"/>
                <g id="Group_800" data-name="Group 800">
                  <path id="Path_811" data-name="Path 811" d="M178.44,364.536s-.8-.9-1.9-2.125a1.02,1.02,0,0,1-.091-.105.712.712,0,0,1-.09-.106c-2.111-2.382-5.156-5.819-5.789-6.708a7.45,7.45,0,0,1-.8-7.462c.015-.03.015-.06.03-.091a14.581,14.581,0,0,1,.92-1.884c2.08-3.542,5.532-6.437,6.587-7.688,1.9-2.291,2.849,4.01.8,8.02C176.073,350.412,178.44,364.536,178.44,364.536Z" fill="#0d6da2"/>
                  <path id="Path_812" data-name="Path 812" d="M213.029,386.5s10.146-10.471,14.978-11.633,8.775-3.744,11.472-1.163-1.623,13.948-6.547,15.754S213.029,386.5,213.029,386.5Z" fill="#0d6da2"/>
                </g>
                <g id="Group_801" data-name="Group 801">
                  <path id="Path_813" data-name="Path 813" d="M179.259,357.29v7.658a114,114,0,0,0,14.436,11.74,119.321,119.321,0,0,0,17.813,9.275l4.992-4.734a74.1,74.1,0,0,1-25.1-12.5C187.5,365.64,179.259,357.29,179.259,357.29Z" fill="#016984"/>
                  <path id="Path_814" data-name="Path 814" d="M211.672,386.844l-.451-.184a121.221,121.221,0,0,1-17.945-9.345,115.848,115.848,0,0,1-14.544-11.828l-.227-.223v-9.811l1.29,1.307c.082.084,8.251,8.353,12.073,11.374A73.956,73.956,0,0,0,216.681,380.5l1.339.331Zm-31.66-22.215a114.117,114.117,0,0,0,14.1,11.432,117.92,117.92,0,0,0,17.233,9.017l3.673-3.482a75.807,75.807,0,0,1-24.085-12.279c-3.005-2.376-8.437-7.723-10.921-10.2Z" fill="#01284f"/>
                </g>
                <path id="Path_815" data-name="Path 815" d="M221.173,299.531c-1.24,3.151-1.143,6.625.515,6.94l-11.437,3.049.128-.308,11.381-27.53a66.022,66.022,0,0,1,5.3-10.172q2.465,1.117,4.937,2.285C228.147,281.534,224.2,291.853,221.173,299.531Z" fill="#8ad6e9"/>
                <path id="Path_816" data-name="Path 816" d="M289.173,307.392a66.186,66.186,0,0,0-5.1,9.868l-7.357,17.8L224.036,307.83l33.6-20.592Q273.429,296.328,289.173,307.392Z" fill="#1e96c4"/>
                <g id="Group_802" data-name="Group 802">
                  <path id="Path_817" data-name="Path 817" d="M275.761,333.8h-4.523c0-3.532-3.8-8.755-10.843-11.478-3.579-1.382-5.837-.707-6.213-.314a.861.861,0,0,0,.164-.513l-4.52-.118a3.973,3.973,0,0,1,1.929-3.195c1.856-1.237,5.532-1.909,10.271-.078C270.112,321.231,275.761,327.686,275.761,333.8Z" fill="#8ad6e9"/>
                </g>
                <path id="Path_818" data-name="Path 818" d="M276.715,335.057l-4.4,10.653q-.4.332-.832.68c-24.527-6.957-51.363-20.8-61.48-36.259a2.358,2.358,0,0,1,.381-.919c1.582-2.3,7.272-2.115,12.434-2.842C228.582,305.557,276.715,335.057,276.715,335.057Z" fill="#30314a"/>
                <path id="Path_819" data-name="Path 819" d="M281.611,342.075s3.48-.221,4.574-2.641,12.934,4.867,13.188,6.082-1.252,5.288-2.783,5.693c-2.574.681-8.689-4.284-9.751-4.284s-5.228-.535-5.228-.535A2.64,2.64,0,0,1,281.611,342.075Z" fill="#14243f"/>
                <path id="Path_820" data-name="Path 820" d="M286.837,343.96v1.765a2.029,2.029,0,0,0,1.053,1.777l5.5,3.012s2.067-1.94,0-3.571a35.353,35.353,0,0,0-6.027-3.334A.377.377,0,0,0,286.837,343.96Z" fill="#06172b"/>
                <path id="Path_821" data-name="Path 821" d="M315.415,340.593s-1.486-2.45,3.2-5.536,4.69.183,4.69.183Z" fill="#013f66"/>
                <path id="Path_822" data-name="Path 822" d="M227.294,271.906q2.439,1.107,4.885,2.262,12.66,5.98,25.373,13.3,15.624,8.994,31.2,19.941a65.491,65.491,0,0,0-5.047,9.763l-7.28,17.608-4.358,10.541-.823.673c-24.267-6.884-50.819-20.578-60.829-35.875l.25-.6.127-.3,11.261-27.24a65.417,65.417,0,0,1,5.239-10.064Zm0-.8a.8.8,0,0,0-.677.372,66.056,66.056,0,0,0-5.3,10.187L210.053,308.9l-.125.3-.251.605a.8.8,0,0,0,.07.745c4.748,7.256,13.511,14.639,25.343,21.351a167.649,167.649,0,0,0,35.938,14.856.776.776,0,0,0,.218.031.8.8,0,0,0,.506-.181c.284-.23.558-.455.825-.674a.8.8,0,0,0,.233-.313l4.358-10.541,7.28-17.608a64.6,64.6,0,0,1,4.985-9.643.8.8,0,0,0-.218-1.081c-10.34-7.268-20.858-13.99-31.264-19.981-8.444-4.862-17-9.347-25.43-13.33-1.592-.753-3.239-1.515-4.9-2.266a.805.805,0,0,0-.33-.072Z" fill="#01284f"/>
              </g>
              <path id="Path_823" data-name="Path 823" d="M176.36,362.2c-2.111-2.382-5.156-5.819-5.789-6.708a7.45,7.45,0,0,1-.8-7.462c.015-.03.015-.06.03-.091a5.145,5.145,0,0,1,.92-1.884,1.664,1.664,0,0,1,2.547-.045c2.548,2.02-1.251,8.442,0,11.275A24.348,24.348,0,0,0,176.36,362.2Z" fill="#1e96c4"/>
              <path id="Path_824" data-name="Path 824" d="M174.191,343.373a6.313,6.313,0,0,0-3.153,5.867c0,4.4,3.153,8.045,3.153,8.045s-2.9-4.542-2.273-8.672A20.147,20.147,0,0,1,174.191,343.373Z" fill="#fff"/>
              <path id="Path_825" data-name="Path 825" d="M218.02,386.5c1.131-1.455,7.322-6.857,12.329-7.862s6.177,1.909,3.751,5.569C230.349,389.864,218.02,386.5,218.02,386.5Z" fill="#1e96c4"/>
              <path id="Path_826" data-name="Path 826" d="M224.036,384.2c.643.21,5.667-1.639,7.3-2.976a67.05,67.05,0,0,0,5.276-5.682s0,6.361-5.779,8.658C228.42,385.165,224.036,384.2,224.036,384.2Z" fill="#fff"/>
            </g>
            <path id="Path_827" data-name="Path 827" d="M207.772,321.765a1.613,1.613,0,0,1,2.506-.2c2.995,3.175,10.485,10.676,17.7,14.386,6.838,3.516,18.388,7.991,24.018,10.112a1.669,1.669,0,0,1,.247,3l-3.27,1.922a1.662,1.662,0,0,1-1.474.109c-3.6-1.473-19.03-7.842-24.789-11.259-5.411-3.211-13.749-11.07-16.467-13.687a1.465,1.465,0,0,1-.186-1.887Z" fill="#0d4d6c"/>
            <path id="Path_828" data-name="Path 828" d="M203.857,320.09s-9.952,8.989-15.765,15.426c-2.5,2.768-4.235,5.064-4.084,5.97.5,3.013,2.088,3.649,2.088,2.78,0-5.494,17.761-24.176,17.761-24.176Z" fill="#fff" opacity="0.35"/>
            <path id="Path_829" data-name="Path 829" d="M259.117,351.406s-20.543,16.6-23.832,17.283-8.987,1.828-8.314,0,4.568-.921,8.314-3.26S259.117,351.406,259.117,351.406Z" fill="#fff" opacity="0.35"/>
          </g>
          <g id="Group_806" data-name="Group 806">
            <path id="Path_830" data-name="Path 830" d="M256.075,254.115s24.917-25.788,53.362-39.922,27.04-14.945,30.567-12.909-6.685,7.475-9.688,8.755C301.962,222.133,256.075,254.115,256.075,254.115Z" fill="#01284f"/>
            <path id="Path_831" data-name="Path 831" d="M256.075,254.115c5.735-6.183,22.637-24.875,54.033-40.08,8.155-3.949,13.753-6.955,17.869-9.089,5.95-3.085,8.665-4.492,9.8-4.492.34,0,.624.14,1.368.567-.76,1.415-5.8,4.578-9.422,6.124C310.6,215.3,267.308,246.245,256.075,254.115Z" fill="#013f66"/>
            <path id="Path_832" data-name="Path 832" d="M309.437,282.9s9.793-17.274,38.238-31.408,42.165-23.46,45.691-21.424-6.685,7.475-9.687,8.756C355.324,250.918,309.437,282.9,309.437,282.9Z" fill="#01284f"/>
            <path id="Path_833" data-name="Path 833" d="M317.223,273.9c5.735-6.184,15.641-14.872,31.124-22.565,8.114-4.032,28.875-15.469,32.993-17.6,5.949-3.085,8.663-4.492,9.8-4.492.34,0,.624.139,1.367.567-.758,1.413-5.795,4.577-9.42,6.123C363.963,244.088,328.457,266.029,317.223,273.9Z" fill="#013f66"/>
          </g>
        </g>
        <path id="Path_834" data-name="Path 834" d="M275.761,288.893s9.12,7.756,14.168,5.8,9.472-7.456,9.472-7.456-8.089,3.886-12.564,3.886C283.366,291.124,275.761,288.893,275.761,288.893Z" fill="#fff" opacity="0.35"/>
        <path id="Path_835" data-name="Path 835" d="M282.626,364.536c2.05-.7,37.847-20.961,37.847-20.961s-1.508,5.665-24.742,16.966C286.152,365.2,282.626,364.536,282.626,364.536Z" fill="#fff" opacity="0.35"/>
      </g>
    </g>
  </g>
</svg>
