<svg id="Group_899" data-name="Group 899" xmlns="http://www.w3.org/2000/svg" width="277.637" height="254.186" viewBox="0 0 277.637 254.186">
  <path id="Path_1174" data-name="Path 1174" d="M439.389,71.526,233.946,190.143l72.2,41.683L511.583,113.209Z" transform="translate(-233.946 22.359)" opacity="0.2" style="mix-blend-mode: multiply;isolation: isolate"/>
  <path id="Path_1175" data-name="Path 1175" d="M424.288,88.776l-82.566,35.046-19.768,11.441v10.466l9.893,5.712v-.027l92.442-52.171Z" transform="translate(-171.679 34.564)" fill="#273234"/>
  <path id="Path_1176" data-name="Path 1176" d="M385.018,97.379l-8.15-4.619c-2.227-1.31-5.223-1.293-8.235.524a26.079,26.079,0,0,0-11.854,20.6c-.07,3.663,1.535,6.381,3.946,7.619l9.108,5.1a8.138,8.138,0,0,0,7.575-.867,26.084,26.084,0,0,0,11.854-20.6C389.336,101.332,387.593,98.54,385.018,97.379Z" transform="translate(-147.041 36.732)" fill="#343433"/>
  <g id="Group_882" data-name="Group 882" transform="translate(218.511 133.515)">
    <path id="Path_1177" data-name="Path 1177" d="M385.625,103.093a26.084,26.084,0,0,1-11.854,20.6c-6.024,3.635-11.983.077-11.854-6.91a26.087,26.087,0,0,1,11.854-20.6C379.794,92.546,385.758,96.109,385.625,103.093Z" transform="translate(-361.916 -94.735)" fill="#424040"/>
  </g>
  <g id="Group_883" data-name="Group 883" transform="translate(219.782 135.098)">
    <path id="Path_1178" data-name="Path 1178" d="M384.276,103.353a24.054,24.054,0,0,1-10.807,18.96c-5.493,3.345-10.926.07-10.807-6.361A24.061,24.061,0,0,1,373.469,96.99C378.957,93.647,384.4,96.927,384.276,103.353Z" transform="translate(-362.66 -95.662)" fill="#575656"/>
  </g>
  <g id="Group_884" data-name="Group 884" transform="translate(223.479 139.507)">
    <path id="Path_1179" data-name="Path 1179" d="M379.752,103.5a16.435,16.435,0,0,1-7.462,12.97c-3.794,2.286-7.545.046-7.464-4.352a16.421,16.421,0,0,1,7.464-12.97C376.081,96.866,379.836,99.11,379.752,103.5Z" transform="translate(-364.825 -98.244)" fill="#cccbca"/>
  </g>
  <path id="Path_1180" data-name="Path 1180" d="M374.786,98.268c2.165.224,3.786,2.1,3.734,4.916a15.445,15.445,0,0,1-6.987,12.185c-2.86,1.731-5.695.7-6.649-1.931.615,3.5,3.972,5.082,7.365,3.036a16.435,16.435,0,0,0,7.462-12.97C379.775,100.109,377.549,98,374.786,98.268Z" transform="translate(-141.305 41.264)" fill="#424040"/>
  <g id="Group_885" data-name="Group 885" transform="translate(227.388 144.176)">
    <path id="Path_1181" data-name="Path 1181" d="M375.062,103.78a8.744,8.744,0,0,1-3.973,6.905,2.486,2.486,0,0,1-3.973-2.315,8.738,8.738,0,0,1,3.973-6.907A2.486,2.486,0,0,1,375.062,103.78Z" transform="translate(-367.115 -100.978)" fill="#e7e8e7"/>
  </g>
  <path id="Path_1182" data-name="Path 1182" d="M368.51,107.012l-8.148-4.621c-2.228-1.308-5.225-1.291-8.237.524a26.09,26.09,0,0,0-11.855,20.6c-.067,3.663,1.535,6.383,3.946,7.619l9.108,5.1a8.15,8.15,0,0,0,7.576-.866,26.1,26.1,0,0,0,11.854-20.6C372.826,110.963,371.086,108.173,368.51,107.012Z" transform="translate(-158.722 43.548)" fill="#343433"/>
  <g id="Group_886" data-name="Group 886" transform="translate(190.322 149.964)">
    <path id="Path_1183" data-name="Path 1183" d="M369.116,112.725a26.1,26.1,0,0,1-11.854,20.6c-6.026,3.632-11.985.073-11.854-6.914a26.086,26.086,0,0,1,11.854-20.6C363.283,102.179,369.249,105.741,369.116,112.725Z" transform="translate(-345.407 -104.368)" fill="#424040"/>
  </g>
  <g id="Group_887" data-name="Group 887" transform="translate(191.592 152.192)">
    <path id="Path_1184" data-name="Path 1184" d="M367.765,113.364a24.064,24.064,0,0,1-10.807,18.96c-5.491,3.343-10.925.067-10.805-6.362A24.044,24.044,0,0,1,356.958,107C362.449,103.658,367.886,106.937,367.765,113.364Z" transform="translate(-346.151 -105.673)" fill="#575656"/>
  </g>
  <g id="Group_888" data-name="Group 888" transform="translate(195.289 155.956)">
    <path id="Path_1185" data-name="Path 1185" d="M363.245,113.138a16.44,16.44,0,0,1-7.464,12.97c-3.792,2.286-7.547.046-7.464-4.354a16.419,16.419,0,0,1,7.464-12.969C359.572,106.5,363.325,108.741,363.245,113.138Z" transform="translate(-348.316 -107.877)" fill="#cccbca"/>
  </g>
  <path id="Path_1186" data-name="Path 1186" d="M358.276,107.9c2.163.225,3.787,2.1,3.733,4.918A15.434,15.434,0,0,1,355.025,125c-2.863,1.731-5.7.7-6.649-1.93.611,3.5,3.968,5.08,7.363,3.036a16.44,16.44,0,0,0,7.464-12.97C363.266,109.743,361.037,107.634,358.276,107.9Z" transform="translate(-152.984 48.079)" fill="#424040"/>
  <g id="Group_889" data-name="Group 889" transform="translate(199.199 160.624)">
    <path id="Path_1187" data-name="Path 1187" d="M358.551,113.413a8.722,8.722,0,0,1-3.973,6.9A2.484,2.484,0,0,1,350.606,118a8.742,8.742,0,0,1,3.972-6.905A2.485,2.485,0,0,1,358.551,113.413Z" transform="translate(-350.606 -110.611)" fill="#e7e8e7"/>
  </g>
  <path id="Path_1188" data-name="Path 1188" d="M345.125,125.135l-16.44-9.492-32.852,19.011v17.394l16.438,9.489v-.043l32.853-18.966Z" transform="translate(-190.16 53.574)" fill="#273234"/>
  <g id="Group_890" data-name="Group 890" transform="translate(67.546)">
    <path id="Path_1189" data-name="Path 1189" d="M415.679,16.543,273.5,98.626v80.251l58.816,34.242L474.7,130.554l-.2-79.768Z" transform="translate(-273.504 -16.543)" fill="#cbb8ea"/>
    <path id="Path_1190" data-name="Path 1190" d="M450.126,36.6,307.949,118.681v80.25l142.176-82.083Z" transform="translate(-249.134 -2.354)" fill="#ad8de2" opacity="0.2" style="mix-blend-mode: multiply;isolation: isolate"/>
    <path id="Path_1191" data-name="Path 1191" d="M332.32,98.858,273.5,64.614v80.251l58.816,34.242Z" transform="translate(-273.504 17.469)" fill="#af8ee6" opacity="0.3" style="mix-blend-mode: multiply;isolation: isolate"/>
  </g>
  <path id="Path_1192" data-name="Path 1192" d="M300.628,136l.024-.084-10.044,5.8,17.791,10.36a27.177,27.177,0,0,0,.316-4.052C308.715,140.746,306.092,135.521,300.628,136Z" transform="translate(-193.857 67.92)" fill="#343433"/>
  <g id="Group_895" data-name="Group 895" transform="translate(80.367 202.922)">
    <path id="Path_1193" data-name="Path 1193" d="M309.254,140.921l-8.148-4.619c-2.227-1.31-5.225-1.293-8.235.523a26.084,26.084,0,0,0-11.855,20.6c-.068,3.661,1.535,6.381,3.946,7.616l9.108,5.106a8.145,8.145,0,0,0,7.578-.866,26.1,26.1,0,0,0,11.852-20.6C313.572,144.872,311.831,142.08,309.254,140.921Z" transform="translate(-281.013 -135.383)" fill="#343433"/>
    <g id="Group_891" data-name="Group 891" transform="translate(8.775 4.943)">
      <path id="Path_1194" data-name="Path 1194" d="M309.863,146.634a26.1,26.1,0,0,1-11.852,20.6c-6.028,3.634-11.987.075-11.857-6.912a26.091,26.091,0,0,1,11.857-20.6C304.03,136.088,310,139.651,309.863,146.634Z" transform="translate(-286.152 -138.277)" fill="#424040"/>
    </g>
    <g id="Group_892" data-name="Group 892" transform="translate(10.046 6.526)">
      <path id="Path_1195" data-name="Path 1195" d="M308.512,146.894a24.056,24.056,0,0,1-10.807,18.96c-5.493,3.343-10.927.068-10.807-6.361a24.053,24.053,0,0,1,10.807-18.96C303.2,137.189,308.633,140.469,308.512,146.894Z" transform="translate(-286.896 -139.205)" fill="#575656"/>
    </g>
    <g id="Group_893" data-name="Group 893" transform="translate(13.743 10.934)">
      <path id="Path_1196" data-name="Path 1196" d="M303.988,147.045a16.431,16.431,0,0,1-7.462,12.972c-3.794,2.286-7.546.046-7.464-4.354a16.42,16.42,0,0,1,7.464-12.969C300.315,140.408,304.072,142.65,303.988,147.045Z" transform="translate(-289.061 -141.786)" fill="#cccbca"/>
    </g>
    <path id="Path_1197" data-name="Path 1197" d="M299.022,141.81c2.163.224,3.787,2.1,3.733,4.918a15.44,15.44,0,0,1-6.985,12.183c-2.864,1.73-5.7.7-6.647-1.928.611,3.5,3.968,5.078,7.361,3.033a16.432,16.432,0,0,0,7.462-12.972C304.01,143.651,301.785,141.542,299.022,141.81Z" transform="translate(-275.275 -130.851)" fill="#424040"/>
    <g id="Group_894" data-name="Group 894" transform="translate(17.652 15.603)">
      <path id="Path_1198" data-name="Path 1198" d="M299.3,147.322a8.743,8.743,0,0,1-3.973,6.907,2.486,2.486,0,0,1-3.973-2.317A8.748,8.748,0,0,1,295.325,145,2.485,2.485,0,0,1,299.3,147.322Z" transform="translate(-291.351 -144.52)" fill="#e7e8e7"/>
    </g>
    <path id="Path_1199" data-name="Path 1199" d="M296.812,143.038l0,0-.079-.123C296.761,142.955,296.786,143,296.812,143.038Z" transform="translate(-269.887 -130.055)" fill="#bd1e2d" fill-rule="evenodd"/>
  </g>
  <path id="Path_1200" data-name="Path 1200" d="M297.453,133.973l-.977,3.436c5.464-.483,8.087,4.742,8.087,12.023a27.189,27.189,0,0,1-.316,4.052l2.4-1.385a31.69,31.69,0,0,0,.271-4.059C306.914,139.519,303.844,133.409,297.453,133.973Z" transform="translate(-189.705 66.517)" fill="#404b4d"/>
  <path id="Path_1201" data-name="Path 1201" d="M346.1,118.123c-.068-3.14-1.948-4.033-1.948-4.033L290.9,83.2,261.35,100.261s-6.516,3.91-7.916,10.044h0l-4.645,15.2a2.452,2.452,0,0,0-1.088-1.766l-2.515-1.451a1.147,1.147,0,0,0-.208-.1c-.036-.012-.067-.015-.1-.024s-.067-.017-.1-.02a.654.654,0,0,0-.116,0c-.019,0-.041,0-.06,0a.431.431,0,0,0-.121.036l-.034.012a.569.569,0,0,0-.114.079l-.014.012a.55.55,0,0,0-.1.123l0,.005a.95.95,0,0,0-.13.5v8.454a2.437,2.437,0,0,0,1.1,1.9l1.045.6-2.1,6.878v28.92l-.442.254a2.962,2.962,0,0,0-1.334,2.31v9.485a.93.93,0,0,0,.4.862v0l51.571,29.885a9.138,9.138,0,0,0,3.864,1.258,10.481,10.481,0,0,0,3.429-.794l13.518-7.805V192.964a36.607,36.607,0,0,1,7.713-12.844L346.1,166.694Z" transform="translate(-227.998 30.618)" fill="#893bff"/>
  <path id="Path_1202" data-name="Path 1202" d="M346.1,104.689a5.774,5.774,0,0,0-.57-2.5l-28.927,16.7s-6.514,3.91-7.916,10.042l-.331.19-8.973,30.257v.582l-55.252-32.02v5.03l3.611,2.117v10.605l-.4-.234V135.339l-3.212-1.885v22.785l-.442.254a2.962,2.962,0,0,0-1.334,2.31v9.485a.93.93,0,0,0,.4.862v0l51.571,29.885a9.138,9.138,0,0,0,3.864,1.258,7.616,7.616,0,0,0,1.2-.13h0l.019,0h0a11.5,11.5,0,0,0,2.215-.661l13.518-7.805V179.53a36.607,36.607,0,0,1,7.713-12.844L346.1,153.26Zm-44.211,59.9-1.262.733a4.585,4.585,0,0,1-2.9-.35l-3.4-1.991V162.4l3.4,1.989a4.572,4.572,0,0,0,2.9.35l1.262-.731Z" transform="translate(-227.998 44.052)" opacity="0.15" style="mix-blend-mode: multiply;isolation: isolate"/>
  <path id="Path_1203" data-name="Path 1203" d="M279.289,155.328a3.418,3.418,0,0,1-1.436-.386l-8.283-4.783a1.48,1.48,0,0,1-.668-1.154v-4.841c0-.423.3-.6.668-.386l8.283,4.781a3.366,3.366,0,0,0,1.436.384l.54,0a3.755,3.755,0,0,0,1.414-.319c.353-.172.625.031.6.454l-.246,4.131a3.194,3.194,0,0,1-.488,1.4l-.065.092a1.671,1.671,0,0,1-1.214.63Z" transform="translate(-209.214 73.416)" fill="#eef5f9"/>
  <path id="Path_1204" data-name="Path 1204" d="M243.394,135.292l10.115,5.683c.371.208.673.031.673-.393v-4.841a1.451,1.451,0,0,0-.673-1.147l-10.115-5.684Z" transform="translate(-227.262 62.959)" fill="#eef5f9"/>
  <path id="Path_1205" data-name="Path 1205" d="M276.9,146.6a3.754,3.754,0,0,1-1.414.319l-.439,0v6.384h.439a1.671,1.671,0,0,0,1.214-.63l.065-.092a3.192,3.192,0,0,0,.488-1.4l.246-4.131C277.522,146.634,277.25,146.431,276.9,146.6Z" transform="translate(-204.869 75.435)" fill="#f5911e"/>
  <g id="Group_896" data-name="Group 896" transform="translate(78.584 166.592)">
    <path id="Path_1206" data-name="Path 1206" d="M280.043,145.115c-.347,1.844.553,2.421,2,1.281l16.124-12.839a7.526,7.526,0,0,0,2.623-5.15V116.012c0-1.694-1.2-2.389-2.667-1.549l-9.977,5.63a8.035,8.035,0,0,0-3.292,4.887Z" transform="translate(-279.969 -114.106)" fill="#141c1e"/>
  </g>
  <path id="Path_1207" data-name="Path 1207" d="M298.963,114.583a1.634,1.634,0,0,0-.774.249l-9.982,5.633a7.206,7.206,0,0,0-2.894,4.327l0,.019-.005.02-4.8,20.113a.487.487,0,1,0,.692.475L297.32,132.58a6.693,6.693,0,0,0,2.315-4.511V115.674C299.635,115.266,299.548,114.583,298.963,114.583Z" transform="translate(-201.047 52.823)" fill="#303e42"/>
  <path id="Path_1208" data-name="Path 1208" d="M307.862,132.348a6.36,6.36,0,0,1-2.285-.674l-53.487-31.516-8.64,28.277,53.113,30.848s2.563,1.206,4.2-.207a5.172,5.172,0,0,0,1.793-2.592l6.094-22.6C308.9,132.946,308.547,132.253,307.862,132.348Z" transform="translate(-227.222 42.617)" fill="#141c1e"/>
  <path id="Path_1209" data-name="Path 1209" d="M307.441,134.019a1.153,1.153,0,0,0,.039-.512c-.038,0-.077,0-.116,0a5.881,5.881,0,0,1-2.252-.586l-.024-.014-.341-.191L251.4,101.284l-7.807,25.55,53.239,30.927a4.97,4.97,0,0,0,1.81.389,2.209,2.209,0,0,0,1.484-.487l.038-.034.044-.029a4.365,4.365,0,0,0,1.453-2.126Z" transform="translate(-227.12 43.414)" fill="#303e42"/>
  <path id="Path_1210" data-name="Path 1210" d="M307.441,134.019a1.153,1.153,0,0,0,.039-.512c-.038,0-.077,0-.116,0a5.881,5.881,0,0,1-2.252-.586l-.024-.014-.341-.191L251.4,101.284l-7.807,25.55,53.239,30.927a4.97,4.97,0,0,0,1.81.389,2.209,2.209,0,0,0,1.484-.487l.038-.034.044-.029a4.365,4.365,0,0,0,1.453-2.126Z" transform="translate(-227.12 43.414)" fill="#303e42"/>
  <path id="Path_1211" data-name="Path 1211" d="M250.8,102.15l-2.727,14.606c-.341,1.848.555,2.423,2,1.284l11.835-9.345Z" transform="translate(-224.005 44.026)" fill="#c5d0d3"/>
  <path id="Path_1212" data-name="Path 1212" d="M251.36,101.284,243.654,126.5l1.482-.984a5.186,5.186,0,0,0,1.791-2.592L252.569,102Z" transform="translate(-227.078 43.414)" fill="#c5d0d3"/>
  <path id="Path_1213" data-name="Path 1213" d="M288.449,134.843l1.423-1.133,2.273-18.716h-.42l-.982.553Z" transform="translate(-195.384 53.114)" fill="#233135"/>
  <path id="Path_1214" data-name="Path 1214" d="M251.4,101.284l-7.807,25.55,14.3,8.309a42.029,42.029,0,0,1,18.921-18.882Z" transform="translate(-227.12 43.414)" fill="#fff" opacity="0.2"/>
  <path id="Path_1215" data-name="Path 1215" d="M308.07,162.39l-.895-1.436-5.363,3.227c-2.247,1.346-5.363-.219-5.363-.219L244.13,133.842l-.442.254a2.962,2.962,0,0,0-1.334,2.31v9.485a.93.93,0,0,0,.4.862l51.571,29.887a9.138,9.138,0,0,0,3.864,1.258,10.481,10.481,0,0,0,3.429-.794l6.454-3.726C308.107,173.269,308.029,162.5,308.07,162.39Z" transform="translate(-227.998 66.449)" fill="#404b4d"/>
  <path id="Path_1216" data-name="Path 1216" d="M307.065,160.954l-5.363,3.227c-2.247,1.346-5.363-.219-5.363-.219l-52.319-30.121-.442.254a2.864,2.864,0,0,0-1.067,1.243l53.6,30.975s3.116,1.561,5.363.219l6.487-4.142Z" transform="translate(-227.887 66.449)" fill="#5a6567"/>
  <path id="Path_1217" data-name="Path 1217" d="M277.756,154.193a1.572,1.572,0,0,1-2.466.707L254.65,142.984a6.18,6.18,0,0,1-2.467-3.557l-1.636-5.416c-.3-1.344.324-1.943,1.381-1.334l26.082,15.059a2.767,2.767,0,0,1,1.383,2.93Z" transform="translate(-222.254 65.457)" fill="#273234"/>
  <path id="Path_1218" data-name="Path 1218" d="M292.3,148.878l-46.787-27.424V131.76l46.59,27.207Z" transform="translate(-225.766 57.685)" fill="#404b4d"/>
  <path id="Path_1219" data-name="Path 1219" d="M253.277,145.809c.172.473.014.686-.353.475l-5.362-3.1a1.476,1.476,0,0,1-.666-1.154V140.1c0-.422.3-.594.666-.382l3.76,2.172a2.7,2.7,0,0,1,.982,1.245Z" transform="translate(-224.784 70.543)" fill="#273234"/>
  <path id="Path_1220" data-name="Path 1220" d="M264.879,152.078a.673.673,0,0,0,.353.884l5.363,3.1c.367.21.666.038.666-.384v-1.933a1.476,1.476,0,0,0-.666-1.153l-3.762-2.174a.733.733,0,0,0-.978.114Z" transform="translate(-212.109 78.083)" fill="#273234"/>
  <g id="Group_897" data-name="Group 897" transform="translate(62.968 233.757)">
    <path id="Path_1221" data-name="Path 1221" d="M273.98,156.39c0,1.007-.707,1.412-1.579.91a3.49,3.49,0,0,1-1.578-2.734c0-1.006.707-1.414,1.578-.91A3.484,3.484,0,0,1,273.98,156.39Z" transform="translate(-270.823 -153.441)" fill="#273234"/>
    <path id="Path_1222" data-name="Path 1222" d="M272,153.571l-.019-.01c-.365.092-.6.446-.6,1a3.181,3.181,0,0,0,1.441,2.495,1.5,1.5,0,0,0,.427.164,1.209,1.209,0,0,0,.333-.915A3.484,3.484,0,0,0,272,153.571Z" transform="translate(-270.427 -153.355)" fill="#fff"/>
  </g>
  <g id="Group_898" data-name="Group 898" transform="translate(16.608 207.849)">
    <path id="Path_1223" data-name="Path 1223" d="M246.83,141.217c0,1.006-.707,1.414-1.578.91a3.486,3.486,0,0,1-1.579-2.732c0-1.006.709-1.414,1.579-.912A3.49,3.49,0,0,1,246.83,141.217Z" transform="translate(-243.673 -138.268)" fill="#273234"/>
    <path id="Path_1224" data-name="Path 1224" d="M244.855,138.4l-.021-.009c-.365.092-.6.444-.6,1a3.175,3.175,0,0,0,1.439,2.495,1.506,1.506,0,0,0,.423.166,1.2,1.2,0,0,0,.335-.917A3.49,3.49,0,0,0,244.855,138.4Z" transform="translate(-243.275 -138.183)" fill="#fff"/>
  </g>
</svg>
