<svg id="Group_881" data-name="Group 881" xmlns="http://www.w3.org/2000/svg" width="246.102" height="254.766" viewBox="0 0 246.102 254.766">
  <g id="shadow" transform="translate(15.232 113.173)">
    <ellipse id="Ellipse_51" data-name="Ellipse 51" cx="48.645" cy="9.311" rx="48.645" ry="9.311" transform="matrix(0.877, -0.481, 0.481, 0.877, 0, 125.263)" fill="#596168" opacity="0.3"/>
    <ellipse id="Ellipse_52" data-name="Ellipse 52" cx="48.645" cy="9.311" rx="48.645" ry="9.311" transform="translate(136.603 46.758) rotate(-28.725)" fill="#596168" opacity="0.3"/>
  </g>
  <g id="cargobike" transform="translate(0 62.854)">
    <ellipse id="Ellipse_53" data-name="Ellipse 53" cx="3.288" cy="1.898" rx="3.288" ry="1.898" transform="translate(156.876 15.557)" fill="#ff8267"/>
    <g id="Group_833" data-name="Group 833" transform="translate(157.578 10.614)">
      <path id="Path_906" data-name="Path 906" d="M1328.024,623.785a14.881,14.881,0,0,0-4.176,1.038s-.633.209-1.471.547l-1.309,4.752h0a1.207,1.207,0,0,0,.72,1.424,4.112,4.112,0,0,0,3.72.028,1.321,1.321,0,0,0,.765-1l0,.007,1.859-6.8Z" transform="translate(-1321.019 -623.781)" fill="#564540"/>
    </g>
    <path id="Path_907" data-name="Path 907" d="M1102.218,1040.708l-4.533-2.617-3.616,1.012-1.753,2.088,4.533,2.617,3.749-.936Zm-4.755-1.877,3.5,2.019-.987,1.29-4.667-2.694Zm-.37,4.251-3.5-2.019,1.065-1.245,4.666,2.694Z" transform="translate(-965.448 -971.843)" fill="#2d2a3b"/>
    <path id="Path_908" data-name="Path 908" d="M1092.314,1061.178v.793l4.533,2.617v-.793Z" transform="translate(-965.448 -991.83)" fill="#4e4d56"/>
    <path id="Path_909" data-name="Path 909" d="M1129.821,1073.7v.793l-3.749.936v-.793Z" transform="translate(-994.672 -1002.671)" fill="#7a7980"/>
    <path id="Path_910" data-name="Path 910" d="M1155.613,1057.581v.793l-1.62,2.165v-.793Z" transform="translate(-1018.844 -988.716)" fill="#4e4d56"/>
    <path id="Path_911" data-name="Path 911" d="M1116.747,1043.6v.793l-1.237.353-.92-.531Z" transform="translate(-984.732 -976.615)" fill="#4e4d56"/>
    <path id="Path_912" data-name="Path 912" d="M1130.653,1043.6v.793l3.076,1.776.421-.55Z" transform="translate(-998.638 -976.615)" fill="#22202c"/>
    <path id="Path_913" data-name="Path 913" d="M1109.792,1050.952v.793l3.713,2.144.953-.243Z" transform="translate(-980.578 -982.977)" fill="#22202c"/>
    <path id="Path_914" data-name="Path 914" d="M1102.926,1050.952v.793l-.611.714-.454-.262Z" transform="translate(-973.713 -982.977)" fill="#4e4d56"/>
    <g id="Group_836" data-name="Group 836" transform="translate(146.796 0)">
      <path id="Path_915" data-name="Path 915" d="M1274.555,547.065s1.316.793,1.63.941a4.675,4.675,0,0,0,1.287.132l1.13.867a2.088,2.088,0,0,1-.372,3.055,5.043,5.043,0,0,1-3.46,1.469s-1.945.066-3.518.115a14.655,14.655,0,0,0-3.775.892l-4.462,2.081s-1.948,1-3.506,1.774c-.458.226-.882.637-1.213.792a2.767,2.767,0,0,1-2.479-.154.832.832,0,0,1-.267-1.431,5.254,5.254,0,0,1,.917-.837c1.346-.91,3.173-2.092,3.173-2.092l3.6-2.576s1.458-1.271,1.544-2.18.2-2.031.2-2.031-.2-1.007,2.545-2a9.209,9.209,0,0,1,5.291-.215l1.5.652S1274.3,546.884,1274.555,547.065Z" transform="translate(-1253.292 -545.295)" fill="#7e7058"/>
      <path id="Path_916" data-name="Path 916" d="M1364.352,554.194c-.565-.316-1.548-.908-1.548-.908-.294-.207-.261-.848-.261-.848l-.757-.047-5.52,4.349.937.708S1364.485,554.268,1364.352,554.194Z" transform="translate(-1340.752 -551.365)" fill="#504738"/>
      <path id="Path_917" data-name="Path 917" d="M1361.786,552.392l-5.52,4.349,5.748-3.606C1361.721,552.928,1361.786,552.392,1361.786,552.392Z" transform="translate(-1340.752 -551.365)" fill="#a18f70"/>
      <path id="Path_918" data-name="Path 918" d="M1369.683,564.935l-6.442,3.373,7.729-3.241A4.813,4.813,0,0,1,1369.683,564.935Z" transform="translate(-1346.79 -562.223)" fill="#a18f70"/>
      <g id="Group_834" data-name="Group 834" transform="translate(0.019)">
        <path id="Path_919" data-name="Path 919" d="M1316.361,551.35a4.32,4.32,0,0,0,1.34-1.99c.086-.908.2-2.031.2-2.031s-.2-1.007,2.545-2a9.21,9.21,0,0,1,5.291-.215l1.5.652s-.029.561.229.743c0,0,1.316.793,1.63.941a2.339,2.339,0,0,0,.709.119l-1.549-.909c-.294-.207-.261-.848-.261-.848l-1.713-.744a10.5,10.5,0,0,0-6.036.245c-3.132,1.13-2.9,2.279-2.9,2.279s-.13,1.281-.228,2.317A3.08,3.08,0,0,1,1316.361,551.35Z" transform="translate(-1306.224 -544.741)" fill="#6b5f4a"/>
        <path id="Path_920" data-name="Path 920" d="M1267.523,567.125l-1.289-.989-1.2-.3-.573-.013c.3.017.573.013.573.013l1.13.867a2.088,2.088,0,0,1-.372,3.055,5.043,5.043,0,0,1-3.46,1.47s-1.945.066-3.518.115a14.653,14.653,0,0,0-3.775.892l-4.462,2.081s-1.948,1-3.506,1.774c-.458.226-.882.637-1.213.792a2.767,2.767,0,0,1-2.479-.154.832.832,0,0,1-.267-1.431,5.384,5.384,0,0,1,.4-.411l-1.236,1.09a6,6,0,0,0-1.046.955.95.95,0,0,0,.3,1.633,3.157,3.157,0,0,0,2.828.176c.378-.177.861-.646,1.384-.9,1.777-.879,4-2.023,4-2.023l5.09-2.373a16.71,16.71,0,0,1,4.307-1.017c1.794-.057,4.013-.132,4.013-.132a5.752,5.752,0,0,0,3.948-1.676A2.382,2.382,0,0,0,1267.523,567.125Z" transform="translate(-1240.873 -562.99)" fill="#a18f70"/>
      </g>
      <g id="Group_835" data-name="Group 835" transform="translate(0 5.523)">
        <path id="Path_921" data-name="Path 921" d="M1240.9,653.871h0Z" transform="translate(-1240.873 -644.74)" fill="#292418"/>
        <path id="Path_922" data-name="Path 922" d="M1443.552,585.884v-.014h0S1443.552,585.88,1443.552,585.884Z" transform="translate(-1416.316 -585.87)" fill="#292418"/>
        <path id="Path_923" data-name="Path 923" d="M1267.967,587.621a2.7,2.7,0,0,1-.992,1.862,5.752,5.752,0,0,1-3.948,1.677s-2.219.075-4.013.132a16.713,16.713,0,0,0-4.307,1.017l-5.09,2.373s-2.223,1.144-4,2.023c-.522.258-1.006.727-1.384.9a3.157,3.157,0,0,1-2.828-.176s-.626-.263-.656-.81l-.021,2.094c.03.547.666.81.666.81a3.17,3.17,0,0,0,2.833.176,6.616,6.616,0,0,0,1.386-.9,36.772,36.772,0,0,1,3.487-2.99,50.781,50.781,0,0,1,5.239-2.291,14.882,14.882,0,0,1,4.176-1.038,17.908,17.908,0,0,1,4.51.773,5.752,5.752,0,0,0,3.948-1.676,2.679,2.679,0,0,0,1-1.939Z" transform="translate(-1240.73 -587.386)" fill="#6b5f4a"/>
      </g>
    </g>
    <path id="Path_924" data-name="Path 924" d="M423.967,1349.257a3.6,3.6,0,0,1-3.255,0c-.538-.311-.752-.737-.645-1.141h0l-10.126,36.256a2.715,2.715,0,0,1,1.106-1.421c.351-.2,1.664.414,1.663.414a.8.8,0,0,1,.432.816,2.283,2.283,0,0,1-.028.309h0l11.477-35.872,0-.008A1.332,1.332,0,0,1,423.967,1349.257Z" transform="translate(-374.703 -1240.237)" fill="#fccf11"/>
    <path id="Path_925" data-name="Path 925" d="M430.582,1386.509l9.743-33.721a3.271,3.271,0,0,0,1.513-.388,1.343,1.343,0,0,0,.618-.654l0,.015-11.477,35.872h0a2.284,2.284,0,0,0,.028-.309A.8.8,0,0,0,430.582,1386.509Z" transform="translate(-392.574 -1243.38)" fill="#fccf11"/>
    <g id="Group_838" data-name="Group 838" transform="translate(11.365 112.145)">
      <path id="Path_926" data-name="Path 926" d="M352.585,1443.221c2.582,2.4,4.117,6.376,4.117,11.655,0,12.751-8.952,28.258-20,34.633-4.569,2.638-8.78,3.3-12.147,2.264,3.655,3.4,9.407,3.625,15.879-.111,11.043-6.376,20-21.882,20-34.633C360.434,1449.553,357.356,1444.686,352.585,1443.221Z" transform="translate(-312.153 -1434.717)" fill="#626d77"/>
      <path id="Path_927" data-name="Path 927" d="M352.313,1442.542c2.831,2.349,4.53,6.465,4.53,12.02,0,12.752-8.952,28.258-20,34.633-4.811,2.778-9.225,3.364-12.676,2.087,3.667,3.043,9.233,3.123,15.466-.476,11.043-6.376,20-21.882,20-34.633C359.634,1448.976,356.782,1444.2,352.313,1442.542Z" transform="translate(-311.818 -1434.129)" fill="#3b4855"/>
      <g id="Group_837" data-name="Group 837" transform="translate(3.732 2.153)">
        <path id="Path_928" data-name="Path 928" d="M284.512,1399.274c-13.56,7.829-24.553,26.869-24.553,42.527s10.993,22,24.553,14.175,24.553-26.869,24.553-42.527S298.073,1391.445,284.512,1399.274Zm0,51.44c-11.043,6.376-20,1.208-20-11.544s8.953-28.257,20-34.633,20-1.208,20,11.544S295.556,1444.338,284.512,1450.714Z" transform="translate(-259.959 -1395.921)" fill="#1b1b22"/>
      </g>
      <path id="Path_929" data-name="Path 929" d="M235.9,1427.922c0-15.658,10.993-34.7,24.553-42.527,6.587-3.8,12.567-4.26,16.977-1.932h0l-3.347-1.939h-.005c-4.443-2.563-10.58-2.191-17.358,1.722-13.56,7.829-24.553,26.869-24.553,42.527,0,7.7,2.658,13.143,6.971,15.761l3.575,2.059h0C238.495,1440.933,235.9,1435.526,235.9,1427.922Z" transform="translate(-232.17 -1379.889)" fill="#24242d"/>
    </g>
    <g id="Group_839" data-name="Group 839" transform="translate(141.876 23.123)">
      <path id="Path_930" data-name="Path 930" d="M1254.978,745.173l.4-1.032-24.859-26.557a2.112,2.112,0,0,0-.557-.486c-.642-.371-1.162-.07-1.162.671a2.606,2.606,0,0,0,.822,1.758h0l23.492,25.1-32.457,27.609-3.162,2.69,1.084,3.38,36.9-32.331Z" transform="translate(-1215.667 -716.939)" fill="#fccf11"/>
      <path id="Path_931" data-name="Path 931" d="M1309.519,736.037l23.285,24.881,1.06.11-24-25.274Z" transform="translate(-1295.362 -733.228)" fill="#fccf11"/>
      <path id="Path_932" data-name="Path 932" d="M1220.043,961.734l.764,1.139,36.9-32.331-.253-.41Z" transform="translate(-1217.901 -901.504)" fill="#fccf11"/>
      <path id="Path_933" data-name="Path 933" d="M1302.541,716.95c-.4-.023-.686.283-.686.827a2.325,2.325,0,0,0,.295,1.063Z" transform="translate(-1288.727 -716.948)" fill="#803221"/>
    </g>
    <ellipse id="Ellipse_54" data-name="Ellipse 54" cx="5.94" cy="3.429" rx="5.94" ry="3.429" transform="translate(173.688 53.872) rotate(-59.999)" fill="#505057"/>
    <path id="Path_934" data-name="Path 934" d="M1160.4,1087.536l-6.6-11.795,1.4-.806,6.33,11.32Z" transform="translate(-1018.681 -1003.74)" fill="#87889b"/>
    <path id="Path_935" data-name="Path 935" d="M1154.139,1088.8l-.93-.537-6.33-11.32.93.537Z" transform="translate(-1012.685 -1005.475)" fill="#4f5169"/>
    <path id="Path_936" data-name="Path 936" d="M1193.629,1148.269l-.008,0-.011-.007h0a.73.73,0,0,0-.71.079,2.269,2.269,0,0,0-1.027,1.778.7.7,0,0,0,.339.683h0l1.325.764,1.5-2.482Z" transform="translate(-1051.636 -1067.165)" fill="#4f5169"/>
    <ellipse id="Ellipse_55" data-name="Ellipse 55" cx="1.452" cy="0.838" rx="1.452" ry="0.838" transform="translate(141.205 84.002) rotate(-59.998)" fill="#87889b"/>
    <ellipse id="Ellipse_56" data-name="Ellipse 56" cx="11.837" cy="6.834" rx="11.837" ry="6.834" transform="translate(130.768 90.037) rotate(-59.999)" fill="#44444e"/>
    <path id="Path_937" data-name="Path 937" d="M1144.188,1097.78c0-5.338,3.747-11.829,8.37-14.5,2.311-1.334,4.4-1.461,5.917-.587h0l-.412-.237h0c-1.519-.908-3.632-.8-5.971.555-4.623,2.669-8.37,9.16-8.37,14.5,0,2.805,1.036,4.733,2.689,5.544C1145.032,1102.13,1144.188,1100.313,1144.188,1097.78Z" transform="translate(-1009.953 -1009.745)" fill="#33333b"/>
    <path id="Path_938" data-name="Path 938" d="M1171.523,1076.329c-1.954,1.135-3.781,1.4-5.2.77a3.61,3.61,0,0,0,.313.206c1.456.845,3.423.634,5.54-.595l.254-.151,43.607-24.549.043-.066-.7-.316-38.517,21.709-5.09,2.84Z" transform="translate(-1029.522 -983.563)" fill="#919fb7"/>
    <path id="Path_939" data-name="Path 939" d="M1148.274,1070.937l.93.537-1.4.806-.93-.537Z" transform="translate(-1012.685 -1000.278)" fill="#696a83"/>
    <path id="Path_940" data-name="Path 940" d="M1197.911,913.412,1154.3,937.961l-.254.151c-2.117,1.229-4.084,1.44-5.54.595s-2.258-2.664-2.258-5.122c0-5.074,3.417-11.249,7.78-14.059l37.08-27.29-.512-.7L1153.555,918.8c-4.582,2.957-8.169,9.449-8.169,14.787,0,2.782.956,4.869,2.691,5.877a4.747,4.747,0,0,0,2.416.627,8.085,8.085,0,0,0,4-1.225l.241-.144,43.6-24.546.244-1.772Z" transform="translate(-1011.393 -844.965)" fill="#7a859a"/>
    <path id="Path_941" data-name="Path 941" d="M1141.15,931.126c0-5.338,3.588-11.83,8.169-14.787l37.045-27.266h0l-.657-.382-37.045,27.266c-4.582,2.957-8.17,9.449-8.17,14.787,0,2.77.948,4.85,2.668,5.863h0l.018.011,0,0,0,0,.613.355C1142.091,935.962,1141.15,933.887,1141.15,931.126Z" transform="translate(-1007.157 -842.506)" fill="#919fb7"/>
    <g id="Group_840" data-name="Group 840" transform="translate(148.826 9.726)">
      <path id="Path_942" data-name="Path 942" d="M1404.142,683.37c3.992,3.226,6.394,8.952,6.394,16.714,0,17.615-12.367,39.035-27.622,47.842-6.624,3.824-12.7,4.64-17.462,2.9,5.067,4.095,12.7,4.159,21.229-.767,15.256-8.808,27.623-30.228,27.623-47.842C1414.3,692.25,1410.344,685.639,1404.142,683.37Z" transform="translate(-1350.734 -674.48)" fill="#626d77"/>
      <path id="Path_943" data-name="Path 943" d="M1259.613,679.432c0-20.521,14.407-45.475,32.18-55.736,8.589-4.959,16.391-5.578,22.162-2.579h0l-3.021-1.717h0c-5.835-3.459-13.943-3.011-22.906,2.164-17.772,10.261-32.18,35.215-32.18,55.736,0,10.452,3.738,17.738,9.754,21.016h0l3.256,1.841h0C1263.14,696.75,1259.613,689.585,1259.613,679.432Z" transform="translate(-1255.846 -617.17)" fill="#24242d"/>
      <path id="Path_944" data-name="Path 944" d="M1403.218,683.313c4.2,3.17,6.745,9,6.745,16.99,0,17.615-12.367,39.035-27.622,47.842-6.918,3.994-13.242,4.708-18.088,2.654,5.065,3.82,12.54,3.771,20.878-1.043,15.255-8.808,27.622-30.228,27.622-47.842C1412.753,692.287,1409.059,685.789,1403.218,683.313Z" transform="translate(-1349.696 -674.431)" fill="#3b4855"/>
      <path id="Path_945" data-name="Path 945" d="M1316.08,637.441c-17.772,10.261-32.18,35.214-32.18,55.736s14.407,28.839,32.18,18.578,32.18-35.214,32.18-55.736S1333.852,627.18,1316.08,637.441Zm0,69.051c-15.255,8.808-27.622,1.668-27.622-15.947s12.367-39.035,27.622-47.843,27.623-1.668,27.623,15.947S1331.335,697.684,1316.08,706.492Z" transform="translate(-1280.133 -630.914)" fill="#1b1b22"/>
    </g>
    <g id="Group_841" data-name="Group 841" transform="translate(180.032 50.14)">
      <path id="Path_946" data-name="Path 946" d="M1492.425,1013.231l5.022,5.246.673.389.063-.054-4.828-5.044Z" transform="translate(-1491.863 -1000.461)" fill="#4f5169"/>
      <path id="Path_947" data-name="Path 947" d="M1520.563,1033.983a2.6,2.6,0,0,1,1.164-2.048.848.848,0,0,1,.841-.08l-.677-.426a.791.791,0,0,0-.879.05,2.611,2.611,0,0,0-1.18,2.048.868.868,0,0,0,.294.729l.727.468A.908.908,0,0,1,1520.563,1033.983Z" transform="translate(-1515.59 -1016.12)" fill="#4f5169"/>
      <path id="Path_948" data-name="Path 948" d="M1493.355,919.165l-.93-.537.859-.5.93.537Z" transform="translate(-1491.863 -918.132)" fill="#696a83"/>
      <path id="Path_949" data-name="Path 949" d="M1500.21,1013.536l4.627,4.843-.623.743-4.863-5.09Z" transform="translate(-1497.859 -1000.725)" fill="#87889b"/>
      <path id="Path_950" data-name="Path 950" d="M1500.21,922.131V934.4l-.859.5V922.627Z" transform="translate(-1497.859 -921.594)" fill="#87889b"/>
      <path id="Path_951" data-name="Path 951" d="M1492.425,934.1l.93.537V922.363l-.93-.537Z" transform="translate(-1491.863 -921.33)" fill="#696a83"/>
      <path id="Path_952" data-name="Path 952" d="M1527.5,1035.547a2.614,2.614,0,0,1-1.182,2.048c-.653.377-1.183.071-1.183-.683a2.613,2.613,0,0,1,1.183-2.048C1526.972,1034.487,1527.5,1034.792,1527.5,1035.547Z" transform="translate(-1520.181 -1019.049)" fill="#87889b"/>
      <path id="Path_953" data-name="Path 953" d="M1488.969,1002.759a2.6,2.6,0,0,1,1.164-2.048.848.848,0,0,1,.841-.08l-.677-.426a.791.791,0,0,0-.879.05,2.611,2.611,0,0,0-1.18,2.048.868.868,0,0,0,.294.729l.727.468A.908.908,0,0,1,1488.969,1002.759Z" transform="translate(-1488.239 -989.089)" fill="#4f5169"/>
      <path id="Path_954" data-name="Path 954" d="M1495.908,1004.323a2.614,2.614,0,0,1-1.183,2.048c-.653.377-1.183.071-1.183-.683a2.614,2.614,0,0,1,1.183-2.048C1495.379,1003.263,1495.908,1003.568,1495.908,1004.323Z" transform="translate(-1492.831 -992.018)" fill="#87889b"/>
    </g>
    <path id="Path_955" data-name="Path 955" d="M417.306,1610.513a2.625,2.625,0,0,0-1.214,2.013c0,.611.356.921.786.8v-.851a1.1,1.1,0,0,1-.088-.3,1.056,1.056,0,0,1,.491-.805c.257-.148.477-.028.477.269,0,.15-.127.316-.127.463v.852a2.865,2.865,0,0,0,.838-1.771C418.467,1610.443,417.948,1610.142,417.306,1610.513Z" transform="translate(-380.03 -1467.262)" fill="#ff6341"/>
    <path id="Path_956" data-name="Path 956" d="M410.085,1609.825a2.625,2.625,0,0,1,1.214-2.014.878.878,0,0,1,.732-.122s-1.314-.617-1.666-.415a2.623,2.623,0,0,0-1.212,2.014.8.8,0,0,0,.379.776l.874.507h0A.841.841,0,0,1,410.085,1609.825Z" transform="translate(-374.022 -1464.56)" fill="#bf4a2d"/>
    <g id="Group_842" data-name="Group 842" transform="translate(45.333 107.716)">
      <path id="Path_957" data-name="Path 957" d="M562.56,1371.887v-.033h0C562.558,1371.864,562.559,1371.876,562.56,1371.887Z" transform="translate(-552.16 -1368.503)" fill="#803221"/>
      <path id="Path_958" data-name="Path 958" d="M494.861,1351.266a3.6,3.6,0,0,1-3.255,0,1.937,1.937,0,0,1-.2-.133h0l-5.441-3.222h0c-.054-.026-.108-.053-.159-.083a1.152,1.152,0,0,1-.673-.924h0l.02.444a1.146,1.146,0,0,0,.663.91c.051.03.1.057.154.083h0l5.44,3.222h0a1.934,1.934,0,0,0,.2.133,3.6,3.6,0,0,0,3.255.031,1.2,1.2,0,0,0,.674-.914h0l0-.423A1.12,1.12,0,0,1,494.861,1351.266Z" transform="translate(-485.133 -1346.905)" fill="#803221"/>
    </g>
    <path id="Path_959" data-name="Path 959" d="M494.861,1340.719c-.028-.016-.058-.03-.087-.045h0l-5.61-3.325h0c-.034-.022-.066-.045-.1-.066a3.6,3.6,0,0,0-3.255,0,.992.992,0,0,0,0,1.879c.051.029.1.057.159.083h0l5.441,3.222h0a1.938,1.938,0,0,0,.2.133,3.6,3.6,0,0,0,3.255,0A.992.992,0,0,0,494.861,1340.719Z" transform="translate(-439.799 -1230.522)" fill="#ff8267"/>
    <ellipse id="Ellipse_57" data-name="Ellipse 57" cx="1.329" cy="2.302" rx="1.329" ry="2.302" transform="matrix(0.866, -0.5, 0.5, 0.866, 104.704, 54.277)" fill="#ff8267"/>
    <path id="Path_960" data-name="Path 960" d="M561.47,1157.65a5.139,5.139,0,0,0-3.354-3.221,2.468,2.468,0,0,0-.7-.078h0l-102.231,27.041a1.821,1.821,0,0,1,1.391.27,5.141,5.141,0,0,1,2.326,4.027,1.508,1.508,0,0,1-.913,1.605l103.5-27.377.152-1.264A2.845,2.845,0,0,0,561.47,1157.65Z" transform="translate(-413.873 -1072.49)" fill="#fccf11"/>
    <ellipse id="Ellipse_58" data-name="Ellipse 58" cx="1.898" cy="3.288" rx="1.898" ry="3.288" transform="matrix(0.866, -0.5, 0.5, 0.866, 39.416, 109.959)" fill="#ff8267"/>
    <path id="Path_961" data-name="Path 961" d="M476.977,1212.238a1.459,1.459,0,0,1-.913,1.456h0l103.512-27.381a1.448,1.448,0,0,0,.925-1.471Z" transform="translate(-431.948 -1098.889)" fill="#fccf11"/>
    <ellipse id="Ellipse_59" data-name="Ellipse 59" cx="8.332" cy="4.811" rx="8.332" ry="4.811" transform="matrix(0.5, -0.866, 0.866, 0.5, 173.743, 56.655)" fill="#737379"/>
    <g id="Group_843" data-name="Group 843" transform="translate(181.583 51.284)">
      <path id="Path_962" data-name="Path 962" d="M1508.663,932.7a1.028,1.028,0,0,1,.465-.805.344.344,0,0,1,.3-.045l-8.84-5.156h0a.319.319,0,0,0-.339.025,1.028,1.028,0,0,0-.465.805.317.317,0,0,0,.151.308L1508.8,933A.328.328,0,0,1,1508.663,932.7Z" transform="translate(-1499.787 -926.651)" fill="#3b4855"/>
    </g>
    <path id="Path_963" data-name="Path 963" d="M1502.549,928.018a2.622,2.622,0,0,1,1.212-2.013l.015-.007-7.1-4.151h0a.6.6,0,0,0-.632.047,1.917,1.917,0,0,0-.868,1.5.592.592,0,0,0,.281.574l7.1,4.149C1502.552,928.086,1502.549,928.053,1502.549,928.018Z" transform="translate(-1314.21 -871.147)" fill="#3b4855"/>
    <path id="Path_964" data-name="Path 964" d="M1235.879,675.441a5.14,5.14,0,0,1-4.65.008c-.71-.41-1.026-.912-.952-1.45h0L1217,738.513v0a2.531,2.531,0,0,1,.667.075A5.112,5.112,0,0,1,1221,741.8a2.819,2.819,0,0,1,.16,1,6.774,6.774,0,0,0,.866-.355,1.724,1.724,0,0,0,.928-1.079l13.849-66.994A1.822,1.822,0,0,1,1235.879,675.441Z" transform="translate(-1073.39 -656.643)" fill="#fccf11"/>
    <path id="Path_965" data-name="Path 965" d="M1262.67,677.888a3.858,3.858,0,0,1-.867.358l-13.857,67.009a3.866,3.866,0,0,0,.87-.359,1.722,1.722,0,0,0,.93-1.077l13.85-66.992A1.822,1.822,0,0,1,1262.67,677.888Z" transform="translate(-1100.181 -659.089)" fill="#803221"/>
    <path id="Path_966" data-name="Path 966" d="M1525.84,912.077a12.423,12.423,0,0,1-5.62,9.735c-3.1,1.792-5.62.339-5.62-3.245a12.423,12.423,0,0,1,5.62-9.735C1523.324,907.04,1525.84,908.493,1525.84,912.077Zm-5.62-1.3a8.7,8.7,0,0,0-3.934,6.814c0,2.509,1.761,3.526,3.934,2.271a8.7,8.7,0,0,0,3.934-6.814C1524.154,910.542,1522.392,909.525,1520.219,910.78Zm.527-1.443c.126-.236.129-.473.006-.528h0c-.123-.056-.325.091-.451.327l-.609,1.141c-.126.236-.129.473-.005.528h0c.123.055.325-.091.451-.327Zm-1.546.983c.076-.244.016-.434-.135-.423h0c-.151.011-.335.217-.411.462l-.368,1.18c-.076.244-.016.434.135.423h0c.151-.011.335-.217.411-.462Zm-1.447,1.473c.019-.229-.1-.352-.263-.277h0a.713.713,0,0,0-.331.551l-.091,1.1c-.019.229.1.352.263.277h0a.714.714,0,0,0,.331-.551Zm-1.205,1.818c-.04-.19-.2-.237-.365-.1h0a.666.666,0,0,0-.219.587l.2.92c.04.19.2.237.365.1h0a.665.665,0,0,0,.218-.587Zm-.846,1.986c-.1-.134-.289-.1-.431.08h0a.514.514,0,0,0-.085.565l.462.646c.1.134.289.1.431-.08h0a.514.514,0,0,0,.084-.565Zm-.4,1.959c-.142-.064-.345.051-.455.256h0c-.11.205-.084.424.058.488l.683.308c.141.064.345-.051.455-.256h0c.11-.205.084-.424-.058-.487Zm.078,1.741a.576.576,0,0,0-.434.407h0c-.066.213.021.375.194.363l.838-.059a.577.577,0,0,0,.434-.407h0c.066-.213-.021-.375-.194-.363Zm.552,1.352a.7.7,0,0,0-.371.518h0c-.016.2.123.289.312.2l.911-.421a.7.7,0,0,0,.371-.518h0c.016-.2-.123-.289-.312-.2Zm.972.83a.7.7,0,0,0-.272.578h0c.035.166.214.175.4.022l.894-.741a.7.7,0,0,0,.272-.578h0c-.035-.166-.214-.175-.4-.022Zm1.3.228c-.163.2-.229.465-.146.582h0c.083.116.283.044.447-.16l.79-.989c.164-.2.229-.465.146-.582h0c-.083-.116-.283-.044-.447.16Zm1.495-.4c-.126.236-.129.473-.005.528h0c.123.056.325-.091.451-.327l.609-1.141c.126-.236.129-.473.006-.528h0c-.123-.056-.325.091-.451.327Zm1.546-.983c-.076.244-.016.434.135.423h0c.151-.011.335-.217.411-.462l.368-1.18c.076-.244.016-.434-.135-.423h0c-.151.011-.335.217-.411.462Zm1.447-1.472c-.019.229.1.352.263.277h0a.714.714,0,0,0,.331-.551l.091-1.1c.019-.229-.1-.353-.263-.277h0a.714.714,0,0,0-.331.551Zm1.205-1.818c.04.19.2.237.365.1h0a.666.666,0,0,0,.219-.587l-.2-.92c-.04-.19-.2-.237-.365-.1h0a.665.665,0,0,0-.218.587Zm.846-1.986c.1.134.289.1.431-.08h0a.514.514,0,0,0,.084-.565l-.462-.646c-.1-.134-.289-.1-.431.08h0a.514.514,0,0,0-.084.565Zm.4-1.959c.141.064.345-.051.455-.256h0c.11-.206.084-.424-.058-.488l-.683-.308c-.142-.064-.345.051-.455.256h0c-.109.205-.084.424.058.488Zm-.078-1.741a.577.577,0,0,0,.434-.407h0c.066-.212-.021-.375-.194-.362l-.838.059a.577.577,0,0,0-.434.407h0c-.066.212.021.375.194.363ZM1524.51,910a.7.7,0,0,0,.371-.518h0c.016-.2-.123-.289-.312-.2l-.911.421a.7.7,0,0,0-.371.518h0c-.016.2.123.289.312.2Zm-.972-.83a.7.7,0,0,0,.272-.578h0c-.035-.166-.214-.175-.4-.022l-.894.741a.7.7,0,0,0-.272.578h0c.035.166.214.176.4.022Zm-1.3-.228c.164-.2.229-.465.146-.582h0c-.083-.116-.283-.044-.447.16l-.79.989c-.164.2-.229.465-.146.582h0c.083.116.283.044.447-.161Z" transform="translate(-1331.027 -859.277)" fill="#9a9996"/>
    <path id="Path_967" data-name="Path 967" d="M1551.033,955.557a2.624,2.624,0,0,1,1.214-2.014.878.878,0,0,1,.732-.122s-1.314-.617-1.666-.414a2.623,2.623,0,0,0-1.212,2.014.8.8,0,0,0,.379.776l.8.462.106.055A.877.877,0,0,1,1551.033,955.557Z" transform="translate(-1361.762 -898.148)" fill="#cc4f34"/>
    <path id="Path_968" data-name="Path 968" d="M1558.232,956.245a2.605,2.605,0,0,0-1.2,2.014c0,.611.374.921.8.8v-.852c0-.048-.106-.152-.106-.3a1.063,1.063,0,0,1,.482-.815.529.529,0,0,1,.3-.057h0c.025,0,.046.032.067.049l.078.05.32.189-.279.1a2.689,2.689,0,0,0-.1.408v.852a2.843,2.843,0,0,0,.82-1.771C1559.412,956.175,1558.874,955.874,1558.232,956.245Z" transform="translate(-1367.765 -900.85)" fill="#ff6341"/>
    <path id="Path_969" data-name="Path 969" d="M1290.246,767.084l-29.53-29.224h0a2.569,2.569,0,0,1,.652,1.581c0,.741-.521,1.042-1.162.671a1.928,1.928,0,0,1-.372-.286l28.385,28.065-39.658,27.233-.614,2.968v1.2l41.466-29.423h0a.8.8,0,0,1-.379-.776,1.741,1.741,0,0,1,.04-.35,2.384,2.384,0,0,1,.164-.491A2.665,2.665,0,0,1,1290.246,767.084Z" transform="translate(-1100.181 -711.928)" fill="#fccf11"/>
    <g id="Group_844" data-name="Group 844" transform="translate(159.681 27.928)">
      <path id="Path_970" data-name="Path 970" d="M1337.688,753.121h0l-.05.008-.034,0-.049,0h-.042l-.047,0a.883.883,0,0,1-.087-.014l-.034-.009-.068-.019-.038-.013-.071-.029-.034-.015c-.035-.017-.071-.035-.107-.056s-.064-.038-.095-.059l-.012-.009c-.028-.019-.056-.039-.083-.06l0,0c-.051-.039-.1-.081-.15-.127l28.37,28.05v.024h0v-.023a1.092,1.092,0,0,0,.416.244,2.019,2.019,0,0,0,.592.107l.071-.146-28.442-27.853Z" transform="translate(-1336.683 -752.721)" fill="#fccf11"/>
    </g>
    <path id="Path_971" data-name="Path 971" d="M1332.905,735.636c0,.741-.521,1.042-1.162.671a2.569,2.569,0,0,1-1.163-2.013c0-.742.52-1.042,1.163-.671A2.57,2.57,0,0,1,1332.905,735.636Z" transform="translate(-1171.718 -708.122)" fill="#ff8267"/>
    <path id="Path_972" data-name="Path 972" d="M1289.165,974.486l0,0-13.83,9.55-27.384,18.909v1.2l27.815-19.736,13.651-9.686h0A.586.586,0,0,1,1289.165,974.486Z" transform="translate(-1100.181 -916.776)" fill="#fccf11"/>
    <path id="Path_973" data-name="Path 973" d="M1566.818,965.525a1.028,1.028,0,0,1-.465.805c-.257.148-.465.028-.465-.268a1.028,1.028,0,0,1,.465-.805C1566.61,965.108,1566.818,965.228,1566.818,965.525Z" transform="translate(-1375.429 -908.734)" fill="#24242d"/>
    <g id="Group_845" data-name="Group 845" transform="translate(36.698 144.042)">
      <path id="Path_974" data-name="Path 974" d="M427.177,1622a1.028,1.028,0,0,1,.465-.805.344.344,0,0,1,.3-.045l-6.315-3.691h0a.319.319,0,0,0-.339.025,1.028,1.028,0,0,0-.465.805.317.317,0,0,0,.15.308l6.336,3.7A.327.327,0,0,1,427.177,1622Z" transform="translate(-420.825 -1617.424)" fill="#3b4855"/>
    </g>
    <path id="Path_975" data-name="Path 975" d="M423.886,1619.04a2.622,2.622,0,0,1,1.212-2.014l.015-.007-4.141-2.42h0a.6.6,0,0,0-.633.047,1.917,1.917,0,0,0-.867,1.5.592.592,0,0,0,.281.574l4.138,2.418C423.888,1619.108,423.886,1619.075,423.886,1619.04Z" transform="translate(-382.956 -1470.875)" fill="#3b4855"/>
    <path id="Path_976" data-name="Path 976" d="M453.272,1635.417a2.625,2.625,0,0,1,1.214-2.014.879.879,0,0,1,.732-.122s-1.314-.617-1.666-.415a2.622,2.622,0,0,0-1.212,2.014.8.8,0,0,0,.379.776l.874.507h0A.84.84,0,0,1,453.272,1635.417Z" transform="translate(-411.41 -1486.716)" fill="#bf4a2d"/>
    <path id="Path_977" data-name="Path 977" d="M428.078,1591.938a12.423,12.423,0,0,1-5.621,9.735c-3.1,1.792-5.621.339-5.621-3.245a12.423,12.423,0,0,1,5.621-9.735C425.562,1586.9,428.078,1588.353,428.078,1591.938Zm-5.621-1.3a8.7,8.7,0,0,0-3.934,6.814c0,2.509,1.761,3.526,3.934,2.271a8.7,8.7,0,0,0,3.934-6.814C426.392,1590.4,424.63,1589.385,422.458,1590.64Zm.527-1.443c.126-.236.129-.473.005-.528h0c-.123-.056-.325.091-.451.327l-.609,1.141c-.126.236-.129.473-.005.528h0c.123.056.325-.091.451-.327Zm-1.546.983c.076-.244.016-.434-.135-.423h0c-.151.011-.335.217-.411.462l-.368,1.18c-.076.244-.016.434.135.423h0c.151-.011.335-.217.411-.462Zm-1.447,1.472c.019-.229-.1-.352-.263-.277h0a.714.714,0,0,0-.331.551l-.091,1.1c-.019.229.1.353.263.277h0a.714.714,0,0,0,.331-.551Zm-1.205,1.818c-.04-.19-.2-.237-.365-.1h0a.665.665,0,0,0-.218.587l.195.92c.04.19.2.237.365.1h0a.665.665,0,0,0,.218-.587Zm-.846,1.986c-.1-.134-.288-.1-.431.08h0a.514.514,0,0,0-.084.565l.462.646c.1.134.288.1.431-.081h0a.514.514,0,0,0,.084-.565Zm-.4,1.959c-.142-.064-.345.051-.455.256h0c-.11.205-.084.424.058.488l.683.308c.142.064.345-.051.455-.256h0c.11-.205.084-.424-.058-.488Zm.078,1.74a.576.576,0,0,0-.434.407h0c-.066.213.021.375.194.363l.838-.059a.576.576,0,0,0,.434-.407h0c.066-.212-.021-.375-.194-.363Zm.552,1.352a.7.7,0,0,0-.371.518h0c-.016.2.123.289.312.2l.911-.421a.7.7,0,0,0,.371-.518h0c.016-.2-.123-.289-.312-.2Zm.972.831a.7.7,0,0,0-.272.578h0c.035.166.214.175.4.022l.894-.741a.7.7,0,0,0,.272-.578h0c-.035-.166-.214-.176-.4-.022Zm1.3.228c-.164.2-.229.465-.146.582h0c.083.116.283.045.447-.16l.79-.989c.164-.2.229-.465.146-.582h0c-.083-.116-.283-.044-.447.16Zm1.495-.4c-.126.236-.129.473-.005.528h0c.123.055.325-.091.451-.327l.609-1.14c.126-.236.129-.473.005-.528h0c-.123-.055-.325.091-.451.327Zm1.546-.983c-.076.245-.016.434.135.423h0c.151-.011.335-.217.411-.462l.368-1.18c.076-.244.016-.434-.135-.423h0c-.151.011-.335.217-.411.462Zm1.447-1.472c-.019.229.1.352.263.277h0a.714.714,0,0,0,.331-.551l.091-1.1c.019-.229-.1-.352-.263-.277h0a.714.714,0,0,0-.331.551Zm1.205-1.818c.04.191.2.237.365.1h0a.665.665,0,0,0,.218-.587l-.2-.92c-.04-.19-.2-.236-.365-.1h0a.665.665,0,0,0-.218.587Zm.846-1.986c.1.134.288.1.431-.081h0a.514.514,0,0,0,.084-.565l-.462-.646c-.1-.134-.288-.1-.431.081h0a.514.514,0,0,0-.084.565Zm.4-1.959c.142.064.345-.051.455-.256h0c.11-.206.084-.424-.058-.488l-.683-.308c-.142-.064-.345.051-.455.256h0c-.11.205-.084.424.058.487Zm-.078-1.74a.577.577,0,0,0,.434-.407h0c.066-.213-.021-.375-.194-.363l-.838.059a.577.577,0,0,0-.434.407h0c-.066.213.021.375.194.363Zm-.552-1.352a.7.7,0,0,0,.371-.518h0c.016-.2-.123-.289-.312-.2l-.911.421a.7.7,0,0,0-.371.518h0c-.016.2.123.289.312.2Zm-.972-.83a.7.7,0,0,0,.272-.578h0c-.035-.166-.214-.176-.4-.022l-.894.741a.7.7,0,0,0-.272.578h0c.035.166.214.175.4.022Zm-1.3-.228c.164-.2.229-.465.146-.582h0c-.083-.116-.283-.044-.447.161l-.79.989c-.164.2-.229.465-.146.582h0c.083.116.283.044.447-.16Z" transform="translate(-380.675 -1447.845)" fill="#9a9996"/>
    <path id="Path_978" data-name="Path 978" d="M467.154,1374.85a3.6,3.6,0,0,1-3.255,0c-.538-.311-.752-.737-.645-1.141h0l-10.126,36.256a2.715,2.715,0,0,1,1.107-1.421c.351-.2,1.664.414,1.663.414a.84.84,0,0,1,.432.843,2.647,2.647,0,0,1-.028.337h0l11.477-35.9,0-.021A1.313,1.313,0,0,1,467.154,1374.85Z" transform="translate(-412.091 -1262.394)" fill="#fccf11"/>
    <path id="Path_979" data-name="Path 979" d="M473.756,1412.1l9.743-33.721a3.27,3.27,0,0,0,1.513-.388,1.344,1.344,0,0,0,.618-.654l0,.042-11.477,35.9h0a2.643,2.643,0,0,0,.028-.336.807.807,0,0,0-.432-.823Z" transform="translate(-429.949 -1265.535)" fill="#fccf11"/>
    <path id="Path_980" data-name="Path 980" d="M460.474,1636.105a2.6,2.6,0,0,0-1.2,2.014c0,.611.375.921.8.8v-.851c0-.048-.107-.152-.107-.3a1.045,1.045,0,0,1,.482-.805.512.512,0,0,1,.3-.047h0a.234.234,0,0,1,.067.039l.078.045.32.186-.278.1a2.669,2.669,0,0,0-.1.407v.851a2.841,2.841,0,0,0,.82-1.771C461.654,1636.035,461.116,1635.734,460.474,1636.105Z" transform="translate(-417.417 -1489.417)" fill="#ff6341"/>
    <path id="Path_981" data-name="Path 981" d="M469.057,1645.385a1.028,1.028,0,0,1-.465.805c-.257.148-.465.028-.465-.268a1.028,1.028,0,0,1,.465-.805C468.849,1644.968,469.057,1645.089,469.057,1645.385Z" transform="translate(-425.077 -1497.301)" fill="#24242d"/>
    <path id="Path_982" data-name="Path 982" d="M987.239,734.47c1.361-.856,2.006-1.935,1.246-3.358a4.518,4.518,0,0,0-1.7-.983,1.77,1.77,0,0,0-1.4.1l-49.529,28.538,1.149.115a3.6,3.6,0,0,1,1.628,2.819,1.159,1.159,0,0,1-.452,1.036v0l49.055-28.265Z" transform="translate(-830 -705.152)" fill="#fccf11"/>
    <path id="Path_983" data-name="Path 983" d="M953.584,776.441l.007,0h0c0,.056.007.112.011.168s0,.115,0,.171,0,.123-.01.182c0,.027-.008.051-.012.077s-.008.062-.013.091-.014.058-.022.087-.01.045-.017.066-.022.06-.033.089-.012.034-.019.049c-.014.031-.03.059-.046.088-.006.011-.012.024-.018.035a.911.911,0,0,1-.055.077c-.008.01-.014.021-.022.03a.825.825,0,0,1-.063.065c-.009.008-.016.018-.026.026a.836.836,0,0,1-.069.052c-.01.007-.019.016-.03.022l49.056-28.263a2.819,2.819,0,0,0,1.568-2.1Z" transform="translate(-844.971 -720.238)" fill="#fccf11"/>
    <ellipse id="Ellipse_60" data-name="Ellipse 60" cx="3.288" cy="1.898" rx="3.288" ry="1.898" transform="translate(106.079 41.654)" fill="#ff8267"/>
    <path id="Path_984" data-name="Path 984" d="M867.054,923.395h0a5.115,5.115,0,0,1,2.037-2.613l10.3-52.367h0a1.772,1.772,0,0,1-.941,1.127,5.14,5.14,0,0,1-4.65,0,1.56,1.56,0,0,1-.954-1.478h0l-10.04,51.008a2.671,2.671,0,0,1,.728.079,5.14,5.14,0,0,1,3.354,3.221A2.951,2.951,0,0,1,867.054,923.395Z" transform="translate(-766.758 -824.648)" fill="#fccf11"/>
    <path id="Path_985" data-name="Path 985" d="M907.7,871.96l-.121.051c-.1.041-.2.078-.3.111l0,0-10.327,52.746a5.517,5.517,0,0,1,1.7-1.826l10.3-52.367,0,0,0,.007a1.177,1.177,0,0,1-.04.146v0a1.281,1.281,0,0,1-.062.149v0a1.433,1.433,0,0,1-.084.147l0,.006a1.614,1.614,0,0,1-.1.138l-.016.017c-.035.042-.072.083-.112.123-.014.014-.031.027-.046.041-.034.032-.067.063-.1.094s-.053.04-.08.06-.059.047-.092.069q-.091.063-.194.122c-.069.04-.14.076-.213.111Z" transform="translate(-796.314 -826.912)" fill="#fccf11"/>
    <g id="Group_848" data-name="Group 848" transform="translate(40.664 132.867)">
      <g id="Group_846" data-name="Group 846">
        <path id="Path_986" data-name="Path 986" d="M467.589,1563.861h0Z" transform="translate(-465.276 -1559.878)" fill="#bf4a31"/>
        <path id="Path_987" data-name="Path 987" d="M450.361,1534.208l.008-.005-.008,0Z" transform="translate(-450.361 -1534.203)" fill="#bf4a31"/>
      </g>
      <g id="Group_847" data-name="Group 847" transform="translate(2.314 3.982)">
        <path id="Path_988" data-name="Path 988" d="M467.59,1563.861h0Z" transform="translate(-467.59 -1563.86)" fill="#803221"/>
      </g>
    </g>
    <path id="Path_989" data-name="Path 989" d="M720.887,1116.248a1.052,1.052,0,0,0-1.294,0v0l-28.1,24.088c.072.034.144.071.218.114a5.133,5.133,0,0,1,2.08,2.688,4.679,4.679,0,0,0,2.148-.625l26.184-22.443a1.2,1.2,0,0,0,.4-1A3.6,3.6,0,0,0,720.887,1116.248Z" transform="translate(-618.446 -1039.314)" fill="#cc4f34"/>
    <path id="Path_990" data-name="Path 990" d="M708.595,1159.42v0a4.677,4.677,0,0,0,2.144-.623l26.188-22.445a1.2,1.2,0,0,0,.4-1c0-.054,0-.109-.007-.164h0c0-.024,0-.048-.006-.072h0c0-.024-.01-.047-.013-.071a1.64,1.64,0,0,1-.038-.208h0Z" transform="translate(-633.255 -1055.601)" fill="#803221"/>
    <g id="Group_849" data-name="Group 849" transform="translate(3.449 66.207)">
      <path id="Path_991" data-name="Path 991" d="M173.22,1394.039h0Z" transform="translate(-173.22 -1346.2)" fill="#803221"/>
      <path id="Path_992" data-name="Path 992" d="M254.482,1037.785l-80.748,46.624-.006.016c0,.048.006.1.006.144a1.145,1.145,0,0,1-.475,1.052l82.062-47.352Z" transform="translate(-173.254 -1037.785)" fill="#803221"/>
    </g>
    <ellipse id="Ellipse_61" data-name="Ellipse 61" cx="1.329" cy="2.302" rx="1.329" ry="2.302" transform="matrix(0.866, -0.5, 0.5, 0.866, 0, 110.722)" fill="#ff8267"/>
    <ellipse id="Ellipse_62" data-name="Ellipse 62" cx="1.329" cy="2.302" rx="1.329" ry="2.302" transform="matrix(0.866, -0.5, 0.5, 0.866, 37.202, 132.201)" fill="#ff8267"/>
    <g id="Group_850" data-name="Group 850" transform="translate(121.769 83.973)">
      <path id="Path_993" data-name="Path 993" d="M1054.351,1170.308h0a3.6,3.6,0,0,1,1.628,2.819v-1.88C1055.979,1170.212,1055.247,1169.8,1054.351,1170.308Z" transform="translate(-1054.351 -1170.089)" fill="#ff6341"/>
    </g>
    <path id="Path_994" data-name="Path 994" d="M158.4,1061.622l81.108-46.8v-4.542a1.143,1.143,0,0,0-1.154-.107h0l-82.25,47.46a1.147,1.147,0,0,1,1.142.118,3.6,3.6,0,0,1,1.63,2.819A1.143,1.143,0,0,1,158.4,1061.622Z" transform="translate(-154.952 -947.577)" fill="#fccf11"/>
    <path id="Path_995" data-name="Path 995" d="M778.44,1010.216a1.171,1.171,0,0,0-1.2.086v4.542l36.076,20.818h-.01a1.148,1.148,0,0,1-.478-1.051,3.6,3.6,0,0,1,1.625-2.819,1.168,1.168,0,0,1,1.1-.136l.01,0Z" transform="translate(-692.679 -947.6)" fill="#fccf11"/>
    <path id="Path_996" data-name="Path 996" d="M772.415,1010.283a1.454,1.454,0,0,1,.746-.214l-1.494,0A1.484,1.484,0,0,1,772.415,1010.283Z" transform="translate(-687.857 -947.581)" fill="#803221"/>
    <path id="Path_997" data-name="Path 997" d="M812.888,1059.033c0-.064,0-.13.008-.2L777.308,1038.3v.969l36.005,20.78A1.182,1.182,0,0,1,812.888,1059.033Z" transform="translate(-692.741 -972.022)" fill="#fccf11"/>
    <g id="Group_851" data-name="Group 851" transform="translate(3.454 66.276)">
      <path id="Path_998" data-name="Path 998" d="M378.9,1069.173l.812.474,52.678-30.38v-.969Z" transform="translate(-351.285 -1038.298)" fill="#fccf11"/>
      <path id="Path_999" data-name="Path 999" d="M197.827,1281.4l-24.093,13.912-.006.016c0,.048.006.1.006.144a1.145,1.145,0,0,1-.475,1.052l23.952-13.821A2.066,2.066,0,0,0,197.827,1281.4Z" transform="translate(-173.259 -1248.752)" fill="#fccf11"/>
    </g>
    <path id="Path_1000" data-name="Path 1000" d="M516.63,1171.593h-.012a3.7,3.7,0,0,0-2.13.44l-81.278,46.9a1.148,1.148,0,0,1,1.143.118,3.6,3.6,0,0,1,1.628,2.819,1.144,1.144,0,0,1-.475,1.052l82.243-47.458.034-.02.017-.01h0a1.164,1.164,0,0,0,.444-1.031A3.6,3.6,0,0,0,516.63,1171.593Z" transform="translate(-394.849 -1087.401)" fill="#fccf11"/>
    <g id="Group_852" data-name="Group 852" transform="translate(27.322 95.733)">
      <path id="Path_1001" data-name="Path 1001" d="M353.078,1258.11a3.62,3.62,0,0,0-2.07-.416c1.179,1.879.779,4.057-.008,4.521l32.609,18.805s.836-.51,1.135-.645c1.285-.583,1.611-1.028,3.419-.773-.336-.855-.112-.958,0-1.21Z" transform="translate(-351.001 -1257.668)" fill="#fccf11"/>
    </g>
    <path id="Path_1002" data-name="Path 1002" d="M384.418,1305.6l-13.968-8.061-3.991-2.3-14.95-8.628a1.361,1.361,0,0,1-.508.662l32.609,18.805S384.061,1305.8,384.418,1305.6Z" transform="translate(-323.679 -1186.985)" fill="#fccf11"/>
    <g id="Group_853" data-name="Group 853" transform="translate(40.651 86.806)">
      <path id="Path_1003" data-name="Path 1003" d="M450.263,1553.991h0Z" transform="translate(-450.263 -1505.272)" fill="#fccf11"/>
      <path id="Path_1004" data-name="Path 1004" d="M533.042,1191.19l-82.265,47.5-.006.016c0,.048.006.1.006.144a1.145,1.145,0,0,1-.475,1.052l82.268-47.47a1.148,1.148,0,0,0,.47-1.05C533.04,1191.324,533.047,1191.253,533.042,1191.19Z" transform="translate(-450.297 -1191.19)" fill="#fccf11"/>
    </g>
    <path id="Path_1005" data-name="Path 1005" d="M947.753,833.782a3.6,3.6,0,0,1-3.255.006,1.092,1.092,0,0,1-.667-1.019h-.007l-1.392,4.387h0c-.331.535-.127,1.156.615,1.585a4.112,4.112,0,0,0,3.72,0,1.351,1.351,0,0,0,.764-1l0-.012.88-4.775h0A1.19,1.19,0,0,1,947.753,833.782Z" transform="translate(-835.561 -794.093)" fill="#564540"/>
    <ellipse id="Ellipse_63" data-name="Ellipse 63" cx="2.302" cy="1.329" rx="2.302" ry="1.329" transform="translate(108.263 37.434)" fill="#947d79"/>
    <ellipse id="Ellipse_64" data-name="Ellipse 64" cx="2.302" cy="1.329" rx="2.302" ry="1.329" transform="translate(109.48 32.619)" fill="#605451"/>
    <path id="Path_1006" data-name="Path 1006" d="M958.925,797.925a3.6,3.6,0,0,1-3.255,0c-.5-.289-.721-.65-.665-1.027l-1.189,4.757h0c-.129.43.082.81.637,1.13a3.6,3.6,0,0,0,3.255-.023,1.275,1.275,0,0,0,.651-.772l0-.005,1.211-4.8h0A1.273,1.273,0,0,1,958.925,797.925Z" transform="translate(-845.516 -763.038)" fill="#362f2e"/>
    <path id="Path_1007" data-name="Path 1007" d="M1063.029,901.1a3.084,3.084,0,0,1-1.4,2.416c-.771.445-1.4.084-1.4-.805a3.083,3.083,0,0,1,1.4-2.416C1062.4,899.849,1063.029,900.21,1063.029,901.1Z" transform="translate(-937.679 -852.385)" fill="#362f2e"/>
    <g id="Group_854" data-name="Group 854" transform="translate(76.065 20.871)">
      <path id="Path_1008" data-name="Path 1008" d="M762.8,727.107v-.016l-13.911-8.039-.006,0a1.022,1.022,0,0,0-.919.128,2.279,2.279,0,0,0-.408.3h0l-3.316,2.705-9.3-5.37-4.312-8.185,0,0a.711.711,0,0,0-.323-.315h0l0-.01-13.9-8.034h0a.979.979,0,0,0-1.016.088,3.091,3.091,0,0,0-1.4,2.416.967.967,0,0,0,.421.91v0l13.991,8.078.033.06,4.411,8.165h0a.783.783,0,0,0,.194.265l.012.022.08.046.009.006h0l0,0h0l9.17,5.292h0l.035.021.012,0a1.113,1.113,0,0,0,.955-.085,2.269,2.269,0,0,0,.289-.212v-.005L747,722.508l13.911,8.03-.1-.07a1.038,1.038,0,0,1-.328-.844,3.084,3.084,0,0,1,1.4-2.416,1,1,0,0,1,.923-.1l0,.027h0Z" transform="translate(-713.99 -700.17)" fill="#5e5958"/>
      <path id="Path_1009" data-name="Path 1009" d="M1063.412,926.3h0Z" transform="translate(-1016.488 -895.937)" fill="#5e5958"/>
    </g>
    <path id="Path_1010" data-name="Path 1010" d="M908.835,805.87c-.038.022-.075.047-.112.071l-8.142,4.682a1.287,1.287,0,0,1-.244,1.222,3.918,3.918,0,0,1,3.505.661l5-2.877v-.008a3.6,3.6,0,0,0,1.616-2.811C910.462,805.771,909.734,805.351,908.835,805.87Z" transform="translate(-799.249 -770.612)" fill="#483f3d"/>
    <path id="Path_1011" data-name="Path 1011" d="M972.413,848.386a3.083,3.083,0,0,1,1.4-2.416.9.9,0,0,1,1.119.005v0l-1.227-1.786h0c-.342-.678-1.1-.848-1.989-.337a4.822,4.822,0,0,0-2.182,3.778c0,.963.468,1.529,1.155,1.556h0l2.282.165v0A.9.9,0,0,1,972.413,848.386Z" transform="translate(-859.15 -803.428)" fill="#24201f"/>
    <g id="Group_855" data-name="Group 855" transform="translate(85.354 26.239)">
      <path id="Path_1012" data-name="Path 1012" d="M818.247,741.768Z" transform="translate(-813.536 -741.55)" fill="#24201f"/>
      <path id="Path_1013" data-name="Path 1013" d="M784.481,744.413a4.822,4.822,0,0,1,2.182-3.778,2.013,2.013,0,0,1,.935-.3l-2.261-.182h0a1.138,1.138,0,0,0-.772.176,3.083,3.083,0,0,0-1.4,2.416,1.241,1.241,0,0,0,.159.654h0l0,.005c.007.011.015.022.023.033l1.363,1.977h0A1.961,1.961,0,0,1,784.481,744.413Z" transform="translate(-783.17 -740.142)" fill="#24201f"/>
    </g>
    <path id="Path_1014" data-name="Path 1014" d="M797.286,743.39l-1.195-.689a.967.967,0,0,0-.979.1,3.084,3.084,0,0,0-1.4,2.416.98.98,0,0,0,.409.9l1.187.684q-.1.068-.2.126c-1.2.7-2.182.132-2.182-1.259a4.822,4.822,0,0,1,2.182-3.778c1.2-.7,2.182-.132,2.182,1.259C797.294,743.223,797.291,743.315,797.286,743.39Z" transform="translate(-706.266 -715.159)" fill="#362f2e"/>
    <path id="Path_1015" data-name="Path 1015" d="M723.533,708.969l-.091-.132c-.008-.011-.016-.021-.023-.033l0-.005h0a1.241,1.241,0,0,1-.159-.654,3.083,3.083,0,0,1,1.4-2.416,1.138,1.138,0,0,1,.772-.176h0l.124.01-9.145-5.289h0a1,1,0,0,0-1.024.088,3.1,3.1,0,0,0-1.406,2.416.966.966,0,0,0,.419.91Z" transform="translate(-637.909 -679.299)" fill="#24201f"/>
    <path id="Path_1016" data-name="Path 1016" d="M1002.621,865.563l-9.128-5.271.026.037v0a.9.9,0,0,0-1.119-.005,3.084,3.084,0,0,0-1.4,2.416.9.9,0,0,0,.555.963v0l-.044,0,9.216,5.32-.1-.07a1.037,1.037,0,0,1-.328-.844,3.084,3.084,0,0,1,1.4-2.416,1.021,1.021,0,0,1,.923-.128l0,0h0Z" transform="translate(-877.741 -817.785)" fill="#24201f"/>
    <path id="Path_1017" data-name="Path 1017" d="M785.176,772.6l-.753-.433,0,1.416.756.436Z" transform="translate(-698.9 -741.626)" fill="#4f5169"/>
    <path id="Path_1018" data-name="Path 1018" d="M804.551,755.168a3.084,3.084,0,0,1,1.4-2.416,1,1,0,0,1,.949-.115v0l-.707-.409h0a.971.971,0,0,0-1,.09,3.083,3.083,0,0,0-1.4,2.416,1,1,0,0,0,.377.881l.767.446h0A.992.992,0,0,1,804.551,755.168Z" transform="translate(-715.671 -724.278)" fill="#4f5169"/>
    <path id="Path_1019" data-name="Path 1019" d="M1000.777,906.839v.511l-.7.4,0-.511Z" transform="translate(-885.595 -858.216)" fill="#87889b"/>
    <path id="Path_1020" data-name="Path 1020" d="M940.249,862.279l-.753-.433,0,1.416.756.436Z" transform="translate(-833.15 -819.264)" fill="#4f5169"/>
    <path id="Path_1021" data-name="Path 1021" d="M959.7,844.741a3.084,3.084,0,0,1,1.4-2.416,1,1,0,0,1,.949-.115v0l-.706-.409h0a.971.971,0,0,0-1,.09,3.083,3.083,0,0,0-1.4,2.416,1,1,0,0,0,.377.881l.767.446h0A.992.992,0,0,1,959.7,844.741Z" transform="translate(-849.989 -801.822)" fill="#4f5169"/>
    <path id="Path_1022" data-name="Path 1022" d="M943.565,847.964l-.753-.439-3.333,1.924.756.436Z" transform="translate(-833.134 -806.867)" fill="#696a83"/>
    <path id="Path_1023" data-name="Path 1023" d="M945.106,852.718l0,1.416,2.6-1.5a3.065,3.065,0,0,1,.729-1.837Z" transform="translate(-838.007 -809.699)" fill="#87889b"/>
    <path id="Path_1024" data-name="Path 1024" d="M945.807,862.091l-.7.4,4.521,1.865,2.86,4.144.7-.4-2.86-4.144Z" transform="translate(-838.007 -819.477)" fill="#a5a6b4"/>
    <path id="Path_1025" data-name="Path 1025" d="M945.106,865.106v.511l4.522,1.865,2.861,4.144,0-.511-2.86-4.144Z" transform="translate(-838.007 -822.087)" fill="#4f5169"/>
    <path id="Path_1026" data-name="Path 1026" d="M788.51,758.273l-.753-.439-3.333,1.924.756.436Z" transform="translate(-698.9 -729.219)" fill="#696a83"/>
    <path id="Path_1027" data-name="Path 1027" d="M718.025,741.675l-.7.4-3.229-2.61-7.178-1.651.7-.4,7.178,1.651Z" transform="translate(-631.802 -711.541)" fill="#a5a6b4"/>
    <path id="Path_1028" data-name="Path 1028" d="M717.329,744.69v.522l-3.234-2.621-7.173-1.651v-.511l7.178,1.651Z" transform="translate(-631.806 -714.151)" fill="#4f5169"/>
    <path id="Path_1029" data-name="Path 1029" d="M790.051,763.026l0,1.416,2.6-1.5a3.065,3.065,0,0,1,.729-1.837Z" transform="translate(-703.773 -732.051)" fill="#87889b"/>
    <path id="Path_1030" data-name="Path 1030" d="M808.277,797.026a18.527,18.527,0,0,1-2.552-.534,7.769,7.769,0,0,1-4.683-6.264c-.484-5.541-7.381-12.647-7.381-12.647-.034-.049-.1-.059-.171-.017a.438.438,0,0,0-.2.343.157.157,0,0,0,.036.11s6.713,6.912,7.18,12.261a8.248,8.248,0,0,0,5.054,6.734,18.947,18.947,0,0,0,2.631.544c.913.144,2.7.426,2.785.748l.1-.533A17.606,17.606,0,0,0,808.277,797.026Z" transform="translate(-706.578 -746.276)" fill="#4f5169"/>
    <path id="Path_1031" data-name="Path 1031" d="M892.444,875.132h0c-.389-.9-1.836-1.4-3.012-1.767-.26-.082-.506-.159-.725-.236-.113-.039-.268-.09-.456-.151-1.5-.487-5.5-1.782-6.521-3.873a2.239,2.239,0,0,1-.087-1.83c1.28-3.542,7.114-3.594,7.173-3.595v-.537c-.255,0-6.269.052-7.677,3.949a2.786,2.786,0,0,0,.11,2.249c1.124,2.3,5.128,3.594,6.838,4.148.184.059.335.108.444.147.227.08.478.158.742.241,1.194.375,2.693.819,2.729,1.643v0c.01.132.109.183.231.113a.514.514,0,0,0,.232-.4A.223.223,0,0,0,892.444,875.132Z" transform="translate(-782.466 -820.387)" fill="#a5a6b4"/>
    <path id="Path_1032" data-name="Path 1032" d="M469.057,1645.385a1.028,1.028,0,0,1-.465.805c-.257.148-.465.028-.465-.268a1.028,1.028,0,0,1,.465-.805C468.849,1644.968,469.057,1645.089,469.057,1645.385Z" transform="translate(-425.077 -1497.301)" fill="#24242d"/>
    <path id="Path_1033" data-name="Path 1033" d="M1242.662,1188.806l.93.537,6.33,11.32-.93-.537Z" transform="translate(-1095.606 -1102.32)" fill="#4f5169"/>
    <path id="Path_1034" data-name="Path 1034" d="M1243.592,1184.147l-.93-.537,1.4-.806.93.537Z" transform="translate(-1095.606 -1097.124)" fill="none" stroke="#4f5169" stroke-miterlimit="10" stroke-width="1"/>
    <path id="Path_1035" data-name="Path 1035" d="M1290.734,1268.45l-.93-.537,1.4-.806.93.537Z" transform="translate(-1136.418 -1170.106)" fill="#4f5169"/>
    <path id="Path_1036" data-name="Path 1036" d="M1250.984,1186.8l6.33,11.32-1.4.806-6.33-11.32Z" transform="translate(-1101.602 -1100.586)" fill="#87889b"/>
    <g id="Group_856" data-name="Group 856" transform="translate(146.222 84.513)">
      <path id="Path_1037" data-name="Path 1037" d="M1237.846,1176.834a2.269,2.269,0,0,1,1.027-1.778.745.745,0,0,1,.687-.09h0l-1.325-.764h0a.7.7,0,0,0-.758.05,2.27,2.27,0,0,0-1.027,1.779.733.733,0,0,0,.283.652h0l.013.008.011.006,1.386.8A.724.724,0,0,1,1237.846,1176.834Z" transform="translate(-1236.451 -1174.111)" fill="#696a83"/>
      <path id="Path_1038" data-name="Path 1038" d="M1249.11,1199.356l.011.006h0Z" transform="translate(-1247.41 -1195.966)" fill="none" stroke="#4f5169" stroke-miterlimit="10" stroke-width="1"/>
    </g>
    <path id="Path_1039" data-name="Path 1039" d="M1248.893,1180.837a2.269,2.269,0,0,1-1.027,1.778c-.567.327-1.027.062-1.027-.593a2.269,2.269,0,0,1,1.027-1.778C1248.434,1179.917,1248.893,1180.182,1248.893,1180.837Z" transform="translate(-1099.223 -1094.786)" fill="#87889b"/>
    <path id="Path_1040" data-name="Path 1040" d="M1293.713,1262.939l-4.533-2.617-3.616,1.012-1.753,2.088,4.533,2.617,3.749-.936Zm-4.755-1.877,3.5,2.019-.987,1.29-4.667-2.694Zm-.37,4.251-3.5-2.019,1.065-1.245,4.666,2.694Z" transform="translate(-1131.229 -1164.233)" fill="#2d2a3b"/>
    <path id="Path_1041" data-name="Path 1041" d="M1283.81,1283.408v.793l4.533,2.617v-.793Z" transform="translate(-1131.228 -1184.219)" fill="#4e4d56"/>
    <path id="Path_1042" data-name="Path 1042" d="M1321.316,1295.931v.793l-3.749.935v-.793Z" transform="translate(-1160.453 -1195.06)" fill="#7a7980"/>
    <path id="Path_1043" data-name="Path 1043" d="M1347.108,1279.811v.793l-1.62,2.165v-.793Z" transform="translate(-1184.624 -1181.104)" fill="#4e4d56"/>
    <path id="Path_1044" data-name="Path 1044" d="M1308.242,1265.833v.793l-1.237.353-.92-.531Z" transform="translate(-1150.513 -1169.004)" fill="#4e4d56"/>
    <path id="Path_1045" data-name="Path 1045" d="M1322.148,1265.833v.793l3.076,1.776.421-.55Z" transform="translate(-1164.419 -1169.004)" fill="#22202c"/>
    <path id="Path_1046" data-name="Path 1046" d="M1294.421,1273.182v.793l-.611.714-.454-.262Z" transform="translate(-1139.494 -1175.366)" fill="#4e4d56"/>
    <path id="Path_1047" data-name="Path 1047" d="M1301.287,1274.182v.793l3.713,2.144.953-.243Z" transform="translate(-1146.359 -1176.232)" fill="#22202c"/>
  </g>
  <g id="base" transform="translate(27.693 127.533)">
    <path id="Path_1048" data-name="Path 1048" d="M496.421,1313.327l-3.255-1.879-6.045-3.49-3.255,1.879,6.045,3.49,3.255,1.879,6.045,3.49,3.255-1.879Z" transform="translate(-466.396 -1270.151)" fill="#99746c"/>
    <path id="Path_1049" data-name="Path 1049" d="M429.95,1188l-6.045,3.49-3.255,1.879-6.045,3.49,3.255,1.879,6.045-3.49,3.255-1.879,6.045-3.49Z" transform="translate(-406.435 -1166.298)" fill="#b39790"/>
    <path id="Path_1050" data-name="Path 1050" d="M496.419,1233.353l-3.255-1.88-6.045-3.49-3.255,1.879,6.045,3.49,3.255,1.879,6.045,3.49,3.255-1.879Z" transform="translate(-466.394 -1200.916)" fill="#99746c"/>
    <path id="Path_1051" data-name="Path 1051" d="M568.471,1267.972l-6.045,3.49-3.255,1.879-6.045,3.49,3.255,1.88,6.045-3.49,3.255-1.879,6.045-3.49Z" transform="translate(-526.356 -1235.534)" fill="#b39790"/>
    <path id="Path_1052" data-name="Path 1052" d="M568.469,1188l-6.045,3.49-3.255,1.879-6.045,3.49,3.255,1.879,6.045-3.49,3.255-1.879,6.045-3.49Z" transform="translate(-526.354 -1166.299)" fill="#b39790"/>
    <path id="Path_1053" data-name="Path 1053" d="M634.939,1233.354l-3.255-1.879-6.045-3.49-3.255,1.879,6.045,3.49,3.255,1.879,6.045,3.49,3.255-1.879Z" transform="translate(-586.313 -1200.917)" fill="#99746c"/>
    <path id="Path_1054" data-name="Path 1054" d="M706.991,1267.973l-6.045,3.49-3.255,1.879-6.045,3.49,3.255,1.879,6.045-3.49,3.255-1.879,6.045-3.49Z" transform="translate(-646.275 -1235.535)" fill="#b39790"/>
    <path id="Path_1055" data-name="Path 1055" d="M568.467,1108.023l-6.045,3.49-3.255,1.879-6.045,3.49,3.255,1.879,6.045-3.49,3.255-1.879,6.045-3.49Z" transform="translate(-526.352 -1097.064)" fill="#b39790"/>
    <path id="Path_1056" data-name="Path 1056" d="M634.937,1153.38l-3.255-1.879-6.045-3.49-3.255,1.879,6.045,3.49,3.255,1.879,6.045,3.49,3.255-1.879Z" transform="translate(-586.311 -1131.681)" fill="#99746c"/>
    <path id="Path_1057" data-name="Path 1057" d="M706.989,1188l-6.045,3.49-3.255,1.879-6.045,3.49,3.255,1.879,6.045-3.49,3.255-1.879,6.045-3.49Z" transform="translate(-646.273 -1166.3)" fill="#b39790"/>
    <path id="Path_1058" data-name="Path 1058" d="M706.987,1108.024l-6.045,3.49-3.255,1.879-6.045,3.49,3.255,1.879,6.045-3.49,3.255-1.879,6.045-3.49Z" transform="translate(-646.271 -1097.065)" fill="#b39790"/>
    <path id="Path_1059" data-name="Path 1059" d="M773.457,1153.381,770.2,1151.5l-6.045-3.49-3.255,1.879,6.045,3.49,3.255,1.879,6.045,3.49,3.255-1.879Z" transform="translate(-706.23 -1131.682)" fill="#99746c"/>
    <path id="Path_1060" data-name="Path 1060" d="M845.509,1188l-6.045,3.49-3.255,1.879-6.045,3.49,3.255,1.88,6.045-3.49,3.255-1.879,6.045-3.49Z" transform="translate(-766.192 -1166.301)" fill="#b39790"/>
    <path id="Path_1061" data-name="Path 1061" d="M773.455,1073.406l-3.255-1.879-6.045-3.49-3.255,1.879,6.045,3.49,3.255,1.879,6.045,3.49,3.255-1.879Z" transform="translate(-706.228 -1062.447)" fill="#99746c"/>
    <g id="Group_857" data-name="Group 857" transform="translate(36.071 48.546)">
      <path id="Path_1062" data-name="Path 1062" d="M629.448,1392.044a3.616,3.616,0,0,0-1.606-2.841l-2.2-1.27-3.255,1.88,2.2,1.269h0a3.616,3.616,0,0,1,1.606,2.841,1.154,1.154,0,0,1-.46,1.042l3.229-1.864.017-.01.021-.012v0A1.162,1.162,0,0,0,629.448,1392.044Z" transform="translate(-622.388 -1387.933)" fill="#fccf11"/>
    </g>
    <g id="Group_858" data-name="Group 858" transform="translate(36.071 37.807)">
      <path id="Path_1063" data-name="Path 1063" d="M625.641,1307.959l-3.255,1.879,6.045,3.49,3.255,1.879,3.255-1.879-3.255-1.879Z" transform="translate(-622.386 -1307.959)" fill="#fccf11"/>
      <path id="Path_1064" data-name="Path 1064" d="M698.706,1352.057a3.615,3.615,0,0,0-1.606-2.841l-2.2-1.269-3.255,1.879,2.2,1.269h0a3.615,3.615,0,0,1,1.606,2.841,1.154,1.154,0,0,1-.46,1.042l3.229-1.863.017-.01.021-.012v0A1.162,1.162,0,0,0,698.706,1352.057Z" transform="translate(-682.346 -1342.577)" fill="#fccf11"/>
    </g>
    <path id="Path_1065" data-name="Path 1065" d="M767.965,1312.071a3.615,3.615,0,0,0-1.606-2.841l-2.2-1.27-3.255,1.879,2.2,1.27h0a3.615,3.615,0,0,1,1.606,2.841,1.154,1.154,0,0,1-.46,1.042l3.229-1.863.017-.01.022-.012v0A1.162,1.162,0,0,0,767.965,1312.071Z" transform="translate(-706.234 -1270.153)" fill="#fccf11"/>
    <path id="Path_1066" data-name="Path 1066" d="M777.263,1237.466a3.615,3.615,0,0,0-1.606-2.841l-2.2-1.269-3.255-1.879-6.045-3.49-3.255,1.879,6.045,3.49,3.255,1.88,2.2,1.269h0a3.616,3.616,0,0,1,1.606,2.841,1.153,1.153,0,0,1-.46,1.042l3.229-1.863.017-.01.022-.012v0A1.162,1.162,0,0,0,777.263,1237.466Z" transform="translate(-706.232 -1200.918)" fill="#fccf11"/>
    <path id="Path_1067" data-name="Path 1067" d="M906.483,1232.1a3.615,3.615,0,0,0-1.606-2.841l-2.2-1.269-3.255,1.879,2.2,1.269h0a3.616,3.616,0,0,1,1.606,2.841,1.154,1.154,0,0,1-.46,1.042l3.229-1.863.017-.01.021-.012v0A1.161,1.161,0,0,0,906.483,1232.1Z" transform="translate(-826.151 -1200.919)" fill="#fccf11"/>
    <g id="Group_859" data-name="Group 859" transform="translate(73.272 16.329)">
      <path id="Path_1068" data-name="Path 1068" d="M902.676,1148.012l-3.255,1.879,6.045,3.49,3.255,1.879,3.255-1.879-3.255-1.879Z" transform="translate(-899.421 -1148.012)" fill="#fccf11"/>
      <path id="Path_1069" data-name="Path 1069" d="M975.742,1192.111a3.616,3.616,0,0,0-1.606-2.841l-2.2-1.269-3.255,1.879,2.2,1.27h0a3.615,3.615,0,0,1,1.606,2.841,1.153,1.153,0,0,1-.46,1.042l3.229-1.863.017-.01.021-.013v0A1.162,1.162,0,0,0,975.742,1192.111Z" transform="translate(-959.381 -1182.63)" fill="#fccf11"/>
    </g>
    <path id="Path_1070" data-name="Path 1070" d="M977.981,1148.472h0a1.271,1.271,0,0,1,.967-.188h.006l-2.933-1.694a.777.777,0,0,0-.312-.18l-.009-.005h-.006a1.27,1.27,0,0,0-.969.188h0l-6.045,3.49,3.255,1.879,6.045-3.49Z" transform="translate(-886.109 -1130.263)" fill="#fccf11"/>
    <g id="Group_860" data-name="Group 860" transform="translate(63.971 10.739)">
      <path id="Path_1071" data-name="Path 1071" d="M836.206,1135.9l-6.045,3.49,3.255,1.879,6.045-3.49,3.255-1.879-3.255-1.879Z" transform="translate(-830.161 -1130.306)" fill="#b39790"/>
      <path id="Path_1072" data-name="Path 1072" d="M906.76,1106.6a.779.779,0,0,0-.312-.18l-.009-.005h-.006a1.27,1.27,0,0,0-.968.188h0l-6.045,3.49,3.255,1.879,6.045-3.49h0a1.27,1.27,0,0,1,.967-.188h.006Z" transform="translate(-890.12 -1106.384)" fill="#b39790"/>
    </g>
    <path id="Path_1073" data-name="Path 1073" d="M839.459,1068.5h0a1.27,1.27,0,0,1,.967-.188h.006l-2.933-1.694a.778.778,0,0,0-.312-.18l-.009-.005h-.006a1.27,1.27,0,0,0-.968.188h0l-6.045,3.49,3.255,1.879,6.045-3.49Z" transform="translate(-766.188 -1061.027)" fill="#b39790"/>
    <g id="Group_861" data-name="Group 861" transform="translate(45.37 0)">
      <path id="Path_1074" data-name="Path 1074" d="M697.685,1055.921l-6.045,3.49,3.255,1.879,6.045-3.49,3.255-1.879-3.255-1.879Z" transform="translate(-691.64 -1050.331)" fill="#b39790"/>
      <path id="Path_1075" data-name="Path 1075" d="M768.239,1026.626a.778.778,0,0,0-.312-.18l-.009-.005h-.006a1.27,1.27,0,0,0-.968.188h0l-6.045,3.49,3.255,1.879,6.045-3.49h0a1.27,1.27,0,0,1,.967-.188h.006Z" transform="translate(-751.599 -1026.409)" fill="#b39790"/>
    </g>
    <path id="Path_1076" data-name="Path 1076" d="M508.954,1353.492a3.658,3.658,0,0,1,1.628-2.837h0l1.484-.84-3.246-1.87-1.475.862v0a3.438,3.438,0,0,0-1.637,2.82,1.335,1.335,0,0,0,.262.876h0a1.4,1.4,0,0,1,.464.268l2.785,1.606v-.01A1.362,1.362,0,0,1,508.954,1353.492Z" transform="translate(-485.305 -1304.768)" fill="#fccf11"/>
    <path id="Path_1077" data-name="Path 1077" d="M448.86,1267.971l-6.045,3.49-3.255,1.879-1.475.862v0a3.438,3.438,0,0,0-1.637,2.82,1.334,1.334,0,0,0,.262.876h0v0a.481.481,0,0,1,.464.268l2.785,1.606v-.01a1.362,1.362,0,0,1-.264-.881,3.658,3.658,0,0,1,1.628-2.837h0l1.482-.838.012.007,3.255-1.879,6.045-3.49Z" transform="translate(-425.345 -1235.533)" fill="#fccf11"/>
    <path id="Path_1078" data-name="Path 1078" d="M370.432,1273.516a3.658,3.658,0,0,1,1.628-2.837h0l1.484-.839-3.245-1.871-1.475.862v0a3.438,3.438,0,0,0-1.637,2.82,1.333,1.333,0,0,0,.262.876h0v0c.219.038.289.144.464.268l2.785,1.606v-.01A1.362,1.362,0,0,1,370.432,1273.516Z" transform="translate(-365.385 -1235.532)" fill="#fccf11"/>
    <path id="Path_1079" data-name="Path 1079" d="M427.347,1196.015h0a1.259,1.259,0,0,0-1.059-.145l0,.006-.018.014a.786.786,0,0,0-.136.08l-3.108,1.794h.005a1.2,1.2,0,0,1,1.062.156h0l3.846,2.208,3.255-1.879Z" transform="translate(-413.724 -1173.061)" fill="#99746c"/>
    <path id="Path_1080" data-name="Path 1080" d="M503.708,1160.142l-3.255-1.879-3.846-2.234h0a1.258,1.258,0,0,0-1.059-.144l0,.006-.018.014a.757.757,0,0,0-.136.08l-3.108,1.794h.005a1.2,1.2,0,0,1,1.062.155h0l3.846,2.208,3.255,1.879,6.045,3.49,3.255-1.879Z" transform="translate(-473.683 -1138.444)" fill="#99746c"/>
    <path id="Path_1081" data-name="Path 1081" d="M565.865,1116.042h0a1.259,1.259,0,0,0-1.059-.144l0,.006-.018.014a.773.773,0,0,0-.136.08l-3.108,1.794h.005a1.2,1.2,0,0,1,1.062.156h0l3.846,2.208,3.255-1.88Z" transform="translate(-533.641 -1103.826)" fill="#99746c"/>
    <path id="Path_1082" data-name="Path 1082" d="M642.226,1080.169l-3.255-1.879-3.847-2.234h0a1.259,1.259,0,0,0-1.059-.144l0,.006-.018.014a.774.774,0,0,0-.136.08L630.8,1077.8h0a1.2,1.2,0,0,1,1.063.155h0l3.846,2.208,3.255,1.879,6.045,3.49,3.255-1.879Z" transform="translate(-593.6 -1069.209)" fill="#99746c"/>
    <path id="Path_1083" data-name="Path 1083" d="M704.383,1036.069h0a1.26,1.26,0,0,0-1.059-.144l0,.006-.018.014a.779.779,0,0,0-.136.08l-3.107,1.794h.005a1.2,1.2,0,0,1,1.062.156h0l3.846,2.208,3.255-1.88Z" transform="translate(-653.559 -1034.592)" fill="#99746c"/>
    <path id="Path_1084" data-name="Path 1084" d="M365.191,1240.115l-3.255-1.879L358.089,1236h0a1.259,1.259,0,0,0-1.059-.144l0,.006-.018.014a.774.774,0,0,0-.136.08l-3.107,1.794h0a1.2,1.2,0,0,1,1.062.156h0l3.846,2.208,3.255,1.879,6.045,3.49,3.255-1.879Z" transform="translate(-353.766 -1207.678)" fill="#99746c"/>
    <path id="Path_1085" data-name="Path 1085" d="M367.2,1293.8c-.006.073-.01.144-.01.215a1.333,1.333,0,0,0,.262.876h0v0l.011.011.438.253.014,0,2.785,1.606v-.01a1.362,1.362,0,0,1-.264-.881c0-.067,0-.136.009-.205Z" transform="translate(-365.385 -1257.896)" fill="#fccf11"/>
    <path id="Path_1086" data-name="Path 1086" d="M436.458,1333.79c-.006.073-.01.144-.01.215a1.334,1.334,0,0,0,.262.876h0v0l.012.011.438.253.014,0,2.785,1.606v-.01a1.361,1.361,0,0,1-.264-.88c0-.068,0-.136.009-.205Z" transform="translate(-425.345 -1292.514)" fill="#fccf11"/>
    <path id="Path_1087" data-name="Path 1087" d="M505.718,1373.778c-.006.073-.01.144-.01.215a1.335,1.335,0,0,0,.262.876h0l.012.011.438.253.014,0,2.785,1.606v-.01a1.362,1.362,0,0,1-.264-.881c0-.068,0-.136.009-.2Z" transform="translate(-485.305 -1327.133)" fill="#fccf11"/>
    <g id="Group_862" data-name="Group 862" transform="translate(39.407 52.489)">
      <path id="Path_1088" data-name="Path 1088" d="M650.941,1417.46c0-.055.014-.112.01-.168l-3.238,1.88h0c0,.057-.01.113-.01.168a1.157,1.157,0,0,1-.468,1.042l3.225-1.864.015-.01.021-.013v0A1.161,1.161,0,0,0,650.941,1417.46Z" transform="translate(-647.234 -1417.292)" fill="#fccf11"/>
    </g>
    <g id="Group_863" data-name="Group 863" transform="translate(48.708 47.119)">
      <path id="Path_1089" data-name="Path 1089" d="M720.2,1377.473c0-.056.014-.112.01-.168l-3.238,1.88h0c0,.057-.01.113-.01.168a1.158,1.158,0,0,1-.468,1.042l3.225-1.863.015-.01.021-.012v0A1.161,1.161,0,0,0,720.2,1377.473Z" transform="translate(-716.493 -1377.305)" fill="#fccf11"/>
    </g>
    <g id="Group_864" data-name="Group 864" transform="translate(58.008 41.75)">
      <path id="Path_1090" data-name="Path 1090" d="M789.459,1337.487c0-.055.014-.112.01-.168l-3.238,1.879h0c0,.057-.01.113-.01.168a1.157,1.157,0,0,1-.468,1.042l3.225-1.863.015-.01.02-.013v0A1.162,1.162,0,0,0,789.459,1337.487Z" transform="translate(-785.752 -1337.319)" fill="#fccf11"/>
    </g>
    <g id="Group_865" data-name="Group 865" transform="translate(67.308 36.38)">
      <path id="Path_1091" data-name="Path 1091" d="M858.718,1297.5c0-.055.014-.112.01-.168l-3.238,1.88h0c0,.057-.01.113-.01.168a1.158,1.158,0,0,1-.468,1.042l3.225-1.864.015-.01.02-.012v0A1.161,1.161,0,0,0,858.718,1297.5Z" transform="translate(-855.011 -1297.332)" fill="#fccf11"/>
    </g>
    <g id="Group_866" data-name="Group 866" transform="translate(76.608 31.011)">
      <path id="Path_1092" data-name="Path 1092" d="M927.977,1257.514c0-.055.014-.112.01-.168l-3.238,1.88h0c0,.057-.01.113-.01.168a1.158,1.158,0,0,1-.468,1.042l3.225-1.864.015-.01.021-.012v0A1.162,1.162,0,0,0,927.977,1257.514Z" transform="translate(-924.27 -1257.346)" fill="#fccf11"/>
    </g>
    <g id="Group_867" data-name="Group 867" transform="translate(85.908 25.641)">
      <path id="Path_1093" data-name="Path 1093" d="M997.235,1217.527c0-.055.014-.112.01-.168l-3.238,1.88h0c0,.057-.01.113-.01.168a1.157,1.157,0,0,1-.468,1.042l3.225-1.863.015-.01.021-.012v0A1.162,1.162,0,0,0,997.235,1217.527Z" transform="translate(-993.528 -1217.359)" fill="#fccf11"/>
    </g>
    <path id="Path_1094" data-name="Path 1094" d="M587.312,1347.946l-6.045,3.49-3.255,1.879,1.116.644-1.127-.646-1.486.864v0a3.492,3.492,0,0,0-1.626,2.82,1.334,1.334,0,0,0,.267.876l0,0h0a.945.945,0,0,1,.464.268l1.8,1.037.728-.424a3.718,3.718,0,0,1,1.623-2.742h0l1.478-.831.016.01,3.255-1.879,6.045-3.49Z" transform="translate(-545.196 -1304.769)" fill="#fccf11"/>
    <path id="Path_1095" data-name="Path 1095" d="M574.979,1413.765c-.006.073-.01.144-.01.215a1.335,1.335,0,0,0,.262.876h0l.012.012.438.253.014,0,1.8,1.037.726-.419s0-.071.007-.107Z" transform="translate(-545.265 -1361.75)" fill="#fccf11"/>
  </g>
  <g id="box" transform="translate(28.401 108.759)">
    <path id="Path_1096" data-name="Path 1096" d="M940.112,1102.491l-9.672,5.584v-18.041l9.672-5.584Z" transform="translate(-853.71 -1057.882)" fill="#ffb86c"/>
    <path id="Path_1097" data-name="Path 1097" d="M635.364,908.5l-9.673,5.584,40.922,23.626,9.673-5.584Z" transform="translate(-589.884 -905.562)" fill="#ffc56b"/>
    <path id="Path_1098" data-name="Path 1098" d="M958.605,1101.928v5.521l.443.488.6-1.093.614.389.447-1v-5.521Z" transform="translate(-878.094 -1071.96)" fill="#b0885f"/>
    <path id="Path_1099" data-name="Path 1099" d="M963.75,1199.385l4.145-2.393v-2.846l-4.145,2.393Z" transform="translate(-882.548 -1152.848)" fill="#b0885f"/>
    <path id="Path_1100" data-name="Path 1100" d="M720.872,962.239l-2.108,1.217-37.2-21.479,2.108-1.217Z" transform="translate(-638.253 -933.487)" fill="#e9a969"/>
    <path id="Path_1101" data-name="Path 1101" d="M800.056,1074.854l-21.3,12.3V1112.6l21.3-12.3Z" transform="translate(-722.397 -1049.575)" fill="#bf8a51"/>
    <path id="Path_1102" data-name="Path 1102" d="M467.084,986.481v25.451l41.852,24.163v-25.451Z" transform="translate(-452.575 -973.068)" fill="#ffc689"/>
    <path id="Path_1103" data-name="Path 1103" d="M375.871,1082.049l37.2,21.479-16.834,9.719-37.2-21.479Z" transform="translate(-359.037 -1055.804)" fill="#ffc56b"/>
    <path id="Path_1104" data-name="Path 1104" d="M636.08,1265.68l16.834-9.719V1242l-16.834,9.719Z" transform="translate(-598.878 -1194.276)" fill="#ffb86c"/>
    <path id="Path_1105" data-name="Path 1105" d="M359.037,1154.427v13.961l37.2,21.479v-13.961Z" transform="translate(-359.037 -1118.463)" fill="#ffde92"/>
    <path id="Path_1106" data-name="Path 1106" d="M475.29,886.6l-22.6,13.049L497.1,925.29l22.6-13.049Z" transform="translate(-440.113 -886.598)" fill="#796958"/>
    <path id="Path_1107" data-name="Path 1107" d="M452.688,983.776V987L497.1,1012.64v-3.222Z" transform="translate(-440.113 -970.727)" fill="#b69d83"/>
    <path id="Path_1108" data-name="Path 1108" d="M806.045,1080.781l-22.6,13.049v-3.222l22.6-13.049Z" transform="translate(-726.453 -1051.917)" fill="#d1ae89"/>
    <path id="Path_1109" data-name="Path 1109" d="M833.837,1149.351c0-.625-.439-.879-.981-.566l-7.06,4.076a2.168,2.168,0,0,0-.981,1.7v.742c0,.625.439.879.981.566l7.06-4.076a2.167,2.167,0,0,0,.981-1.7Z" transform="translate(-762.27 -1113.461)" fill="#3b342c"/>
    <path id="Path_1110" data-name="Path 1110" d="M832.946,1148.762c0,.025-.021.05-.021.076v.742a2.161,2.161,0,0,1-.974,1.7l-7.057,4.076-.059.031c.035.568.459.789.978.49l7.079-4.076a2.188,2.188,0,0,0,1-1.7v-.742A.6.6,0,0,0,832.946,1148.762Z" transform="translate(-762.287 -1113.47)" fill="#e9a969"/>
    <path id="Path_1111" data-name="Path 1111" d="M690.912,1274.875v5.521l.443.488.6-1.093.614.389.447-1v-5.521Z" transform="translate(-646.347 -1221.682)" fill="#b0885f"/>
    <path id="Path_1112" data-name="Path 1112" d="M722.722,1326.547l4.145-2.393v-2.846l-4.145,2.393Z" transform="translate(-673.886 -1262.934)" fill="#b0885f"/>
    <path id="Path_1113" data-name="Path 1113" d="M453.178,1135.185l-2.108,1.217-37.2-21.479,2.108-1.217Z" transform="translate(-406.506 -1083.21)" fill="#e9a969"/>
    <path id="Path_1114" data-name="Path 1114" d="M411.668,1048.493l27.9,16.109,13.207-7.625-27.9-16.109Z" transform="translate(-404.6 -1020.152)" fill="#ffc56b"/>
    <path id="Path_1115" data-name="Path 1115" d="M439.569,1113.76v8.913l-27.9-16.109v-8.913Z" transform="translate(-404.6 -1069.31)" fill="#ffde92"/>
    <path id="Path_1116" data-name="Path 1116" d="M619.451,1168.456l13.207-7.625v8.913l-13.207,7.625Z" transform="translate(-584.482 -1124.007)" fill="#ffb86c"/>
    <path id="Path_1117" data-name="Path 1117" d="M543.736,1218.605l-3.368-1.9L537,1214.8v2.08l3.349,1.9,3.361,1.9,3.361,1.9v-2.08Z" transform="translate(-513.103 -1170.727)" fill="#e9a969"/>
    <path id="Path_1118" data-name="Path 1118" d="M660.314,1186.059V1189l.482.466.623-1.1.6.4.433-.994v-2.943Z" transform="translate(-619.858 -1144.778)" fill="#b0885f"/>
    <path id="Path_1119" data-name="Path 1119" d="M482.677,1081.1l-2.108,1.217-27.88-16.1,2.087-1.229Z" transform="translate(-440.113 -1041.039)" fill="#e9a969"/>
    <path id="Path_1120" data-name="Path 1120" d="M458.846,945.871l-7.011-1.394a.323.323,0,0,0-.213.031l-12.378,6.524-12.41,5.237a.324.324,0,0,0-.06.033L412.36,966.443l-9.213,5.808-.464-11.345,7.385-14.02,9.4-6.724,12.377-6.523,8.87,1.764-1.736-1-7.121-1.416a.322.322,0,0,0-.213.031l-12.4,6.536-.01-.015-.106.076-11.114,5.858a.319.319,0,0,0-.093.073l-10.7,12.292a.324.324,0,0,0-.058.1l-3.674,9.583a.3.3,0,0,0-.012.039l-4.039,16.583a.322.322,0,0,0,.524.319l12.723-11.067,6.732,22.374a.3.3,0,0,0,.308.2h.009a.289.289,0,0,0,.3-.212l4.034-16.545,3.646-9.5,10.628-12.2,23.476-12.372,8.761,1.743ZM394.1,967.728l3.646-9.511,10.628-12.2,6.887-3.63-5.626,4.023a.325.325,0,0,0-.1.112l-7.461,14.164a.32.32,0,0,0-.037.163l.484,11.833L390.3,983.307Zm33.9-10.765a.324.324,0,0,0-.093.073l-10.7,12.292a.319.319,0,0,0-.058.1l-3.674,9.583a.314.314,0,0,0-.012.039l-3.759,15.432-6.464-21.515,9.483-5.979.014-.009,14.393-10.126,5.471-2.309Z" transform="translate(-385.346 -926.752)" fill="#453936"/>
  </g>
  <g id="man" transform="translate(76.797)">
    <g id="Group_869" data-name="Group 869" transform="translate(39.746 117.823)">
      <path id="Path_1121" data-name="Path 1121" d="M1017.261,1007.465a1.349,1.349,0,0,0,.078,1.671,2.32,2.32,0,0,0,2.864.573c.859-.489,3.225,2.17,3.741,2.327s2.466-2.938,2.948-3.2,1.207-.472,1.383-.773c.958-1.638,5.148-4.482,6.334-5.192s.969.1,2.269-1.194,1.389-1.678,1.527-1.99a2.381,2.381,0,0,0-.038-1.79c-.289-.749.375.75.758.874s.794,1.764.483,2.023.02.659.05.8a1.829,1.829,0,0,1-.594,1.14c-.42.37-1.128,1.181-1.469,1.395s-.853.829-1.176.7a1.7,1.7,0,0,0-1.039.081,5.9,5.9,0,0,0-3.463,1.651,9.241,9.241,0,0,0-2.382,2.416c-.042.25-.146.482-.168.706a10.364,10.364,0,0,1-1.974,2.482,8.309,8.309,0,0,1-4.948,2.212,12.832,12.832,0,0,1-5.321-.621c-.6-.317-1.326-.569-1.584-1.665a3.416,3.416,0,0,1,.242-2.309A5.385,5.385,0,0,1,1017.261,1007.465Z" transform="translate(-1015.432 -991.833)" fill="#333336"/>
      <path id="Path_1122" data-name="Path 1122" d="M1064.872,956.184c-.25-.489-.608-1.346-.885-1.8s-.334-.326-.628.078.255,1.071.357,1.892.781,2.55-1.174,2.988a12.891,12.891,0,0,1-4.654.368c-1.029-.191-1.417.347-2.311,2.075s-2.459,4.128-2.662,4.667.36.7.175,1.191a2.584,2.584,0,0,1-.868,1.155,2.266,2.266,0,0,1-1.662.454c-.248-.046-1.358-.44-1.358-.919a1.433,1.433,0,0,1,.349-.944c.688-.679,1.08-.384,1.329-.746a4.26,4.26,0,0,1,.993-1.036,20.425,20.425,0,0,0,2.087-2.74c.378-.506,1.934-3.382,1.934-3.382s.1-.122-.178-.254-.371.267-.408.418-1.5,2.6-1.5,2.6l-1.3,1.953s-.895,1.085-1.026,1.211-1.352,1.1-1.352,1.1l-.642.669a1.525,1.525,0,0,0-.139.145,13.987,13.987,0,0,0-1.025,1.349c-.189.327,2.515,1.414,2.952,1.38s1.291-.374,2.5-1.826c1.233-1.476,3.8-5.525,3.8-5.525s.133-1.986,2.855-1.2c1.779.515,2.521.529,2.912-.041.771-1.125.994-.752,1.724-2.942A2.516,2.516,0,0,0,1064.872,956.184Z" transform="translate(-1043.899 -954.094)" fill="#c3ad81"/>
      <path id="Path_1123" data-name="Path 1123" d="M1156.3,991.1c1.186-.711.969.1,2.269-1.194s1.389-1.678,1.527-1.99a2.373,2.373,0,0,0-.03-1.768l-.025-.036s-.228-.679-.323-1.054a2.987,2.987,0,0,0-.549-.968l-.269.107a12.806,12.806,0,0,1-.429,1.683,25.509,25.509,0,0,1-1.915,3.435c-.18.231-.138,1.463-.47,1.847a.344.344,0,0,0-.089.163A2.326,2.326,0,0,1,1156.3,991.1Z" transform="translate(-1137.118 -980.061)" fill="#c3ad81"/>
      <path id="Path_1124" data-name="Path 1124" d="M1061.617,988.343s-1.555,2.876-1.934,3.382a20.414,20.414,0,0,1-2.087,2.74,4.257,4.257,0,0,0-.993,1.036c-.249.362-.641.067-1.329.746a1.433,1.433,0,0,0-.349.944c0,.48,1.11.873,1.358.919a2.265,2.265,0,0,0,1.662-.454,2.585,2.585,0,0,0,.868-1.155c.185-.489-.378-.652-.175-1.191s1.768-2.939,2.662-4.667,1.283-2.266,2.311-2.075a5.049,5.049,0,0,0,.544.067c-.084-.136-.174-.278-.269-.42-.422-.634-1.78-.784-1.78-.784l-.64.673C1061.7,988.23,1061.617,988.343,1061.617,988.343Z" transform="translate(-1049.623 -982.954)" fill="#888"/>
      <g id="Group_868" data-name="Group 868" transform="translate(1.591 1.8)">
        <path id="Path_1125" data-name="Path 1125" d="M1027.515,981.329a1.349,1.349,0,0,0,.078,1.671,2.32,2.32,0,0,0,2.864.573c.859-.489,3.225,2.17,3.741,2.327s2.466-2.938,2.948-3.2,1.207-.472,1.383-.773c.892-1.525,4.585-4.095,6.048-5.015a.427.427,0,0,1,.074-.114c.332-.385.29-1.616.47-1.847a25.52,25.52,0,0,0,1.915-3.435,12.828,12.828,0,0,0,.429-1.683l.268-.107a14.413,14.413,0,0,0-1.215-2.228c.05.105.1.2.142.29a2.515,2.515,0,0,1,.2,2.346c-.73,2.19-.953,1.817-1.724,2.942-.391.571-1.133.556-2.912.041-2.721-.787-2.855,1.2-2.855,1.2s-2.568,4.049-3.8,5.525c-1.213,1.452-2.066,1.793-2.5,1.826s-3.141-1.054-2.952-1.38a14.029,14.029,0,0,1,1.025-1.349,1.526,1.526,0,0,1,.139-.145l.642-.669s1.221-.978,1.352-1.1,1.026-1.211,1.026-1.211l1.3-1.953s1.461-2.451,1.5-2.6c.008-.034.02-.08.035-.13,0,0-.234-.266-.375-.151-.2.164-1.393,2.195-1.393,2.195l-2.453,3.5-3.61,2.952-1.784,1.714Z" transform="translate(-1027.277 -967.497)" fill="#af9257"/>
      </g>
    </g>
    <g id="Group_870" data-name="Group 870" transform="translate(36.269 54.489)">
      <path id="Path_1126" data-name="Path 1126" d="M1009.175,528.952c-1.205-3.313-2.119-5.774-2.224-5.914l15.379-14.172,4.038-.6,2.577-5.5c-1.291-4.578-5.594-21.546-10.172-20.255s-29.238,33.048-29.238,38.03c0,3.263,1.478,7.631,4.017,13.541.21.489,3.139,1.45,3.353,1.936Z" transform="translate(-989.536 -482.444)" fill="#003a52"/>
    </g>
    <g id="Group_871" data-name="Group 871" transform="translate(36.269 55.687)">
      <path id="Path_1127" data-name="Path 1127" d="M1005.553,538.765c-2.154-5.688-4.061-10.671-4.2-10.861l19.329-15.222a9.126,9.126,0,0,0,4.077.507c.95-.162,1.686.139,3.043,0l1.146-2.7c-.778-2.759-2.65-10.019-5.017-15.07l-1.931-.447c-.325-.075-1.467-.168-2.86-.25a14.965,14.965,0,0,0-2.155-3.36c-7.214,5.909-27.447,32.389-27.447,36.9,0,3.343,1.4,7.492,4.017,13.541a22.321,22.321,0,0,0,3.353,1.936Z" transform="translate(-989.536 -491.368)" fill="#004053"/>
    </g>
    <g id="Group_873" data-name="Group 873" transform="translate(0 73.483)">
      <path id="Path_1128" data-name="Path 1128" d="M778.868,772.377l-.7-.571a1.882,1.882,0,0,0-.152.5.685.685,0,0,0,.594.809.479.479,0,0,0,.263-.11Z" transform="translate(-770.141 -751.944)" fill="#ffb88e"/>
      <g id="Group_872" data-name="Group 872">
        <path id="Path_1129" data-name="Path 1129" d="M741.725,740.725l-1.586-.918s-.03.254-.047.542Z" transform="translate(-737.319 -724.242)" fill="#bf8a6b"/>
        <path id="Path_1130" data-name="Path 1130" d="M731.322,735.923l.071-.58-1.046-.609s-.146.508-.213.916Z" transform="translate(-728.698 -719.85)" fill="#bf8a6b"/>
        <path id="Path_1131" data-name="Path 1131" d="M721.946,730.739l.115.005.121-1-1.034-.61a5.022,5.022,0,0,0-.12,1.393Z" transform="translate(-720.788 -715.003)" fill="#bf8a6b"/>
        <path id="Path_1132" data-name="Path 1132" d="M725.787,630.132s-3.623,3.358-4.33,4.279a14.35,14.35,0,0,0-1.638,2.688c-.138.465-.688,1.924-.14,2.316l.293.067c.694-.168,1.219-2.6,1.879-3.072.191-.137.835-.7,1.332-1.135a11.972,11.972,0,0,0-1.11,1.139c-1.02,1.256-.763.914-1.09,1.634a3.871,3.871,0,0,0-.476,1.558l1.187.273c.391-.495.73-1.375,1.175-1.873.264-.3,2.088-1.638,2.088-1.638a29.937,29.937,0,0,0-2.264,1.979,2.492,2.492,0,0,0-.34.591,5.581,5.581,0,0,0-.419,1l1.586.365a1.849,1.849,0,0,1,.375-.491c.438-.368,2.329-1.866,2.329-1.866a30.713,30.713,0,0,0-2.322,2.408,15.259,15.259,0,0,0-1.594,3.686c-.168.587-1.072,1.348.135,1.58.889.171,2.074-2.864,3.268-4.235.084-.1.181-.2.285-.306h0l.107-.107,0,0,.111-.108,0,0,.118-.111h0c.857-.8,2.039-1.728,2.629-2.179l0,0,.07-.054.015-.011.058-.044.015-.011.048-.036.016-.012.038-.029.014-.011.03-.023.008-.006.023-.017.007-.005.019-.014.176.794a4.911,4.911,0,0,0,.772.447l1.912.148q.036-.093.065-.182c.445-1.363.1-4.253.55-5.614.422-1.279,3.294-4.264,3.294-4.264l-4.613-5.723-4.3,4.922Z" transform="translate(-719.44 -623.891)" fill="#ffb88e"/>
      </g>
    </g>
    <path id="Path_1133" data-name="Path 1133" d="M780.816,359.753c-1.387-3.186-3.559-4.465-6.8-3.457l14.6-17.555s-.421-21.241,1.413-24.249c2.407-3.948,9.927-5.54,12.673-3.49a259.638,259.638,0,0,0-.828,29.6c.11,3.967-13.658,15.738-21.041,22.194C781.218,361.369,781.452,361.214,780.816,359.753Z" transform="translate(-766.686 -278.758)" fill="#fad01d"/>
    <path id="Path_1134" data-name="Path 1134" d="M845.762,325.227c-1.4-1.046-3.5-1.018-5.614-.479-1.762,1.293.8,13.9,1.55,28.483.2,3.963-9.547,12.616-16.93,19.072h0c.546,1.307.315,1.505-.056,2.876h0c7.093-6.2,20.077-17.309,20.989-21.69a3.677,3.677,0,0,0,.052-.5C845.292,336.325,845.762,325.227,845.762,325.227Z" transform="translate(-810.576 -291.117)" fill="#aabbd3"/>
    <g id="Group_876" data-name="Group 876" transform="translate(34.417 95.399)">
      <g id="Group_874" data-name="Group 874" transform="translate(0 13.209)">
        <path id="Path_1135" data-name="Path 1135" d="M976.418,885.5l-.356-.026h0l-.041,0a2.544,2.544,0,0,0-.249,1.31.685.685,0,0,0,.99.161,2.664,2.664,0,0,0,.412-.346Z" transform="translate(-975.741 -885.468)" fill="#ffb88e"/>
      </g>
      <path id="Path_1136" data-name="Path 1136" d="M1018.494,901.092l-1.022-.582s-.3.892-.118.983c.239.117,1.178.531,1.3.193a.65.65,0,0,0,.042-.479Z" transform="translate(-1011.714 -885.281)" fill="#bf8a6b"/>
      <path id="Path_1137" data-name="Path 1137" d="M1007.743,894.514a1.606,1.606,0,0,0-.038.92c.154.15,1.135.07,1.135.07l-.025-.371Z" transform="translate(-1003.367 -880.091)" fill="#bf8a6b"/>
      <path id="Path_1138" data-name="Path 1138" d="M1027.69,906.57c.239.117.935.554,1.32.392.141-.059.246-.366.246-.366l-1.857-1.072S1027.507,906.48,1027.69,906.57Z" transform="translate(-1020.462 -889.622)" fill="#bf8a6b"/>
      <g id="Group_875" data-name="Group 875" transform="translate(0.742)">
        <path id="Path_1139" data-name="Path 1139" d="M990.483,787.1s-.97,4.806-1.917,5.764c-1.008,1.02-3.158,1.755-4.169,2.772a3.821,3.821,0,0,0-1,1.551,13.69,13.69,0,0,1-.962,2.4,14.353,14.353,0,0,0-.889,3.808c-.059.607-.81,1.52.42,1.529.905.007.977-2.9,1.825-4.511.439-.832,1.016-1.759,1.016-1.759a15.718,15.718,0,0,0-.251,2.421c.1.878.017,1.346.422,1.408.52.08.768-.182.742-.482a4.945,4.945,0,0,1,.048-1.212,7.578,7.578,0,0,0,.685-1.693c-.111.607-.44,1.882-.456,2.193-.054,1.043-.459,1.539.081,1.957a.657.657,0,0,0,1.034-.442,5.148,5.148,0,0,1,.191-1.158c.379-.868.859-2.054.859-2.054s-.4,1.447-.537,1.821c-.17.471-.581,2.34.243,2.7.443.193.876-.255.965-1.642.085-1.313.359-1.163.832-2.158.5-1.048,4.241-2.849,4.687-4.068a14.31,14.31,0,0,0,.4-1.862l3.435-5.667Z" transform="translate(-981.266 -787.103)" fill="#ffb88e"/>
      </g>
    </g>
    <g id="Group_877" data-name="Group 877" transform="translate(66.063 145.745)">
      <path id="Path_1140" data-name="Path 1140" d="M1223.719,1189.6s-.416,1.56.079,2.017a.61.61,0,0,0,.123.082h0c.409.181,3.24-.13,4.2-.032h.011a15.718,15.718,0,0,1,2.973,1.011l.116.047.253.1c.182.073.328.128.419.156.209.064.7-.2,1.236-.549l.125-.083c.126-.084.253-.171.38-.26.168-.118.335-.238.493-.352l.23-.166.152-.11c.135-.1.256-.184.358-.254s.175-.117.231-.147a1.168,1.168,0,0,1,.358-.122c.058-.01.116-.017.172-.022.28-.024.522,0,.663-.169l.027-.035h0l.044-.057h0l.059-.078,0,0,.278-.369c.143-.19.316-.42.512-.678l0,0a48.924,48.924,0,0,1,3.612-4.366l0,0q.075-.073.145-.138l0,0c.047-.043.092-.084.136-.121h0a.344.344,0,0,1,.089-.163c.332-.385.29-1.617.47-1.847a25.508,25.508,0,0,0,1.915-3.435,12.8,12.8,0,0,0,.429-1.683l.269-.107a14.427,14.427,0,0,0-1.215-2.228c.05.105.1.2.142.29a2.516,2.516,0,0,1,.2,2.346c-.73,2.189-.954,1.817-1.724,2.942-.391.571-1.133.556-2.912.041-2.721-.788-2.855,1.2-2.855,1.2s-2.568,4.049-3.8,5.525c-1.213,1.452-2.066,1.793-2.5,1.826s-3.141-1.054-2.952-1.381a14,14,0,0,1,1.025-1.349,1.5,1.5,0,0,1,.139-.145l.642-.669s1.221-.978,1.352-1.1,1.026-1.212,1.026-1.212l1.3-1.953s1.461-2.451,1.5-2.6c.008-.034.02-.08.035-.13,0,0-.234-.266-.375-.15-.2.164-1.393,2.2-1.393,2.2l-2.453,3.5-3.61,2.952-2.135,2.052Z" transform="translate(-1221.925 -1173.634)" fill="#af9257"/>
      <path id="Path_1141" data-name="Path 1141" d="M1213.205,1215.739s-.479,1.8.2,2.1c.411.181,3.261-.133,4.211-.031a26.948,26.948,0,0,1,3.761,1.316c.516.157,2.722-1.66,3.2-1.921s.969-.046,1.193-.313,3.942-5.371,5.128-6.082.969.1,2.269-1.194,1.389-1.678,1.527-1.99a2.381,2.381,0,0,0-.038-1.791c-.289-.748.375.75.758.874s.794,1.764.483,2.023.02.659.05.8a1.827,1.827,0,0,1-.594,1.14c-.42.371-1.128,1.181-1.469,1.4s-.853.828-1.176.7-.475-.272-.758-.188-1.383.208-3.015,2.273-1.906,2.221-1.949,2.471.087.5.066.727a12.842,12.842,0,0,1-2.4,2.16,13.218,13.218,0,0,1-5.915,2.1c-2.854.108-4.933-.008-5.536-.326a2.645,2.645,0,0,1-1.584-1.826c-.258-1.1-.348-1.752.141-2.351S1213.205,1215.739,1213.205,1215.739Z" transform="translate(-1211.411 -1199.77)" fill="#333336"/>
      <path id="Path_1142" data-name="Path 1142" d="M1263.211,1164.12c-.249-.489-.608-1.346-.885-1.8s-.334-.326-.628.078.255,1.071.357,1.892.781,2.55-1.174,2.988a12.9,12.9,0,0,1-4.655.368c-1.028-.191-1.417.347-2.311,2.075s-2.459,4.128-2.662,4.667.36.7.175,1.191a2.585,2.585,0,0,1-.868,1.155,2.267,2.267,0,0,1-1.662.454c-.248-.046-1.358-.44-1.358-.919a1.432,1.432,0,0,1,.349-.944c.688-.679,1.08-.384,1.329-.746a4.257,4.257,0,0,1,.993-1.036,20.431,20.431,0,0,0,2.087-2.74c.378-.507,1.934-3.382,1.934-3.382s.1-.122-.178-.254-.371.266-.408.418-1.5,2.6-1.5,2.6l-1.3,1.953s-.9,1.085-1.026,1.212-1.352,1.1-1.352,1.1l-.642.669a1.526,1.526,0,0,0-.139.145,14.059,14.059,0,0,0-1.025,1.349c-.189.327,2.515,1.414,2.952,1.38s1.291-.374,2.5-1.826c1.232-1.476,3.8-5.525,3.8-5.525s.133-1.986,2.855-1.2c1.779.515,2.521.53,2.912-.041.771-1.125.994-.752,1.724-2.942A2.516,2.516,0,0,0,1263.211,1164.12Z" transform="translate(-1241.921 -1162.03)" fill="#c3ad81"/>
      <path id="Path_1143" data-name="Path 1143" d="M1354.635,1199.035c1.186-.711.969.1,2.269-1.194s1.389-1.678,1.527-1.99a2.373,2.373,0,0,0-.03-1.768l-.025-.036s-.228-.679-.323-1.054a2.986,2.986,0,0,0-.549-.967l-.269.107a12.828,12.828,0,0,1-.429,1.683,25.52,25.52,0,0,1-1.915,3.435c-.18.231-.138,1.463-.47,1.847a.344.344,0,0,0-.089.163A2.311,2.311,0,0,1,1354.635,1199.035Z" transform="translate(-1335.141 -1187.998)" fill="#c3ad81"/>
      <path id="Path_1144" data-name="Path 1144" d="M1259.956,1196.28s-1.555,2.876-1.934,3.382a20.4,20.4,0,0,1-2.087,2.74,4.26,4.26,0,0,0-.993,1.036c-.249.362-.641.067-1.329.746a1.434,1.434,0,0,0-.349.944c0,.48,1.11.874,1.358.92a2.267,2.267,0,0,0,1.662-.454,2.584,2.584,0,0,0,.868-1.155c.185-.488-.378-.651-.175-1.191s1.768-2.939,2.662-4.667,1.283-2.266,2.311-2.075a5.007,5.007,0,0,0,.544.067c-.084-.135-.175-.277-.269-.419-.422-.634-1.78-.784-1.78-.784l-.64.673C1260.044,1196.167,1259.956,1196.28,1259.956,1196.28Z" transform="translate(-1247.645 -1190.891)" fill="#888"/>
    </g>
    <g id="Group_878" data-name="Group 878" transform="translate(67.413 54.2)">
      <path id="Path_1145" data-name="Path 1145" d="M1243.735,574.515s-6.216-42.564-6.417-43.085c0,0,10.286-24.728,11.554-33.063.313-2.058,2.787-19.358-14.162-18-4.741.38-9.123,6.274-9.123,11.03l.347,6.552c0,1.061-2.266,11.19-1.884,12.18l-2.587,23.631,7.981,43.248C1233.389,579.4,1242,577.789,1243.735,574.515Z" transform="translate(-1221.463 -480.292)" fill="#004359"/>
    </g>
    <path id="Path_1146" data-name="Path 1146" d="M1236.154,480.3c-.646-.006-1.325.017-2.038.074-4.741.38-9.123,6.274-9.123,11.03l.347,6.552c0,1.061-2.266,11.19-1.884,12.18,0,0-3.263,17.727-2.587,23.631,1.034,9.031,7.981,43.248,7.981,43.248a8.6,8.6,0,0,0,3.5,1.062c2.833-.616,5.442-2.066,6.365-3.806,0,0-7.739-43.564-7.94-44.085,0,0,12.68-23.171,13.948-31.507C1245.008,496.773,1252.283,481.538,1236.154,480.3Z" transform="translate(-1153.456 -426.097)" fill="#004e5d"/>
    <g id="Group_879" data-name="Group 879" transform="translate(23.78 28.283)">
      <path id="Path_1147" data-name="Path 1147" d="M954.2,330.174c-22.312,2.553-23.566-2.3-27.969-4.4l-17.682-6.819-9.662-9.657c-1.639-1.044-2.155-6.5-2.2-8.439a40.679,40.679,0,0,1-.072-5.58l8.075-7.1c10.3-2.823,21.616,1.828,23.588,3.049l34.45,22.73C968.558,318.691,961.389,329.351,954.2,330.174Z" transform="translate(-896.527 -287.292)" fill="#fece06"/>
    </g>
    <path id="Path_1148" data-name="Path 1148" d="M914.089,404.41s10.119,11.062,14.71,7.885c1.549-1.072,7.4-4.032,7.625-7.625.341-5.558,8.842-8.643,10.453-7.139s7.877,11.123,16.753,13.275c6.587,1.6,6.191,14.417,6.191,14.417s-18,5.58-36.762-6.448l-9.307-4.707Z" transform="translate(-887.951 -354.116)" fill="#f9d127"/>
    <path id="Path_1149" data-name="Path 1149" d="M1027.657,410.381c-1.778-1.639-3.86-3.046-6.766-1.289l9.343-25.9-10.266-27.3c-.992-3.551-1.578-5.466.785-8.079s5.732-2.554,8.89-1.223c0,0,12.245,3.854,14.151,38.768.216,3.963-9.739,19.532-15.356,27.572A3.329,3.329,0,0,0,1027.657,410.381Z" transform="translate(-978.863 -309.567)" fill="#fece06"/>
    <path id="Path_1150" data-name="Path 1150" d="M1090.32,385.763c-1.663-30.453-11.807-36.788-13.714-38.431h0a7.267,7.267,0,0,0-2.284-.956,9.755,9.755,0,0,0-1.431-.246h-.036a7.724,7.724,0,0,1,1.851,2.03s12.829,16.37,11.737,38.817c-.193,3.964-6.643,15.767-12.26,23.806a3.329,3.329,0,0,1,.781,2.552C1080.581,405.3,1090.536,389.726,1090.32,385.763Z" transform="translate(-1025.397 -309.946)" fill="#fece06"/>
    <path id="Path_1151" data-name="Path 1151" d="M1054,876.817l-5.7,3.286a1.04,1.04,0,0,1,.322.837,3.084,3.084,0,0,1-1.4,2.416.987.987,0,0,1-.974.1l.007,0-.015-.008-.01-.006-1.871-1.08-.768.443c2.8,6,5.343,10.8,5.343,10.8a13.12,13.12,0,0,0,4.809.225c2.5-1.055,4.547-2.728,4.942-4.551C1058.685,889.287,1056.425,883.252,1054,876.817Z" transform="translate(-1000.063 -769.371)" fill="#004053"/>
    <path id="Path_1152" data-name="Path 1152" d="M1109.665,861.521l-5.89,3.393,2.325-1.339c2.427,6.435,4.687,12.47,4.687,12.47-.394,1.823-2.44,3.5-4.942,4.551,4.062-.467,8.368-2.315,8.915-4.844C1114.76,875.752,1112.085,868.235,1109.665,861.521Z" transform="translate(-1052.166 -756.129)" fill="#003a52"/>
    <path id="Path_1153" data-name="Path 1153" d="M881.32,260.81l-3.018-2.745a5.665,5.665,0,0,1,.819-7.969c2.427-1.974,5.506-1.437,7.48.99l4.091,4.266.833-.167.157-.029c.273.335-.589,4.787-3.122,6.848-1.824,1.484-4.64,2.527-6.294,2C879.562,263.152,881.813,261.417,881.32,260.81Z" transform="translate(-855.87 -225.764)" fill="#ffb597"/>
    <path id="Path_1154" data-name="Path 1154" d="M905.463,261.916c.808-1.161,1.727-2.3,2.421-3.31l.018-5.74.013.008c-.009-.078-.016-.155-.025-.234a6.494,6.494,0,0,1,1.277,1.187c0,.015,0,.029,0,.044.141.145.279.3.411.459l4.091,4.266.833-.167.157-.029c.217.267-.289,3.147-1.785,5.35l-.041.008-4.091-4.266-.011-.012a12.721,12.721,0,0,1-2.3,2.482,9.329,9.329,0,0,1-2.864,1.434A15.369,15.369,0,0,0,905.463,261.916Z" transform="translate(-878.846 -229.011)" fill="#f1a587"/>
    <path id="Path_1155" data-name="Path 1155" d="M828.531,98.348c4.441-.08,12.065,1.076,12.745,9.8.289,3.715-1.9,8.354-3.739,11.216a51.47,51.47,0,0,1-3.965,5.915c-1.231,1.409-4.7,4.961-6.4,5.074s-5.344.351-6.713-.538c-1.645-1.069-2.117-3.945-2.422-5.551-.256-1.353-.83-2.562-1.005-3.994-.3-2.449,0-11.612,0-11.612s.527-4.2,2.039-6C821,100.354,822.262,98.461,828.531,98.348Z" transform="translate(-803.811 -95.433)" fill="#ffceac"/>
    <path id="Path_1156" data-name="Path 1156" d="M834.625,117.783c.342-.684,1.9-1.735,2.268-2.4.734-1.326,1.26-3.956,1.75-5.391a24.868,24.868,0,0,0,1.208-6.825,20.8,20.8,0,0,0-.987-5.457,9.948,9.948,0,0,0-2.234-3.147,8.968,8.968,0,0,0-4.274-1.319,56.328,56.328,0,0,0-9.365,0,8.135,8.135,0,0,0-3.148,1.2c-1.135.689-3.659,2.215-4.452,3.281a5.9,5.9,0,0,0-1.3,3.31c.073.773.014,1.736.769,1.915a29.7,29.7,0,0,0,4.8-.264c6.552-1.19,6.613-.81,8.591.038,1.41.6.495.446.866,1.365,1.17,2.894.749,10.587.749,10.587l1.123-.151s.538-2.555,1.322-3.115a1.736,1.736,0,0,1,2.7.736c.167.7.45,1.164-.647,2.164-.347.316.093,1.452-.193,1.938a.755.755,0,0,1-1.216.064c-.022-.03.016,1.884.016,1.884v1.635s.666.215.85.057C834.232,119.521,834.379,118.273,834.625,117.783Z" transform="translate(-801.373 -90.844)" fill="#a55a35"/>
    <path id="Path_1157" data-name="Path 1157" d="M925.715,119.269c1.17,2.894.748,10.587.748,10.587l1.123-.151s.538-2.556,1.322-3.115a1.736,1.736,0,0,1,2.7.736c.167.7.45,1.164-.647,2.164-.347.316.093,1.452-.194,1.938a.754.754,0,0,1-1.216.064c-.023-.03.016,1.884.016,1.884v1.635s.666.215.85.057c.416-.357.563-1.605.809-2.1.342-.684,1.9-1.735,2.268-2.4.734-1.326,1.26-4.127,1.75-5.561a24.867,24.867,0,0,0,1.208-6.825,19.559,19.559,0,0,0-.987-5.287,11.267,11.267,0,0,0-1.43-2.306c.128.276,2.147,5.013-8.368,7.905Z" transform="translate(-897.976 -106.033)" fill="#7c4428"/>
    <g id="mask" transform="translate(12.709 21.359)">
      <path id="Path_1158" data-name="Path 1158" d="M827.777,237.557a21.576,21.576,0,0,0-2.766-.276c-2.879,0-5.246-1.559-6.65-1.557a20.36,20.36,0,0,0-4.236.921,16.262,16.262,0,0,0,.127,3.615c.168,1.369.717,2.525.961,3.819.291,1.536.743,4.286,2.316,5.309,1.308.851,4.794.623,6.419.515s2.62-2.611,3.8-3.959C829.113,244.38,827.777,238.752,827.777,237.557Z" transform="translate(-814.082 -235.724)" fill="#dcdcde"/>
      <path id="Path_1159" data-name="Path 1159" d="M920.9,252.162a18.533,18.533,0,0,0,3.517-2.33,6.1,6.1,0,0,0,.426-.439.854.854,0,0,0,.793-.334c.286-.486-.153-1.621.193-1.938a3.461,3.461,0,0,0,.584-.656,3.213,3.213,0,0,1,.107,1.675A5.249,5.249,0,0,1,924.437,251a23.449,23.449,0,0,1-3.095,1.951,12.4,12.4,0,0,0-1.6.959l.091-1.142C920.25,252.433,920.138,252.586,920.9,252.162Z" transform="translate(-905.553 -245.022)" fill="#dcdcde"/>
      <path id="Path_1160" data-name="Path 1160" d="M918.763,243.047c.571-.3,1.064-.557,1.486-.772-.164.487-.283.949-.346,1.212l-.56.291c-.962.5-1.613.844-2.472,1.307l-.136-.956C917.788,243.56,918.015,243.442,918.763,243.047Z" transform="translate(-902.951 -241.395)" fill="#dcdcde"/>
    </g>
    <g id="Group_880" data-name="Group 880" transform="translate(12.029 0)">
      <path id="Path_1161" data-name="Path 1161" d="M809.076,90.977a17.369,17.369,0,0,1,.226-4.452,8.994,8.994,0,0,1,1.823-4.2,18.54,18.54,0,0,1,8.547-5.052c3.37-1.05,9.48-1.093,13.173,2.7a10.011,10.011,0,0,1,3.322,7.395c0,.775-.676,6.972-.952,6.993-1.137.089-.587.2-1.9-2.175-.266-.484-.718-1.491-2.541-.166s-2.6,2.1-3.812,2.375-1.815-2.652-3.914-2.486a80.966,80.966,0,0,1-8.4.552C813.164,92.3,810.236,92.082,809.076,90.977Z" transform="translate(-809.023 -76.664)" fill="#71decd"/>
      <path id="Path_1162" data-name="Path 1162" d="M884.837,119.933c-1.121-.424-3.39,1.275-5.158,3.871s-1.643,3.826-1.643,4.212,1.532.7,1.988.085c.636-.862.619-1.811,2-3.469a10.7,10.7,0,0,1,2.565-2.392C885.5,121.6,886.252,120.468,884.837,119.933Z" transform="translate(-868.768 -114.067)" fill="#71decd"/>
      <path id="Path_1163" data-name="Path 1163" d="M942.872,105.827a9.076,9.076,0,0,0-3.222.62c-1.973,1.048-4.089-.213-3-1.006a9,9,0,0,1,2.839-1.047c.9-.184,2.962-.356,3.457.435C943.374,105.519,942.872,105.827,942.872,105.827Z" transform="translate(-919.255 -100.537)" fill="#71decd"/>
      <path id="Path_1164" data-name="Path 1164" d="M901.165,86.1c-1.072.188-2.6-.027-4.243,1.352-1.711,1.437-3.68.754-2.715-.183a11.368,11.368,0,0,1,3.035-1.814c.887-.336,2.976-.98,4.244-.347C902.213,85.471,902.069,85.942,901.165,86.1Z" transform="translate(-882.548 -83.743)" fill="#71decd"/>
      <path id="Path_1165" data-name="Path 1165" d="M842.345,111.577c-1.121-.424-3.306,1.644-5.074,4.241a7.623,7.623,0,0,0-1.66,4.663c0,.387,1.8.511,2.034-.22.763-2.367.434-2.327,1.818-3.984a18.286,18.286,0,0,1,2.411-2.618C842.316,113.327,843.76,112.112,842.345,111.577Z" transform="translate(-832.04 -106.841)" fill="#71decd"/>
      <path id="Path_1166" data-name="Path 1166" d="M865.235,80.126c-1.022.373-1.932.155-3.573,1.534-1.711,1.437-3.74,1.151-2.774.214a16.246,16.246,0,0,1,3.494-1.9c.879-.37,3.263-1.337,3.75-.541C866.376,79.835,865.47,80.04,865.235,80.126Z" transform="translate(-851.976 -78.799)" fill="#71decd"/>
      <path id="Path_1167" data-name="Path 1167" d="M818.2,106.005c-.457-.247-2.98,1.364-4.3,4.212s-1.1,4.01-1.041,4.391,1.321.582,1.435-.177c.37-2.459-.062-1.688,1.036-3.548a18.256,18.256,0,0,1,1.956-2.974C817.667,107.511,819.534,106.725,818.2,106.005Z" transform="translate(-812.297 -102.044)" fill="#71decd"/>
      <path id="Path_1168" data-name="Path 1168" d="M880.018,124.822c1.768-2.6,4.037-4.3,5.158-3.871a1.9,1.9,0,0,1,.378.189c.177-.462.042-.919-.717-1.206-1.121-.424-3.39,1.275-5.158,3.871s-1.643,3.826-1.643,4.212c0,.122.152.236.374.317A8.629,8.629,0,0,1,880.018,124.822Z" transform="translate(-868.768 -114.067)" fill="#71decd"/>
      <path id="Path_1169" data-name="Path 1169" d="M936.99,106.458a9.011,9.011,0,0,1,2.839-1.047c.8-.163,2.506-.316,3.23.2a.768.768,0,0,0-.112-.783c-.494-.791-2.557-.62-3.457-.435a9,9,0,0,0-2.839,1.047c-.5.366-.32.833.216,1.125A.971.971,0,0,1,936.99,106.458Z" transform="translate(-919.257 -100.537)" fill="#71decd"/>
      <path id="Path_1170" data-name="Path 1170" d="M894.66,87.948a11.366,11.366,0,0,1,3.035-1.814c.877-.332,2.927-.963,4.2-.368.142-.2.015-.447-.406-.657-1.268-.632-3.357.011-4.244.347a11.367,11.367,0,0,0-3.035,1.814c-.452.438-.261.821.245.957A.938.938,0,0,1,894.66,87.948Z" transform="translate(-882.548 -83.743)" fill="#71decd"/>
      <path id="Path_1171" data-name="Path 1171" d="M837.724,116.5c1.768-2.6,3.953-4.665,5.074-4.241.054.02.1.042.148.064.039-.286-.106-.556-.6-.742-1.121-.424-3.306,1.644-5.074,4.241a7.623,7.623,0,0,0-1.66,4.663c0,.126.191.224.456.273A8.253,8.253,0,0,1,837.724,116.5Z" transform="translate(-832.04 -106.841)" fill="#71decd"/>
      <path id="Path_1172" data-name="Path 1172" d="M859.568,82.213a16.248,16.248,0,0,1,3.494-1.9,8.943,8.943,0,0,1,3.091-.843.322.322,0,0,0-.019-.036c-.487-.8-2.87.17-3.75.541a16.244,16.244,0,0,0-3.494,1.9c-.495.48-.2.788.429.783A.647.647,0,0,1,859.568,82.213Z" transform="translate(-851.978 -78.799)" fill="#71decd"/>
      <path id="Path_1173" data-name="Path 1173" d="M814.577,110.557a8.271,8.271,0,0,1,4.03-4.216,1.046,1.046,0,0,0-.4-.336c-.457-.247-2.98,1.364-4.3,4.212s-1.1,4.01-1.041,4.391c.031.187.348.33.678.338C813.473,114.564,813.254,113.4,814.577,110.557Z" transform="translate(-812.297 -102.044)" fill="#71decd"/>
    </g>
  </g>
</svg>
