<svg xmlns="http://www.w3.org/2000/svg" width="18.16" height="17.623" viewBox="0 0 18.16 17.623">
  <g id="Group_827" data-name="Group 827" transform="translate(-200 -179)">
    <g id="Group_826" data-name="Group 826" transform="translate(200 179)">
      <path id="Path_712" data-name="Path 712" d="M215.919,188.328h1.709a.525.525,0,0,0,.532-.516v-4.977a.524.524,0,0,0-.532-.516h-4.6v-1.143a2.243,2.243,0,0,0-4.483,0v1.143h-4.6a.524.524,0,0,0-.532.516V187.3h-1.177a2.176,2.176,0,1,0,0,4.351h1.177v4.461a.524.524,0,0,0,.532.516h5.129a.524.524,0,0,0,.532-.516v-1.659a1.178,1.178,0,0,1,2.355,0v1.659a.524.524,0,0,0,.532.516h5.129a.524.524,0,0,0,.532-.516V191.13a.524.524,0,0,0-.532-.516h-1.709a1.143,1.143,0,1,1,0-2.285Z" transform="translate(-200 -179)" fill="#fff"/>
    </g>
  </g>
</svg>
