<svg xmlns="http://www.w3.org/2000/svg" width="18.388" height="12.641" viewBox="0 0 18.388 12.641">
  <g id="Group_850" data-name="Group 850" transform="translate(-210.061 -158.17)">
    <path id="Path_729" data-name="Path 729" d="M228.449,161.15v-.969a2.011,2.011,0,0,0-2.011-2.011H212.072a2.011,2.011,0,0,0-2.011,2.011v.969a.18.18,0,0,0,.18.18h18.028A.18.18,0,0,0,228.449,161.15Z" fill="#fff"/>
    <path id="Path_730" data-name="Path 730" d="M210.061,162.659V168.8a2.011,2.011,0,0,0,2.011,2.011h14.366a2.011,2.011,0,0,0,2.011-2.011v-6.141a.181.181,0,0,0-.18-.18H210.241A.181.181,0,0,0,210.061,162.659Zm4.6,4.7a.574.574,0,0,1-.575.575h-.574a.575.575,0,0,1-.575-.575v-.574a.575.575,0,0,1,.575-.575h.574a.574.574,0,0,1,.575.575Z" fill="#fff"/>
  </g>
</svg>
