<svg xmlns="http://www.w3.org/2000/svg" width="22.523" height="18.132" viewBox="0 0 22.523 18.132">
  <g id="Group_385" data-name="Group 385" transform="translate(-225.181 -167.938)">
    <path id="Path_123" data-name="Path 123" d="M233.147,172.336c-4.4,0-7.966,3.075-7.966,6.867a6.484,6.484,0,0,0,2.662,5.121,5.243,5.243,0,0,1-1.014,1.683,4.384,4.384,0,0,0,2.994-.564,9,9,0,0,0,3.324.626c4.4,0,7.965-3.074,7.965-6.866S237.546,172.336,233.147,172.336Z" fill="#fff"/>
    <path id="Path_124" data-name="Path 124" d="M245.043,179.929a6.48,6.48,0,0,0,2.661-5.121c0-3.793-3.566-6.867-7.965-6.867a8.135,8.135,0,0,0-7.218,3.961,9.388,9.388,0,0,1,1.45-.115c4.4,0,7.965,3.074,7.965,6.867a6.057,6.057,0,0,1-.748,2.9,8.88,8.88,0,0,0,1.875-.51,4.386,4.386,0,0,0,2.993.565A5.278,5.278,0,0,1,245.043,179.929Z" fill="#fff"/>
  </g>
</svg>
