<svg xmlns="http://www.w3.org/2000/svg" width="12.895" height="25" viewBox="0 0 12.895 25">
  <g id="Group_383" data-name="Group 383" transform="translate(-27 -72)">
    <rect id="Rectangle_191" data-name="Rectangle 191" width="12.895" height="16.579" transform="translate(27 75.947)" fill="#fff"/>
    <path id="Rectangle_192" data-name="Rectangle 192" d="M1.379,0H11.515a1.379,1.379,0,0,1,1.379,1.379V3.389a.032.032,0,0,1-.032.032H.008A.008.008,0,0,1,0,3.413V1.379A1.379,1.379,0,0,1,1.379,0Z" transform="translate(27 72)" fill="#fff"/>
    <path id="Path_119" data-name="Path 119" d="M39.892,93.053H27v2.819A1.128,1.128,0,0,0,28.128,97H38.767A1.128,1.128,0,0,0,39.9,95.872V93.055Zm-6.445,3.158a1.184,1.184,0,1,1,1.185-1.185A1.185,1.185,0,0,1,33.447,96.211Z" fill="#fff"/>
  </g>
</svg>
