<svg xmlns="http://www.w3.org/2000/svg" width="18.481" height="25.785" viewBox="0 0 18.481 25.785">
  <g id="Group_849" data-name="Group 849" transform="translate(-202.248 -136.945)">
    <path id="Path_724" data-name="Path 724" d="M211.488,156.492a.993.993,0,1,0,.993.994A1,1,0,0,0,211.488,156.492Z" fill="#fff"/>
    <path id="Path_725" data-name="Path 725" d="M211.488,152.188a5.281,5.281,0,0,0-3.666,1.476l1.279.366-.88,2.7h.878a2.5,2.5,0,0,1,4.777,0h.878l-.88-2.7,1.279-.366A5.277,5.277,0,0,0,211.488,152.188Z" fill="#fff"/>
    <path id="Path_726" data-name="Path 726" d="M209.1,158.241h-1.37l-.393,1.205-.821-.134a5.314,5.314,0,0,0,4.217,3.418v-2.856A2.517,2.517,0,0,1,209.1,158.241Z" fill="#fff"/>
    <path id="Path_727" data-name="Path 727" d="M220.6,153.272l-2.125-5.256a2,2,0,0,0-1.863-1.256H206.36a2,2,0,0,0-1.863,1.256l-2.126,5.256a1.692,1.692,0,0,0,.478,1.928l2.913,2.457.539.088.877-2.693-.784-.224-.939.026-.042-1.511.689-.019a6.8,6.8,0,0,1,10.77,0l.69.019-.042,1.511-.939-.026-.784.224.877,2.693.539-.088,2.913-2.457A1.689,1.689,0,0,0,220.6,153.272Z" fill="#fff"/>
    <path id="Path_728" data-name="Path 728" d="M215.246,158.241h-1.37a2.517,2.517,0,0,1-1.633,1.633v2.856a5.314,5.314,0,0,0,4.217-3.418l-.821.134Z" fill="#fff"/>
    <circle id="Ellipse_123" data-name="Ellipse 123" cx="4.53" cy="4.53" r="4.53" transform="translate(206.958 136.945)" fill="#fff"/>
  </g>
</svg>
