<svg xmlns="http://www.w3.org/2000/svg" width="18.818" height="17.165" viewBox="0 0 18.818 17.165">
  <g id="Group_823" data-name="Group 823" transform="translate(-201.7 -94.653)">
    <path id="Path_707" data-name="Path 707" d="M201.7,103.235c.151-.178.292-.372.458-.532q1.762-1.7,3.535-3.383,1.356-1.293,2.714-2.578c.6-.569,1.2-1.151,1.8-1.717a1.28,1.28,0,0,1,1.81,0l0,0c.914.866,1.82,1.741,2.73,2.612.018.017.039.031.081.066.006-.082.013-.141.013-.2V95.255c0-.427.116-.558.484-.559h2.031c.346,0,.469.141.469.54v5.15a.4.4,0,0,0,.131.326q1.158,1.094,2.311,2.2a2.4,2.4,0,0,1,.249.335v.244c-.244.346-.488.693-.736,1.036-.213.3-.407.326-.668.074-.7-.665-1.4-1.337-2.1-2.006l-1.846-1.761L213.267,99q-1.026-.977-2.05-1.963a.13.13,0,0,0-.217,0q-.936.9-1.876,1.8t-1.872,1.784q-.939.9-1.879,1.795l-2.094,2c-.082.077-.163.158-.244.227a.325.325,0,0,1-.459.033.338.338,0,0,1-.075-.094c-.274-.363-.535-.739-.8-1.11Z" fill="#fff"/>
    <path id="Path_708" data-name="Path 708" d="M212.6,111.8V106.69c-.066,0-.114-.008-.162-.008q-1.33,0-2.661,0c-.132,0-.168.04-.168.193.005,1.567,0,3.135,0,4.7v.244h-4.385c-.542,0-.839-.337-.839-.957v-6.184a.42.42,0,0,1,.153-.345q1.554-1.465,3.1-2.93,1.366-1.294,2.734-2.583c.244-.228.482-.46.732-.7l1.085,1.022,3.139,2.965,2.4,2.279a.345.345,0,0,1,.089.218q0,3.172,0,6.341a.78.78,0,0,1-.688.861c-.02,0-.04,0-.06,0-1.465.007-2.926,0-4.388,0C212.66,111.812,212.631,111.808,212.6,111.8Z" fill="#fff"/>
  </g>
</svg>
