<svg xmlns="http://www.w3.org/2000/svg" width="17.5" height="18.5" viewBox="0 0 17.5 18.5">
  <path id="Path_116" data-name="Path 116" d="M20.94,6.145a1.817,1.817,0,0,0-2.1,1.811L15.253,9.508a2.439,2.439,0,0,0-.763-.438V4.553a1.83,1.83,0,1,0-1.22,0V8.965A2.43,2.43,0,0,0,12,9.6L8.657,8.16a1.832,1.832,0,1,0-.41,1.152l3.1,1.339a2.435,2.435,0,0,0,.28,2.033L8.608,15.952a1.833,1.833,0,1,0,.943.777l2.966-3.214a2.44,2.44,0,0,0,2.532-.13l2.9,3.141a1.837,1.837,0,1,0,.943-.777L15.856,12.46a2.414,2.414,0,0,0,.109-1.931l3.287-1.421A1.829,1.829,0,1,0,20.94,6.145Z" transform="translate(-5 -1)" fill="#fff"/>
</svg>
