<svg width="58" height="59" viewBox="0 0 58 59" xmlns="http://www.w3.org/2000/svg" xmlns:xlink="http://www.w3.org/1999/xlink">
    <defs>
        <path id="a" d="M0 0h24.047v24H0z"/>
    </defs>
    <g transform="translate(1 1.5)" fill="none" fill-rule="evenodd">
        <g transform="translate(16 16)">
            <mask id="b" fill="#fff">
                <use xlink:href="#a"/>
            </mask>
            <path d="M0 2.004v19.969c0 .628.066.954.414 1.4.219.281.73.627 1.213.627h20.746c.29 0 .524-.096.724-.196.738-.371.95-1.035.95-1.831V2.003c0-.292-.018-.59-.09-.804-.16-.47-.387-.726-.824-.992A1.68 1.68 0 0 0 22.42 0H1.627C.977 0 .323.512.097 1.182.018 1.415 0 1.696 0 2.004zm7.426 3.371c0 .615-.295 1.133-.607 1.444a2.056 2.056 0 0 1-3.194-.354 2.043 2.043 0 0 1 .294-2.546c.138-.137.251-.237.42-.335.167-.096.341-.166.56-.218 1.253-.297 2.527.657 2.527 2.01zm5.47 9.69v5.375H9.383V9.006h3.371v1.58c.16-.004.088-.044.307-.354.048-.068.09-.118.147-.184.062-.07.083-.106.153-.176.72-.712 1.683-1.15 2.835-1.15 1.149 0 2.228.243 2.989.974l.165.165c.07.073.09.09.154.175.537.724.734 1.403.876 2.425.089.647.107 1.854.107 2.557v5.422h-3.56v-5.988c0-.826-.106-1.888-.838-2.368-.42-.274-.783-.249-1.26-.249-.472 0-.845.185-1.155.424a.786.786 0 0 0-.165.165c-.092.118-.196.248-.266.395-.285.594-.347 1.374-.347 2.246zM3.584 20.44H7.12V9.006H3.584V20.44z" fill="#FEFEFE" mask="url(#b)"/>
        </g>
        <circle stroke="#FFF" stroke-width="2" opacity=".2" cx="28" cy="28" r="28"/>
    </g>
</svg>
