<svg width="58" height="59" viewBox="0 0 58 59" xmlns="http://www.w3.org/2000/svg">
    <g transform="translate(1 1.5)" fill="none" fill-rule="evenodd">
        <path d="M28 16c-1.482 0-2.97.428-4.093 1.294-2.771 2.135-2.59 4.868-2.352 8.275.061.873-1.311.117-1.674.032-.715-.167-1.514.38-1.44 1.066.146 1.329 2.83 1.156 2.94 2.33.092.99-1.555 2.972-1.953 3.374-.41.414-.898.812-1.531 1.141-.976.508-1.657.397-1.821.773-.583 1.334 2.357 1.663 3.158 1.916.375 1.222.036 1.841 1.523 1.54 2.723-.55 3.17.596 4.702 1.53.802.488 1.675.729 2.541.729.866 0 1.739-.24 2.54-.73 1.533-.933 1.98-2.08 4.703-1.529 1.487.301 1.148-.318 1.523-1.54.801-.253 3.741-.582 3.158-1.916-.164-.376-.845-.265-1.82-.773a6.056 6.056 0 0 1-1.532-1.14c-.398-.403-2.045-2.384-1.953-3.375.11-1.174 2.794-1.001 2.94-2.33.074-.687-.725-1.233-1.44-1.066-.363.085-1.735.841-1.674-.032.238-3.407.42-6.14-2.352-8.275C30.97 16.428 29.482 16 28 16" fill="#FEFEFE"/>
        <circle stroke="#FFF" stroke-width="2" opacity=".2" cx="28" cy="28" r="28"/>
    </g>
</svg>
