<svg xmlns="http://www.w3.org/2000/svg" width="16" height="20" viewBox="0 0 16 20">
  <path id="Path_144" data-name="Path 144" d="M27.177,12v.018L18.561,12A2.481,2.481,0,0,0,16.1,14.5v15A2.481,2.481,0,0,0,18.561,32H29.638A2.481,2.481,0,0,0,32.1,29.5V17Zm1.648,11.207a.916.916,0,0,1-.908.923H25.06v3.029a.916.916,0,0,1-.908.923H23.96a.916.916,0,0,1-.909-.923V24.13H20.194a.916.916,0,0,1-.908-.923v-.194a.916.916,0,0,1,.908-.923h2.857V19.316a.916.916,0,0,1,.909-.923h.191a.916.916,0,0,1,.908.923V22.09h2.857a.916.916,0,0,1,.908.923ZM28.408,17a1.241,1.241,0,0,1-1.231-1.25v-2.5L30.869,17Z" transform="translate(-16.1 -12)" fill="#fff" fill-rule="evenodd"/>
</svg>
