<svg xmlns="http://www.w3.org/2000/svg" width="20" height="20" viewBox="0 0 20 20">
  <path id="Path_714" data-name="Path 714" d="M184.084,106.751a1.332,1.332,0,0,0-1.286,1h-1.047a.333.333,0,0,1-.333-.333v-2.333h.713a1.333,1.333,0,1,0,0-.666h-.713v-5h1a3,3,0,1,0,0-6h-.686a2.993,2.993,0,0,0-4.726-2.1,4.993,4.993,0,0,0-8.814,2.113,3,3,0,0,0,.23,5.985h1v4.332h-.713a1.333,1.333,0,1,0,0,.666h.713v3a.333.333,0,0,1-.333.333h-1.047a1.333,1.333,0,1,0,0,.666h1.047a1,1,0,0,0,1-1v-3h2.666a1,1,0,0,0,1-1v-4h1.333V106.8a1.333,1.333,0,1,0,.666,0V99.419h1.333v4.666a1,1,0,0,0,1,1h2.666v2.333a1,1,0,0,0,1,1H182.8a1.331,1.331,0,1,0,1.286-1.666Zm-11-3.333a.333.333,0,0,1-.333.333h-2.666V99.419h3Zm7.665,1h-2.666a.334.334,0,0,1-.334-.333V99.419h3Z" transform="translate(-165.417 -89.422)" fill="#fff"/>
</svg>
