<svg xmlns="http://www.w3.org/2000/svg" width="20" height="20" viewBox="0 0 20 20">
  <g id="Group_341" data-name="Group 341" transform="translate(-245.256 -247.045)">
    <path id="Path_99" data-name="Path 99" d="M248.812,248.99l.3.12,3.123,1.194c.444.169.887.34,1.333.505a.16.16,0,0,1,.123.178q0,2.307,0,4.615,0,2.648,0,5.3c0,.406,0,.812,0,1.218,0,.183,0,.184.175.184q1.721,0,3.444,0c.1,0,.124-.028.123-.126,0-.547,0-1.095,0-1.642,0-.144,0-.144.147-.145h1.579c.141,0,.149.008.15.151,0,.578,0,1.155,0,1.732a1.908,1.908,0,0,1-1.29,1.844,2.767,2.767,0,0,1-.966.1l-3.2,0c-.158,0-.155,0-.155.16q0,1.274,0,2.548c0,.134-.016.144-.14.093q-1.381-.576-2.762-1.154c-1.08-.451-2.157-.906-3.238-1.354-.38-.159-.776-.285-1.15-.456a1.8,1.8,0,0,1-1.13-1.709c-.017-1.006-.007-2.011-.007-3.017q0-2.793,0-5.587c0-1.1,0-2.205,0-3.308,0-.506-.006-1.013.007-1.519a1.846,1.846,0,0,1,1.04-1.671,1.684,1.684,0,0,1,.812-.195c1.635,0,3.268,0,4.9,0q2.292,0,4.584,0c.311,0,.622,0,.932,0a1.856,1.856,0,0,1,1.723,1.5,4.489,4.489,0,0,1,.047.834c.007.443,0,.887,0,1.33,0,.1-.027.142-.136.141q-.811-.007-1.623,0c-.1,0-.125-.028-.125-.125,0-.548,0-1.1,0-1.643,0-.144,0-.144-.14-.143h-8.3c-.054,0-.109,0-.163.008Z" transform="translate(0 0)" fill="#fff"/>
    <path id="Path_100" data-name="Path 100" d="M262.406,254.951a.662.662,0,0,1-.142-.083c-.447-.44-.89-.884-1.338-1.324-.077-.076-.074-.126,0-.2q.612-.6,1.216-1.214c.081-.082.13-.075.208,0q1.444,1.45,2.895,2.9c.3.3.6.6.9.891.078.076.087.125,0,.208q-1.9,1.892-3.8,3.792c-.079.079-.127.083-.206,0q-.6-.613-1.215-1.216c-.074-.073-.082-.119,0-.2.458-.447.91-.9,1.364-1.35.032-.032.063-.066.118-.123-.075,0-.121-.011-.168-.011h-5.819c-.173,0-.176,0-.176-.17,0-.565,0-1.131,0-1.7,0-.1.035-.137.136-.137.871,0,1.741,0,2.611,0h3.266c.034,0,.067-.006.1-.009Z" transform="translate(-0.949 -0.36)" fill="#fff"/>
  </g>
</svg>
