<svg xmlns="http://www.w3.org/2000/svg" width="19.762" height="20.209" viewBox="0 0 19.762 20.209">
  <g id="Group_847" data-name="Group 847" transform="translate(-235.007 -96.563)">
    <g id="Group_845" data-name="Group 845">
      <path id="Path_722" data-name="Path 722" d="M246.538,105.722a.639.639,0,0,0,.575.126l5.617-1.514a.7.7,0,0,0,.275-1.21l-.975-.821,2.6-3.017a.579.579,0,0,0-.066-.822l-2.1-1.763a.594.594,0,0,0-.83.067l-2.6,3.017-.975-.822a.715.715,0,0,0-.724-.115.7.7,0,0,0-.44.58l-.583,5.754A.621.621,0,0,0,246.538,105.722Z" fill="#fff"/>
    </g>
    <g id="Group_846" data-name="Group 846">
      <path id="Path_723" data-name="Path 723" d="M240.773,113.686l.938.864a.717.717,0,0,0,.718.147.7.7,0,0,0,.465-.561l.836-5.722a.619.619,0,0,0-.2-.549.634.634,0,0,0-.568-.152l-5.678,1.266a.706.706,0,0,0-.529.5.7.7,0,0,0,.2.7l.938.863-2.731,2.895a.578.578,0,0,0,.029.825l2.019,1.857a.6.6,0,0,0,.833-.03Z" fill="#fff"/>
    </g>
  </g>
</svg>
