<svg xmlns="http://www.w3.org/2000/svg" width="20" height="20" viewBox="0 0 20 20">
  <path id="settings-sharp" d="M42.019,32.522A3.479,3.479,0,1,0,45.591,36,3.526,3.526,0,0,0,42.019,32.522ZM49.73,36a7.013,7.013,0,0,1-.073.971l2.174,1.657a.5.5,0,0,1,.117.643l-2.056,3.457a.527.527,0,0,1-.631.214l-2.556-1a7.935,7.935,0,0,1-1.733.986l-.382,2.643a.529.529,0,0,1-.514.429H39.962a.532.532,0,0,1-.514-.414l-.382-2.643a7.608,7.608,0,0,1-1.733-.987l-2.556,1a.527.527,0,0,1-.631-.214l-2.056-3.457a.5.5,0,0,1,.117-.643l2.174-1.657A7.4,7.4,0,0,1,34.307,36a7.013,7.013,0,0,1,.073-.971l-2.174-1.657a.5.5,0,0,1-.117-.643l2.056-3.457a.527.527,0,0,1,.631-.214l2.556,1a7.935,7.935,0,0,1,1.733-.986l.382-2.643A.529.529,0,0,1,39.962,26h4.113a.532.532,0,0,1,.514.414l.382,2.643a7.609,7.609,0,0,1,1.735.987l2.554-1a.527.527,0,0,1,.631.214l2.056,3.457a.5.5,0,0,1-.117.643l-2.174,1.657A7.4,7.4,0,0,1,49.73,36Z" transform="translate(-32.019 -26)" fill="#fff"/>
</svg>
