<svg xmlns="http://www.w3.org/2000/svg" width="20.342" height="22.757" viewBox="0 0 20.342 22.757">
  <g id="Group_384" data-name="Group 384" transform="translate(-9.658 -73.243)">
    <path id="Path_120" data-name="Path 120" d="M19.829,86.048c2.578,0,4.849-2.431,5.069-5.419a5.161,5.161,0,0,0-1.321-3.941,5.223,5.223,0,0,0-7.5-.01,5.176,5.176,0,0,0-1.315,3.95C14.976,83.616,17.251,86.048,19.829,86.048Z" fill="#aaa"/>
    <path id="Path_121" data-name="Path 121" d="M29.969,94.032a8.367,8.367,0,0,0-3.725-5.562,12,12,0,0,0-12.83,0,8.371,8.371,0,0,0-3.726,5.563,1.729,1.729,0,0,0,.352,1.423A1.515,1.515,0,0,0,11.223,96H28.435a1.515,1.515,0,0,0,1.183-.544A1.727,1.727,0,0,0,29.969,94.032Z" fill="#aaa"/>
    <path id="Path_122" data-name="Path 122" d="M26.749,82.246V78h-.423a5.926,5.926,0,0,0-1.61-2.826,6.93,6.93,0,0,0-4.929-1.926,6.95,6.95,0,0,0-4.939,1.915A5.884,5.884,0,0,0,13.245,78h-.251v4.251h1.5V78h-.214a4.892,4.892,0,0,1,1.27-2.125,5.955,5.955,0,0,1,4.236-1.627,5.939,5.939,0,0,1,4.226,1.638A4.938,4.938,0,0,1,25.288,78h-.04v4.251h.361a4.967,4.967,0,0,1-.775,2.313A.982.982,0,0,0,24.5,84.5a1.012,1.012,0,1,0,.9.565,5.648,5.648,0,0,0,.968-2.816Z" fill="#aaa"/>
  </g>
</svg>
