<svg id="Group_903" data-name="Group 903" xmlns="http://www.w3.org/2000/svg" width="18.725" height="18.725" viewBox="0 0 18.725 18.725">
  <g id="Group_885" data-name="Group 885" transform="translate(7.222 8.433)">
    <g id="Group_884" data-name="Group 884">
      <path id="Path_748" data-name="Path 748" d="M9.217,7.557A2.745,2.745,0,1,0,11.962,10.3,2.748,2.748,0,0,0,9.217,7.557Zm0,4.337A1.593,1.593,0,1,1,10.81,10.3,1.594,1.594,0,0,1,9.217,11.894Z" transform="translate(-6.472 -7.557)" fill="#aaa"/>
    </g>
  </g>
  <g id="Group_887" data-name="Group 887" transform="translate(3.244 4.461)">
    <g id="Group_886" data-name="Group 886">
      <path id="Path_749" data-name="Path 749" d="M6.506,3.972,2.888,7.591l2.571,2.571A3.765,3.765,0,0,1,9.077,6.543Z" transform="translate(-2.888 -3.972)" fill="#aaa"/>
    </g>
  </g>
  <g id="Group_889" data-name="Group 889" transform="translate(13.062 1.921)">
    <g id="Group_888" data-name="Group 888">
      <path id="Path_750" data-name="Path 750" d="M17.233,1.921,11.687,7.467A3.8,3.8,0,0,1,12.571,8.6l4.779,4.779V2.711A2.711,2.711,0,0,0,17.233,1.921Z" transform="translate(-11.687 -1.921)" fill="#aaa"/>
    </g>
  </g>
  <g id="Group_891" data-name="Group 891" transform="translate(5.677 15.648)">
    <g id="Group_890" data-name="Group 890">
      <path id="Path_751" data-name="Path 751" d="M8.133,14.274,5.056,17.35h6.153Z" transform="translate(-5.056 -14.274)" fill="#aaa"/>
    </g>
  </g>
  <g id="Group_893" data-name="Group 893" transform="translate(9.374 10.551)">
    <g id="Group_892" data-name="Group 892">
      <path id="Path_752" data-name="Path 752" d="M9.217,9.726a.576.576,0,1,0,.576.576A.577.577,0,0,0,9.217,9.726Z" transform="translate(-8.641 -9.726)" fill="#aaa"/>
    </g>
  </g>
  <g id="Group_895" data-name="Group 895" transform="translate(0 9.685)">
    <g id="Group_894" data-name="Group 894">
      <path id="Path_753" data-name="Path 753" d="M5.864,12.005,2.169,8.31,0,10.478v4.161A2.714,2.714,0,0,0,2.711,17.35h.908l3.765-3.765A3.783,3.783,0,0,1,5.864,12.005Z" transform="translate(0 -8.31)" fill="#aaa"/>
    </g>
  </g>
  <g id="Group_897" data-name="Group 897" transform="translate(8.6)">
    <g id="Group_896" data-name="Group 896">
      <path id="Path_754" data-name="Path 754" d="M14.639,0H10.478L7.225,3.253l3.619,3.619L16.729.986A2.7,2.7,0,0,0,14.639,0Z" transform="translate(-7.225)" fill="#aaa"/>
    </g>
  </g>
  <g id="Group_899" data-name="Group 899" transform="translate(10.732 11.817)">
    <g id="Group_898" data-name="Group 898">
      <path id="Path_755" data-name="Path 755" d="M12.976,10.442A3.765,3.765,0,0,1,9.357,14.06l3.29,3.29h1.992a2.713,2.713,0,0,0,2.7-2.54Z" transform="translate(-9.357 -10.442)" fill="#aaa"/>
    </g>
  </g>
  <g id="Group_901" data-name="Group 901">
    <g id="Group_900" data-name="Group 900">
      <path id="Path_756" data-name="Path 756" d="M2.711,0A2.714,2.714,0,0,0,0,2.711v6.33l1.809-1.81h0L9.041,0Z" fill="#aaa"/>
    </g>
  </g>
</svg>
