<svg xmlns="http://www.w3.org/2000/svg" width="17.126" height="18.442" viewBox="0 0 17.126 18.442">
  <g id="Group_848" data-name="Group 848" transform="translate(-694 -393.999)">
    <path id="Path_117" data-name="Path 117" d="M53.359,51.779c2.171,0,4.082-2.046,4.268-4.562A4.347,4.347,0,0,0,56.514,43.9a4.4,4.4,0,0,0-6.317-.008,4.361,4.361,0,0,0-1.106,3.325C49.274,49.732,51.188,51.779,53.359,51.779Z" transform="translate(649.204 351.441)" fill="#aaa"/>
    <path id="Path_118" data-name="Path 118" d="M61.9,59.343a7.049,7.049,0,0,0-3.136-4.682,10.1,10.1,0,0,0-10.8,0,7.049,7.049,0,0,0-3.136,4.682,1.453,1.453,0,0,0,.3,1.2,1.275,1.275,0,0,0,1,.458H60.6a1.276,1.276,0,0,0,1-.459A1.451,1.451,0,0,0,61.9,59.343Z" transform="translate(649.204 351.441)" fill="#aaa"/>
  </g>
</svg>
