<svg xmlns="http://www.w3.org/2000/svg" width="18.337" height="23.523" viewBox="0 0 18.337 23.523">
  <g id="Group_978" data-name="Group 978" transform="translate(-7875 -14414)">
    <g id="Icon_-_Task_status_-_Failed" data-name="Icon - Task status - Failed" transform="translate(7875 14414)">
      <path id="Path_64" data-name="Path 64" d="M1800.357,4.6a9.65,9.65,0,0,0-9.169,9.623,11.108,11.108,0,0,0,1.2,4.443c.021.043.046.086.072.128,5.542,9.329,7.2,9.329,7.9,9.329,1.1,0,2.292-.813,5.114-4.956,1.472-2.16,2.735-4.282,2.786-4.373.025-.043.051-.086.071-.128a11.108,11.108,0,0,0,1.2-4.443A9.65,9.65,0,0,0,1800.357,4.6Z" transform="translate(-1791.188 -4.6)" fill="#ff2c2c" fill-rule="evenodd"/>
    </g>
  </g>
</svg>
