<svg width="101" height="58" viewBox="0 0 101 58" fill="none" xmlns="http://www.w3.org/2000/svg">
<g clip-path="url(#clip0_16_347)">
<path d="M1.58008 48.29C3.83008 48.29 6.08008 48.29 8.33008 48.3C9.22008 48.3 10.1001 48.42 10.9301 48.75C12.1401 49.22 12.8801 50.1 13.1701 51.35C13.4201 52.45 13.4201 53.54 13.1601 54.64C12.8301 56.03 11.9501 56.89 10.5901 57.31C9.86008 57.53 9.09008 57.62 8.32008 57.63C6.08008 57.64 3.83008 57.63 1.59008 57.63C1.58008 54.52 1.58008 51.4 1.58008 48.29ZM4.59008 55.33C4.65008 55.33 4.69008 55.34 4.74008 55.34C5.64008 55.34 6.54008 55.35 7.44008 55.34C7.76008 55.34 8.08008 55.31 8.39008 55.25C9.31008 55.07 9.84008 54.54 10.0101 53.65C10.1001 53.16 10.0901 52.67 9.99008 52.18C9.84008 51.48 9.43008 51 8.75008 50.78C8.46008 50.69 8.15008 50.61 7.85008 50.6C6.79008 50.58 5.74008 50.59 4.68008 50.58C4.65008 50.58 4.62008 50.59 4.59008 50.6C4.59008 52.18 4.59008 53.75 4.59008 55.33Z" fill="white"/>
<path d="M3.1 51.2L2.54 48.29H0C0 48.29 1.83 51.33 1.86 51.96C1.89 52.58 3.1 51.2 3.1 51.2Z" fill="white"/>
<path d="M34.8004 48.3C36.4004 48.3 37.9903 48.3 39.6003 48.3C39.6003 51.41 39.6003 54.51 39.6003 57.62C38.6103 57.62 37.6203 57.62 36.6203 57.62C36.6203 55.43 36.6203 53.24 36.6203 51.05C36.6003 51.04 36.5804 51.03 36.5704 51.03C36.5404 51.09 36.5004 51.14 36.4704 51.2C35.9404 52.45 35.4104 53.7 34.8804 54.95C34.5204 55.8 34.1604 56.65 33.8004 57.5C33.7604 57.61 33.7104 57.64 33.5904 57.64C32.9304 57.63 32.2604 57.63 31.6004 57.64C31.4504 57.64 31.3804 57.6 31.3204 57.46C30.4204 55.34 29.5104 53.23 28.6104 51.12C28.5804 51.06 28.5504 51 28.5204 50.94C28.5004 50.94 28.4904 50.95 28.4704 50.95C28.4704 53.17 28.4704 55.39 28.4704 57.63C27.5004 57.63 26.5604 57.63 25.6104 57.63C25.6104 54.53 25.6104 51.43 25.6104 48.3C25.6704 48.3 25.7404 48.3 25.8104 48.3C27.2404 48.3 28.6704 48.3 30.1104 48.3C30.2604 48.3 30.3304 48.34 30.3804 48.48C31.0804 50.23 31.7804 51.98 32.4804 53.73C32.5004 53.79 32.5304 53.84 32.5604 53.9C32.5804 53.9 32.6003 53.9 32.6203 53.9C33.3303 52.02 34.0604 50.16 34.8004 48.3Z" fill="white"/>
<path d="M81.6501 57.92C80.4301 57.92 79.2401 57.8 78.0901 57.37C76.9701 56.95 76.0701 56.27 75.5701 55.15C75.2001 54.31 75.1101 53.43 75.1601 52.53C75.2101 51.74 75.3901 50.98 75.8201 50.29C76.3601 49.43 77.1501 48.9 78.0801 48.55C79.2101 48.12 80.4001 48 81.6001 48C82.8401 48 84.0601 48.11 85.2301 48.55C86.3401 48.97 87.2301 49.63 87.7401 50.73C88.0601 51.42 88.1701 52.15 88.1801 52.9C88.1901 53.77 88.0601 54.62 87.6301 55.4C87.1001 56.38 86.2601 56.97 85.2401 57.36C84.0801 57.8 82.8701 57.92 81.6501 57.92ZM81.6501 55.59C81.9401 55.57 82.2301 55.56 82.5201 55.52C83.1101 55.44 83.6701 55.27 84.1201 54.87C84.7401 54.33 84.9101 53.62 84.8901 52.84C84.8601 51.64 84.2501 50.83 83.1101 50.51C82.1301 50.24 81.1401 50.25 80.1601 50.53C79.3301 50.77 78.7501 51.29 78.5501 52.14C78.4601 52.5 78.4401 52.89 78.4601 53.26C78.5301 54.25 79.0301 54.96 79.9801 55.32C80.5201 55.53 81.0801 55.58 81.6501 55.59Z" fill="white"/>
<path d="M74.9999 57.6C73.8599 57.6 72.7499 57.6 71.6399 57.59C71.5799 57.59 71.4899 57.52 71.4599 57.46C70.9099 56.56 70.3699 55.66 69.8299 54.75C69.7699 54.64 69.6999 54.61 69.5799 54.61C68.4999 54.61 67.4099 54.61 66.3299 54.61C66.2699 54.61 66.2099 54.61 66.1399 54.61C66.1399 55.61 66.1399 56.58 66.1399 57.58C65.1399 57.58 64.1499 57.58 63.1499 57.58C63.1499 54.49 63.1499 51.4 63.1499 48.29C63.2099 48.29 63.2799 48.29 63.3399 48.29C65.9199 48.29 68.4899 48.29 71.0699 48.29C71.6799 48.29 72.2799 48.34 72.8699 48.51C73.9799 48.83 74.5899 49.59 74.7199 50.71C74.7699 51.15 74.7599 51.6 74.7099 52.03C74.5999 52.96 74.0399 53.53 73.1799 53.86C73.0799 53.9 72.9799 53.94 72.8699 53.96C72.7299 53.99 72.7199 54.05 72.7899 54.16C72.8899 54.31 72.9799 54.46 73.0799 54.61C73.6799 55.54 74.2799 56.48 74.8799 57.41C74.9199 57.46 74.9499 57.51 74.9999 57.6ZM66.1399 50.62C66.1399 51.26 66.1399 51.87 66.1399 52.5C66.1999 52.5 66.2499 52.5 66.2899 52.5C67.6499 52.5 69.0099 52.5 70.3699 52.5C70.4499 52.5 70.5399 52.5 70.6199 52.49C71.0599 52.45 71.3399 52.27 71.4099 51.9C71.4499 51.67 71.4399 51.41 71.4099 51.18C71.3699 50.93 71.1999 50.76 70.9499 50.7C70.7399 50.65 70.5199 50.62 70.3099 50.62C68.9799 50.61 67.6499 50.62 66.3199 50.62C66.2699 50.61 66.2099 50.62 66.1399 50.62Z" fill="white"/>
<path d="M50.8301 57.63C50.8301 54.51 50.8301 51.41 50.8301 48.3C50.8801 48.3 50.9201 48.29 50.9601 48.29C53.1601 48.29 55.3701 48.28 57.5701 48.29C58.4401 48.29 59.2901 48.41 60.1101 48.71C61.3601 49.17 62.1301 50.05 62.4201 51.34C62.6701 52.44 62.6701 53.53 62.4101 54.63C62.0901 56.02 61.2001 56.89 59.8401 57.3C59.1201 57.52 58.3901 57.62 57.6401 57.62C55.4101 57.63 53.1701 57.62 50.9401 57.63C50.9201 57.63 50.8801 57.63 50.8301 57.63ZM53.8401 55.33C53.9001 55.33 53.9401 55.34 53.9901 55.34C54.9001 55.34 55.8001 55.35 56.7101 55.34C57.0201 55.34 57.3401 55.31 57.6401 55.25C58.4401 55.09 59.0201 54.66 59.2201 53.83C59.3601 53.26 59.3601 52.68 59.2201 52.12C59.0701 51.48 58.6901 51.03 58.0601 50.82C57.7401 50.71 57.4101 50.63 57.0701 50.62C56.0201 50.59 54.9701 50.6 53.9201 50.6C53.8901 50.6 53.8601 50.61 53.8301 50.61C53.8401 52.18 53.8401 53.75 53.8401 55.33Z" fill="white"/>
<path d="M50.3298 55.46C50.3298 56.19 50.3298 56.89 50.3298 57.59C46.9198 57.59 43.5098 57.59 40.0898 57.59C40.0898 54.49 40.0898 51.39 40.0898 48.28C43.4498 48.28 46.8098 48.28 50.1798 48.28C50.1798 48.98 50.1798 49.68 50.1798 50.4C47.8198 50.4 45.4598 50.4 43.0798 50.4C43.0798 50.89 43.0798 51.35 43.0798 51.83C45.3398 51.83 47.6098 51.83 49.8898 51.83C49.8898 52.49 49.8898 53.14 49.8898 53.8C47.6298 53.8 45.3598 53.8 43.0798 53.8C43.0798 54.36 43.0798 54.89 43.0798 55.45C45.4898 55.46 47.9098 55.46 50.3298 55.46Z" fill="white"/>
<path d="M88.6802 48.29C88.7502 48.29 88.8102 48.29 88.8702 48.29C91.3402 48.29 93.8001 48.29 96.2701 48.29C96.8401 48.29 97.4001 48.33 97.9501 48.47C99.1501 48.77 99.8302 49.54 99.9802 50.75C100.05 51.3 100.04 51.85 99.9302 52.4C99.6902 53.57 98.9502 54.23 97.8002 54.44C97.3002 54.53 96.7801 54.58 96.2701 54.58C94.8101 54.6 93.3502 54.59 91.8902 54.59C91.8202 54.59 91.7502 54.59 91.6502 54.59C91.6502 55.6 91.6502 56.59 91.6502 57.6C90.6402 57.6 89.6602 57.6 88.6602 57.6C88.6802 54.5 88.6802 51.41 88.6802 48.29ZM91.6702 52.52C91.7402 52.52 91.8002 52.52 91.8502 52.52C93.0702 52.52 94.2802 52.52 95.5002 52.52C95.6302 52.52 95.7702 52.51 95.9002 52.5C96.2602 52.45 96.5602 52.3 96.6702 51.92C96.7602 51.64 96.7502 51.37 96.6702 51.09C96.5902 50.84 96.4302 50.67 96.1802 50.6C95.9602 50.55 95.7302 50.52 95.5002 50.51C94.2802 50.5 93.0702 50.51 91.8502 50.51C91.7902 50.51 91.7202 50.52 91.6602 50.52C91.6702 51.19 91.6702 51.85 91.6702 52.52Z" fill="white"/>
<path d="M25.09 48.29C24.42 49.15 23.78 49.98 23.14 50.8C22.21 51.99 21.29 53.18 20.37 54.38C20.31 54.46 20.27 54.57 20.27 54.67C20.26 55.57 20.27 56.47 20.27 57.37C20.27 57.44 20.27 57.51 20.27 57.6C19.27 57.6 18.28 57.6 17.28 57.6C17.28 57.53 17.28 57.46 17.28 57.39C17.28 56.5 17.28 55.6 17.27 54.71C17.27 54.6 17.23 54.47 17.16 54.39C15.63 52.41 14.1 50.44 12.57 48.46C12.54 48.42 12.51 48.37 12.46 48.31C12.53 48.31 12.58 48.3 12.63 48.3C13.72 48.3 14.82 48.3 15.91 48.3C16.03 48.3 16.1 48.34 16.17 48.44C16.99 49.59 17.82 50.73 18.64 51.88C18.67 51.93 18.71 51.97 18.76 52.04C18.81 51.98 18.85 51.93 18.88 51.88C19.71 50.74 20.54 49.59 21.36 48.45C21.43 48.35 21.51 48.3 21.64 48.3C22.72 48.31 23.8 48.3 24.89 48.3C24.94 48.29 25 48.29 25.09 48.29Z" fill="white"/>
</g>
<path d="M33.4727 36.3667C33.8395 36.3667 34.1859 36.3643 34.5324 36.371C34.5607 36.3715 34.6005 36.4289 34.614 36.4675C34.8491 37.1367 35.0807 37.807 35.3128 38.4772C35.5081 39.0407 35.7026 39.6045 35.8981 40.1681C35.911 40.2049 35.9275 40.2408 35.951 40.2982C36.114 39.8282 36.2698 39.3804 36.4249 38.9327C36.7083 38.114 36.9928 37.2956 37.2733 36.4759C37.301 36.3953 37.3354 36.3621 37.425 36.3643C37.6833 36.371 37.9418 36.371 38.2001 36.3643C38.2904 36.3618 38.3229 36.3967 38.3505 36.4767C38.7728 37.6995 39.1983 38.9208 39.6232 40.1426C39.6373 40.1829 39.653 40.2224 39.6787 40.2909C39.8047 39.9321 39.9203 39.6033 40.0354 39.2743C40.3612 38.3422 40.6881 37.4107 41.0103 36.4776C41.0411 36.3887 41.0837 36.363 41.1748 36.3645C41.4932 36.3703 41.8118 36.3667 42.1515 36.3667C41.5298 38.1601 40.9129 39.9391 40.2929 41.7269C39.9326 41.7269 39.5738 41.7291 39.2152 41.7228C39.1864 41.7223 39.1452 41.6671 39.1321 41.6295C38.9148 41.0054 38.7011 40.3801 38.4865 39.755C38.2783 39.149 38.0702 38.5431 37.8621 37.9369C37.8505 37.903 37.8374 37.8693 37.818 37.816C37.7945 37.8768 37.7766 37.9197 37.7613 37.9638C37.3412 39.1786 36.9203 40.3934 36.5043 41.6097C36.4726 41.7027 36.4331 41.732 36.3357 41.7301C36.0091 41.7233 35.682 41.7274 35.3416 41.7274C34.7204 39.9452 34.0992 38.1637 33.4727 36.3667Z" fill="white"/>
<path d="M68.5195 34.0007C68.883 34.0007 69.2406 34.0007 69.6096 34.0007C69.6096 34.9938 69.6096 35.9848 69.6096 36.9985C69.6437 36.9716 69.6624 36.9612 69.6755 36.9459C70.2087 36.3286 70.8915 36.1478 71.6743 36.2624C72.7675 36.4226 73.4558 37.2977 73.6591 38.2169C73.8316 38.9966 73.7981 39.7673 73.4439 40.498C72.8772 41.6666 71.4923 42.1928 70.3534 41.6779C70.215 41.6154 70.0837 41.5314 69.9618 41.4403C69.8436 41.3518 69.7416 41.2416 69.6212 41.1306C69.6212 41.3276 69.6212 41.5178 69.6212 41.7169C69.2471 41.7169 68.8868 41.7169 68.5195 41.7169C68.5195 39.1461 68.5195 36.5772 68.5195 34.0007ZM69.5267 39.0325C69.5502 39.2403 69.5597 39.4511 69.6001 39.6556C69.7353 40.3403 70.2548 40.8106 70.9077 40.8544C71.729 40.9097 72.2858 40.5678 72.5288 39.8441C72.7035 39.3239 72.7021 38.7948 72.5397 38.2729C72.4082 37.8491 72.1477 37.525 71.7274 37.351C71.488 37.2519 71.2355 37.2291 70.9789 37.243C70.3686 37.2759 69.9371 37.5713 69.6912 38.1309C69.5655 38.4171 69.5335 38.7209 69.5267 39.0325Z" fill="white"/>
<path d="M65.145 41.72C64.7784 41.72 64.4208 41.72 64.0501 41.72C64.0501 41.5225 64.0501 41.3316 64.0501 41.1278C64.0257 41.1424 64.0143 41.146 64.0077 41.1535C63.4868 41.7573 62.8147 41.9293 62.0518 41.836C60.8719 41.6916 60.155 40.7494 59.9783 39.7614C59.8463 39.0224 59.8865 38.2953 60.2213 37.6096C60.8556 36.3113 62.1143 36.0532 63.0624 36.3251C63.4546 36.4375 63.7662 36.6756 64.0455 37.0117C64.0455 35.9917 64.0455 34.9995 64.0455 34.0004C64.4208 34.0004 64.7782 34.0004 65.1445 34.0004C65.145 36.572 65.145 39.1409 65.145 41.72ZM64.1563 39.052C64.1441 39.0498 64.132 39.0478 64.1199 39.0457C64.1199 38.965 64.1226 38.8841 64.1194 38.8034C64.087 37.9624 63.5615 37.1779 62.4596 37.2416C61.8313 37.278 61.3988 37.5866 61.1629 38.1674C61.0054 38.5546 60.9872 38.9611 61.0325 39.3701C61.0504 39.5329 61.0875 39.6969 61.1401 39.8522C61.3574 40.4943 61.8471 40.8463 62.525 40.8606C63.2506 40.8759 63.7931 40.5245 64.0034 39.8665C64.087 39.6058 64.1071 39.3243 64.1563 39.052Z" fill="white"/>
<path d="M22.0864 39.0247C22.0864 39.9335 22.0864 40.8209 22.0864 41.7176C21.7237 41.7176 21.3666 41.7176 21 41.7176C21 39.1531 21 36.5849 21 34.0055C21.0376 34.0038 21.0763 34.0004 21.1153 34.0004C21.9791 34.0002 22.8428 33.9995 23.7065 34.0007C24.0719 34.0012 24.4319 34.0443 24.7745 34.1778C25.388 34.4169 25.7953 34.8615 26.0082 35.4762C26.2428 36.1531 26.2444 36.8412 26.0152 37.5196C25.7129 38.4143 24.9545 38.9762 23.9985 39.0106C23.4139 39.0317 22.8283 39.021 22.2432 39.0247C22.1957 39.0249 22.1479 39.0247 22.0864 39.0247ZM22.0941 35.0551C22.0941 36.0337 22.0941 36.9997 22.0941 37.9671C22.727 37.9671 23.3526 37.9884 23.976 37.9601C24.4276 37.9395 24.761 37.6848 24.9579 37.2744C25.1411 36.8923 25.1576 36.4872 25.0713 36.0799C24.941 35.4655 24.5293 35.0922 23.9033 35.0616C23.3358 35.034 22.7662 35.0507 22.1976 35.0486C22.1659 35.0483 22.1344 35.0524 22.0941 35.0551Z" fill="white"/>
<path d="M48.5175 39.4892C47.0773 39.4892 45.6459 39.4892 44.2005 39.4892C44.3015 40.0106 44.5535 40.4094 45.0138 40.6563C45.7567 41.0548 46.658 40.8319 47.1471 40.1392C47.1672 40.1107 47.2072 40.0782 47.2385 40.0777C47.605 40.0733 47.9716 40.075 48.3508 40.075C48.2594 40.3505 48.1291 40.5904 47.958 40.805C47.3254 41.5988 46.4917 41.9154 45.4911 41.8369C44.2184 41.7371 43.0424 40.6362 43.079 38.9959C43.1025 37.9333 43.5214 37.0778 44.4602 36.5607C46.0566 35.682 48.1291 36.5067 48.4894 38.4927C48.5393 38.7677 48.5243 39.0548 48.5364 39.3363C48.5383 39.3833 48.5252 39.4308 48.5175 39.4892ZM47.3952 38.6458C47.2966 37.7675 46.5928 37.1761 45.7167 37.2289C44.89 37.2789 44.1983 37.9258 44.2051 38.6458C45.2682 38.6458 46.3314 38.6458 47.3952 38.6458Z" fill="white"/>
<path d="M58.8696 40.0749C58.6993 40.5376 58.4366 40.9098 58.0785 41.2202C56.8792 42.2591 54.5679 42.1069 53.7926 40.1519C53.4192 39.2107 53.5043 37.8306 54.4431 36.9473C55.0653 36.3621 55.8064 36.1627 56.6382 36.2366C57.9455 36.3532 59.044 37.5038 59.0564 38.9783C59.0579 39.1426 59.0566 39.3071 59.0566 39.4876C57.5942 39.4876 56.1602 39.4876 54.7241 39.4876C54.7993 40.1788 55.4004 40.7647 56.0848 40.8289C56.5505 40.8725 56.9905 40.8085 57.3556 40.4885C57.4694 40.3889 57.5559 40.2583 57.6584 40.1449C57.6851 40.1153 57.7248 40.078 57.7587 40.0775C58.1217 40.0732 58.4849 40.0749 58.8696 40.0749ZM54.7137 38.6449C55.7846 38.6449 56.8473 38.6449 57.9109 38.6449C57.8055 37.781 57.146 37.2092 56.2905 37.2254C55.2644 37.245 54.7731 38.0152 54.7137 38.6449Z" fill="white"/>
<path d="M29.7735 41.8488C28.3608 41.8476 27.2766 40.9173 27.0561 39.5166C26.8703 38.3357 27.349 37.2133 28.3116 36.6277C29.7735 35.738 32.0597 36.3049 32.4636 38.4455C32.6545 39.4565 32.435 40.3809 31.6672 41.1234C31.1669 41.6068 30.5292 41.8493 29.7735 41.8488ZM28.1168 38.9693C28.1243 39.09 28.1284 39.2111 28.1401 39.3313C28.2132 40.0845 28.7099 40.761 29.577 40.8446C30.52 40.9354 31.1361 40.4143 31.3442 39.6887C31.4518 39.3131 31.4668 38.931 31.383 38.5514C31.2447 37.9253 30.8958 37.4626 30.2566 37.3024C29.6056 37.1394 29.0028 37.245 28.5376 37.7824C28.244 38.1211 28.1391 38.5305 28.1168 38.9693Z" fill="white"/>
<path d="M75.655 44.1003C75.733 43.8827 75.8057 43.6785 75.8793 43.4747C76.1369 42.7624 76.3934 42.0496 76.6539 41.3383C76.6808 41.2649 76.6803 41.205 76.65 41.1326C76.0046 39.5897 75.3618 38.0461 74.7185 36.5023C74.7004 36.4585 74.6844 36.4136 74.6606 36.3519C74.8375 36.3519 75.0008 36.3519 75.1644 36.3519C75.3863 36.3519 75.6085 36.3565 75.8304 36.3497C75.9222 36.3468 75.9627 36.3773 75.9951 36.4631C76.3527 37.4089 76.7152 38.3534 77.0762 39.298C77.089 39.3319 77.0949 39.3748 77.1191 39.3964C77.1518 39.4252 77.2056 39.4601 77.2388 39.4509C77.279 39.4397 77.3226 39.3908 77.3379 39.3484C77.4818 38.9506 77.6192 38.5506 77.7602 38.1515C77.9615 37.5817 78.1631 37.0118 78.3683 36.4434C78.3814 36.4071 78.4257 36.3565 78.4562 36.356C78.8429 36.3499 79.2299 36.3521 79.634 36.3521C79.6182 36.402 79.6081 36.4396 79.5945 36.4759C78.6675 38.9813 77.7401 41.4865 76.8148 43.9927C76.7852 44.0727 76.7498 44.1044 76.6607 44.1027C76.3312 44.0967 76.001 44.1003 75.655 44.1003Z" fill="white"/>
<path d="M49.498 36.3718C49.8549 36.3718 50.2048 36.3718 50.567 36.3718C50.567 36.6328 50.567 36.8891 50.567 37.1336C50.7201 36.9676 50.8594 36.7859 51.029 36.6391C51.4838 36.2456 52.0311 36.1923 52.6014 36.2543C52.624 36.2568 52.6598 36.2984 52.6601 36.3222C52.664 36.6686 52.6627 37.0151 52.6627 37.3725C52.5084 37.3487 52.3669 37.3228 52.2242 37.3056C51.8758 37.2637 51.5412 37.2986 51.2313 37.4834C51.0189 37.6102 50.8643 37.7827 50.7688 38.0099C50.6436 38.3077 50.5873 38.6168 50.5893 38.941C50.5944 39.8169 50.591 40.693 50.591 41.5691C50.591 41.6168 50.591 41.6643 50.591 41.7193C50.222 41.7193 49.8646 41.7193 49.498 41.7193C49.498 39.9424 49.498 38.1645 49.498 36.3718Z" fill="white"/>
<path fill-rule="evenodd" clip-rule="evenodd" d="M49.8805 22.571C44.4969 25.4115 39.2282 23.8332 36.1494 18.906C32.8725 13.6619 34.2002 7.76265 39.8345 4.24193L45.4939 0.705566L49.8805 7.72557L54.2671 0.705566L59.9265 4.24193C65.5608 7.76265 66.8885 13.6619 63.6116 18.906C60.5328 23.8332 55.2641 25.4115 49.8805 22.571ZM46.2936 20.3765C43.5239 20.8061 40.893 19.5321 39.2796 16.9501C37.0326 13.3541 37.8888 9.20784 41.4697 6.97023L44.1492 5.29593L47.7739 11.0968L43.188 18.4359L46.2936 20.3765ZM53.4674 20.3765C56.2371 20.8061 58.868 19.5321 60.4814 16.9501C62.7284 13.3541 61.8722 9.20784 58.2913 6.97023L55.6118 5.29593L51.9871 11.0968L56.573 18.4359L53.4674 20.3765ZM49.8805 14.468L51.8577 17.6322L49.8805 18.8677L47.9033 17.6322L49.8805 14.468Z" fill="white"/>
<defs>
<clipPath id="clip0_16_347">
<rect width="100.03" height="9.92" fill="white" transform="translate(0 48)"/>
</clipPath>
</defs>
</svg>
