<svg width="58" height="59" viewBox="0 0 58 59" xmlns="http://www.w3.org/2000/svg">
    <g transform="translate(1 1.5)" fill="none" fill-rule="evenodd">
        <circle stroke="#FFF" stroke-width="2" opacity=".2" cx="28" cy="28" r="28"/>
        <path d="M37.803 29.901a.09.09 0 0 1 0 .09 11.53 11.53 0 0 1-6.66 7.51l-.05.05a4.37 4.37 0 0 1-8.5 0 .06.06 0 0 0 0-.06 11.69 11.69 0 0 1-1.6-.82l-.139-.378a11.51 11.51 0 0 1-.431-5.932.06.06 0 0 1 0-.06h.07a11.26 11.26 0 0 0 3.8 2.71h.05a4.37 4.37 0 0 1 6 .86h.06l.402-.06c.268-.044.534-.098.798-.16a11.67 11.67 0 0 0 6.11-3.75zm-16.42-13 .378.064a11.58 11.58 0 0 1 5.432 2.606.11.11 0 0 1 0 .08.11.11 0 0 1-.07.06 11.57 11.57 0 0 0-4.26 1.94.08.08 0 0 0 0 .07c.01.147.01.294 0 .44a4.41 4.41 0 0 1-3.74 4.33.08.08 0 0 0-.09 0c-.166.392-.31.792-.43 1.2a11.64 11.64 0 0 0 .19 7.15.08.08 0 0 1 0 .08.09.09 0 0 1-.07 0h-.06a11.39 11.39 0 0 1-3.16-9.51.06.06 0 0 0 0-.07 4.37 4.37 0 0 1 4.26-7.44.06.06 0 0 0 .07 0 11.34 11.34 0 0 1 1.55-1zm2.65-1.04a11.35 11.35 0 0 1 9.91 2.11h.05l.239-.065a4.35 4.35 0 0 1 5.041 2.635 4.35 4.35 0 0 1-1.21 4.83.07.07 0 0 0 0 .07c.068.507.102 1.018.1 1.53v.23a.08.08 0 0 1 0 .05 11.51 11.51 0 0 1-5.17 3.66h-.07a.06.06 0 0 1 0-.07 11.5 11.5 0 0 0 .45-4.59.1.1 0 0 0 0-.07 4.38 4.38 0 0 1-2.54-3.95c0-.57.111-1.134.33-1.66a.11.11 0 0 0 0-.08c-.26-.35-.54-.683-.84-1a11.61 11.61 0 0 0-6.29-3.47.08.08 0 0 1-.06-.08.08.08 0 0 1 .06-.08z" fill="#FFF" fill-rule="nonzero"/>
    </g>
</svg>
