<svg width="58" height="59" viewBox="0 0 58 59" xmlns="http://www.w3.org/2000/svg">
    <g transform="translate(1 1.5)" fill="none" fill-rule="evenodd">
        <path d="M34.58 40c.84 0 1.623-.149 2.35-.446.728-.298 1.38-.772 1.959-1.421.334-.379.603-.785.806-1.218A3.06 3.06 0 0 0 40 35.603c0-.325-.068-.64-.203-.947a1.865 1.865 0 0 0-.678-.785l-3.943-2.786a3.748 3.748 0 0 0-.847-.487 2.053 2.053 0 0 0-.739-.15c-.289 0-.571.08-.847.237a3.936 3.936 0 0 0-.847.684l-.935.893a.638.638 0 0 1-.488.202.856.856 0 0 1-.284-.047 3.694 3.694 0 0 1-.23-.088c-.407-.216-.925-.59-1.552-1.123a31.597 31.597 0 0 1-1.89-1.745 28.098 28.098 0 0 1-1.763-1.894c-.533-.631-.903-1.145-1.11-1.542a2.332 2.332 0 0 1-.102-.237.836.836 0 0 1-.048-.29.62.62 0 0 1 .203-.474l.908-.92c.29-.298.515-.584.678-.86.163-.274.244-.56.244-.858 0-.235-.052-.48-.156-.738a4.274 4.274 0 0 0-.481-.845l-2.778-3.883a1.997 1.997 0 0 0-.8-.697A2.357 2.357 0 0 0 20.296 16c-.885 0-1.712.37-2.48 1.11-.632.604-1.093 1.271-1.382 2.002A6.266 6.266 0 0 0 16 21.439c0 1.235.287 2.538.86 3.91.574 1.37 1.358 2.739 2.352 4.105a32.097 32.097 0 0 0 3.374 3.917 31.417 31.417 0 0 0 3.93 3.382c1.382 1.001 2.765 1.793 4.147 2.374 1.382.582 2.688.873 3.916.873z" fill="#FFF" fill-rule="nonzero"/>
        <circle stroke="#FFF" stroke-width="2" opacity=".2" cx="28" cy="28" r="28"/>
    </g>
</svg>
