<svg width="58" height="59" viewBox="0 0 58 59" xmlns="http://www.w3.org/2000/svg">
    <g transform="translate(1 1.5)" fill="none" fill-rule="evenodd">
        <circle stroke="#FFF" stroke-width="2" opacity=".2" cx="28" cy="28" r="28"/>
        <path d="M35.032 39.972c-.165.009-.287.02-.408.02-1.37.002-2.739-.007-4.108.008-.292.003-.42-.093-.508-.37-.602-1.882-1.222-3.759-1.836-5.637l-.151-.439c-.07.178-.118.285-.154.396-.615 1.878-1.235 3.754-1.835 5.637-.098.307-.238.41-.56.405-1.344-.018-2.688-.007-4.032-.007H21c.053-.187.085-.327.13-.462 1.312-3.877 2.627-7.752 3.925-11.633.077-.23.078-.529.002-.76-1.16-3.538-2.338-7.071-3.512-10.606-.047-.142-.088-.287-.148-.481.154-.014.273-.034.392-.035 1.344-.002 2.688.008 4.032-.008.295-.003.42.095.499.375.295 1.036.615 2.064.925 3.095.032.108.053.218.083.346l-.381.19a2.28 2.28 0 0 0-1.204 2.585c.253 1.053 1.201 1.772 2.325 1.76a2.333 2.333 0 0 0 2.24-1.823 2.245 2.245 0 0 0-1.25-2.522c-.313-.146-.363-.288-.262-.601.33-1.025.623-2.061.95-3.087.04-.12.2-.287.306-.288 1.47-.017 2.942-.01 4.412-.006.035 0 .07.022.149.05-.044.154-.082.308-.132.458-1.172 3.535-2.351 7.068-3.51 10.607-.076.23-.075.53.002.76 1.298 3.881 2.613 7.756 3.924 11.633.043.13.08.261.135.44" fill="#FFF"/>
    </g>
</svg>
