<svg xmlns="http://www.w3.org/2000/svg" width="16.064" height="16.064" viewBox="0 0 16.064 16.064">
  <path id="calendar" d="M45.77,33.149H45.2v-.558A.585.585,0,0,0,44.65,32a.574.574,0,0,0-.6.573v.574H36.016v-.558A.585.585,0,0,0,35.47,32a.574.574,0,0,0-.6.573v.574h-.574A2.3,2.3,0,0,0,32,35.444V45.771a2.3,2.3,0,0,0,2.295,2.295H45.77a2.3,2.3,0,0,0,2.295-2.295V35.444A2.3,2.3,0,0,0,45.77,33.149ZM35.729,45.771a.861.861,0,1,1,.861-.861A.861.861,0,0,1,35.729,45.771Zm0-2.869a.861.861,0,1,1,.861-.861A.861.861,0,0,1,35.729,42.9ZM38.6,45.771a.861.861,0,1,1,.861-.861A.861.861,0,0,1,38.6,45.771Zm0-2.869a.861.861,0,1,1,.861-.861A.861.861,0,0,1,38.6,42.9Zm2.869,2.869a.861.861,0,1,1,.861-.861A.861.861,0,0,1,41.467,45.771Zm0-2.869a.861.861,0,1,1,.861-.861A.861.861,0,0,1,41.467,42.9Zm0-2.869a.861.861,0,1,1,.861-.861A.861.861,0,0,1,41.467,40.034ZM44.335,42.9a.861.861,0,1,1,.861-.861A.861.861,0,0,1,44.335,42.9Zm0-2.869a.861.861,0,1,1,.861-.861A.861.861,0,0,1,44.335,40.034Zm2.582-4.3V36.3a.287.287,0,0,1-.287.287h-13.2a.287.287,0,0,1-.287-.287v-.861A1.151,1.151,0,0,1,34.295,34.3H45.77a1.151,1.151,0,0,1,1.147,1.147Z" transform="translate(-32 -32.001)" fill="#5edea8"/>
</svg>
