<svg xmlns="http://www.w3.org/2000/svg" width="14.737" height="16.077" viewBox="0 0 14.737 16.077">
  <g id="Group_860" data-name="Group 860" transform="translate(-21)">
    <path id="Path_735" data-name="Path 735" d="M26.861,116.381a2.851,2.851,0,0,1-2.847-2.847v-6.866H22.842A1.844,1.844,0,0,0,21,108.51v9.043a1.844,1.844,0,0,0,1.842,1.842h8.373a1.844,1.844,0,0,0,1.842-1.842v-1.172Z" transform="translate(0 -103.319)" fill="#5edea8"/>
    <path id="Path_736" data-name="Path 736" d="M159.718,1.842A1.842,1.842,0,0,0,157.876,0h-7.034A1.842,1.842,0,0,0,149,1.842v8.373a1.842,1.842,0,0,0,1.842,1.842h7.034a1.842,1.842,0,0,0,1.842-1.842Z" transform="translate(-123.981)" fill="#5edea8"/>
  </g>
</svg>
