<svg xmlns="http://www.w3.org/2000/svg" width="16.046" height="22.86" viewBox="0 0 16.046 22.86">
  <g id="Group_849" data-name="Group 849" transform="translate(-202.248 -136.945)">
    <path id="Path_724" data-name="Path 724" d="M211.4,156.492a.905.905,0,1,0,.9.906A.907.907,0,0,0,211.4,156.492Z" transform="translate(-1.129 -2.258)" fill="#5edea8"/>
    <path id="Path_725" data-name="Path 725" d="M211.163,152.188a4.813,4.813,0,0,0-3.341,1.345l1.166.334-.8,2.461h.8a2.283,2.283,0,0,1,4.353,0h.8l-.8-2.461,1.166-.334A4.809,4.809,0,0,0,211.163,152.188Z" transform="translate(-0.892 -1.81)" fill="#5edea8"/>
    <path id="Path_726" data-name="Path 726" d="M208.87,158.241h-1.249l-.358,1.1-.748-.122a4.843,4.843,0,0,0,3.843,3.115v-2.6A2.293,2.293,0,0,1,208.87,158.241Z" transform="translate(-0.616 -2.528)" fill="#5edea8"/>
    <path id="Path_727" data-name="Path 727" d="M218.186,152.694l-1.845-4.79a1.74,1.74,0,0,0-1.618-1.145h-8.905A1.739,1.739,0,0,0,204.2,147.9l-1.846,4.79a1.592,1.592,0,0,0,.415,1.757l2.529,2.239.468.08.762-2.454-.681-.2-.815.024L205,152.759l.6-.017a5.736,5.736,0,0,1,9.351,0l.6.017-.037,1.377-.815-.024-.681.2.762,2.454.468-.08,2.529-2.239A1.59,1.59,0,0,0,218.186,152.694Z" transform="translate(0 -1.294)" fill="#5edea8"/>
    <path id="Path_728" data-name="Path 728" d="M214.98,158.241h-1.249a2.293,2.293,0,0,1-1.488,1.488v2.6a4.843,4.843,0,0,0,3.843-3.115l-.748.122Z" transform="translate(-1.444 -2.528)" fill="#5edea8"/>
    <circle id="Ellipse_123" data-name="Ellipse 123" cx="4.128" cy="4.128" r="4.128" transform="translate(206.143 136.945)" fill="#5edea8"/>
  </g>
</svg>
