<svg xmlns="http://www.w3.org/2000/svg" width="16.048" height="14.105" viewBox="0 0 16.048 14.105">
  <g id="Group_914" data-name="Group 914" transform="translate(0 -30.999)">
    <path id="Path_761" data-name="Path 761" d="M3.322,35.7H14.136V32.409A1.41,1.41,0,0,0,12.725,31H1.41A1.41,1.41,0,0,0,0,32.409v7.522a1.41,1.41,0,0,0,1.41,1.41h.5v2.351a.47.47,0,0,0,.8.332L5.4,41.342H6.613V38.521H3.322a.47.47,0,0,1,0-.94H6.661a2.329,2.329,0,0,1,.435-.94H3.322a.47.47,0,1,1,0-.94Zm0-1.881h7.522a.47.47,0,0,1,0,.94H3.322a.47.47,0,0,1,0-.94Z" fill="#5edea8"/>
    <path id="Path_762" data-name="Path 762" d="M248.084,211H242.41a1.412,1.412,0,0,0-1.41,1.41v3.761a1.412,1.412,0,0,0,1.41,1.41h2.626l1.743,1.743a.47.47,0,0,0,.8-.332v-1.41h.5a1.412,1.412,0,0,0,1.41-1.41v-3.761a1.412,1.412,0,0,0-1.41-1.41Zm-1.58,3.153-1.41,1.41a.47.47,0,0,1-.665,0l-.705-.705a.47.47,0,0,1,.665-.665l.373.373,1.078-1.078a.47.47,0,1,1,.665.665Z" transform="translate(-233.446 -174.358)" fill="#5edea8"/>
  </g>
</svg>
