<svg width="58" height="59" viewBox="0 0 58 59" xmlns="http://www.w3.org/2000/svg" xmlns:xlink="http://www.w3.org/1999/xlink">
    <defs>
        <path id="a" d="M0 0h29.373v24H0z"/>
    </defs>
    <g transform="translate(1 1.5)" fill="none" fill-rule="evenodd">
        <g transform="translate(13 16)">
            <mask id="b" fill="#fff">
                <use xlink:href="#a"/>
            </mask>
            <path d="M26.031 3.768c.25-.243.585-.447.844-.663.296-.247.447-.458.682-.75.357-.443.846-1.195 1-1.875-.499.184-1.092.616-2.184.992-2.067.71-1.641.335-2.198-.083-1.264-.95-2.726-1.626-4.81-1.31-3.408.516-5.613 3.674-4.965 7.335-2.33.088-5.64-1.115-7.328-2.046-1.45-.799-2.938-1.888-4.026-3.014L1.938 1.15c-.347.393-.66 1.509-.761 2.147-.34 2.133.587 4.241 2.166 5.558.107.09.277.182.39.322-1.273-.002-1.83-.444-2.66-.711-.003 3.143 2.13 5.31 4.708 5.95-.08.062.015.028-.177.1l-1.1.14c-.497.011-.85-.07-1.302-.091.352 1.286 1.229 2.249 1.996 2.877.874.716 2.104 1.222 3.589 1.31-.173.276-1.276.91-1.693 1.14-2.387 1.315-4.392 1.46-7.094 1.388l.142.14c.105.083.01.011.111.074C2.787 23.073 6.15 23.992 9.156 24c6.497.018 11.782-3.213 14.912-8.608 1.775-3.06 2.28-5.894 2.315-9.447.86-.457 2.443-2.185 2.99-3.071-.234.05-.512.194-.774.286-.259.092-.534.181-.812.26-.536.152-1.177.306-1.756.348" fill="#FEFEFE" mask="url(#b)"/>
        </g>
        <circle stroke="#FFF" stroke-width="2" opacity=".2" cx="28" cy="28" r="28"/>
    </g>
</svg>
