<svg width="58" height="59" viewBox="0 0 58 59" xmlns="http://www.w3.org/2000/svg" xmlns:xlink="http://www.w3.org/1999/xlink">
    <defs>
        <path id="a" d="M0 0h27.049v24H0z"/>
    </defs>
    <g transform="translate(1 1.5)" fill="none" fill-rule="evenodd">
        <g transform="translate(14 16)">
            <mask id="b" fill="#fff">
                <use xlink:href="#a"/>
            </mask>
            <path d="M15.518 1.377c.802.139 3.79.617 4.237.98.557.456 1.08 2.565 3.068 1.489 1.122-.607 1.431-2.275.46-3.269-.426-.437-1.03-.676-1.774-.538-.825.154-1.293.897-1.33.825-.02-.036-.077.07-.118.101C18.643.692 15.706-.07 14.525.061l-1.557 7.48c-3.325.04-5.438 1.084-7.85 2.388-.872-.394-3.053-1.707-4.61.704-1.333 2.068.264 3.44 1.264 4.255C1.55 20.833 7.717 24.03 13.657 24c5.6-.028 11.805-2.693 11.76-9.228 3.256-1.21 1.213-6.624-2.386-5.277-.223.083-.352.168-.514.26-.451.258.021.038-.516.313-2.764-1.374-3.802-2.188-7.707-2.46l1.224-6.231zM6.877 14.666c-.585-2.909 3.66-3.342 3.929-.77.279 2.675-3.45 3.145-3.929.77zm9.37 0c-.412-2.795 3.515-3.257 3.898-.765.19 1.234-.563 2.29-1.642 2.397-1.11.11-2.112-.656-2.256-1.632zm-7.761 4.852c-.35-2.103 3.047 2.322 7.968.256.674-.284 1.997-1.424 2.171-.433.198 1.123-3.641 1.99-4.965 2.001-1.375.012-4.997-.756-5.174-1.824z" fill="#FEFEFE" mask="url(#b)"/>
        </g>
        <circle stroke="#FFF" stroke-width="2" opacity=".2" cx="28" cy="28" r="28"/>
    </g>
</svg>
