<svg xmlns="http://www.w3.org/2000/svg" width="20" height="20" viewBox="0 0 20 20">
  <g id="Group_842" data-name="Group 842" transform="translate(-204.028 -95.538)">
    <g id="Group_840" data-name="Group 840">
      <path id="Path_717" data-name="Path 717" d="M223.841,95.721a.635.635,0,0,0-.563-.172l-5.72,1.061a.706.706,0,0,0-.546.481.7.7,0,0,0,.176.7l.906.9-2.831,2.8a.579.579,0,0,0,0,.825l1.947,1.924a.593.593,0,0,0,.833,0l2.829-2.8.907.9a.713.713,0,0,0,.712.173.7.7,0,0,0,.484-.543l1.042-5.689A.622.622,0,0,0,223.841,95.721Z" fill="#fff"/>
    </g>
    <g id="Group_841" data-name="Group 841">
      <path id="Path_718" data-name="Path 718" d="M207.183,109.637l-.907-.9a.713.713,0,0,0-.712-.173.7.7,0,0,0-.485.543l-1.041,5.689a.622.622,0,0,0,.177.556.635.635,0,0,0,.563.172l5.72-1.061a.7.7,0,0,0,.37-1.184l-.906-.9,2.834-2.8a.579.579,0,0,0,0-.825l-1.951-1.928a.593.593,0,0,0-.833,0Z" fill="#fff"/>
    </g>
  </g>
</svg>
