<svg id="Group_978" data-name="Group 978" xmlns="http://www.w3.org/2000/svg" xmlns:xlink="http://www.w3.org/1999/xlink" width="256.313" height="143.587" viewBox="0 0 256.313 143.587">
  <defs>
    <clipPath id="clip-path">
      <rect id="Rectangle_330" data-name="Rectangle 330" width="256.313" height="143.587" fill="none"/>
    </clipPath>
    <clipPath id="clip-path-3">
      <rect id="Rectangle_327" data-name="Rectangle 327" width="84.34" height="9.392" fill="none"/>
    </clipPath>
    <clipPath id="clip-path-4">
      <rect id="Rectangle_328" data-name="Rectangle 328" width="61.381" height="6.778" fill="none"/>
    </clipPath>
  </defs>
  <g id="Group_977" data-name="Group 977" clip-path="url(#clip-path)">
    <g id="Group_976" data-name="Group 976">
      <g id="Group_975" data-name="Group 975" clip-path="url(#clip-path)">
        <g id="Group_971" data-name="Group 971" transform="translate(171.972 134.196)" style="mix-blend-mode: multiply;isolation: isolate">
          <g id="Group_970" data-name="Group 970">
            <g id="Group_969" data-name="Group 969" clip-path="url(#clip-path-3)">
              <path id="Path_1236" data-name="Path 1236" d="M428.286,273.088c0,2.594-18.88,4.7-42.17,4.7s-42.17-2.1-42.17-4.7,18.88-4.7,42.17-4.7,42.17,2.1,42.17,4.7" transform="translate(-343.946 -268.392)" fill="#e3beb6"/>
            </g>
          </g>
        </g>
        <path id="Path_1237" data-name="Path 1237" d="M230.153,75.94a27.646,27.646,0,0,0-4.049-8.028c.212-.079.382-.145.6-.227,1.712-.643,3.4-1.4,5.079-2.132a21.713,21.713,0,0,1,3.391,10.682,10.332,10.332,0,0,0-2.846.785,13.827,13.827,0,0,0-1.476.749c-.222-.59-.485-1.251-.7-1.827" transform="translate(-113.052 -32.777)" fill="#566c7d"/>
        <path id="Path_1238" data-name="Path 1238" d="M225.945,86.317c.243.612.469,1.217.7,1.841a2.236,2.236,0,0,0-1.4,2.25c.293,1.827,1.172,3.572.665,5.337a15.618,15.618,0,0,1-2.067,4.1,3.639,3.639,0,0,1-2.269-.459,19.584,19.584,0,0,1-3.881,5.36A20.053,20.053,0,0,0,219.352,93.9a23.75,23.75,0,0,1,6.593-7.586" transform="translate(-108.849 -43.159)" fill="#8a111d"/>
        <path id="Path_1239" data-name="Path 1239" d="M203.843,70.272a27.555,27.555,0,0,1,4.042,8.022,23.743,23.743,0,0,0-6.593,7.585,20.019,20.019,0,0,1-1.658,10.851c-2.21,1.794-4.543,3.17-7.434,2.625a6.58,6.58,0,0,1-3.522-2.2,26.14,26.14,0,0,1-7.1-13.615c6.346-5.9,14.356-9.848,22.264-13.271" transform="translate(-90.79 -35.136)" fill="#d12a1b"/>
        <path id="Path_1240" data-name="Path 1240" d="M269.043,56.018a13.355,13.355,0,0,1-2.05,5.414,40.277,40.277,0,0,1-6.257,7.328c-.2-.049-.385-.085-.588-.121-3.449,2.138-6.991,2.271-10.881,1.611-2.927-.5-5.443-1.214-8.408-.923a21.782,21.782,0,0,0-3.378-10.689,92.2,92.2,0,0,1,8.717-3.608c4.43-1.509,8.469-2.415,13.044-1.584a23.751,23.751,0,0,1,8.88-1.711,7.157,7.157,0,0,1,.922,4.283" transform="translate(-118.74 -25.868)" fill="#edba80"/>
        <path id="Path_1241" data-name="Path 1241" d="M305.985,58.918c1.325,2.886.471,5.811-1.237,8.168a10.657,10.657,0,0,1-7.06,3.922,18.838,18.838,0,0,1-7.5-.613c-2.234-.5-4.025-1.225-6.209-1.635a40.013,40.013,0,0,0,6.264-7.331,13.356,13.356,0,0,0,2.051-5.414,7.248,7.248,0,0,0-.917-4.286,25.371,25.371,0,0,1,6.266,1.078c3.431,1.2,6.805,2.764,8.342,6.111" transform="translate(-141.99 -25.865)" fill="#d68458"/>
        <path id="Path_1242" data-name="Path 1242" d="M222.344,91.921a34.141,34.141,0,0,1,2.376,7.351,6.352,6.352,0,0,0,3.336-3.232c-.174-2.632-.88-5.129-1.219-7.734a11.472,11.472,0,0,0-4.494,3.615" transform="translate(-111.172 -44.153)" fill="#d12a1b"/>
        <path id="Path_1243" data-name="Path 1243" d="M287.969,59.584c-.389.112-.206.036-.683.178s-.877.2-1.634.482a19.208,19.208,0,0,0-4.666,2.655,7.462,7.462,0,0,0-1.964,2.086,2.7,2.7,0,0,0-.084,2.168,6.925,6.925,0,0,0,.7,1.34c.2.359.165.242.329.534-.194-.249-.154-.173-.391-.474a6.986,6.986,0,0,1-.841-1.257,3.35,3.35,0,0,1-.328-1.086,2.87,2.87,0,0,1,.245-1.359,7.08,7.08,0,0,1,2.045-2.33,15.286,15.286,0,0,1,4.879-2.514,12.317,12.317,0,0,1,1.693-.325c.5-.1.3-.021.7-.1" transform="translate(-139.199 -29.792)" fill="#d68458"/>
        <path id="Path_1244" data-name="Path 1244" d="M485.765,241.466a25.91,25.91,0,0,0,5.145-1.28c-.02-.425-.06-.84-.08-1.265a13.141,13.141,0,0,1-5.1,1.635c-.215-.575-.46-1.135-.725-1.68a17.016,17.016,0,0,0,5.145-2.645,1.356,1.356,0,0,0-.625-.955,24.192,24.192,0,0,1-4.98,2.69c-.285-.545-.59-1.07-.915-1.585a17.432,17.432,0,0,0,5.06-3.15c-.255-.28-.4-.7-.66-.98a9.336,9.336,0,0,1-4.96,3.265,30.451,30.451,0,0,0-2.125-2.745,13.689,13.689,0,0,0,6.98-4.5,7.735,7.735,0,0,0,.635.815,27.3,27.3,0,0,1,4.55,5.895,75.925,75.925,0,0,1-.14,16.68,54.678,54.678,0,0,1-12.43.135c.38-1.93,1.68-3.625,2.855-5.28a15.461,15.461,0,0,0,1.67-3,17.337,17.337,0,0,1,5.925-.065,3.125,3.125,0,0,1,.1-1.14,22.1,22.1,0,0,0-5.655.265c.13-.365.24-.73.335-1.105" transform="translate(-240.271 -114.133)" fill="#566c7d"/>
        <path id="Path_1245" data-name="Path 1245" d="M355.74,246.3a22.776,22.776,0,0,1,5.565-.025,2.709,2.709,0,0,0,.17-1.015,45.65,45.65,0,0,0-5.61-.065,10.493,10.493,0,0,0,.02-1.255q-1.043-1.245-2.025-2.545a15.455,15.455,0,0,0,6.965-2.23,3.057,3.057,0,0,0,1.22,2.52,13.3,13.3,0,0,1,3.855,3.8,60.975,60.975,0,0,1-6.46,11.975,36.681,36.681,0,0,1-13.97.12,5.277,5.277,0,0,1,1.59-3.315,10.965,10.965,0,0,1,6.175-2.03c.06-.08.115-.165.175-.25a9.3,9.3,0,0,1,4.77,1.07c.22-.315.38-.605.6-.92a12.9,12.9,0,0,0-4.835-.995c.125-.2.24-.41.35-.625,1.785.16,3.535.475,5.31.8.115-.38.275-.745.39-1.13a16.416,16.416,0,0,0-5.18-.755c.17-.39.32-.8.455-1.21a17.963,17.963,0,0,1,5.355.455c.085-.385.135-.72.22-1.1a18.531,18.531,0,0,0-5.335-.175c.09-.36.17-.725.23-1.095" transform="translate(-172.736 -119.583)" fill="#566c7d"/>
        <path id="Path_1246" data-name="Path 1246" d="M492.85,258.366a75.925,75.925,0,0,0,.14-16.68,8.7,8.7,0,0,1,.86,2.83,54.694,54.694,0,0,1-.17,14.985,43.973,43.973,0,0,1-13.38.225,5.507,5.507,0,0,1,.12-1.225,54.679,54.679,0,0,0,12.43-.135" transform="translate(-240.15 -120.843)" fill="#fffbe4"/>
        <path id="Path_1247" data-name="Path 1247" d="M489.955,256.537a22.1,22.1,0,0,1,5.655-.265,3.125,3.125,0,0,0-.1,1.14,17.338,17.338,0,0,0-5.925.065c.135-.31.255-.62.365-.94" transform="translate(-244.796 -128.1)" fill="#fffbe4"/>
        <path id="Path_1248" data-name="Path 1248" d="M496.02,249.576c.02.425.06.84.08,1.265a25.91,25.91,0,0,1-5.145,1.28c.045-.165.085-.335.125-.5-.05-.135-.1-.275-.16-.41a13.141,13.141,0,0,0,5.1-1.635" transform="translate(-245.461 -124.788)" fill="#fffbe4"/>
        <path id="Path_1249" data-name="Path 1249" d="M493.53,242.286a1.356,1.356,0,0,1,.625.955,17.017,17.017,0,0,1-5.145,2.645c-.145-.31-.3-.615-.46-.91a24.191,24.191,0,0,0,4.98-2.69" transform="translate(-244.276 -121.143)" fill="#fffbe4"/>
        <path id="Path_1250" data-name="Path 1250" d="M485.6,239.5a9.336,9.336,0,0,0,4.96-3.265c.255.28.4.7.66.98a17.432,17.432,0,0,1-5.06,3.15c-.18-.295-.37-.58-.56-.865" transform="translate(-242.801 -118.118)" fill="#fffbe4"/>
        <path id="Path_1251" data-name="Path 1251" d="M366.135,251.169a45.653,45.653,0,0,1,5.61.065,2.71,2.71,0,0,1-.17,1.015,22.774,22.774,0,0,0-5.565.025c.06-.365.1-.73.125-1.105" transform="translate(-183.006 -125.556)" fill="#fffbe4"/>
        <path id="Path_1252" data-name="Path 1252" d="M370.645,255.685c-.085.385-.135.72-.22,1.105a17.963,17.963,0,0,0-5.355-.455q.135-.405.24-.825a18.531,18.531,0,0,1,5.335.175" transform="translate(-182.536 -127.698)" fill="#fffbe4"/>
        <path id="Path_1253" data-name="Path 1253" d="M368.82,260.449c-.115.385-.275.75-.39,1.13-1.775-.325-3.525-.64-5.31-.8.185-.345.36-.71.52-1.085a16.415,16.415,0,0,1,5.18.755" transform="translate(-181.561 -129.846)" fill="#fffbe4"/>
        <path id="Path_1254" data-name="Path 1254" d="M366.72,264.111c-.22.315-.38.605-.6.92a9.3,9.3,0,0,0-4.77-1.07c.185-.27.365-.55.535-.845a12.9,12.9,0,0,1,4.835.995" transform="translate(-180.676 -131.559)" fill="#fffbe4"/>
        <path id="Path_1255" data-name="Path 1255" d="M359.26,263.781a60.976,60.976,0,0,0,6.46-11.975,12.816,12.816,0,0,1,.725,1.255,53.333,53.333,0,0,1-6.82,11.565,32.767,32.767,0,0,1-14.515.2c.06-.295.115-.61.18-.93a36.68,36.68,0,0,0,13.97-.12" transform="translate(-172.556 -125.903)" fill="#fffbe4"/>
        <path id="Path_1256" data-name="Path 1256" d="M349.815,184.966A26.236,26.236,0,0,1,363,192.421c.385.4.755.81,1.11,1.235-.235.18-.465.36-.7.54a44.6,44.6,0,0,0-6.6-4.98,21.115,21.115,0,0,0-7.745-2.87c.235-.465.485-.925.745-1.38" transform="translate(-174.536 -92.483)" fill="#e69a1e"/>
        <path id="Path_1257" data-name="Path 1257" d="M441.6,184.941c.41-.525.8-1.06,1.18-1.6.2.26.4.525.59.785a25.777,25.777,0,0,1-10.485,10.34l-1.04-.435a40.8,40.8,0,0,0,8.89-8c.3-.355.585-.715.865-1.08" transform="translate(-215.926 -91.668)" fill="#e69a1e"/>
        <path id="Path_1258" data-name="Path 1258" d="M429.425,158.186a131.9,131.9,0,0,1,11.04,12.575c-.38.545-.77,1.08-1.18,1.6a35.722,35.722,0,0,0-12.075-13.515c.745-.21,1.48-.43,2.215-.665" transform="translate(-213.606 -79.093)" fill="#8a111d"/>
        <path id="Path_1259" data-name="Path 1259" d="M425.555,159.516a35.722,35.722,0,0,1,12.075,13.515c-.28.365-.565.725-.865,1.08A40.558,40.558,0,0,0,423.9,159.966c.555-.14,1.105-.29,1.655-.45" transform="translate(-211.951 -79.758)" fill="#e69a1e"/>
        <path id="Path_1260" data-name="Path 1260" d="M394.665,158.131a75.406,75.406,0,0,1-25.975,2.09,7.527,7.527,0,0,1-3.035-1c.04-.055.085-.1.13-.16-.115-.32-.23-.635-.355-.95,4.11,1.475,8.68,1.145,13.065.79,3.475-.285,6.97-.575,10.42-1.07a59.1,59.1,0,0,0,9.18-1.985c.125.38.255.755.39,1.12l.05.05c-.735.235-1.47.455-2.215.665-.55.16-1.1.31-1.655.45" transform="translate(-182.716 -77.923)" fill="#e69a1e"/>
        <path id="Path_1261" data-name="Path 1261" d="M391.635,187.531a12.186,12.186,0,0,0,1.59,2.41c-.235-.17-.465-.35-.7-.535a24.891,24.891,0,0,1-5.86-.62,82.776,82.776,0,0,0-8.62,5.78c-.355-.425-.725-.835-1.11-1.235a34.783,34.783,0,0,0,3.115-2.63q2.137-1.958,4.27-3.915a39.448,39.448,0,0,0,7.31.745" transform="translate(-188.471 -93.393)" fill="#8a111d"/>
        <path id="Path_1262" data-name="Path 1262" d="M387.23,160.416a40.558,40.558,0,0,1,12.865,14.145,40.8,40.8,0,0,1-8.89,8,51.235,51.235,0,0,1-11.17-5.81,12.186,12.186,0,0,1-1.59-2.41,39.448,39.448,0,0,1-7.31-.745q-2.138,1.957-4.27,3.915a34.783,34.783,0,0,1-3.115,2.63,26.236,26.236,0,0,0-13.19-7.455,71.516,71.516,0,0,1,7.66-11.185,7.527,7.527,0,0,0,3.035,1,75.407,75.407,0,0,0,25.975-2.09" transform="translate(-175.281 -80.208)" fill="#d12a1b"/>
        <path id="Path_1263" data-name="Path 1263" d="M461.76,201.356c1.04,1.62,1.74,3.625,2.86,5.23a13.689,13.689,0,0,1-6.98,4.5c-4.19-4.83-9.91-8.54-15.525-11.91a63.264,63.264,0,0,0-8.185-3.935,25.777,25.777,0,0,0,10.485-10.34,106.243,106.243,0,0,1,6.485,9.625,8.434,8.434,0,0,1,6.4,1.71,18.538,18.538,0,0,1,4.455,5.115" transform="translate(-216.966 -92.453)" fill="#edba80"/>
        <path id="Path_1264" data-name="Path 1264" d="M358.71,210.056c.035,1.07-.11,2.295-.03,3.39a15.455,15.455,0,0,1-6.965,2.23,79.925,79.925,0,0,1-10.535-18.96,68.637,68.637,0,0,1,3.945-8.99,21.116,21.116,0,0,1,7.745,2.87,44.6,44.6,0,0,1,6.6,4.98q-2.572,2.018-5.02,4.245a8.971,8.971,0,0,1,3.365,4.56,18.781,18.781,0,0,1,.895,5.675" transform="translate(-170.591 -93.863)" fill="#edba80"/>
        <path id="Path_1265" data-name="Path 1265" d="M377.6,99.616a59.1,59.1,0,0,1-9.18,1.985,66.714,66.714,0,0,0-5.585-19.365,73,73,0,0,1-15.07-2.61,146.331,146.331,0,0,0,16.12-1.075,47.341,47.341,0,0,0-8.24-18.41,97.29,97.29,0,0,0-28.41-4.195,26.1,26.1,0,0,1-2.79-5.5,82.19,82.19,0,0,1,17.135-7.06c8.155.03,19.15,4.15,26.995,7.98,6.33,14.95,5.065,36.115,9.025,48.25" transform="translate(-162.226 -21.693)" fill="#d68458"/>
        <path id="Path_1266" data-name="Path 1266" d="M361.61,108.661c-3.45.5-6.945.785-10.42,1.07-4.385.355-8.955.685-13.065-.79a64.255,64.255,0,0,0-13.635-21.92,7.321,7.321,0,0,1-2.535-.65A24.66,24.66,0,0,1,311.24,61.416c2.065-1.4,4.2-2.71,6.395-3.91a26.1,26.1,0,0,0,2.79,5.5,97.29,97.29,0,0,1,28.41,4.195,47.342,47.342,0,0,1,8.24,18.41,146.331,146.331,0,0,1-16.12,1.075,73,73,0,0,0,15.07,2.61,66.715,66.715,0,0,1,5.585,19.365" transform="translate(-155.411 -28.753)" fill="#edba80"/>
        <path id="Path_1267" data-name="Path 1267" d="M354.564,102.905l-.547-.381c-.177-.121-.391-.275-.627-.469s-.517-.4-.8-.664a18.385,18.385,0,0,1-1.895-1.939,18.338,18.338,0,0,1-3.284-5.756,18.287,18.287,0,0,1-.706-2.618c-.084-.376-.121-.723-.166-1.026s-.07-.564-.084-.778l-.049-.665.126.654c.037.21.086.467.162.761s.14.633.254,1a23.52,23.52,0,0,0,.856,2.526,24.211,24.211,0,0,0,3.219,5.641,23.651,23.651,0,0,0,1.738,2.022c.256.283.513.513.729.725s.41.389.573.527l.5.442" transform="translate(-173.204 -44.305)" fill="#d68458"/>
        <path id="Path_1268" data-name="Path 1268" d="M380,134.545l-.79-.879c-.51-.564-1.251-1.378-2.2-2.347a28.193,28.193,0,0,0-8.431-6.22,16.926,16.926,0,0,0-2.816-.977,11.815,11.815,0,0,0-2.732-.392,5.263,5.263,0,0,0-2.391.483,3.3,3.3,0,0,0-1.483,1.477,5.183,5.183,0,0,0-.495,1.719,10.636,10.636,0,0,0-.076,1.375c0,.759.034,1.18.034,1.18s-.06-.416-.112-1.177a10.132,10.132,0,0,1,0-1.393,5.276,5.276,0,0,1,.428-1.812,3.555,3.555,0,0,1,1.549-1.669,5.518,5.518,0,0,1,2.548-.6,11.65,11.65,0,0,1,2.848.35,16.142,16.142,0,0,1,2.906.985,21.414,21.414,0,0,1,4.98,3.153,33.344,33.344,0,0,1,3.431,3.353c.909,1.017,1.6,1.874,2.077,2.468l.73.93" transform="translate(-179.243 -61.652)" fill="#d68458"/>
        <path id="Path_1269" data-name="Path 1269" d="M374.931,143.224l-.379-.51c-.245-.328-.584-.816-.982-1.433a29.906,29.906,0,0,1-4.243-10.6c-.138-.721-.229-1.307-.279-1.714s-.078-.632-.078-.632l.155.617c.1.4.247.969.444,1.671a54.346,54.346,0,0,0,4.216,10.532c.341.644.626,1.163.831,1.516l.314.553" transform="translate(-184.486 -64.168)" fill="#d68458"/>
        <path id="Path_1270" data-name="Path 1270" d="M374.167,139.234s-2.326.409-5.216.606-5.25.107-5.25.107,2.326-.409,5.216-.606,5.25-.107,5.25-.107" transform="translate(-181.851 -69.607)" fill="#d68458"/>
        <path id="Path_1271" data-name="Path 1271" d="M378.159,151.852s-2.587-.212-5.723-.777-5.635-1.269-5.635-1.269,2.587.212,5.723.777,5.634,1.268,5.634,1.268" transform="translate(-183.401 -74.903)" fill="#d68458"/>
        <path id="Path_1272" data-name="Path 1272" d="M366.215,225.474l-.4-.413c-.26-.266-.618-.667-1.04-1.18a21.59,21.59,0,0,1-4.449-9.31c-.135-.65-.221-1.182-.264-1.55s-.07-.571-.07-.571l.146.557c.089.358.236.873.43,1.5a35.405,35.405,0,0,0,4.408,9.223c.368.546.676.984.9,1.279l.341.464" transform="translate(-179.996 -106.225)" fill="#d68458"/>
        <path id="Path_1273" data-name="Path 1273" d="M473.852,216.307s-.429-.1-1.1-.321a15.068,15.068,0,0,1-4.823-2.659c-.548-.449-.858-.76-.858-.76l3.389,1.873,3.393,1.866" transform="translate(-233.536 -106.284)" fill="#d68458"/>
        <path id="Path_1274" data-name="Path 1274" d="M332.315,11.94a28.232,28.232,0,0,1,.67,6.575c-.015.61-.055,1.22-.12,1.82a10.939,10.939,0,0,1-1.81,0,4.739,4.739,0,0,0,.065-.535,2.335,2.335,0,0,0-.625-1.955,2.007,2.007,0,0,0-2.3-.015,3.18,3.18,0,0,0-.575.46,29.011,29.011,0,0,0-1.96-11.31c-1.385.34-2.615,1.355-4.04,1.42a104.145,104.145,0,0,1-14.24-.3,8.331,8.331,0,0,1,.845-1.28c1.2-1.5,3.665-2.385,5.44-2.925a17.774,17.774,0,0,1,11.225,0,11.6,11.6,0,0,1,7.425,8.045" transform="translate(-153.691 -1.492)" fill="#c4a791"/>
        <path id="Path_1275" data-name="Path 1275" d="M306.25,30.731l1.655.03c-.15.435-.37,1.03-.515,1.465a15.191,15.191,0,0,0-2.9-.115,1.608,1.608,0,0,1,1.005-.565,2.878,2.878,0,0,0-1.675-2.5,2.715,2.715,0,0,1,2.43,1.685" transform="translate(-151.911 -14.523)" fill="#6e142a"/>
        <path id="Path_1276" data-name="Path 1276" d="M330.07,29.472a5,5,0,0,0-3.57,1.67,2.812,2.812,0,0,1,2.125,1.22,21.857,21.857,0,0,0-5.57-.13c-.08-.51-.14-1.08-.215-1.59a17.987,17.987,0,0,0,3.065-.215,6.509,6.509,0,0,1,1.945-1.21,2.292,2.292,0,0,1,2.22.255" transform="translate(-161.421 -14.524)" fill="#6e142a"/>
        <path id="Path_1277" data-name="Path 1277" d="M324.725,51.629a30.322,30.322,0,0,0-13.1,1.59A15.924,15.924,0,0,1,317.915,51a16.426,16.426,0,0,1,6.81.625" transform="translate(-155.811 -25.442)" fill="#d97b57"/>
        <path id="Path_1278" data-name="Path 1278" d="M315.08,33.738a17.39,17.39,0,0,1,.525,5.61c-1.295.67-3.015,1.355-4.36,1.055a8.779,8.779,0,0,1-2.565-1.04,16.1,16.1,0,0,1,2.48-5.865,11.916,11.916,0,0,1,3.92.24" transform="translate(-154.341 -16.715)" fill="#d97b57"/>
        <path id="Path_1279" data-name="Path 1279" d="M349.715,34.826a5.565,5.565,0,0,1-1.415,2.85,5.472,5.472,0,0,1-3.3,1.65c-.175-1.585-.67-3.865.225-5.19a8.233,8.233,0,0,1,1.06-1.355,3.18,3.18,0,0,1,.575-.46,2.007,2.007,0,0,1,2.3.015,2.335,2.335,0,0,1,.625,1.955,4.739,4.739,0,0,1-.065.535" transform="translate(-172.351 -15.983)" fill="#d97b57"/>
        <path id="Path_1280" data-name="Path 1280" d="M311.379,28.121a17.39,17.39,0,0,0-.525-5.61,11.916,11.916,0,0,0-3.92-.24,16.1,16.1,0,0,0-2.48,5.865,8.779,8.779,0,0,0,2.565,1.04c1.345.3,3.065-.385,4.36-1.055m.37-4.925a21.858,21.858,0,0,1,5.57.13,2.812,2.812,0,0,0-2.125-1.22,5,5,0,0,1,3.57-1.67,2.292,2.292,0,0,0-2.22-.255,6.508,6.508,0,0,0-1.945,1.21,17.987,17.987,0,0,1-3.065.215c.075.51.135,1.08.215,1.59M301.574,20.3c.495-2.64.875-5.76,2.23-8.2a104.145,104.145,0,0,0,14.24.3c1.425-.065,2.655-1.08,4.04-1.42a29.011,29.011,0,0,1,1.96,11.31,8.232,8.232,0,0,0-1.06,1.355c-.895,1.325-.4,3.6-.225,5.19a5.472,5.472,0,0,0,3.3-1.65,5.565,5.565,0,0,0,1.415-2.85,10.939,10.939,0,0,0,1.81,0v.01c-.015.145-.03.285-.05.425-.025.185-.05.37-.08.555s-.055.345-.09.515c-.025.135-.05.27-.08.4s-.065.3-.1.445c-.04.17-.085.335-.13.5s-.085.315-.135.47c-.055.185-.11.37-.175.545-.055.155-.11.31-.165.46-.07.18-.14.355-.215.53-.06.14-.12.285-.185.425-.145.315-.3.625-.47.925-.105.19-.21.375-.32.56-.08.14-.16.28-.245.415-.245.415-.5.83-.765,1.24-.3.455-.6.91-.915,1.36-.16.23-.325.46-.49.69-.35.49-.71.97-1.085,1.45q-.4.525-.81,1.035c-.14.175-.285.35-.43.525q-.488.6-.99,1.185-1.035,1.208-2.1,2.36a91.147,91.147,0,0,1-18.35-.34c-1.05-.12-.6-9.03-.57-9.73A75.8,75.8,0,0,1,301.574,20.3m.45-.29a2.877,2.877,0,0,1,1.675,2.5,1.608,1.608,0,0,0-1,.565,15.191,15.191,0,0,1,2.9.115c.145-.435.365-1.03.515-1.465l-1.655-.03a2.715,2.715,0,0,0-2.43-1.685m3.9,13.255a30.322,30.322,0,0,1,13.1-1.59,16.427,16.427,0,0,0-6.81-.625,15.924,15.924,0,0,0-6.295,2.215" transform="translate(-150.114 -5.488)" fill="#edba80"/>
        <path id="Path_1281" data-name="Path 1281" d="M350.425,35.866c.065-.6.1-1.21.12-1.82a106.88,106.88,0,0,1,10.035,6.235,16.105,16.105,0,0,1-4.73,9.455,16.194,16.194,0,0,1-9.735,4.185,36.3,36.3,0,0,0-3.615-3.38q.5-.585.99-1.185c.145-.17.285-.345.43-.525q.413-.51.81-1.035c.375-.48.735-.96,1.085-1.45.165-.23.33-.46.49-.69.315-.45.62-.9.915-1.36.26-.41.52-.825.765-1.24.085-.14.165-.275.245-.415.11-.185.215-.37.32-.56.17-.3.325-.61.47-.925.065-.14.13-.28.185-.425.075-.175.145-.35.215-.53.06-.15.115-.3.165-.46.065-.175.12-.36.175-.545.05-.155.1-.31.135-.47s.09-.335.13-.5c.035-.145.07-.295.1-.445s.055-.27.08-.4c.035-.17.065-.34.09-.515s.055-.37.08-.555c.02-.14.035-.28.05-.425Z" transform="translate(-171.251 -17.023)" fill="#d68458"/>
        <path id="Path_1282" data-name="Path 1282" d="M324.285,61.546c-.324.454-.641.915-.983,1.356l-1.027,1.325c-.714.859-1.445,1.7-2.167,2.559l-.047.055-.083.009c-1.528.162-3.062.255-4.6.316s-3.073.042-4.608,0-3.068-.139-4.6-.284-3.051-.333-4.565-.575c1.531.1,3.06.186,4.587.265s3.057.111,4.585.142,3.055-.007,4.583-.033,3.052-.121,4.576-.234l-.13.064c.755-.818,1.519-1.629,2.268-2.454l1.114-1.247Z" transform="translate(-150.806 -30.773)" fill="#d68458"/>
        <path id="Path_1283" data-name="Path 1283" d="M368.62,90.4a21.372,21.372,0,0,0-.83,9.31,16.555,16.555,0,0,0,.445,2.02,11.082,11.082,0,0,0,5.66.835,32.085,32.085,0,0,0,7.035-1.595,14.672,14.672,0,0,0,8.195,1.06,20.68,20.68,0,0,0,3.175-8.045,31.818,31.818,0,0,0-6.54-9.92c-2.25-2.38-5.765-2.345-8.76-1.84-1.43.245-3.41.455-4.645,1.235-2.1,1.34-3.09,4.675-3.735,6.94" transform="translate(-183.79 -40.974)" fill="#d12a1b"/>
        <path id="Path_1284" data-name="Path 1284" d="M392.956,106.021a20.681,20.681,0,0,1-3.175,8.045,14.672,14.672,0,0,1-8.195-1.06,32.085,32.085,0,0,1-7.035,1.595,11.083,11.083,0,0,1-5.66-.835,6.672,6.672,0,0,0,1.665,2.96,6.572,6.572,0,0,0,4.85,1.61,21.761,21.761,0,0,0,5.39-1.135c2.24,1.54,5.11,1.445,7.565,2.62l.23.11a18.669,18.669,0,0,0,4.99-12.555c-.05-.01-.1-.015-.15-.02-.14-.445-.3-.89-.475-1.335" transform="translate(-184.446 -53.011)" fill="#8a111d"/>
        <path id="Path_1285" data-name="Path 1285" d="M408.291,121.286a40.147,40.147,0,0,0,4.165,1.66,13.642,13.642,0,0,0,3.675-13.75c-1.06-.195-2.09-.38-2.85-.465a18.67,18.67,0,0,1-4.99,12.555" transform="translate(-204.146 -54.366)" fill="#566c7d"/>
        <path id="Path_1286" data-name="Path 1286" d="M406.314,57.546a19.1,19.1,0,0,0,5.36,18.155,52.462,52.462,0,0,1,6.955,8.085c-.945-.1-2.375-.365-3.76-.62a13.642,13.642,0,0,1-3.675,13.75c5.71,1.935,12.435,2.9,17.895,2.035a22.422,22.422,0,0,0,2.12-13.975c-.68-4.745-1.89-9.62-4.57-13.615a15.181,15.181,0,0,0-20.325-13.815" transform="translate(-202.885 -28.336)" fill="#edba80"/>
        <path id="Path_1287" data-name="Path 1287" d="M431.388,83.45l-.465.035c-.3.024-.736.037-1.275.026a15.1,15.1,0,0,1-7.972-2.476c-.451-.3-.8-.554-1.036-.744L420.278,80l.406.228c.258.15.641.353,1.116.592a25.729,25.729,0,0,0,7.867,2.444c.528.072.958.122,1.256.145l.464.042" transform="translate(-210.14 -40)" fill="#d68458"/>
        <path id="Path_1288" data-name="Path 1288" d="M439.648,113.54,438.422,113c-.757-.326-1.807-.744-2.981-1.163s-2.254-.755-3.046-.979l-1.29-.356a12.985,12.985,0,0,1,1.34.111,15.127,15.127,0,0,1,6.092,2.165,13.028,13.028,0,0,1,1.11.76" transform="translate(-215.553 -55.252)" fill="#d68458"/>
        <path id="Path_1289" data-name="Path 1289" d="M358.989,164.642c.04-.055.085-.105.13-.16-.022-.061-.047-.121-.069-.183a71.653,71.653,0,0,0-5.442,7.719,71.641,71.641,0,0,1,5.381-7.376" transform="translate(-176.805 -82.15)" fill="#fffbe4"/>
        <path id="Path_1290" data-name="Path 1290" d="M346.5,268.727a2.532,2.532,0,0,1,.331-.289,10.938,10.938,0,0,1,6.166-2.03c.06-.08.115-.165.174-.25.185-.27.365-.55.534-.845.039-.062.071-.13.108-.194-.022.031-.043.064-.066.094a10.965,10.965,0,0,0-6.175,2.03,3.345,3.345,0,0,0-1.073,1.484" transform="translate(-173.252 -132.56)" fill="#fffbe4"/>
        <path id="Path_1291" data-name="Path 1291" d="M484.522,267.062l-.091.13.063-.089c.01-.013.018-.028.028-.042" transform="translate(-242.216 -133.532)" fill="#fffbe4"/>
        <path id="Path_1292" data-name="Path 1292" d="M307.365,8.014c1.2-1.5,3.659-2.385,5.432-2.925a17.721,17.721,0,0,1,11.208,0,11.6,11.6,0,0,1,7.414,8.045,28.254,28.254,0,0,1,.669,6.575,106.749,106.749,0,0,1,9.885,6.143,93.087,93.087,0,0,1,15.4,5.679,15.149,15.149,0,0,1,19.11,14.179c2.676,3.995,3.884,8.87,4.563,13.615a23.068,23.068,0,0,1-1.538,12.811c.079-.012.163-.018.242-.031a22.422,22.422,0,0,0,2.12-13.975c-.68-4.745-1.89-9.62-4.57-13.615a15.168,15.168,0,0,0-19.139-14.179,93.333,93.333,0,0,0-15.42-5.679,107.055,107.055,0,0,0-9.9-6.143,28.232,28.232,0,0,0-.67-6.575,11.6,11.6,0,0,0-7.425-8.045,17.774,17.774,0,0,0-11.225,0c-1.775.54-4.235,1.425-5.44,2.925a8.331,8.331,0,0,0-.845,1.28c-.054.1-.1.2-.147.3.092-.129.181-.261.28-.385" transform="translate(-153.543 -1.492)" fill="rgba(167,165,157,0.5)"/>
        <path id="Path_1293" data-name="Path 1293" d="M298.98,51.745l-.2-.017c.065.125.124.253.184.38.006-.121.014-.243.02-.363" transform="translate(-149.389 -25.864)" fill="#fffbe4"/>
        <path id="Path_1294" data-name="Path 1294" d="M181.7,81.72c6.215-5.531,13.9-9.319,21.5-12.612h0c.212-.079.381-.145.6-.227,1.71-.643,3.394-1.4,5.071-2.132q.71,1.146.007,0,.521-.244,1.059-.49c-.134-.233-.263-.466-.408-.7-1.68.737-3.366,1.489-5.079,2.132-.219.082-.388.148-.6.227h0c-7.907,3.423-15.917,7.375-22.263,13.271.037.181.079.357.118.536" transform="translate(-90.79 -32.777)" fill="#a7a59d"/>
        <path id="Path_1295" data-name="Path 1295" d="M466.482,194.885a8.7,8.7,0,0,0-.86-2.83,27.3,27.3,0,0,0-4.55-5.895,7.739,7.739,0,0,1-.635-.815c-1.12-1.6-1.82-3.61-2.86-5.23A18.538,18.538,0,0,0,453.122,175a8.434,8.434,0,0,0-6.4-1.71,106.232,106.232,0,0,0-6.485-9.625c-.19-.26-.39-.525-.59-.785a131.9,131.9,0,0,0-11.04-12.575l-.05-.05c-.135-.365-.265-.74-.39-1.12a48.812,48.812,0,0,1-1.559-6.51c-.346-.065-.694-.127-1.039-.2a53.171,53.171,0,0,0,1.793,7.9c.125.38.255.755.39,1.12l.05.05a131.857,131.857,0,0,1,11.023,12.575c.2.26.4.525.589.785a106.238,106.238,0,0,1,6.475,9.625,8.413,8.413,0,0,1,6.4,1.71,18.53,18.53,0,0,1,4.448,5.115c1.038,1.62,1.738,3.625,2.855,5.23a7.8,7.8,0,0,0,.634.815,27.3,27.3,0,0,1,4.544,5.895,8.72,8.72,0,0,1,.858,2.83,55.483,55.483,0,0,1-.02,13.9c.238-.037.477-.068.713-.11a54.693,54.693,0,0,0,.17-14.985" transform="translate(-212.783 -71.213)" fill="rgba(167,165,157,0.5)"/>
        <path id="Path_1296" data-name="Path 1296" d="M372.413,228.3a3.057,3.057,0,0,1-1.22-2.52c-.08-1.1.065-2.32.03-3.39a18.781,18.781,0,0,0-.895-5.675,9.151,9.151,0,0,0-3.036-4.319c-.361.319-.727.628-1.085.954a8.97,8.97,0,0,1,3.36,4.56,18.811,18.811,0,0,1,.893,5.675c.035,1.07-.109,2.295-.03,3.39a3.058,3.058,0,0,0,1.219,2.52,13.29,13.29,0,0,1,3.849,3.8,12.922,12.922,0,0,1,.724,1.255,48.737,48.737,0,0,1-3.615,6.93,49.83,49.83,0,0,0,4.387-8.125,12.83,12.83,0,0,0-.725-1.255,13.3,13.3,0,0,0-3.855-3.8" transform="translate(-183.104 -106.199)" fill="rgba(167,165,157,0.5)"/>
        <path id="Path_1297" data-name="Path 1297" d="M232.124,93.481a1.856,1.856,0,0,0-.65,1.7c.292,1.827,1.17,3.572.663,5.337a10.145,10.145,0,0,1-.63,1.636,11.646,11.646,0,0,0,1.285-2.831c.507-1.766-.372-3.51-.664-5.337a1.775,1.775,0,0,1,0-.509" transform="translate(-115.725 -46.741)" fill="#a7a59d"/>
        <path id="Path_1298" data-name="Path 1298" d="M217.253,121.975h0c.2-.521.393-1.041.549-1.561-.157.52-.345,1.04-.55,1.562" transform="translate(-108.627 -60.207)" fill="#fffbe4"/>
        <path id="Path_1299" data-name="Path 1299" d="M245.526,56.225c4.423-1.51,8.456-2.415,13.024-1.585a23.7,23.7,0,0,1,8.866-1.712,9.032,9.032,0,0,1,.51,1.132,9.471,9.471,0,0,0-.5-1.134c.276.021.556.044.84.069,0-.053,0-.1.005-.126.01-.25.031-.5.043-.75-.062-.129-.123-.259-.191-.385a23.773,23.773,0,0,0-8.88,1.712c-4.575-.83-8.614.075-13.044,1.585a91.823,91.823,0,0,0-8.717,3.607c.144.235.273.469.406.7,2.482-1.134,5.2-2.283,7.641-3.116" transform="translate(-118.74 -25.867)" fill="rgba(167,165,157,0.5)"/>
        <g id="Group_974" data-name="Group 974" transform="translate(5.609 135.998)" style="mix-blend-mode: multiply;isolation: isolate">
          <g id="Group_973" data-name="Group 973">
            <g id="Group_972" data-name="Group 972" clip-path="url(#clip-path-4)">
              <path id="Path_1300" data-name="Path 1300" d="M72.6,275.387c0,1.872-13.74,3.389-30.69,3.389s-30.69-1.517-30.69-3.389S24.958,272,41.908,272s30.69,1.517,30.69,3.389" transform="translate(-11.218 -271.998)" fill="#e3beb6"/>
            </g>
          </g>
        </g>
        <path id="Path_1301" data-name="Path 1301" d="M207.355,75.706c.055.11.1.22.145.33q-.51,1.042-1.09,2.045c-.1.17-.205.345-.305.52a42.4,42.4,0,0,1-8.94,10.03c-1.36,1.19-2.75,2.355-4.155,3.5-1.1.895-2.215,1.78-3.34,2.64a20.455,20.455,0,0,1-8.6-9.1c.04-.045.08-.1.12-.14a22.256,22.256,0,0,1-2.12-4.225,13.6,13.6,0,0,0,11.545,3.28c.005.06.01.115.01.175a7.87,7.87,0,0,0-.375-3.11,14.1,14.1,0,0,1-10.19-6.795,16.985,16.985,0,0,1,1.6-1.545,13.1,13.1,0,0,1,.555-4.765l.3-.24a48.483,48.483,0,0,0,16.395,10.065,56.607,56.607,0,0,0,8.44-2.665" transform="translate(-89.535 -34.153)" fill="#13606e"/>
        <path id="Path_1302" data-name="Path 1302" d="M189.466,88.2a7.869,7.869,0,0,1,.375,3.11c0-.06,0-.115-.01-.175a13.6,13.6,0,0,1-11.545-3.28,18.846,18.846,0,0,1-.71-2.275c-.345-1.43.565-2.925,1.7-4.175a14.1,14.1,0,0,0,10.19,6.795" transform="translate(-88.751 -40.703)" fill="#197d8f"/>
        <path id="Path_1303" data-name="Path 1303" d="M196.09,57.626A23.721,23.721,0,0,1,210.8,70.366a56.607,56.607,0,0,1-8.44,2.665A48.484,48.484,0,0,1,185.97,62.966a30.615,30.615,0,0,1,10.12-5.34" transform="translate(-92.985 -28.813)" fill="#197d8f"/>
        <path id="Path_1304" data-name="Path 1304" d="M189.235,112.136c-1.54,1.2-3.1,2.37-4.68,3.51-.21.155-.425.305-.64.46a25.558,25.558,0,0,1-5.715-10.865,13.062,13.062,0,0,0,2.435-2.2,20.455,20.455,0,0,0,8.6,9.1" transform="translate(-89.1 -51.518)" fill="#566c7d"/>
        <path id="Path_1305" data-name="Path 1305" d="M131.082,64.408a9.5,9.5,0,0,1,1.255.63c-1.42,2.715-1.695,5.895-1.84,8.97a135.255,135.255,0,0,0,.5,19.565c-1.27-1.58-2.48-3.2-3.64-4.855a37.658,37.658,0,0,1-5.83-11.1c-1.15-4.04-1.075-8.58,1.01-12.225,1.515-2.65,5.725-2.16,8.545-.985" transform="translate(-60.393 -31.73)" fill="#9e5339"/>
        <path id="Path_1306" data-name="Path 1306" d="M159.057,87.031A25.558,25.558,0,0,0,164.772,97.9a47.031,47.031,0,0,1-10.93,6.14c-.45.165-2.875,1.26-3.245.99a54.542,54.542,0,0,1-10.035-9.875,135.255,135.255,0,0,1-.5-19.565c.145-3.075.42-6.255,1.84-8.97a14.464,14.464,0,0,1,5.215,5.615,37.356,37.356,0,0,1,3.09,8.6c3.365,1.8,4.4,4.33,5.17,8.075a15.307,15.307,0,0,0,3.68-1.88" transform="translate(-69.957 -33.308)" fill="#ba6e54"/>
        <path id="Path_1307" data-name="Path 1307" d="M145.822,95.084l-.479.081a9.827,9.827,0,0,1-1.323.12,11.54,11.54,0,0,1-1.977-.11,11.633,11.633,0,0,1-4.544-1.66,11.517,11.517,0,0,1-1.582-1.19,9.661,9.661,0,0,1-.934-.945l-.314-.37.368.314c.232.206.588.484,1.036.8a16.108,16.108,0,0,0,7.953,2.906c.549.044,1,.061,1.31.052l.485,0" transform="translate(-67.335 -45.505)" fill="#9e5339"/>
        <path id="Path_1308" data-name="Path 1308" d="M164.023,112.916s-.01.124-.044.348a5.443,5.443,0,0,1-.234.934,5.7,5.7,0,0,1-4.779,3.826,5.473,5.473,0,0,1-.962.024c-.226-.016-.349-.034-.349-.034l.346-.044a7.449,7.449,0,0,0,5.9-4.726l.119-.327" transform="translate(-78.828 -56.458)" fill="#9e5339"/>
        <path id="Path_1309" data-name="Path 1309" d="M70.923,46.151a23.467,23.467,0,0,1-5.385,5.395A120.443,120.443,0,0,0,45.1,55.021a40.979,40.979,0,0,0-3.75,24.985,45.373,45.373,0,0,0,12.545,1.625,105.325,105.325,0,0,1-13.325,1.22,50.689,50.689,0,0,0,1.235,19.07q-2.5-.2-4.965-.655c-1.475-3.85-4.565-8.9-5.82-12.855-1.6-5.055-3.225-10.25-2.9-15.545.56-9.065,5.09-17.76,9.7-25.585a98.8,98.8,0,0,1,18.935-6.595c2.56.145,5.215,1.43,7.535,2.4,2.24.94,4.46,1.96,6.635,3.06" transform="translate(-14.038 -20.343)" fill="#9e5339"/>
        <path id="Path_1310" data-name="Path 1310" d="M108.08,252.251c-.145.235-.29.475-.43.72a10.1,10.1,0,0,1-3.16-.87,3.569,3.569,0,0,1,.4-.9,8.465,8.465,0,0,0,3.19,1.055" transform="translate(-52.245 -125.598)" fill="#fffbe4"/>
        <path id="Path_1311" data-name="Path 1311" d="M107.585,258.221a24.5,24.5,0,0,0-4.345.295,2.155,2.155,0,0,1,.025-1.245c1.21-.04,2.53-.05,3.79-.075.17.345.35.685.53,1.025" transform="translate(-51.58 -128.599)" fill="#fffbe4"/>
        <path id="Path_1312" data-name="Path 1312" d="M108.655,260.736c.215.395.44.78.67,1.165a26.839,26.839,0,0,0-4.235,1.255,4.539,4.539,0,0,1-.61-1.31,15.689,15.689,0,0,1,4.175-1.11" transform="translate(-52.24 -130.369)" fill="#fffbe4"/>
        <path id="Path_1313" data-name="Path 1313" d="M112.28,265.536c.17.28.355.555.545.83a28.978,28.978,0,0,0-3.395,1.53c-.205-.225-.39-.545-.59-.77a12.966,12.966,0,0,1,3.44-1.59" transform="translate(-54.42 -132.769)" fill="#fffbe4"/>
        <path id="Path_1314" data-name="Path 1314" d="M98.235,271.211a65.523,65.523,0,0,0,15.2-.33c.115.22.23.44.335.665a53.786,53.786,0,0,1-17.35.83,15.168,15.168,0,0,0-3.525-6.365c0-.4.015-.8.05-1.2a31.882,31.882,0,0,1,5.285,6.4" transform="translate(-46.45 -132.404)" fill="#fffbe4"/>
        <path id="Path_1315" data-name="Path 1315" d="M20.025,269.351a25.524,25.524,0,0,0,12.815.975,4.362,4.362,0,0,1,.06.955,36.982,36.982,0,0,1-13.97.1,21.7,21.7,0,0,1-.635-6.8,8.439,8.439,0,0,1,.33-1.7,22.618,22.618,0,0,0,1.4,6.475" transform="translate(-9.12 -131.439)" fill="#fffbe4"/>
        <path id="Path_1316" data-name="Path 1316" d="M32.195,265.539c.375.37.74.745,1.125,1.11a14.039,14.039,0,0,0-7.19.755c-.28-.265-.635-.44-.91-.7a10.98,10.98,0,0,1,6.975-1.16" transform="translate(-12.61 -132.701)" fill="#fffbe4"/>
        <path id="Path_1317" data-name="Path 1317" d="M31.235,259.451c-.06.37-.1.74-.145,1.11a11.626,11.626,0,0,1-6.38-.11c.08-.33.145-.735.225-1.065a23.941,23.941,0,0,0,6.3.065" transform="translate(-12.355 -129.693)" fill="#fffbe4"/>
        <path id="Path_1318" data-name="Path 1318" d="M32.165,254.876c-.075.265-.145.535-.2.8a15.965,15.965,0,0,1-6.33.01,2.455,2.455,0,0,0,.265-1.1,14.349,14.349,0,0,0,6.27.28" transform="translate(-12.815 -127.299)" fill="#fffbe4"/>
        <path id="Path_1319" data-name="Path 1319" d="M33.5,250.261c-.125.32-.245.64-.36.97a22.54,22.54,0,0,1-6.29-.5c.06-.355.12-.7.18-1.055a23.852,23.852,0,0,0,6.47.585" transform="translate(-13.425 -124.838)" fill="#fffbe4"/>
        <path id="Path_1320" data-name="Path 1320" d="M98.16,251.611a24.5,24.5,0,0,1,4.345-.295c.135.25.27.5.41.745a15.689,15.689,0,0,0-4.175,1.11,4.539,4.539,0,0,0,.61,1.31,26.84,26.84,0,0,1,4.235-1.255c.25.415.5.83.775,1.235a12.965,12.965,0,0,0-3.44,1.59c.2.225.385.545.59.77a28.988,28.988,0,0,1,3.395-1.53c.275.41.555.815.85,1.215a53.987,53.987,0,0,1,5.535.455,15.283,15.283,0,0,1,2.2,3.21,65.52,65.52,0,0,1-15.2.33A31.882,31.882,0,0,0,93,254.1a12.909,12.909,0,0,1,1.56-5.33c.9-1.6,2.695-3.525,3.32-5.38a7.367,7.367,0,0,0,6.02,2.42c-.515.815-1.04,1.66-1.565,2.54a8.464,8.464,0,0,1-3.19-1.055,3.568,3.568,0,0,0-.4.9,10.1,10.1,0,0,0,3.16.87c-.1.165-.2.33-.295.495.12.245.24.49.365.73-1.26.025-2.58.035-3.79.075a2.155,2.155,0,0,0-.025,1.245" transform="translate(-46.5 -121.693)" fill="#566c7d"/>
        <path id="Path_1321" data-name="Path 1321" d="M25.615,243.626a7.668,7.668,0,0,0,4.7.4c-.27.52-.515,1.06-.74,1.6a23.852,23.852,0,0,1-6.47-.585c-.06.35-.12.7-.18,1.055a22.54,22.54,0,0,0,6.29.5c-.135.39-.255.785-.365,1.185a14.349,14.349,0,0,1-6.27-.28,2.455,2.455,0,0,1-.265,1.1,15.964,15.964,0,0,0,6.33-.01c-.1.455-.195.915-.265,1.375a23.942,23.942,0,0,1-6.3-.065c-.08.33-.145.735-.225,1.065a11.626,11.626,0,0,0,6.38.11c-.035.355-.06.715-.075,1.075.32.29.625.59.925.9a10.98,10.98,0,0,0-6.975,1.16c.275.265.63.44.91.705a14.039,14.039,0,0,1,7.19-.755c.12.115.24.23.36.34a11.05,11.05,0,0,1,1.89,2.59,6.25,6.25,0,0,1,.76,2.01,25.524,25.524,0,0,1-12.815-.975,22.618,22.618,0,0,1-1.4-6.475c.59-2.085,1.775-4.145,2.1-6.225.255-1.675.485-3.375.9-5.01a7.665,7.665,0,0,0,3.6,3.22" transform="translate(-9.505 -120.203)" fill="#566c7d"/>
        <path id="Path_1322" data-name="Path 1322" d="M112.72,187.866a47.951,47.951,0,0,0-13.44,6.255c-.3-.29-.6-.585-.92-.885.62-.4,1.245-.785,1.88-1.17a68.833,68.833,0,0,1,11.815-5.64c.23.485.455.965.665,1.44" transform="translate(-49.18 -93.213)" fill="#e69a1e"/>
        <path id="Path_1323" data-name="Path 1323" d="M90.91,191.331c-.635.385-1.26.77-1.88,1.17a79.69,79.69,0,0,0-6.48-5.495,14.643,14.643,0,0,0-2.8.26c-.015.055-.03.115-.045.17.1-.635.205-1.27.31-1.9,1.215-.115,2.35-.455,3.56-.575a20.527,20.527,0,0,1,7.34,6.375" transform="translate(-39.85 -92.478)" fill="#13606e"/>
        <path id="Path_1324" data-name="Path 1324" d="M45.335,194.546a57.323,57.323,0,0,0,13.54,3.49c-.245.545-.5,1.085-.77,1.62a29.206,29.206,0,0,1-15.5-4.795c.065-.46.125-.925.19-1.385.485.225.975.435,1.47.635.355.155.715.3,1.075.435" transform="translate(-21.3 -96.738)" fill="#e69a1e"/>
        <path id="Path_1325" data-name="Path 1325" d="M50.565,159a54.06,54.06,0,0,0,25.785-4.16c.195.26.385.52.565.78a47.069,47.069,0,0,1-28,4.86c-.55-.075-1.095-.16-1.64-.26-.485-.08-.965-.175-1.44-.275.015-.37.015-.69,0-.96-.075-.21-.15-.425-.24-.64q2.467.45,4.965.655" transform="translate(-22.8 -77.418)" fill="#e69a1e"/>
        <path id="Path_1326" data-name="Path 1326" d="M49.075,165.856q-1.042,7.372-2.08,14.75c-.36-.135-.72-.28-1.075-.435q1-7.26,1.515-14.575c.545.1,1.09.185,1.64.26" transform="translate(-22.96 -82.798)" fill="#e69a1e"/>
        <path id="Path_1327" data-name="Path 1327" d="M42.98,179.261c.775-5.76,1.46-11.365,1.545-14.215.475.1.955.2,1.44.275q-.51,7.313-1.515,14.575c-.495-.2-.985-.41-1.47-.635" transform="translate(-21.49 -82.523)" fill="#13606e"/>
        <path id="Path_1328" data-name="Path 1328" d="M86.91,171.411a68.833,68.833,0,0,0-11.815,5.64,20.527,20.527,0,0,0-7.34-6.375c-1.21.12-2.345.46-3.56.575-.105.635-.21,1.27-.31,1.9a41.707,41.707,0,0,1-2.275,6.34,57.323,57.323,0,0,1-13.54-3.49q1.035-7.38,2.08-14.75a47.069,47.069,0,0,0,28-4.86,97.093,97.093,0,0,1,8.76,15.015" transform="translate(-24.035 -78.198)" fill="#197d8f"/>
        <path id="Path_1329" data-name="Path 1329" d="M49.315,201.041A46.754,46.754,0,0,1,41.6,212.086c-2.72,2.9-6.08,5.855-8,9.335-.1.17-.185.345-.275.52a7.523,7.523,0,0,1-8.3-3.615,15.994,15.994,0,0,1,.965-2.775c1.13-2.425,3.23-4.58,5.875-5,.375-3.11,1.185-8.685,1.95-14.3a29.206,29.206,0,0,0,15.5,4.795" transform="translate(-12.51 -98.123)" fill="#ba6e54"/>
        <path id="Path_1330" data-name="Path 1330" d="M113.64,189.306a64.121,64.121,0,0,1,4.735,13.655c-4.065,5.92-7.37,10.26-10.875,15.8a7.367,7.367,0,0,1-6.02-2.42,4.69,4.69,0,0,0,.2-.875,22.671,22.671,0,0,1,1.18-6.255c.82-1.965,2.5-3.735,4.62-3.955-.57-2.215-3.365-5.86-7.28-9.7a47.951,47.951,0,0,1,13.44-6.255" transform="translate(-50.1 -94.653)" fill="#ba6e54"/>
        <path id="Path_1331" data-name="Path 1331" d="M94.177,58.586c2.96,4.45.045,10.635-2.545,14.485a62.223,62.223,0,0,1-12.4,13.655,62.112,62.112,0,0,0-.075,15.74c.19.255.375.505.555.76a54.06,54.06,0,0,1-25.785,4.16,50.689,50.689,0,0,1-1.235-19.07A105.325,105.325,0,0,0,66.013,87.1a45.373,45.373,0,0,1-12.545-1.625,40.979,40.979,0,0,1,3.75-24.985,120.442,120.442,0,0,1,20.44-3.475,23.467,23.467,0,0,0,5.385-5.395c1.945.975,3.86,2.02,5.73,3.13,1.8,1.075,4.2,2.04,5.4,3.84" transform="translate(-26.158 -25.808)" fill="#ba6e54"/>
        <path id="Path_1332" data-name="Path 1332" d="M85.535,131.609l-.624.271c-.4.177-.994.405-1.739.655a24.118,24.118,0,0,1-12.15.81c-.771-.148-1.389-.3-1.81-.419l-.654-.185.671.109c.43.076,1.057.162,1.83.247a34.912,34.912,0,0,0,12.044-.8c.756-.187,1.366-.355,1.782-.488l.65-.2" transform="translate(-34.279 -65.805)" fill="#9e5339"/>
        <path id="Path_1333" data-name="Path 1333" d="M87.1,143.7s-.671.209-1.776.471a34.18,34.18,0,0,1-8.809.913c-1.135-.03-1.835-.1-1.835-.1l1.827-.153c1.128-.1,2.679-.241,4.39-.417s3.259-.354,4.382-.492l1.82-.225" transform="translate(-37.34 -71.851)" fill="#9e5339"/>
        <path id="Path_1334" data-name="Path 1334" d="M87.808,142.582s.018-.188.052-.527.078-.829.117-1.434a36.49,36.49,0,0,0-.646-9.389c-.121-.594-.227-1.075-.312-1.4s-.124-.515-.124-.515l.2.492c.13.316.3.782.479,1.366a20.467,20.467,0,0,1,.652,9.479c-.1.6-.2,1.088-.288,1.419l-.13.514" transform="translate(-43.448 -64.656)" fill="#9e5339"/>
        <path id="Path_1335" data-name="Path 1335" d="M82.138,126.291s-.295-.13-.837-.333a14.623,14.623,0,0,0-2.353-.649,14.635,14.635,0,0,0-14.275,5.236,14.6,14.6,0,0,0-1.375,2.016c-.282.506-.424.795-.424.795s.112-.3.354-.83a13.19,13.19,0,0,1,1.246-2.132A13.586,13.586,0,0,1,79,125.065a13.169,13.169,0,0,1,2.329.821c.527.247.807.4.807.4" transform="translate(-31.437 -62.321)" fill="#9e5339"/>
        <path id="Path_1336" data-name="Path 1336" d="M98.319,76.694s.021.311.061.873c.022.282.042.627.041,1.028s.021.859-.008,1.364a27.146,27.146,0,0,1-.345,3.54A27.088,27.088,0,0,1,95.3,91.744a27.077,27.077,0,0,1-1.859,3.032c-.28.421-.573.774-.816,1.093s-.465.583-.653.795l-.575.66.514-.708c.168-.226.37-.5.586-.84s.483-.7.735-1.138a33.779,33.779,0,0,0,1.691-3.083,34.323,34.323,0,0,0,2.727-8.13,33.679,33.679,0,0,0,.51-3.48c.061-.5.073-.952.1-1.351s.037-.742.038-1.024c.012-.564.018-.875.018-.875" transform="translate(-45.7 -38.347)" fill="#9e5339"/>
        <path id="Path_1337" data-name="Path 1337" d="M34.893,232.182a6.457,6.457,0,0,1-.238,1,7.606,7.606,0,0,1-2.89,3.962,6.469,6.469,0,0,1-.878.531s.286-.27.714-.72a19.242,19.242,0,0,0,2.824-3.871c.3-.545.468-.9.468-.9" transform="translate(-15.444 -116.091)" fill="#9e5339"/>
        <path id="Path_1338" data-name="Path 1338" d="M113.5,225.175s-.018.158-.051.445a11.387,11.387,0,0,1-.214,1.206,13.205,13.205,0,0,1-4.047,6.9,11.366,11.366,0,0,1-.948.776l-.363.261.312-.32c.2-.2.485-.508.82-.892a21.561,21.561,0,0,0,3.985-6.8c.171-.48.3-.875.378-1.151l.127-.429" transform="translate(-53.941 -112.588)" fill="#9e5339"/>
        <path id="Path_1339" data-name="Path 1339" d="M63.88,84.974a21.371,21.371,0,0,1,.83,9.31,16.554,16.554,0,0,1-.445,2.02,11.083,11.083,0,0,1-5.66.835,32.085,32.085,0,0,1-7.035-1.595,14.672,14.672,0,0,1-8.195,1.06A20.681,20.681,0,0,1,40.2,88.559a31.819,31.819,0,0,1,6.54-9.92c2.25-2.38,5.765-2.345,8.76-1.84,1.43.245,3.41.455,4.645,1.235,2.1,1.34,3.09,4.675,3.735,6.94" transform="translate(-20.1 -38.261)" fill="#197d8f"/>
        <path id="Path_1340" data-name="Path 1340" d="M39.575,100.6a20.681,20.681,0,0,0,3.175,8.045,14.672,14.672,0,0,0,8.195-1.06,32.085,32.085,0,0,0,7.035,1.595,11.083,11.083,0,0,0,5.66-.835,6.672,6.672,0,0,1-1.665,2.96,6.572,6.572,0,0,1-4.85,1.61,21.762,21.762,0,0,1-5.39-1.135c-2.24,1.54-5.11,1.445-7.565,2.62l-.23.11a18.67,18.67,0,0,1-4.99-12.555c.05-.01.1-.015.15-.02.14-.445.3-.89.475-1.335" transform="translate(-19.475 -50.298)" fill="#13606e"/>
        <path id="Path_1341" data-name="Path 1341" d="M40.535,115.861a40.142,40.142,0,0,1-4.165,1.66,13.641,13.641,0,0,1-3.675-13.75c1.06-.195,2.09-.38,2.85-.465a18.67,18.67,0,0,0,4.99,12.555" transform="translate(-16.07 -51.653)" fill="#566c7d"/>
        <path id="Path_1342" data-name="Path 1342" d="M25.18,52.121a19.1,19.1,0,0,1-5.36,18.155,52.464,52.464,0,0,0-6.955,8.085c.945-.1,2.375-.365,3.76-.62A13.641,13.641,0,0,0,20.3,91.491C14.59,93.426,7.865,94.4,2.4,93.526A22.422,22.422,0,0,1,.285,79.551c.68-4.745,1.89-9.62,4.57-13.615a15.444,15.444,0,0,1,6.64-12.09A15.43,15.43,0,0,1,25.18,52.121" transform="translate(0 -25.623)" fill="#ba6e54"/>
        <path id="Path_1343" data-name="Path 1343" d="M27.556,70.96l-.382.452a16.174,16.174,0,0,1-1.111,1.177A18.827,18.827,0,0,1,16.7,77.534a16.137,16.137,0,0,1-1.6.254l-.589.061.576-.137c.37-.082.9-.225,1.55-.42A27.5,27.5,0,0,0,25.9,72.4c.526-.425.943-.784,1.22-1.044l.438-.4" transform="translate(-7.257 -35.48)" fill="#9e5339"/>
        <path id="Path_1344" data-name="Path 1344" d="M16.85,105.694l-.451.036c-.289.017-.706.067-1.213.15A15.361,15.361,0,0,0,8,109.145c-.4.328-.708.609-.911.815l-.323.316.265-.368a9.1,9.1,0,0,1,.8-.947,10.8,10.8,0,0,1,7.331-3.33,8.984,8.984,0,0,1,1.239.021l.451.042" transform="translate(-3.382 -52.81)" fill="#9e5339"/>
        <path id="Path_1345" data-name="Path 1345" d="M126.41,28.312a75.8,75.8,0,0,0-1.225-10.995c-.495-2.64-.875-5.76-2.23-8.2a104.146,104.146,0,0,1-14.24.3c-1.425-.065-2.655-1.08-4.04-1.42a29.011,29.011,0,0,0-1.96,11.31,8.232,8.232,0,0,1,1.06,1.355c.895,1.325.4,3.6.225,5.19a5.472,5.472,0,0,1-3.3-1.65,5.565,5.565,0,0,1-1.415-2.85,10.939,10.939,0,0,1-1.81,0v.01c.015.145.03.285.05.425.025.185.05.37.08.555s.055.345.09.515c.025.135.05.27.08.4.03.15.065.3.1.445.04.17.085.335.13.5s.085.315.135.47c.055.185.11.37.175.545.055.155.11.31.165.46.07.18.14.355.215.53.06.14.12.285.185.425.145.315.3.625.47.925.105.19.21.375.32.56.08.14.16.28.245.415.245.415.505.83.765,1.24.3.455.6.91.915,1.36.16.23.325.46.49.69.35.49.71.97,1.085,1.45q.4.525.81,1.035c.14.175.285.35.43.525q.487.6.99,1.185,1.035,1.207,2.095,2.36a91.148,91.148,0,0,0,18.35-.34c1.05-.12.6-9.03.57-9.73" transform="translate(-48.735 -3.996)" fill="#ba6e54"/>
        <path id="Path_1346" data-name="Path 1346" d="M97.894,8.956a28.231,28.231,0,0,0-.67,6.575c.015.61.055,1.22.12,1.82a10.939,10.939,0,0,0,1.81,0,4.739,4.739,0,0,1-.065-.535,2.335,2.335,0,0,1,.625-1.955,2.007,2.007,0,0,1,2.3-.015,3.181,3.181,0,0,1,.575.46A29.011,29.011,0,0,1,104.549,4c1.385.34,2.615,1.355,4.04,1.42a104.146,104.146,0,0,0,14.24-.3,8.332,8.332,0,0,0-.845-1.28c-1.2-1.5-3.665-2.385-5.44-2.925a17.774,17.774,0,0,0-11.225,0,11.6,11.6,0,0,0-7.425,8.045" transform="translate(-48.609 0)" fill="#540f23"/>
        <path id="Path_1347" data-name="Path 1347" d="M145.485,27.747l-1.655.03c.15.435.37,1.03.515,1.465a15.191,15.191,0,0,1,2.9-.115,1.608,1.608,0,0,0-1.005-.565,2.878,2.878,0,0,1,1.675-2.5,2.715,2.715,0,0,0-2.43,1.685" transform="translate(-71.915 -13.031)" fill="#540f23"/>
        <path id="Path_1348" data-name="Path 1348" d="M118.52,26.488a5,5,0,0,1,3.57,1.67,2.811,2.811,0,0,0-2.125,1.22,21.857,21.857,0,0,1,5.57-.13c.08-.51.14-1.08.215-1.59a17.987,17.987,0,0,1-3.065-.215,6.508,6.508,0,0,0-1.945-1.21,2.292,2.292,0,0,0-2.22.255" transform="translate(-59.26 -13.032)" fill="#540f23"/>
        <path id="Path_1349" data-name="Path 1349" d="M133.783,30.754a17.388,17.388,0,0,0-.525,5.61c1.295.67,3.015,1.355,4.36,1.055a8.779,8.779,0,0,0,2.565-1.04,16.1,16.1,0,0,0-2.48-5.865,11.916,11.916,0,0,0-3.92.24" transform="translate(-66.613 -15.223)" fill="#8c2e32"/>
        <path id="Path_1350" data-name="Path 1350" d="M101.017,31.842a5.565,5.565,0,0,0,1.415,2.85,5.472,5.472,0,0,0,3.3,1.65c.175-1.585.67-3.865-.225-5.19a8.232,8.232,0,0,0-1.06-1.355,3.182,3.182,0,0,0-.575-.46,2.007,2.007,0,0,0-2.3.015,2.335,2.335,0,0,0-.625,1.955,4.735,4.735,0,0,0,.065.535" transform="translate(-50.472 -14.491)" fill="#8c2e32"/>
        <path id="Path_1351" data-name="Path 1351" d="M87.315,32.882c-.065-.6-.105-1.21-.12-1.82A106.875,106.875,0,0,0,77.16,37.3a16.105,16.105,0,0,0,4.73,9.455,16.194,16.194,0,0,0,9.735,4.185,36.3,36.3,0,0,1,3.615-3.38q-.5-.585-.99-1.185c-.145-.17-.285-.345-.43-.525q-.413-.51-.81-1.035c-.375-.48-.735-.96-1.085-1.45-.165-.23-.33-.46-.49-.69-.315-.45-.62-.9-.915-1.36-.26-.41-.52-.825-.765-1.24-.085-.14-.165-.275-.245-.415-.11-.185-.215-.37-.32-.56-.17-.3-.325-.61-.47-.925-.065-.14-.13-.28-.185-.425-.075-.175-.145-.35-.215-.53-.06-.15-.115-.3-.165-.46-.065-.175-.12-.36-.175-.545-.05-.155-.1-.31-.135-.47s-.09-.335-.13-.5c-.035-.145-.07-.295-.1-.445-.03-.135-.055-.27-.08-.4-.035-.17-.065-.34-.09-.515s-.055-.37-.08-.555c-.02-.14-.035-.28-.05-.425Z" transform="translate(-38.58 -15.531)" fill="#9e5339"/>
        <path id="Path_1352" data-name="Path 1352" d="M131.535,63.327c-1.514.242-3.037.439-4.566.574s-3.06.247-4.6.285-3.072.067-4.607,0-3.07-.154-4.6-.315l-.083-.009-.047-.056c-.723-.854-1.452-1.7-2.166-2.559l-1.027-1.325c-.342-.441-.66-.9-.983-1.357l1.091,1.268,1.114,1.247c.749.824,1.513,1.636,2.268,2.453l-.131-.064c1.524.113,3.049.2,4.576.235s3.055.062,4.583.033,3.056-.073,4.585-.142,3.057-.163,4.587-.265" transform="translate(-54.43 -29.281)" fill="#9e5339"/>
        <path id="Path_1353" data-name="Path 1353" d="M121.01,49.966a41.534,41.534,0,0,1,11.455,1.35,3.852,3.852,0,0,1-1.54,1,7.455,7.455,0,0,1-2.335.2,18.635,18.635,0,0,1-4.215-.485,7.136,7.136,0,0,1-3.365-2.065" transform="translate(-60.505 -24.978)" fill="#9c4448"/>
        <path id="Path_1354" data-name="Path 1354" d="M130.215,49.045a21.747,21.747,0,0,1,2.66,1.215c-1.005-.26-2.02-.49-3.04-.7l-.025.025a41.534,41.534,0,0,0-11.455-1.35.6.6,0,0,1-.08-.08c-.86-.03-1.715-.045-2.575-.04,1.21-.135,2.4-.275,3.59-.38a17.142,17.142,0,0,1,5.225-1.24,6.911,6.911,0,0,1,5.79,2.365,1.633,1.633,0,0,1-.09.19" transform="translate(-57.85 -23.242)" fill="#8c2e32"/>
        <path id="Path_1355" data-name="Path 1355" d="M41.3,268.66c.119.115.238.23.357.34a8.679,8.679,0,0,1,1.41,1.811,6.959,6.959,0,0,0-.475-1,11.05,11.05,0,0,0-1.89-2.59c-.12-.11-.24-.225-.36-.34-.35-.332-.685-.672-1.024-1.01-.021.259-.043.518-.054.779.317.29.62.59.918.895.372.37.734.745,1.117,1.11" transform="translate(-19.632 -132.939)" fill="#fffbe4"/>
        <path id="Path_1356" data-name="Path 1356" d="M171,107.339c.155.569.294,1.168.424,1.806a15.157,15.157,0,0,0,3.654-1.88,13.046,13.046,0,0,0,2.418-2.2c.039-.045.079-.1.119-.14-.282-.437-.549-.9-.809-1.385a13.189,13.189,0,0,1-2.208,1.956,15.293,15.293,0,0,1-3.6,1.848" transform="translate(-85.501 -51.768)" fill="rgba(167,165,157,0.5)"/>
        <path id="Path_1357" data-name="Path 1357" d="M151.934,76.849A26.315,26.315,0,0,1,153.8,81.28a30.1,30.1,0,0,0-2.43-6.205,16.876,16.876,0,0,0-1.9-2.771c-.35.042-.7.087-1.05.125a15.629,15.629,0,0,1,3.511,4.42" transform="translate(-74.212 -36.152)" fill="#a7a59d"/>
        <path id="Path_1358" data-name="Path 1358" d="M116.5,170.734a97.093,97.093,0,0,0-8.76-15.015c-.156-.225-.323-.451-.491-.677.035.3.063.609.1.911.188.255.372.5.551.76.194.26.383.52.561.78a97.264,97.264,0,0,1,8.7,15.015c.229.485.452.965.66,1.44.916,2.04,1.69,3.95,2.331,5.67-.747-2.143-1.735-4.67-2.988-7.444-.21-.475-.435-.955-.665-1.44" transform="translate(-53.625 -77.521)" fill="rgba(255,251,228,0.5)" stroke="#a7a59d" stroke-width="1"/>
        <path id="Path_1359" data-name="Path 1359" d="M178,75.152c-.154-1.333.7-2.7,1.741-3.861a16.923,16.923,0,0,1,1.594-1.545,13.181,13.181,0,0,1,.551-4.765l.3-.24a30.328,30.328,0,0,1,10.049-5.34,23.78,23.78,0,0,1,14.2,11.848c.095-.184.191-.367.283-.552-.045-.11-.09-.22-.145-.33a23.721,23.721,0,0,0-14.715-12.74,30.614,30.614,0,0,0-10.12,5.34l-.3.24a13.1,13.1,0,0,0-.555,4.765,16.985,16.985,0,0,0-1.6,1.545c-1.135,1.25-2.045,2.745-1.7,4.175.116.479.265.969.428,1.46" transform="translate(-88.751 -28.814)" fill="rgba(167,165,157,0.5)"/>
        <path id="Path_1360" data-name="Path 1360" d="M122.816,267.95a15.283,15.283,0,0,0-2.2-3.21,53.97,53.97,0,0,0-5.535-.455c-.3-.4-.575-.8-.85-1.215-.19-.275-.375-.55-.545-.83-.27-.4-.525-.82-.775-1.235-.23-.385-.455-.77-.67-1.165-.14-.245-.275-.495-.41-.745-.026-.05-.051-.1-.078-.151-.033.057-.066.113-.1.17.119.245.238.49.363.73.169.345.347.685.526,1.025.134.25.268.5.407.745.213.395.437.78.665,1.165.248.415.5.83.77,1.235.169.28.353.555.541.83.273.41.551.815.844,1.215a53.244,53.244,0,0,1,5.5.455,14.021,14.021,0,0,1,1.586,2.158c.1-.02.2-.036.3-.057-.1-.225-.22-.445-.335-.665" transform="translate(-55.827 -129.473)" fill="#fffbe4"/>
        <path id="Path_1361" data-name="Path 1361" d="M93.727,244.792a12.979,12.979,0,0,1,1.549-5.33c.9-1.6,2.676-3.525,3.3-5.38a4.724,4.724,0,0,0,.2-.875,22.829,22.829,0,0,1,1.172-6.255c.814-1.965,2.488-3.735,4.588-3.955a7.948,7.948,0,0,0-.745-1.767,6.11,6.11,0,0,0-4.575,3.948,22.671,22.671,0,0,0-1.18,6.255,4.691,4.691,0,0,1-.2.875c-.625,1.855-2.415,3.78-3.32,5.38a12.909,12.909,0,0,0-1.56,5.33c-.035.4-.05.8-.05,1.205.28.314.545.64.8.97.007-.133.014-.267.025-.4" transform="translate(-46.45 -110.615)" fill="rgba(167,165,157,0.5)"/>
        <path id="Path_1362" data-name="Path 1362" d="M19.333,203.625a8.5,8.5,0,0,1,.327-1.7c.586-2.085,1.763-4.145,2.085-6.225.253-1.675.481-3.375.9-5.01a16.1,16.1,0,0,1,.958-2.775c1.122-2.425,3.207-4.58,5.834-5,.372-3.11,1.176-8.685,1.936-14.3.064-.46.124-.925.188-1.385.769-5.76,1.449-11.365,1.534-14.215.015-.37.015-.69,0-.96-.074-.21-.149-.425-.238-.64-1.465-3.85-4.533-8.9-5.779-12.855q-.177-.563-.353-1.128c-.126.031-.254.056-.381.087,1.376,3.828,4.185,8.506,5.571,12.122.09.215.165.43.24.64.01.27.01.59-.005.96-.085,2.85-.77,8.455-1.545,14.215-.065.46-.125.925-.19,1.385-.765,5.62-1.575,11.195-1.95,14.3-2.645.42-4.745,2.575-5.875,5a16,16,0,0,0-.965,2.775c-.42,1.635-.65,3.335-.9,5.01-.325,2.08-1.51,4.14-2.1,6.225a8.439,8.439,0,0,0-.33,1.7,21.7,21.7,0,0,0,.635,6.8c.227.042.457.072.685.108a20.613,20.613,0,0,1-.283-5.139" transform="translate(-9.12 -68.714)" fill="rgba(167,165,157,0.5)"/>
        <path id="Path_1363" data-name="Path 1363" d="M99.307,277.814c.12.35.231.7.321,1.066.06.007.12.01.18.017-.15-.369-.321-.728-.5-1.083" transform="translate(-49.654 -138.908)" fill="#fffbe4"/>
        <path id="Path_1364" data-name="Path 1364" d="M161.115,96.873a8.688,8.688,0,0,1,4.39,5.23c-.753-3.135-1.881-5.338-4.856-6.961q.24.864.466,1.731" transform="translate(-80.325 -47.571)" fill="rgba(167,165,157,0.5)"/>
        <path id="Path_1365" data-name="Path 1365" d="M1.385,55.7c.674-4.745,1.876-9.62,4.537-13.615A15.474,15.474,0,0,1,12.516,30,15.236,15.236,0,0,1,25.86,28.191a97.78,97.78,0,0,1,14.386-5.223,106.425,106.425,0,0,1,9.13-5.663,28.418,28.418,0,0,1,.665-6.575,11.571,11.571,0,0,1,7.373-8.045,17.532,17.532,0,0,1,11.146,0c1.762.54,4.205,1.425,5.4,2.925A8.369,8.369,0,0,1,74.8,6.89,11.569,11.569,0,0,1,75.445,8.3,14.056,14.056,0,0,0,74.22,5.116a8.332,8.332,0,0,0-.845-1.28c-1.2-1.5-3.665-2.385-5.44-2.925a17.774,17.774,0,0,0-11.225,0,11.6,11.6,0,0,0-7.425,8.045,28.23,28.23,0,0,0-.67,6.575,107.357,107.357,0,0,0-9.195,5.663,98.911,98.911,0,0,0-14.487,5.223A15.434,15.434,0,0,0,11.5,28.223a15.446,15.446,0,0,0-6.64,12.09C2.175,44.308.966,49.183.286,53.928A22.425,22.425,0,0,0,2.405,67.9c.083.013.171.019.254.032A23.5,23.5,0,0,1,1.385,55.7" transform="translate(0 0)" fill="rgba(167,165,157,0.5)"/>
      </g>
    </g>
  </g>
</svg>
