<svg width="58" height="59" viewBox="0 0 58 59" xmlns="http://www.w3.org/2000/svg">
    <g transform="translate(1 1.5)" fill="none" fill-rule="evenodd">
        <path d="M22 20a8 8 0 1 1 0 16 8 8 0 0 1 0-16zm12.623.416c2.21 0 4 3.395 4 7.584s-1.79 7.584-4 7.584c-2.209 0-4-3.395-4-7.584s1.791-7.584 4-7.584zm6.13.935c.832 0 1.507 2.977 1.507 6.649s-.675 6.65-1.507 6.65c-.832 0-1.506-2.978-1.506-6.65s.674-6.65 1.506-6.65z" fill="#FFF"/>
        <circle stroke="#FFF" stroke-width="2" opacity=".2" cx="28" cy="28" r="28"/>
    </g>
</svg>
