<svg width="58" height="59" viewBox="0 0 58 59" xmlns="http://www.w3.org/2000/svg">
    <g transform="translate(1 1.5)" fill="none" fill-rule="evenodd">
        <path d="M27.76 16.41v.268l.008 12.44.001.161c-.001.873.032 1.748-.012 2.62-.086 1.742-1.677 3.177-3.417 3.125-1.84-.055-3.255-1.403-3.404-3.241-.176-2.172 1.773-3.996 3.924-3.67.07.01.14.01.21.014V24.6a7.077 7.077 0 0 0-1.934.076c-3.596.65-6.24 4.092-5.61 7.97.627 3.871 4.103 6.369 7.969 5.794 3.246-.483 5.814-3.463 5.815-6.747V23.32l.057-.02c.627.777 1.482 1.173 2.4 1.457a12.75 12.75 0 0 0 2.816.521v-3.5c-3.27-.321-4.896-2.266-5.358-5.37H27.76zm5.084 8.9v7.347c0 3.295-2.256 6.275-5.448 7.078-2.869.723-5.337-.042-7.38-2.188-.257-.271-.57-.49-.828-.76-2.01-2.109-2.667-4.602-1.838-7.376.831-2.781 2.769-4.485 5.61-5.124.828-.186 1.671-.179 2.537-.054v.942l1.102.095v4.411c-.408-.043-.815-.124-1.223-.124-1.478 0-2.813 1.283-2.908 2.76-.04.611.054 1.193.357 1.73a.67.67 0 0 0 .268.26c1.864.919 4.137-.385 4.25-2.458.05-.91.01-1.823.011-2.735v-4.117l-.007-8.716V16h4.274l.13 1.045h.979c.047.343.077.677.14 1.004a5.77 5.77 0 0 0 .928 2.255c.085.121.202.233.328.31.797.485 1.679.687 2.6.749l.288.015c0 .25.007.5-.002.748-.006.143.036.207.187.218.304.023.607.063.922.097v4.336c-1.851-.139-3.643-.413-5.277-1.468z" fill="#FFF"/>
        <path d="M31.225 16.41c.462 3.103 2.089 5.048 5.358 5.37v3.5a12.75 12.75 0 0 1-2.816-.522c-.918-.284-1.773-.68-2.4-1.457l-.057.02v8.372c0 3.284-2.57 6.264-5.815 6.747-3.866.575-7.342-1.923-7.97-5.793-.629-3.88 2.015-7.32 5.61-7.971a7.077 7.077 0 0 1 1.934-.076v3.527c-.068-.005-.14-.004-.21-.015-2.15-.325-4.1 1.499-3.923 3.67.149 1.84 1.564 3.187 3.404 3.242 1.74.052 3.33-1.383 3.417-3.125.044-.872.01-1.747.012-2.62v-.16l-.008-12.441v-.269h3.464z"/>
        <circle stroke="#FFF" stroke-width="2" opacity=".2" cx="28" cy="28" r="28"/>
    </g>
</svg>
