<svg xmlns="http://www.w3.org/2000/svg" width="18.148" height="23.02" viewBox="0 0 18.148 23.02">
  <g id="Group_977" data-name="Group 977" transform="translate(-7875 -14376.999)">
    <g id="Icon_-_Task_status_-_Succeeded" data-name="Icon - Task status - Succeeded" transform="translate(7875 14377)">
      <path id="Path_64" data-name="Path 64" d="M1800.262,4.6a9.492,9.492,0,0,0-9.074,9.417,10.77,10.77,0,0,0,1.185,4.347c.021.042.045.084.071.126,5.485,9.129,7.123,9.129,7.819,9.129,1.089,0,2.268-.8,5.062-4.85,1.457-2.113,2.707-4.19,2.758-4.279.025-.042.05-.084.07-.126a10.774,10.774,0,0,0,1.185-4.347A9.492,9.492,0,0,0,1800.262,4.6Z" transform="translate(-1791.189 -4.6)" fill="#0dffbe" fill-rule="evenodd"/>
    </g>
  </g>
</svg>
