<?xml version="1.0" encoding="utf-8"?>
<!-- Generator: Adobe Illustrator 25.0.0, SVG Export Plug-In . SVG Version: 6.00 Build 0)  -->
<svg version="1.1" id="Calque_1" xmlns="http://www.w3.org/2000/svg" xmlns:xlink="http://www.w3.org/1999/xlink" x="0px" y="0px"
	 viewBox="0 0 100 100" style="enable-background:new 0 0 100 100;" xml:space="preserve">
<style type="text/css">
	.st0{fill:#61ACF7;}
	.st1{fill:#D1D1D1;}
	.st2{fill:#0DFFBE;}
</style>
<circle id="Ellipse_4" class="st0" cx="74.6" cy="50" r="23"/>
<path id="Tracé_5" class="st1" d="M46.2,50c0-8.9,5.2-17.1,13.3-20.9C48,23.8,34.3,28.7,28.9,40.3S28.5,65.5,40,70.9
	c6.2,2.9,13.3,2.9,19.5,0C51.4,67.1,46.2,58.9,46.2,50z"/>
<path id="Tracé_6" class="st2" d="M22.3,50c0-9,5.2-17.1,13.3-20.9C24.1,23.7,10.4,28.7,5,40.2S4.7,65.5,16.2,70.9
	c6.2,2.9,13.3,2.9,19.5,0C27.6,67.1,22.4,59,22.3,50z"/>
</svg>
