<svg xmlns="http://www.w3.org/2000/svg" width="13" height="13" viewBox="0 0 13 13">
    <g fill="#000" fill-rule="nonzero">
        <path d="M9.235 8.438c-.397-.392-.893-.392-1.287 0-.3.298-.601.596-.897.9-.081.083-.15.1-.248.045-.195-.106-.402-.192-.589-.308-.872-.549-1.602-1.254-2.25-2.048-.32-.394-.606-.816-.806-1.291-.04-.096-.033-.16.046-.238.3-.29.594-.589.89-.887.411-.415.411-.9-.003-1.317-.235-.238-.47-.47-.705-.708-.243-.242-.483-.488-.728-.728-.397-.386-.892-.386-1.287.003-.303.298-.594.604-.902.897-.286.27-.43.602-.46.988-.048.63.106 1.224.323 1.803.445 1.198 1.123 2.262 1.944 3.237a12.028 12.028 0 0 0 3.984 3.117c.697.339 1.42.599 2.206.642.541.03 1.011-.106 1.388-.528.258-.289.548-.551.821-.827.405-.41.407-.905.005-1.31-.48-.482-.963-.962-1.445-1.442zM9.2 6.274l.996-.173a4.583 4.583 0 0 0-1.244-2.455 4.393 4.393 0 0 0-2.537-1.293l-.14 1.023a3.408 3.408 0 0 1 1.964 1.001c.508.519.84 1.175.961 1.897z"/>
        <path d="M10.528 2.106A7.114 7.114 0 0 0 6.412 0l-.138 1.004a6.168 6.168 0 0 1 3.557 1.82 6.438 6.438 0 0 1 1.744 3.45l.974-.17a7.485 7.485 0 0 0-2.021-3.998z"/>
    </g>
</svg>
