<svg xmlns="http://www.w3.org/2000/svg" width="16" height="10" viewBox="0 0 16 10">
    <path fill="#000" fill-rule="evenodd" d="M4.567 7.008a1.48 1.48 0 1 0 0 2.96 1.48 1.48 0 0 0 0-2.96zm0 2.221a.74.74 0 1 1 .001-1.48.74.74 0 0 1-.001 1.48zm11.155-3.315v1.58c0 .393-.32.713-.713.713h-.764a1.96 1.96 0 0 0-1.938-1.674 1.96 1.96 0 0 0-1.935 1.674h-3.87a1.96 1.96 0 0 0-1.935-1.674 1.96 1.96 0 0 0-1.936 1.674h-.956a.713.713 0 0 1-.713-.714V5.914h14.76zm-3.413 1.094a1.481 1.481 0 1 0 1.48 1.482c0-.818-.664-1.482-1.48-1.482zm0 2.221a.74.74 0 1 1 .002-1.48.74.74 0 0 1-.002 1.48zm3.132-4.906l-2.804-2.772a.953.953 0 0 0-.668-.276h-1.415v-.53A.712.712 0 0 0 9.841.03H1.675a.714.714 0 0 0-.713.714V5.52h14.76v-.521a.956.956 0 0 0-.281-.676zm-1.222.093h-2.714a.112.112 0 0 1-.111-.112V2.21c0-.062.05-.112.111-.112h.516a.12.12 0 0 1 .079.03l2.195 2.096a.112.112 0 0 1-.076.192z"/>
</svg>
