<svg xmlns="http://www.w3.org/2000/svg" width="13" height="11" viewBox="0 0 13 11">
    <g fill="#000" fill-rule="nonzero">
        <path d="M1.198 3.362c.158.111.633.442 1.427.992s1.402.974 1.825 1.27l.295.213c.151.11.277.197.376.265.1.067.221.142.363.226a2.1 2.1 0 0 0 .4.188c.125.042.241.062.348.062h.014c.107 0 .223-.02.348-.062.126-.042.26-.105.4-.188.142-.084.263-.16.363-.226.1-.068.225-.156.376-.265.15-.11.25-.18.296-.212a6158.4 6158.4 0 0 1 3.259-2.264c.339-.236.622-.522.85-.856.227-.334.34-.685.34-1.051 0-.307-.11-.57-.33-.787a1.076 1.076 0 0 0-.784-.328H1.114C.757.34.482.46.29.702.096.942 0 1.245 0 1.607c0 .292.128.61.383.95.255.342.527.61.815.805z"/>
        <path d="M11.782 4.107a144.722 144.722 0 0 0-3.468 2.402c-.264.195-.479.347-.644.456-.165.11-.384.22-.658.334-.274.114-.529.17-.766.17h-.014c-.236 0-.492-.056-.766-.17a3.977 3.977 0 0 1-.658-.334c-.164-.109-.38-.261-.644-.456-.627-.46-1.78-1.26-3.46-2.402A3.688 3.688 0 0 1 0 3.5V9.03c0 .306.109.568.327.787.218.218.48.327.787.327h10.25c.307 0 .569-.11.787-.327.219-.219.328-.48.328-.787V3.5a3.84 3.84 0 0 1-.697.607z"/>
    </g>
</svg>
