<svg xmlns="http://www.w3.org/2000/svg" width="35" height="36" viewBox="0 0 35 36">
    <g fill="none" fill-rule="evenodd">
        <path fill="#343434" fill-rule="nonzero" d="M34.079 12.412L23.027 1.36c-.597-.597-1.393-.925-2.24-.925-.849 0-1.644.328-2.241.925L1.028 18.878c-.597.597-.926 1.392-.926 2.24 0 .849.329 1.644.926 2.24l1.362 1.364h.001l9.16 9.16h-1.269c-.401 0-.727.325-.727.727 0 .401.326.727.727.727h14.542c.402 0 .727-.326.727-.727 0-.402-.325-.727-.727-.727H17.09l16.989-16.99c1.235-1.235 1.235-3.245 0-4.48zM20.786 1.889c.46 0 .89.177 1.212.5l3.934 3.933L9.108 23.146c-.284.284-.284.744 0 1.028.142.142.328.213.514.213s.372-.071.514-.213L26.96 7.35l6.09 6.09c.669.668.669 1.756 0 2.424L15.532 33.383c-.321.32-.75.498-1.21.499h-.005c-.459-.001-.888-.178-1.209-.5l-9.175-9.174L20.757 7.384c.284-.284.284-.745 0-1.029-.284-.283-.744-.283-1.028 0L2.905 23.18l-.85-.85c-.321-.321-.498-.752-.498-1.212 0-.46.177-.89.499-1.212L19.574 2.388c.322-.322.753-.5 1.212-.5zM7.411 24.842l-.308.309c-.284.284-.284.744 0 1.028.142.142.328.213.514.213s.372-.07.514-.213l.309-.308c.283-.284.283-.745 0-1.029-.284-.284-.745-.284-1.029 0zM21.734 4.35l-.308.309c-.284.284-.284.744 0 1.028.142.142.328.213.514.213s.372-.07.514-.213l.308-.309c.284-.284.284-.744 0-1.028-.284-.284-.744-.284-1.028 0z"/>
        <path fill="#5EDEA8" d="M18.017 21.434c-.283-.283-.744-.283-1.028 0l-5.722 5.722c-.284.284-.284.744 0 1.028.142.142.328.213.515.213.186 0 .372-.07.514-.213l5.721-5.721c.284-.284.284-.745 0-1.029zM15.67 26.866l-2.346 2.347c-.284.284-.284.744 0 1.028.142.142.328.213.514.213s.372-.071.514-.213l2.347-2.347c.284-.284.284-.744 0-1.028-.284-.284-.744-.284-1.028 0zM17.83 24.707l-.308.308c-.284.284-.284.744 0 1.028.142.142.328.213.514.213s.372-.07.514-.213l.308-.308c.284-.284.284-.744 0-1.028-.283-.284-.744-.284-1.028 0z"/>
        <path fill="#5EDEA8" fill-rule="nonzero" d="M27.525 11.387c.193 0 .378.076.514.213l2.057 2.056c.284.284.284.745 0 1.028L27.01 17.77c-.142.142-.328.213-.514.213s-.372-.07-.514-.213l-2.057-2.056c-.136-.137-.213-.321-.213-.514s.077-.378.213-.514l3.085-3.085c.137-.137.321-.213.514-.213zm0 1.755L25.47 15.2l1.028 1.028 2.056-2.057-1.028-1.028z"/>
    </g>
</svg>
