<svg xmlns="http://www.w3.org/2000/svg" xmlns:xlink="http://www.w3.org/1999/xlink" width="399" height="445" viewBox="0 0 399 445">
    <defs>
        <linearGradient id="prefix__a" x1="36.309%" x2="66.054%" y1="-3.207%" y2="97.414%">
            <stop offset="0%" stop-color="#EEF8FA"/>
            <stop offset="100%" stop-color="#D9EEF3"/>
        </linearGradient>
        <linearGradient id="prefix__b" x1="0%" x2="12.658%" y1="1.622%" y2="158.447%">
            <stop offset="0%" stop-color="#F5A42C" stop-opacity="0"/>
            <stop offset="100%" stop-color="#FDBE56"/>
        </linearGradient>
        <linearGradient id="prefix__c" x1="146.006%" x2="-18.429%" y1="-27.49%" y2="116.821%">
            <stop offset="0%" stop-color="#1DC599"/>
            <stop offset="100%" stop-color="#1DC599" stop-opacity="0"/>
        </linearGradient>
        <linearGradient id="prefix__f" x1="102.438%" x2="-4.284%" y1="58.643%" y2="12.576%">
            <stop offset="0%" stop-color="#222121"/>
            <stop offset="100%" stop-color="#565555"/>
        </linearGradient>
        <linearGradient id="prefix__g" x1="50%" x2="50%" y1="0%" y2="100%">
            <stop offset="0%" stop-color="#3CBAF4"/>
            <stop offset="100%" stop-color="#1C84E5"/>
        </linearGradient>
        <linearGradient id="prefix__h" x1="36.309%" x2="66.054%" y1="48.81%" y2="51.06%">
            <stop offset="0%" stop-color="#EEF8FA"/>
            <stop offset="100%" stop-color="#D9EEF3"/>
        </linearGradient>
        <linearGradient id="prefix__i" x1="36.309%" x2="66.054%" y1="-11.071%" y2="104.422%">
            <stop offset="0%" stop-color="#EEF8FA"/>
            <stop offset="100%" stop-color="#D9EEF3"/>
        </linearGradient>
        <path id="prefix__d" d="M0 44.871c5.709 26.26 6.85 42.474 3.425 48.64C0 99.675 15.528 101.16 50.01 97.962 58.915 68.277 63.368 45.1 63.368 28.43 63.368 3.425 50.352 0 44.186 0c-4.11 0-12.673 2.626-25.69 7.878-7.963 5.157-12.987 9.382-15.07 12.674C1.341 23.844.2 31.95 0 44.872z"/>
    </defs>
    <g fill="none" fill-rule="evenodd" transform="translate(-8.797 -23.81)">
        <g fill-rule="nonzero">
            <g>
                <path fill="url(#prefix__a)" d="M43.122 257.863c-51.32-27.842-53.86-74.3-23.201-106.615 30.659-32.316 95.29-43.917 112.691-60.489 17.4-16.572 55.24-102.748 106.339-89.214 51.097 13.534 114.9 221.516 4.419 259.08-110.482 37.563-148.928 25.08-200.248-2.762z" opacity=".871" transform="translate(28.635 95.609) translate(28.843)"/>
                <path fill="url(#prefix__b)" d="M209.611 4.181c-1.651 5.642-2.537 11.61-2.537 17.786 0 34.91 28.302 63.212 63.213 63.212 7.796 0 15.263-1.411 22.158-3.993 1.828 5.883 3.485 11.931 4.942 18.085l-.006.003c-8.48 2.972-17.599 4.588-27.094 4.588-45.23 0-81.896-36.666-81.896-81.895 0-1.158.024-2.31.072-3.455 6.326-5.763 13.04-10.602 20.117-13.87l1.031-.46z" transform="translate(28.635 95.609) translate(28.843)"/>
                <path fill="url(#prefix__c)" d="M123.445 97.117c5.218 10.776 8.143 22.869 8.143 35.645 0 45.23-36.666 81.895-81.896 81.895-18.677 0-35.893-6.252-49.671-16.777-.108-7.271 1.211-14.535 3.852-21.572 11.517 12.115 27.786 19.666 45.82 19.666 34.91 0 63.212-28.301 63.212-63.212 0-9.966-2.307-19.394-6.415-27.778l.912-.379c5.748-2.396 10.958-4.736 15.347-7.107l.696-.381z" transform="translate(28.635 95.609) translate(28.843)"/>
            </g>
            <path fill="#232323" d="M379.179 117.721l-7.097-20.61-20.61 7.097 7.097 20.61 20.61-7.097zm-3.958-1.93l-14.721 5.068-5.07-14.72 14.722-5.07 5.069 14.721zM25.387 244.492c.52-.628 1.432-.746 2.092-.283l.061.045 10.846 8.408c.68.527.803 1.505.276 2.184-.511.66-1.447.796-2.124.322l-.06-.045-9.654-7.484-5.995 7.246c-.574.694-1.61.754-2.26.147l-.056-.053-7.166-7.362-8.713 7.458c-.633.543-1.577.487-2.143-.112l-.052-.058c-.542-.634-.487-1.577.113-2.143l.057-.052 9.823-8.408c.604-.517 1.497-.494 2.073.043l.055.054 6.975 7.165 5.852-7.072z" transform="translate(28.635 95.609)"/>
        </g>
        <g>
            <path fill="#FD8F86" fill-rule="nonzero" d="M94.88 135.884c-4.293-3.246-6.577-6.671-6.85-10.276-.273-3.605 1.44-7.715 5.138-12.33l3.425 2.397 1.713 17.811-3.425 2.398z" transform="translate(121.961 24.327)"/>
            <path fill="#40B88E" fill-rule="nonzero" d="M93.51 137.254c5.896 16.453 10.578 29.012 14.044 37.678 3.467 8.667 6.778 13.919 9.934 15.757l42.816 27.06 18.839-29.458c-9.45-4.004-17.1-7.086-22.95-9.248-5.85-2.162-13.956-4.902-24.32-8.221l-27.06-42.131c-3.123 1.647-5.406 3.017-6.85 4.11-1.443 1.094-2.927 2.578-4.453 4.453z" transform="translate(121.961 24.327)"/>
            <path fill="#343434" fill-rule="nonzero" d="M88.327 59.482c1.195-.15 2.287.677 2.475 1.857l.01.076 16.211 129.683c.153 1.22-.713 2.332-1.933 2.485-1.195.15-2.286-.677-2.475-1.857l-.01-.076-16.21-129.682c-.153-1.22.712-2.333 1.932-2.486z" transform="translate(121.961 24.327)"/>
            <path fill="#FFBBB6" fill-rule="nonzero" d="M110.98 167.054c0-6.394-.571-10.39-1.713-11.988-1.142-1.599-3.425-3.882-6.85-6.85-5.025 2.51-7.536 5.023-7.536 7.535 0 3.768 4.795 12.33 8.563 14.386 2.512 1.37 5.024.342 7.535-3.083z" transform="translate(121.961 24.327)"/>
            <g transform="translate(121.961 24.327) translate(147.288 176.645)">
                <path fill="#4FBC96" fill-rule="nonzero" d="M0 44.871c5.709 26.26 6.85 42.474 3.425 48.64C0 99.675 15.528 101.16 50.01 97.962 58.915 68.277 63.368 45.1 63.368 28.43 63.368 3.425 50.352 0 44.186 0c-4.11 0-12.673 2.626-25.69 7.878-7.963 5.157-12.987 9.382-15.07 12.674C1.341 23.844.2 31.95 0 44.872z"/>
                <mask id="prefix__e" fill="#fff">
                    <use xlink:href="#prefix__d"/>
                </mask>
                <path fill="#45AB87" fill-rule="nonzero" d="M-11.104 84.996c24.89 3.653 42.245.799 52.065-8.564C50.78 67.07 59 46.518 65.623 14.777l57.202-4.795-46.926 114.062-104.814-24.32 17.811-14.728z" mask="url(#prefix__e)"/>
            </g>
            <path fill="#FFBBB6" fill-rule="nonzero" d="M104.129 130.22l-2.003-11.23-7.245-4.343c-.457 2.969.178 5.187 1.905 6.655 2.882 2.449.492 3.279.15 6.019-.229 1.827.5 4.224 2.187 7.193l5.006-4.294z" transform="translate(121.961 24.327)"/>
            <path fill="#FD8F86" fill-rule="nonzero" d="M164.414 171.165c3.197 10.96 4.453 17.469 3.768 19.524-.685 2.055 6.051-.114 20.21-6.508l-8.222-19.525-15.756 6.509z" transform="translate(121.961 24.327)"/>
            <path fill="url(#prefix__f)" fill-rule="nonzero" d="M160.989 151.298c-2.74-9.363-1.142-14.044 4.795-14.044 8.906 0 24.662 8.22 25.69 14.044.685 3.882-2.055 10.847-8.22 20.894l-10.62-7.536-11.645-13.358z" transform="translate(121.961 24.327)"/>
            <path fill="#FFBBB6" fill-rule="nonzero" d="M162.016 148.558c-7.079 13.244-9.02 21.465-5.823 24.662 3.197 3.197 10.276 2.055 21.237-3.426 3.654-1.141 5.823-2.854 6.508-5.138.685-2.283-1.256-2.283-5.823 0l2.74-6.165c-8.22-1.37-13.244-3.768-15.07-7.193-1.828-3.425-3.084-4.339-3.769-2.74z" transform="translate(121.961 24.327)"/>
            <path fill="#52D9A9" fill-rule="nonzero" d="M113.035 164.656l27.06 35.966c32.882-15.3 51.95-21.808 57.202-19.524 7.878 3.425 11.646 14.729 7.535 23.292-4.11 8.563-59.257 29.115-65.765 27.402-6.508-1.712-39.391-53.434-35.28-59.6 2.74-4.11 5.822-6.622 9.248-7.536z" transform="translate(121.961 24.327)"/>
            <path fill="#1C84E5" fill-rule="nonzero" d="M56.243 373.257c-5.937 13.016-9.591 19.524-10.961 19.524-2.055 0-47.27-23.635-45.214-27.06 2.055-3.425 26.375 2.055 34.595 1.028 5.48-.685 9.591-4.225 12.331-10.619l9.249 16.1v1.027zM250.24 348.88c13.645-4.298 20.926-5.938 21.843-4.92 1.375 1.528 14.065 50.943 10.144 51.707-3.92.765-16.12-20.975-22.385-26.397-4.176-3.614-9.557-4.3-16.142-2.058l5.776-17.645.763-.688z" transform="translate(121.961 24.327)"/>
            <path fill="url(#prefix__g)" fill-rule="nonzero" d="M83.92 7.778c16.898-3.425 35.166-1.94 54.804 4.453 29.458 9.59 30.828-4.795 66.794-10.276 35.965-5.48 57.887 1.028 59.257 13.701 1.37 12.674-26.032 2.398-54.12 13.359-28.087 10.96-55.832 26.717-80.836 32.54-16.67 3.882-30.371 4.339-41.104 1.37-4.045-3.972-6.586-7-7.624-9.08-4.246-8.518-4.407-16.302-4.865-21.409-.554-6.168-1.839-12.894 2.595-20.11.388-.632 2.087-1.577 5.099-2.835V7.778z" transform="translate(121.961 24.327)"/>
            <path fill="#242323" fill-rule="nonzero" d="M143.52 298.585c6.85 53.435 13.473 83.463 19.866 90.086 6.394 6.622 36.537.114 90.428-19.525l-2.74-21.236-64.396 12.673c0-2.055.914-26.831 2.74-74.329l-45.898 12.331z" transform="translate(121.961 24.327)"/>
            <path fill="#343434" fill-rule="nonzero" d="M82.967 6.737c-7.104.747-10.4 14.1-8.745 29.85 1.656 15.75 7.656 28.126 14.76 27.38 7.105-.747 10.4-14.1 8.745-29.85-1.655-15.75-7.655-28.127-14.76-27.38zm.466 4.428c1.342-.14 3.394 1.806 5.32 5.781 2.175 4.484 3.825 10.781 4.546 17.636.72 6.855.415 13.357-.78 18.195-1.058 4.289-2.66 6.62-4.002 6.761-1.342.141-3.394-1.806-5.321-5.78-2.174-4.485-3.825-10.782-4.545-17.637-.72-6.854-.415-13.357.779-18.195 1.058-4.288 2.66-6.62 4.003-6.76zM197.297 274.608c-21.922-2.968-39.848-4.453-53.777-4.453-20.895 0-42.131-1.37-50.01 2.398-5.252 2.512-23.292 32.997-54.12 91.455l16.785 10.619c26.945-35.852 41.56-56.29 43.844-61.313 2.283-5.024 3.882-9.362 4.795-13.016 41.103 11.874 66.793 14.843 77.069 8.906 10.276-5.937 15.414-17.47 15.414-34.596z" transform="translate(121.961 24.327)"/>
            <path stroke="#B04343" stroke-linecap="round" stroke-width="2.112" d="M159.818 166.76c.229.913 1.028 1.37 2.398 1.37s2.398-.57 3.083-1.713" transform="translate(121.961 24.327)"/>
        </g>
        <g fill-rule="nonzero">
            <path fill="#FD8F86" d="M94.88 135.884c-4.293-3.246-6.577-6.671-6.85-10.276-.273-3.605 1.44-7.715 5.138-12.33l3.425 2.397 1.713 17.811-3.425 2.398z" transform="translate(121.961 24.327)"/>
            <path fill="#40B88E" d="M93.51 137.254c5.896 16.453 10.578 29.012 14.044 37.678 3.467 8.667 6.778 13.919 9.934 15.757l42.816 27.06 18.839-29.458c-9.45-4.004-17.1-7.086-22.95-9.248-5.85-2.162-13.956-4.902-24.32-8.221l-27.06-42.131c-3.123 1.647-5.406 3.017-6.85 4.11-1.443 1.094-2.927 2.578-4.453 4.453z" transform="translate(121.961 24.327)"/>
            <path fill="#343434" d="M88.327 59.482c1.195-.15 2.287.677 2.475 1.857l.01.076 16.211 129.683c.153 1.22-.713 2.332-1.933 2.485-1.195.15-2.286-.677-2.475-1.857l-.01-.076-16.21-129.682c-.153-1.22.712-2.333 1.932-2.486z" transform="translate(121.961 24.327)"/>
            <path fill="#FFBBB6" d="M110.98 167.054c0-6.394-.571-10.39-1.713-11.988-1.142-1.599-3.425-3.882-6.85-6.85-5.025 2.51-7.536 5.023-7.536 7.535 0 3.768 4.795 12.33 8.563 14.386 2.512 1.37 5.024.342 7.535-3.083z" transform="translate(121.961 24.327)"/>
            <g>
                <path fill="#4FBC96" d="M0 44.871c5.709 26.26 6.85 42.474 3.425 48.64C0 99.675 15.528 101.16 50.01 97.962 58.915 68.277 63.368 45.1 63.368 28.43 63.368 3.425 50.352 0 44.186 0c-4.11 0-12.673 2.626-25.69 7.878-7.963 5.157-12.987 9.382-15.07 12.674C1.341 23.844.2 31.95 0 44.872z" transform="translate(121.961 24.327) translate(147.288 176.645)"/>
                <path fill="#45AB87" d="M63.292 25.212c.05 1.03.076 2.103.076 3.218 0 16.67-4.453 39.847-13.359 69.533C15.528 101.16 0 99.676 3.425 93.51c.908-1.633 1.495-3.972 1.761-7.017 16.337.457 28.261-2.897 35.775-10.06 8.64-8.24 16.043-25.144 22.209-50.712l.122-.51z" transform="translate(121.961 24.327) translate(147.288 176.645)"/>
            </g>
            <path fill="#FFBBB6" d="M104.129 130.22l-2.003-11.23-7.245-4.343c-.457 2.969.178 5.187 1.905 6.655 2.882 2.449.492 3.279.15 6.019-.229 1.827.5 4.224 2.187 7.193l5.006-4.294z" transform="translate(121.961 24.327)"/>
            <path fill="#FD8F86" d="M164.414 171.165c3.197 10.96 4.453 17.469 3.768 19.524-.685 2.055 6.051-.114 20.21-6.508l-8.222-19.525-15.756 6.509z" transform="translate(121.961 24.327)"/>
            <path fill="url(#prefix__f)" d="M160.989 151.298c-2.74-9.363-1.142-14.044 4.795-14.044 8.906 0 24.662 8.22 25.69 14.044.685 3.882-2.055 10.847-8.22 20.894l-10.62-7.536-11.645-13.358z" transform="translate(121.961 24.327)"/>
            <path fill="#FFBBB6" d="M162.016 148.558c-7.079 13.244-9.02 21.465-5.823 24.662 3.197 3.197 10.276 2.055 21.237-3.426 3.654-1.141 5.823-2.854 6.508-5.138.685-2.283-1.256-2.283-5.823 0l2.74-6.165c-8.22-1.37-13.244-3.768-15.07-7.193-1.828-3.425-3.084-4.339-3.769-2.74z" transform="translate(121.961 24.327)"/>
            <path fill="#52D9A9" d="M113.035 164.656l27.06 35.966c32.882-15.3 51.95-21.808 57.202-19.524 7.878 3.425 11.646 14.729 7.535 23.292-4.11 8.563-59.257 29.115-65.765 27.402-6.508-1.712-39.391-53.434-35.28-59.6 2.74-4.11 5.822-6.622 9.248-7.536z" transform="translate(121.961 24.327)"/>
            <path fill="#1C84E5" d="M56.243 373.257c-5.937 13.016-9.591 19.524-10.961 19.524-2.055 0-47.27-23.635-45.214-27.06 2.055-3.425 26.375 2.055 34.595 1.028 5.48-.685 9.591-4.225 12.331-10.619l9.249 16.1v1.027zM250.24 348.88c13.645-4.298 20.926-5.938 21.843-4.92 1.375 1.528 14.065 50.943 10.144 51.707-3.92.765-16.12-20.975-22.385-26.397-4.176-3.614-9.557-4.3-16.142-2.058l5.776-17.645.763-.688z" transform="translate(121.961 24.327)"/>
            <path fill="url(#prefix__g)" d="M83.92 7.778c16.898-3.425 35.166-1.94 54.804 4.453 29.458 9.59 30.828-4.795 66.794-10.276 35.965-5.48 57.887 1.028 59.257 13.701 1.37 12.674-26.032 2.398-54.12 13.359-28.087 10.96-55.832 26.717-80.836 32.54-16.67 3.882-30.371 4.339-41.104 1.37-4.045-3.972-6.586-7-7.624-9.08-4.246-8.518-4.407-16.302-4.865-21.409-.554-6.168-1.839-12.894 2.595-20.11.388-.632 2.087-1.577 5.099-2.835V7.778z" transform="translate(121.961 24.327)"/>
            <path fill="#242323" d="M143.52 298.585c6.85 53.435 13.473 83.463 19.866 90.086 6.394 6.622 36.537.114 90.428-19.525l-2.74-21.236-64.396 12.673c0-2.055.914-26.831 2.74-74.329l-45.898 12.331z" transform="translate(121.961 24.327)"/>
            <path fill="#343434" d="M82.967 6.737c-7.104.747-10.4 14.1-8.745 29.85 1.656 15.75 7.656 28.126 14.76 27.38 7.105-.747 10.4-14.1 8.745-29.85-1.655-15.75-7.655-28.127-14.76-27.38zm.466 4.428c1.342-.14 3.394 1.806 5.32 5.781 2.175 4.484 3.825 10.781 4.546 17.636.72 6.855.415 13.357-.78 18.195-1.058 4.289-2.66 6.62-4.002 6.761-1.342.141-3.394-1.806-5.321-5.78-2.174-4.485-3.825-10.782-4.545-17.637-.72-6.854-.415-13.357.779-18.195 1.058-4.288 2.66-6.62 4.003-6.76zM197.297 274.608c-21.922-2.968-39.848-4.453-53.777-4.453-20.895 0-42.131-1.37-50.01 2.398-5.252 2.512-23.292 32.997-54.12 91.455l16.785 10.619c26.945-35.852 41.56-56.29 43.844-61.313 2.283-5.024 3.882-9.362 4.795-13.016 41.103 11.874 66.793 14.843 77.069 8.906 10.276-5.937 15.414-17.47 15.414-34.596z" transform="translate(121.961 24.327)"/>
            <path fill="#B04343" d="M165.005 166.241c.097-.162.308-.215.47-.117.162.097.215.307.117.47-.747 1.246-1.887 1.879-3.376 1.879-1.512 0-2.458-.541-2.73-1.63-.046-.183.066-.37.25-.415.183-.046.369.065.414.249.185.738.837 1.11 2.066 1.11 1.25 0 2.166-.508 2.789-1.546z" transform="translate(121.961 24.327)"/>
        </g>
        <ellipse cx="242.936" cy="455.53" fill="url(#prefix__h)" fill-rule="nonzero" rx="88.123" ry="12.3"/>
        <g fill-rule="nonzero" transform="rotate(17 22.727 153.563)">
            <g>
                <path fill="#1DC599" d="M0 25.124c11.653-6.751 19.76-11.775 24.32-15.07C28.88 6.756 32.305 3.445 34.595.12l13.017 14.729c-1.278 3.075-4.36 6.5-9.249 10.275-4.888 3.776-13.337 9.256-25.347 16.442L0 25.124z" transform="translate(82.322 47.763)"/>
                <path fill="#19A982" d="M34.595.12l13.017 14.729c-1.278 3.075-4.36 6.5-9.249 10.275l-.45.345c-4.948 3.76-13.247 9.127-24.897 16.097l-3.522-4.449c16.584-4.473 25.525-9.397 26.823-14.772 1.169-4.839-.09-11.368-3.779-19.587C33.304 1.879 33.99 1 34.595.12z" opacity=".503" transform="translate(82.322 47.763)"/>
            </g>
            <ellipse cx="107.017" cy="69.51" fill="#19A982" rx="5.994" ry="5.138"/>
            <path fill="#FFF" d="M109.082 71.61c.061-.046.094-.097.099-.153.004-.056-.01-.102-.046-.138l-.34-.355c.223-.18.394-.363.511-.548.118-.183.186-.362.205-.54.018-.178-.01-.351-.083-.522-.075-.171-.191-.334-.35-.487-.162-.158-.333-.27-.515-.332-.181-.064-.368-.097-.56-.097-.191-.001-.385.022-.58.069-.194.048-.387.102-.577.163l-.954-1.279c.098-.035.193-.06.285-.074.092-.015.177-.026.256-.034.08-.008.15-.016.209-.024.06-.008.105-.021.137-.04.043-.026.07-.058.082-.095.013-.038.017-.085.012-.142l-.043-.385c-.214-.04-.439-.055-.676-.047-.237.01-.482.066-.736.17l-.453-.668-.289.182c-.061.04-.095.092-.1.159-.006.066.01.127.047.182l.29.43c-.225.166-.396.352-.512.556-.117.206-.188.415-.213.624-.025.21-.008.415.052.613s.155.373.285.525c.175.202.357.34.546.417.189.074.38.108.574.103.194-.006.387-.039.58-.098.194-.059.384-.124.568-.195l1.032 1.233c-.135.071-.265.123-.388.153-.122.032-.236.056-.34.073-.103.017-.195.033-.275.048-.08.015-.142.04-.189.077-.038.03-.066.067-.085.11-.019.044-.026.087-.021.13l.049.475c.274-.008.561-.06.86-.157.3-.094.588-.224.863-.386l.493.52.29-.217zm-2.833-2.752c-.105.03-.206.052-.303.066-.098.015-.191.018-.28.01-.088-.007-.171-.03-.248-.066-.078-.037-.149-.093-.214-.168-.057-.066-.098-.137-.124-.214-.027-.076-.034-.158-.022-.244.012-.086.045-.175.1-.266.053-.091.133-.183.237-.277l.854 1.159zm1.134.483c.105-.033.206-.06.303-.078.097-.02.19-.027.28-.023.09.004.174.02.251.05.078.03.15.077.214.14.16.155.231.316.214.486-.016.17-.125.345-.326.524l-.936-1.1z"/>
            <g>
                <path fill="#1DC599" d="M7.43 15.96c8.47-2.553 14.892-3.636 19.269-3.25 4.376.384 7.23.379 8.56-.018l8.116 13.606c-2.331 1.164-5.905 1.61-10.72 1.34-4.816-.27-13.234.745-25.255 3.045l.03-14.723z" transform="translate(84.856)"/>
                <path fill="#19A982" d="M37.395 16.272l5.98 10.026c-2.25 1.123-5.655 1.578-10.218 1.366l-.795-.04c-4.86-.214-13.181.805-24.962 3.059l.004-1.723c14.307-1.309 23.104-3.593 26.39-6.852 1.59-1.576 2.765-3.449 3.526-5.618l.075-.218z" opacity=".503" transform="translate(84.856)"/>
            </g>
            <g>
                <path fill="#1DC599" d="M7.957 15.228c10.264 1.434 17.558 2.233 21.884 2.398 4.326.165 7.97-.217 10.934-1.146l.153 10.067c-4.383 4.369-8.95 6.538-13.701 6.508-4.752-.03-11.136-.597-19.154-1.7l-.116-16.127z" transform="translate(16.574 57.131)"/>
                <path fill="#19A982" d="M40.843 20.982l.085 5.565c-4.254 4.24-8.681 6.409-13.283 6.505 4.998-3.264 8.78-9.128 13.198-12.07zM8.073 31.355l-.116-16.127 1.582.22 1.534.208c-1.963 7.582-1.659 12.986.91 16.21l-.951-.119c-.96-.122-1.947-.253-2.96-.392z" opacity=".503" transform="translate(16.574 57.131)"/>
            </g>
            <path fill="#1DC599" d="M4.91 136.255c8.468-3.784 14.49-5.854 18.068-6.21 3.577-.358 6.53-1.086 8.857-2.186l1.306 8.248c-3.092 4.086-6.594 6.386-10.505 6.902-3.912.516-9.02 2.26-15.328 5.235l-2.397-11.989z"/>
            <g>
                <path fill="#1DC599" d="M4.91 17.977c8.468-3.784 14.49-5.855 18.068-6.211 3.577-.357 6.53-1.086 8.857-2.185l1.306 8.247c-3.092 4.086-6.594 6.387-10.505 6.903-3.912.515-9.02 2.26-15.328 5.234L4.911 17.977z" transform="translate(0 118.279)"/>
                <path fill="#19A982" d="M31.835 9.58l1.306 8.248c-3.045 4.023-6.486 6.316-10.325 6.878l-.18.025c-3.912.515-9.02 2.26-15.328 5.234l-.455-2.273.432-.24c5.42-2.997 9.267-4.55 11.538-4.655l.089-.004c3.625-.11 10.34-4.254 12.001-12.81.318-.128.625-.262.922-.402z" opacity=".503" transform="translate(0 118.279)"/>
            </g>
            <g transform="translate(103.42 16.075)">
                <ellipse cx="4.727" cy="3.905" fill="#19A982" rx="4.727" ry="3.905"/>
                <path fill="#FFF" d="M4.813 6.996c.078-.008.138-.035.18-.081.042-.046.062-.094.06-.143L5.031 6.3c.298-.047.557-.123.778-.229.221-.106.402-.233.541-.38.14-.15.238-.314.295-.495.057-.18.071-.37.041-.566-.03-.2-.102-.36-.216-.483s-.254-.222-.42-.296c-.164-.074-.346-.13-.544-.167-.197-.037-.397-.07-.597-.097L4.85 2.258c.108.009.207.024.297.045.09.021.174.042.25.064.075.021.142.04.2.054.058.015.107.02.147.016.054-.005.098-.02.132-.045.035-.025.067-.06.099-.107l.197-.313c-.17-.099-.366-.184-.586-.254-.22-.07-.476-.11-.766-.118L4.793.968l-.366.036c-.078.008-.138.034-.18.08-.042.044-.062.093-.06.144l.016.405c-.293.04-.548.11-.765.21-.216.102-.393.22-.53.357-.138.136-.236.285-.294.446-.059.162-.076.323-.051.484.032.216.105.392.219.527.113.135.25.242.414.321.164.08.343.139.538.178.195.038.392.07.589.093l.063 1.438c-.154-.006-.29-.026-.406-.06-.117-.033-.222-.068-.314-.104-.093-.036-.175-.067-.247-.093-.073-.026-.138-.036-.197-.03-.049.004-.093.019-.135.043-.04.025-.072.054-.094.089l-.252.39c.216.13.47.233.76.307.29.075.596.113.915.116l.03.687.367-.036zm-.527-3.501c-.107-.02-.206-.044-.297-.073-.092-.028-.173-.063-.243-.104-.07-.042-.128-.091-.172-.15-.044-.057-.072-.127-.085-.207-.01-.07-.005-.138.017-.203.021-.066.061-.127.12-.185.06-.057.14-.109.239-.154.1-.045.222-.083.367-.112l.054 1.188zm.658.837c.11.017.21.038.304.063s.177.058.25.098c.073.04.132.088.178.145.045.057.074.126.086.206.03.197-.019.364-.147.5s-.332.233-.612.291l-.059-1.303z"/>
            </g>
            <ellipse cx="40.566" cy="82.012" fill="#19A982" rx="5.309" ry="4.624"/>
            <path fill="#FFF" d="M39.958 84.882c.072-.002.132-.025.181-.07.05-.043.078-.09.088-.14l.092-.48c.28-.027.532-.086.757-.177.225-.092.418-.208.58-.348.16-.14.288-.3.382-.48.095-.18.152-.37.171-.573.02-.204-.007-.373-.08-.506-.075-.133-.178-.243-.31-.33-.131-.087-.282-.157-.452-.21-.17-.051-.342-.098-.516-.14l.261-1.355c.095.017.181.039.258.067.076.028.146.055.21.083l.168.07c.049.018.092.027.13.026.049-.001.092-.014.13-.036.036-.023.074-.057.113-.101l.253-.304c-.13-.113-.287-.213-.47-.3-.182-.089-.404-.147-.664-.175l.126-.645-.34.01c-.072.003-.132.025-.181.068-.049.043-.078.09-.088.143l-.081.412c-.275.02-.522.072-.742.16-.219.086-.407.194-.563.322-.156.129-.28.273-.371.433-.091.16-.145.323-.161.488-.022.222.003.405.073.55.07.145.17.264.299.357.128.092.276.165.444.218.167.054.337.1.51.138l-.284 1.465c-.137-.018-.255-.047-.352-.09-.098-.042-.184-.085-.26-.128-.075-.044-.142-.081-.2-.113-.06-.032-.117-.047-.171-.045-.045.001-.09.013-.132.035-.043.022-.079.05-.107.083l-.32.377c.165.149.37.272.615.368.244.097.51.158.799.183l-.135.7.34-.01zm.352-3.594c-.092-.028-.176-.06-.252-.095-.076-.035-.14-.077-.194-.124-.054-.047-.094-.101-.12-.163-.027-.063-.036-.135-.028-.217.007-.072.028-.14.063-.206.035-.065.086-.124.153-.178.067-.054.151-.1.252-.14.1-.039.22-.068.358-.087l-.232 1.21zm.396.898c.095.025.181.054.26.086.079.033.146.072.203.118.056.046.098.099.125.16.028.06.038.133.03.215-.02.202-.103.368-.251.497-.148.13-.355.213-.622.252l.255-1.328z"/>
            <ellipse cx="18.473" cy="137.159" fill="#19A982" rx="3.425" ry="2.911"/>
            <path fill="#FFF" d="M18.891 139.27c.051-.007.09-.029.114-.064.024-.035.034-.07.03-.107l-.051-.345c.195-.043.363-.107.502-.191.14-.085.25-.183.332-.296.082-.113.136-.237.16-.371.025-.134.02-.273-.015-.417-.035-.145-.095-.261-.18-.348-.086-.087-.186-.154-.302-.204-.116-.049-.24-.084-.376-.105-.134-.022-.27-.04-.405-.054l-.139-.973c.073.004.14.011.202.024.062.013.118.026.17.04l.138.033c.04.01.073.012.1.008.035-.006.063-.018.084-.038.021-.019.04-.046.058-.08l.108-.236c-.12-.068-.257-.124-.41-.17-.152-.044-.325-.065-.52-.062l-.064-.463-.242.038c-.051.008-.09.029-.114.063-.025.034-.034.07-.03.108l.042.296c-.193.038-.357.098-.494.178-.137.081-.246.173-.327.277-.082.104-.136.217-.163.337-.027.12-.026.24.002.356.038.158.1.284.186.38.085.095.185.17.3.223.115.053.239.091.372.114.133.022.266.039.4.05l.149 1.053c-.103 0-.195-.01-.275-.031-.08-.022-.153-.044-.217-.067l-.172-.061c-.05-.017-.095-.023-.133-.017-.032.005-.061.018-.087.037-.025.019-.044.042-.056.067l-.14.294c.155.09.332.157.53.203.2.045.406.064.62.057l.071.503.242-.038zm-.614-2.55c-.072-.012-.14-.027-.203-.045s-.12-.041-.17-.07c-.05-.027-.092-.062-.126-.103-.033-.041-.057-.091-.072-.15-.012-.05-.013-.1-.004-.15.01-.048.032-.094.067-.138.035-.044.084-.085.147-.12.063-.037.142-.068.237-.094l.124.87zm.502.593c.074.01.143.022.208.038.064.015.122.037.174.064.051.027.094.06.129.1.034.041.059.09.073.15.034.143.014.266-.06.37-.076.104-.205.181-.387.232l-.137-.954z"/>
        </g>
        <circle cx="85.794" cy="168.832" r="13.461" fill="url(#prefix__i)" fill-rule="nonzero" opacity=".871"/>
    </g>
</svg>
