<?xml version="1.0" encoding="UTF-8"?>
<svg width="36px" height="36px" viewBox="0 0 36 36" version="1.1" xmlns="http://www.w3.org/2000/svg" xmlns:xlink="http://www.w3.org/1999/xlink">
    <!-- Generator: Sketch 48.1 (47250) - http://www.bohemiancoding.com/sketch -->
    <title>creditCard</title>
    <desc>Created with Sketch.</desc>
    <defs></defs>
    <g id="booking_step6" stroke="none" stroke-width="1" fill="none" fill-rule="evenodd" transform="translate(-253.000000, -419.000000)">
        <g id="creditCard" transform="translate(253.178709, 419.202049)">
            <path d="M34.078715,12.4116867 L23.0266762,1.35978417 C22.4300572,0.763233386 21.6344517,0.434656677 20.7862875,0.434656677 C19.9381914,0.434656677 19.1425177,0.763097047 18.5458988,1.35964783 L1.02757933,18.8780354 C0.431028551,19.4746544 0.102451842,20.2701918 0.102451842,21.118356 C0.102451842,21.9665202 0.431028551,22.7621939 1.02757933,23.3586765 L2.39042281,24.72152 C2.39055915,24.7215881 2.39062732,24.7217245 2.39076366,24.7218608 C2.3909,24.7219972 2.39103633,24.7221335 2.39117267,24.7222698 L11.5504188,33.881516 L10.2821946,33.881516 C9.88067654,33.881516 9.55509929,34.2070251 9.55509929,34.6086113 C9.55509929,35.0101293 9.88067654,35.3357065 10.2821946,35.3357065 L14.3170756,35.3357065 C14.31803,35.3357065 14.3189162,35.3357747 14.3198706,35.3357747 C14.3208249,35.3357747 14.3217112,35.3357065 14.3226655,35.3357065 L24.8243725,35.3358429 C25.2258905,35.3358429 25.5514678,35.0102656 25.5514678,34.6087476 C25.5514678,34.2071614 25.2258905,33.8816523 24.8243725,33.8816523 L17.089595,33.881516 L34.0787832,16.8923278 C35.3140135,15.6569612 35.3140135,13.646917 34.078715,12.4116867 Z M33.0504472,15.8640599 L15.5319914,33.3825157 C15.2107088,33.7037301 14.7812414,33.8808343 14.3225292,33.881516 L14.3170075,33.881516 C13.8584316,33.8807661 13.4291005,33.7037301 13.1079542,33.3825157 L3.93323361,24.2077269 L20.7571109,7.38371321 C21.0410367,7.09978749 21.0410367,6.63937108 20.7571109,6.35544536 C20.4731171,6.07151963 20.012837,6.07151963 19.7287749,6.35551353 L2.90489759,23.1795272 L2.05577902,22.3304086 C1.73395109,22.0085807 1.55671054,21.5781588 1.55671054,21.1184241 C1.55671054,20.6586894 1.73395109,20.2281994 2.05584719,19.9063033 L19.5741666,2.38798386 C19.8960627,2.06615592 20.3265528,1.88891537 20.7862875,1.88891537 C21.2460222,1.88891537 21.6765122,2.06615592 21.9984083,2.38805203 L25.9319896,6.32156514 L9.10790775,23.1457833 C8.82398203,23.4296409 8.82398203,23.8900573 9.10790775,24.1741193 C9.2499047,24.3160481 9.43600727,24.3870125 9.62204168,24.3870125 C9.80807609,24.3870125 9.99417866,24.31598 10.1361756,24.1740512 L26.9602574,7.34990117 L33.0504472,13.4398864 C33.7187122,14.1082196 33.7186441,15.1957267 33.0504472,15.8640599 Z M21.9397826,5.90014166 C22.1259533,5.90014166 22.3120559,5.8291091 22.4539847,5.68704398 L22.7624514,5.37844092 C23.046309,5.09444703 23.0462408,4.63403062 22.7622469,4.35017306 C22.4783212,4.06631551 22.0178366,4.06638368 21.733979,4.35037757 L21.4255123,4.65898063 C21.1416548,4.94297453 21.1417229,5.40339093 21.4257168,5.68724849 C21.5677138,5.82924544 21.75368,5.90014166 21.9397826,5.90014166 Z M7.41123852,24.8424526 L7.1027718,25.1509193 C6.81884607,25.4347768 6.81884607,25.8951932 7.1027718,26.1792553 C7.24476874,26.3211841 7.43087132,26.3921485 7.61690573,26.3921485 C7.80294013,26.3921485 7.98904271,26.3211841 8.13103965,26.1792553 L8.43950638,25.8707886 C8.7234321,25.5867947 8.7234321,25.1263783 8.43950638,24.8424526 C8.15551248,24.5584587 7.69523241,24.5584587 7.41123852,24.8424526 Z" id="Combined-Shape" fill="#343434" fill-rule="nonzero"></path>
            <path d="M18.0174493,21.4344577 C17.7335235,21.1505319 17.2732435,21.1506001 16.9891132,21.4344577 L11.2673793,27.1561234 C10.9834536,27.4400491 10.9834536,27.9003974 11.2673793,28.1844594 C11.4093763,28.3264564 11.5954788,28.3974208 11.7815133,28.3974208 C11.9675477,28.3974208 12.1536502,28.3263882 12.2956472,28.1844594 L18.0173811,22.4627937 C18.301375,22.1787316 18.301375,21.7183834 18.0174493,21.4344577 Z" id="Shape" fill="#5EDEA8"></path>
            <path d="M15.6706481,26.8659943 L13.323915,29.2127273 C13.0399893,29.496653 13.0399893,29.9570694 13.323915,30.2410633 C13.465912,30.3829921 13.6520146,30.4540246 13.838049,30.4540246 C14.0242197,30.4540246 14.2101859,30.3829921 14.3521829,30.2410633 L16.6989159,27.8943303 C16.9828416,27.6104046 16.9828416,27.1499882 16.6989159,26.8659943 C16.4149902,26.5820004 15.9547783,26.5820004 15.6706481,26.8659943 Z" id="Shape" fill="#5EDEA8"></path>
            <path d="M17.8301878,24.706659 L17.5217211,25.0150576 C17.2377272,25.2989833 17.2377272,25.7593315 17.5216529,26.0433936 C17.6635817,26.1853906 17.8497524,26.2564231 18.0357868,26.2564231 C18.2218212,26.2564231 18.4079238,26.1853906 18.5498526,26.0433936 L18.8583193,25.7349951 C19.1423132,25.4510693 19.1423132,24.9907211 18.8583875,24.7067272 C18.5745981,24.4228015 18.1141135,24.4227333 17.8301878,24.706659 Z" id="Shape" fill="#5EDEA8"></path>
            <path d="M28.0393919,11.5995842 L30.0959276,13.656188 C30.3798534,13.9401138 30.3798534,14.4005302 30.0959276,14.6844559 L27.0110559,17.7692595 C26.869059,17.9111882 26.6830927,17.9822208 26.496922,17.9822208 C26.3108876,17.9822208 26.124785,17.9112564 25.982788,17.7692595 L23.926116,15.7127919 C23.7897771,15.576453 23.7131547,15.3915093 23.7131547,15.198658 C23.7131547,15.0058066 23.7897771,14.8209311 23.926116,14.6845241 L27.0111241,11.5995842 C27.1475311,11.4632453 27.3324066,11.3866228 27.525258,11.3866228 C27.7181093,11.3866228 27.903053,11.4632453 28.0393919,11.5995842 Z M26.4968538,16.2269259 L28.5534577,14.1703901 L27.5251898,13.1420541 L25.4685178,15.198658 L26.4968538,16.2269259 Z" id="Combined-Shape" fill="#5EDEA8" fill-rule="nonzero"></path>
        </g>
    </g>
</svg>