<svg id="Group_970" data-name="Group 970" xmlns="http://www.w3.org/2000/svg" xmlns:xlink="http://www.w3.org/1999/xlink" width="20.578" height="20.578" viewBox="0 0 20.578 20.578">
  <defs>
    <clipPath id="clip-path">
      <rect id="Rectangle_327" data-name="Rectangle 327" width="20.578" height="20.578" fill="none"/>
    </clipPath>
  </defs>
  <g id="Group_969" data-name="Group 969" transform="translate(0 0)" clip-path="url(#clip-path)">
    <path id="Path_1236" data-name="Path 1236" d="M18.426,20.578a2.145,2.145,0,0,1-1.522-.63L.631,3.674A2.152,2.152,0,0,1,3.674.631L19.948,16.9a2.152,2.152,0,0,1-1.522,3.674" transform="translate(0 0)" fill="#e01c1c"/>
    <path id="Path_1237" data-name="Path 1237" d="M2.152,20.578A2.152,2.152,0,0,1,.631,16.9L16.9.631a2.152,2.152,0,0,1,3.044,3.044L3.674,19.948a2.145,2.145,0,0,1-1.522.63" transform="translate(0 0)" fill="#e01c1c"/>
  </g>
</svg>
