<?xml version="1.0" encoding="UTF-8"?>
<svg width="84px" height="84px" viewBox="0 0 84 84" version="1.1" xmlns="http://www.w3.org/2000/svg" xmlns:xlink="http://www.w3.org/1999/xlink">
    <!-- Generator: Sketch 48.1 (47250) - http://www.bohemiancoding.com/sketch -->
    <title>customise</title>
    <desc>Created with Sketch.</desc>
    <defs>
        <polygon id="path-1" points="0.156089868 0.116105203 25.5232593 0.116105203 25.5232593 10.8920793 0.156089868 10.8920793"></polygon>
    </defs>
    <g id="landing-page" stroke="none" stroke-width="1" fill="none" fill-rule="evenodd" transform="translate(-938.000000, -1010.000000)">
        <g id="customise" transform="translate(939.000000, 1011.413677)">
            <path d="M38.5689512,50.1320031 L36.7046395,50.1320031 C36.0390124,50.1320031 35.5001816,50.6714754 35.5001816,51.3373162 C35.5001816,52.0029433 36.0390124,52.5424156 36.7046395,52.5424156 L38.5689512,52.5424156 C39.233723,52.5424156 39.773409,52.0029433 39.773409,51.3373162 C39.773409,50.6714754 39.233723,50.1320031 38.5689512,50.1320031 Z" id="Fill-1" fill="#5EDEA8"></path>
            <path d="M45.4029077,50.1320031 L43.538596,50.1320031 C42.8738242,50.1320031 42.3332829,50.6714754 42.3332829,51.3373162 C42.3332829,52.0029433 42.8738242,52.5424156 43.538596,52.5424156 L45.4029077,52.5424156 C46.0685348,52.5424156 46.6073656,52.0029433 46.6073656,51.3373162 C46.6073656,50.6714754 46.0685348,50.1320031 45.4029077,50.1320031 Z" id="Fill-2" fill="#5EDEA8"></path>
            <path d="M51.3373162,49.1680947 C50.7467406,49.1680947 50.2555921,49.5925309 50.1521024,50.1529576 C49.5925309,50.2555921 49.1680947,50.7467406 49.1680947,51.3373162 C49.1680947,52.0029433 49.7077808,52.5424156 50.3734079,52.5424156 L51.3373162,52.5424156 C52.0029433,52.5424156 52.5424156,52.0029433 52.5424156,51.3373162 L52.5424156,50.3734079 C52.5424156,49.7077808 52.0029433,49.1680947 51.3373162,49.1680947 Z" id="Fill-3" fill="#5EDEA8"></path>
            <path d="M52.5424156,43.538596 C52.5424156,42.8738242 52.0029433,42.3341382 51.3373162,42.3341382 C50.6714754,42.3341382 50.1320031,42.8738242 50.1320031,43.538596 L50.1320031,45.4029077 C50.1320031,46.0685348 50.6714754,46.6073656 51.3373162,46.6073656 C52.0029433,46.6073656 52.5424156,46.0685348 52.5424156,45.4029077 L52.5424156,43.538596 Z" id="Fill-4" fill="#5EDEA8"></path>
            <path d="M52.5424156,36.7046395 C52.5424156,36.0390124 52.0029433,35.5001816 51.3373162,35.5001816 C50.6714754,35.5001816 50.1320031,36.0390124 50.1320031,36.7046395 L50.1320031,38.5689512 C50.1320031,39.2345783 50.6714754,39.7742643 51.3373162,39.7742643 C52.0029433,39.7742643 52.5424156,39.2345783 52.5424156,38.5689512 L52.5424156,36.7046395 Z" id="Fill-5" fill="#5EDEA8"></path>
            <path d="M38.5689512,29.5651316 L36.7046395,29.5651316 C36.0390124,29.5651316 35.5001816,30.1046039 35.5001816,30.770231 C35.5001816,31.4360718 36.0390124,31.9755441 36.7046395,31.9755441 L38.5689512,31.9755441 C39.233723,31.9755441 39.7742643,31.4360718 39.7742643,30.770231 C39.7742643,30.1046039 39.233723,29.5651316 38.5689512,29.5651316 Z" id="Fill-6" fill="#5EDEA8"></path>
            <path d="M45.4029077,29.5651316 L43.538596,29.5651316 C42.8738242,29.5651316 42.3341382,30.1046039 42.3341382,30.770231 C42.3341382,31.4360718 42.8738242,31.9755441 43.538596,31.9755441 L45.4029077,31.9755441 C46.0685348,31.9755441 46.6073656,31.4360718 46.6073656,30.770231 C46.6073656,30.1046039 46.0685348,29.5651316 45.4029077,29.5651316 Z" id="Fill-7" fill="#5EDEA8"></path>
            <path d="M32.9394525,30.770231 C32.9394525,30.1046039 32.3997664,29.5651316 31.7341394,29.5651316 L30.770231,29.5651316 C30.1046039,29.5651316 29.5651316,30.1046039 29.5651316,30.770231 L29.5651316,31.7341394 C29.5651316,32.3997664 30.1046039,32.9394525 30.770231,32.9394525 C31.3608066,32.9394525 31.8519551,32.5150163 31.9554449,31.9545896 C32.5150163,31.8519551 32.9394525,31.3608066 32.9394525,30.770231 Z" id="Fill-8" fill="#5EDEA8"></path>
            <path d="M31.9755441,36.7046395 C31.9755441,36.0390124 31.4360718,35.5001816 30.770231,35.5001816 C30.1046039,35.5001816 29.5651316,36.0390124 29.5651316,36.7046395 L29.5651316,38.5689512 C29.5651316,39.2345783 30.1046039,39.7742643 30.770231,39.7742643 C31.4360718,39.7742643 31.9755441,39.2345783 31.9755441,38.5689512 L31.9755441,36.7046395 Z" id="Fill-9" fill="#5EDEA8"></path>
            <path d="M30.770231,42.3341382 C30.1046039,42.3341382 29.5651316,42.8738242 29.5651316,43.538596 L29.5651316,45.4029077 C29.5651316,46.0693901 30.1046039,46.6082209 30.770231,46.6082209 C31.4360718,46.6082209 31.9755441,46.0693901 31.9755441,45.4029077 L31.9755441,43.538596 C31.9755441,42.8738242 31.4360718,42.3341382 30.770231,42.3341382 Z" id="Fill-10" fill="#5EDEA8"></path>
            <path d="M65.1087191,2.41041245 L67.1308312,2.41041245 C67.7964583,2.41041245 68.3361444,1.87008492 68.3361444,1.20531313 C68.3361444,0.539472244 67.7964583,0 67.1308312,0 L65.1087191,0 C64.443092,0 63.9034059,0.539472244 63.9034059,1.20531313 C63.9034059,1.87008492 64.443092,2.41041245 65.1087191,2.41041245 Z" id="Fill-11" fill="#000000"></path>
            <path d="M57.6933812,2.41041245 L59.7163487,2.41041245 C60.3821896,2.41041245 60.9208065,1.87008492 60.9208065,1.20531313 C60.9208065,0.539472244 60.3821896,0 59.7163487,0 L57.6933812,0 C57.0286094,0 56.4891372,0.539472244 56.4891372,1.20531313 C56.4891372,1.87008492 57.0286094,2.41041245 57.6933812,2.41041245 Z" id="Fill-12" fill="#000000"></path>
            <path d="M72.5240569,2.41041245 L74.5461691,2.41041245 C75.2109409,2.41041245 75.7512684,1.87008492 75.7512684,1.20531313 C75.7512684,0.539472244 75.2109409,0 74.5461691,0 L72.5240569,0 C71.858216,0 71.3187438,0.539472244 71.3187438,1.20531313 C71.3187438,1.87008492 71.858216,2.41041245 72.5240569,2.41041245 Z" id="Fill-13" fill="#000000"></path>
            <path d="M80.9022341,0 L79.9383257,0 C79.2726986,0 78.7332264,0.539472244 78.7332264,1.20531313 C78.7332264,1.79503349 79.1574487,2.2859682 79.7178755,2.38967174 C79.821579,2.95009851 80.3125137,3.37432084 80.9022341,3.37432084 C81.568075,3.37432084 82.1075472,2.8348486 82.1075472,2.16922153 L82.1075472,1.20531313 C82.1075472,0.539472244 81.568075,0 80.9022341,0 Z" id="Fill-14" fill="#000000"></path>
            <path d="M80.9022341,13.6262179 C80.2374623,13.6262179 79.6971348,14.1656901 79.6971348,14.8313172 L79.6971348,16.8309781 C79.6971348,17.4957499 80.2374623,18.0354359 80.9022341,18.0354359 C81.568075,18.0354359 82.1075472,17.4957499 82.1075472,16.8309781 L82.1075472,14.8313172 C82.1075472,14.1656901 81.568075,13.6262179 80.9022341,13.6262179 Z" id="Fill-15" fill="#000000"></path>
            <path d="M80.9022341,6.29512577 C80.2374623,6.29512577 79.6971348,6.83481184 79.6971348,7.5012942 L79.6971348,9.5000998 C79.6971348,10.1657269 80.2374623,10.7051991 80.9022341,10.7051991 C81.568075,10.7051991 82.1075472,10.1657269 82.1075472,9.5000998 L82.1075472,7.5012942 C82.1075472,6.83481184 81.568075,6.29512577 80.9022341,6.29512577 Z" id="Fill-16" fill="#000000"></path>
            <g id="Group-20">
                <path d="M80.9022341,20.9570961 C80.2374623,20.9570961 79.6971348,21.4965684 79.6971348,22.1621955 L79.6971348,24.1610011 C79.6971348,24.8274834 80.2374623,25.3671695 80.9022341,25.3671695 C81.568075,25.3671695 82.1075472,24.8274834 82.1075472,24.1610011 L82.1075472,22.1621955 C82.1075472,21.4965684 81.568075,20.9570961 80.9022341,20.9570961 Z" id="Fill-17" fill="#000000"></path>
                <path d="M80.9022341,28.2879744 C80.2374623,28.2879744 79.6971348,28.8265914 79.6971348,29.4932875 L79.6971348,29.5651316 L52.5424156,29.5651316 L52.5424156,2.38625059 C53.0921512,2.27442182 53.506324,1.78819119 53.506324,1.20531313 C53.506324,0.539472244 52.9668517,0 52.3012246,0 L1.20531313,0 C0.539472244,0 0,0.539472244 0,1.20531313 L0.156089868,52.3012246 C0.156089868,52.9668517 0.695775934,53.506324 1.36225829,53.506324 C1.94449488,53.506324 2.43136698,53.0921512 2.54255428,52.5424156 L29.5651316,52.5424156 L29.5651316,79.7011974 C28.9394892,79.7454585 28.4440643,80.2650453 28.4440643,80.9022341 C28.4440643,81.568075 28.9837503,82.1075472 29.6493774,82.1075472 L80.9022341,82.1075472 C81.568075,82.1075472 82.1075472,81.568075 82.1075472,80.9022341 L82.1075472,62.3172763 C82.1075472,61.6516492 81.568075,61.112177 80.9022341,61.112177 C80.2374623,61.112177 79.6971348,61.6516492 79.6971348,62.3172763 L79.6971348,79.6971348 L31.9755441,79.6971348 L31.9755441,52.5182537 C32.525066,52.4064249 32.9394525,51.9201943 32.9394525,51.3373162 C32.9394525,50.7467406 32.5150163,50.2555921 31.9554449,50.1529576 C31.8519551,49.5925309 31.3608066,49.1680947 30.770231,49.1680947 C30.1873529,49.1680947 29.7011223,49.5824812 29.5892935,50.1320031 L2.41041245,50.1320031 L2.41041245,2.41041245 L50.1320031,2.41041245 L50.1320031,29.5892935 C49.5824812,29.7011223 49.1680947,30.1873529 49.1680947,30.770231 C49.1680947,31.3608066 49.5925309,31.8519551 50.1521024,31.9545896 C50.2555921,32.5150163 50.7467406,32.9394525 51.3373162,32.9394525 C51.9201943,32.9394525 52.4064249,32.525066 52.5182537,31.9755441 L79.6971348,31.9755441 L79.6971348,56.5333983 C79.6971348,57.1981701 80.2374623,57.7376423 80.9022341,57.7376423 C81.568075,57.7376423 82.1075472,57.1981701 82.1075472,56.5333983 L82.1075472,29.4932875 C82.1075472,28.8265914 81.568075,28.2879744 80.9022341,28.2879744 Z" id="Fill-19" fill="#000000"></path>
                <polyline id="Rectangle-9" stroke="#5EDEA8" stroke-width="4" transform="translate(26.044861, 26.044861) rotate(180.000000) translate(-26.044861, -26.044861) " points="20.2344704 1 51.0897215 1 51.0897215 30.3972661 51.0897215 51.0897215 30.2225234 51.0897215 1 51.0897215 1 20.5950198"></polyline>
            </g>
            <path d="M0.156089868,67.1308312 C0.156089868,67.7964583 0.695775934,68.3361444 1.36225829,68.3361444 C2.02703007,68.3361444 2.56671614,67.7964583 2.56671614,67.1308312 L2.56671614,65.1087191 C2.56671614,64.443092 2.02703007,63.9034059 1.36225829,63.9034059 C0.695775934,63.9034059 0.156089868,64.443092 0.156089868,65.1087191 L0.156089868,67.1308312 Z" id="Fill-21" fill="#000000"></path>
            <path d="M1.36225829,60.9208065 C2.02703007,60.9208065 2.56671614,60.3821896 2.56671614,59.7163487 L2.56671614,57.6933812 C2.56671614,57.0286094 2.02703007,56.4891372 1.36225829,56.4891372 C0.695775934,56.4891372 0.156089868,57.0286094 0.156089868,57.6933812 L0.156089868,59.7163487 C0.156089868,60.3821896 0.695775934,60.9208065 1.36225829,60.9208065 Z" id="Fill-22" fill="#000000"></path>
            <g id="Group-29" transform="translate(0.000000, 71.202639)">
                <mask id="mask-2" fill="white">
                    <use xlink:href="#path-1"></use>
                </mask>
                <g id="Clip-24"></g>
                <path d="M0.156089868,3.34353051 C0.156089868,4.00830229 0.695775934,4.54798836 1.36225829,4.54798836 C2.02703007,4.54798836 2.56671614,4.00830229 2.56671614,3.34353051 L2.56671614,1.32056305 C2.56671614,0.655577447 2.02703007,0.116105203 1.36225829,0.116105203 C0.695775934,0.116105203 0.156089868,0.655577447 0.156089868,1.32056305 L0.156089868,3.34353051 Z" id="Fill-23" fill="#000000" mask="url(#mask-2)"></path>
                <path d="M2.54661689,8.51523687 C2.44312717,7.9548101 1.95197864,7.53058777 1.36225829,7.53058777 C0.695775934,7.53058777 0.156089868,8.07006002 0.156089868,8.73568709 L0.156089868,9.69959548 C0.156089868,10.3654364 0.695775934,10.9049086 1.36225829,10.9049086 L2.32616668,10.9049086 C2.99093846,10.9049086 3.53147982,10.3654364 3.53147982,9.69959548 C3.53147982,9.10987513 3.10618838,8.61894042 2.54661689,8.51523687 Z" id="Fill-25" fill="#000000" mask="url(#mask-2)"></path>
                <path d="M24.3179462,8.49449617 L22.3184991,8.49449617 C21.6537274,8.49449617 21.1140413,9.0348237 21.1140413,9.69959548 C21.1140413,10.3654364 21.6537274,10.9049086 22.3184991,10.9049086 L24.3179462,10.9049086 C24.9837871,10.9049086 25.5232593,10.3654364 25.5232593,9.69959548 C25.5232593,9.0348237 24.9837871,8.49449617 24.3179462,8.49449617 Z" id="Fill-26" fill="#000000" mask="url(#mask-2)"></path>
                <path d="M16.9879232,8.49449617 L14.9884762,8.49449617 C14.3226353,8.49449617 13.7823077,9.0348237 13.7823077,9.69959548 C13.7823077,10.3654364 14.3226353,10.9049086 14.9884762,10.9049086 L16.9879232,10.9049086 C17.6529088,10.9049086 18.1923811,10.3654364 18.1923811,9.69959548 C18.1923811,9.0348237 17.6529088,8.49449617 16.9879232,8.49449617 Z" id="Fill-27" fill="#000000" mask="url(#mask-2)"></path>
                <path d="M9.65618967,8.49449617 L7.65738406,8.49449617 C6.991757,8.49449617 6.45228475,9.0348237 6.45228475,9.69959548 C6.45228475,10.3654364 6.991757,10.9049086 7.65738406,10.9049086 L9.65618967,10.9049086 C10.322672,10.9049086 10.8615028,10.3654364 10.8615028,9.69959548 C10.8615028,9.0348237 10.322672,8.49449617 9.65618967,8.49449617 Z" id="Fill-28" fill="#000000" mask="url(#mask-2)"></path>
            </g>
        </g>
    </g>
</svg>