<?xml version="1.0" encoding="UTF-8"?>
<svg width="20px" height="20px" viewBox="0 0 20 20" version="1.1" xmlns="http://www.w3.org/2000/svg" xmlns:xlink="http://www.w3.org/1999/xlink">
    <!-- Generator: Sketch 48.1 (47250) - http://www.bohemiancoding.com/sketch -->
    <title>dashboard</title>
    <desc>Created with Sketch.</desc>
    <defs>
        <polygon id="path-1" points="0.00234375 0 9.16671875 0 9.16671875 20 0.00234375 20"></polygon>
    </defs>
    <g id="OrderDetails" stroke="none" stroke-width="1" fill="none" fill-rule="evenodd" transform="translate(-40.000000, -293.000000)">
        <g id="dashboard" transform="translate(40.000000, 293.000000)">
            <g id="Group-4">
                <mask id="mask-2" fill="white">
                    <use xlink:href="#path-1"></use>
                </mask>
                <g id="Clip-2"></g>
                <path d="M7.70828125,0 L1.45828125,0 C0.654140625,0 0,0.654140625 0,1.45828125 L0,5.20828125 C0,6.01257812 0.654140625,6.66671875 1.45828125,6.66671875 L7.70828125,6.66671875 C8.51257812,6.66671875 9.16671875,6.01257812 9.16671875,5.20828125 L9.16671875,1.45828125 C9.16671875,0.654140625 8.51257812,0 7.70828125,0 Z" id="Fill-1" fill="#FFFFFF" mask="url(#mask-2)"></path>
                <path d="M7.70828125,8.33328125 L1.45828125,8.33328125 C0.654140625,8.33328125 0,8.98742187 0,9.79171875 L0,18.5417187 C0,19.3458594 0.654140625,20 1.45828125,20 L7.70828125,20 C8.51257812,20 9.16671875,19.3458594 9.16671875,18.5417187 L9.16671875,9.79171875 C9.16671875,8.98742187 8.51257812,8.33328125 7.70828125,8.33328125 Z" id="Fill-3" fill="#FFFFFF" mask="url(#mask-2)"></path>
            </g>
            <path d="M18.5417187,13.3332812 L12.2917187,13.3332812 C11.4874219,13.3332812 10.8332812,13.9874219 10.8332812,14.7917187 L10.8332812,18.5417188 C10.8332812,19.3458594 11.4874219,20 12.2917187,20 L18.5417187,20 C19.3458594,20 20,19.3458594 20,18.5417188 L20,14.7917187 C20,13.9874219 19.3458594,13.3332812 18.5417187,13.3332812 Z" id="Fill-5" fill="#FFFFFF"></path>
            <path d="M18.5417187,0 L12.2917187,0 C11.4874219,0 10.8332812,0.654140625 10.8332812,1.45828125 L10.8332812,10.2082812 C10.8332812,11.0125781 11.4874219,11.6667187 12.2917187,11.6667187 L18.5417187,11.6667187 C19.3458594,11.6667187 20,11.0125781 20,10.2082812 L20,1.45828125 C20,0.654140625 19.3458594,0 18.5417187,0 Z" id="Fill-6" fill="#FFFFFF"></path>
        </g>
    </g>
</svg>