<?xml version="1.0" encoding="utf-8"?>
<!-- Generator: Adobe Illustrator 25.1.0, SVG Export Plug-In . SVG Version: 6.00 Build 0)  -->
<svg version="1.1" id="Calque_1" xmlns="http://www.w3.org/2000/svg" xmlns:xlink="http://www.w3.org/1999/xlink" x="0px" y="0px"
	 viewBox="0 0 105.7 111.6" style="enable-background:new 0 0 105.7 111.6;" xml:space="preserve">
<style type="text/css">
	.st0{fill:#FFC100;}
</style>
<g>
	<g id="Layer_2_2_">
		<path class="st0" d="M45.6,19.2c0-5-4.1-9.1-9.1-9.1s-9.1,4.1-9.1,9.1s4.1,9.1,9.1,9.1S45.6,24.3,45.6,19.2L45.6,19.2z M11.1,45.9
			c1.5-1.8,4.2-2.1,6-0.6l11,5L37,32l9.3-5.5l20.3-0.4c2.1-0.1,4.2,0.9,5.5,2.7l7.8,10.7c1.2,1.7,0.9,4.1-0.9,5.3h-0.1
			c-1.7,1.2-4.1,0.8-5.3-0.9l0,0l-7-9.9l-11.4,1.9l17.2,34.6l16.7-7.6c1.8-0.9,4-0.3,5,1.5l0.6,1c1.1,1.8,0.5,4.2-1.4,5.2L73.8,82.1
			c-2.2,1.3-4.9,0.7-6.4-1.4c-4.2-5.9-12.2-17.1-12.6-16.9l-14.9,10l-0.1,20.5c0,0,0,5.5-2.5,6.6s-5.5,0-6.6-2.5l0,0l-2-25
			c0,0,0-5.4,2.4-6.6l16.1-12.5l-6.2-9l-8.5,13.3c-1.5,1.7-4.1,1.9-5.9,0.5l-15.1-7.2C9.9,50.4,9.6,47.7,11.1,45.9z"/>
	</g>
</g>
</svg>
