<?xml version="1.0" encoding="utf-8"?>
<!-- Generator: Adobe Illustrator 25.1.0, SVG Export Plug-In . SVG Version: 6.00 Build 0)  -->
<svg version="1.1" id="Calque_1" xmlns="http://www.w3.org/2000/svg" xmlns:xlink="http://www.w3.org/1999/xlink" x="0px" y="0px"
	 viewBox="0 0 105.7 111.6" style="enable-background:new 0 0 105.7 111.6;" xml:space="preserve">
<style type="text/css">
	.st0{fill:#FFC100;}
</style>
<g id="Layer_2_1_">
	<path class="st0" d="M59.3,19.4c0-5.1,4.1-9.3,9.3-9.3c5.1,0,9.3,4.1,9.3,9.3s-4.1,9.3-9.3,9.3S59.3,24.5,59.3,19.4L59.3,19.4z
		 M94.3,46.4c-1.5-1.9-4.2-2.1-6.1-0.6L77,50.9l-9.1-18.6l-9.4-5.5l-20.4-0.5c-2.2-0.1-4.3,0.9-5.5,2.7l-7.9,10.9
		c-1.3,1.7-0.9,4.2,0.9,5.4l0,0h0.1c1.7,1.2,4.2,0.9,5.4-0.9l0,0l7.1-10.1l11.5,2L32.3,71.4l-16.9-7.7c-1.8-0.9-4.1-0.3-5.1,1.5
		l-0.6,1c-1.1,1.8-0.5,4.2,1.4,5.3L30.7,83c2.2,1.3,5,0.7,6.5-1.4c4.3-6,12.4-17.3,12.7-17.1L65,74.6l0.1,20.7c0,0,0,5.6,2.5,6.7
		c2.6,1.2,5.6,0,6.7-2.5l0,0l2-25.3c0,0,0-5.5-2.5-6.7L57.5,54.9l6.3-9.1l8.6,13.4c1.5,1.7,4.2,2,6,0.5l15.2-7.3
		C95.5,51,95.8,48.2,94.3,46.4L94.3,46.4L94.3,46.4z"/>
</g>
</svg>
