<?xml version="1.0" encoding="utf-8"?>
<!-- Generator: Adobe Illustrator 25.1.0, SVG Export Plug-In . SVG Version: 6.00 Build 0)  -->
<svg version="1.1" id="Calque_1" xmlns="http://www.w3.org/2000/svg" xmlns:xlink="http://www.w3.org/1999/xlink" x="0px" y="0px"
	 viewBox="0 0 100 100" style="enable-background:new 0 0 100 100;" xml:space="preserve">
<style type="text/css">
	.st0{fill:#FFC100;}
</style>
<path id="Tracé_4" class="st0" d="M50,7C25.4,7,5.3,27,5.3,51.7s20,44.7,44.7,44.7s44.7-20,44.7-44.7l0,0l0,0C94.8,27,74.8,7,50,7
	C50.1,7,50.1,7,50,7z M54.2,53.6c-1.2,2.2-4,3-6.2,1.8l0,0l0,0l-11.6-6.7c-2.1-1.3-2.8-4.1-1.4-6.2c1.2-2,3.8-2.7,5.9-1.6l4.9,2.8
	V29.1c0-2.5,2-4.5,4.5-4.5s4.5,2,4.5,4.5l0,0l0,0v22.4C54.7,52.3,54.5,53,54.2,53.6z"/>
</svg>
