<?xml version="1.0" encoding="UTF-8"?>
<svg width="22px" height="25px" viewBox="0 0 22 25" version="1.1" xmlns="http://www.w3.org/2000/svg" xmlns:xlink="http://www.w3.org/1999/xlink">
    <!-- Generator: Sketch 48.1 (47250) - http://www.bohemiancoding.com/sketch -->
    <title>driver</title>
    <desc>Created with Sketch.</desc>
    <defs></defs>
    <g id="OrderDetails" stroke="none" stroke-width="1" fill="none" fill-rule="evenodd" transform="translate(-39.000000, -450.000000)">
        <g id="driver" transform="translate(39.285714, 450.500000)" fill="#FFFFFF">
            <path d="M16.4624256,3.39453125 C15.4782366,1.44703311 13.3040365,0 10.4631696,0 C7.58105469,0 5.94149926,1.28408668 4.59198289,3.26446243 L4.59272693,3.26446243 C4.53004092,3.40452939 3.86755952,3.92606027 4.33240327,4.85574777 C4.57017299,5.33133371 5.04831659,5.62686012 5.58035714,5.62686012 L15.3459821,5.62686012 C15.8780227,5.62686012 16.3561663,5.33133371 16.593936,4.85574777 C16.8317057,4.38016183 16.7812035,3.82105655 16.4624256,3.39453125 Z M11.4497303,3.53422619 L10.4631696,4.52078683 L9.476609,3.53422619 L10.4631696,2.54766555 L11.4497303,3.53422619 Z" id="Fill-1"></path>
            <path d="M14.9082031,13.5256231 C14.8994606,13.5345517 14.8911365,13.5436198 14.882208,13.5523624 L11.8190104,23.8095238 L12.8796968,23.8095238 L15.2384673,20.2247954 L14.4971168,18.742513 L16.5795666,16.6595052 L14.9082031,13.5256231 Z" id="Fill-2"></path>
            <path d="M8.04664249,23.8095238 L9.10677083,23.8095238 L6.04394531,13.5521763 C6.03520275,13.5434338 6.02687872,13.5343657 6.01813616,13.5256231 L4.34677269,16.6595052 L6.42903646,18.742513 L5.68787202,20.2247954 L8.04664249,23.8095238 Z" id="Fill-3"></path>
            <path d="M7.88206845,14.8240792 L10.4629836,23.4743769 L13.0440848,14.8240792 C12.4573568,15.0907738 11.8266369,15.273856 11.1607143,15.3481678 L11.1607143,20.2752976 L9.765625,20.2752976 L9.765625,15.3481678 C9.09970238,15.273856 8.4687965,15.0907738 7.88206845,14.8240792 Z" id="Fill-4"></path>
            <g id="Group-8" transform="translate(0.000000, 12.602307)">
                <path d="M0,4.8828125 L0,11.2072173 L6.36983817,11.2072173 L4.07775298,7.7234933 L4.73167783,6.4155971 L2.62867374,4.31333705 L4.92894345,0 L4.8828125,0 C2.19070871,0 0,2.19070871 0,4.8828125 Z" id="Fill-5"></path>
                <path d="M20.9263393,4.8828125 C20.9263393,2.19070871 18.7356306,0 16.0435268,0 L15.9973958,0 L18.2976656,4.31333705 L16.1948475,6.4155971 L16.8487723,7.7234933 L14.5565011,11.2072173 L20.9263393,11.2072173 L20.9263393,4.8828125 Z" id="Fill-7"></path>
            </g>
            <path d="M11.8582589,8.41703869 C12.7676246,8.41703869 13.5434338,7.83393787 13.8317522,7.0219494 L7.09458705,7.0219494 C7.38271949,7.83393787 8.15871466,8.41703869 9.06808036,8.41703869 L11.8582589,8.41703869 Z" id="Fill-9"></path>
            <path d="M5.65104167,7.0219494 L5.58035714,7.0219494 L5.58035714,9.11458333 C5.58035714,11.8066871 7.77106585,13.9973958 10.4631696,13.9973958 C13.1552734,13.9973958 15.3459821,11.8066871 15.3459821,9.11458333 L15.3459821,7.0219494 L15.2752976,7.0219494 C14.9512649,8.61193266 13.5423642,9.81212798 11.8582589,9.81212798 L9.06808036,9.81212798 C7.38397507,9.81212798 5.9750744,8.61193266 5.65104167,7.0219494 Z" id="Fill-10"></path>
        </g>
    </g>
</svg>