<svg xmlns="http://www.w3.org/2000/svg" width="25.011" height="25.011" viewBox="0 0 25.011 25.011">
  <g id="Group_129" data-name="Group 129" transform="translate(-7.015 -59)">
    <path id="Path_8" data-name="Path 8" d="M19.528,59A12.505,12.505,0,1,1,7.015,71.483,12.5,12.5,0,0,1,19.528,59Zm.109,2.11a11.8,11.8,0,0,0-2.285.236,10.23,10.23,0,0,0-4.111,1.884,10.358,10.358,0,0,0-3.2,4.029,2.7,2.7,0,0,0-.187.578c-.039.194.029.265.216.331.229.081.459.163.686.249a.323.323,0,0,1,.229.386q-.2,1.16-.406,2.319a.331.331,0,0,1-.36.286c-.258,0-.516,0-.775,0a.219.219,0,0,0-.243.176,1.713,1.713,0,0,0-.051.441,10.363,10.363,0,0,0,3.088,6.882,10.212,10.212,0,0,0,4.621,2.634,4.76,4.76,0,0,0,.775.114c.129.012.206-.069.227-.206.04-.25.088-.5.135-.748a.346.346,0,0,1,.379-.322q1.155,0,2.31,0a.343.343,0,0,1,.361.308c.041.219.076.44.116.66.052.285.143.371.426.312a11.283,11.283,0,0,0,1.31-.334,10.166,10.166,0,0,0,4.179-2.693,10.307,10.307,0,0,0,2.274-3.759,10.141,10.141,0,0,0,.517-2.442,4.867,4.867,0,0,0,0-.743c-.015-.206-.113-.276-.314-.276-.239,0-.476,0-.715,0a.344.344,0,0,1-.38-.3q-.2-1.144-.4-2.29a.327.327,0,0,1,.226-.4c.231-.089.466-.17.7-.254.174-.062.231-.13.205-.311a1.66,1.66,0,0,0-.116-.413,10.066,10.066,0,0,0-2.287-3.35A10.273,10.273,0,0,0,19.637,61.11Z" transform="translate(0 0)" fill="#fff"/>
    <path id="Path_9" data-name="Path 9" d="M29.6,74.8l-1.234.3c-1.211.3-2.422.589-3.632.891a.23.23,0,0,0-.125.139,3.653,3.653,0,0,1-1.358,1.874c-.148.108-.316.187-.468.291a.241.241,0,0,0-.1.155c-.059.852-.108,1.706-.163,2.559-.046.7-.1,1.4-.145,2.1-.007.1-.011.206-.016.326H21.9c-.611,0-1.222,0-1.834,0-.126,0-.171-.034-.179-.164-.079-1.324-.165-2.648-.249-3.973-.018-.282-.032-.566-.06-.847a.231.231,0,0,0-.1-.156,3.679,3.679,0,0,1-1.832-2.177.241.241,0,0,0-.147-.134q-2.35-.582-4.7-1.153c-.042-.011-.084-.026-.135-.043l.421-2.4.3.028q2.3.254,4.608.51a.252.252,0,0,0,.264-.106,3.635,3.635,0,0,1,5.279-.511c.182.159.329.357.5.529a.268.268,0,0,0,.181.087c.84-.088,1.679-.186,2.518-.279.79-.087,1.581-.169,2.372-.254.019,0,.039,0,.078,0Zm-8.485,2.865a2.617,2.617,0,1,0-2.6-2.63A2.621,2.621,0,0,0,21.118,77.664Z" transform="translate(-1.613 -3.543)" fill="#fff"/>
    <path id="Path_10" data-name="Path 10" d="M23.667,77.781a2.128,2.128,0,1,0-2.13-2.135A2.124,2.124,0,0,0,23.667,77.781Z" transform="translate(-4.148 -4.149)" fill="#fff"/>
    <path id="Path_11" data-name="Path 11" d="M23.667,77.781a2.128,2.128,0,1,1,2.127-2.122A2.126,2.126,0,0,1,23.667,77.781Z" transform="translate(-4.148 -4.149)" fill="#fff"/>
  </g>
</svg>
