<svg xmlns="http://www.w3.org/2000/svg" width="22" height="24" viewBox="0 0 22 24">
    <g fill="#FFF" fill-rule="evenodd">
        <path d="M16.748 3.395C15.764 1.447 13.59 0 10.748 0c-2.881 0-4.52 1.284-5.87 3.264-.062.14-.725.662-.26 1.592.238.475.716.77 1.248.77h9.766c.532 0 1.01-.295 1.248-.77a1.389 1.389 0 0 0-.132-1.461zm-5.013.14l-.986.986-.987-.987.987-.986.986.986zM15.194 13.526l-.026.026-3.063 10.258h1.06l2.36-3.585-.742-1.482 2.082-2.083-1.671-3.134zM8.332 23.81h1.06L6.33 13.552l-.026-.026-1.672 3.134 2.083 2.083-.741 1.482 2.358 3.585zM8.168 14.824l2.58 8.65 2.582-8.65a6.205 6.205 0 0 1-1.884.524v4.927h-1.395v-4.927a6.206 6.206 0 0 1-1.883-.524z"/>
        <path d="M.286 17.485v6.325h6.37l-2.293-3.484.654-1.308-2.103-2.102 2.3-4.314H5.17a4.889 4.889 0 0 0-4.883 4.883zM21.212 17.485a4.889 4.889 0 0 0-4.883-4.883h-.046l2.3 4.314-2.102 2.102.653 1.308-2.292 3.484h6.37v-6.325zM12.144 8.417c.91 0 1.685-.583 1.973-1.395H7.38a2.097 2.097 0 0 0 1.974 1.395h2.79z"/>
        <path d="M5.937 7.022h-.07v2.093a4.889 4.889 0 0 0 4.882 4.882 4.889 4.889 0 0 0 4.883-4.882V7.022h-.071a3.493 3.493 0 0 1-3.417 2.79h-2.79a3.493 3.493 0 0 1-3.417-2.79z"/>
    </g>
</svg>
