<svg xmlns="http://www.w3.org/2000/svg" xmlns:xlink="http://www.w3.org/1999/xlink" width="510" height="330" viewBox="0 0 510 330">
    <defs>
        <linearGradient id="prefix__a" x1="36.309%" x2="66.054%" y1="-3.207%" y2="97.414%">
            <stop offset="0%" stop-color="#EEF8FA"/>
            <stop offset="100%" stop-color="#D9EEF3"/>
        </linearGradient>
        <linearGradient id="prefix__b" x1="146.006%" x2="-18.429%" y1="41.477%" y2="57.35%">
            <stop offset="0%" stop-color="#1DC599"/>
            <stop offset="100%" stop-color="#1DC599" stop-opacity="0"/>
        </linearGradient>
        <linearGradient id="prefix__c" x1="0%" x2="12.658%" y1="-7.842%" y2="179.662%">
            <stop offset="0%" stop-color="#F5A42C" stop-opacity="0"/>
            <stop offset="100%" stop-color="#FDBE56"/>
        </linearGradient>
        <linearGradient id="prefix__d" x1="102.438%" x2="-4.284%" y1="58.643%" y2="12.576%">
            <stop offset="0%" stop-color="#222121"/>
            <stop offset="100%" stop-color="#565555"/>
        </linearGradient>
        <linearGradient id="prefix__e" x1="131.821%" x2="68.052%" y1="-56.093%" y2="76.421%">
            <stop offset="0%" stop-color="#3CBAF4"/>
            <stop offset="100%" stop-color="#1C84E5"/>
        </linearGradient>
        <linearGradient id="prefix__f" x1="35.387%" x2="32.938%" y1="91.643%" y2="25.969%">
            <stop offset="0%" stop-color="#3D4143"/>
            <stop offset="63.946%" stop-color="#1D82DF"/>
            <stop offset="100%" stop-color="#1C84E5"/>
        </linearGradient>
        <linearGradient id="prefix__g" x1="50%" x2="54.412%" y1="40.585%" y2="73.812%">
            <stop offset="0%" stop-color="#276480"/>
            <stop offset="74.747%" stop-color="#1C83E3"/>
            <stop offset="100%" stop-color="#1C84E5"/>
        </linearGradient>
        <linearGradient id="prefix__i" x1="50%" x2="51.323%" y1="0%" y2="176.457%">
            <stop offset="0%" stop-color="#3D4143"/>
            <stop offset="74.747%" stop-color="#1C83E3"/>
            <stop offset="100%" stop-color="#1C84E5"/>
        </linearGradient>
        <linearGradient id="prefix__k" x1="81.553%" x2="56.961%" y1="-56.093%" y2="76.421%">
            <stop offset="0%" stop-color="#3CBAF4"/>
            <stop offset="100%" stop-color="#1C84E5"/>
        </linearGradient>
        <linearGradient id="prefix__l" x1="50%" x2="35.834%" y1="42.508%" y2="78.262%">
            <stop offset="0%" stop-color="#3CBAF4"/>
            <stop offset="100%" stop-color="#1C84E5"/>
        </linearGradient>
        <linearGradient id="prefix__m" x1="50%" x2="35.834%" y1="47.578%" y2="59.136%">
            <stop offset="0%" stop-color="#3CBAF4"/>
            <stop offset="100%" stop-color="#1C84E5"/>
        </linearGradient>
        <linearGradient id="prefix__n" x1="87.59%" x2="87.59%" y1="-22.057%" y2="76.421%">
            <stop offset="0%" stop-color="#3CBAF4"/>
            <stop offset="100%" stop-color="#1C84E5"/>
        </linearGradient>
        <linearGradient id="prefix__s" x1="36.309%" x2="66.054%" y1="48.81%" y2="51.06%">
            <stop offset="0%" stop-color="#EEF8FA"/>
            <stop offset="100%" stop-color="#D9EEF3"/>
        </linearGradient>
        <linearGradient id="prefix__t" x1="36.309%" x2="66.054%" y1="-11.071%" y2="104.422%">
            <stop offset="0%" stop-color="#EEF8FA"/>
            <stop offset="100%" stop-color="#D9EEF3"/>
        </linearGradient>
        <path id="prefix__h" d="M0 30.442L187.278 0 256.64 76.298 53.563 111.365z"/>
        <path id="prefix__o" d="M0 16.199c9.71-5.627 16.466-9.813 20.266-12.56 3.8-2.746 5.36-3.898 4.679-3.454 6.004 7.685 7.466 12.941 4.386 15.767-3.08 2.827-9.242 7.476-18.484 13.948L0 16.199z"/>
        <path id="prefix__q" d="M0 16.199c9.71-5.627 16.466-9.813 20.266-12.56 3.8-2.746 5.36-3.898 4.679-3.454 6.004 7.685 7.466 12.941 4.386 15.767-3.08 2.827-9.242 7.476-18.484 13.948L0 16.199z"/>
    </defs>
    <g fill="none" fill-rule="evenodd" transform="translate(.05 .19)">
        <g fill-rule="nonzero">
            <g>
                <path fill="url(#prefix__a)" d="M49.41 295.468c-58.804-31.902-61.714-85.135-26.584-122.163 35.13-37.029 109.187-50.321 129.125-69.31C171.89 85.005 215.248-13.737 273.798 1.77c58.55 15.507 131.657 253.82 5.063 296.861-126.593 43.042-170.646 28.738-229.45-3.164z" opacity=".871" transform="translate(33.85)"/>
                <path fill="url(#prefix__b)" d="M143.999 278.662c30.725 0 58.002 14.767 75.12 37.59l-.007.006c-8.411 2.014-16.364 3.675-23.917 5.007-13.105-13.096-31.205-21.195-51.196-21.195-17.82 0-34.136 6.435-46.753 17.108-7.441-2.43-14.681-5.333-21.922-8.623 17.13-18.392 41.559-29.893 68.675-29.893z" transform="translate(33.85)"/>
                <path fill="url(#prefix__c)" d="M245.57 2.725c-4.946 9.798-7.732 20.873-7.732 32.598 0 40.003 32.428 72.431 72.43 72.431 9.754 0 19.058-1.928 27.551-5.424l.005-.006c1.902 6.872 3.594 13.9 5.043 21.02l-.003.002c-10.153 3.761-21.134 5.816-32.596 5.816-51.826 0-93.839-42.013-93.839-93.839 0-5.355.449-10.605 1.31-15.714 8.593-7.54 17.795-13.538 27.556-16.795l.275-.089z" transform="translate(33.85)"/>
            </g>
            <path fill="#232323" d="M437.775 25.225L429.643 1.61 406.028 9.74l8.131 23.616 23.616-8.132zm-4.536-2.212l-16.868 5.808-5.808-16.868 16.868-5.808 5.808 16.868zM12.04 268.743c.694-.594 1.72-.565 2.38.053l.059.058 7.993 8.21 6.705-8.103c.597-.721 1.646-.855 2.403-.32l.064.048 12.427 9.633c.78.604.921 1.725.317 2.503-.587.758-1.664.913-2.439.364l-.064-.047-11.06-8.575-6.871 8.303c-.66.797-1.853.864-2.598.16l-.055-.053-8.212-8.435-9.983 8.546c-.728.623-1.814.557-2.462-.136l-.053-.06c-.624-.728-.558-1.814.136-2.462l.06-.053 11.254-9.634z"/>
        </g>
        <g fill-rule="nonzero">
            <g>
                <path fill="#FD8F86" d="M7.165 23.549C2.692 20.168.314 16.599.03 12.845-.255 9.09 1.53 4.808 5.381 0L8.95 2.498l1.784 18.553-3.568 2.498z" transform="rotate(-16 344.373 -820.333) translate(.285 2.21)"/>
                <path fill="#40B88E" d="M30.106 8.742c4.42 32.868 8.435 53.816 12.046 62.843 3.61 9.027 6.055 16.038 7.331 21.033l9.94 10.644 14.679-26.598C93.16 63.42 99.644 55.672 93.55 53.42c-6.094-2.252-16.652-3.591-31.675-4.018L40.03.97c-3.254 1.715-5.633 3.143-7.136 4.282-1.504 1.139-2.433 2.302-2.788 3.49z" transform="rotate(-16 344.373 -820.333) translate(.285 2.21)"/>
            </g>
            <g>
                <path fill="#4FBC96" d="M.2 54.189C4.586 75.15 4.995 88.844 1.427 95.266c-3.568 6.422 12.607 7.969 48.525 4.638 4.097-30.884 6.146-55.008 6.146-72.373C56.098 1.485 41.374.311 34.95.311c-4.282 0-10.223 1.918-17.825 5.755C9.912 18.776 5.453 28.104 3.748 34.049 2.044 39.994.861 46.707.2 54.189z" transform="rotate(-16 344.373 -820.333) translate(42.46 43.425)"/>
                <path fill="#45AB87" d="M52.103 9c2.386 4.03 3.995 9.922 3.995 18.531 0 17.365-2.049 41.489-6.146 72.373l-1.498.137c-7.765.702-14.577 1.168-20.438 1.399l-26.59-6.171.001-.003c2.522-4.539 3.057-12.709 1.606-24.51 11.469-1.041 20.215-4.433 26.239-10.177 8.796-8.387 16.36-25.395 22.694-51.023L52.103 9z" transform="rotate(-16 344.373 -820.333) translate(42.46 43.425)"/>
            </g>
            <path fill="#FD8F86" d="M58.159 35.576c3.33 11.418 4.638 18.197 3.924 20.338-.713 2.14 6.304-.12 21.052-6.78L74.57 28.797 58.16 35.576z" transform="rotate(-16 344.373 -820.333)"/>
            <path fill="url(#prefix__d)" d="M54.59 14.881C51.737 5.13 53.402.253 59.587.253c9.277 0 25.69 8.563 26.76 14.628.714 4.044-2.14 11.3-8.563 21.765l-11.061-7.85L54.59 14.882z" transform="rotate(-16 344.373 -820.333)"/>
            <path fill="#FFBBB6" d="M55.661 12.027c-7.374 13.796-9.396 22.36-6.066 25.69 3.33 3.33 10.704 2.14 22.122-3.568 3.806-1.19 6.066-2.974 6.78-5.352.713-2.379-1.309-2.379-6.066 0l2.854-6.423c-8.563-1.427-13.796-3.925-15.7-7.493-1.902-3.568-3.21-4.52-3.924-2.854z" transform="rotate(-16 344.373 -820.333)"/>
            <path fill="#1C84E5" d="M141.541 237.63c14.898-.385 22.66.064 23.285 1.347.938 1.924-.543 55.048-4.689 54.688-4.145-.36-10.12-25.632-14.835-32.86-3.144-4.818-8.335-7.05-15.572-6.695l10.85-16.01.961-.47z" transform="rotate(-16 344.373 -820.333)"/>
            <path fill="#242323" d="M32.91 148.895c6.331 61.688 12.827 95.981 19.487 102.88 2.748 2.845 80.84 15.737 89.013 10.633 5.448-3.403 6.796-11.554 4.042-24.452l-68.792-15.44c0-2.14.951-27.949 2.854-77.425l-46.603 3.804z" transform="rotate(-16 344.373 -820.333)"/>
            <path fill="#B04343" d="M58.774 30.447c.101-.169.32-.223.49-.122.169.101.223.32.122.49-.779 1.297-1.966 1.957-3.517 1.957-1.575 0-2.56-.563-2.844-1.698-.048-.19.069-.385.26-.432.19-.048.385.068.432.26.193.768.872 1.156 2.152 1.156 1.303 0 2.257-.53 2.905-1.61z" transform="rotate(-16 344.373 -820.333)"/>
        </g>
        <g>
            <path fill="url(#prefix__e)" fill-rule="nonzero" d="M192.673 92.569L244.694 14.343 235.061 4.71 183.81 88.33z" transform="translate(30.49 41.746)"/>
            <path fill="url(#prefix__f)" fill-rule="nonzero" d="M0 116.46L64.353 27.83 240.456 0.856 186.122 89.871z" transform="translate(30.49 41.746)"/>
            <g transform="translate(30.49 41.746) translate(0 86.018)">
                <path fill="url(#prefix__g)" fill-rule="nonzero" d="M0 30.442L187.278 0 256.64 76.298 53.563 111.365z"/>
                <mask id="prefix__j" fill="#fff">
                    <use xlink:href="#prefix__h"/>
                </mask>
                <path fill="url(#prefix__i)" fill-rule="nonzero" d="M187.663 -28.13L187.663 49.71 231.978 105.585 260.879 69.362z" mask="url(#prefix__j)"/>
                <path fill="url(#prefix__k)" fill-rule="nonzero" d="M53.563 154.909L0 70.904 0 30.442 53.563 111.365z"/>
                <path fill="#1DC599" fill-rule="nonzero" d="M24.277 43.159L186.893 16.57 238.143 79.381 53.563 111.365 10.019 45.856z"/>
                <path fill="#404040" fill-rule="nonzero" d="M163.542 20.31L186.172 51.437 210.748 46.823 210.819 47.201 186.423 51.782 210.747 85.241 210.435 85.467 186.004 51.861 158.741 56.98 181.462 89.096 181.148 89.319 158.325 57.059 133.31 61.756 154.683 93.531 154.364 93.746 132.898 61.833 109.224 66.278 130.407 97.77 130.087 97.985 108.812 66.356 85.369 70.758 106.13 101.624 105.81 101.839 84.956 70.835 61.283 75.28 81.853 105.862 81.533 106.078 60.871 75.358 34.331 80.341 34.26 79.962 60.637 75.01 37.989 41.339 38.309 41.124 61.049 74.932 84.722 70.487 62.266 37.101 62.586 36.886 85.135 70.409 108.578 66.007 86.543 33.247 86.863 33.032 108.99 65.93 132.664 61.485 110.82 29.008 111.139 28.793 133.076 61.407 158.08 56.712 135.484 24.773 135.799 24.551 158.496 56.634 185.753 51.516 163.231 20.537z"/>
                <g fill-rule="nonzero">
                    <path fill="url(#prefix__l)" d="M0 35.066L0 78.61 201.536 41.617 203.077 0z" transform="translate(53.563 76.298)"/>
                    <path fill="#3480C7" d="M202.203 23.694l-.667 17.923L0 78.61V51.377c103.564 1.056 170.964-8.172 202.203-27.683z" opacity=".404" transform="translate(53.563 76.298)"/>
                </g>
                <g fill-rule="nonzero">
                    <g transform="translate(28.13 27.745) translate(0 26.974)">
                        <ellipse cx="6.744" cy="4.624" fill="#19A982" rx="6.744" ry="4.624"/>
                        <path fill="#FFF" d="M9.502 7.77c.07-.04.107-.086.111-.14.005-.054-.014-.1-.055-.14l-.398-.38c.253-.152.445-.309.577-.472.131-.16.206-.322.224-.488.018-.164-.017-.331-.106-.502-.089-.173-.226-.344-.413-.516-.188-.178-.388-.314-.597-.408-.21-.096-.426-.164-.646-.202-.22-.04-.442-.056-.665-.049-.224.008-.444.023-.661.045L5.75 2.993c.112-.01.22-.01.326-.002.105.009.203.02.294.031.091.013.171.022.24.03.068.007.12.005.157-.006.048-.015.079-.04.092-.073.014-.034.018-.08.011-.138l-.058-.392c-.246-.097-.505-.175-.777-.233-.273-.058-.554-.07-.843-.035l-.534-.828-.33.1c-.07.023-.107.068-.112.136-.005.069.015.138.058.207l.341.537c-.254.113-.447.263-.577.45-.13.19-.207.397-.232.619-.024.223 0 .45.072.682.073.23.186.443.339.639.205.257.417.445.636.564.218.117.439.19.662.22.223.03.445.03.666.002.221-.026.438-.059.649-.099l1.211 1.41c-.154.056-.302.092-.443.107-.14.017-.27.027-.39.031-.119.004-.224.01-.315.014-.091.006-.163.024-.216.056-.043.027-.075.062-.096.105-.02.044-.027.088-.021.133l.066.51c.315.021.644-.004.986-.073.343-.066.67-.167.984-.302l.578.564.328-.19zM6.19 4.587c-.12.009-.236.01-.348.005-.112-.005-.22-.021-.32-.048-.103-.027-.198-.068-.288-.124-.09-.056-.173-.131-.25-.226-.066-.083-.115-.168-.146-.256-.032-.088-.042-.176-.03-.265.012-.089.048-.175.109-.258.06-.082.15-.159.268-.23L6.19 4.587zm1.313.71c.12-.014.236-.022.347-.024.112-.001.22.008.323.027.103.02.2.05.289.092.09.042.173.1.249.172.186.175.272.342.256.505-.016.163-.138.318-.365.468l-1.099-1.24z"/>
                    </g>
                    <g transform="translate(28.13 27.745) translate(73.601 13.487)">
                        <ellipse cx="6.744" cy="4.624" fill="#19A982" rx="6.744" ry="4.624"/>
                        <path fill="#FFF" d="M9.502 7.77c.07-.04.107-.086.111-.14.005-.054-.014-.1-.055-.14l-.398-.38c.253-.152.445-.309.577-.472.131-.16.206-.322.224-.488.018-.164-.017-.331-.106-.502-.089-.173-.226-.344-.413-.516-.188-.178-.388-.314-.597-.408-.21-.096-.426-.164-.646-.202-.22-.04-.442-.056-.665-.049-.224.008-.444.023-.661.045L5.75 2.993c.112-.01.22-.01.326-.002.105.009.203.02.294.031.091.013.171.022.24.03.068.007.12.005.157-.006.048-.015.079-.04.092-.073.014-.034.018-.08.011-.138l-.058-.392c-.246-.097-.505-.175-.777-.233-.273-.058-.554-.07-.843-.035l-.534-.828-.33.1c-.07.023-.107.068-.112.136-.005.069.015.138.058.207l.341.537c-.254.113-.447.263-.577.45-.13.19-.207.397-.232.619-.024.223 0 .45.072.682.073.23.186.443.339.639.205.257.417.445.636.564.218.117.439.19.662.22.223.03.445.03.666.002.221-.026.438-.059.649-.099l1.211 1.41c-.154.056-.302.092-.443.107-.14.017-.27.027-.39.031-.119.004-.224.01-.315.014-.091.006-.163.024-.216.056-.043.027-.075.062-.096.105-.02.044-.027.088-.021.133l.066.51c.315.021.644-.004.986-.073.343-.066.67-.167.984-.302l.578.564.328-.19zM6.19 4.587c-.12.009-.236.01-.348.005-.112-.005-.22-.021-.32-.048-.103-.027-.198-.068-.288-.124-.09-.056-.173-.131-.25-.226-.066-.083-.115-.168-.146-.256-.032-.088-.042-.176-.03-.265.012-.089.048-.175.109-.258.06-.082.15-.159.268-.23L6.19 4.587zm1.313.71c.12-.014.236-.022.347-.024.112-.001.22.008.323.027.103.02.2.05.289.092.09.042.173.1.249.172.186.175.272.342.256.505-.016.163-.138.318-.365.468l-1.099-1.24z"/>
                    </g>
                    <g transform="translate(28.13 27.745) translate(125.623 5.395)">
                        <ellipse cx="6.744" cy="4.624" fill="#19A982" rx="6.744" ry="4.624"/>
                        <path fill="#FFF" d="M9.502 7.77c.07-.04.107-.086.111-.14.005-.054-.014-.1-.055-.14l-.398-.38c.253-.152.445-.309.577-.472.131-.16.206-.322.224-.488.018-.164-.017-.331-.106-.502-.089-.173-.226-.344-.413-.516-.188-.178-.388-.314-.597-.408-.21-.096-.426-.164-.646-.202-.22-.04-.442-.056-.665-.049-.224.008-.444.023-.661.045L5.75 2.993c.112-.01.22-.01.326-.002.105.009.203.02.294.031.091.013.171.022.24.03.068.007.12.005.157-.006.048-.015.079-.04.092-.073.014-.034.018-.08.011-.138l-.058-.392c-.246-.097-.505-.175-.777-.233-.273-.058-.554-.07-.843-.035l-.534-.828-.33.1c-.07.023-.107.068-.112.136-.005.069.015.138.058.207l.341.537c-.254.113-.447.263-.577.45-.13.19-.207.397-.232.619-.024.223 0 .45.072.682.073.23.186.443.339.639.205.257.417.445.636.564.218.117.439.19.662.22.223.03.445.03.666.002.221-.026.438-.059.649-.099l1.211 1.41c-.154.056-.302.092-.443.107-.14.017-.27.027-.39.031-.119.004-.224.01-.315.014-.091.006-.163.024-.216.056-.043.027-.075.062-.096.105-.02.044-.027.088-.021.133l.066.51c.315.021.644-.004.986-.073.343-.066.67-.167.984-.302l.578.564.328-.19zM6.19 4.587c-.12.009-.236.01-.348.005-.112-.005-.22-.021-.32-.048-.103-.027-.198-.068-.288-.124-.09-.056-.173-.131-.25-.226-.066-.083-.115-.168-.146-.256-.032-.088-.042-.176-.03-.265.012-.089.048-.175.109-.258.06-.082.15-.159.268-.23L6.19 4.587zm1.313.71c.12-.014.236-.022.347-.024.112-.001.22.008.323.027.103.02.2.05.289.092.09.042.173.1.249.172.186.175.272.342.256.505-.016.163-.138.318-.365.468l-1.099-1.24z"/>
                    </g>
                    <g transform="translate(28.13 27.745) translate(151.055)">
                        <ellipse cx="6.744" cy="4.624" fill="#19A982" rx="6.744" ry="4.624"/>
                        <path fill="#FFF" d="M9.502 7.77c.07-.04.107-.086.111-.14.005-.054-.014-.1-.055-.14l-.398-.38c.253-.152.445-.309.577-.472.131-.16.206-.322.224-.488.018-.164-.017-.331-.106-.502-.089-.173-.226-.344-.413-.516-.188-.178-.388-.314-.597-.408-.21-.096-.426-.164-.646-.202-.22-.04-.442-.056-.665-.049-.224.008-.444.023-.661.045L5.75 2.993c.112-.01.22-.01.326-.002.105.009.203.02.294.031.091.013.171.022.24.03.068.007.12.005.157-.006.048-.015.079-.04.092-.073.014-.034.018-.08.011-.138l-.058-.392c-.246-.097-.505-.175-.777-.233-.273-.058-.554-.07-.843-.035l-.534-.828-.33.1c-.07.023-.107.068-.112.136-.005.069.015.138.058.207l.341.537c-.254.113-.447.263-.577.45-.13.19-.207.397-.232.619-.024.223 0 .45.072.682.073.23.186.443.339.639.205.257.417.445.636.564.218.117.439.19.662.22.223.03.445.03.666.002.221-.026.438-.059.649-.099l1.211 1.41c-.154.056-.302.092-.443.107-.14.017-.27.027-.39.031-.119.004-.224.01-.315.014-.091.006-.163.024-.216.056-.043.027-.075.062-.096.105-.02.044-.027.088-.021.133l.066.51c.315.021.644-.004.986-.073.343-.066.67-.167.984-.302l.578.564.328-.19zM6.19 4.587c-.12.009-.236.01-.348.005-.112-.005-.22-.021-.32-.048-.103-.027-.198-.068-.288-.124-.09-.056-.173-.131-.25-.226-.066-.083-.115-.168-.146-.256-.032-.088-.042-.176-.03-.265.012-.089.048-.175.109-.258.06-.082.15-.159.268-.23L6.19 4.587zm1.313.71c.12-.014.236-.022.347-.024.112-.001.22.008.323.027.103.02.2.05.289.092.09.042.173.1.249.172.186.175.272.342.256.505-.016.163-.138.318-.365.468l-1.099-1.24z"/>
                    </g>
                    <g transform="translate(28.13 27.745) translate(99.034 9.634)">
                        <ellipse cx="6.744" cy="4.624" fill="#19A982" rx="6.744" ry="4.624"/>
                        <path fill="#FFF" d="M9.502 7.77c.07-.04.107-.086.111-.14.005-.054-.014-.1-.055-.14l-.398-.38c.253-.152.445-.309.577-.472.131-.16.206-.322.224-.488.018-.164-.017-.331-.106-.502-.089-.173-.226-.344-.413-.516-.188-.178-.388-.314-.597-.408-.21-.096-.426-.164-.646-.202-.22-.04-.442-.056-.665-.049-.224.008-.444.023-.661.045L5.75 2.993c.112-.01.22-.01.326-.002.105.009.203.02.294.031.091.013.171.022.24.03.068.007.12.005.157-.006.048-.015.079-.04.092-.073.014-.034.018-.08.011-.138l-.058-.392c-.246-.097-.505-.175-.777-.233-.273-.058-.554-.07-.843-.035l-.534-.828-.33.1c-.07.023-.107.068-.112.136-.005.069.015.138.058.207l.341.537c-.254.113-.447.263-.577.45-.13.19-.207.397-.232.619-.024.223 0 .45.072.682.073.23.186.443.339.639.205.257.417.445.636.564.218.117.439.19.662.22.223.03.445.03.666.002.221-.026.438-.059.649-.099l1.211 1.41c-.154.056-.302.092-.443.107-.14.017-.27.027-.39.031-.119.004-.224.01-.315.014-.091.006-.163.024-.216.056-.043.027-.075.062-.096.105-.02.044-.027.088-.021.133l.066.51c.315.021.644-.004.986-.073.343-.066.67-.167.984-.302l.578.564.328-.19zM6.19 4.587c-.12.009-.236.01-.348.005-.112-.005-.22-.021-.32-.048-.103-.027-.198-.068-.288-.124-.09-.056-.173-.131-.25-.226-.066-.083-.115-.168-.146-.256-.032-.088-.042-.176-.03-.265.012-.089.048-.175.109-.258.06-.082.15-.159.268-.23L6.19 4.587zm1.313.71c.12-.014.236-.022.347-.024.112-.001.22.008.323.027.103.02.2.05.289.092.09.042.173.1.249.172.186.175.272.342.256.505-.016.163-.138.318-.365.468l-1.099-1.24z"/>
                    </g>
                    <g transform="translate(28.13 27.745) translate(26.203 22.35)">
                        <ellipse cx="6.744" cy="4.624" fill="#19A982" rx="6.744" ry="4.624"/>
                        <path fill="#FFF" d="M9.502 7.77c.07-.04.107-.086.111-.14.005-.054-.014-.1-.055-.14l-.398-.38c.253-.152.445-.309.577-.472.131-.16.206-.322.224-.488.018-.164-.017-.331-.106-.502-.089-.173-.226-.344-.413-.516-.188-.178-.388-.314-.597-.408-.21-.096-.426-.164-.646-.202-.22-.04-.442-.056-.665-.049-.224.008-.444.023-.661.045L5.75 2.993c.112-.01.22-.01.326-.002.105.009.203.02.294.031.091.013.171.022.24.03.068.007.12.005.157-.006.048-.015.079-.04.092-.073.014-.034.018-.08.011-.138l-.058-.392c-.246-.097-.505-.175-.777-.233-.273-.058-.554-.07-.843-.035l-.534-.828-.33.1c-.07.023-.107.068-.112.136-.005.069.015.138.058.207l.341.537c-.254.113-.447.263-.577.45-.13.19-.207.397-.232.619-.024.223 0 .45.072.682.073.23.186.443.339.639.205.257.417.445.636.564.218.117.439.19.662.22.223.03.445.03.666.002.221-.026.438-.059.649-.099l1.211 1.41c-.154.056-.302.092-.443.107-.14.017-.27.027-.39.031-.119.004-.224.01-.315.014-.091.006-.163.024-.216.056-.043.027-.075.062-.096.105-.02.044-.027.088-.021.133l.066.51c.315.021.644-.004.986-.073.343-.066.67-.167.984-.302l.578.564.328-.19zM6.19 4.587c-.12.009-.236.01-.348.005-.112-.005-.22-.021-.32-.048-.103-.027-.198-.068-.288-.124-.09-.056-.173-.131-.25-.226-.066-.083-.115-.168-.146-.256-.032-.088-.042-.176-.03-.265.012-.089.048-.175.109-.258.06-.082.15-.159.268-.23L6.19 4.587zm1.313.71c.12-.014.236-.022.347-.024.112-.001.22.008.323.027.103.02.2.05.289.092.09.042.173.1.249.172.186.175.272.342.256.505-.016.163-.138.318-.365.468l-1.099-1.24z"/>
                    </g>
                    <g transform="translate(28.13 27.745) translate(50.866 18.111)">
                        <ellipse cx="6.744" cy="4.624" fill="#19A982" rx="6.744" ry="4.624"/>
                        <path fill="#FFF" d="M9.502 7.77c.07-.04.107-.086.111-.14.005-.054-.014-.1-.055-.14l-.398-.38c.253-.152.445-.309.577-.472.131-.16.206-.322.224-.488.018-.164-.017-.331-.106-.502-.089-.173-.226-.344-.413-.516-.188-.178-.388-.314-.597-.408-.21-.096-.426-.164-.646-.202-.22-.04-.442-.056-.665-.049-.224.008-.444.023-.661.045L5.75 2.993c.112-.01.22-.01.326-.002.105.009.203.02.294.031.091.013.171.022.24.03.068.007.12.005.157-.006.048-.015.079-.04.092-.073.014-.034.018-.08.011-.138l-.058-.392c-.246-.097-.505-.175-.777-.233-.273-.058-.554-.07-.843-.035l-.534-.828-.33.1c-.07.023-.107.068-.112.136-.005.069.015.138.058.207l.341.537c-.254.113-.447.263-.577.45-.13.19-.207.397-.232.619-.024.223 0 .45.072.682.073.23.186.443.339.639.205.257.417.445.636.564.218.117.439.19.662.22.223.03.445.03.666.002.221-.026.438-.059.649-.099l1.211 1.41c-.154.056-.302.092-.443.107-.14.017-.27.027-.39.031-.119.004-.224.01-.315.014-.091.006-.163.024-.216.056-.043.027-.075.062-.096.105-.02.044-.027.088-.021.133l.066.51c.315.021.644-.004.986-.073.343-.066.67-.167.984-.302l.578.564.328-.19zM6.19 4.587c-.12.009-.236.01-.348.005-.112-.005-.22-.021-.32-.048-.103-.027-.198-.068-.288-.124-.09-.056-.173-.131-.25-.226-.066-.083-.115-.168-.146-.256-.032-.088-.042-.176-.03-.265.012-.089.048-.175.109-.258.06-.082.15-.159.268-.23L6.19 4.587zm1.313.71c.12-.014.236-.022.347-.024.112-.001.22.008.323.027.103.02.2.05.289.092.09.042.173.1.249.172.186.175.272.342.256.505-.016.163-.138.318-.365.468l-1.099-1.24z"/>
                    </g>
                </g>
                <g fill-rule="nonzero" transform="translate(49.324 86.703)">
                    <ellipse cx="6.744" cy="4.624" fill="#19A982" rx="6.744" ry="4.624"/>
                    <path fill="#FFF" d="M9.502 7.77c.07-.04.107-.086.111-.14.005-.054-.014-.1-.055-.14l-.398-.38c.253-.152.445-.309.577-.472.131-.16.206-.322.224-.488.018-.164-.017-.331-.106-.502-.089-.173-.226-.344-.413-.516-.188-.178-.388-.314-.597-.408-.21-.096-.426-.164-.646-.202-.22-.04-.442-.056-.665-.049-.224.008-.444.023-.661.045L5.75 2.993c.112-.01.22-.01.326-.002.105.009.203.02.294.031.091.013.171.022.24.03.068.007.12.005.157-.006.048-.015.079-.04.092-.073.014-.034.018-.08.011-.138l-.058-.392c-.246-.097-.505-.175-.777-.233-.273-.058-.554-.07-.843-.035l-.534-.828-.33.1c-.07.023-.107.068-.112.136-.005.069.015.138.058.207l.341.537c-.254.113-.447.263-.577.45-.13.19-.207.397-.232.619-.024.223 0 .45.072.682.073.23.186.443.339.639.205.257.417.445.636.564.218.117.439.19.662.22.223.03.445.03.666.002.221-.026.438-.059.649-.099l1.211 1.41c-.154.056-.302.092-.443.107-.14.017-.27.027-.39.031-.119.004-.224.01-.315.014-.091.006-.163.024-.216.056-.043.027-.075.062-.096.105-.02.044-.027.088-.021.133l.066.51c.315.021.644-.004.986-.073.343-.066.67-.167.984-.302l.578.564.328-.19zM6.19 4.587c-.12.009-.236.01-.348.005-.112-.005-.22-.021-.32-.048-.103-.027-.198-.068-.288-.124-.09-.056-.173-.131-.25-.226-.066-.083-.115-.168-.146-.256-.032-.088-.042-.176-.03-.265.012-.089.048-.175.109-.258.06-.082.15-.159.268-.23L6.19 4.587zm1.313.71c.12-.014.236-.022.347-.024.112-.001.22.008.323.027.103.02.2.05.289.092.09.042.173.1.249.172.186.175.272.342.256.505-.016.163-.138.318-.365.468l-1.099-1.24z"/>
                </g>
                <g fill-rule="nonzero" transform="translate(122.925 73.216)">
                    <ellipse cx="6.744" cy="4.624" fill="#19A982" rx="6.744" ry="4.624"/>
                    <path fill="#FFF" d="M9.502 7.77c.07-.04.107-.086.111-.14.005-.054-.014-.1-.055-.14l-.398-.38c.253-.152.445-.309.577-.472.131-.16.206-.322.224-.488.018-.164-.017-.331-.106-.502-.089-.173-.226-.344-.413-.516-.188-.178-.388-.314-.597-.408-.21-.096-.426-.164-.646-.202-.22-.04-.442-.056-.665-.049-.224.008-.444.023-.661.045L5.75 2.993c.112-.01.22-.01.326-.002.105.009.203.02.294.031.091.013.171.022.24.03.068.007.12.005.157-.006.048-.015.079-.04.092-.073.014-.034.018-.08.011-.138l-.058-.392c-.246-.097-.505-.175-.777-.233-.273-.058-.554-.07-.843-.035l-.534-.828-.33.1c-.07.023-.107.068-.112.136-.005.069.015.138.058.207l.341.537c-.254.113-.447.263-.577.45-.13.19-.207.397-.232.619-.024.223 0 .45.072.682.073.23.186.443.339.639.205.257.417.445.636.564.218.117.439.19.662.22.223.03.445.03.666.002.221-.026.438-.059.649-.099l1.211 1.41c-.154.056-.302.092-.443.107-.14.017-.27.027-.39.031-.119.004-.224.01-.315.014-.091.006-.163.024-.216.056-.043.027-.075.062-.096.105-.02.044-.027.088-.021.133l.066.51c.315.021.644-.004.986-.073.343-.066.67-.167.984-.302l.578.564.328-.19zM6.19 4.587c-.12.009-.236.01-.348.005-.112-.005-.22-.021-.32-.048-.103-.027-.198-.068-.288-.124-.09-.056-.173-.131-.25-.226-.066-.083-.115-.168-.146-.256-.032-.088-.042-.176-.03-.265.012-.089.048-.175.109-.258.06-.082.15-.159.268-.23L6.19 4.587zm1.313.71c.12-.014.236-.022.347-.024.112-.001.22.008.323.027.103.02.2.05.289.092.09.042.173.1.249.172.186.175.272.342.256.505-.016.163-.138.318-.365.468l-1.099-1.24z"/>
                </g>
                <g fill-rule="nonzero" transform="translate(176.874 64.738)">
                    <ellipse cx="6.744" cy="4.624" fill="#19A982" rx="6.744" ry="4.624"/>
                    <path fill="#FFF" d="M9.502 7.77c.07-.04.107-.086.111-.14.005-.054-.014-.1-.055-.14l-.398-.38c.253-.152.445-.309.577-.472.131-.16.206-.322.224-.488.018-.164-.017-.331-.106-.502-.089-.173-.226-.344-.413-.516-.188-.178-.388-.314-.597-.408-.21-.096-.426-.164-.646-.202-.22-.04-.442-.056-.665-.049-.224.008-.444.023-.661.045L5.75 2.993c.112-.01.22-.01.326-.002.105.009.203.02.294.031.091.013.171.022.24.03.068.007.12.005.157-.006.048-.015.079-.04.092-.073.014-.034.018-.08.011-.138l-.058-.392c-.246-.097-.505-.175-.777-.233-.273-.058-.554-.07-.843-.035l-.534-.828-.33.1c-.07.023-.107.068-.112.136-.005.069.015.138.058.207l.341.537c-.254.113-.447.263-.577.45-.13.19-.207.397-.232.619-.024.223 0 .45.072.682.073.23.186.443.339.639.205.257.417.445.636.564.218.117.439.19.662.22.223.03.445.03.666.002.221-.026.438-.059.649-.099l1.211 1.41c-.154.056-.302.092-.443.107-.14.017-.27.027-.39.031-.119.004-.224.01-.315.014-.091.006-.163.024-.216.056-.043.027-.075.062-.096.105-.02.044-.027.088-.021.133l.066.51c.315.021.644-.004.986-.073.343-.066.67-.167.984-.302l.578.564.328-.19zM6.19 4.587c-.12.009-.236.01-.348.005-.112-.005-.22-.021-.32-.048-.103-.027-.198-.068-.288-.124-.09-.056-.173-.131-.25-.226-.066-.083-.115-.168-.146-.256-.032-.088-.042-.176-.03-.265.012-.089.048-.175.109-.258.06-.082.15-.159.268-.23L6.19 4.587zm1.313.71c.12-.014.236-.022.347-.024.112-.001.22.008.323.027.103.02.2.05.289.092.09.042.173.1.249.172.186.175.272.342.256.505-.016.163-.138.318-.365.468l-1.099-1.24z"/>
                </g>
                <g fill-rule="nonzero" transform="translate(203.848 58.958)">
                    <ellipse cx="6.744" cy="4.624" fill="#19A982" rx="6.744" ry="4.624"/>
                    <path fill="#FFF" d="M9.502 7.77c.07-.04.107-.086.111-.14.005-.054-.014-.1-.055-.14l-.398-.38c.253-.152.445-.309.577-.472.131-.16.206-.322.224-.488.018-.164-.017-.331-.106-.502-.089-.173-.226-.344-.413-.516-.188-.178-.388-.314-.597-.408-.21-.096-.426-.164-.646-.202-.22-.04-.442-.056-.665-.049-.224.008-.444.023-.661.045L5.75 2.993c.112-.01.22-.01.326-.002.105.009.203.02.294.031.091.013.171.022.24.03.068.007.12.005.157-.006.048-.015.079-.04.092-.073.014-.034.018-.08.011-.138l-.058-.392c-.246-.097-.505-.175-.777-.233-.273-.058-.554-.07-.843-.035l-.534-.828-.33.1c-.07.023-.107.068-.112.136-.005.069.015.138.058.207l.341.537c-.254.113-.447.263-.577.45-.13.19-.207.397-.232.619-.024.223 0 .45.072.682.073.23.186.443.339.639.205.257.417.445.636.564.218.117.439.19.662.22.223.03.445.03.666.002.221-.026.438-.059.649-.099l1.211 1.41c-.154.056-.302.092-.443.107-.14.017-.27.027-.39.031-.119.004-.224.01-.315.014-.091.006-.163.024-.216.056-.043.027-.075.062-.096.105-.02.044-.027.088-.021.133l.066.51c.315.021.644-.004.986-.073.343-.066.67-.167.984-.302l.578.564.328-.19zM6.19 4.587c-.12.009-.236.01-.348.005-.112-.005-.22-.021-.32-.048-.103-.027-.198-.068-.288-.124-.09-.056-.173-.131-.25-.226-.066-.083-.115-.168-.146-.256-.032-.088-.042-.176-.03-.265.012-.089.048-.175.109-.258.06-.082.15-.159.268-.23L6.19 4.587zm1.313.71c.12-.014.236-.022.347-.024.112-.001.22.008.323.027.103.02.2.05.289.092.09.042.173.1.249.172.186.175.272.342.256.505-.016.163-.138.318-.365.468l-1.099-1.24z"/>
                </g>
                <g fill-rule="nonzero" transform="translate(149.9 69.362)">
                    <ellipse cx="6.744" cy="4.624" fill="#19A982" rx="6.744" ry="4.624"/>
                    <path fill="#FFF" d="M9.502 7.77c.07-.04.107-.086.111-.14.005-.054-.014-.1-.055-.14l-.398-.38c.253-.152.445-.309.577-.472.131-.16.206-.322.224-.488.018-.164-.017-.331-.106-.502-.089-.173-.226-.344-.413-.516-.188-.178-.388-.314-.597-.408-.21-.096-.426-.164-.646-.202-.22-.04-.442-.056-.665-.049-.224.008-.444.023-.661.045L5.75 2.993c.112-.01.22-.01.326-.002.105.009.203.02.294.031.091.013.171.022.24.03.068.007.12.005.157-.006.048-.015.079-.04.092-.073.014-.034.018-.08.011-.138l-.058-.392c-.246-.097-.505-.175-.777-.233-.273-.058-.554-.07-.843-.035l-.534-.828-.33.1c-.07.023-.107.068-.112.136-.005.069.015.138.058.207l.341.537c-.254.113-.447.263-.577.45-.13.19-.207.397-.232.619-.024.223 0 .45.072.682.073.23.186.443.339.639.205.257.417.445.636.564.218.117.439.19.662.22.223.03.445.03.666.002.221-.026.438-.059.649-.099l1.211 1.41c-.154.056-.302.092-.443.107-.14.017-.27.027-.39.031-.119.004-.224.01-.315.014-.091.006-.163.024-.216.056-.043.027-.075.062-.096.105-.02.044-.027.088-.021.133l.066.51c.315.021.644-.004.986-.073.343-.066.67-.167.984-.302l.578.564.328-.19zM6.19 4.587c-.12.009-.236.01-.348.005-.112-.005-.22-.021-.32-.048-.103-.027-.198-.068-.288-.124-.09-.056-.173-.131-.25-.226-.066-.083-.115-.168-.146-.256-.032-.088-.042-.176-.03-.265.012-.089.048-.175.109-.258.06-.082.15-.159.268-.23L6.19 4.587zm1.313.71c.12-.014.236-.022.347-.024.112-.001.22.008.323.027.103.02.2.05.289.092.09.042.173.1.249.172.186.175.272.342.256.505-.016.163-.138.318-.365.468l-1.099-1.24z"/>
                </g>
                <g fill-rule="nonzero" transform="translate(75.528 82.079)">
                    <ellipse cx="6.744" cy="4.624" fill="#19A982" rx="6.744" ry="4.624"/>
                    <path fill="#FFF" d="M9.502 7.77c.07-.04.107-.086.111-.14.005-.054-.014-.1-.055-.14l-.398-.38c.253-.152.445-.309.577-.472.131-.16.206-.322.224-.488.018-.164-.017-.331-.106-.502-.089-.173-.226-.344-.413-.516-.188-.178-.388-.314-.597-.408-.21-.096-.426-.164-.646-.202-.22-.04-.442-.056-.665-.049-.224.008-.444.023-.661.045L5.75 2.993c.112-.01.22-.01.326-.002.105.009.203.02.294.031.091.013.171.022.24.03.068.007.12.005.157-.006.048-.015.079-.04.092-.073.014-.034.018-.08.011-.138l-.058-.392c-.246-.097-.505-.175-.777-.233-.273-.058-.554-.07-.843-.035l-.534-.828-.33.1c-.07.023-.107.068-.112.136-.005.069.015.138.058.207l.341.537c-.254.113-.447.263-.577.45-.13.19-.207.397-.232.619-.024.223 0 .45.072.682.073.23.186.443.339.639.205.257.417.445.636.564.218.117.439.19.662.22.223.03.445.03.666.002.221-.026.438-.059.649-.099l1.211 1.41c-.154.056-.302.092-.443.107-.14.017-.27.027-.39.031-.119.004-.224.01-.315.014-.091.006-.163.024-.216.056-.043.027-.075.062-.096.105-.02.044-.027.088-.021.133l.066.51c.315.021.644-.004.986-.073.343-.066.67-.167.984-.302l.578.564.328-.19zM6.19 4.587c-.12.009-.236.01-.348.005-.112-.005-.22-.021-.32-.048-.103-.027-.198-.068-.288-.124-.09-.056-.173-.131-.25-.226-.066-.083-.115-.168-.146-.256-.032-.088-.042-.176-.03-.265.012-.089.048-.175.109-.258.06-.082.15-.159.268-.23L6.19 4.587zm1.313.71c.12-.014.236-.022.347-.024.112-.001.22.008.323.027.103.02.2.05.289.092.09.042.173.1.249.172.186.175.272.342.256.505-.016.163-.138.318-.365.468l-1.099-1.24z"/>
                </g>
                <g fill-rule="nonzero" transform="translate(100.19 77.84)">
                    <ellipse cx="6.744" cy="4.624" fill="#19A982" rx="6.744" ry="4.624"/>
                    <path fill="#FFF" d="M9.502 7.77c.07-.04.107-.086.111-.14.005-.054-.014-.1-.055-.14l-.398-.38c.253-.152.445-.309.577-.472.131-.16.206-.322.224-.488.018-.164-.017-.331-.106-.502-.089-.173-.226-.344-.413-.516-.188-.178-.388-.314-.597-.408-.21-.096-.426-.164-.646-.202-.22-.04-.442-.056-.665-.049-.224.008-.444.023-.661.045L5.75 2.993c.112-.01.22-.01.326-.002.105.009.203.02.294.031.091.013.171.022.24.03.068.007.12.005.157-.006.048-.015.079-.04.092-.073.014-.034.018-.08.011-.138l-.058-.392c-.246-.097-.505-.175-.777-.233-.273-.058-.554-.07-.843-.035l-.534-.828-.33.1c-.07.023-.107.068-.112.136-.005.069.015.138.058.207l.341.537c-.254.113-.447.263-.577.45-.13.19-.207.397-.232.619-.024.223 0 .45.072.682.073.23.186.443.339.639.205.257.417.445.636.564.218.117.439.19.662.22.223.03.445.03.666.002.221-.026.438-.059.649-.099l1.211 1.41c-.154.056-.302.092-.443.107-.14.017-.27.027-.39.031-.119.004-.224.01-.315.014-.091.006-.163.024-.216.056-.043.027-.075.062-.096.105-.02.044-.027.088-.021.133l.066.51c.315.021.644-.004.986-.073.343-.066.67-.167.984-.302l.578.564.328-.19zM6.19 4.587c-.12.009-.236.01-.348.005-.112-.005-.22-.021-.32-.048-.103-.027-.198-.068-.288-.124-.09-.056-.173-.131-.25-.226-.066-.083-.115-.168-.146-.256-.032-.088-.042-.176-.03-.265.012-.089.048-.175.109-.258.06-.082.15-.159.268-.23L6.19 4.587zm1.313.71c.12-.014.236-.022.347-.024.112-.001.22.008.323.027.103.02.2.05.289.092.09.042.173.1.249.172.186.175.272.342.256.505-.016.163-.138.318-.365.468l-1.099-1.24z"/>
                </g>
                <g fill-rule="nonzero" transform="translate(127.164 37.379)">
                    <ellipse cx="6.744" cy="4.624" fill="#19A982" rx="6.744" ry="4.624"/>
                    <path fill="#FFF" d="M9.502 7.77c.07-.04.107-.086.111-.14.005-.054-.014-.1-.055-.14l-.398-.38c.253-.152.445-.309.577-.472.131-.16.206-.322.224-.488.018-.164-.017-.331-.106-.502-.089-.173-.226-.344-.413-.516-.188-.178-.388-.314-.597-.408-.21-.096-.426-.164-.646-.202-.22-.04-.442-.056-.665-.049-.224.008-.444.023-.661.045L5.75 2.993c.112-.01.22-.01.326-.002.105.009.203.02.294.031.091.013.171.022.24.03.068.007.12.005.157-.006.048-.015.079-.04.092-.073.014-.034.018-.08.011-.138l-.058-.392c-.246-.097-.505-.175-.777-.233-.273-.058-.554-.07-.843-.035l-.534-.828-.33.1c-.07.023-.107.068-.112.136-.005.069.015.138.058.207l.341.537c-.254.113-.447.263-.577.45-.13.19-.207.397-.232.619-.024.223 0 .45.072.682.073.23.186.443.339.639.205.257.417.445.636.564.218.117.439.19.662.22.223.03.445.03.666.002.221-.026.438-.059.649-.099l1.211 1.41c-.154.056-.302.092-.443.107-.14.017-.27.027-.39.031-.119.004-.224.01-.315.014-.091.006-.163.024-.216.056-.043.027-.075.062-.096.105-.02.044-.027.088-.021.133l.066.51c.315.021.644-.004.986-.073.343-.066.67-.167.984-.302l.578.564.328-.19zM6.19 4.587c-.12.009-.236.01-.348.005-.112-.005-.22-.021-.32-.048-.103-.027-.198-.068-.288-.124-.09-.056-.173-.131-.25-.226-.066-.083-.115-.168-.146-.256-.032-.088-.042-.176-.03-.265.012-.089.048-.175.109-.258.06-.082.15-.159.268-.23L6.19 4.587zm1.313.71c.12-.014.236-.022.347-.024.112-.001.22.008.323.027.103.02.2.05.289.092.09.042.173.1.249.172.186.175.272.342.256.505-.016.163-.138.318-.365.468l-1.099-1.24z"/>
                </g>
                <g fill-rule="nonzero" transform="translate(127.164 37.379)">
                    <ellipse cx="6.744" cy="4.624" fill="#19A982" rx="6.744" ry="4.624"/>
                    <path fill="#FFF" d="M9.502 7.77c.07-.04.107-.086.111-.14.005-.054-.014-.1-.055-.14l-.398-.38c.253-.152.445-.309.577-.472.131-.16.206-.322.224-.488.018-.164-.017-.331-.106-.502-.089-.173-.226-.344-.413-.516-.188-.178-.388-.314-.597-.408-.21-.096-.426-.164-.646-.202-.22-.04-.442-.056-.665-.049-.224.008-.444.023-.661.045L5.75 2.993c.112-.01.22-.01.326-.002.105.009.203.02.294.031.091.013.171.022.24.03.068.007.12.005.157-.006.048-.015.079-.04.092-.073.014-.034.018-.08.011-.138l-.058-.392c-.246-.097-.505-.175-.777-.233-.273-.058-.554-.07-.843-.035l-.534-.828-.33.1c-.07.023-.107.068-.112.136-.005.069.015.138.058.207l.341.537c-.254.113-.447.263-.577.45-.13.19-.207.397-.232.619-.024.223 0 .45.072.682.073.23.186.443.339.639.205.257.417.445.636.564.218.117.439.19.662.22.223.03.445.03.666.002.221-.026.438-.059.649-.099l1.211 1.41c-.154.056-.302.092-.443.107-.14.017-.27.027-.39.031-.119.004-.224.01-.315.014-.091.006-.163.024-.216.056-.043.027-.075.062-.096.105-.02.044-.027.088-.021.133l.066.51c.315.021.644-.004.986-.073.343-.066.67-.167.984-.302l.578.564.328-.19zM6.19 4.587c-.12.009-.236.01-.348.005-.112-.005-.22-.021-.32-.048-.103-.027-.198-.068-.288-.124-.09-.056-.173-.131-.25-.226-.066-.083-.115-.168-.146-.256-.032-.088-.042-.176-.03-.265.012-.089.048-.175.109-.258.06-.082.15-.159.268-.23L6.19 4.587zm1.313.71c.12-.014.236-.022.347-.024.112-.001.22.008.323.027.103.02.2.05.289.092.09.042.173.1.249.172.186.175.272.342.256.505-.016.163-.138.318-.365.468l-1.099-1.24z"/>
                </g>
            </g>
            <path fill="url(#prefix__m)" fill-rule="nonzero" d="M64.353 27.83L69.748 40.547 244.694 14.343 240.456 0.856z" transform="translate(30.49 41.746)"/>
            <path fill="#FFBBB6" fill-rule="nonzero" d="M250.046 14.954L243.93 4.443 234.872.245c-.57 2.87.223 5.014 2.383 6.433 3.601 2.367 2.23 1.02 1.802 3.67-.286 1.765 1.094 5.177 4.139 10.235l6.85-5.629z" transform="translate(30.49 41.746)"/>
            <path fill="url(#prefix__n)" fill-rule="nonzero" d="M0 116.845L7.707 128.791 69.748 40.547 64.353 27.83z" transform="translate(30.49 41.746)"/>
        </g>
        <g>
            <g transform="rotate(-52 270.298 -147.893) translate(.015 .086)">
                <path fill="#1DC599" fill-rule="nonzero" d="M0 16.199c9.71-5.627 16.466-9.813 20.266-12.56 3.8-2.746 5.36-3.898 4.679-3.454 6.004 7.685 7.466 12.941 4.386 15.767-3.08 2.827-9.242 7.476-18.484 13.948L0 16.199z"/>
                <mask id="prefix__p" fill="#fff">
                    <use xlink:href="#prefix__o"/>
                </mask>
                <ellipse cx="15.88" cy="17.34" fill="#19A982" fill-rule="nonzero" mask="url(#prefix__p)" rx="4.995" ry="4.282"/>
                <g>
                    <mask id="prefix__r" fill="#fff">
                        <use xlink:href="#prefix__q"/>
                    </mask>
                    <path fill="#FFF" fill-rule="nonzero" d="M17.077 19.797c.051-.038.079-.08.082-.127.004-.046-.008-.085-.038-.115l-.283-.296c.186-.15.328-.302.426-.456.098-.153.155-.303.17-.45.016-.149-.007-.293-.069-.435-.062-.143-.159-.279-.292-.407-.134-.131-.277-.224-.428-.276-.151-.053-.307-.08-.467-.081-.16 0-.32.018-.483.058-.162.04-.323.085-.481.135l-.795-1.065c.081-.03.16-.05.237-.062.077-.013.148-.022.214-.029.066-.006.124-.013.174-.02.05-.006.088-.017.114-.033.035-.022.058-.048.069-.08.01-.03.013-.07.01-.118l-.037-.32c-.178-.033-.365-.046-.563-.039-.197.008-.401.055-.613.142l-.377-.557-.241.151c-.051.033-.08.077-.084.133-.005.055.009.106.04.152l.24.358c-.187.139-.329.293-.426.464-.097.171-.156.345-.177.52-.021.175-.007.345.043.51.05.165.13.31.238.438.146.168.297.284.455.347.157.062.316.09.478.086.161-.005.323-.033.484-.082.161-.049.319-.103.473-.162l.86 1.027c-.113.06-.22.102-.323.128-.103.026-.197.046-.284.06l-.229.04c-.066.013-.119.034-.158.065-.031.025-.055.055-.07.092-.016.036-.022.072-.018.107l.04.397c.23-.007.469-.051.718-.131.25-.079.49-.187.719-.322l.41.434.242-.181zm-2.36-2.293c-.088.025-.172.043-.254.055-.081.013-.159.015-.232.009-.074-.006-.143-.025-.207-.056-.065-.03-.124-.077-.179-.14-.047-.054-.081-.114-.103-.178-.022-.064-.028-.132-.018-.204.01-.071.037-.145.082-.221.046-.076.112-.153.199-.23l.711.965zm.944.402c.087-.027.172-.049.253-.065.081-.015.159-.022.234-.018.074.003.144.017.209.042.064.024.124.063.178.116.133.129.192.263.178.405-.014.142-.104.287-.271.436l-.781-.916z" mask="url(#prefix__r)"/>
                </g>
            </g>
            <path fill="#FFBBB6" fill-rule="nonzero" d="M26.793 28.9c0-6.66-.595-10.822-1.784-12.487-1.19-1.665-3.568-4.044-7.136-7.136-5.234 2.616-7.85 5.233-7.85 7.85 0 3.924 4.995 12.844 8.92 14.985 2.616 1.427 5.233.357 7.85-3.211z" transform="rotate(-52 270.298 -147.893)"/>
            <path fill="#52D9A9" fill-rule="nonzero" d="M28.933 26.403l28.188 37.464c34.253-15.937 54.115-22.716 59.585-20.337 8.207 3.568 12.132 15.342 7.85 24.262S62.83 98.12 56.05 96.336c-6.779-1.784-41.032-55.66-36.75-62.083 2.854-4.282 6.065-6.898 9.633-7.85z" transform="rotate(-52 270.298 -147.893)"/>
        </g>
        <path fill="#1C84E5" fill-rule="nonzero" d="M303.517 277.837c2.454 14.7 3.09 22.448 1.907 23.246-1.775 1.197-53.853 4.212-54.074.057-.22-4.155 23.24-10.677 29.74-16.353 4.334-3.784 5.822-9.235 4.464-16.353l17.364 8.516.599.887z"/>
        <path fill="#343434" fill-rule="nonzero" d="M370.165 179.367c-.553-4.675-1.624-7.138-3.211-7.389-13.559-2.14-27.196-.05-44.243 2.498-31.042 4.638-61.727 10.704-69.934 14.629-5.47 2.616 5.115 32.469 31.756 89.557h18.91c-3.568-21.884-6.779-37.821-9.633-47.812-2.855-9.99-5.233-16.531-7.136-19.624 36.87 1.665 60.656-.594 71.36-6.779 10.704-6.184 14.748-14.544 12.131-25.08z"/>
        <ellipse cx="408.7" cy="315.234" fill="url(#prefix__s)" fill-rule="nonzero" rx="100.975" ry="14.094"/>
        <circle cx="57.575" cy="86.768" r="13.461" fill="url(#prefix__t)" fill-rule="nonzero" opacity=".871"/>
    </g>
</svg>
