<svg xmlns="http://www.w3.org/2000/svg" width="21" height="17" viewBox="0 0 21 17">
    <g fill="#5EDEA8" fill-rule="nonzero">
        <path d="M2.466 5.715c.253.178 1.017.708 2.291 1.589 1.275.881 2.25 1.56 2.93 2.035l.474.34c.242.175.444.316.604.424.16.108.354.229.581.363.227.133.442.234.643.3.201.068.387.1.559.1h.022c.172 0 .358-.033.56-.1a3.38 3.38 0 0 0 .642-.3c.227-.134.421-.255.581-.363.16-.108.362-.249.604-.424s.4-.288.475-.34l5.232-3.624a5.304 5.304 0 0 0 1.363-1.372c.366-.535.548-1.097.548-1.684 0-.49-.177-.91-.531-1.26a1.73 1.73 0 0 0-1.258-.524H2.332c-.574 0-1.016.193-1.325.58-.31.386-.464.87-.464 1.45 0 .468.205.975.615 1.522.41.546.846.976 1.308 1.288z"/>
        <path d="M19.457 6.908c-2.444 1.65-4.3 2.933-5.567 3.848-.424.312-.77.555-1.034.73a6.387 6.387 0 0 1-1.056.535c-.44.183-.85.274-1.23.274h-.022c-.38 0-.79-.091-1.23-.274a6.39 6.39 0 0 1-1.056-.535c-.265-.175-.61-.418-1.034-.73-1.006-.736-2.858-2.02-5.556-3.848a5.917 5.917 0 0 1-1.129-.97v8.855c0 .49.175.91.525 1.26.35.35.772.524 1.264.524h16.455c.491 0 .912-.174 1.263-.524.35-.35.525-.77.525-1.26V5.938a6.16 6.16 0 0 1-1.118.97z"/>
    </g>
</svg>
