<svg xmlns="http://www.w3.org/2000/svg" width="305" height="271" viewBox="0 0 305 271">
    <g fill="none" fill-rule="evenodd">
        <path fill="#D0CFCA" d="M218.798 189.447l-16.514 9.578-43.204-21.493-58.492 33.212-37.193-21.297-21.847 13.014c-2.193 1.244-2.197 4.398-.01 5.65 38.964 22.991 59.742 35.228 62.333 36.708l41.597 23.739a12.682 12.682 0 0 0 12.551.014l8.83-5.013c2.606-1.478 29.655-17.646 81.145-48.504 2.168-1.255 2.16-4.384-.011-5.632l-29.185-19.976z" opacity=".43"/>
        <path fill="#4CA983" d="M63.296 106.673L28.169 53.196l88.345-51 35.163 53.478-88.381 51"/>
        <path fill="#5BC699" d="M61.454 116.859L26.327 63.382l88.345-50.996 35.163 53.473-88.381 51"/>
        <path fill="#373936" d="M116.21 3.477l34.11 51.875-86.72 50.04-34.073-51.874L116.21 3.477zm.796-2.275l-.184-.286L27.145 52.68l-.333.192 35.992 54.797.188.286 89.713-51.767.33-.191-36.029-54.794z"/>
        <path fill="#4CA983" d="M240.485 106.97l35.126-53.477-88.344-51-35.163 53.477 88.38 51"/>
        <path fill="#5BC699" d="M242.222 116.859l35.127-53.477-88.345-50.996-35.163 53.473 88.381 51"/>
        <path fill="#373936" d="M153.461 55.648l34.11-51.874 86.683 50.04-34.073 51.875-86.72-50.04zm33.802-54.265l-.3-.17-36.006 54.761-.21.318 89.749 51.785.297.17 35.618-54.23.565-.846-89.713-51.788z"/>
        <path fill="#4CA983" d="M63.741 106.97v94.396l88.381 50.996v-94.396l-88.38-50.996"/>
        <path fill="#34795F" d="M151.167 158.52v92.185L64.7 200.813V108.63l86.467 49.89zm.959-1.657l-88.797-51.239-.547-.314v96.61l89.16 51.444.18.105 88.862-51.275.478-.275v-96.61l-89.336 51.554z"/>
        <path fill="#4CA983" d="M240.503 106.97l-88.38 50.996L63.74 106.97l88.381-51 88.381 51"/>
        <path fill="#373936" d="M238.563 106.97l-86.44 49.875-86.438-49.875 86.44-49.875 86.438 49.875zM152.611 55.13l-.485-.282-89.778 51.806-.547.315 90.14 52.012.181.105 89.778-51.802.546-.315-89.835-51.839z"/>
        <path fill="#373936" d="M152.104 55.97l-89.568 51 89.29 51.51.933-.492-.655.593V55.97"/>
        <path fill="#4CA983" d="M152.104 157.966l-58.567 1.95L3.43 108.84l60.293-1.87 88.381 50.996"/>
        <path fill="#5BC699" d="M151.529 165.988l-58.568 1.946-90.11-51.072 60.297-1.873 88.38 51"/>
        <path fill="#A1A29F" d="M226.447 210.163l-1.546.893v-51.513l1.542-.872.004 51.492"/>
        <path fill="#4CA983" d="M152.122 157.966l58.57 1.95 90.104-51.076-60.293-1.87-88.38 50.996"/>
        <path fill="#5BC699" d="M151.529 165.988l58.567 1.946 90.107-51.072-60.294-1.873-88.38 51"/>
        <path fill="#373936" d="M297.351 109.693l-86.897 49.253-54.948-1.823 85.24-49.191 56.605 1.761zm-56.823-3.682l-.267-.007-91.52 52.808 61.92 2.062.27.007 93.31-52.891-63.713-1.979z"/>
        <path fill="#34795F" d="M104.944 131.124l46.679-26.35 45.303 26.61-45.303 26.672-46.679-26.932"/>
        <path fill="#99FFD4" d="M114.057 136.278l37.566 21.427 37.58-22.179-36.3-21.138-38.846 21.89"/>
        <path fill="#000" d="M93.776 158.946L6.875 109.693l56.606-1.761 59.334 34.238 25.225 14.975-54.264 1.801zm57.836-52.967l43.255 25.41-43.016 25.325-44.565-25.716 44.326-25.02zm2.312 51.933l45.061-26.524-46.834-27.518-.518-.296-46.446 26.215-40.983-23.647-.235-.138-63.985 1.986 93.075 52.754.239.137 57.796-1.92.007.003.525.3.583-.343 3.279-.109-1.564-.9z"/>
    </g>
</svg>
