<?xml version="1.0" encoding="utf-8"?>
<!-- Generator: Adobe Illustrator 24.3.0, SVG Export Plug-In . SVG Version: 6.00 Build 0)  -->
<svg version="1.1" id="Layer_1" xmlns="http://www.w3.org/2000/svg" xmlns:xlink="http://www.w3.org/1999/xlink" x="0px" y="0px"
	 viewBox="0 0 49.7 49.1" style="enable-background:new 0 0 49.7 49.1;" xml:space="preserve">
<style type="text/css">
	.st0{fill:#FF2C2C;}
</style>
<path id="Path_626" class="st0" d="M40.7,36.1L27.3,11.2c-0.7-1.2-2.2-1.7-3.4-1c-0.4,0.2-0.8,0.6-1,1L9.5,36.1
	c-0.7,1.2-0.2,2.8,1,3.4c0.4,0.2,0.8,0.3,1.2,0.3h26.8c1.4,0,2.5-1.1,2.5-2.5C41,36.9,40.9,36.5,40.7,36.1z M25.1,36
	c-0.9,0-1.6-0.7-1.6-1.6c0-0.9,0.7-1.6,1.6-1.6c0.9,0,1.6,0.7,1.6,1.6c0,0,0,0,0,0C26.7,35.3,26,36,25.1,36z M26.8,20.2l-0.5,9.6
	c0,0.7-0.5,1.3-1.2,1.3c-0.7,0-1.3-0.5-1.3-1.2c0,0,0,0,0-0.1l-0.5-9.6l0,0c0-0.9,0.7-1.7,1.6-1.8c0,0,0,0,0,0h0.1h0
	C26.1,18.4,26.8,19.2,26.8,20.2L26.8,20.2C26.8,20.1,26.8,20.2,26.8,20.2L26.8,20.2z"/>
</svg>
