<?xml version="1.0" encoding="utf-8"?>
<!-- Generator: Adobe Illustrator 24.1.0, SVG Export Plug-In . SVG Version: 6.00 Build 0)  -->
<svg version="1.1" id="Calque_1" xmlns="http://www.w3.org/2000/svg" xmlns:xlink="http://www.w3.org/1999/xlink" x="0px" y="0px"
	 viewBox="0 0 100 100" style="enable-background:new 0 0 100 100;" xml:space="preserve">
<style type="text/css">
	.st0{fill:#FFFFFF;}
	.st1{fill-rule:evenodd;clip-rule:evenodd;fill:#FFFFFF;}
	.st2{fill:none;stroke:#FFFFFF;stroke-width:5.9871;stroke-linecap:round;stroke-linejoin:round;}
	.st3{fill:none;stroke:#FFFFFF;stroke-width:5.9706;stroke-linecap:round;stroke-linejoin:round;}
	.st4{fill-opacity:0;}
	.st5{fill-rule:evenodd;clip-rule:evenodd;}
	.st6{fill:none;stroke:#000000;stroke-width:5.9871;stroke-linecap:round;stroke-linejoin:round;}
	.st7{fill:none;stroke:#000000;stroke-width:5.9706;stroke-linecap:round;stroke-linejoin:round;}
	.st8{fill:#020202;}
	.st9{fill:none;stroke:#000000;stroke-width:10.3465;stroke-miterlimit:10;}
	.st10{fill:none;stroke:#000000;stroke-width:7.6187;stroke-linecap:round;stroke-linejoin:round;}
	.st11{fill:none;stroke:#000000;stroke-width:7.6187;stroke-miterlimit:10;}
	.st12{fill:none;stroke:#000000;stroke-width:7.6187;stroke-linecap:round;stroke-miterlimit:10;}
	.st13{fill:none;stroke:#000000;stroke-width:9.755;stroke-miterlimit:10;}
	.st14{fill:none;stroke:#000000;stroke-width:9.755;stroke-linecap:round;stroke-linejoin:round;}
	.st15{fill:#FF7600;}
	.st16{fill-rule:evenodd;clip-rule:evenodd;fill:#61ACF7;}
	.st17{fill-rule:evenodd;clip-rule:evenodd;fill:#F52C2C;}
	.st18{fill-rule:evenodd;clip-rule:evenodd;fill:#0DFFBE;}
	.st19{fill:#61ACF7;}
	.st20{fill:#D1D1D1;}
	.st21{fill:#0DFFBE;}
	.st22{fill-rule:evenodd;clip-rule:evenodd;fill:#F761DA;}
	.st23{fill-rule:evenodd;clip-rule:evenodd;fill:#909090;}
	.st24{fill:#9D9D9D;}
	.st25{fill-rule:evenodd;clip-rule:evenodd;fill:#FF7600;}
</style>
<g id="Groupe_341" transform="translate(-245.256 -247.045)">
	<path id="Tracé_99" class="st0" d="M267.82,261.4l1.37,0.54l14.4,5.4c2.05,0.76,4.09,1.54,6.15,2.29c0.37,0.08,0.62,0.43,0.57,0.8
		c0,6.96,0,13.91,0,20.87c0,7.98,0,15.97,0,23.95c0,1.84,0,3.67,0,5.51c0,0.83,0,0.83,0.81,0.83c5.29,0,10.59,0,15.88,0
		c0.43,0,0.57-0.13,0.57-0.57c0-2.48,0-4.95,0-7.43c0-0.65,0-0.65,0.68-0.66h7.28c0.65,0,0.69,0.03,0.69,0.68c0,2.61,0,5.22,0,7.83
		c0.06,3.78-2.35,7.16-5.95,8.34c-1.45,0.41-2.95,0.56-4.45,0.45c-4.92,0-9.84,0-14.77,0c-0.73,0-0.72,0-0.72,0.72
		c0,3.84,0,7.68,0,11.52c0,0.6-0.07,0.65-0.64,0.43c-4.25-1.73-8.49-3.47-12.74-5.22c-4.98-2.04-9.94-4.1-14.93-6.12
		c-1.75-0.72-3.58-1.3-5.31-2.06c-3.18-1.23-5.26-4.32-5.21-7.73c-0.08-4.55-0.03-9.09-0.03-13.64c0-8.42,0-16.84,0-25.26
		c0-4.99,0-9.97,0-14.96c0-2.29-0.03-4.58,0.03-6.87c0-3.24,1.87-6.18,4.8-7.56c1.16-0.59,2.44-0.89,3.75-0.86
		c7.54,0,15.07,0,22.61,0c7.04,0,14.09,0,21.14,0c1.43,0,2.87,0,4.32,0c3.89,0.18,7.17,2.98,7.94,6.8c0.19,1.25,0.26,2.51,0.22,3.77
		c0.03,2,0,4.01,0,6.01c0,0.47-0.13,0.64-0.63,0.64c-2.49-0.02-4.99-0.02-7.49,0c-0.43,0-0.58-0.13-0.57-0.57
		c0.02-2.48,0-4.96,0-7.43c0-0.65,0-0.65-0.64-0.65h-38.28c-0.25,0-0.5,0.02-0.75,0.03L267.82,261.4z"/>
	<path id="Tracé_100" class="st0" d="M325.51,286.76c-0.22-0.09-0.42-0.21-0.61-0.36c-1.93-1.9-3.84-3.82-5.78-5.72
		c-0.33-0.33-0.32-0.54,0-0.86c1.76-1.73,3.51-3.48,5.25-5.24c0.35-0.35,0.56-0.32,0.9,0c4.16,4.18,8.33,8.35,12.51,12.53
		c1.3,1.3,2.59,2.59,3.89,3.85c0.34,0.33,0.38,0.54,0,0.9c-5.47,5.45-10.94,10.91-16.42,16.38c-0.34,0.34-0.55,0.36-0.89,0
		c-1.73-1.77-3.48-3.52-5.25-5.25c-0.32-0.32-0.35-0.51,0-0.86c1.98-1.93,3.93-3.89,5.89-5.83c0.14-0.14,0.27-0.29,0.51-0.53
		c-0.32,0-0.52-0.05-0.73-0.05h-25.14c-0.75,0-0.76,0-0.76-0.73c0-2.44,0-4.89,0-7.34c0-0.43,0.15-0.59,0.59-0.59
		c3.76,0,7.52,0,11.28,0h14.11c0.15,0,0.29-0.03,0.43-0.04L325.51,286.76z"/>
</g>
</svg>
