<svg xmlns="http://www.w3.org/2000/svg" width="16.077" height="15.202" viewBox="0 0 16.077 15.202">
  <g id="Group_883" data-name="Group 883" transform="translate(-16)">
    <g id="Group_880" data-name="Group 880" transform="translate(20.238)">
      <g id="Group_879" data-name="Group 879">
        <path id="Path_746" data-name="Path 746" d="M135.557,6.929a.474.474,0,0,0-.432-.278h-1.9V.475A.475.475,0,0,0,132.749,0h-1.9a.475.475,0,0,0-.475.475V6.651h-1.9a.475.475,0,0,0-.357.788l3.326,3.8a.474.474,0,0,0,.714,0l3.326-3.8A.474.474,0,0,0,135.557,6.929Z" transform="translate(-127.998)" fill="#5edea8"/>
      </g>
    </g>
    <g id="Group_882" data-name="Group 882" transform="translate(16 10.452)">
      <g id="Group_881" data-name="Group 881">
        <path id="Path_747" data-name="Path 747" d="M29.934,352v2.85H18.144V352H16v3.8a1.016,1.016,0,0,0,1.072.95H31.005a1.016,1.016,0,0,0,1.072-.95V352Z" transform="translate(-16 -352)" fill="#5edea8"/>
      </g>
    </g>
  </g>
</svg>
