<svg xmlns="http://www.w3.org/2000/svg" xmlns:xlink="http://www.w3.org/1999/xlink" width="393" height="372" viewBox="0 0 393 372">
    <defs>
        <linearGradient id="prefix__a" x1="36.309%" x2="66.054%" y1="-3.207%" y2="97.414%">
            <stop offset="0%" stop-color="#EEF8FA"/>
            <stop offset="100%" stop-color="#D9EEF3"/>
        </linearGradient>
        <linearGradient id="prefix__b" x1="60.512%" x2="42.508%" y1="-47.097%" y2="133.729%">
            <stop offset="0%" stop-color="#F5A42C" stop-opacity="0"/>
            <stop offset="100%" stop-color="#FDBE56"/>
        </linearGradient>
        <linearGradient id="prefix__c" x1="132.578%" x2="-8.858%" y1="-47.097%" y2="133.729%">
            <stop offset="0%" stop-color="#1DC599"/>
            <stop offset="100%" stop-color="#1DC599" stop-opacity="0"/>
        </linearGradient>
        <linearGradient id="prefix__f" x1="109.998%" x2="-12.11%" y1="58.643%" y2="12.576%">
            <stop offset="0%" stop-color="#222121"/>
            <stop offset="100%" stop-color="#565555"/>
        </linearGradient>
        <linearGradient id="prefix__g" x1="101.445%" x2="-3.256%" y1="58.643%" y2="12.576%">
            <stop offset="0%" stop-color="#222121"/>
            <stop offset="100%" stop-color="#565555"/>
        </linearGradient>
        <linearGradient id="prefix__h" x1="74.91%" x2="21.329%" y1="85.225%" y2="-93.855%">
            <stop offset="0%" stop-color="#222121"/>
            <stop offset="100%" stop-color="#565555"/>
        </linearGradient>
        <linearGradient id="prefix__i" x1="112.958%" x2="-15.174%" y1="55.594%" y2="25.777%">
            <stop offset="0%" stop-color="#222121"/>
            <stop offset="100%" stop-color="#565555"/>
        </linearGradient>
        <linearGradient id="prefix__j" x1="112.958%" x2="-15.174%" y1="55.706%" y2="25.294%">
            <stop offset="0%" stop-color="#222121"/>
            <stop offset="100%" stop-color="#565555"/>
        </linearGradient>
        <linearGradient id="prefix__k" x1="112.958%" x2="-15.174%" y1="56.916%" y2="20.057%">
            <stop offset="0%" stop-color="#222121"/>
            <stop offset="100%" stop-color="#565555"/>
        </linearGradient>
        <linearGradient id="prefix__l" x1="36.309%" x2="66.054%" y1="48.81%" y2="51.06%">
            <stop offset="0%" stop-color="#EEF8FA"/>
            <stop offset="100%" stop-color="#D9EEF3"/>
        </linearGradient>
        <linearGradient id="prefix__m" x1="36.309%" x2="66.054%" y1="-11.071%" y2="104.422%">
            <stop offset="0%" stop-color="#EEF8FA"/>
            <stop offset="100%" stop-color="#D9EEF3"/>
        </linearGradient>
        <path id="prefix__d" d="M43.887 1.713c11.132 0 18.553 1.712 22.264 5.138 3.71 3.425 6.85 15.556 9.42 36.393l-11.989 2.997-2.569 17.555H19.481l-2.14-31.684L.214 17.555 1.927 0l18.839 5.138 23.12-3.425z"/>
    </defs>
    <g fill="none" fill-rule="evenodd" transform="translate(.519 .668)">
        <g fill-rule="nonzero">
            <path fill="url(#prefix__a)" d="M49.41 295.468c-58.804-31.902-61.714-85.135-26.584-122.163 35.13-37.029 109.187-50.321 129.125-69.31C171.89 85.005 215.248-13.737 273.798 1.77c58.55 15.507 131.657 253.82 5.063 296.861-126.593 43.042-170.646 28.738-229.45-3.164z" opacity=".871" transform="translate(14.077)"/>
            <path fill="url(#prefix__b)" d="M18.553 178.116c14.016 16.396 22.48 37.68 22.48 60.94 0 15.8-3.905 30.687-10.802 43.75h-.006c-6.372-5.142-11.683-10.615-15.983-16.313h.005c3.466-8.462 5.377-17.726 5.377-27.436 0-15.545-4.897-29.947-13.233-41.746 2.886-6.352 6.725-12.507 11.453-18.335l.71-.86z" transform="translate(14.077)"/>
            <path fill="url(#prefix__c)" d="M257.968.25c-2.461 7.284-3.796 15.087-3.796 23.202 0 40.002 32.429 72.43 72.43 72.43 3.112 0 6.176-.196 9.184-.576l.004-.006c2.052 6.789 3.904 13.758 5.522 20.841-4.792.758-9.705 1.15-14.71 1.15-51.825 0-93.838-42.014-93.838-93.84 0-5.315.442-10.528 1.291-15.602 7.21-4.045 14.764-6.73 22.642-7.497l1.271-.102z" transform="translate(14.077)"/>
        </g>
        <g>
            <g fill-rule="nonzero">
                <path fill="#4FBC96" d="M7.707 45.024C27.973 21.047 45.67 9.06 60.799 9.06c22.692 0 74.928-17.127 94.624-4.282 13.13 8.563 6.993 60.228-18.411 154.994H64.224c-8.278 0-11.988-31.683-11.132-95.051L0 92.55l7.707-47.526z" transform="translate(70.809 64.224) translate(97.193 62.444)"/>
                <path fill="#45AB87" d="M137.012 159.771H64.224c-5.64 0-9.161-14.714-10.56-44.143 49.95-.59 83.761-11.135 101.435-31.638l-.253 1.271c-4.163 20.849-10.107 45.686-17.834 74.51z" transform="translate(70.809 64.224) translate(97.193 62.444)"/>
                <path fill="#FFBBB6" d="M148.144 123.378L151.569 138.792 142.15 142.217 137.012 125.09z" transform="translate(70.809 64.224) translate(97.193 62.444)"/>
            </g>
            <g fill-rule="nonzero">
                <path fill="#EEBF6E" d="M25.262 43.672C38.706 16.567 52.236 3.015 65.852 3.015c20.423 0 68.848-8.153 86.574 3.407 11.817 7.707 5.823 51.785-17.983 132.234H68.934c-7.45 0-10.59-31.66-9.42-94.984L23.55 87.773l1.713-44.1z" transform="translate(70.809 64.224) matrix(-1 0 0 1 175.118 92.483)"/>
                <path fill="#EEA16E" d="M134.443 138.656H68.934c-5.327 0-8.45-16.188-9.37-48.564 45.68-5.372 75.914-17.917 90.703-37.636 2.365-3.153 4.433-4.794 6.205-4.922-3.187 21.89-10.53 52.263-22.03 91.122z" transform="translate(70.809 64.224) matrix(-1 0 0 1 175.118 92.483)"/>
                <path fill="#FFBBB6" d="M0 107.44L0 143.862 108.753 137.339 108.753 95.48z" transform="translate(70.809 64.224) matrix(-1 0 0 1 175.118 92.483)"/>
                <path fill="#EEBF6E" d="M156.279 11.989c14.415 55.175 19.695 89.57 15.842 103.186-3.854 13.616-25.119 9.049-63.796-13.7V78.781l41.96 11.56-24.705-62.28 30.699-16.073z" transform="translate(70.809 64.224) matrix(-1 0 0 1 175.118 92.483)"/>
            </g>
            <path fill="#FFBBB6" fill-rule="nonzero" d="M186.61 150.126l-24.688-8.807-29.816-20.245c-1.24-6.293-3.055-9.198-5.445-8.714s-4.085 1.542-5.084 3.176c-5.264 1.27-7.08 2.405-5.446 3.404l12.253 7.49 32.947 30.91 30.68 3.043-5.4-10.257z" transform="translate(70.809 64.224)"/>
            <g transform="translate(70.809 64.224) translate(170.622 143.862)">
                <path fill="#EEBF6E" fill-rule="nonzero" d="M43.887 1.713c11.132 0 18.553 1.712 22.264 5.138 3.71 3.425 6.85 15.556 9.42 36.393l-11.989 2.997-2.569 17.555H19.481l-2.14-31.684L.214 17.555 1.927 0l18.839 5.138 23.12-3.425z"/>
                <mask id="prefix__e" fill="#fff">
                    <use xlink:href="#prefix__d"/>
                </mask>
                <path fill="#EEA16E" fill-rule="nonzero" d="M-11.732 60.163C41.446 55.767 76.128 42.78 92.312 21.2c16.184-21.579 18.482 27.68 6.893 147.777l-110.98-39.306.043-69.508z" mask="url(#prefix__e)"/>
            </g>
            <path fill="#FFBBB6" fill-rule="nonzero" d="M234.194 207.658c-7.31 2.19-10.966 4.014-10.966 5.473 0 2.19-13.16 14.777-6.58 18.608 6.58 3.831 21.932-5.473 26.319-12.04 2.924-4.379 0-8.392-8.773-12.04z" transform="translate(70.809 64.224)"/>
            <path fill="#4FBC96" fill-rule="nonzero" d="M256.469 71.503c37.393 49.952 53.948 82.492 49.666 97.62-4.281 15.13-24.262 31.827-59.942 50.096L232.92 204.66l43.244-42.816-51.807-62.512 32.112-27.83z" transform="translate(70.809 64.224)"/>
            <g fill-rule="nonzero">
                <path fill="url(#prefix__f)" d="M9.465 34.493c-11.235-10.138-12.468-18.222-3.7-24.25C18.92 1.2 44.816-5.789 53.858 6.953c6.028 8.495 4.247 25.758-5.344 51.79l-7.81-18.085-31.238-6.166z" transform="translate(70.809 64.224) translate(148.132)"/>
                <path fill="#FD8F86" d="M20.563 59.978l6.166 24.25c1.096 4.111 4.11 6.166 9.042 6.166 4.933 0 12.605-6.028 23.018-18.085L43.992 41.892 20.563 59.978z" transform="translate(70.809 64.224) translate(148.132)"/>
                <path fill="#FFBBB6" d="M9.054 28.328c-.822 23.566 2.466 36.034 9.865 37.404 7.399 1.37 17.948-5.617 31.65-20.963 4.932-1.918 7.398-4.521 7.398-7.81 0-3.288-2.466-3.699-7.398-1.232l-5.344-14.798c-7.947 4.659-13.975 7.399-18.085 8.221-4.11.822-10.14.548-18.086-.822z" transform="translate(70.809 64.224) translate(148.132)"/>
                <path fill="#B04343" d="M25.143 51.545c.117-.194.37-.257.564-.14.195.116.258.369.14.563-.896 1.495-2.264 2.255-4.05 2.255-1.815 0-2.95-.649-3.277-1.955-.055-.22.079-.444.3-.499.22-.055.443.08.498.3.221.885 1.004 1.332 2.478 1.332 1.501 0 2.6-.61 3.347-1.856z" transform="translate(70.809 64.224) translate(148.132)"/>
            </g>
            <g fill-rule="nonzero">
                <path fill="#1C84E5" d="M47.954 0C28.544 2.854 16.27 6.422 11.132 10.704 5.994 14.986 2.284 34.824 0 70.218L20.98 74.5l-.428 33.397 75.356-3.854-.428-33.825h17.983c4.281-34.823 1.57-55.232-8.135-61.227C95.623 2.997 83.348 0 68.506 0H47.954z" transform="translate(70.809 64.224) translate(63.368 138.724)"/>
                <path fill="#1E75C7" d="M95.621 81.348l.287 22.695-75.356 3.854.225-17.49c34.864 1.982 59.812-1.038 74.844-9.06z" transform="translate(70.809 64.224) translate(63.368 138.724)"/>
            </g>
            <g fill-rule="nonzero">
                <path fill="url(#prefix__g)" d="M8.542 31.13C-1.598 21.98-2.71 14.685 5.204 9.244c11.87-8.161 35.24-14.468 43.402-2.968 3.224 4.543 26.13 54.769 24.403 64.87-.554 3.24-6.596 14.58-15.92 7.363-2.665-2.062-7.1-10.56-13.306-25.492l-7.048-16.322L8.542 31.13z" transform="translate(70.809 64.224) scale(-1 1) rotate(8 -238.475 -681.732)"/>
                <path fill="#FD8F86" d="M20.112 52.66l5.063 19.914c.9 3.375 3.376 5.063 7.426 5.063 4.05 0 10.351-4.95 18.902-14.852L39.352 37.808l-19.24 14.851z" transform="translate(70.809 64.224) scale(-1 1) rotate(8 -238.475 -681.732)"/>
                <path fill="#FFBBB6" d="M8.171 25.566c1.075 21.78 4.951 33.288 11.629 34.525 6.677 1.236 15.29-5.326 25.838-19.687 4.452-1.73 6.677-4.08 6.677-7.048s-2.225-3.339-6.677-1.113l-2.63-3.411c-2.984 1.208-8.305 1.693-15.962 1.455-7.657-.239-13.949-1.812-18.875-4.721z" transform="translate(70.809 64.224) scale(-1 1) rotate(8 -238.475 -681.732)"/>
                <path fill="#B04343" d="M27.696 45.947l.358-.604-8.563.54.107.432c.356 1.44 1.597 2.156 3.606 2.156 1.985 0 3.497-.85 4.492-2.524zm-1.058.228l-.044.056c-.832 1.003-1.953 1.498-3.39 1.498h-.115c-1.363-.02-2.206-.397-2.595-1.127l-.02-.037 6.164-.39z" transform="translate(70.809 64.224) scale(-1 1) rotate(8 -238.475 -681.732)"/>
                <path fill="url(#prefix__h)" d="M44.524 42.42c-6.504 10.79-7.363 19.302-2.58 25.54 4.785 6.237 11.216 10.29 19.293 12.16l-16.713-37.7z" transform="translate(70.809 64.224) scale(-1 1) rotate(8 -238.475 -681.732)"/>
            </g>
            <g fill-rule="nonzero">
                <path fill="url(#prefix__i)" d="M6.936 37.605c-9.248-17.212-9.248-28.516 0-33.91 9.249-5.396 20.167-4.882 32.755 1.54 6.936.514 10.404 3.083 10.404 7.708 0 4.624-1.798 11.817-5.395 21.579l-20.809 5.78-16.955-2.697z" transform="translate(70.809 64.224) translate(93.767 84.776)"/>
                <path fill="#FD8F86" d="M15.8 43v16.184c3.596 3.34 7.064 5.01 10.403 5.01 3.34 0 6.808-2.441 10.405-7.322L33.14 39.917 15.8 43z" transform="translate(70.809 64.224) translate(93.767 84.776)"/>
                <path fill="#FFBBB6" d="M36.222 20.264c-7.45 6.166-14.514 9.73-21.194 10.69-6.679.962-9.89.962-9.633 0 2.826 13.905 7.964 21.259 15.414 22.06 7.45.803 14-3.609 19.652-13.235 4.624-2.477 6.68-5.257 6.166-8.34-.514-3.083-2.698-2.44-6.551 1.927l-3.854-13.102z" transform="translate(70.809 64.224) translate(93.767 84.776)"/>
                <path fill="#B04343" d="M24.635 43.461c.117-.195.37-.258.564-.141.195.117.258.37.141.564-.897 1.495-2.265 2.255-4.052 2.255-1.814 0-2.95-.65-3.276-1.956-.055-.22.079-.443.3-.498.22-.055.443.079.498.299.221.885 1.004 1.333 2.478 1.333 1.501 0 2.6-.61 3.347-1.856z" transform="translate(70.809 64.224) translate(93.767 84.776)"/>
            </g>
            <g fill-rule="nonzero">
                <path fill="url(#prefix__j)" d="M32.701 34.583c3.358-9.475 7.948-12.407 13.768-8.798 5.82 3.61 6.268 8.12 1.343 13.535l-15.11-4.737z" transform="translate(70.809 64.224) rotate(20 -158.642 599.997) rotate(-20 41.95 31.806)"/>
                <g>
                    <path fill="url(#prefix__k)" d="M9.017 36.635C-2.543 26.513-2.595 16.228 8.863 5.78c17.186-15.672 34.681 5.576 34.681 11.125 0 3.7-1.439 9.454-4.316 17.263l-16.647 4.625-13.564-2.158z" transform="translate(70.809 64.224) rotate(20 -158.642 599.997) translate(0 .16)"/>
                    <path fill="#FD8F86" d="M20.98 44.086l5.878 11.536c3.776 1.075 6.855 1.005 9.235-.208 2.38-1.213 3.966-4.212 4.757-8.997L32.22 35.59l-11.24 8.495z" transform="translate(70.809 64.224) rotate(20 -158.642 599.997) translate(0 .16)"/>
                    <path fill="#FFBBB6" d="M32.754 26.203c-5.189-1.796-10.455-2.31-15.799-1.54-5.343.768-8.683 2.952-10.019 6.55 2.826 11.191 7.219 17.108 13.179 17.75 5.96.642 11.2-2.888 15.722-10.59 3.7-1.98 5.344-4.205 4.933-6.67-.411-2.467-2.158-1.953-5.241 1.54l-2.775-7.04z" transform="translate(70.809 64.224) rotate(20 -158.642 599.997) translate(0 .16)"/>
                </g>
            </g>
            <path fill="#FFBBB6" fill-rule="nonzero" d="M11.263 125.84c5.175 6.334 6.488 11.32 3.941 14.957-2.546 3.638-5.226 8.168-8.038 13.591l-3.818-9.326 7.915-19.221z" transform="translate(70.809 64.224)"/>
            <path fill="#B04343" fill-rule="nonzero" d="M206.22 136.048l-7.074.844.274.528c.755 1.454 1.717 2.162 2.867 2.025 1.091-.13 2.206-1.02 3.38-2.636l.553-.76zm-5.766 1.516l3.946-.47-.017.019c-.807.938-1.545 1.438-2.194 1.516-.62.074-1.186-.25-1.71-1.026l-.025-.039z" transform="translate(70.809 64.224)"/>
        </g>
        <path fill="#FFBBB6" fill-rule="nonzero" d="M140.742 218.72c-1.19-7.85-1.19-12.489 0-13.916 1.784-2.14 4.995-9.277 6.066-7.85 1.07 1.428 1.784 7.136 0 9.277-1.19 1.427-3.212 5.59-6.066 12.488z"/>
        <ellipse cx="212.459" cy="356.623" fill="url(#prefix__l)" fill-rule="nonzero" rx="100.975" ry="14.094"/>
        <path fill="#232323" fill-rule="nonzero" d="M360.714 343.492l8.132-23.615 23.615 8.131-8.131 23.615-23.616-8.131zm4.535-2.212l16.869 5.808 5.808-16.868-16.868-5.808-5.809 16.868zM32.884 101.403c-.694-.593-1.72-.565-2.38.053l-.058.058-7.993 8.21-6.705-8.103c-.597-.721-1.646-.855-2.404-.32l-.064.048-12.427 9.633c-.778.604-.92 1.725-.317 2.503.588.758 1.664.913 2.44.365l.063-.048 11.062-8.575 6.87 8.303c.66.797 1.852.864 2.597.161l.055-.054 8.212-8.435 9.983 8.546c.729.623 1.814.557 2.463-.136l.053-.06c.623-.728.557-1.814-.136-2.462l-.06-.053-11.254-9.634z"/>
        <circle cx="115.409" cy="58.159" r="25.333" fill="url(#prefix__m)" fill-rule="nonzero" opacity=".871"/>
    </g>
</svg>
