<?xml version="1.0" encoding="UTF-8"?>
<svg width="526px" height="560px" viewBox="0 0 526 560" version="1.1" xmlns="http://www.w3.org/2000/svg" xmlns:xlink="http://www.w3.org/1999/xlink">
    <!-- Generator: Sketch 48.1 (47250) - http://www.bohemiancoding.com/sketch -->
    <title>getInTouchGraphics</title>
    <desc>Created with Sketch.</desc>
    <defs>
        <linearGradient x1="50%" y1="0%" x2="50%" y2="100%" id="linearGradient-1">
            <stop stop-color="#97F1D3" offset="0%"></stop>
            <stop stop-color="#5EDEA8" offset="100%"></stop>
        </linearGradient>
        <linearGradient x1="50%" y1="0%" x2="50%" y2="100%" id="linearGradient-2">
            <stop stop-color="#FBBBBB" offset="0%"></stop>
            <stop stop-color="#F58585" offset="100%"></stop>
        </linearGradient>
        <linearGradient x1="50%" y1="0%" x2="50%" y2="100%" id="linearGradient-3">
            <stop stop-color="#FEEFBA" offset="0%"></stop>
            <stop stop-color="#FCDB84" offset="100%"></stop>
        </linearGradient>
        <linearGradient x1="50%" y1="100%" x2="50%" y2="3.061617e-15%" id="linearGradient-4">
            <stop stop-color="#F8E39D" offset="0%"></stop>
            <stop stop-color="#EDC464" offset="100%"></stop>
        </linearGradient>
        <linearGradient x1="50%" y1="0%" x2="50%" y2="100%" id="linearGradient-5">
            <stop stop-color="#4F4F4F" offset="0%"></stop>
            <stop stop-color="#272727" offset="100%"></stop>
        </linearGradient>
        <path d="M170.517207,0.837628387 L9.21391226,0.837628387 C-16.0346006,56.1211019 23.9322396,48.7021077 23.9322396,48.7021077 L40.3258238,48.7021077 C40.3258238,48.7021077 53.0099108,98.8401497 77.7797788,139.764279 L111.045592,132.82393 L86.3953851,48.5824465 L162.380246,48.5824465 C162.380246,48.5824465 191.457917,53.8475392 192.654529,28.95801 C193.851141,4.06848074 170.517207,0.837628387 170.517207,0.837628387 Z" id="path-6"></path>
        <linearGradient x1="50%" y1="0%" x2="50%" y2="100%" id="linearGradient-8">
            <stop stop-color="#FCF6F7" offset="0%"></stop>
            <stop stop-color="#F7EAEC" offset="100%"></stop>
        </linearGradient>
        <polygon id="path-9" points="0 35.6590371 18.4278245 0.837628387 34.5820863 15.3166334 22.4963053 39.1292118 18.6671469 53.0099108 3.23085235 55.7621184 1.07695078 44.6336269"></polygon>
        <linearGradient x1="13.2666785%" y1="66.453591%" x2="66.7729082%" y2="19.5764236%" id="linearGradient-11">
            <stop stop-color="#DCBB48" offset="0%"></stop>
            <stop stop-color="#F6CC6E" offset="100%"></stop>
        </linearGradient>
    </defs>
    <g id="landing-page" stroke="none" stroke-width="1" fill="none" fill-rule="evenodd" transform="translate(-137.000000, -3199.000000)">
        <g id="getInTouchGraphics" transform="translate(136.816192, 3199.108042)">
            <path d="M268.103416,538.459289 C324.745663,493.527703 363.206883,405.789484 363.206883,304.910699 C363.206883,158.279098 281.946565,39.4106987 181.706883,39.4106987 C81.4672009,39.4106987 0.206882961,158.279098 0.206882961,304.910699 C0.206882961,409.573638 41.6077295,500.091666 101.760304,543.333425 C125.880809,560.672884 242.413749,558.837673 268.103416,538.459289 Z" id="Oval" fill="#C9EBDC" opacity="0.100000001"></path>
            <g id="Group-14" transform="translate(304.007204, 370.522610)">
                <path d="M81.7950856,33.923194 C58.646172,69.8286279 49.7695056,103.670639 55.1650865,135.449226 L60.9293246,135.449226 C69.0568761,118.700139 74.3543924,104.613441 76.8218737,93.1891328 C79.289355,81.7648246 80.9470923,62.0095116 81.7950856,33.923194 Z" id="Path-14" fill="#6DF2BA"></path>
                <path d="M51.4394501,135.856947 C38.2190563,77.7921959 39.0373454,32.7924007 53.8943173,0.857560921 C68.5437669,52.9090466 69.2656191,97.9088419 56.059874,135.856947 L51.4394501,135.856947 Z" id="Path-13" fill="#5EDEA8"></path>
                <path d="M39.5479876,136.537497 C41.4965349,95.9972424 32.742485,61.0814853 13.285838,31.7902256 C11.3229889,46.6305312 11.3229889,59.0695468 13.285838,69.1072726 C8.78095915,61.8299647 4.53512036,56.9311158 0.548321647,54.4107258 C0.71125595,86.2939861 10.6349733,113.669576 30.3194737,136.537497 L39.5479876,136.537497 Z" id="Path-15" fill="url(#linearGradient-1)"></path>
                <rect id="Rectangle-5" fill="#E57070" x="10.7695078" y="132.82393" width="58.6339871" height="15.5559558"></rect>
                <rect id="Rectangle-6" fill="url(#linearGradient-2)" x="15.5559558" y="148.379886" width="49.0610913" height="40.6848074"></rect>
            </g>
            <g id="Group-13" transform="translate(63.488195, 449.499001)">
                <rect id="Rectangle-8" fill="url(#linearGradient-3)" x="0" y="0" width="190.261305" height="110.088302"></rect>
                <rect id="Rectangle-8" fill="url(#linearGradient-4)" x="0" y="0" width="68.206883" height="110.088302"></rect>
            </g>
            <g id="Group-13" transform="translate(157.251034, 449.499001)">
                <rect id="Rectangle-8" fill="url(#linearGradient-3)" x="1.70530257e-13" y="0" width="180.261305" height="110.088302"></rect>
                <rect id="Rectangle-8" fill="url(#linearGradient-4)" x="1.70530257e-13" y="0" width="90.1730028" height="110.088302"></rect>
            </g>
            <g id="Group-13" transform="translate(92.206883, 339.410699)">
                <rect id="Rectangle-8" fill="url(#linearGradient-3)" x="3.12638804e-13" y="0" width="190.261305" height="110.088302"></rect>
                <rect id="Rectangle-8" fill="url(#linearGradient-4)" x="3.12638804e-13" y="0" width="80.1730028" height="110.088302"></rect>
            </g>
            <g id="Group-13" transform="translate(86.223823, 242.485128)">
                <rect id="Rectangle-8" fill="url(#linearGradient-3)" x="0" y="0" width="171.115513" height="96.9255705"></rect>
                <rect id="Rectangle-8" fill="url(#linearGradient-4)" x="0" y="0" width="52.1052792" height="96.9255705"></rect>
            </g>
            <g id="Untitled-1" transform="translate(84.428905, 0.269324)">
                <g id="Path-21" transform="translate(0.000000, 193.851141)">
                    <mask id="mask-7" fill="white">
                        <use xlink:href="#path-6"></use>
                    </mask>
                    <use id="Mask" fill="url(#linearGradient-5)" fill-rule="nonzero" xlink:href="#path-6"></use>
                    <path d="M28.1265017,1.46843257 C58.4068133,1.46843257 79.1309828,21.2253712 90.2990103,60.7392484 C101.467038,100.253126 142.063689,96.6260095 212.088965,49.8579002 L182.031017,-24.615393 L25.4383204,-11.5024336 L28.1265017,1.46843257 Z" fill="#272727" mask="url(#mask-7)"></path>
                </g>
                <path d="M123.610018,84.7201283 L103.028292,45.7105777 L113.319155,37.0949714 C113.319155,37.0949714 143.593438,56.8390691 160.944312,98.8401497 C178.295185,140.84123 131.387996,119.900521 131.387996,119.900521 L123.610018,84.7201283 Z" id="Shape" fill="url(#linearGradient-8)" fill-rule="nonzero" opacity="0.49"></path>
                <path d="M96.6862481,46.9071897 L103.147953,57.6766975 C103.147953,57.6766975 116.310685,55.8817795 118.584247,51.334654 L112.84051,35.7786983 L96.6862481,46.9071897 Z" id="Shape" fill="#242424" fill-rule="nonzero"></path>
                <g id="Path-2" transform="translate(59.830599, 29.915300)">
                    <mask id="mask-10" fill="white">
                        <use xlink:href="#path-9"></use>
                    </mask>
                    <use id="Mask" fill="url(#linearGradient-8)" fill-rule="nonzero" xlink:href="#path-9"></use>
                    <polygon fill="#E9DADC" mask="url(#mask-10)" points="18.7679857 1.84486455 24.9059844 34.7511291 39.5943391 11.4662806"></polygon>
                </g>
                <path d="M110.447286,40.9241298 C113.797799,37.453955 115.83204,32.7871683 115.83204,27.6417368 C115.83204,16.9918901 107.216434,8.37628387 96.5665869,8.37628387 C85.9167403,8.37628387 77.301134,16.9918901 77.301134,27.6417368 C77.301134,38.2915834 85.9167403,46.9071897 96.5665869,46.9071897 C100.87439,46.9071897 104.703548,45.4712553 107.934401,43.1976925 L104.82321,39.3685342 L110.447286,40.9241298 Z" id="Shape" fill="url(#linearGradient-8)" fill-rule="nonzero"></path>
                <path d="M59.8305991,65.5743366 C59.8305991,65.5743366 30.1546219,59.9502603 13.7610378,87.1133523 C-2.63254636,114.276444 9.21391226,194.569108 9.21391226,194.569108 L87.8313195,194.569108 C87.8313195,194.569108 101.83168,118.584247 99.1991333,97.6435377 L112.720849,105.062532 L115.951701,83.5235163 C115.951701,83.5235163 100.156423,72.7540085 82.4465655,68.9248501 C82.3269043,69.0445113 72.9933309,103.746259 59.8305991,65.5743366 Z" id="Shape" fill="url(#linearGradient-1)" fill-rule="nonzero"></path>
                <path d="M75.6546963,91.3951417 C79.7953881,120.467443 78.9308591,146.869254 73.0611093,170.600575" id="Path-3" stroke="#399C72"></path>
                <polygon id="Shape" fill="#47C690" fill-rule="nonzero" points="111.045592 118.225264 112.720849 105.062532 99.0794721 97.7631989 98.3615049 114.276444"></polygon>
                <polygon id="Shape" fill="#278E62" fill-rule="nonzero" points="123.490357 84.4772671 115.712379 83.2806551 113.079832 105.178654 129.593078 113.913922"></polygon>
                <polygon id="Shape" fill="#1D724D" fill-rule="nonzero" points="113.079832 105.178654 111.170784 120.386499 131.511455 123.159032 129.593078 113.913922"></polygon>
                <polygon id="Shape" fill="#47C690" fill-rule="nonzero" points="21.5390157 126.721209 59.1126319 194.688769 42.0010806 194.688769"></polygon>
                <path d="M75.3865549,33.7444579 C75.3865549,33.7444579 84.6004671,27.163092 84.6004671,19.1457917 C84.6004671,19.1457917 109.968641,29.0776712 103.147953,17.5901961 C103.147953,17.5901961 117.148313,22.3766441 123.729679,17.5901961 C123.729679,17.5901961 112.361865,-0.119661198 92.0194614,0.598305991 C92.0194614,0.598305991 82.2072431,-0.239322396 80.6516476,11.6071362 C80.5319864,11.6071362 67.8478994,11.1284914 75.3865549,33.7444579 Z" id="Shape" fill="url(#linearGradient-11)" fill-rule="nonzero"></path>
                <polygon id="Shape" fill="#278E62" fill-rule="nonzero" points="39.847179 159.7477 67.608577 147.183274 74.7882489 160.704989 46.7875285 174.226705"></polygon>
                <path d="M107.575417,327.393038 C107.575417,327.393038 131.148673,334.57271 131.268334,340.914754 L89.2672538,340.914754 L86.5150463,331.700841 L107.575417,327.393038 Z" id="Shape" fill="#1A7C53" fill-rule="nonzero"></path>
                <path d="M72.8419009,161.662279 L103.222073,223.383262 L97.8184854,242.716099 C97.8184854,242.716099 69.7198278,220.981667 47.6251569,173.189933 L72.8419009,161.662279 Z" id="Shape" fill="url(#linearGradient-8)" fill-rule="nonzero"></path>
                <polygon id="Shape" fill="#3C86E7" fill-rule="nonzero" points="97.6435377 242.433588 115.83204 180.329426 192.654529 180.329426 176.260945 242.433588"></polygon>
                <polygon id="Shape" fill="#FFFFFF" fill-rule="nonzero" points="150.892771 205.817261 142.875471 205.817261 138.80699 212.877272 142.875471 219.817621 150.892771 219.817621 154.961252 212.877272"></polygon>
                <polygon id="Rectangle-path" fill="#3C86E7" fill-rule="nonzero" points="84.4319935 237.766801 98.8401497 237.766801 98.8401497 242.553249 86.5150463 242.553249"></polygon>
            </g>
            <path d="M142.464586,76.1560627 C145.746245,85.9571921 149.373337,91.667095 153.345863,93.2857715" id="Path-22" stroke="#399C72"></path>
            <polygon id="Path-23" fill="#399C72" points="158.83428 83.9136994 152.955585 93.8798126 159.431853 88.273964 166.071445 89.4350039"></polygon>
            <path d="M50.4372633,509.412979 C33.8988312,460.95042 33.8988312,415.427359 50.4372633,372.843796 C64.2536562,420.846821 66.7706644,466.369882 57.9882881,509.412979 L50.4372633,509.412979 Z" id="Path-18" fill="#67E7B1"></path>
            <rect id="Rectangle-7" fill="url(#linearGradient-2)" x="29.9830599" y="518.902496" width="41.8814194" height="40.6848074"></rect>
            <path d="M197.0041,58.9984803 C246.622886,149.92921 295.519036,170.701518 343.692548,121.315404 C415.952816,47.236234 472.615636,58.5224532 525.812251,75.2379674" id="Path-20" stroke="#303030"></path>
            <path d="M38.0116677,508.628007 C25.9541451,484.733305 21.9349709,454.903111 25.9541451,419.137427 C41.6343913,445.828984 47.7777059,475.659177 44.384089,508.628007 L38.0116677,508.628007 Z" id="Path-16" fill="#5EDEA8"></path>
            <path d="M63.0018253,508.351326 C62.2665138,477.707783 69.1664231,454.790853 83.7015531,439.600537 C83.9886667,471.639585 78.4550513,494.556515 67.1007069,508.351326 L63.0018253,508.351326 Z" id="Path-17" fill="#86F5C6"></path>
            <path d="M67.4819076,413.520137 C53.0244535,438.288595 49.3794945,469.944673 56.5470306,508.488374 L64.0234866,508.488374 C68.6852953,488.923077 71.1995402,474.105895 71.5662215,464.036828 C71.9329027,453.967761 70.5714647,437.128864 67.4819076,413.520137 Z" id="Path-19" fill="#5EDEA8"></path>
            <rect id="Rectangle-18" fill="#E57070" x="24" y="505.739764" width="52.6509272" height="14.3593438"></rect>
        </g>
    </g>
</svg>