<svg xmlns="http://www.w3.org/2000/svg" xmlns:xlink="http://www.w3.org/1999/xlink" width="617" height="575" viewBox="0 0 617 575">
    <defs>
        <linearGradient id="prefix__a" x1="36.309%" x2="66.054%" y1="-3.207%" y2="97.414%">
            <stop offset="0%" stop-color="#EEF8FA"/>
            <stop offset="100%" stop-color="#D9EEF3"/>
        </linearGradient>
        <linearGradient id="prefix__b" x1="0%" x2="12.658%" y1="1.622%" y2="158.447%">
            <stop offset="0%" stop-color="#F5A42C" stop-opacity="0"/>
            <stop offset="100%" stop-color="#FDBE56"/>
        </linearGradient>
        <linearGradient id="prefix__e" x1="95.539%" x2="30.472%" y1="9.333%" y2="73.622%">
            <stop offset="0%" stop-color="#7ADBC0"/>
            <stop offset="100%" stop-color="#4AC096"/>
        </linearGradient>
        <linearGradient id="prefix__g" x1="34.192%" x2="39.643%" y1="-37.143%" y2="50%">
            <stop offset="0%" stop-color="#7ADBC0"/>
            <stop offset="100%" stop-color="#4AC096"/>
        </linearGradient>
        <linearGradient id="prefix__i" x1="112.958%" x2="-15.174%" y1="51.829%" y2="42.079%">
            <stop offset="0%" stop-color="#222121"/>
            <stop offset="100%" stop-color="#565555"/>
        </linearGradient>
        <linearGradient id="prefix__k" x1="-81.428%" x2="92.253%" y1="-30.4%" y2="67.76%">
            <stop offset="0%" stop-color="#76D2B9"/>
            <stop offset="100%" stop-color="#2A9B74"/>
        </linearGradient>
        <linearGradient id="prefix__n" x1="65.077%" x2="34.392%" y1="58.643%" y2="12.576%">
            <stop offset="0%" stop-color="#222121"/>
            <stop offset="100%" stop-color="#565555"/>
        </linearGradient>
        <linearGradient id="prefix__o" x1="50%" x2="50%" y1="0%" y2="100%">
            <stop offset="0%" stop-color="#3CBAF4"/>
            <stop offset="100%" stop-color="#1C84E5"/>
        </linearGradient>
        <linearGradient id="prefix__p" x1="27.885%" x2="91.705%" y1="-31.205%" y2="94.77%">
            <stop offset="0%" stop-color="#76D2B9"/>
            <stop offset="100%" stop-color="#2A9B74"/>
        </linearGradient>
        <linearGradient id="prefix__q" x1="50%" x2="24.41%" y1="72.468%" y2="-62.77%">
            <stop offset="0%" stop-color="#0F0E0E"/>
            <stop offset="100%" stop-color="#565555"/>
        </linearGradient>
        <linearGradient id="prefix__r" x1="158.656%" x2="-15.174%" y1="57.204%" y2="25.76%">
            <stop offset="0%" stop-color="#222121"/>
            <stop offset="100%" stop-color="#565555"/>
        </linearGradient>
        <linearGradient id="prefix__s" x1="50%" x2="-87.99%" y1="52.586%" y2="37.018%">
            <stop offset="0%" stop-color="#0F0E0E"/>
            <stop offset="100%" stop-color="#565555"/>
        </linearGradient>
        <linearGradient id="prefix__t" x1="112.958%" x2="-15.174%" y1="50.678%" y2="47.065%">
            <stop offset="0%" stop-color="#222121"/>
            <stop offset="100%" stop-color="#565555"/>
        </linearGradient>
        <path id="prefix__c" d="M87.602 525.921C-16.19 469.613-21.326 375.657 40.679 310.301c62.005-65.357 143.504-209.619 178.696-243.135 35.192-33.516 160.935-87 264.276-59.628 103.342 27.371 232.38 448 8.938 523.97-223.441 75.97-301.196 50.721-404.987-5.587z"/>
        <path id="prefix__f" d="M65.013 76.144c-6.692-.705-11.798-.529-15.32.528-5.283 1.585-35.36 11.694-42.755 9.581-4.93-1.408-7.22-4.05-6.868-7.924C40.571 52.972 62.76 37.476 66.633 31.841c5.81-8.452 5.81-33.28 15.32-31.696 6.339 1.057 13.206 7.748 20.602 20.074H91.461c-3.405 13.072-6.575 22.933-9.508 29.584-2.934 6.65-8.581 15.43-16.94 26.34z"/>
        <path id="prefix__h" d="M0 2.589C5.283.123 9.861-.581 13.735.475c5.811 1.585 15.32 3.698 23.244 4.227 5.283.352 10.918.528 16.905.528-9.51 13.383-18.842 19.898-27.999 19.546-7.172-.276-13.646-5.777-20.602-14.263C4 8.947 2.239 6.306 0 2.589z"/>
        <path id="prefix__l" d="M150.159 38.817c-33.105-14.44-55.117-24.3-66.034-29.583C67.748 1.31 60.88-.804 54.542.253c-6.34 1.057-18.49 6.868-27.999 8.98-9.509 2.114-17.96 7.925-17.96 7.925S6.996 36.175 3.827 41.986C.658 47.797-.4 58.891.13 61.533c.352 1.76 5.81 1.76 16.376 0 2.465 5.282 4.755 8.628 6.868 10.037 2.113 1.408 5.635 2.465 10.565 3.17 10.213 5.282 15.848 7.923 16.905 7.923 1.056 0 7.043-1.76 17.961-5.282C90.288 86.89 105.08 90.94 113.18 89.53c8.1-1.409 18.665-2.465 31.696-3.17 112.698 54.236 171.688 81.354 176.971 81.354 5.283 0 17.08-12.855 35.394-38.564 5.356-19.726 4.475-32.933-2.641-39.62-7.116-6.687-26.662-12.674-58.638-17.961L150.159 38.817z"/>
    </defs>
    <g fill="none" fill-rule="evenodd" transform="translate(.432 -4.039)">
        <g fill-rule="nonzero">
            <path fill="url(#prefix__a)" d="M87.211 521.509c-103.79-56.308-108.927-150.264-46.922-215.62 62.004-65.357 192.718-88.819 227.91-122.335 35.192-33.516 111.72-207.8 215.062-180.429 103.341 27.372 232.379 448 8.937 523.97-223.44 75.97-301.196 50.722-404.987-5.586z" opacity=".871" transform="translate(.39 4.412)"/>
            <path fill="url(#prefix__b)" d="M423.923 8.456c-3.339 11.41-5.13 23.481-5.13 35.97 0 70.606 57.237 127.842 127.843 127.842 15.767 0 30.868-2.854 44.814-8.075 3.696 11.898 7.048 24.13 9.993 36.576l-.01.006c-17.152 6.01-35.593 9.28-54.797 9.28-91.474 0-165.628-74.155-165.628-165.629 0-2.34.048-4.67.144-6.987 12.795-11.656 26.375-21.442 40.685-28.05l2.086-.933z" transform="translate(.39 4.412)"/>
        </g>
        <mask id="prefix__d" fill="#fff">
            <use xlink:href="#prefix__c"/>
        </mask>
        <g mask="url(#prefix__d)">
            <g>
                <path fill="#C1D9EF" d="M0 370.629c158.311-9.616 276.03-2.978 353.158 19.914 77.128 22.891 177.147 62.47 300.058 118.738-145.568 44.023-250.165 66.034-313.793 66.034-63.627 0-149.911-22.011-258.853-66.034L0 370.63z" transform="translate(-19.677 48.541)"/>
                <path fill="#E1F0FE" d="M59.968 467.142c100.02-35.923 184.719-52.299 254.098-49.13 104.07 4.755 116.748 34.338 75.015 41.734-41.734 7.396-133.125 16.905-210.78 50.714-51.771 22.54-91.215 8.1-118.333-43.318z" transform="translate(-19.677 48.541)"/>
                <path fill="#FD8F86" fill-rule="nonzero" d="M333.612 168.546L333.612 263.107 411.796 274.2 432.399 206.582 427.116 164.848z" transform="translate(-19.677 48.541)"/>
                <path fill="#4A4545" d="M314.595 234.052c24.3 20.426 45.43 31.696 63.392 33.81 17.961 2.112 37.155-4.931 57.582-21.132l-57.582 90.863-72.901-17.433 9.509-86.108z" transform="translate(-19.677 48.541)"/>
                <g>
                    <path fill="url(#prefix__e)" d="M147.388 217.192c-60.928 0-100.196-2.29-117.805-6.867C11.974 205.746 2.113 193.244 0 172.817c1.409-9.156 4.402-15.496 8.98-19.018 4.579-3.521 16.2-19.722 34.867-48.6 44.022-52.475 74.662-79.946 91.919-82.41 25.885-3.699 64.449-6.868 83.467-16.905 12.678-6.692 19.017.352 19.017 21.13-.704 53.884 3.346 88.046 12.15 102.485 8.805 14.44 10.742 35.922 5.812 64.45l-108.824 23.243z" transform="translate(-19.677 48.541) translate(102.758 167.945)"/>
                    <g transform="translate(-19.677 48.541) translate(102.758 167.945) translate(145.768)">
                        <path fill="#C1D9EF" d="M92.483 27.014l-.023 1.891c-.341 30.753.893 54.97 3.703 72.65l-.658-.802c-6.874-8.355-12.46-14.269-16.757-17.742-6.808-5.5-14.204-7.966-22.188-7.396 1.032-4.128 3.408-8.087 7.128-11.88l.268-.27c5.753-5.753 18.754-17.201 23.115-41.52l.129-.742c.745-4.378 1.897-7.562 3.456-9.55 1.218 3.802 1.827 8.922 1.827 15.361z"/>
                        <use fill="#E1F0FE" xlink:href="#prefix__f"/>
                    </g>
                    <path fill="#45AB87" d="M150.557 127.914l-32.752-12.678 27.47-31.697c-1.41 15.496 2.113 26.062 10.565 31.697 8.452 5.635 37.507 22.891 87.165 51.77l-92.448-31.696v-7.396z" opacity=".227" transform="translate(-19.677 48.541) translate(102.758 167.945)"/>
                    <path fill="#45AB87" d="M7.008 155.595c10.065 21.11 20.935 32.662 32.612 34.655 14.44 2.465 39.092.705 73.958-5.282l67.09 14.263-3.894 11.684-29.386 6.277c-60.928 0-100.196-2.29-117.805-6.867C11.974 205.746 2.113 193.244 0 172.817c1.195-7.769 3.531-13.51 7.008-17.222z" transform="translate(-19.677 48.541) translate(102.758 167.945)"/>
                </g>
                <g>
                    <path fill="url(#prefix__g)" d="M15.32 137.174c27.118-19.37 43.318-33.809 48.6-43.318C69.205 84.347 76.953 53.18 87.166.352c9.509 10.566 19.546 19.018 30.111 25.357 15.848 9.51 106.183 29.583 123.616 52.827 17.433 23.244 49.657 202.857 38.035 229.27-7.748 17.61-34.513 17.61-80.297 0L49.13 192.115 0 185.247l15.32-48.073z" transform="translate(-19.677 48.541) translate(343.65 176.646)"/>
                    <path fill="#45AB87" d="M182.782 151.966v50.714L34.866 185.775c45.431-2.465 72.197-5.282 80.297-8.452 8.1-3.17 30.64-12.502 67.619-27.998v2.641z" transform="translate(-19.677 48.541) translate(343.65 176.646)"/>
                    <path fill="#333" fill-rule="nonzero" d="M182.254 127.401c.412 0 .75.315.788.717l.004.076v53.355c0 .438-.355.793-.792.793-.412 0-.75-.315-.79-.716l-.003-.077v-53.355c0-.438.355-.793.793-.793z" transform="translate(-19.677 48.541) translate(343.65 176.646)"/>
                    <g>
                        <path fill="#E1F0FE" d="M32.225 0c3.348 3.72 6.762 7.18 10.242 10.376C49.419 27.68 52.265 53.51 54.412 70.26c2.641 20.603 17.961 32.225 13.207 34.866-4.755 2.641-32.225-12.15-36.451-12.15l-.141.004c-2.468.147-12.648 3.893-30.54 11.238 3.962-4.083 6.793-7.654 8.494-10.714C14.263 83.995 22.01 52.827 32.225 0z" transform="translate(-19.677 48.541) translate(343.65 176.646) translate(54.94 .352)"/>
                        <path fill="#C1D9EF" d="M29.58 76.745l.003 1.44c0 5.054.377 9.996 1.13 14.828l-.191.029c-3.164.53-13.176 4.255-30.036 11.176 3.963-4.082 6.794-7.653 8.495-10.714 4.327-7.79 10.31-30.114 17.945-66.973l.268 3.415c1.527 19.796 2.323 35.395 2.385 46.8z" transform="translate(-19.677 48.541) translate(343.65 176.646) translate(54.94 .352)"/>
                    </g>
                </g>
                <path fill="#FD8F86" fill-rule="nonzero" d="M319.877 154.811c-7.748-6.691-11.622-14.616-11.622-23.772 0-13.735 1.585-16.905 5.811-15.32 2.818 1.056 7.22 10.213 13.207 27.47l-7.396 11.622z" transform="translate(-19.677 48.541)"/>
                <path fill="#333" fill-rule="nonzero" d="M186.805 270.483c.148-.385.563-.588.952-.48l.072.024 59.167 22.715c.408.157.612.616.455 1.024-.147.385-.562.588-.95.48l-.073-.024-59.167-22.716c-.408-.157-.612-.615-.456-1.023z" transform="translate(-19.677 48.541)"/>
                <path fill="#FFBBB6" fill-rule="nonzero" d="M314.066 115.719c2.113 28.879 4.226 45.96 6.34 51.242 3.17 7.924 17.96 30.112 20.602 35.394 2.641 5.283 14.792 17.962 23.772 19.018 8.98 1.057 26.414-7.396 48.601-20.074 14.792-8.452 24.829-18.49 30.112-30.112 9.509-4.226 15.672-8.452 18.49-12.678 4.225-6.34 14.263-34.866 3.697-34.866-7.043 0-14.087 6.163-21.13 18.49l12.678-37.508-9.51-58.11-114.106-4.226-19.546 35.923v37.507z" transform="translate(-19.677 48.541)"/>
                <g transform="translate(-19.677 48.541) translate(345.763 164.901)">
                    <mask id="prefix__j" fill="#fff">
                        <use xlink:href="#prefix__h"/>
                    </mask>
                    <use fill="url(#prefix__i)" xlink:href="#prefix__h"/>
                    <path fill="#E1F0FE" d="M-3.698-.053C6.515 5.934 16.73 9.28 26.942 9.984c10.213.705 18.842.176 25.885-1.584L57.053-4.28-3.697-.053z" mask="url(#prefix__j)"/>
                    <path fill="#FD8F86" fill-rule="nonzero" d="M9.509 18.437c3.522-1.41 8.452-1.41 14.791 0 6.34 1.408 11.799 2.993 16.377 4.754l-15.32 7.396-15.848-12.15z" mask="url(#prefix__j)"/>
                </g>
                <g>
                    <path fill="#FD8F86" fill-rule="nonzero" d="M4.093 1.267c.117-.268.429-.39.696-.273.248.109.371.385.294.638l-.022.058-3.698 8.452c-.117.268-.428.39-.695.273-.249-.109-.371-.385-.294-.638l.021-.058 3.698-8.452zM20.546 1.13c.117-.266.428-.388.695-.271.249.108.371.385.294.637l-.021.058-3.698 8.453c-.117.267-.429.389-.696.272-.248-.109-.371-.385-.294-.638l.022-.058 3.698-8.452zM12.039.94c.117-.267.428-.39.695-.272.249.108.371.385.294.638l-.021.058-3.698 8.452c-.117.267-.429.39-.696.272-.248-.108-.371-.385-.294-.638l.022-.058L12.039.94z" transform="translate(-19.677 48.541) rotate(3 -2281.189 7643.976)"/>
                </g>
                <path fill="url(#prefix__k)" d="M222.147 314.349c14.792-15.496 24.653-23.068 29.583-22.716 4.93.352 14.087 6.34 27.47 17.962l-14.263 17.96-42.79-13.206z" transform="translate(-19.677 48.541)"/>
                <path fill="#F5A8A2" fill-rule="nonzero" d="M271.805 306.953c82.762 30.64 131.01 45.96 144.746 45.96 13.735 0 47.192-2.466 100.371-7.396l44.375 16.376c-.352 9.51-5.81 14.616-16.376 15.32-10.566.705-41.734 4.755-93.504 12.15l-198.102-58.638 18.49-23.772z" transform="translate(-19.677 48.541)"/>
                <g transform="translate(-19.677 48.541) translate(187.68 304.587)">
                    <mask id="prefix__m" fill="#fff">
                        <use xlink:href="#prefix__l"/>
                    </mask>
                    <use fill="#FFBBB6" fill-rule="nonzero" xlink:href="#prefix__l"/>
                    <g fill="#FD8F86" fill-rule="nonzero" mask="url(#prefix__m)">
                        <g>
                            <path d="M26.491.333c.268-.117.579.006.696.273.108.248.01.534-.218.667l-.056.028-20.329 8.861-5.243 39.326c-.036.268-.268.463-.532.458l-.062-.004c-.268-.036-.463-.268-.458-.532l.004-.062L5.616 9.432 26.49.332zM16.622 27.76c.27-.021.51.164.561.423l.009.061 2.641 32.225c.024.29-.193.545-.483.57-.27.021-.51-.164-.561-.423l-.009-.061L16.14 28.33c-.024-.29.192-.545.483-.57zM36.327 45.39c.168-.21.464-.258.688-.12l.055.038L58.2 62.212c.228.183.265.515.083.743-.168.21-.465.258-.688.12l-.055-.038-21.13-16.904c-.228-.183-.265-.515-.083-.743z" transform="translate(15.16 17.925)"/>
                        </g>
                    </g>
                </g>
                <path fill="url(#prefix__n)" d="M347.876 345.517c1.056 4.226 1.584 9.509 1.584 15.848 0 6.34-1.937 18.666-5.81 36.98l23.772 10.036c5.282-16.552 7.572-30.64 6.867-42.261-.704-11.622-4.402-17.962-11.094-19.018l-15.32-1.585z" transform="translate(-19.677 48.541)"/>
                <path fill="url(#prefix__o)" d="M363.216 378.27c8.907 0 15.558-7.332 14.854-16.377-.703-9.044-8.494-16.376-17.402-16.376-8.907 0-15.558 7.332-14.854 16.376.703 9.045 8.494 16.377 17.402 16.377z" transform="translate(-19.677 48.541)"/>
                <path fill="url(#prefix__p)" d="M461.982 371.96c41.907-10.79 66.384-14.146 73.43-10.067 10.57 6.12 38.875 23.75 49.51 50.12 7.09 17.581 6.083 38.558-3.022 62.93-31.733 12.193-52.421 16.25-62.063 12.17-9.643-4.08-19.243-11.482-28.8-22.207 38.388-10.917 53.18-26.508 44.376-46.773-8.804-20.265-33.281-35.656-73.43-46.172z" transform="translate(-19.677 48.541)"/>
                <path fill="url(#prefix__q)" d="M432.399 63.42l9.509 32.225c5.635 4.226 8.452 8.452 8.452 12.678 0 4.226-2.113 15.848-6.339 34.866 10.918-12.678 17.609-19.018 20.074-19.018 3.698 0 13.207-51.242 3.17-66.034-6.691-9.86-18.313-8.1-34.866 5.283z" transform="translate(-19.677 48.541)"/>
                <path fill="url(#prefix__r)" d="M336.254 51.27l-8.981 26.942c-5.987 4.93-9.685 9.156-11.094 12.678-1.408 3.522-1.408 18.666 0 45.431-10.213-45.783-12.15-74.134-5.81-85.051 6.339-10.918 13.382-17.257 21.13-19.018 16.2-28.527 42.086-37.683 77.656-27.47 35.57 10.213 57.582 29.583 66.034 58.11-7.748 10.213-16.905 14.263-27.47 12.15-15.848-3.17-13.735-12.15-42.79-12.15s-44.375-2.113-52.827-3.698c-5.635-1.057-10.918-3.698-15.848-7.924z" transform="translate(-19.677 48.541)"/>
                <path fill="url(#prefix__s)" d="M423.418 122.058c-3.058-6.691-6.286-10.037-9.685-10.037-5.097 0-14.273 2.641-18.86 7.924-4.588 5.283 7.136-3.17 13.763-3.698 4.418-.352 9.345 1.585 14.782 5.811z" transform="translate(-19.677 48.541) scale(-1 1) rotate(-4 0 11818.58)"/>
                <path fill="#FD8F86" fill-rule="nonzero" d="M368.478 121.53v22.187c0 2.113.528 5.635 1.585 10.566l-9.509-5.811c2.465-6.692 4.226-11.798 5.283-15.32 1.056-3.522 1.937-7.396 2.641-11.622z" transform="translate(-19.677 48.541)"/>
                <g>
                    <path fill="#FD8F86" fill-rule="nonzero" d="M4.031.605c.117-.267.428-.389.696-.272.248.109.37.385.293.638L5 1.029 1.3 9.48c-.117.267-.428.39-.696.272-.248-.108-.37-.385-.293-.637l.021-.058L4.031.605zM19.35.605c.118-.267.43-.389.697-.272.248.109.37.385.293.638l-.021.058L16.62 9.48c-.117.267-.429.39-.696.272-.248-.108-.37-.385-.293-.637l.021-.058L19.351.605zM11.955.605c.117-.267.428-.389.696-.272.248.109.37.385.293.638l-.021.058L9.225 9.48c-.117.267-.428.39-.696.272-.248-.108-.37-.385-.293-.637l.021-.058L11.955.605z" transform="translate(-19.677 48.541) translate(331.739 128.637)"/>
                </g>
                <path fill="#333" fill-rule="nonzero" d="M211.818 257.615c.383-.151.814.016.997.376l.032.07 10.037 25.357c.16.406-.038.867-.445 1.028-.383.152-.814-.016-.997-.376l-.032-.07-10.037-25.356c-.161-.407.038-.868.445-1.029z" transform="translate(-19.677 48.541)"/>
                <path stroke="#FD8F86" stroke-linecap="round" stroke-width="2" d="M446.662 154.811c3.874-7.396 7.748-11.798 11.622-13.207" transform="translate(-19.677 48.541)"/>
                <path fill="url(#prefix__t)" d="M360.554 99.87c-1.409-4.578-2.993-7.395-4.754-8.452-2.642-1.584-16.905-2.113-29.584 2.114 0 2.113 2.114 3.17 6.34 3.17 6.339 0 13.735-1.586 17.961-.53 2.817.705 6.163 1.938 10.037 3.699z" transform="translate(-19.677 48.541)"/>
                <path fill="url(#prefix__t)" d="M428.701 104.733c-1.409-4.578-2.993-7.396-4.754-8.452-2.642-1.585-16.905-2.113-29.584 2.113 0 2.113 2.114 3.17 6.34 3.17 6.339 0 13.735-1.585 17.961-.529 2.817.704 6.163 1.937 10.037 3.698z" transform="translate(-19.677 48.541) scale(-1 1) rotate(-5 0 9525.564)"/>
                <path fill="#D8D8D8" d="M360.044 116.775c-3.058-6.691-6.286-10.037-9.685-10.037-5.097 0-14.273 2.642-18.86 7.924-4.588 5.283 7.136-3.17 13.763-3.698 4.418-.352 9.345 1.585 14.782 5.811z" transform="translate(-19.677 48.541)"/>
                <path fill="url(#prefix__s)" d="M360.044 116.775c-3.058-6.691-6.286-10.037-9.685-10.037-5.097 0-14.273 2.642-18.86 7.924-4.588 5.283 7.136-3.17 13.763-3.698 4.418-.352 9.345 1.585 14.782 5.811z" transform="translate(-19.677 48.541)"/>
            </g>
        </g>
    </g>
</svg>
