<svg id="Group_742" data-name="Group 742" xmlns="http://www.w3.org/2000/svg" width="27" height="27" viewBox="0 0 27 27">
  <circle id="Ellipse_112" data-name="Ellipse 112" cx="12.5" cy="12.5" r="12.5" transform="translate(1 1)" fill="#5edea8" stroke="#fff" stroke-miterlimit="10" stroke-width="2"/>
  <path id="Path_637" data-name="Path 637" d="M5.9,12.708c.123-.144.237-.3.37-.429Q7.7,10.908,9.128,9.546c.729-.7,1.461-1.388,2.191-2.084.484-.461.965-.929,1.452-1.386a1.033,1.033,0,0,1,1.464.006c.738.7,1.47,1.406,2.205,2.109.015.014.032.025.068.053,0-.067.01-.114.01-.161,0-.607,0-1.214,0-1.822,0-.344.093-.451.39-.451h1.638c.28,0,.379.114.379.437q0,2.079,0,4.159a.322.322,0,0,0,.106.259q.934.883,1.865,1.773a2.047,2.047,0,0,1,.2.27V12.9c-.2.279-.4.559-.6.837-.172.239-.327.26-.539.059-.566-.537-1.129-1.08-1.693-1.619q-.744-.713-1.49-1.423L15.243,9.29Q14.415,8.5,13.588,7.7c-.064-.062-.11-.064-.175,0q-.756.73-1.515,1.454T10.389,10.6l-1.517,1.45L7.178,13.665c-.066.063-.129.128-.2.184a.266.266,0,0,1-.431-.05c-.221-.293-.432-.6-.647-.9Z" fill="#fff"/>
  <path id="Path_638" data-name="Path 638" d="M14.706,19.625v-4.13c-.053,0-.093-.006-.132-.006-.716,0-1.432,0-2.148,0-.107,0-.137.032-.136.155,0,1.266,0,2.532,0,3.8v.2H8.751c-.437,0-.677-.272-.677-.773q0-2.5,0-5a.343.343,0,0,1,.123-.279c.838-.786,1.671-1.578,2.506-2.367q1.1-1.042,2.209-2.082c.2-.185.39-.372.59-.563l.876.826L16.91,11.8q.972.918,1.942,1.841a.279.279,0,0,1,.071.176q.006,2.56,0,5.12a.629.629,0,0,1-.6.7c-1.181.006-2.362,0-3.543,0A.589.589,0,0,1,14.706,19.625Z" fill="#fff"/>
</svg>
