<?xml version="1.0" encoding="UTF-8"?>
<svg width="34px" height="31px" viewBox="0 0 34 31" version="1.1" xmlns="http://www.w3.org/2000/svg" xmlns:xlink="http://www.w3.org/1999/xlink">
    <!-- Generator: Sketch 48.1 (47250) - http://www.bohemiancoding.com/sketch -->
    <title>info_imp</title>
    <desc>Created with Sketch.</desc>
    <defs></defs>
    <g id="booking_step6" stroke="none" stroke-width="1" fill="none" fill-rule="evenodd" transform="translate(-147.000000, -129.000000)">
        <g id="info_imp" transform="translate(147.078247, 129.500000)" fill="#FF4E4E" fill-rule="nonzero">
            <path d="M16.5377331,21.3079572 C15.6130207,21.3079572 14.8378942,22.0830837 14.8378942,23.0077961 C14.8378942,23.9325085 15.6130207,24.7076351 16.5377331,24.7076351 C17.4284487,24.7076351 18.2375721,23.9325085 18.1967759,23.0485922 C18.2375721,22.0762844 17.4692449,21.3079572 16.5377331,21.3079572 Z" id="Shape"></path>
            <path d="M32.2714424,27.3321864 C33.3389413,25.489561 33.3457406,23.2933691 32.2850411,21.457543 L21.63725,3.01769009 C20.5833498,1.16146596 18.6795302,0.0599703181 16.5445325,0.0599703181 C14.4095348,0.0599703181 12.5057151,1.16826531 11.451815,3.01089073 L0.790425111,21.4711417 C-0.270274393,23.3273658 -0.263475037,25.5371565 0.810823178,27.3797819 C1.87152268,29.2020092 3.76854295,30.2967055 5.88994195,30.2967055 L27.1583269,30.2967055 C29.2865252,30.2967055 31.1971442,29.1884105 32.2714424,27.3321864 Z M29.9596615,25.9995127 C29.3681175,27.019416 28.3210167,27.6245587 27.1515275,27.6245587 L5.8831426,27.6245587 C4.72725211,27.6245587 3.68695068,27.0330147 3.10900544,26.0335094 C2.52426084,25.0204054 2.51746148,23.8101201 3.10220608,22.7902167 L13.763596,4.33676511 C14.3415412,3.3236611 15.3750433,2.72531779 16.5445325,2.72531779 C17.7072223,2.72531779 18.7475238,3.33046045 19.325469,4.34356447 L29.9800595,22.7970161 C30.5512054,23.789722 30.544406,24.9864086 29.9596615,25.9995127 Z" id="Shape"></path>
            <path d="M16.1161731,9.37508775 C15.3070497,9.60626585 14.8038974,10.3405963 14.8038974,11.2313119 C14.8446935,11.768461 14.8786903,12.3124095 14.9194864,12.8495586 C15.0350755,14.8961647 15.1506645,16.9019746 15.2662536,18.9485807 C15.3070497,19.642115 15.8441988,20.1452673 16.5377331,20.1452673 C17.2312674,20.1452673 17.7752159,19.6081182 17.8092127,18.9077846 C17.8092127,18.4862245 17.8092127,18.0986612 17.8500088,17.6703018 C17.9248017,16.3580261 18.006394,15.0457505 18.0811869,13.7334748 C18.121983,12.8835553 18.1967759,12.0336359 18.2375721,11.1837164 C18.2375721,10.8777454 18.1967759,10.6057711 18.0811869,10.3337969 C17.7344197,9.57226907 16.9252964,9.18470579 16.1161731,9.37508775 Z" id="Shape"></path>
        </g>
    </g>
</svg>