<?xml version="1.0" encoding="UTF-8"?>
<svg width="61px" height="61px" viewBox="0 0 61 61" version="1.1" xmlns="http://www.w3.org/2000/svg" xmlns:xlink="http://www.w3.org/1999/xlink">
    <!-- Generator: Sketch 48.1 (47250) - http://www.bohemiancoding.com/sketch -->
    <title>integration</title>
    <desc>Created with Sketch.</desc>
    <defs></defs>
    <g id="landing-page" stroke="none" stroke-width="1" fill="none" fill-rule="evenodd" transform="translate(-436.000000, -2206.000000)">
        <g id="integration" transform="translate(436.666667, 2206.685624)">
            <path d="M27.334,5.48566667 C26.4251667,5.164 25.472,5 24.5,5 L24.5,7 C25.2428333,7 25.972,7.125 26.666,7.37116667 L27.334,5.48566667 Z" id="Fill-1" fill="#000000"></path>
            <path d="M21.666,5.48566667 C18.2766667,6.68816667 16,9.90816667 16,13.5 L18,13.5 C18,10.7533333 19.7421667,8.28966667 22.334,7.37116667 L21.666,5.48566667 Z" id="Fill-2" fill="#000000"></path>
            <g id="Group-12" fill="#3A3A3A">
                <path d="M50,44.586 L50,40.819 C55.666,39.8633333 60,34.9341667 60,29 C60,22.3828333 54.6171667,17 48,17 C46.5741667,17 45.1881667,17.248 43.8658333,17.7383333 C43.2851667,15.0331667 40.8763333,13 38,13 C37.9966667,13 37.9941667,13 37.9908333,13 C37.7278333,5.78716667 31.776,0 24.5,0 C17.056,0 11,6.056 11,13.5 C11,14.052 11.0338333,14.6041667 11.1021667,15.153 C4.79433333,16.0781667 0,21.5221667 0,28 C0,34.1341667 4.276,39.2766667 10,40.6366667 L10,44.586 L3.293,51.293 C3.10483333,51.4798333 3,51.735 3,52 L3,56 L5,56 L5,52.414 L11.707,45.707 C11.8951667,45.5201667 12,45.265 12,45 L12,40.9491667 C12.3306667,40.9753333 12.6621667,41 13,41 L16,41 L16,46.586 L11.293,51.293 C11.1048333,51.4798333 11,51.735 11,52 L11,56 L13,56 L13,52.414 L17.707,47.707 C17.8951667,47.5201667 18,47.265 18,47 L18,41 L23,41 L23,48.586 L20.293,51.293 C20.1048333,51.4798333 20,51.735 20,52 L20,56 L22,56 L22,52.414 L24.707,49.707 C24.8951667,49.5201667 25,49.265 25,49 L25,41 L29,41 L29,56 L31,56 L31,41 L35,41 L35,49 C35,49.265 35.1048333,49.5201667 35.293,49.707 L38,52.414 L38,56 L40,56 L40,52 C40,51.735 39.8951667,51.4798333 39.707,51.293 L37,48.586 L37,41 L42,41 L42,47 C42,47.265 42.1048333,47.5201667 42.293,47.707 L47,52.414 L47,56 L49,56 L49,52 C49,51.735 48.8951667,51.4798333 48.707,51.293 L44,46.586 L44,41 L48,41 L48,45 C48,45.265 48.1048333,45.5201667 48.293,45.707 L55,52.414 L55,56 L57,56 L57,52 C57,51.735 56.8951667,51.4798333 56.707,51.293 L50,44.586 Z M13,39 C6.93483333,39 2,34.0651667 2,28 C2,22.207 6.53316667,17.39 12.3203333,17.0358333 C12.6086667,17.0181667 12.877,16.8763333 13.052,16.6458333 C13.2291667,16.416 13.2961667,16.1198333 13.2383333,15.836 C13.08,15.069 13,14.2831667 13,13.5 C13,7.15883333 18.1588333,2 24.5,2 C30.8411667,2 36,7.15883333 36,13.5 C36,13.612 35.9921667,13.7233333 35.9836667,13.8326667 L35.97,14.0611667 C35.955,14.3698333 36.084,14.6693333 36.321,14.8698333 C36.556,15.0703333 36.8711667,15.151 37.1751667,15.0871667 C39.6901667,14.558 41.9986667,16.5246667 41.9966667,18.983 C41.9928333,19.013 41.9791667,19.1393333 41.9771667,19.1693333 C41.9576667,19.526 42.1321667,19.8671667 42.433,20.0611667 C42.7336667,20.2551667 43.114,20.2741667 43.4341667,20.11 C44.8671667,19.3736667 46.4016667,19 48,19 C53.5143333,19 58,23.4856667 58,29 C58,34.5143333 53.5143333,39 48,39 L13,39 Z" id="Fill-3"></path>
                <polygon id="Fill-5" points="55 59.99 57 59.99 57 58 55 58"></polygon>
                <polygon id="Fill-6" points="47 59.99 49 59.99 49 58 47 58"></polygon>
                <polygon id="Fill-7" points="38 59.99 40 59.99 40 58 38 58"></polygon>
                <polygon id="Fill-8" points="3 59.99 5 59.99 5 58 3 58"></polygon>
                <polygon id="Fill-9" points="11 59.99 13 59.99 13 58 11 58"></polygon>
                <polygon id="Fill-10" points="20 59.99 22 59.99 22 58 20 58"></polygon>
                <polygon id="Fill-11" points="29 59.99 31 59.99 31 58 29 58"></polygon>
            </g>
            <polygon id="Fill-13" fill="#5EDEA8" points="25 24 27 24 27 22 25 22"></polygon>
            <polygon id="Fill-14" fill="#5EDEA8" points="25 28 27 28 27 26 25 26"></polygon>
            <polygon id="Fill-15" fill="#5EDEA8" points="25 32 27 32 27 30 25 30"></polygon>
            <polygon id="Fill-16" fill="#5EDEA8" points="29 24 31 24 31 22 29 22"></polygon>
            <polygon id="Fill-17" fill="#5EDEA8" points="29 28 31 28 31 26 29 26"></polygon>
            <polygon id="Fill-18" fill="#5EDEA8" points="29 32 31 32 31 30 29 30"></polygon>
            <polygon id="Fill-19" fill="#5EDEA8" points="33 24 35 24 35 22 33 22"></polygon>
            <polygon id="Fill-20" fill="#5EDEA8" points="33 28 35 28 35 26 33 26"></polygon>
            <polygon id="Fill-21" fill="#5EDEA8" points="33 32 35 32 35 30 33 30"></polygon>
            <path d="M37,34 L33,34 L33,36 L38,36 C38.5526667,36 39,35.552 39,35 L39,29 L37,29 L37,34 Z" id="Fill-22" fill="#5EDEA8"></path>
            <path d="M28,18 L22,18 C21.4473333,18 21,18.448 21,19 L21,25 L23,25 L23,20 L28,20 L28,18 Z" id="Fill-23" fill="#5EDEA8"></path>
            <polygon id="Fill-24" fill="#5EDEA8" points="27 36 31 36 31 34 27 34"></polygon>
            <polygon id="Fill-25" fill="#5EDEA8" points="30 20 33 20 33 18 30 18"></polygon>
            <path d="M38,18 L35,18 L35,20 L37,20 L37,27 L39,27 L39,19 C39,18.448 38.5526667,18 38,18 Z" id="Fill-26" fill="#5EDEA8"></path>
            <path d="M23,27 L21,27 L21,35 C21,35.552 21.4473333,36 22,36 L25,36 L25,34 L23,34 L23,27 Z" id="Fill-27" fill="#5EDEA8"></path>
        </g>
    </g>
</svg>