<?xml version="1.0" encoding="UTF-8"?>
<svg width="60px" height="61px" viewBox="0 0 60 61" version="1.1" xmlns="http://www.w3.org/2000/svg" xmlns:xlink="http://www.w3.org/1999/xlink">
    <!-- Generator: Sketch 48.1 (47250) - http://www.bohemiancoding.com/sketch -->
    <title>liveSupport</title>
    <desc>Created with Sketch.</desc>
    <defs></defs>
    <g id="landing-page" stroke="none" stroke-width="1" fill="none" fill-rule="evenodd" transform="translate(-1070.000000, -3547.000000)">
        <g id="liveSupport" transform="translate(1070.000000, 3547.685624)" fill="#FFFFFF">
            <g id="Group-3" transform="translate(0.000000, 9.677419)">
                <path d="M48.6927419,42.5806452 L46.4522581,35.8587097 C45.6690323,33.5117742 43.6719355,31.7798387 41.2367742,31.3362903 L34.7693548,30.1593548 L34.7693548,29.6585484 C35.8953226,29.0051613 36.8743548,28.1312903 37.6543548,27.0967742 L39.6080645,27.0967742 C41.2090323,27.0967742 42.5112903,25.7945161 42.5112903,24.1935484 L42.5112903,12.5806452 C42.5112903,5.64387097 36.8674194,0 29.9306452,0 C22.993871,0 17.35,5.64387097 17.35,12.5806452 L17.35,19.3548387 C17.35,21.2203226 18.6769355,22.7816129 20.4359677,23.1458065 C20.9790323,25.9267742 22.7174194,28.2806452 25.0919355,29.6585484 L25.0919355,30.1593548 L18.6240323,31.3362903 C16.1901613,31.7798387 14.1916129,33.5117742 13.4098387,35.8587097 L13.0222581,37.021129 L9.7266129,33.7248387 C9.34919355,33.3474194 9.34919355,32.7330645 9.7266129,32.3556452 L13.5490323,28.533871 L6.37419355,21.3590323 L2.05387097,25.6791935 C0.775,26.9582258 0.07,28.6598387 0.07,30.4693548 C0.07,32.278871 0.775,33.9793548 2.05387097,35.258871 L15.1329032,48.3379032 C16.4125806,49.6169355 18.1137097,50.3225806 19.9230645,50.3225806 C21.7332258,50.3225806 23.4330645,49.6169355 24.6824194,48.3669355 L29.3964516,44.0480645 L27.9266129,42.5806452 L48.6927419,42.5806452 Z M40.5758065,24.1935484 C40.5758065,24.7277419 40.1417742,25.1612903 39.6080645,25.1612903 L38.7940323,25.1612903 C39.0751613,24.5217742 39.2880645,23.8470968 39.4254839,23.1458065 C39.8393548,23.0595161 40.2204839,22.895 40.5758065,22.6877419 L40.5758065,24.1935484 Z M39.6080645,21.0212903 L39.6080645,17.6883871 C40.1840323,18.0241935 40.5758065,18.6416129 40.5758065,19.3548387 C40.5758065,20.0680645 40.1840323,20.6854839 39.6080645,21.0212903 Z M20.2532258,21.0212903 C19.6774194,20.6854839 19.2854839,20.0680645 19.2854839,19.3548387 C19.2854839,18.6416129 19.6774194,18.0241935 20.2532258,17.6883871 L20.2532258,21.0212903 Z M20.2532258,14.516129 L20.2532258,15.6212903 C19.9087097,15.7112903 19.5854839,15.8467742 19.2854839,16.0219355 L19.2854839,12.5806452 C19.2854839,6.71112903 24.0612903,1.93548387 29.9306452,1.93548387 C35.8001613,1.93548387 40.5758065,6.71112903 40.5758065,12.5806452 L40.5758065,16.0219355 C40.2759677,15.8467742 39.9527419,15.71 39.6080645,15.6212903 L39.6080645,14.516129 L38.6403226,14.516129 C35.7787097,14.516129 33.0883871,13.4016129 31.0641935,11.3779032 L29.9306452,10.2445161 L28.7979032,11.3779032 C26.7729032,13.4016129 24.0825806,14.516129 21.2209677,14.516129 L20.2532258,14.516129 Z M22.1887097,21.2903226 L22.1887097,16.415 C25.0951613,16.1958065 27.805,14.9967742 29.9306452,12.9756452 C32.0570968,14.9967742 34.7669355,16.1970968 37.6725806,16.415 L37.6725806,21.2903226 C37.6725806,22.7009677 37.2877419,24.0216129 36.6254839,25.1612903 L29.9306452,25.1612903 L29.9306452,27.0967742 L35.0346774,27.0967742 C33.67,28.2975806 31.8862903,29.0322581 29.9306452,29.0322581 C25.6620968,29.0322581 22.1887097,25.558871 22.1887097,21.2903226 Z M32.833871,30.5216129 L32.833871,30.5670968 L29.9306452,33.4703226 L27.0274194,30.5670968 L27.0274194,30.5216129 C27.9448387,30.8101613 28.9195161,30.9677419 29.9306452,30.9677419 C30.9419355,30.9677419 31.9166129,30.8101613 32.833871,30.5216129 Z M15.2445161,36.4704839 C15.8027419,34.7940323 17.2303226,33.5566129 18.9691935,33.2390323 L25.7340323,32.0098387 L29.9306452,36.2070968 L34.1267742,32.011129 L40.8903226,33.2403226 C42.6298387,33.5572581 44.0567742,34.7940323 44.615,36.471129 L46.0080645,40.6451613 L25.991129,40.6451613 L22.2214516,36.8756452 L18.0337097,40.6646774 C17.668871,41.0314516 17.0306452,41.0314516 16.6651613,40.6646774 L14.5514516,38.5509677 L15.2445161,36.4704839 Z M6.37290323,24.0959677 L10.8108065,28.533871 L9.76,29.5848387 L5.32193548,25.1467742 L6.37290323,24.0959677 Z M23.3424194,46.9714516 C22.428871,47.8830645 21.2133871,48.3870968 19.9212903,48.3870968 C18.6296774,48.3870968 17.4143548,47.8830645 16.4995161,46.9695161 L3.42048387,33.891129 C2.50693548,32.9775806 2.00354839,31.7622581 2.00354839,30.47 C2.00354839,29.1770968 2.50693548,27.9617742 3.42048387,27.0482258 L3.95290323,26.5158065 L8.39080645,30.953871 L8.35629032,30.9891935 C7.22467742,32.1212903 7.22467742,33.9629032 8.35629032,35.0951613 L15.2954839,42.035 C15.8441935,42.5825806 16.5732258,42.8856452 17.3493548,42.8856452 C18.1256452,42.8856452 18.8540323,42.583871 19.3667742,42.0683871 L19.4391935,42.0041935 L23.8980645,46.4622581 L23.3424194,46.9714516 Z M25.3262903,45.1517742 L20.8775806,40.7030645 L22.1559677,39.5475806 L26.5970968,43.9887097 L25.3262903,45.1517742 Z" id="Fill-1"></path>
            </g>
            <path d="M57.0274194,0 L43.4790323,0 C41.8787097,0 40.5758065,1.30225806 40.5758065,2.90322581 L40.5758065,10.6451613 C40.5758065,12.246129 41.8787097,13.5483871 43.4790323,13.5483871 L46.0641935,13.5483871 L45.0637097,19.3851613 L54.4020968,13.5483871 L57.0274194,13.5483871 C58.6283871,13.5483871 59.9306452,12.246129 59.9306452,10.6451613 L59.9306452,2.90322581 C59.9306452,1.30225806 58.6283871,0 57.0274194,0 Z M57.9951613,10.6451613 C57.9951613,11.1782258 57.561129,11.6129032 57.0274194,11.6129032 L53.8464516,11.6129032 L47.7003226,15.4535484 L48.3593548,11.6129032 L43.4790323,11.6129032 C42.946129,11.6129032 42.5112903,11.1782258 42.5112903,10.6451613 L42.5112903,2.90322581 C42.5112903,2.37016129 42.946129,1.93548387 43.4790323,1.93548387 L57.0274194,1.93548387 C57.561129,1.93548387 57.9951613,2.37016129 57.9951613,2.90322581 L57.9951613,10.6451613 Z" id="Fill-4"></path>
            <polygon id="Fill-5" points="44.4467742 5.80645161 56.0596774 5.80645161 56.0596774 3.87096774 44.4467742 3.87096774"></polygon>
            <polygon id="Fill-6" points="44.4467742 9.67741935 52.1887097 9.67741935 52.1887097 7.74193548 44.4467742 7.74193548"></polygon>
            <polygon id="Fill-7" points="54.1241935 9.67741935 56.0596774 9.67741935 56.0596774 7.74193548 54.1241935 7.74193548"></polygon>
            <path d="M29.9306452,2.90322581 C17.2864516,2.90322581 6.39435484,11.6495161 3.56290323,23.8501613 L1.72887097,20.7925806 L0.0693548387,21.7887097 L3.47096774,27.4564516 L9.13870968,24.055 L8.14322581,22.3954839 L5.52048387,23.9691935 C8.26290323,12.8080645 18.2995161,4.83870968 29.9306452,4.83870968 C32.4729032,4.83870968 34.9817742,5.21612903 37.3866129,5.96145161 L37.9593548,4.11290323 C35.3685484,3.30967742 32.6675806,2.90322581 29.9306452,2.90322581 Z" id="Fill-8"></path>
            <path d="M59.4606452,21.4277419 L53.7922581,18.026129 L50.3919355,23.6951613 L52.0514516,24.6912903 L53.745,21.8680645 C54.6364516,24.4764516 55.0919355,27.203871 55.0919355,30 C55.0919355,35.7554839 53.0985484,41.3816129 49.4801613,45.8417742 L50.9829032,47.0614516 C54.8809677,42.2574194 57.0274194,36.1977419 57.0274194,30 C57.0274194,27.0395161 56.5504839,24.148871 55.6206452,21.3809677 L58.4645161,23.0872581 L59.4606452,21.4277419 Z" id="Fill-9"></path>
        </g>
    </g>
</svg>