<?xml version="1.0" encoding="utf-8"?>
<!-- Generator: Adobe Illustrator 24.3.0, SVG Export Plug-In . SVG Version: 6.00 Build 0)  -->
<svg version="1.1" id="Layer_1" xmlns="http://www.w3.org/2000/svg" xmlns:xlink="http://www.w3.org/1999/xlink" x="0px" y="0px"
	 viewBox="0 0 106.6 119.2" style="enable-background:new 0 0 106.6 119.2;" xml:space="preserve">
<style type="text/css">
	.st0{fill:url(#Path_633_1_);}
	.st1{fill:url(#Path_634_1_);}
	.st2{fill:url(#Path_635_1_);}
	.st3{fill:url(#Path_636_1_);}
	.st4{fill:url(#Path_637_1_);}
</style>
<g id="lOZozY.tif" transform="translate(-292.475 -226)">
	<g id="Group_687" transform="translate(292.475 226)">
		
			<linearGradient id="Path_633_1_" gradientUnits="userSpaceOnUse" x1="-444.5337" y1="569.6212" x2="-443.1757" y2="568.4341" gradientTransform="matrix(77.7947 0 0 -97.4014 34569.6562 55475.4258)">
			<stop  offset="0" style="stop-color:#09B8E9"/>
			<stop  offset="1" style="stop-color:#76F880"/>
		</linearGradient>
		<path id="Path_633" class="st0" d="M40.5,61.7l24.1,11.7c0.1-0.1,0.2-0.3,0.3-0.4c3.8-7.1,12.6-9.9,19.7-6.1
			c7.1,3.8,9.9,12.6,6.1,19.7C87,93.8,78.1,96.5,71,92.7c-3.5-1.9-6.1-5.1-7.2-8.9c-0.1-0.2-0.2-0.4-0.5-0.5
			c-9.1-4.4-18.3-8.8-27.4-13.2c-0.4-0.2-0.9-0.4-1.4-0.7v11c1.6,0.5,3,1.4,4.3,2.4c4.7,4,6.6,9.1,5,15c-1.6,6-5.6,9.6-11.8,10.7
			c-7.9,1.4-15.5-3.8-16.9-11.8c-1.2-6.9,2.6-13.7,9.1-16.2c0.4-0.1,0.7-0.5,0.6-0.9c0-13.1,0-26.1,0-39.2c0.1-0.4-0.2-0.8-0.6-0.9
			c-7.5-3-11.2-11.5-8.2-19c3-7.5,11.5-11.2,19-8.2c7.5,3,11.2,11.5,8.2,19c-0.7,1.9-1.9,3.6-3.3,5c-1.4,1.4-3.1,2.5-4.9,3.2
			c-0.3,0.1-0.5,0.2-0.5,0.6c0,4.5,0,9.1,0,13.6c0,0.1,0,0.1,0,0.3c0.6-0.3,1.3-0.6,1.9-0.9l23.7-11.5c0.9-0.4,1.8-0.9,2.7-1.3
			c0.3-0.1,0.5-0.4,0.4-0.7c-0.7-8.1,5.2-15.3,13.3-16c8.1-0.7,15.3,5.2,16,13.3c0.7,7.4-4.3,14.2-11.6,15.7
			c-4.8,1.1-9.8-0.3-13.3-3.7c-0.2-0.2-0.5-0.3-0.8-0.1c-5.4,2.6-10.8,5.2-16.2,7.8c-3.2,1.5-6.4,3.1-9.6,4.6
			C41,61.5,40.8,61.6,40.5,61.7z M30.3,62.7c0.4,0.2,0.8,0.4,1.2,0.6C41.3,68,51.2,72.8,61,77.6c1.9,0.9,3.7,1.8,5.6,2.7
			c0.4,0.1,0.6,0.5,0.6,0.8c0,0.5,0.1,0.9,0.3,1.4c1.5,5.8,7.4,9.2,13.2,7.7c5.8-1.5,9.2-7.4,7.7-13.2c-1.5-5.8-7.4-9.2-13.2-7.7
			c-3.9,1-7,4.2-7.8,8.2c-0.1,0.5-0.2,1.1-0.3,1.7L30.7,61.7l37.6-18.1c3,5.3,9.7,7.2,15,4.3c4.8-2.7,6.8-8.5,4.7-13.5
			c-2.2-5.2-7.9-7.8-13.3-6.2c-2.6,0.8-4.8,2.5-6.2,4.8c-1.7,2.9-2,6.5-0.7,9.6L30.3,60.8V36.8c5.9-0.5,10.4-5.6,9.9-11.6
			c-0.5-5.9-5.6-10.4-11.6-9.9c-5,0.4-9.1,4.1-9.8,9.1c-0.4,2.5,0.1,5.1,1.5,7.3c1.9,3.1,5.2,5,8.8,5.2v46.6c-2,0.1-4,0.8-5.6,1.9
			c-3.4,2.3-5.2,6.4-4.5,10.5c1,5.9,6.6,10,12.5,9c4.8-0.8,8.5-4.7,9.1-9.5c0.3-2.5-0.3-5-1.8-7.1c-1.9-2.8-5-4.6-8.4-4.8L30.3,62.7
			z"/>
		
			<linearGradient id="Path_634_1_" gradientUnits="userSpaceOnUse" x1="-437.5008" y1="558.4945" x2="-432.2618" y2="552.7205" gradientTransform="matrix(20.024 0 0 -20.024 8720.8906 11201.3047)">
			<stop  offset="0" style="stop-color:#09B8E9"/>
			<stop  offset="1" style="stop-color:#76F880"/>
		</linearGradient>
		<path id="Path_634" class="st1" d="M29.6,104.3c-5.5,0-10-4.5-10-10s4.5-10,10-10c5.5,0,10,4.5,10,10c0,0,0,0,0,0
			C39.6,99.8,35.1,104.3,29.6,104.3C29.6,104.3,29.6,104.3,29.6,104.3z M29.6,87.8c-3.6,0-6.5,2.9-6.5,6.4c0,3.6,2.9,6.5,6.4,6.5
			c3.6,0,6.4-2.9,6.5-6.4C36,90.7,33.1,87.8,29.6,87.8z"/>
		
			<linearGradient id="Path_635_1_" gradientUnits="userSpaceOnUse" x1="-435.7952" y1="556.6125" x2="-430.5542" y2="550.8354" gradientTransform="matrix(20.01 0 0 -20.01 8714.5361 11125.085)">
			<stop  offset="0" style="stop-color:#09B8E9"/>
			<stop  offset="1" style="stop-color:#76F880"/>
		</linearGradient>
		<path id="Path_635" class="st2" d="M29.4,36.1c-5.5,0-10-4.5-10-10c0-5.5,4.5-10,10-10c5.5,0,10,4.5,10,10c0,0,0,0,0,0
			C39.5,31.7,35,36.1,29.4,36.1z M29.5,19.6c-3.6,0-6.4,2.9-6.4,6.5c0,3.6,2.9,6.4,6.5,6.4c3.5,0,6.4-2.9,6.4-6.4
			C36,22.6,33.1,19.7,29.5,19.6C29.5,19.6,29.5,19.6,29.5,19.6L29.5,19.6z"/>
		
			<linearGradient id="Path_636_1_" gradientUnits="userSpaceOnUse" x1="-437.1692" y1="558.1236" x2="-431.9262" y2="552.3376" gradientTransform="matrix(19.9752 0 0 -19.9741 8747.6846 11117.084)">
			<stop  offset="0" style="stop-color:#09B8E9"/>
			<stop  offset="1" style="stop-color:#76F880"/>
		</linearGradient>
		<path id="Path_636" class="st3" d="M78.2,48.6c-5.5,0-10-4.5-10-10s4.5-10,10-10c5.4,0,9.9,4.3,10,9.8c0.1,5.5-4.2,10-9.7,10.2
			C78.4,48.6,78.3,48.6,78.2,48.6z M71.7,38.7c0,3.6,2.9,6.4,6.4,6.4s6.4-2.9,6.4-6.4c0-3.5-2.9-6.4-6.4-6.4
			C74.7,32.2,71.8,35,71.7,38.7C71.7,38.6,71.7,38.6,71.7,38.7z"/>
		
			<linearGradient id="Path_637_1_" gradientUnits="userSpaceOnUse" x1="-438.2118" y1="559.2715" x2="-432.9677" y2="553.4945" gradientTransform="matrix(20.0001 0 0 -20 8758.7695 11173.1357)">
			<stop  offset="0" style="stop-color:#09B8E9"/>
			<stop  offset="1" style="stop-color:#76F880"/>
		</linearGradient>
		<path id="Path_637" class="st4" d="M68.2,79.9c0-5.5,4.5-10,10-10s10,4.5,10,10c0,5.5-4.5,10-10,10c0,0-0.1,0-0.1,0
			C72.6,89.8,68.2,85.3,68.2,79.9z M78.2,73.4c-3.6,0-6.4,2.9-6.4,6.4c0,3.6,2.9,6.4,6.4,6.4c3.5,0,6.4-2.8,6.4-6.4
			c0.1-3.5-2.8-6.4-6.3-6.5C78.3,73.4,78.2,73.4,78.2,73.4L78.2,73.4z"/>
	</g>
</g>
</svg>
