<svg version="1.1" xmlns="http://www.w3.org/2000/svg" xmlns:xlink="http://www.w3.org/1999/xlink" x="0px" y="0px" viewBox="0 0 1024.5 1024.5" style="enable-background:new 0 0 1024.5 1024.5;" xml:space="preserve">
<style type="text/css">
	body {
	    text-align: center;
	    margin: 0;
	    padding: 300px 0 0 0;
	    background: #000;
    }
	svg {
      max-width: 180px;
	}
	@keyframes offset_one {
		100% {
			stroke-dashoffset: -4200;
		}
	}
    .feat polyline {
    	stroke-dasharray: 4200;
    	stroke-dashoffset: 4200;
    	animation: offset_one 3s cubic-bezier(.74,.02,.36,.97) infinite;
    }
	@keyframes offset_two {
		90%, 100% {
			stroke-dashoffset: 400;
		}
	}
    .feat circle:nth-of-type(1) {
    	stroke-dasharray: 400;
    	stroke-dashoffset: -400;
    	animation: offset_two 3s cubic-bezier(.74,.02,.36,.97) infinite;
    }
	@keyframes offset_three {
		2.5% {
			stroke-dashoffset: -400;
		}
		92.5%, 100% {
			stroke-dashoffset: 400;
		}
	}
    .feat circle:nth-of-type(2) {
    	stroke-dasharray: 400;
    	stroke-dashoffset: -400;
    	animation: offset_three 3s cubic-bezier(.74,.02,.36,.97) infinite;
    }
	@keyframes offset_four {
		5% {
			stroke-dashoffset: -400;
		}
		95%, 100% {
			stroke-dashoffset: 400;
		}
	}
    .feat circle:nth-of-type(3) {
    	stroke-dasharray: 400;
    	stroke-dashoffset: -400;
    	animation: offset_four 3s cubic-bezier(.74,.02,.36,.97) infinite;
    }
	@keyframes offset_five {
		7.5% {
			stroke-dashoffset: -400;
		}
		97.5%, 100% {stroke-dashoffset: 400;}
	}
    .feat circle:nth-of-type(4) {

    	stroke-dasharray: 400;
    	stroke-dashoffset: -400;
    	animation: offset_five 3s cubic-bezier(.74,.02,.36,.97) infinite;
    }
	.st0{fill:url(#SVGID_1_);}
	.st1{fill:url(#SVGID_2_);}
	.st2{fill:url(#SVGID_3_);}
	.st3{fill:url(#SVGID_4_);}
	.st4{fill:url(#SVGID_5_);}
	.st5{fill:none;stroke:url(#SVGID_1_);stroke-width:33;stroke-linecap:round;stroke-linejoin:round;stroke-miterlimit:10;}
	.st6{fill:none;stroke:url(#SVGID_1_);stroke-width:30;stroke-linecap:round;stroke-linejoin:round;stroke-miterlimit:10;}
	.st7{clip-path:url(#SVGID_7_);}
</style>
<g>
	<linearGradient id="SVGID_1_" gradientUnits="userSpaceOnUse" x1="-9.8895" y1="1012.3905" x2="798.1005" y2="121.8605" gradientTransform="matrix(1 0 0 -1 0.48 1024)">
		<stop  offset="0" style="stop-color:#00B6EA"/>
		<stop  offset="1" style="stop-color:#70F97A"/>
	</linearGradient>
    <g>
        <defs>
            <path id="SVGID_6_" d="M398.5,537l184.2,89.8c0.7-1.1,1.3-2.1,1.9-3.2c21.6-41.3,66.4-65,112.7-59.5c47.6,5.5,87,40.8,97.3,89.2
		    c12.7,59.9-27.5,120.4-87.2,132.7c-57.4,11.8-114.9-22.3-131.4-78.9c-0.6-1.8-1.9-3.3-3.5-4.2C502.8,669,433,635,363.1,601.1
		    c-3.4-1.6-6.8-3.3-10.5-5.2v84.8c11.9,4.5,23.3,10.2,33,18.6c36,30.9,50.1,69.9,38.1,115.8s-43.1,74.3-90,82.6
		    c-63.4,11.2-122.1-33.1-130.3-96.9c-6.5-50.5,22.6-99.5,70.4-118.3c3.6-1.4,4.7-3.1,4.7-7c-0.1-100.7-0.1-201.4,0-302.1
		    c0-3.9-1.1-5.5-4.7-7c-47.3-18.3-76.8-66.7-71.2-116.2c5.8-51.3,44.2-92.1,94.5-99.7c27.2-4.1,52.9,0.8,76.4,15.3
		    c52.9,32.5,69.5,101.7,37,154.7c-4.8,7.8-10.5,14.9-17,21.3c-10.7,10.7-23.6,19-37.7,24.5c-2.1,0.8-3.5,1.5-3.5,4.3
		    c0.1,35,0.1,70,0.1,105.1c0,0.5,0.1,1.1,0.2,2.1c4.9-2.3,9.6-4.5,14.2-6.8l181.3-88.3c7-3.4,13.9-6.9,21-10.1c2.4-1.1,3.2-2.3,3-5
		    c-4.1-57.6,33.3-107.3,89.7-119.4c62.8-13.5,126.3,31.7,133.8,95.2c7.1,59.6-29.2,112.1-87.8,124.9c-38.5,8.4-72.7-1.9-101.6-28.8
		    c-2.1-2-3.5-2-5.8-0.9c-41.3,20.1-82.6,40.2-123.9,60.3l-73,35.5C402.2,535.1,400.7,535.9,398.5,537z M320.1,544
		    c3.3,1.6,6.3,3,9.3,4.4c75.1,36.8,150.2,73.6,225.4,110.4c14.2,6.9,28.2,14.1,42.4,20.9c3,1.4,4.5,3,4.7,6.5
		    c0.3,3.7,1,7.3,2.1,10.8c11.2,43.4,54.5,69.5,99.2,59.8c42.2-9.1,70.6-52,62.9-95.1c-6.9-39.2-40.1-68-79.3-69
		    c-40.1-1.2-75.4,26.4-83.7,65.7c-0.9,4.2-1.4,8.5-2.2,13.1L323.8,536.9l286.9-139.1c25.3,44.1,77,54.3,114.4,33.1
		    c36.6-20.8,52.3-66,36-104.3c-17-39.9-60.1-60.2-101.3-47.5c-19.9,5.9-36.7,19.2-47,37.2c-13.7,23.4-14.8,48-5.6,73.8L320.3,530
		    V344.7c47-4.1,78.1-42.9,77.4-84.4c-0.7-42.6-34.5-79.3-78.8-81.6c-42.5-2.3-79.8,28-86.4,70c-3.1,20,0.4,38.9,11.1,56.1
		    c15.4,24.7,38.1,37.7,67.1,40.1v359c-15.7,1.2-30.2,5.8-43.1,15c-12.9,8.9-22.9,21.3-29,35.7c-6,14.2-8,29.9-5.7,45.2
		    c5.6,39.9,41.3,70.3,82.5,70.3c42.4-0.1,77.9-32.1,82.4-74.2c2.1-19.8-2.2-38.3-13.4-54.8c-15.3-22.5-36.8-34.7-64.3-37.2
		    L320.1,544zM316.1,864.7c-42.6,0.5-77.5-33.6-78.1-76.2c-0.5-42.6,33.6-77.5,76.2-78.1c0.6,0,1.2,0,1.8,0
		    c42.2,0,77.2,34.9,77.2,77.1C393,830.1,358.6,864.6,316.1,864.7z M316,738c-27.5-0.1-49.8,22.1-49.8,49.6
		    c-0.1,27.5,22.1,49.8,49.6,49.8c27.4,0.1,49.7-22,49.8-49.4C365.9,760.7,343.5,738.1,316,738zM315,339.4c-42.6-0.2-76.9-34.8-76.8-77.4s34.8-76.9,77.4-76.8c42.6,0.2,76.9,34.8,76.8,77.4
		    c0,0.1,0,0.1,0,0.2C392.1,305.3,357.5,339.5,315,339.4z M315.3,212.8c-27.4,0.1-49.6,22.4-49.5,49.8s22.4,49.6,49.8,49.5
		    c27.3-0.1,49.5-22.3,49.5-49.6c0.1-27.3-21.9-49.6-49.2-49.7C315.6,212.8,315.4,212.8,315.3,212.8zM685.2,436c-38.5,1.4-76.1-30.8-77.2-74.9s34.2-78,75-79c42.6-1,78,32.7,79.1,75.3
		    C762.9,404,723.8,437.4,685.2,436z M635.5,359.2c0,27.4,22.2,49.6,49.6,49.5c27.4,0,49.6-22.2,49.5-49.6
		    c0-27.3-22.1-49.5-49.4-49.5c-27.2-0.2-49.5,21.6-49.7,48.8C635.5,358.7,635.5,359,635.5,359.2zM608,676.6c0.1-42.5,34.7-77.3,77.1-77c42.5,0,77,34.5,77,77c0,0.1,0,0.3,0,0.4c-0.3,43-34.7,76.9-78.1,76.8
		    C642.2,753.6,607.9,718.7,608,676.6z M685,627.2c-27,0-49,21.8-49.7,48c-0.7,26.5,20.7,51,49.3,51.1c27.5,0.1,49.9-22,50-49
		    C734.7,649.2,713,627.3,685,627.2L685,627.2z"/>
        </defs>
        <clipPath id="SVGID_7_">
            <use xlink:href="#SVGID_6_"  style="overflow:visible;"/>
        </clipPath>
    </g>
    <g class="st7 feat">
        <polyline class="st5" points="345,537.1 362.8,534.1 365.9,533.3 368.8,532.1 374.8,530.1 422.5,507.3 451.9,492.6 486.6,475.9 
	    522.6,458.5 547.6,446.1 567.4,436.5 583.5,428.8 597,422.9 607,413.3 607,414.1 622.5,435.7 655.8,452.3 675.3,455.8 701.5,454.3 
	    720.2,448.8 738.2,440 753.8,426.3 767.7,410 774.8,395.3 779.7,378.3 782,362.8 781,346.5 778.7,332.7 770.5,312 758.2,294.3 
	    743,278 723.3,267.2 701.2,261.3 675,261.5 655,264.2 637,272.7 618.5,285.7 607.3,298.5 598.7,311.7 590,333.4 588.1,342.9 
	    586.7,354.7 587.5,370 593.2,384.2 591.5,381.2 590.3,380.6 569.2,390.8 538.3,405.5 505.4,421.5 472.5,437.9 439.3,453.8 
	    411.4,467.8 372.9,486.3 355.4,494.7 346.5,499.3 328.4,515.7 328.8,515.1 329.4,513.9 334,504.3 335.6,493.3 336.8,463.1 
	    336.8,429.2 336.8,398.6 336.8,375.4 337.1,372 331.7,354.8 333.3,355.8 337,356.1 343.4,353.7 359.8,348.8 373.4,341.4 
	    382.7,331.7 390.5,321.8 401.9,304.6 409.9,283.7 413,264.7 411.5,247.1 407.5,231.8 401.8,218.1 396.7,206.3 386.9,195.8 
	    379.7,188.1 369.7,179.9 358.4,173.4 345,167.7 333.6,164.9 322.4,164.3 308.8,164.1 298.6,165.7 287.9,168.4 276.8,172 
	    269.7,175.3 256.8,181.9 247.2,189.8 239.1,198.4 230.5,210.8 226.3,221.4 223.3,229.5 219.9,237.8 217.1,250.7 216.6,263.4 
	    217.7,275.5 220.2,287.9 224,297.5 229.5,308.6 236.9,320.7 244.8,329.8 252.9,337.2 264.3,345.2 272.6,350.5 278.3,353.4 
	    286.9,356.4 301.3,356.3 298.8,358.4 294.5,360.3 294.5,688.7 294.5,694.2 300.5,693.9 280,694.3 262.2,704.5 249.8,713 
	    242.9,720.7 235.9,729.7 228.6,742.3 222.2,758.3 219,771.9 218,782.2 218.1,796.6 220.7,811.1 225.2,825.4 232.5,838.4 
	    242.3,851.8 254.2,863 267.6,872.9 283.1,879.9 300.8,884.5 322.8,883.7 340.8,882.7 354.1,878.4 365.7,871.2 381.4,859.5 
	    392,847.7 401.4,834.3 408.6,816.6 412.8,797.9 413.3,780.2 410.7,764.2 404.8,744.6 396.4,730.8 386.8,718.8 377.9,710.3 
	    361.6,701.3 345.6,695.6 334.8,694.3 331.6,694.3 335.6,683 336.3,680.1 336.3,602.6 335.3,561.2 328.8,557.8 363.7,583.6 
	    392.8,597.7 423.9,612.7 474.5,637.7 519.5,659.5 546.2,672.4 574.5,686.4 581,689.2 589.4,691.1 591.4,707.9 595.8,716.9 
	    601.6,729.6 608.9,739.6 619.4,749.5 631.6,760 646.5,767.9 656.3,770.2 671,773.9 679.3,775.2 684.1,774.7 697.5,773.7 
	    712.6,770.8 720.7,768.3 740,756.9 753.5,745.4 762.7,735.6 771.5,719.8 778,704.2 781.6,689.1 782.6,670.8 781,656.5 775.3,639.1 
	    767.6,623.9 761.9,614.4 752.8,605.7 738.9,596.4 725.9,588.6 716.1,582.7 709.2,581.1 694.7,578.7 683.6,577.4 675.5,579 
	    662.6,580.8 651.1,583.3 638.6,588.7 627,596.2 613.8,607.6 606.1,616.2 598.7,631.4 593.7,646.3 592.2,651.4 593,655.2 
	    592.5,658.1 583.7,644.3 569.1,638.4 556.4,632.1 520.3,614.4 493,601.2 469.6,589.6 430.2,570.6 407.8,559.4 364.4,539.1 "/>
	    <circle class="st6" cx="315" cy="262" r="63"/>
        <circle class="st6" cx="685" cy="359" r="63"/>
        <circle class="st6" cx="315.5" cy="788" r="63"/>
        <circle class="st6" cx="685" cy="677" r="63"/>
    </g>
</g>
</svg>