<svg id="Calque_1" data-name="Calque 1" xmlns="http://www.w3.org/2000/svg" xmlns:xlink="http://www.w3.org/1999/xlink" viewBox="0 0 1447.28 461.57"><defs><style>.cls-1{fill:url(#linear-gradient);}.cls-2{fill:url(#linear-gradient-2);}.cls-3{fill:url(#linear-gradient-3);}.cls-4{fill:url(#linear-gradient-4);}.cls-5{fill:url(#linear-gradient-5);}.cls-6{fill:url(#linear-gradient-6);}.cls-7{fill:url(#linear-gradient-7);}.cls-8{fill:url(#linear-gradient-8);}.cls-9{fill:url(#linear-gradient-9);}.cls-10{fill:url(#linear-gradient-10);}.cls-11{fill:url(#linear-gradient-11);}</style><linearGradient id="linear-gradient" x1="-11.01" y1="14.67" x2="465.73" y2="540.1" gradientUnits="userSpaceOnUse"><stop offset="0.22" stop-color="#9200d4"/><stop offset="0.58" stop-color="#7c28d4"/><stop offset="0.58" stop-color="#7e2bd6"/><stop offset="0.63" stop-color="#8d43e5"/><stop offset="0.68" stop-color="#9855f1"/><stop offset="0.74" stop-color="#a061f9"/><stop offset="0.82" stop-color="#a569fe"/><stop offset="1" stop-color="#a66bff"/></linearGradient><linearGradient id="linear-gradient-2" x1="-133.61" y1="125.9" x2="343.13" y2="651.34" xlink:href="#linear-gradient"/><linearGradient id="linear-gradient-3" x1="20.45" y1="-13.88" x2="497.19" y2="511.55" xlink:href="#linear-gradient"/><linearGradient id="linear-gradient-4" x1="111.64" y1="-96.62" x2="588.38" y2="428.82" xlink:href="#linear-gradient"/><linearGradient id="linear-gradient-5" x1="18.46" y1="-12.07" x2="495.2" y2="513.36" xlink:href="#linear-gradient"/><linearGradient id="linear-gradient-6" x1="465.47" y1="99.52" x2="1150.46" y2="812.23" gradientUnits="userSpaceOnUse"><stop offset="0" stop-color="#f22aff"/><stop offset="0.15" stop-color="#e439ff"/><stop offset="0.49" stop-color="#c858ff"/><stop offset="0.79" stop-color="#b76aff"/><stop offset="1" stop-color="#b171ff"/></linearGradient><linearGradient id="linear-gradient-7" x1="552.05" y1="16.31" x2="1237.04" y2="729.01" xlink:href="#linear-gradient-6"/><linearGradient id="linear-gradient-8" x1="622.07" y1="-50.98" x2="1307.06" y2="661.72" xlink:href="#linear-gradient-6"/><linearGradient id="linear-gradient-9" x1="683.24" y1="-109.78" x2="1368.23" y2="602.92" xlink:href="#linear-gradient-6"/><linearGradient id="linear-gradient-10" x1="719.3" y1="-144.44" x2="1404.29" y2="568.26" xlink:href="#linear-gradient-6"/><linearGradient id="linear-gradient-11" x1="851.74" y1="-271.73" x2="1536.73" y2="440.97" xlink:href="#linear-gradient-6"/></defs><g id="lOZozY.tif"><path class="cls-1" d="M229.68,324.67l108.7,53c.4-.65.8-1.24,1.14-1.87A66.43,66.43,0,0,1,463.4,393.35c7.49,35.36-16.21,71-51.43,78.27a66.76,66.76,0,0,1-77.51-46.56,4.44,4.44,0,0,0-2.09-2.46q-61.75-30.12-123.58-60.11c-2-1-4-2-6.18-3v50a63.61,63.61,0,0,1,19.46,10.95c21.25,18.22,29.54,41.26,22.51,68.32s-25.44,43.81-53.12,48.71c-37.36,6.63-72-19.55-76.85-57.18a66.29,66.29,0,0,1,41.53-69.8c2.13-.84,2.8-1.83,2.8-4.12q-.1-89.11,0-178.24c0-2.28-.64-3.27-2.79-4.1-27.91-10.81-45.34-39.33-42-68.58,3.42-30.28,26.1-54.32,55.76-58.8,16.05-2.43,31.22.44,45.07,9.05a66.34,66.34,0,0,1,11.81,103.83A64.5,64.5,0,0,1,204.49,224c-1.24.48-2,.89-2,2.55.08,20.66.05,41.33.06,62,0,.32.07.64.14,1.23,2.89-1.38,5.65-2.67,8.39-4l107-52.09c4.11-2,8.21-4.05,12.37-5.94a2.55,2.55,0,0,0,1.78-3c-2.44-34,19.61-63.29,52.94-70.44,37-7.95,74.49,18.67,79,56.14,4.19,35.16-17.24,66.14-51.82,73.69-22.72,4.95-42.87-1.14-59.93-17a2.53,2.53,0,0,0-3.41-.52q-36.56,17.84-73.12,35.59L232.71,323.1C231.82,323.53,231,324,229.68,324.67Zm-46.25,4.16c2,.92,3.75,1.72,5.52,2.59q66.48,32.57,133,65.15c8.35,4.1,16.64,8.31,25,12.35,1.76.85,2.68,1.78,2.76,3.86a31.06,31.06,0,0,0,1.22,6.36c6.63,25.61,32.18,41,58.56,35.29,24.89-5.38,41.64-30.68,37.13-56.11a49,49,0,0,0-96.2-2c-.54,2.47-.83,5-1.27,7.75L185.61,324.6l169.28-82.07c14.92,26,45.45,32,67.5,19.54,21.61-12.25,30.84-39,21.21-61.54C433.55,177,408.14,165,383.84,172.48a47.45,47.45,0,0,0-27.74,21.94c-8.1,13.79-8.76,28.33-3.31,43.57L183.53,320.51V211.19a49.07,49.07,0,1,0-51.78-56.64,47.21,47.21,0,0,0,6.55,33.09c9.07,14.58,22.46,22.26,39.58,23.65V423.1a49.59,49.59,0,0,0-25.41,8.83A48.52,48.52,0,0,0,135.39,453,49.55,49.55,0,0,0,132,479.65c3.28,23.55,24.35,41.46,48.64,41.5a49,49,0,0,0,48.6-43.78,47.18,47.18,0,0,0-7.9-32.32c-9-13.29-21.74-20.48-37.94-21.95Z" transform="translate(-113.72 -95.8)"/><path class="cls-2" d="M181.05,518a45.51,45.51,0,1,1,45.44-45.5A45.4,45.4,0,0,1,181.05,518ZM181,443.26a29.33,29.33,0,1,0,29.26,29.49A29.42,29.42,0,0,0,181,443.26Z" transform="translate(-113.72 -95.8)"/><path class="cls-3" d="M180.4,208.06a45.48,45.48,0,1,1,45.65-45.17A45.48,45.48,0,0,1,180.4,208.06Zm.15-74.7A29.3,29.3,0,1,0,210,162.69,29.19,29.19,0,0,0,180.55,133.36Z" transform="translate(-113.72 -95.8)"/><path class="cls-4" d="M398.81,265.06c-22.76.82-44.93-18.19-45.53-44.18a45.46,45.46,0,1,1,90.9-2.14C444.68,246.21,421.61,265.87,398.81,265.06ZM369.5,219.77a29.25,29.25,0,1,0,29.34-29.27A29.08,29.08,0,0,0,369.5,219.77Z" transform="translate(-113.72 -95.8)"/><path class="cls-5" d="M353.27,407c.06-25.1,20.44-45.65,45.47-45.45a45.42,45.42,0,0,1,45.44,45.68c-.16,25.38-20.44,45.36-46.07,45.28C373.46,452.44,353.21,431.89,353.27,407Zm45.45-29.13a29.39,29.39,0,0,0-29.3,28.33c-.43,15.66,12.23,30.09,29.07,30.17a29.25,29.25,0,1,0,.23-58.5Z" transform="translate(-113.72 -95.8)"/></g><path class="cls-6" d="M794.18,458.61q0,6.31-5.17,11.44a16.36,16.36,0,0,1-11.88,5.18q-5.85,0-12.12-5.4L597.13,323.06V456.82q0,8.54-4.93,13.69c-3.31,3.44-7.78,5.15-13.48,5.15s-10.17-1.71-13.46-5.15-4.93-8-4.93-13.69V173.59q0-8.51,4.93-13.67t13.46-5.17c5.7,0,10.17,1.73,13.48,5.17s4.93,8,4.93,13.67V302.42L757.36,160.14A16,16,0,0,1,769,155.21a15.55,15.55,0,0,1,11.66,5.15,16.13,16.13,0,0,1,4.95,11.44c0,4.49-1.95,8.7-5.85,12.58l-145,127.46L787.89,445.59C792.07,449.5,794.18,453.84,794.18,458.61Z" transform="translate(-113.72 -95.8)"/><path class="cls-7" d="M822,196.93c-4.5-4.18-6.73-9.71-6.73-16.59A21.12,21.12,0,0,1,822,164.17q6.74-6.28,17.51-6.27c7.16,0,13,2.08,17.49,6.27a21.17,21.17,0,0,1,6.75,16.17q0,10.32-6.75,16.59c-4.47,4.21-10.33,6.29-17.49,6.29S826.45,201.14,822,196.93Zm4.27,274c-3.46-3.13-5.17-7.54-5.17-13.24V268.31c0-5.69,1.71-10.1,5.17-13.25s7.85-4.72,13.24-4.72,9.71,1.58,13,4.72,4.93,7.56,4.93,13.25v189.4q0,9-4.93,13.48t-13,4.47C834.08,475.66,829.65,474.11,826.23,471Z" transform="translate(-113.72 -95.8)"/><path class="cls-8" d="M966.09,200.75Q954,214,954,240.48v14.36h49.82c5.08,0,9,1.36,11.68,4s4,6.27,4,10.76-1.36,7.94-4,10.32-6.6,3.6-11.68,3.6H954V457.71q0,8.55-5.17,13.24A18.13,18.13,0,0,1,936,475.66c-5.4,0-9.82-1.55-13.26-4.71s-5.15-7.54-5.15-13.24V283.57H887.55c-5.11,0-9-1.27-11.9-3.82a12.86,12.86,0,0,1-4.26-10.1c0-4.49,1.41-8.09,4.26-10.76s6.79-4,11.9-4h30.07v-8.07q0-40.4,20.2-63.51t57.88-25.82l11.68-.9q11.67-.89,16.84,2.26c3.44,2.08,5.15,5.83,5.15,11.22q0,13-15.7,14.79l-11.68.9Q978.2,187.52,966.09,200.75Z" transform="translate(-113.72 -95.8)"/><path class="cls-9" d="M1083.78,200.75q-12.13,13.25-12.12,39.73v14.36h49.81c5.09,0,9,1.36,11.68,4s4,6.27,4,10.76-1.36,7.94-4,10.32-6.59,3.6-11.68,3.6h-49.81V457.71q0,8.55-5.17,13.24a18.18,18.18,0,0,1-12.78,4.71c-5.39,0-9.82-1.55-13.26-4.71s-5.15-7.54-5.15-13.24V283.57h-30.07c-5.11,0-9.05-1.27-11.9-3.82a12.86,12.86,0,0,1-4.25-10.1c0-4.49,1.4-8.09,4.25-10.76s6.79-4,11.9-4h30.07v-8.07q0-40.4,20.21-63.51t57.88-25.82l11.68-.9q11.67-.89,16.83,2.26c3.44,2.08,5.15,5.83,5.15,11.22q0,13-15.69,14.79l-11.68.9Q1095.88,187.52,1083.78,200.75Z" transform="translate(-113.72 -95.8)"/><path class="cls-10" d="M1328.4,255.3q4.93,4.92,4.93,13v190.3q0,48.92-25.14,73.84t-74.49,24.92q-48,0-79.91-18.85-16.14-9-16.15-20.65a15.54,15.54,0,0,1,3.38-10.34,10.87,10.87,0,0,1,8.74-4q4.47,0,16.15,6.29a209.54,209.54,0,0,0,31,13q15.25,4.92,36.36,4.93,31.89,0,48-16.84t16.15-49.13V423.15a68.43,68.43,0,0,1-29,32.33q-19.53,11.2-46,11.22-28.73,0-51-13.48T1137,415.09q-12.33-24.69-12.34-57t12.34-57q12.36-24.69,34.56-38.16t51-13.48q26,0,45.32,11.23A71.75,71.75,0,0,1,1297,292.55V268.31c0-5.39,1.58-9.73,4.71-13s7.57-5,13.26-5S1325.11,252,1328.4,255.3ZM1279,415.74q18-20.87,18-57.66,0-36.36-17.73-57.24T1229.65,280q-31.86,0-50,20.87t-18.19,57.24q0,36.8,18.19,57.66t50,20.89Q1261.07,436.63,1279,415.74Z" transform="translate(-113.72 -95.8)"/><path class="cls-11" d="M1402.35,457.72Q1378.77,443.81,1366,418t-12.8-59.92q0-34.12,12.8-59.92t36.36-39.73q23.54-13.91,54.53-13.92t54.76,13.92q23.77,13.94,36.58,39.73T1561,358.09q0,34.13-12.78,59.92t-36.58,39.71q-23.79,13.95-54.76,13.92T1402.35,457.72Zm104.12-37.47q17.27-21.3,17.27-62.16,0-39.93-17.49-61.71t-49.37-21.77q-31.89,0-49.38,21.77T1390,358.09q0,40.41,17.29,61.94t49.6,21.54Q1489.19,441.57,1506.47,420.25Z" transform="translate(-113.72 -95.8)"/></svg>