<?xml version="1.0" encoding="UTF-8"?>
<svg width="29px" height="40px" viewBox="0 0 29 40" version="1.1" xmlns="http://www.w3.org/2000/svg" xmlns:xlink="http://www.w3.org/1999/xlink">
    <!-- Generator: Sketch 48.1 (47250) - http://www.bohemiancoding.com/sketch -->
    <title>mapPin1</title>
    <desc>Created with Sketch.</desc>
    <defs></defs>
    <g id="Sprint-1" stroke="none" stroke-width="1" fill="none" fill-rule="evenodd">
        <path d="M14.3060776,0 C6.43454065,0 0.0306071172,6.40393353 0.0306071172,14.2753935 C0.0306071172,24.0441213 12.8057547,38.3851847 13.3496679,38.9909185 C13.8605537,39.5599295 14.7525252,39.5589286 15.2624872,38.9909185 C15.8064004,38.3851847 28.581548,24.0441213 28.581548,14.2753935 C28.5813941,6.40393353 22.1775375,0 14.3060776,0 Z M14.3060776,21.4577427 C10.3457118,21.4577427 7.12380536,18.2357593 7.12380536,14.2753935 C7.12380536,10.3150277 10.3457887,7.09312125 14.3060776,7.09312125 C18.2663664,7.09312125 21.4882728,10.3151046 21.4882728,14.2754705 C21.4882728,18.2358363 18.2663664,21.4577427 14.3060776,21.4577427 Z" id="mapPin1" fill="#208E5F" fill-rule="nonzero"></path>
    </g>
</svg>