<?xml version="1.0" encoding="utf-8"?>
<!-- Generator: Adobe Illustrator 24.1.0, SVG Export Plug-In . SVG Version: 6.00 Build 0)  -->
<svg version="1.1" id="Calque_1" xmlns="http://www.w3.org/2000/svg" xmlns:xlink="http://www.w3.org/1999/xlink" x="0px" y="0px"
	 viewBox="0 0 100 100" style="enable-background:new 0 0 100 100;" xml:space="preserve">
<style type="text/css">
	.st0{fill:#FFFFFF;}
	.st1{fill-rule:evenodd;clip-rule:evenodd;fill:#FFFFFF;}
	.st2{fill:none;stroke:#FFFFFF;stroke-width:5.9871;stroke-linecap:round;stroke-linejoin:round;}
	.st3{fill:none;stroke:#FFFFFF;stroke-width:5.9706;stroke-linecap:round;stroke-linejoin:round;}
	.st4{fill-opacity:0;}
	.st5{fill-rule:evenodd;clip-rule:evenodd;}
	.st6{fill:none;stroke:#000000;stroke-width:5.9871;stroke-linecap:round;stroke-linejoin:round;}
	.st7{fill:none;stroke:#000000;stroke-width:5.9706;stroke-linecap:round;stroke-linejoin:round;}
	.st8{fill:#020202;}
	.st9{fill:none;stroke:#000000;stroke-width:10.3465;stroke-miterlimit:10;}
	.st10{fill:none;stroke:#000000;stroke-width:7.6187;stroke-linecap:round;stroke-linejoin:round;}
	.st11{fill:none;stroke:#000000;stroke-width:7.6187;stroke-miterlimit:10;}
	.st12{fill:none;stroke:#000000;stroke-width:7.6187;stroke-linecap:round;stroke-miterlimit:10;}
	.st13{fill:none;stroke:#000000;stroke-width:9.755;stroke-miterlimit:10;}
	.st14{fill:none;stroke:#000000;stroke-width:9.755;stroke-linecap:round;stroke-linejoin:round;}
	.st15{fill:#FF7600;}
	.st16{fill-rule:evenodd;clip-rule:evenodd;fill:#61ACF7;}
	.st17{fill-rule:evenodd;clip-rule:evenodd;fill:#F52C2C;}
	.st18{fill-rule:evenodd;clip-rule:evenodd;fill:#0DFFBE;}
	.st19{fill:#61ACF7;}
	.st20{fill:#D1D1D1;}
	.st21{fill:#0DFFBE;}
	.st22{fill-rule:evenodd;clip-rule:evenodd;fill:#F761DA;}
	.st23{fill-rule:evenodd;clip-rule:evenodd;fill:#909090;}
	.st24{fill:#9D9D9D;}
	.st25{fill-rule:evenodd;clip-rule:evenodd;fill:#FF7600;}
</style>
<path id="chatbox-ellipses" class="st0" d="M77.25,13.39H23.51c-7.04,0-12.75,5.71-12.75,12.75l0,0V60.1
	c0,7.04,5.71,12.75,12.75,12.75h4.24v11.32c0,1.56,1.26,2.83,2.82,2.83c0.67,0,1.31-0.23,1.82-0.66l16.19-13.49h28.66
	C84.29,72.85,90,67.14,90,60.1l0,0V26.14C90,19.1,84.29,13.39,77.25,13.39L77.25,13.39z M33.4,48.77c-3.13,0-5.66-2.53-5.66-5.66
	c0-3.13,2.53-5.66,5.66-5.66c3.13,0,5.66,2.53,5.66,5.66C39.06,46.23,36.53,48.77,33.4,48.77L33.4,48.77z M50.38,48.77
	c-3.13,0-5.66-2.53-5.66-5.66c0-3.13,2.53-5.66,5.66-5.66c3.13,0,5.66,2.53,5.66,5.66C56.04,46.23,53.51,48.77,50.38,48.77
	L50.38,48.77z M67.36,48.77c-3.13,0-5.66-2.53-5.66-5.66c0-3.13,2.53-5.66,5.66-5.66c3.13,0,5.66,2.53,5.66,5.66
	C73.02,46.23,70.49,48.77,67.36,48.77L67.36,48.77z"/>
</svg>
