<?xml version="1.0" encoding="UTF-8"?>
<svg width="890px" height="836px" viewBox="0 0 890 836" version="1.1" xmlns="http://www.w3.org/2000/svg" xmlns:xlink="http://www.w3.org/1999/xlink">
    <!-- Generator: Sketch 61.2 (89653) - https://sketch.com -->
    <title>KiffgoIcons2@3x</title>
    <desc>Created with Sketch.</desc>
    <defs>
        <linearGradient x1="75.5985025%" y1="0%" x2="21.7131553%" y2="111.536454%" id="linearGradient-1">
            <stop stop-color="#09B8E9" offset="0%"></stop>
            <stop stop-color="#76F880" offset="100%"></stop>
        </linearGradient>
        <path d="M89.6551724,0 C139.170357,0 179.310345,40.1733684 179.310345,89.7297297 C179.310345,136.257799 143.926218,174.514591 98.6204525,179.01644 L98.62,322.9 L347.163973,213.002381 C343.162786,203.073049 340.885045,192.262948 340.701666,180.943305 L340.689655,179.459459 C340.689655,129.903098 380.829643,89.7297297 430.344828,89.7297297 C479.860012,89.7297297 520,129.903098 520,179.459459 C520,229.015821 479.860012,269.189189 430.344828,269.189189 C404.12139,269.189189 380.52751,257.921349 364.1331,239.959378 L124.843,345.764 L343.219892,445.339698 C352.645478,406.503692 387.319582,377.550997 428.862215,376.876886 L430.344828,376.864865 C479.860012,376.864865 520,417.038233 520,466.594595 C520,516.150956 479.860012,556.324324 430.344828,556.324324 C385.048116,556.324324 347.597198,522.704549 341.544673,479.037183 L98.62,368.266 L98.6204525,484.98356 C143.443673,489.437461 178.555477,526.931095 179.298334,572.786425 L179.310345,574.27027 C179.310345,623.826632 139.170357,664 89.6551724,664 C40.1399879,664 0,623.826632 0,574.27027 C0,530.85996 30.8009564,494.64958 71.7236365,486.335562 L71.7236365,177.664438 C30.8009564,169.35042 0,133.14004 0,89.7297297 C0,40.1733684 40.1399879,0 89.6551724,0 Z M89.6551724,515.481827 C57.2141895,515.481827 30.9155767,541.802309 30.9155767,574.27027 C30.9155767,606.738231 57.2141895,633.058714 89.6551724,633.058714 C122.096155,633.058714 148.394768,606.738231 148.394768,574.27027 C148.394768,541.802309 122.096155,515.481827 89.6551724,515.481827 Z M430.344828,407.806151 C397.903845,407.806151 371.605232,434.126634 371.605232,466.594595 C371.605232,499.062555 397.903845,525.383038 430.344828,525.383038 C462.785811,525.383038 489.084423,499.062555 489.084423,466.594595 C489.084423,434.126634 462.785811,407.806151 430.344828,407.806151 Z M430.344828,120.671016 C397.903845,120.671016 371.605232,146.991499 371.605232,179.459459 C371.605232,211.92742 397.903845,238.247903 430.344828,238.247903 C462.785811,238.247903 489.084423,211.92742 489.084423,179.459459 C489.084423,146.991499 462.785811,120.671016 430.344828,120.671016 Z M89.6551724,30.9412861 C57.2141895,30.9412861 30.9155767,57.2617689 30.9155767,89.7297297 C30.9155767,122.197691 57.2141895,148.518173 89.6551724,148.518173 C122.096155,148.518173 148.394768,122.197691 148.394768,89.7297297 C148.394768,57.2617689 122.096155,30.9412861 89.6551724,30.9412861 Z" id="path-2"></path>
    </defs>
    <g id="KiffgoIcons2" stroke="none" stroke-width="1" fill="none" fill-rule="evenodd">
        <g id="Group-31" transform="translate(162.000000, 86.000000)" fill-rule="nonzero">
            <g id="Combined-Shape">
                <use fill="#EEA279" xlink:href="#path-2"></use>
                <path stroke="url(#linearGradient-1)" stroke-width="7.2" d="M89.6551724,3.6 C42.1288833,3.6 3.6,42.1609239 3.6,89.7297297 C3.6,130.877383 32.6490633,166.052344 72.4403846,174.13651 L75.3236365,174.722284 L75.3236365,489.277716 L72.4403846,489.86349 C32.6490633,497.947656 3.6,533.122617 3.6,574.27027 C3.6,621.839076 42.1288833,660.4 89.6551724,660.4 C137.181462,660.4 175.710345,621.839076 175.710463,574.29941 L175.698806,572.844737 C174.989741,529.075329 141.526573,492.864695 98.2644881,488.565918 L95.0204651,488.243572 L95.0199783,362.667821 L344.838885,476.582705 L345.110583,478.542929 C350.974109,520.846719 387.262034,552.724324 430.344828,552.724324 C477.871117,552.724324 516.4,514.1634 516.4,466.594595 C516.4,419.025789 477.871117,380.464865 430.374016,380.464747 L428.920625,380.476412 C389.579892,381.114793 355.892051,408.39052 346.71833,446.188777 L345.690692,450.422928 L116.05507,345.713464 L365.046045,235.619499 L366.792064,237.532464 C382.998674,255.288678 405.840583,265.589189 430.344828,265.589189 C477.871117,265.589189 516.4,227.028265 516.4,179.459459 C516.4,131.890654 477.871117,93.3297297 430.344828,93.3297297 C382.818538,93.3297297 344.289655,131.890654 344.289537,179.43032 L344.301194,180.884992 C344.474206,191.56475 346.591511,201.949946 350.503063,211.65684 L351.804581,214.886682 L95.0199826,328.428023 L95.0204627,175.756428 L98.2644881,175.434082 C142.044799,171.083811 175.710345,134.091712 175.710345,89.7297297 C175.710345,42.1609239 137.181462,3.6 89.6551724,3.6 Z M89.6551724,511.881827 C124.085051,511.881827 151.994768,539.814754 151.994768,574.27027 C151.994768,608.725787 124.085051,636.658714 89.6551724,636.658714 C55.2252942,636.658714 27.3155767,608.725787 27.3155767,574.27027 C27.3155767,539.814754 55.2252942,511.881827 89.6551724,511.881827 Z M430.344828,404.206151 C464.774706,404.206151 492.684423,432.139078 492.684423,466.594595 C492.684423,501.050111 464.774706,528.983038 430.344828,528.983038 C395.914949,528.983038 368.005232,501.050111 368.005232,466.594595 C368.005232,432.139078 395.914949,404.206151 430.344828,404.206151 Z M430.344828,117.071016 C464.774706,117.071016 492.684423,145.003943 492.684423,179.459459 C492.684423,213.914976 464.774706,241.847903 430.344828,241.847903 C395.914949,241.847903 368.005232,213.914976 368.005232,179.459459 C368.005232,145.003943 395.914949,117.071016 430.344828,117.071016 Z M89.6551724,27.3412861 C124.085051,27.3412861 151.994768,55.2742133 151.994768,89.7297297 C151.994768,124.185246 124.085051,152.118173 89.6551724,152.118173 C55.2252942,152.118173 27.3155767,124.185246 27.3155767,89.7297297 C27.3155767,55.2742133 55.2252942,27.3412861 89.6551724,27.3412861 Z" stroke-linejoin="square" fill="#FFFFFF" fill-rule="evenodd"></path>
            </g>
        </g>
    </g>
</svg>