<?xml version="1.0" encoding="utf-8"?>
<!-- Generator: Adobe Illustrator 24.1.0, SVG Export Plug-In . SVG Version: 6.00 Build 0)  -->
<svg version="1.1" id="Calque_1" xmlns="http://www.w3.org/2000/svg" xmlns:xlink="http://www.w3.org/1999/xlink" x="0px" y="0px"
	 viewBox="0 0 100 100" style="enable-background:new 0 0 100 100;" xml:space="preserve">
<style type="text/css">
	.st0{fill:#FFFFFF;}
	.st1{fill-rule:evenodd;clip-rule:evenodd;fill:#FFFFFF;}
	.st2{fill:none;stroke:#FFFFFF;stroke-width:5.9871;stroke-linecap:round;stroke-linejoin:round;}
	.st3{fill:none;stroke:#FFFFFF;stroke-width:5.9706;stroke-linecap:round;stroke-linejoin:round;}
	.st4{fill-opacity:0;}
	.st5{fill-rule:evenodd;clip-rule:evenodd;}
	.st6{fill:none;stroke:#000000;stroke-width:5.9871;stroke-linecap:round;stroke-linejoin:round;}
	.st7{fill:none;stroke:#000000;stroke-width:5.9706;stroke-linecap:round;stroke-linejoin:round;}
	.st8{fill:#020202;}
	.st9{fill:none;stroke:#000000;stroke-width:10.3465;stroke-miterlimit:10;}
	.st10{fill:none;stroke:#000000;stroke-width:7.6187;stroke-linecap:round;stroke-linejoin:round;}
	.st11{fill:none;stroke:#000000;stroke-width:7.6187;stroke-miterlimit:10;}
	.st12{fill:none;stroke:#000000;stroke-width:7.6187;stroke-linecap:round;stroke-miterlimit:10;}
	.st13{fill:none;stroke:#000000;stroke-width:9.755;stroke-miterlimit:10;}
	.st14{fill:none;stroke:#000000;stroke-width:9.755;stroke-linecap:round;stroke-linejoin:round;}
	.st15{fill:#FF7600;}
	.st16{fill-rule:evenodd;clip-rule:evenodd;fill:#61ACF7;}
	.st17{fill-rule:evenodd;clip-rule:evenodd;fill:#F52C2C;}
	.st18{fill-rule:evenodd;clip-rule:evenodd;fill:#0DFFBE;}
	.st19{fill:#61ACF7;}
	.st20{fill:#D1D1D1;}
	.st21{fill:#0DFFBE;}
	.st22{fill-rule:evenodd;clip-rule:evenodd;fill:#F761DA;}
	.st23{fill-rule:evenodd;clip-rule:evenodd;fill:#909090;}
	.st24{fill:#9D9D9D;}
	.st25{fill-rule:evenodd;clip-rule:evenodd;fill:#FF7600;}
</style>
<g>
	<path class="st0" d="M89.16,65.91c-0.34-0.41-0.67-0.81-0.99-1.21c-4.47-5.41-7.18-8.68-7.18-24c0-7.93-1.9-14.44-5.64-19.32
		c-2.76-3.61-6.49-6.34-11.4-8.36c-0.06-0.04-0.12-0.08-0.17-0.14C62.01,6.96,57.17,3,51.72,3s-10.29,3.96-12.06,9.88
		c-0.05,0.05-0.1,0.1-0.16,0.13C28.03,17.73,22.46,26.79,22.46,40.7c0,15.33-2.7,18.59-7.18,24c-0.33,0.39-0.66,0.79-0.99,1.21
		c-1.78,2.15-2.15,5.14-0.95,7.65c1.25,2.64,3.93,4.29,6.98,4.29h62.83c3.04,0,5.7-1.64,6.95-4.27
		C91.31,71.06,90.94,68.06,89.16,65.91z"/>
	<path class="st0" d="M51.72,94.12c5.99,0,11.49-3.3,14.33-8.57c0.21-0.4,0.06-0.89-0.34-1.1c-0.12-0.06-0.25-0.09-0.38-0.09H38.11
		c-0.45,0-0.81,0.36-0.82,0.81c0,0.13,0.03,0.27,0.09,0.38C40.23,90.83,45.73,94.12,51.72,94.12z"/>
</g>
</svg>
