<svg xmlns="http://www.w3.org/2000/svg" xmlns:xlink="http://www.w3.org/1999/xlink" width="104" height="90" viewBox="0 0 104 90">
    <defs>
        <path id="a" d="M0 .213h103.227v89.732H0z"/>
    </defs>
    <g fill="none" fill-rule="evenodd">
        <g>
            <mask id="b" fill="#fff">
                <use xlink:href="#a"/>
            </mask>
            <path fill="#393939" d="M94.096 53.623l-.03-.007a1.576 1.576 0 0 0-1.896 1.168c-5.357 22.395-27.854 36.208-50.25 30.851a41.693 41.693 0 0 1-27.998-22.734l-3.153.66c10.198 22.566 36.76 32.592 59.326 22.394a44.84 44.84 0 0 0 25.139-30.414 1.576 1.576 0 0 0-1.138-1.918zM21.15 56.559a1.572 1.572 0 0 0-.366-.751l-6.139-6.843-6.07-6.773a1.576 1.576 0 0 0-2.743.48l-2.887 8.743-2.87 8.732a1.575 1.575 0 0 0 1.783 2.032l9-1.889 9.035-1.889a1.577 1.577 0 0 0 1.258-1.842zm-10.89.639l-6.336 1.336 2.014-6.148 2.024-6.14 8.625 9.625-6.327 1.327zM103.21 29.2a1.577 1.577 0 0 0-1.863-1.221l-9 1.89-8.99 1.844a1.577 1.577 0 0 0-.892 2.593l6.14 6.843 6.068 6.773a1.577 1.577 0 0 0 2.745-.482l5.72-17.483c.086-.242.11-.502.072-.756zm-5.908 8.573l-2.013 6.139-8.627-9.623 6.327-1.33 6.327-1.327-2.014 6.14zM33.154 4.204A44.836 44.836 0 0 0 8.015 34.618a1.576 1.576 0 1 0 3.066.73C16.446 12.957 38.949-.847 61.343 4.519a41.694 41.694 0 0 1 27.984 22.74l3.154-.66C82.282 4.031 55.72-5.995 33.154 4.204z" mask="url(#b)"/>
        </g>
        <path fill="#5EDEA8" d="M68.164 17.295c0-.871-.707-1.577-1.578-1.577H46.189c-.682 0-1.285.439-1.498 1.087l-9.49 29.04a1.578 1.578 0 0 0 1.47 2.175h7.13l-6.238 24.3a1.577 1.577 0 1 0 2.673 1.569l26.368-30.672a1.576 1.576 0 0 0-1.186-2.674h-9.25L67.915 18.16c.165-.258.252-.559.25-.865zm-15.996 24.14a1.576 1.576 0 0 0 1.4 2.3h8.402l-19.764 22.98L47.32 46.86a1.578 1.578 0 0 0-1.523-1.96h-6.951l8.484-26.02h16.645L52.168 41.434z"/>
    </g>
</svg>
