<svg xmlns="http://www.w3.org/2000/svg" xmlns:xlink="http://www.w3.org/1999/xlink" width="167" height="154" viewBox="0 0 167 154">
  <defs>
    <linearGradient id="linear-gradient" x1="0.91" x2="0" y2="1.046" gradientUnits="objectBoundingBox">
      <stop offset="0" stop-color="#5edea8"/>
      <stop offset="1" stop-color="#7dd"/>
    </linearGradient>
  </defs>
  <g id="Group_724" data-name="Group 724" transform="translate(-187 -460)">
    <rect id="Rectangle_304" data-name="Rectangle 304" width="167" height="154" rx="27" transform="translate(187 460)" fill="url(#linear-gradient)"/>
    <g id="Group_464" data-name="Group 464" transform="translate(236.133 477.801)">
      <g id="Group_710" data-name="Group 710" transform="translate(14.125 71.005)">
        <rect id="Rectangle_302" data-name="Rectangle 302" width="5.673" height="10.322" transform="translate(14.863 0)" fill="#92a3a5"/>
        <g id="Group_709" data-name="Group 709" transform="translate(0 6.683)">
          <g id="Group_703" data-name="Group 703" transform="translate(8.877 1.828)">
            <path id="Path_639" data-name="Path 639" d="M1792.838,995.121a1.811,1.811,0,0,1-1.587-2.01l2.6-22.148a1.811,1.811,0,0,1,3.6.423l-2.6,22.148A1.811,1.811,0,0,1,1792.838,995.121Z" transform="translate(-1791.238 -969.362)" fill="#92a3a5"/>
          </g>
          <g id="Group_704" data-name="Group 704" transform="translate(22.301 1.828)">
            <path id="Path_640" data-name="Path 640" d="M1918.42,994.512l-3.369-23.076a1.811,1.811,0,0,1,3.585-.523L1922,993.989a1.811,1.811,0,1,1-3.584.523Z" transform="translate(-1915.032 -969.363)" fill="#92a3a5"/>
          </g>
          <g id="Group_705" data-name="Group 705" transform="translate(0 14.971)">
            <path id="Path_641" data-name="Path 641" d="M1745.134,1093.194l.307,20.161-11.1-.426,4.877-19.766a3.607,3.607,0,0,1,1.465-2.342,3.8,3.8,0,0,1,2.545-.076A3.142,3.142,0,0,1,1745.134,1093.194Z" transform="translate(-1731.638 -1090.564)" fill="#fff"/>
            <path id="Path_642" data-name="Path 642" d="M1745.134,1109.154a1.832,1.832,0,0,0-.156-.689c-.874,7.745-3.391,19.488-10.632,20.424l11.1.426Z" transform="translate(-1731.638 -1106.524)" fill="#a3b6bf" opacity="0.46" style="mix-blend-mode: multiply;isolation: isolate"/>
            <path id="Path_643" data-name="Path 643" d="M1761.478,1113.156l.586-6.843,4.849.511-.005-.322-4.816-.508,1.32-15.416c-.108,0-.215.01-.32.022l-.975,11.387h-3.5l-.034.139-.045.181h3.548l-.928,10.835Z" transform="translate(-1753.209 -1090.577)" fill="#2fc670"/>
            <path id="Path_644" data-name="Path 644" d="M1794.778,1227.559a.139.139,0,1,0,.139-.14A.139.139,0,0,0,1794.778,1227.559Z" transform="translate(-1785.517 -1212.578)" fill="#4890c0"/>
            <path id="Path_645" data-name="Path 645" d="M1787.835,1190.132a.165.165,0,1,0,.165-.166A.166.166,0,0,0,1787.835,1190.132Z" transform="translate(-1779.327 -1179.187)" fill="#4890c0"/>
            <path id="Path_646" data-name="Path 646" d="M1723.97,1285.907s-13.42.16-14.424-.32,2.637-3.581,4.544-4.154c3.54-1.065,8.665.266,9.51,2.237S1723.97,1285.907,1723.97,1285.907Z" transform="translate(-1709.375 -1260.399)" fill="#fff"/>
            <path id="Path_647" data-name="Path 647" d="M1722.709,1294.951s.476-.266-.37-2.237a1.882,1.882,0,0,0-.178-.319,3.212,3.212,0,0,1,1.438,1.385c.846,1.971.37,2.237.37,2.237s-13.42.16-14.424-.319c-.275-.131-.2-.46.09-.88C1713.278,1295.064,1722.709,1294.951,1722.709,1294.951Z" transform="translate(-1709.375 -1270.509)" fill="#92a3a5"/>
          </g>
          <g id="Group_706" data-name="Group 706" transform="translate(22.641 14.219)">
            <path id="Path_648" data-name="Path 648" d="M1927.091,1086.268l-.31,20.181,11.2-.426-4.921-19.786a3.609,3.609,0,0,0-1.478-2.344,3.859,3.859,0,0,0-2.568-.076A3.15,3.15,0,0,0,1927.091,1086.268Z" transform="translate(-1925.847 -1083.635)" fill="#fff"/>
            <path id="Path_649" data-name="Path 649" d="M1927.091,1102.243a1.823,1.823,0,0,1,.158-.69c.882,7.753,3.422,19.507,10.729,20.444l-11.2.426Z" transform="translate(-1925.847 -1099.61)" fill="#a3b6bf" opacity="0.46" style="mix-blend-mode: multiply;isolation: isolate"/>
            <path id="Path_650" data-name="Path 650" d="M1932.576,1095.391h3.58c-.024-.1-.048-.2-.073-.292l-.007-.027h-3.528l-.984-11.4q-.16-.018-.323-.022l1.333,15.431-4.86.509v.017c0,.011,0,.022,0,.033l0,.271,4.893-.512.591,6.85.11,0,.21-.008Z" transform="translate(-1926.673 -1083.648)" fill="#2fc670"/>
            <path id="Path_651" data-name="Path 651" d="M1966.746,1220.765a.14.14,0,1,1-.14-.14A.14.14,0,0,1,1966.746,1220.765Z" transform="translate(-1961.228 -1205.77)" fill="#4890c0"/>
            <path id="Path_652" data-name="Path 652" d="M1973.314,1183.3a.167.167,0,1,1-.167-.167A.167.167,0,0,1,1973.314,1183.3Z" transform="translate(-1967.037 -1172.346)" fill="#4890c0"/>
            <path id="Path_653" data-name="Path 653" d="M1918.3,1279.171s13.542.16,14.555-.32-2.661-3.584-4.585-4.159c-3.572-1.066-8.744.267-9.6,2.239S1918.3,1279.171,1918.3,1279.171Z" transform="translate(-1918.165 -1253.637)" fill="#fff"/>
            <path id="Path_654" data-name="Path 654" d="M1919.573,1288.225s-.48-.267.373-2.239a1.832,1.832,0,0,1,.179-.319,3.229,3.229,0,0,0-1.452,1.386c-.853,1.973-.373,2.239-.373,2.239s13.542.16,14.555-.32c.278-.131.2-.461-.091-.88C1929.09,1288.337,1919.573,1288.225,1919.573,1288.225Z" transform="translate(-1918.166 -1263.758)" fill="#92a3a5"/>
          </g>
          <g id="Group_708" data-name="Group 708" transform="translate(7.596)">
            <g id="Group_707" data-name="Group 707" transform="translate(0.85 0.87)">
              <path id="Path_655" data-name="Path 655" d="M1788.577,960.531c-4.3,0,2.823,10.993,8.746,10.993,4.921,0,12.564-10.919,8.264-10.919Z" transform="translate(-1787.262 -960.531)" fill="#fff"/>
              <path id="Path_656" data-name="Path 656" d="M1810.751,961.147l-1.929-.008c-1.65,3.189-5.745,7.383-8.794,7.383-2.409,0-5.016-1.818-6.973-3.976,1.555,3.221,5.729,7.52,9.433,7.52C1807.409,972.066,1815.052,961.147,1810.751,961.147Z" transform="translate(-1792.427 -961.073)" fill="#a3b6bf" opacity="0.46" style="mix-blend-mode: multiply;isolation: isolate"/>
            </g>
            <rect id="Rectangle_303" data-name="Rectangle 303" width="21.355" height="3.974" rx="1.987" fill="#92a3a5"/>
          </g>
        </g>
      </g>
      <g id="Group_713" data-name="Group 713" transform="translate(17.056 48.104)">
        <g id="Group_712" data-name="Group 712" transform="translate(0)">
          <g id="Group_711" data-name="Group 711" transform="translate(0 4.546)">
            <path id="Path_657" data-name="Path 657" d="M1742.922,743.976h15.786c2.8-2.965,6.036-6.68,6.548-10.4.252-1.913.475-4.542-.171-6.134-1.313-3.235-5.633-5.116-7.31-5.315a74.066,74.066,0,0,0-13.2-.381,4.823,4.823,0,0,0-1.515.48c-2.611,1.074-5.364,3.295-6.3,5.493-.723,1.7-.206,4.538.044,6.434C1737.321,737.872,1740.124,741.011,1742.922,743.976Z" transform="translate(-1736.395 -721.612)" fill="#fff"/>
            <ellipse id="Ellipse_113" data-name="Ellipse 113" cx="5.645" cy="1.95" rx="5.645" ry="1.95" transform="translate(8.979 0)" fill="#ccd9dd"/>
            <path id="Path_658" data-name="Path 658" d="M1867.7,721.612q-.218,0-.432.006c2.916.076,5.213.917,5.213,1.944s-2.3,1.868-5.213,1.944q.214.006.432.006c3.118,0,5.645-.873,5.645-1.95S1870.819,721.612,1867.7,721.612Z" transform="translate(-1853.078 -721.612)" fill="#a3b6bf"/>
            <path id="Path_659" data-name="Path 659" d="M1798.115,749.337c.692-7.355,1.922-15.052,6.66-20.839a12.721,12.721,0,0,0-1.262-.564,26.426,26.426,0,0,0-4.243,8.029,44.988,44.988,0,0,0-8.285.255,25.631,25.631,0,0,0-3.9-8.592,13.405,13.405,0,0,0-1.214.587c4.556,6.012,4.862,13.937,6.2,21.125h1.356c-.751-3.892-1.2-7.939-2.116-11.814a45.413,45.413,0,0,1,7.543-.256,63.7,63.7,0,0,0-2.078,12.07Z" transform="translate(-1780.506 -726.973)" fill="#2fc670"/>
            <path id="Path_660" data-name="Path 660" d="M1790.21,741.61a8.932,8.932,0,0,0-4.05-4.108c.715,1.669.452,4.416.212,6.233-.719,5.223-6.017,10.4-12.919,10.4h-8.877a45.268,45.268,0,0,0,3.471,4.009h15.786c2.8-2.965,6.036-6.68,6.548-10.4C1790.634,745.831,1790.856,743.2,1790.21,741.61Z" transform="translate(-1761.521 -735.779)" fill="#a3b6bf" opacity="0.46" style="mix-blend-mode: multiply;isolation: isolate"/>
          </g>
          <path id="Path_661" data-name="Path 661" d="M1849.789,679.691c-.132,6.437.31,7.022-.439,8.238a15.569,15.569,0,0,1-5.065,0,2.95,2.95,0,0,1-.439-1.553v-6.685Z" transform="translate(-1832.194 -679.691)" fill="#92a3a5"/>
          <path id="Path_662" data-name="Path 662" d="M1870.672,724.3v.227c3.66,1.171,1.412,3.249-3.4,3.375q.214.006.432.006C1873.306,727.908,1875.535,725.341,1870.672,724.3Z" transform="translate(-1853.078 -719.463)" fill="#acb6ba"/>
        </g>
        <path id="Path_663" data-name="Path 663" d="M1970.051,771.055c-1.062-.178-2.341,2.17-2.857,5.244s-.073,5.712.989,5.89,2.341-2.17,2.857-5.244S1971.113,771.233,1970.051,771.055Z" transform="translate(-1941.974 -761.139)" fill="#ccd9dd"/>
        <path id="Path_664" data-name="Path 664" d="M1972.269,776.945c-.024.143-.05.285-.077.425.407-2.888-.042-5.293-1.055-5.463s-2.222,1.956-2.78,4.82c.02-.141.042-.283.066-.427.516-3.075,1.795-5.423,2.857-5.244S1972.785,773.87,1972.269,776.945Z" transform="translate(-1943.203 -761.139)" fill="#acb6ba"/>
        <path id="Path_665" data-name="Path 665" d="M1737.6,776.317c1.062-.178,2.341,2.17,2.857,5.244s.073,5.712-.988,5.89-2.341-2.17-2.858-5.245S1736.537,776.495,1737.6,776.317Z" transform="translate(-1736.395 -765.83)" fill="#ccd9dd"/>
        <path id="Path_666" data-name="Path 666" d="M1736.61,782.207q.036.215.077.425c-.408-2.888.042-5.293,1.054-5.463s2.223,1.957,2.78,4.82q-.03-.211-.066-.427c-.516-3.075-1.8-5.423-2.857-5.244S1736.094,779.132,1736.61,782.207Z" transform="translate(-1736.395 -765.83)" fill="#acb6ba"/>
      </g>
      <g id="Group_715" data-name="Group 715" transform="translate(42.622 42.666)">
        <g id="Group_714" data-name="Group 714" transform="translate(0 13.367)">
          <path id="Path_667" data-name="Path 667" d="M1981.3,764.718c-5.478,0-8.659-4.5-8.81-4.717a1.811,1.811,0,0,1,2.975-2.067c.128.181,2.929,4.033,7.451,2.966,1.625-.383,3.432-2.905,4.96-6.92a1.811,1.811,0,1,1,3.385,1.288c-2.048,5.384-4.576,8.465-7.513,9.158A10.647,10.647,0,0,1,1981.3,764.718Z" transform="translate(-1972.165 -752.812)" fill="#92a3a5"/>
        </g>
        <path id="Path_668" data-name="Path 668" d="M2074.067,710.13s-1.665,11.157-3.916,13.265-7.355-1.779-7.013-3.281c.282-1.234,8.149-11.562,8.149-11.562Z" transform="translate(-2053.258 -699.984)" fill="#fff"/>
        <path id="Path_669" data-name="Path 669" d="M2089.1,719.444l3.005-6.367-.389-.221-6.6,13.989c.126.079.255.154.386.227l3.409-7.222a6.4,6.4,0,0,0,3.344.931h.077q.056-.228.11-.455A6.022,6.022,0,0,1,2089.1,719.444Z" transform="translate(-2072.864 -703.822)" fill="#2fc670"/>
        <path id="Path_670" data-name="Path 670" d="M2112.316,633a.467.467,0,0,0-.28.767,6.529,6.529,0,0,1,1.125,1.758c.362,1,.708,3.216,1.778,3.717a2.965,2.965,0,0,0,3.289-.061c1.02-.827,1.443-2.7,1.967-2.893s2.318-2.334,1.857-2.827c-.318-.34-2.228,2.1-2.649,1.9s1.575-3.156,1.386-3.679-.688-.6-.969,0-1.434,2.767-1.677,2.654.889-3.419.885-3.874-.665-.647-.832-.291-1.151,3.513-1.412,3.608-.105-3.337-.089-3.737-.683-.695-1.018-.358.09,4.41-.334,4.725-.827.542-1.129.005C2113.975,633.994,2113.128,632.905,2112.316,633Z" transform="translate(-2096.769 -629.541)" fill="#92a3a5"/>
      </g>
      <g id="Group_717" data-name="Group 717" transform="translate(8.398 61.776)">
        <g id="Group_716" data-name="Group 716" transform="translate(2.297)">
          <path id="Path_671" data-name="Path 671" d="M1678.067,829.167c-1.64-10.164,3.215-19.87,6-22.826a1.811,1.811,0,0,1,2.643,2.478c-.055.06-3.241,3.6-4.865,11a23.388,23.388,0,0,0-.2,8.768,1.811,1.811,0,1,1-3.576.577Z" transform="translate(-1677.736 -805.771)" fill="#92a3a5"/>
        </g>
        <path id="Path_672" data-name="Path 672" d="M1659.437,917.838s-3.717-10.65-2.705-13.564,7.338-1.847,7.733-.358c.325,1.223-1.834,14.025-1.834,14.025Z" transform="translate(-1656.557 -891.952)" fill="#fff"/>
        <path id="Path_673" data-name="Path 673" d="M1668.331,910.875l.3,7.034.447.014-.663-15.455q-.223-.016-.447-.021l.342,7.979a6.407,6.407,0,0,0-3.394.732l-.067.036q.056.228.115.454A6.022,6.022,0,0,1,1668.331,910.875Z" transform="translate(-1663.951 -891.965)" fill="#2fc670"/>
        <path id="Path_674" data-name="Path 674" d="M1673.045,1037.292a2.578,2.578,0,0,1,3.029-1.135c2.225.5,1.548,2.733,2.186,3.743s1.316,2.42.861,2.707-2.14-1.263-2.491-1.819-1.411,2.41-1.606,3.276,1.257,3.446.7,3.8-2.878-3.272-3.181-3.751S1672.859,1038.117,1673.045,1037.292Z" transform="translate(-1670.737 -1011.089)" fill="#92a3a5"/>
      </g>
      <g id="Group_720" data-name="Group 720" transform="translate(0 9.774)">
        <g id="Group_719" data-name="Group 719" transform="translate(0 6.965)">
          <ellipse id="Ellipse_114" data-name="Ellipse 114" cx="30.974" cy="13.91" rx="30.974" ry="13.91" fill="#92a3a5"/>
          <g id="Group_718" data-name="Group 718" transform="translate(1.943 7.644)">
            <path id="Path_675" data-name="Path 675" d="M1598.7,473.843a18.578,18.578,0,0,0,1.814,1.342,39.882,39.882,0,0,1-2.132-14.123,12.969,12.969,0,0,0-1.355,1.393A41.852,41.852,0,0,0,1598.7,473.843Z" transform="translate(-1597.03 -461.049)" fill="#fff"/>
            <path id="Path_676" data-name="Path 676" d="M2101.5,462.334a13.051,13.051,0,0,0-1.362-1.4,36.193,36.193,0,0,1-2.4,14.315,19.291,19.291,0,0,0,1.891-1.354A38.075,38.075,0,0,0,2101.5,462.334Z" transform="translate(-2043.443 -460.938)" fill="#fff"/>
          </g>
        </g>
        <path id="Path_677" data-name="Path 677" d="M1663.8,366.8a74.056,74.056,0,0,0-17.342-.356c-13.3,1.292-18.037-18.633-16.14-28.661.967-5.114,6.667-8.778,11.478-9.916a62.1,62.1,0,0,1,26.8-.353c4.7,1,9.356,4.193,11.188,8.778C1683.613,345.871,1676.794,368.6,1663.8,366.8Z" transform="translate(-1624.407 -326.219)" fill="#fff"/>
        <path id="Path_678" data-name="Path 678" d="M1726.264,372.378a13.586,13.586,0,0,0-4.449-5.682,12.393,12.393,0,0,1,1.607,2.84c3.825,9.581-2.993,32.311-15.987,30.508a74.062,74.062,0,0,0-17.342-.356,11.2,11.2,0,0,1-8.047-2.247c2.639,3.4,6.241,5.541,10.889,5.089a74.054,74.054,0,0,1,17.342.356C1723.271,404.689,1730.089,381.959,1726.264,372.378Z" transform="translate(-1670.884 -362.307)" fill="#a3b6bf" opacity="0.46" style="mix-blend-mode: multiply;isolation: isolate"/>
        <path id="Path_679" data-name="Path 679" d="M1703.814,427.223a30.325,30.325,0,0,1-6.776,1.689c-6.959.953-15.315.454-21.414-3.324a10.945,10.945,0,0,1-5.381-7.483l-.124-.785a10.764,10.764,0,0,1,9.827-12.4,146.669,146.669,0,0,1,22.725,0,10.764,10.764,0,0,1,9.828,12.4q-.059.37-.117.739C1711.634,422.776,1708,425.595,1703.814,427.223Z" transform="translate(-1660.131 -395.99)" fill="#92a3a5"/>
        <path id="Path_680" data-name="Path 680" d="M1829.138,563.767c0,1.2-2.494,3.288-5.571,3.288s-5.571-2.088-5.571-3.288,2.494-1.058,5.571-1.058S1829.138,562.567,1829.138,563.767Z" transform="translate(-1792.092 -537.06)" fill="#2fc670"/>
        <path id="Path_681" data-name="Path 681" d="M1765.934,487.828a1.792,1.792,0,1,1-1.792-1.792A1.792,1.792,0,0,1,1765.934,487.828Z" transform="translate(-1742.481 -468.706)" fill="#2fc670"/>
        <path id="Path_682" data-name="Path 682" d="M1937.52,482.542a1.791,1.791,0,1,1-1.792-1.792A1.791,1.791,0,0,1,1937.52,482.542Z" transform="translate(-1895.46 -463.993)" fill="#2fc670"/>
      </g>
      <g id="Group_722" data-name="Group 722" transform="translate(27.554 0)">
        <g id="Group_721" data-name="Group 721" transform="translate(0.71 2.693)">
          <path id="Path_683" data-name="Path 683" d="M1841.86,269.6l.623.012.056-2.875,2.845-.885-3.995-1.221,1.2-.634.06-3.056-.623-.012-.052,2.689-2.215,1.168,3.508,1.072-1.345.418Z" transform="translate(-1839.761 -260.924)"/>
        </g>
        <path id="Path_684" data-name="Path 684" d="M1851.336,237.409a1.35,1.35,0,1,0,1.376-1.323A1.35,1.35,0,0,0,1851.336,237.409Z" transform="translate(-1849.37 -236.086)"/>
        <path id="Path_685" data-name="Path 685" d="M1833.212,336.047c-.017.892,1.5,1.646,3.388,1.683s3.433-.657,3.451-1.549-1.5-1.646-3.388-1.683S1833.229,335.155,1833.212,336.047Z" transform="translate(-1833.212 -323.825)" fill="#1e191b"/>
      </g>
    </g>
  </g>
</svg>
