<?xml version="1.0" encoding="UTF-8"?>
<svg width="36px" height="20px" viewBox="0 0 36 20" version="1.1" xmlns="http://www.w3.org/2000/svg" xmlns:xlink="http://www.w3.org/1999/xlink">
    <!-- Generator: Sketch 48.1 (47250) - http://www.bohemiancoding.com/sketch -->
    <title>orders</title>
    <desc>Created with Sketch.</desc>
    <defs>
        <polygon id="path-1" points="0.00463320463 0.0624710425 35.4440154 0.0624710425 35.4440154 19.937529 0.00463320463 19.937529"></polygon>
    </defs>
    <g id="OrderDetails" stroke="none" stroke-width="1" fill="none" fill-rule="evenodd" transform="translate(-32.000000, -373.000000)">
        <g id="orders" transform="translate(32.000000, 373.000000)">
            <mask id="mask-2" fill="white">
                <use xlink:href="#path-1"></use>
            </mask>
            <g id="Clip-2"></g>
            <path d="M13.1331274,14.0163707 C11.4970656,14.0163707 10.1749807,15.3432432 10.1749807,16.9793822 C10.1749807,18.6106564 11.4970656,19.937529 13.1331274,19.937529 C14.7689575,19.937529 16.0913514,18.6106564 16.0913514,16.9793822 C16.0910425,15.3432432 14.7689575,14.0163707 13.1331274,14.0163707 Z M13.1331274,18.4583012 C12.3150579,18.4583012 11.6538996,17.7925869 11.6538996,16.9793822 C11.6538996,16.1613127 12.3150579,15.5001544 13.1331274,15.5001544 C13.950888,15.5001544 14.6121236,16.1613127 14.6121236,16.9793822 C14.6121236,17.7925869 13.950888,18.4583012 13.1331274,18.4583012 Z M35.4440154,11.8279537 L35.4440154,14.9867181 C35.4440154,15.7745946 34.8051737,16.4135135 34.0172201,16.4135135 L32.4906564,16.4135135 C32.2146718,14.5203861 30.5833977,13.065251 28.6145946,13.065251 C26.6502703,13.065251 25.0189961,14.5203861 24.7433205,16.4135135 L17.0053282,16.4135135 C16.7295753,14.5203861 15.0980695,13.065251 13.1340541,13.065251 C11.1697297,13.065251 9.5384556,14.5203861 9.26277992,16.4135135 L7.35065637,16.4135135 C6.56277992,16.4135135 5.92393822,15.7745946 5.92393822,14.9867181 L5.92393822,11.8279537 L35.4440154,11.8279537 Z M28.6181467,14.0163707 C26.9823938,14.0163707 25.655444,15.3432432 25.655444,16.9793822 C25.655444,18.6106564 26.9823938,19.937529 28.6181467,19.937529 C30.2494208,19.937529 31.5763707,18.6106564 31.5763707,16.9793822 C31.5763707,15.3432432 30.2494208,14.0163707 28.6181467,14.0163707 Z M28.6181467,18.4583012 C27.8001544,18.4583012 27.1392278,17.7925869 27.1392278,16.9793822 C27.1392278,16.1613127 27.8001544,15.5001544 28.6181467,15.5001544 C29.4317375,15.5001544 30.0974517,16.1613127 30.0974517,16.9793822 C30.0974517,17.7925869 29.4317375,18.4583012 28.6181467,18.4583012 Z M34.8817761,8.64687259 L29.2745174,3.10146718 C28.9179923,2.74942085 28.437529,2.54980695 27.9383012,2.54980695 L25.1085714,2.54980695 L25.1085714,1.48918919 C25.1085714,0.69976834 24.4711969,0.0624710425 23.6818533,0.0624710425 L7.34980695,0.0624710425 C6.56525097,0.0624710425 5.92301158,0.69976834 5.92301158,1.48918919 L5.92301158,1.71274131 L0.133359073,2.37992278 L10.3927413,3.71590734 L0,4.74841699 L10.3559073,6.2207722 L0,7.11876448 L5.92332046,8.23598456 L5.92301158,11.0391506 L35.4430888,11.0391506 L35.4430888,9.99760618 C35.4430888,9.48872587 35.23861,9.00370656 34.8817761,8.64687259 Z M32.4372201,8.83235521 L27.0107336,8.83235521 C26.8871042,8.83235521 26.7872587,8.73250965 26.7872587,8.60880309 L26.7872587,4.41907336 C26.7872587,4.2953668 26.8871042,4.19521236 27.0107336,4.19521236 L28.0429344,4.19521236 C28.1,4.19521236 28.1569884,4.21907336 28.1998456,4.25706564 L32.5895753,8.44718147 C32.7367568,8.58501931 32.6369112,8.83235521 32.4372201,8.83235521 Z" id="Fill-1" fill="#FFFFFF" mask="url(#mask-2)"></path>
        </g>
    </g>
</svg>