<svg xmlns="http://www.w3.org/2000/svg" width="394" height="282" viewBox="0 0 394 282">
    <g fill="none" fill-rule="evenodd">
        <path fill="#D0CFCA" d="M379.447 233.483L332.81 206.66l-16.513 9.578-59.718-34.083-58.492 33.21-37.193-21.296-73.105 41.509c-2.193 1.244-2.196 4.398-.01 5.65l51.224 29.326a12.682 12.682 0 0 0 12.565.022l37.251-21.149a12.681 12.681 0 0 1 12.55.015l41.598 23.738a12.682 12.682 0 0 0 12.551.014l8.83-5.013a12.687 12.687 0 0 1 12.588.036l19.934 11.463a12.682 12.682 0 0 0 12.688-.022l69.898-40.543c2.168-1.255 2.161-4.384-.01-5.632"/>
        <path fill="#000" d="M37.851 222.097c-2.685-1.548-7.039-1.548-9.724 0-2.686 1.552-2.686 4.062 0 5.61 2.685 1.552 7.039 1.552 9.724 0 2.685-1.548 2.685-4.058 0-5.61"/>
        <path fill="#000" d="M46.598 231.7c-7.502 4.326-19.713 4.326-27.219 0-3.29-1.899-5.099-4.315-5.099-6.8 0-2.48 1.81-4.893 5.1-6.792 3.752-2.163 8.678-3.248 13.607-3.248 4.93 0 9.858 1.085 13.611 3.248 3.29 1.899 5.1 4.311 5.1 6.792 0 2.485-1.81 4.901-5.1 6.8zm1.839-16.772c-8.66-4.998-22.232-5.002-30.896 0-4.473 2.583-6.938 6.124-6.938 9.972 0 3.852 2.465 7.397 6.938 9.98 4.328 2.499 9.887 3.747 15.446 3.747 5.559 0 11.118-1.248 15.45-3.747 4.473-2.583 6.938-6.128 6.938-9.98 0-3.848-2.465-7.39-6.938-9.972z"/>
        <path fill="#5BC699" d="M37.851 218.415c-2.685-1.548-7.039-1.548-9.724 0-2.686 1.548-2.686 4.062 0 5.61 2.685 1.552 7.039 1.552 9.724 0 2.685-1.548 2.685-4.062 0-5.61"/>
        <path fill="#34795F" d="M46.598 228.015c-7.502 4.33-19.713 4.33-27.219 0-3.29-1.896-5.102-4.312-5.099-6.797 0-2.481 1.81-4.894 5.1-6.792 3.749-2.163 8.678-3.249 13.607-3.249 4.93 0 9.858 1.086 13.611 3.249 3.286 1.898 5.1 4.311 5.1 6.792 0 2.485-1.814 4.901-5.1 6.797zm1.839-16.769c-8.66-4.998-22.232-5.002-30.896 0-4.473 2.583-6.938 6.124-6.938 9.972-.003 3.852 2.465 7.397 6.938 9.976 4.328 2.503 9.887 3.75 15.446 3.75 5.559 0 11.118-1.247 15.45-3.75 4.473-2.579 6.938-6.124 6.938-9.976 0-3.848-2.465-7.39-6.938-9.972z"/>
        <path fill="#34795F" d="M28.26 153.83c-5.71 2.85-10.09-.647-9.731-7.751.355-7.013 5.193-14.808 10.77-17.47 5.52-2.633 9.779.72 9.562 7.545-.22 6.916-4.944 14.855-10.6 17.676zm1.835-44.634c-14.508 6.685-27.515 26.918-28.75 45.614-.491 7.484.989 13.535 3.924 17.662l20.896 39.606 10.021 4.887c.902-2.04 15.522-71.606 16.192-73.7 1.567-4.89 12.261-7.961 12.341-12.725.297-17.415-20.477-27.858-34.624-21.344z"/>
        <path fill="#5BC699" d="M30.07 157.396c-5.714 2.85-10.093-.647-9.735-7.754.355-7.014 5.197-14.805 10.77-17.467 5.52-2.633 9.783.72 9.565 7.545-.22 6.912-4.947 14.852-10.6 17.676zm1.835-44.633c-14.512 6.684-27.52 26.917-28.75 45.614-.235 3.555.004 6.76.605 9.614 16.557 9.95 28.956 9.368 41.883 18.182 4.028-18.696 8.194-38.246 8.545-39.342 1.567-4.89 9.583-8.554 9.662-13.318.294-17.419-17.798-27.264-31.945-20.75z"/>
        <path fill="#000" d="M32.886 128.819c-.963 0-2.016.26-3.113.785-5.258 2.506-9.81 9.925-10.144 16.53-.163 3.258.746 5.775 2.49 6.918 1.462.955 3.467.88 5.65-.21 5.298-2.643 9.782-10.149 9.992-16.724.097-3.11-.818-5.527-2.508-6.634-.684-.445-1.488-.665-2.367-.665zm-8.418 27.105c-1.3 0-2.505-.34-3.558-1.027-2.417-1.58-3.687-4.814-3.485-8.872.377-7.455 5.382-15.543 11.397-18.41 2.833-1.35 5.544-1.343 7.636.024 2.352 1.538 3.63 4.652 3.507 8.547-.236 7.303-5.262 15.658-11.209 18.632h-.003c-1.484.737-2.935 1.106-4.285 1.106zm2.504 55.319l8.516 4.155c1.346-5.418 6.236-28.198 9.905-45.288 3.5-16.29 5.657-26.317 5.935-27.178.858-2.676 3.833-4.713 6.703-6.677 2.732-1.866 5.555-3.794 5.588-5.73.12-7.125-3.558-13.65-10.086-17.903-7.101-4.63-16.116-5.578-22.974-2.424-14.31 6.59-26.922 26.636-28.113 44.688-.463 7.014.825 12.873 3.724 16.942l20.802 39.415zm9.76 7.215l-11.374-5.548-.17-.322-20.893-39.606c-3.12-4.362-4.545-10.713-4.05-18.24 1.238-18.773 14.422-39.65 29.39-46.544 7.525-3.472 17.38-2.456 25.103 2.575 7.176 4.68 11.219 11.893 11.085 19.789-.05 3.074-3.351 5.331-6.543 7.513-2.57 1.754-5.223 3.573-5.852 5.526-.261.832-2.99 13.531-5.874 26.972-5.726 26.657-9.819 45.621-10.358 46.84l-.463 1.045z"/>
        <path fill="#000" d="M64.954 133.532c.293-17.416-10.69-25.96-24.837-19.445-14.51 6.684-27.516 26.917-28.75 45.613-.492 7.484.988 13.535 3.923 17.659l20.896 39.606 23.846-62.596a62.558 62.558 0 0 0 2.367-6.214c1.567-4.89 2.472-9.86 2.555-14.623"/>
        <path fill="#000" d="M49.164 113.016c-2.681 0-5.588.69-8.588 2.073-14.31 6.586-26.918 26.631-28.109 44.684-.463 7.017.825 12.88 3.72 16.949l19.837 37.577L59 153.979a62.467 62.467 0 0 0 2.349-6.16c1.581-4.934 2.424-9.752 2.5-14.306.145-8.536-2.576-15.256-7.462-18.439-2.103-1.37-4.553-2.058-7.224-2.058zM36.733 218.458l-1.343-.643-21.077-39.943c-3.116-4.358-4.542-10.71-4.046-18.244 1.237-18.772 14.422-39.65 29.386-46.543 6.703-3.082 13.072-3.031 17.94.14 5.617 3.661 8.62 10.88 8.461 20.325-.08 4.774-.955 9.802-2.605 14.945a64.116 64.116 0 0 1-2.407 6.319l-24.31 63.644z"/>
        <path fill="#F8BD55" d="M32.249 152.434c0-6.464.583-10.782 1.755-12.949.445-.828.901-1.544 1.364-2.156.884-1.168 2.125-2.217 3.717-3.136 3.927-2.267 5.896.424 5.896 8.066 0 3.802-.847 8.045-2.552 12.732a369.36 369.36 0 0 1-2.265 6.019c-1.918 4.937-3.113 9.238-3.59 12.905l7.857-4.532v3.646l-11.94 6.894v-2.311c0-3.122 1.361-8.518 4.083-16.179.014-.022.456-1.255 1.324-3.707.872-2.453 1.397-3.867 1.574-4.254.45-1.215.815-2.705 1.093-4.467.28-1.765.417-3.465.417-5.118 0-1.646-.102-2.94-.304-3.874-.207-.933-.456-1.483-.757-1.65-.3-.162-.655-.126-1.071.117a3.294 3.294 0 0 0-1.01.864c-.98 1.255-1.47 3.877-1.47 7.867v5.39l-4.121 2.376v-2.543"/>
        <path fill="#4CA983" d="M152.796 106.296l-35.127-53.478 88.345-51 35.163 53.478-88.381 51"/>
        <path fill="#5BC699" d="M150.954 116.481l-35.127-53.477 88.345-50.996 35.163 53.474-88.381 51"/>
        <path fill="#373936" d="M205.71 3.1l34.11 51.874-86.72 50.041-34.073-51.875L205.71 3.1zm.796-2.276l-.184-.285L116.645 52.3l-.333.192 35.992 54.797.188.286 89.713-51.766.33-.192L206.505.824z"/>
        <path fill="#4CA983" d="M329.985 106.592l35.126-53.477-88.344-51-35.163 53.478 88.38 51"/>
        <path fill="#5BC699" d="M331.722 116.481l35.127-53.477-88.345-50.996-35.163 53.474 88.381 51"/>
        <path fill="#373936" d="M242.961 55.27l34.11-51.874 86.683 50.041-34.073 51.875-86.72-50.041zm33.802-54.265l-.3-.17-36.006 54.761-.21.319 89.749 51.784.297.17 35.618-54.23.565-.846-89.713-51.788z"/>
        <path fill="#4CA983" d="M153.241 106.592v94.396l88.381 50.996v-94.396l-88.38-50.996"/>
        <path fill="#34795F" d="M240.667 158.142v92.186L154.2 200.435v-92.183l86.467 49.89zm.959-1.657l-88.797-51.238-.547-.315v96.61l89.16 51.444.18.105 88.862-51.274.478-.275v-96.61l-89.336 51.553z"/>
        <path fill="#4CA983" d="M330.003 106.592l-88.38 50.996-88.382-50.996 88.381-51 88.381 51"/>
        <path fill="#373936" d="M328.063 106.592l-86.44 49.875-86.438-49.875 86.44-49.874 86.438 49.874zm-85.952-51.838l-.485-.283-89.778 51.807-.547.314 90.14 52.013.181.104 89.778-51.802.546-.315-89.835-51.838z"/>
        <path fill="#373936" d="M241.604 55.593l-89.568 51 89.29 51.509.933-.492-.655.593V55.593"/>
        <path fill="#4CA983" d="M241.604 157.588l-58.567 1.95-90.107-51.076 60.293-1.87 88.381 50.996"/>
        <path fill="#5BC699" d="M241.029 165.61l-58.568 1.947-90.11-51.072 60.297-1.874 88.38 51"/>
        <path fill="#A1A29F" d="M315.947 209.785l-1.546.893v-51.513l1.542-.872.004 51.492"/>
        <path fill="#4CA983" d="M241.622 157.588l58.57 1.95 90.104-51.076-60.293-1.87-88.38 50.996"/>
        <path fill="#5BC699" d="M241.029 165.61l58.567 1.947 90.107-51.072-60.294-1.874-88.38 51"/>
        <path fill="#373936" d="M386.851 109.316l-86.897 49.252-54.948-1.823 85.24-49.19 56.605 1.76zm-56.823-3.682l-.267-.007-91.52 52.808 61.92 2.061.27.007 93.31-52.89-63.713-1.98z"/>
        <path fill="#34795F" d="M194.444 130.746l46.679-26.35 45.303 26.61-45.303 26.673-46.679-26.933"/>
        <path fill="#99FFD4" d="M203.557 135.9l37.566 21.428 37.58-22.18-36.3-21.137-38.846 21.89"/>
        <path fill="#000" d="M183.276 158.568l-86.901-49.252 56.606-1.762 59.334 34.239 25.225 14.974-54.264 1.801zm57.836-52.967l43.255 25.41-43.016 25.326-44.565-25.717 44.326-25.019zm2.312 51.933l45.061-26.523-46.834-27.519-.518-.296-46.446 26.216-40.983-23.648-.235-.137-63.985 1.985 93.075 52.754.239.137 57.796-1.92.007.003.525.3.583-.343 3.279-.108-1.564-.901z"/>
        <path fill="#DADAD5" d="M358.43 230.688c0-.019.004-.037 0-.055v-54.638h-52.895v54.725c.003.029-.004.062 0 .09.09.68.626 1.379 1.588 1.936l21.35 12.319c1.939 1.118 4.87 1.237 6.55.271l22.29-12.862c.806-.466 1.165-1.1 1.118-1.754v-.032"/>
        <path fill="#373936" d="M306.53 176.99v53.73c.043.347.456.796 1.09 1.165l21.348 12.316c1.636.94 4.18 1.067 5.559.274l22.29-12.862c.296-.17.651-.455.626-.824l-.011-.069.01-.13-.003-53.6h-50.91zm25.64 69.988c-1.458 0-2.981-.358-4.194-1.056l-21.348-12.316c-1.202-.694-1.94-1.638-2.078-2.662l-.01-.097.007-.152-.004-54.335c0-.748.608-1.356 1.357-1.356h52.136c.767 0 1.39.622 1.39 1.389l.007 54.302-.007-.004v.03c.072.997-.518 1.978-1.618 2.614l-22.29 12.859c-.912.524-2.106.784-3.347.784z"/>
        <path fill="#DCDBD6" d="M357.312 177.75l-22.29 12.861c-1.679.97-4.61.847-6.55-.271l-21.349-12.32c-1.936-1.117-2.146-2.81-.47-3.78l22.29-12.861c1.679-.966 4.61-.847 6.55.271l21.349 12.32c1.94 1.12 2.15 2.81.47 3.78"/>
        <path fill="#F5F5F3" d="M335.026 190.611l18.305-10.561-17.834-10.29c-1.94-1.122-4.871-1.241-6.55-.272L310.64 180.05l17.835 10.29c1.94 1.118 4.871 1.24 6.55.271"/>
        <path fill="#000" d="M331.78 161.715c-.887 0-1.726.174-2.342.525l-22.29 12.862c-.235.137-.633.42-.633.78 0 .308.29.807 1.104 1.281l21.349 12.316c1.636.94 4.18 1.067 5.559.271l22.29-12.862v.004c.235-.141.633-.423.633-.785 0-.307-.29-.806-1.104-1.277l-21.349-12.32c-.908-.524-2.102-.795-3.217-.795zm.39 30.542c-1.454 0-2.981-.358-4.194-1.056l-21.348-12.32c-1.336-.774-2.1-1.866-2.1-2.998 0-1.006.58-1.895 1.63-2.5l22.289-12.861c1.983-1.14 5.298-1.028 7.542.267l21.352 12.32c1.332.774 2.096 1.866 2.096 2.998 0 1.006-.58 1.895-1.629 2.5v.003l-22.29 12.862c-.912.525-2.106.785-3.347.785z"/>
        <path fill="#000" d="M331.986 191.255v54.725l4.34-1.342 22.12-13.072V176.99l-23.423 13.621-3.037.644"/>
        <path fill="#DADAD5" d="M323.12 250.299c-.004-.018 0-.036 0-.054l-.004-22.874h-52.893v22.96c0 .03-.003.058 0 .09.09.68.623 1.379 1.59 1.932l21.348 12.32c1.936 1.121 4.868 1.24 6.547.271l22.29-12.862c.807-.463 1.165-1.096 1.118-1.75h.004v-.033"/>
        <path fill="#000" d="M271.215 228.365v21.966c.044.348.456.796 1.093 1.165l21.349 12.316c1.632.94 4.176 1.067 5.555.275l22.29-12.862c.3-.174.651-.456.626-.825h.004l-.011-.072.007-.127-.004-21.836h-50.909zm25.641 38.225c-1.458 0-2.982-.358-4.194-1.056l-21.35-12.316c-1.2-.695-1.939-1.639-2.077-2.662l-.01-.102.007-.148-.004-22.57c0-.749.608-1.356 1.357-1.356h52.136c.768 0 1.39.622 1.39 1.389l.007 22.537-.007-.004v.026c.073 1.002-.514 1.982-1.618 2.618l-22.29 12.859c-.908.524-2.102.785-3.347.785z"/>
        <path fill="#DCDBD6" d="M321.998 229.125l-22.29 12.862c-1.68.97-4.61.846-6.547-.271l-21.349-12.32c-1.94-1.117-2.15-2.81-.47-3.78l22.29-12.862c1.679-.969 4.61-.846 6.546.272l21.35 12.32c1.939 1.117 2.149 2.81.47 3.779"/>
        <path fill="#F5F5F3" d="M299.712 241.987l18.305-10.562-17.835-10.294c-1.94-1.117-4.871-1.237-6.547-.27l-18.305 10.564 17.835 10.29c1.936 1.118 4.867 1.241 6.547.272"/>
        <path fill="#000" d="M296.469 213.09c-.89 0-1.73.174-2.342.525l-22.29 12.862c-.238.138-.636.42-.636.782 0 .307.293.806 1.107 1.28l21.349 12.316c1.632.94 4.176 1.067 5.555.271l22.29-12.862v.004c.239-.141.637-.427.637-.785 0-.311-.29-.807-1.104-1.28l-21.352-12.316c-.909-.525-2.1-.796-3.214-.796zm.387 30.543c-1.455 0-2.982-.358-4.194-1.056l-21.35-12.32c-1.331-.774-2.098-1.866-2.098-2.998 0-1.006.579-1.896 1.628-2.5l22.29-12.862c1.987-1.143 5.298-1.027 7.542.268l21.353 12.32c1.335.773 2.099 1.862 2.099 2.998 0 1.005-.583 1.895-1.633 2.5v.003l-22.29 12.862c-.911.524-2.102.785-3.347.785z"/>
        <path fill="#000" d="M296.672 242.63v22.961l4.339-1.345 22.12-13.068v-22.813l-23.423 13.622-3.036.644"/>
        <path fill="#DADAD5" d="M194.415 227.638l-.224-12.68H89.488l.141 12.355c-.033.318 0 0 .04.322v.003c.239 1.83 1.683 3.711 4.277 5.209l39.068 22.54c5.215 3.01 13.105 3.34 17.621.732l40.765-23.522c2.27-1.31 3.254-3.11 3.015-4.959"/>
        <path fill="#000" d="M193.691 214.968l-50.717 3.357v39.526c2.685-.061 5.233-.608 7.162-1.722l40.765-23.52c2.27-1.31 3.254-3.111 3.011-4.96l-.22-12.68"/>
        <path fill="#000" d="M90.555 227.302c.019.065.033.137.04.213.21 1.592 1.603 3.241 3.818 4.522l39.068 22.54c4.95 2.862 12.439 3.19 16.688.731l40.765-23.52c1.845-1.068 2.75-2.497 2.551-4.027l-.007-.108-.207-11.759H90.432l.13 11.408h-.007zm52.43 31.497c-3.637 0-7.463-.883-10.441-2.6L93.48 233.656c-2.75-1.588-4.43-3.668-4.734-5.856a1.381 1.381 0 0 1-.05-.586l-.156-13.191h105.354c.677 0 1.227.543 1.238 1.219l.217 12.33c.271 2.275-.992 4.399-3.478 5.834l-40.769 23.522c-2.168 1.251-5.077 1.87-8.117 1.87z"/>
        <path fill="#DCDBD6" d="M191.245 220.234L150.48 243.76c-4.517 2.605-12.406 2.279-17.625-.73l-39.064-22.541c-5.215-3.013-5.783-7.564-1.267-10.171l40.769-23.522c4.516-2.607 12.406-2.282 17.621.727l39.068 22.545c5.215 3.01 5.78 7.56 1.263 10.167"/>
        <path fill="#F5F5F3" d="M151.015 193.176c-5.215-3.01-13.104-3.335-17.62-.727L92.628 215.97a6.844 6.844 0 0 0-2.023 1.754c.72.988 1.766 1.935 3.2 2.764l39.067 22.54c5.215 3.01 13.105 3.336 17.621.731l40.765-23.525a6.908 6.908 0 0 0 2.027-1.754c-.724-.987-1.77-1.935-3.203-2.76l-39.068-22.544"/>
        <path fill="#000" d="M140.944 185.956c-2.697 0-5.266.543-7.184 1.65l-40.765 23.52c-1.665.963-2.58 2.243-2.58 3.607 0 1.733 1.4 3.534 3.843 4.944l39.067 22.541c4.951 2.858 12.44 3.183 16.688.727l40.761-23.52c1.694-.974 2.584-2.222 2.584-3.607 0-1.729-1.4-3.53-3.847-4.944l-39.064-22.538c-2.718-1.573-6.206-2.38-9.503-2.38zm1.881 60.48c-3.637 0-7.458-.88-10.437-2.597l-39.064-22.541c-3.04-1.754-4.784-4.145-4.784-6.565 0-2.062 1.248-3.917 3.517-5.227l40.769-23.52c4.766-2.757 13.094-2.424 18.559.73l39.064 22.537c3.04 1.754 4.784 4.149 4.78 6.565 0 2.062-1.248 3.917-3.514 5.227l-40.768 23.52c-2.172 1.252-5.082 1.87-8.122 1.87z"/>
        <path fill="#DCDBD6" d="M141.953 221.945l-4.513-14.435c-4.932.51-9.659 1.859-13.473 4.058-9.935 5.733-9.935 15.025 0 20.758 9.93 5.733 26.039 5.733 35.97 0 9.615-5.548 9.894-14.42.9-20.183l-18.884 9.802"/>
        <path fill="#DCDBD6" d="M162.173 206.345c-.282-.18-.547-.365-.847-.539-5.75-3.32-13.702-4.586-21.142-3.816l4.237 13.571 17.752-9.216"/>
        <path fill="#000" d="M136.778 202.287c-4.705.575-8.96 1.902-12.345 3.856-4.502 2.597-6.98 5.997-6.98 9.567 0 3.57 2.478 6.97 6.98 9.566 9.66 5.574 25.377 5.574 35.037 0 4.411-2.542 6.883-5.873 6.966-9.371.073-3.24-1.929-6.395-5.656-8.916l-19.388 10.066-4.614-14.768zm5.172 29.015c-6.681 0-13.366-1.468-18.45-4.405-5.107-2.944-7.922-6.92-7.922-11.187 0-4.268 2.815-8.244 7.922-11.188 3.789-2.192 8.577-3.635 13.846-4.181l.76-.08 4.408 14.1 18.37-9.539.46.293c4.582 2.941 7.057 6.786 6.963 10.833-.097 4.178-2.902 8.066-7.9 10.949-5.089 2.937-11.773 4.405-18.457 4.405z"/>
        <path fill="#000" d="M141.425 196.58l3.557 11.396 15.28-7.928c-5.045-2.713-11.965-3.971-18.837-3.469zm2.436 14.087l-4.912-15.726 1.137-.12c7.911-.82 16.021.655 21.71 3.94.221.126.424.26.627.394l1.614 1.038-20.176 10.474z"/>
    </g>
</svg>
