<svg xmlns="http://www.w3.org/2000/svg" width="13" height="14" viewBox="0 0 13 14">
    <g fill="#000" fill-rule="nonzero">
        <path d="M9.235 9.163c-.397-.392-.893-.392-1.287 0-.3.298-.601.597-.897.9-.081.083-.15.101-.248.045-.195-.106-.402-.192-.589-.308-.872-.548-1.602-1.254-2.25-2.047-.32-.395-.606-.817-.806-1.292-.04-.096-.033-.16.046-.237.3-.291.594-.59.89-.888.411-.414.411-.9-.003-1.316-.235-.238-.47-.47-.705-.708-.243-.243-.483-.488-.728-.728-.397-.387-.892-.387-1.287.002-.303.299-.594.604-.902.898-.286.27-.43.601-.46.988-.048.63.106 1.223.323 1.802.445 1.198 1.123 2.262 1.944 3.238a12.028 12.028 0 0 0 3.984 3.116c.697.34 1.42.6 2.206.642.541.03 1.011-.106 1.388-.528.258-.288.548-.55.821-.826.405-.41.407-.905.005-1.31-.48-.482-.963-.963-1.445-1.443zM9.2 7l.996-.174a4.583 4.583 0 0 0-1.244-2.454 4.393 4.393 0 0 0-2.537-1.294l-.14 1.024a3.408 3.408 0 0 1 1.964 1c.508.52.84 1.175.961 1.898z"/>
        <path d="M10.528 2.831A7.114 7.114 0 0 0 6.412.726L6.274 1.73a6.168 6.168 0 0 1 3.557 1.819A6.438 6.438 0 0 1 11.575 7l.974-.17a7.485 7.485 0 0 0-2.021-3.999z"/>
    </g>
</svg>
