<?xml version="1.0" encoding="UTF-8"?>
<svg width="60px" height="61px" viewBox="0 0 60 61" version="1.1" xmlns="http://www.w3.org/2000/svg" xmlns:xlink="http://www.w3.org/1999/xlink">
    <!-- Generator: Sketch 48.1 (47250) - http://www.bohemiancoding.com/sketch -->
    <title>proFleet</title>
    <desc>Created with Sketch.</desc>
    <defs>
        <polygon id="path-1" points="0 0 60 0 60 59.99 0 59.99"></polygon>
    </defs>
    <g id="landing-page" stroke="none" stroke-width="1" fill="none" fill-rule="evenodd" transform="translate(-754.000000, -3547.000000)">
        <g id="proFleet" transform="translate(754.000000, 3547.685624)">
            <g id="Group-8">
                <mask id="mask-2" fill="white">
                    <use xlink:href="#path-1"></use>
                </mask>
                <g id="Clip-2"></g>
                <path d="M53.711,11.2878333 L48.711,6.28783333 C48.3763333,5.95316667 47.8521667,5.8985 47.4556667,6.15816667 L41.8996667,9.80016667 L35.9088333,7.30016667 L34.9901667,0.858 C34.9193333,0.365166667 34.4973333,0 34,0 L26,0 C25.5026667,0 25.0806667,0.365166667 25.0098333,0.858 L24.0898333,7.30016667 L18.1048333,9.80016667 L12.5481667,6.16016667 C12.1516667,5.90033333 11.6276667,5.955 11.293,6.28966667 L6.293,11.2896667 C5.95766667,11.6256667 5.90433333,12.151 6.16466667,12.5468333 L9.86516667,18.1673333 L9.24483333,19.6003333 L11.0806667,20.3938333 L11.916,18.4661667 C12.0501667,18.1563333 12.0188333,17.7995 11.8326667,17.5181667 L8.28133333,12.1283333 L12.1301667,8.27933333 L17.4518333,11.765 C17.7305,11.9453333 18.08,11.9778333 18.3866667,11.8508333 L25.3866667,8.92 C25.7103333,8.78316667 25.9381667,8.48633333 25.987,8.13933333 L26.8671667,2 L33.1328333,2 L34.0098333,8.142 C34.0591667,8.48966667 34.2865,8.78583333 34.61,8.92316667 L41.61,11.8521667 C41.9166667,11.9785 42.2656667,11.9466667 42.5443333,11.7663333 L47.8678333,8.28183333 L51.7441667,12.1581667 L49.1438333,16.558 C48.989,16.819 48.961,17.136 49.0676667,17.42 L50.177,20.349 L52.0481667,19.6413333 L51.1086667,17.1621667 L53.864,12.5038333 C54.0963333,12.1113333 54.0331667,11.6106667 53.711,11.2878333 Z" id="Fill-1" fill="#FFFFFF" mask="url(#mask-2)"></path>
                <path d="M40.707,38.293 L37.707,35.293 C37.5195,35.1055 37.265,35 37,35 L23,35 C22.735,35 22.4805,35.1055 22.293,35.293 L19.293,38.293 C19.1055,38.4805 19,38.735 19,39 L19,59 C19,59.552 19.448,60 20,60 L40,60 C40.552,60 41,59.552 41,59 L41,39 C41,38.735 40.8945,38.4805 40.707,38.293 Z M33.414,37 L36.586,37 L33,40.586 L31.414,39 L33.414,37 Z M31.586,42 L30.293,43.293 C30.1048333,43.4798333 29.9993333,43.7343333 30,44 C29.998,43.737 29.8925,43.4856667 29.707,43.3001667 L28.414,42 L30,40.414 L31.586,42 Z M30.586,37 L30,37.6 L29.414,37 L30.586,37 Z M26.586,37 L28.586,39 L27,40.586 L23.414,37 L26.586,37 Z M26.125,58 L21,58 L21,39.414 L22,38.414 L27.9426667,44.3568333 L26.125,58 Z M28.1431667,58 L29.9908333,44.1321667 C29.9966667,44.0898333 30,44.0475 30,44.0051667 C30,44.069 30.0071667,44.1328333 30.0201667,44.196 L32.78,58 L28.1431667,58 Z M39,58 L34.8203333,58 L32.086,44.3288333 L33.707,42.707 L38,38.414 L39,39.414 L39,58 Z" id="Fill-3" fill="#FFFFFF" mask="url(#mask-2)"></path>
                <path d="M37,13 L28,13 C24.6875,13.0033333 22.0033333,15.6875 22,19 L22,25 C22.0051667,29.416 25.584,32.9948333 30,33 C34.416,32.9948333 37.9948333,29.416 38,25 L38,14 C38,13.448 37.552,13 37,13 Z M36,25 C36,28.3138333 33.3138333,31 30,31 C26.6861667,31 24,28.3138333 24,25 L24,21 L32,21 C33.4778333,20.9993333 34.9036667,20.4511667 36,19.4603333 L36,25 Z M32,19 L24,19 C24,16.791 25.791,15 28,15 L36,15 C36,17.209 34.209,19 32,19 Z" id="Fill-4" fill="#FFFFFF" mask="url(#mask-2)"></path>
                <path d="M59.707,42.293 L56.707,39.293 C56.5195,39.1055 56.265,39 56,39 L48,39 C47.735,39 47.4805,39.1055 47.293,39.293 L44.293,42.293 C44.1055,42.4805 44,42.735 44,43 L44,59 C44,59.552 44.448,60 45,60 L59,60 C59.552,60 60,59.552 60,59 L60,43 C60,42.735 59.8945,42.4805 59.707,42.293 Z M58,58 L53,58 L53,43 L51,43 L51,58 L46,58 L46,43.414 L48,41.414 L50.293,43.707 L51.707,42.293 L50.414,41 L53.6646667,41 L52.3138333,42.2708333 L53.6861667,43.7291667 L56.0703333,41.4836667 L58,43.414 L58,58 Z" id="Fill-5" fill="#FFFFFF" mask="url(#mask-2)"></path>
                <path d="M53,22 L51.0331667,22 C48.2806667,22.0051667 46.0481667,24.2305 46.0331667,26.983 L46.017,31.9901667 C46.0058333,35.2981667 48.679,37.989 51.987,38 C51.9935,38 52.0006667,38 52.0071667,38 C55.3138333,37.9961667 57.9948333,35.317 58,32.0098333 L58,27 C57.9966667,24.2401667 55.7598333,22.0033333 53,22 Z M48.0331667,26.9901667 C48.0383333,25.3496667 49.36,24.0181667 51,24 C51,25.6438333 49.677,26.9818333 48.0331667,27 L48.0331667,26.9901667 Z M56,32.0071667 C55.9961667,34.2096667 54.2121667,35.9948333 52.0098333,36 C49.8066667,36 48.0201667,34.2135 48.0201667,32.0098333 C48.0201667,32.0065 48.0201667,32.0033333 48.0201667,32 L48.03,29 C49.5931667,28.9908333 51.0618333,28.2506667 52,27 C52.944,28.2591667 54.4265,29 56,29 L56,32.0071667 Z M53,24 C54.6568333,24 56,25.3431667 56,27 C54.3431667,27 53,25.6568333 53,24 Z" id="Fill-6" fill="#FFFFFF" mask="url(#mask-2)"></path>
                <path d="M15.707,42.293 L12.707,39.293 C12.5195,39.1055 12.265,39 12,39 L4,39 C3.735,39 3.4805,39.1055 3.293,39.293 L0.293,42.293 C0.1055,42.4805 0,42.735 0,43 L0,59 C0,59.552 0.448,60 1,60 L15,60 C15.552,60 16,59.552 16,59 L16,43 C16,42.735 15.8945,42.4805 15.707,42.293 Z M14,58 L9,58 L9,43 L7,43 L7,58 L2,58 L2,43.414 L4,41.414 L6.293,43.707 L7.707,42.293 L6.414,41 L9.66466667,41 L8.31383333,42.2708333 L9.68616667,43.7291667 L12.0703333,41.4836667 L14,43.414 L14,58 Z" id="Fill-7" fill="#FFFFFF" mask="url(#mask-2)"></path>
            </g>
            <path d="M9,22 L7.03316667,22 C4.28066667,22.0051667 2.04816667,24.2305 2.03316667,26.983 L2.017,31.9901667 C2.00583333,35.2981667 4.679,37.989 7.987,38 C7.9935,38 8.00066667,38 8.00716667,38 C11.3138333,37.9961667 13.9948333,35.317 14,32.0098333 L14,27 C13.9966667,24.2401667 11.7598333,22.0033333 9,22 Z M9,24 C10.267,24.0051667 11.3938333,24.8053333 11.8158333,26 L10,26 C8.733,25.9948333 7.60616667,25.1946667 7.18416667,24 L9,24 Z M5,24.808 L5,24.9908333 C5.00133333,25.2571667 4.89516667,25.5123333 4.705,25.6991667 C4.57483333,25.8255 4.4115,25.9121667 4.23366667,25.9491667 C4.39783333,25.5143333 4.66016667,25.1236667 5,24.808 Z M12,32.0098333 C11.9948333,34.2116667 10.2116667,35.9948333 8.00983333,36 C5.80666667,36 4.02016667,34.2135 4.02016667,32.0098333 C4.02016667,32.0065 4.02016667,32.0033333 4.02016667,32 L4.03316667,27.9921667 C4.81583333,27.9876667 5.56583333,27.6745 6.11916667,27.1211667 C6.27733333,26.961 6.41666667,26.7838333 6.53583333,26.5931667 C7.46416667,27.4941667 8.70633333,27.9986667 10,28 L12,28 L12,32.0098333 Z" id="Fill-9" fill="#FFFFFF"></path>
        </g>
    </g>
</svg>