<?xml version="1.0" encoding="utf-8"?>
<!-- Generator: Adobe Illustrator 24.1.0, SVG Export Plug-In . SVG Version: 6.00 Build 0)  -->
<svg version="1.1" id="Calque_1" xmlns="http://www.w3.org/2000/svg" xmlns:xlink="http://www.w3.org/1999/xlink" x="0px" y="0px"
	 viewBox="0 0 100 100" style="enable-background:new 0 0 100 100;" xml:space="preserve">
<style type="text/css">
	.st0{fill:#FFFFFF;}
	.st1{fill-rule:evenodd;clip-rule:evenodd;fill:#FFFFFF;}
	.st2{fill:none;stroke:#FFFFFF;stroke-width:5.9871;stroke-linecap:round;stroke-linejoin:round;}
	.st3{fill:none;stroke:#FFFFFF;stroke-width:5.9706;stroke-linecap:round;stroke-linejoin:round;}
	.st4{fill-opacity:0;}
	.st5{fill-rule:evenodd;clip-rule:evenodd;}
	.st6{stroke:#000000;stroke-width:9;stroke-miterlimit:10;}
	.st7{fill:none;stroke:#000000;stroke-width:5.9871;stroke-linecap:round;stroke-linejoin:round;}
	.st8{fill:none;stroke:#000000;stroke-width:5.9706;stroke-linecap:round;stroke-linejoin:round;}
	.st9{fill:#020202;}
</style>
<g>
	<path class="st0" d="M48.67,62.07c-0.8-0.96-1.19-2.24-1.19-3.84c0-3.26,0.59-5.98,1.77-8.16c1.19-2.17,2.93-4.57,5.23-7.19
		c1.73-1.98,2.99-3.63,3.79-4.94c0.8-1.31,1.2-2.8,1.2-4.46c0-1.79-0.66-3.21-1.97-4.27c-1.31-1.06-3.08-1.58-5.32-1.58
		c-2.05,0-3.95,0.42-5.71,1.25c-1.76,0.84-4.11,2.11-7.05,3.84c-1.86,1.02-3.4,1.53-4.61,1.53c-1.34,0-2.48-0.59-3.4-1.78
		c-0.93-1.18-1.4-2.6-1.4-4.27c0-1.15,0.21-2.12,0.62-2.92c0.41-0.8,1.07-1.55,1.97-2.26c2.82-2.24,6.06-3.98,9.74-5.23
		c3.68-1.25,7.37-1.87,11.09-1.87c3.97,0,7.53,0.7,10.7,2.11c3.16,1.41,5.63,3.35,7.39,5.81c1.76,2.46,2.64,5.23,2.64,8.3
		c0,2.37-0.47,4.52-1.39,6.48c-0.93,1.95-2.03,3.65-3.31,5.08c-1.28,1.44-3.01,3.22-5.18,5.32c-2.43,2.24-4.26,4.11-5.47,5.61
		c-1.22,1.5-1.98,3.18-2.3,5.04c-0.26,1.22-0.79,2.16-1.58,2.83c-0.8,0.67-1.77,1.01-2.93,1.01C50.58,63.51,49.48,63.03,48.67,62.07
		z M46.32,82.65c-1.53-1.57-2.3-3.53-2.3-5.9c0-2.37,0.77-4.33,2.3-5.9c1.54-1.57,3.49-2.35,5.86-2.35c2.3,0,4.22,0.78,5.75,2.35
		c1.54,1.57,2.3,3.54,2.3,5.9c0,2.37-0.77,4.33-2.3,5.9C56.4,84.22,54.48,85,52.18,85C49.81,85,47.86,84.22,46.32,82.65z"/>
</g>
</svg>
