<?xml version="1.0" encoding="UTF-8"?>
<svg width="91px" height="91px" viewBox="0 0 91 91" version="1.1" xmlns="http://www.w3.org/2000/svg" xmlns:xlink="http://www.w3.org/1999/xlink">
    <!-- Generator: Sketch 48.1 (47250) - http://www.bohemiancoding.com/sketch -->
    <title>sameday</title>
    <desc>Created with Sketch.</desc>
    <defs></defs>
    <g id="landing-page" stroke="none" stroke-width="1" fill="none" fill-rule="evenodd" transform="translate(-529.000000, -1004.000000)">
        <g id="sameday" transform="translate(529.000000, 1004.000000)">
            <path d="M45.6465191,16.7560586 C61.378941,16.7732852 74.1285308,29.522875 74.1457574,45.2552969 C74.1457574,60.9952773 61.3857964,73.7552383 45.6465191,73.7552383 C29.9065386,73.7552383 17.1465777,60.9952773 17.1465777,45.2552969 C17.1465777,29.5160195 29.9065386,16.7560586 45.6465191,16.7560586 Z M47.1461089,70.6790664 C60.0263042,69.9079141 70.2991363,59.6357852 71.0695855,46.7555898 L68.145816,46.7555898 C67.3177105,46.7555898 66.6462261,46.0841055 66.6462261,45.2552969 C66.6462261,44.4271914 67.3177105,43.7550039 68.145816,43.7550039 L71.0695855,43.7550039 C70.2991363,30.8755117 60.0263042,20.6026797 47.1461089,19.8322305 L47.1461089,22.7552969 C47.1461089,23.5841055 46.4746246,24.2555898 45.6465191,24.2555898 C44.8177105,24.2555898 44.1462261,23.5841055 44.1462261,22.7552969 L44.1462261,19.8322305 C31.2660308,20.6026797 20.9931988,30.8755117 20.2227496,43.7550039 L23.1465191,43.7550039 C23.9746246,43.7550039 24.6461089,44.4271914 24.6461089,45.2552969 C24.6461089,46.0841055 23.9746246,46.7555898 23.1465191,46.7555898 L20.2227496,46.7555898 C20.9931988,59.6357852 31.2660308,69.9086172 44.1462261,70.6790664 L44.1462261,67.7552969 C44.1462261,66.9271914 44.8177105,66.2550039 45.6465191,66.2550039 C46.4746246,66.2550039 47.1461089,66.9271914 47.1461089,67.7552969 L47.1461089,70.6790664 Z" id="Clip-2" fill="#393939"></path>
            <path d="M64.1200738,49.8317617 C64.9068707,50.0935 65.333316,50.9434023 65.0717535,51.730375 C64.8094878,52.517875 63.9594097,52.9436172 63.1724371,52.6813516 L55.0198785,49.9635977 C54.7349371,50.536293 54.3977886,51.0808633 54.013355,51.5916836 C50.539566,56.2052383 43.9841558,57.128793 39.3706011,53.6550039 L37.7040191,55.3159609 C37.6917144,55.3284414 37.6794097,55.3407461 37.6669292,55.3525234 C37.0710308,55.9278555 36.1219878,55.911332 35.5459527,55.3159609 C34.9706207,54.7200625 34.9869683,53.7704922 35.5830425,53.1949844 L37.2468121,51.5312148 C35.4875933,49.1891055 34.7865777,46.2180508 35.3139214,43.3368203 C36.3575347,37.6321914 41.8273199,33.8543008 47.5321246,34.8972109 C53.2360503,35.941 57.0146441,41.4114883 55.970855,47.1154141 L64.1200738,49.8317617 Z M45.6465191,52.7555313 C48.3182183,52.7465664 50.7826714,51.3135977 52.1112261,48.9948672 L47.6219488,47.4951016 C46.8838433,48.1755508 45.844273,48.4214688 44.8795855,48.1426797 L41.517066,51.5059023 C42.7399761,52.3202969 44.1764605,52.7548281 45.6465191,52.7555313 Z M53.0560503,46.1452773 C53.1042144,45.850668 53.1344488,45.5532461 53.1460503,45.2552969 C53.1488628,43.7755703 52.7141558,42.3281875 51.8964214,41.0949063 C49.6070464,37.6430898 44.9530621,36.700375 41.5012457,38.98975 C38.0494292,41.2789492 37.1067144,45.9331094 39.3959136,49.38475 L42.7584332,46.0222305 C42.6877691,45.7724453 42.6499761,45.5149258 42.6466363,45.2552969 C42.6485699,43.8332266 43.6491167,42.6076797 45.0416558,42.321332 C46.6648199,41.9875234 48.2508941,43.0327188 48.5847027,44.6551797 L53.0560503,46.1452773 Z" id="Clip-5" fill="#5EDEA8"></path>
            <path d="M45.6465113,0.256 L45.6693836,0.256 C56.7401926,0.258810481 67.4223532,4.34395523 75.6701324,11.7292422 C85.5620269,20.587672 90.6153316,32.8350475 90.6465191,45.144233 L90.6465191,45.3735429 C90.6195417,56.020833 86.8345379,66.6989085 79.1727496,75.2548281 L83.1455816,75.2548281 C83.9743902,75.2548281 84.6458746,75.9263125 84.6458746,76.7551211 C84.6458746,77.5832266 83.9743902,78.2548867 83.1455816,78.2548867 L75.6460503,78.2548867 C74.8172417,78.2548867 74.1457574,77.5832266 74.1457574,76.7551211 L74.1457574,69.2548867 C74.1457574,68.4267813 74.8172417,67.7545938 75.6460503,67.7545938 C76.4741558,67.7545938 77.1456402,68.4267813 77.1456402,69.2548867 L77.1456402,73.0246914 C91.5495074,56.6872305 91.0736675,32.0497305 76.050523,16.2802188 C60.0502105,-0.514449219 33.4654058,-1.15851172 16.671441,14.8410977 C-0.123227002,30.8412344 -0.767289502,57.4260391 15.2328472,74.2200039 C15.8041363,74.8202969 15.7816363,75.7698672 15.1815191,76.3411563 C14.5819292,76.9131484 13.6323589,76.8897695 13.0610699,76.2903555 C5.31551471,68.1583767 0.899560517,57.4336092 0.657065916,46.230056 L0.657065966,44.2712425 C1.18051796,19.8731767 21.1221861,0.25601247 45.6464957,0.256 L45.6465113,0.256 Z" id="Clip-8" fill="#393939"></path>
            <path d="M29.8172417,82.6054727 L24.6468121,85.1817227 L24.6468121,87.2547109 L29.1464605,87.2547109 C29.9752691,87.2547109 30.6467535,87.9261953 30.6467535,88.7550039 C30.6467535,89.5831094 29.9752691,90.2545938 29.1464605,90.2545938 L23.1465191,90.2545938 C22.3184136,90.2545938 21.6469292,89.5831094 21.6469292,88.7550039 L21.6469292,84.2546523 C21.6462261,83.6861758 21.9675542,83.1663906 22.476441,82.9123867 L27.6468707,80.327875 L27.6468707,78.2548867 L24.6468121,78.2548867 L24.6468121,79.7551797 C24.6468121,80.5832852 23.9753277,81.2547695 23.1465191,81.2547695 C22.3184136,81.2547695 21.6469292,80.5832852 21.6469292,79.7551797 L21.6469292,76.7551211 C21.6469292,75.9263125 22.3184136,75.2548281 23.1465191,75.2548281 L29.1464605,75.2548281 C29.9752691,75.2548281 30.6467535,75.9263125 30.6467535,76.7551211 L30.6467535,81.2547695 C30.649566,81.8260586 30.3280621,82.3498867 29.8172417,82.6054727 Z" id="Clip-11" fill="#5EDEA8"></path>
            <path d="M41.1461675,90.2552969 C40.3182378,90.2552969 39.6465777,89.5838125 39.6465777,88.7550039 L39.6465777,85.7551211 L35.1464019,85.7551211 C34.3175933,85.7551211 33.6459332,85.0834609 33.6459332,84.2546523 L33.6459332,76.7551211 C33.6459332,75.9263125 34.3175933,75.2548281 35.1464019,75.2548281 C35.9745074,75.2548281 36.6466949,75.9263125 36.6466949,76.7551211 L36.6466949,82.7550625 L39.6465777,82.7550625 L39.6465777,78.2548867 C39.6465777,77.4267813 40.3182378,76.754418 41.1461675,76.754418 C41.9749761,76.754418 42.6466363,77.4267813 42.6466363,78.2548867 L42.6466363,82.7550625 L44.1462261,82.7550625 C44.9750347,82.7550625 45.6465191,83.4265469 45.6465191,84.2546523 C45.6465191,85.0834609 44.9750347,85.7551211 44.1462261,85.7551211 L42.6466363,85.7551211 L42.6466363,88.7550039 C42.6466363,89.5838125 41.9749761,90.2552969 41.1461675,90.2552969 Z" id="Clip-14" fill="#5EDEA8"></path>
            <path d="M51.7405035,76.2284805 L51.7405035,76.2319961 C52.0308941,75.4560977 52.8946832,75.061293 53.6712847,75.3516836 C54.4471832,75.6413711 54.8414605,76.5058633 54.5515972,77.2817617 L50.0514214,89.2816445 C49.8322222,89.8673477 49.2720074,90.2552969 48.6464019,90.2552969 C48.4665777,90.2545938 48.2879839,90.2224258 48.1197613,90.1605508 C48.1190582,90.1605508 48.118355,90.1598477 48.1178277,90.1598477 C47.3424566,89.8687539 46.9497613,89.0042617 47.240855,88.2283633 L51.7405035,76.2284805 Z" id="Clip-17" fill="#5EDEA8"></path>
            <path d="M59.3978863,87.9228555 L65.1459332,79.3046523 L65.1459332,78.2548867 L60.6462847,78.2548867 L60.6462847,79.7551797 C60.6462847,80.5839883 59.9740972,81.2554727 59.1459917,81.2554727 C58.3171832,81.2554727 57.6456988,80.5839883 57.6456988,79.7551797 L57.6456988,76.7551211 C57.6456988,75.9270156 58.3171832,75.2548281 59.1459917,75.2548281 L66.6462261,75.2548281 C67.4743316,75.2548281 68.145816,75.9270156 68.145816,76.7551211 L68.145816,79.7551797 C68.145816,80.0517227 68.0579253,80.3408828 67.8937457,80.5880313 L61.89398,89.5878555 C61.4344878,90.2765664 60.5028472,90.4627188 59.8134332,90.0032266 C59.1240191,89.543207 58.9385699,88.6120938 59.3978863,87.9228555 Z" id="Clip-20" fill="#5EDEA8"></path>
        </g>
    </g>
</svg>