<svg xmlns="http://www.w3.org/2000/svg" width="15" height="14" viewBox="0 0 15 14">
    <path fill="#B8B8B8" d="M14.27 12.546l-3.447-3.341c.886-.982 1.372-2.218 1.372-3.504C12.195 2.695 9.572.25 6.347.25 3.123.25.5 2.695.5 5.7c0 3.006 2.623 5.451 5.847 5.451 1.21 0 2.364-.34 3.35-.986l3.474 3.367c.145.14.34.218.55.218.197 0 .385-.07.528-.198.303-.272.312-.723.02-1.006zM6.347 1.672c2.384 0 4.322 1.807 4.322 4.029 0 2.221-1.938 4.028-4.322 4.028-2.383 0-4.321-1.807-4.321-4.028 0-2.222 1.938-4.03 4.321-4.03z"/>
</svg>
