<svg xmlns="http://www.w3.org/2000/svg" width="18" height="18" viewBox="0 0 18 18">
    <path fill="#B8B8B8" fill-rule="nonzero" d="M17.726 16.395L13.29 11.94a7.096 7.096 0 0 0 1.766-4.673C15.055 3.26 11.678 0 7.528 0 3.377 0 0 3.26 0 7.267c0 4.008 3.377 7.268 7.528 7.268a7.632 7.632 0 0 0 4.312-1.315l4.471 4.49c.187.187.438.29.708.29a.995.995 0 0 0 .68-.264.926.926 0 0 0 .027-1.34zM7.528 1.895c3.067 0 5.563 2.41 5.563 5.372 0 2.962-2.496 5.372-5.563 5.372-3.068 0-5.564-2.41-5.564-5.372 0-2.961 2.496-5.371 5.564-5.371z"/>
</svg>
