<?xml version="1.0" encoding="UTF-8"?>
<svg width="44px" height="38px" viewBox="0 0 44 38" version="1.1" xmlns="http://www.w3.org/2000/svg" xmlns:xlink="http://www.w3.org/1999/xlink">
    <!-- Generator: Sketch 48.1 (47250) - http://www.bohemiancoding.com/sketch -->
    <title>services3</title>
    <desc>Created with Sketch.</desc>
    <defs></defs>
    <g id="booking_step1" stroke="none" stroke-width="1" fill="none" fill-rule="evenodd" transform="translate(-735.000000, -782.000000)">
        <g id="services3" transform="translate(737.000000, 783.000000)">
            <g id="Group-2">
                <polygon id="Combined-Shape" fill="#5EDEA8" points="17.9556763 8.49689589 17.9556763 20.036751 25.3107488 20.036751 25.3107488 18.0077655 19.9846618 18.0077655 19.9846618 8.49689589"></polygon>
                <path d="M34.5968909,7.71124439 C31.4196909,3.18221911 26.1569334,0.21576062 20.2185024,0.21576062 C11.5450966,0.21576062 4.32681159,6.59472197 2.9305314,14.8374756 L0.113623188,14.8374756 L4.97067633,23.2070408 L9.97060386,14.8374756 L7.05850242,14.8374756 C8.39137681,8.75051907 13.792029,4.27373163 20.2278019,4.27373163 C24.8755713,4.27373163 28.9823775,6.63823004 31.4069945,10.2277379 C32.8592793,12.3777632 36.5930836,10.556771 34.5968909,7.71124439 Z" id="Fill-2" stroke="#FFFFFF" stroke-width="1.7" fill="#2F2F2F"></path>
                <path d="M39.5968909,19.7112444 C36.4196909,15.1822191 31.1569334,12.2157606 25.2185024,12.2157606 C16.5450966,12.2157606 9.32681159,18.594722 7.9305314,26.8374756 L5.11362319,26.8374756 L9.97067633,35.2070408 L14.9706039,26.8374756 L12.0585024,26.8374756 C13.3913768,20.7505191 18.792029,16.2737316 25.2278019,16.2737316 C29.8755713,16.2737316 33.9823775,18.63823 36.4069945,22.2277379 C37.8592793,24.3777632 41.5930836,22.556771 39.5968909,19.7112444 Z" id="Fill-2" stroke="#FFFFFF" stroke-width="1.7" fill="#2F2F2F" transform="translate(22.642416, 23.711401) scale(-1, -1) translate(-22.642416, -23.711401) "></path>
            </g>
        </g>
    </g>
</svg>