<?xml version="1.0" encoding="UTF-8"?>
<svg width="35px" height="35px" viewBox="0 0 35 35" version="1.1" xmlns="http://www.w3.org/2000/svg" xmlns:xlink="http://www.w3.org/1999/xlink">
    <!-- Generator: Sketch 48.1 (47250) - http://www.bohemiancoding.com/sketch -->
    <title>services1</title>
    <desc>Created with Sketch.</desc>
    <defs></defs>
    <g id="booking_step1" stroke="none" stroke-width="1" fill="none" fill-rule="evenodd" transform="translate(-740.000000, -690.000000)">
        <g id="services1" transform="translate(740.000000, 690.000000)">
            <path d="M17.5,0 C27.1119661,0 35,7.88803385 35,17.5 C35,18.0668359 34.5414453,18.5253906 33.9746094,18.5253906 C33.4077734,18.5253906 32.9492188,18.0668359 32.9492188,17.5 C32.9492188,9.01842448 25.9815755,2.05078125 17.5,2.05078125 C12.5713802,2.05078125 7.91473958,4.48783854 5.03690104,8.40255208 L7.1147526,8.27358073 C7.67265625,8.24332031 8.16611979,8.66878906 8.20102865,9.23389323 C8.23621094,9.79854167 7.80645833,10.2852604 7.24071615,10.3201693 L3.13915365,10.5747396 C3.1181901,10.5757422 3.09713542,10.5764714 3.07617188,10.5764714 C3.31470052,10.6697135 2.05078125,10.5298047 2.05078125,9.55108073 L2.05078125,5.1953125 C2.05078125,4.62847656 2.50933594,4.16992188 3.07617188,4.16992188 C3.64300781,4.16992188 4.1015625,4.62847656 4.1015625,5.1953125 L4.1015625,6.32533854 C7.38035156,2.4203776 12.2957552,0 17.5,0 Z M31.8608464,24.4252604 C32.4090885,24.394362 32.9492188,24.8852734 32.9492188,25.4489193 L32.9492188,29.8046875 C32.9492188,30.3715234 32.4906641,30.8300781 31.9238281,30.8300781 C31.3569922,30.8300781 30.8984375,30.3715234 30.8984375,29.8046875 L30.8984375,28.6746615 C27.6196484,32.5796224 22.7042448,35 17.5,35 C7.88803385,35 0,27.1119661 0,17.5 C0,16.9331641 0.458554687,16.4746094 1.02539062,16.4746094 C1.59222656,16.4746094 2.05078125,16.9331641 2.05078125,17.5 C2.05078125,25.9815755 9.01842448,32.9492188 17.5,32.9492188 C22.4286198,32.9492188 27.0852604,30.5121615 29.963099,26.5974479 L27.8852474,26.7264193 C27.338737,26.7616016 26.8338802,26.3312109 26.7989714,25.7661068 C26.7637891,25.2014583 27.1935417,24.7147396 27.7592839,24.6798307 L31.8608464,24.4252604 Z" id="Combined-Shape" fill="#2F2F2F"></path>
            <path d="M24.6506641,17.2646615 C24.5688151,16.9182161 24.3142448,16.6397656 23.9767318,16.5276563 L18.9458464,14.8503906 L22.5186719,7.70464844 C22.7429818,7.25539063 22.6091797,6.70851563 22.2014844,6.41402344 C21.7920573,6.120625 21.2313281,6.16483073 20.8766797,6.52121094 L10.6227734,16.7751172 C10.3713932,17.0264974 10.268125,17.389987 10.3493359,17.7353385 C10.4315495,18.0817839 10.6857552,18.3602344 11.0232682,18.4723438 L16.0541536,20.1496094 L12.4813281,27.2953516 C12.2570182,27.744974 12.3911849,28.2914844 12.7985156,28.5859766 C13.206849,28.8786458 13.7665755,28.8358984 14.1233203,28.4787891 L24.3772266,18.2248828 C24.6286068,17.9735026 24.731875,17.6103776 24.6506641,17.2646615 Z" id="Fill-1" fill="#5EDEA8"></path>
        </g>
    </g>
</svg>