<?xml version="1.0" encoding="UTF-8"?>
<svg width="36px" height="36px" viewBox="0 0 36 36" version="1.1" xmlns="http://www.w3.org/2000/svg" xmlns:xlink="http://www.w3.org/1999/xlink">
    <!-- Generator: Sketch 48.1 (47250) - http://www.bohemiancoding.com/sketch -->
    <title>services2</title>
    <desc>Created with Sketch.</desc>
    <defs>
        <polygon id="path-1" points="0.354018663 2.37983227 0.354018663 32.2181332 19.5722574 32.2181332 18.279142 28.0211483 18.8408823 23.2862291 22.2067956 19.4790742 26.1704226 18.6428787 29.7790942 19.4790742 33.7786947 22.4927993 33.7786947 2.8395317 28.0183459 2.8395317 28.0183459 0.428534935 6.36850184 0.428534935 6.36850184 2.26351431"></polygon>
    </defs>
    <g id="booking_step1" stroke="none" stroke-width="1" fill="none" fill-rule="evenodd" transform="translate(-1074.000000, -690.000000)">
        <g id="services2" transform="translate(1074.000000, 689.000000)">
            <g id="Combined-Shape">
                <mask id="mask-2" fill="white">
                    <use xlink:href="#path-1"></use>
                </mask>
                <g id="Mask"></g>
                <path d="M33.4492188,20.9780273 L33.4492188,4.14453125 C33.4492188,3.57817383 32.9901855,3.11914062 32.4238281,3.11914062 L27.2285156,3.11914062 L27.2285156,2.02539062 C27.2285156,1.4590332 26.7694824,1 26.203125,1 C25.6367676,1 25.1777344,1.4590332 25.1777344,2.02539062 L25.1777344,3.11914062 L21.0761719,3.11914062 L21.0761719,2.02539062 C21.0761719,1.4590332 20.6171387,1 20.0507812,1 C19.4844238,1 19.0253906,1.4590332 19.0253906,2.02539062 L19.0253906,3.11914062 L14.9238281,3.11914062 L14.9238281,2.02539062 C14.9238281,1.4590332 14.4647949,1 13.8984375,1 C13.3320801,1 12.8730469,1.4590332 12.8730469,2.02539062 L12.8730469,3.11914062 L8.77148438,3.11914062 L8.77148438,2.02539062 C8.77148438,1.4590332 8.31245117,1 7.74609375,1 C7.17973633,1 6.72070312,1.4590332 6.72070312,2.02539062 L6.72070312,3.11914062 L1.52539062,3.11914062 C0.959033203,3.11914062 0.5,3.57817383 0.5,4.14453125 L0.5,30.8730469 C0.5,31.4394043 0.959033203,31.8984375 1.52539062,31.8984375 L18.6019043,31.8984375 C20.2596191,34.3697656 23.078623,36 26.2714844,36 C31.3600195,36 35.5,31.8600195 35.5,26.7714844 C35.5,24.5791992 34.730957,22.5631445 33.4492188,20.9780273 Z M6.72070312,5.16992188 L6.72070312,6.1953125 C6.72070312,6.76166992 7.17973633,7.22070312 7.74609375,7.22070312 C8.31245117,7.22070312 8.77148438,6.76166992 8.77148438,6.1953125 L8.77148438,5.16992188 L12.8730469,5.16992188 L12.8730469,6.1953125 C12.8730469,6.76166992 13.3320801,7.22070312 13.8984375,7.22070312 C14.4647949,7.22070312 14.9238281,6.76166992 14.9238281,6.1953125 L14.9238281,5.16992188 L19.0253906,5.16992188 L19.0253906,6.1953125 C19.0253906,6.76166992 19.4844238,7.22070312 20.0507812,7.22070312 C20.6171387,7.22070312 21.0761719,6.76166992 21.0761719,6.1953125 L21.0761719,5.16992188 L25.1777344,5.16992188 L25.1777344,6.1953125 C25.1777344,6.76166992 25.6367676,7.22070312 26.203125,7.22070312 C26.7694824,7.22070312 27.2285156,6.76166992 27.2285156,6.1953125 L27.2285156,5.16992188 L31.3984375,5.16992188 L31.3984375,9.27148438 L2.55078125,9.27148438 L2.55078125,5.16992188 L6.72070312,5.16992188 Z M2.55078125,29.8476562 L2.55078125,11.3222656 L31.3984375,11.3222656 L31.3984375,19.1019043 C29.9311035,18.1178711 28.1670898,17.5429688 26.2714844,17.5429688 C23.0313867,17.5429688 20.1762891,19.2218066 18.5292383,21.7547949 C18.3906738,21.6848633 18.2344727,21.6445312 18.0683594,21.6445312 L16.0175781,21.6445312 C15.4512207,21.6445312 14.9921875,22.1035645 14.9921875,22.6699219 C14.9921875,23.2362793 15.4512207,23.6953125 16.0175781,23.6953125 L17.5709082,23.6953125 C17.339375,24.3484863 17.1791406,25.035293 17.1003906,25.7460938 L16.0175781,25.7460938 C15.4512207,25.7460938 14.9921875,26.205127 14.9921875,26.7714844 C14.9921875,27.3378418 15.4512207,27.796875 16.0175781,27.796875 L17.1003906,27.796875 C17.1791406,28.5076758 17.3391016,29.1944824 17.5709082,29.8476562 L2.55078125,29.8476562 Z M26.2714844,33.9492188 C22.3136133,33.9492188 19.09375,30.7293555 19.09375,26.7714844 C19.09375,22.8136133 22.3136133,19.59375 26.2714844,19.59375 C30.2293555,19.59375 33.4492188,22.8136133 33.4492188,26.7714844 C33.4492188,30.7293555 30.2293555,33.9492188 26.2714844,33.9492188 Z M9.796875,13.4414062 C10.3632324,13.4414062 10.8222656,13.9004395 10.8222656,14.4667969 C10.8222656,15.0331543 10.3632324,15.4921875 9.796875,15.4921875 L7.74609375,15.4921875 C7.17973633,15.4921875 6.72070312,15.0331543 6.72070312,14.4667969 C6.72070312,13.9004395 7.17973633,13.4414062 7.74609375,13.4414062 L9.796875,13.4414062 Z M9.796875,17.5429688 C10.3632324,17.5429688 10.8222656,18.002002 10.8222656,18.5683594 C10.8222656,19.1347168 10.3632324,19.59375 9.796875,19.59375 L7.74609375,19.59375 C7.17973633,19.59375 6.72070312,19.1347168 6.72070312,18.5683594 C6.72070312,18.002002 7.17973633,17.5429688 7.74609375,17.5429688 L9.796875,17.5429688 Z M9.796875,21.6445312 C10.3632324,21.6445312 10.8222656,22.1035645 10.8222656,22.6699219 C10.8222656,23.2362793 10.3632324,23.6953125 9.796875,23.6953125 L7.74609375,23.6953125 C7.17973633,23.6953125 6.72070312,23.2362793 6.72070312,22.6699219 C6.72070312,22.1035645 7.17973633,21.6445312 7.74609375,21.6445312 L9.796875,21.6445312 Z M16.0175781,15.4921875 C15.4512207,15.4921875 14.9921875,15.0331543 14.9921875,14.4667969 C14.9921875,13.9004395 15.4512207,13.4414062 16.0175781,13.4414062 L18.0683594,13.4414062 C18.6347168,13.4414062 19.09375,13.9004395 19.09375,14.4667969 C19.09375,15.0331543 18.6347168,15.4921875 18.0683594,15.4921875 L16.0175781,15.4921875 Z M16.0175781,19.59375 C15.4512207,19.59375 14.9921875,19.1347168 14.9921875,18.5683594 C14.9921875,18.002002 15.4512207,17.5429688 16.0175781,17.5429688 L18.0683594,17.5429688 C18.6347168,17.5429688 19.09375,18.002002 19.09375,18.5683594 C19.09375,19.1347168 18.6347168,19.59375 18.0683594,19.59375 L16.0175781,19.59375 Z M9.796875,25.7460938 C10.3632324,25.7460938 10.8222656,26.205127 10.8222656,26.7714844 C10.8222656,27.3378418 10.3632324,27.796875 9.796875,27.796875 L7.74609375,27.796875 C7.17973633,27.796875 6.72070312,27.3378418 6.72070312,26.7714844 C6.72070312,26.205127 7.17973633,25.7460938 7.74609375,25.7460938 L9.796875,25.7460938 Z M24.2207031,15.4921875 C23.6543457,15.4921875 23.1953125,15.0331543 23.1953125,14.4667969 C23.1953125,13.9004395 23.6543457,13.4414062 24.2207031,13.4414062 L26.2714844,13.4414062 C26.8378418,13.4414062 27.296875,13.9004395 27.296875,14.4667969 C27.296875,15.0331543 26.8378418,15.4921875 26.2714844,15.4921875 L24.2207031,15.4921875 Z" fill="#2F2F2F" mask="url(#mask-2)"></path>
            </g>
            <path d="M30.3730469,25.7460938 L27.296875,25.7460938 L27.296875,22.6699219 C27.296875,22.1035645 26.8378418,21.6445312 26.2714844,21.6445312 C25.705127,21.6445312 25.2460938,22.1035645 25.2460938,22.6699219 L25.2460938,26.7714844 C25.2460938,27.3378418 25.705127,27.796875 26.2714844,27.796875 L30.3730469,27.796875 C30.9394043,27.796875 31.3984375,27.3378418 31.3984375,26.7714844 C31.3984375,26.205127 30.9394043,25.7460938 30.3730469,25.7460938 Z" id="Fill-4" fill="#5EDEA8"></path>
            <circle id="Oval-2" stroke="#5EDEA8" stroke-width="2" cx="26.3064523" cy="26.7987873" r="8.24670843"></circle>
        </g>
    </g>
</svg>