<?xml version="1.0" encoding="utf-8"?>
<!-- Generator: Adobe Illustrator 24.1.0, SVG Export Plug-In . SVG Version: 6.00 Build 0)  -->
<svg version="1.1" id="Calque_1" xmlns="http://www.w3.org/2000/svg" xmlns:xlink="http://www.w3.org/1999/xlink" x="0px" y="0px"
	 viewBox="0 0 100 100" style="enable-background:new 0 0 100 100;" xml:space="preserve">
<style type="text/css">
	.st0{fill:#FFFFFF;}
	.st1{fill-rule:evenodd;clip-rule:evenodd;fill:#FFFFFF;}
	.st2{fill:none;stroke:#FFFFFF;stroke-width:5.9871;stroke-linecap:round;stroke-linejoin:round;}
	.st3{fill:none;stroke:#FFFFFF;stroke-width:5.9706;stroke-linecap:round;stroke-linejoin:round;}
	.st4{fill-opacity:0;}
	.st5{fill-rule:evenodd;clip-rule:evenodd;}
	.st6{stroke:#000000;stroke-width:9;stroke-miterlimit:10;}
	.st7{fill:none;stroke:#000000;stroke-width:5.9871;stroke-linecap:round;stroke-linejoin:round;}
	.st8{fill:none;stroke:#000000;stroke-width:5.9706;stroke-linecap:round;stroke-linejoin:round;}
	.st9{fill:#020202;}
</style>
<path id="settings-sharp" class="st0" d="M51.26,34.57c-8.47,0-15.33,6.87-15.33,15.33c0,8.47,6.87,15.33,15.33,15.33
	c8.47,0,15.33-6.87,15.33-15.33v0C66.59,41.43,59.73,34.57,51.26,34.57C51.26,34.57,51.26,34.57,51.26,34.57z M84.37,49.9
	c-0.01,1.43-0.11,2.86-0.31,4.28l9.33,7.31c0.84,0.69,1.05,1.89,0.5,2.83l-8.82,15.26c-0.55,0.93-1.7,1.33-2.71,0.94l-10.98-4.44
	c-2.28,1.77-4.77,3.23-7.42,4.37l-1.64,11.65c-0.19,1.08-1.11,1.87-2.2,1.89H42.43c-1.07-0.02-1.98-0.78-2.2-1.82l-1.64-11.65
	c-2.66-1.12-5.15-2.59-7.42-4.37l-10.97,4.41c-1.01,0.39-2.16-0.01-2.71-0.94L8.65,64.39c-0.55-0.94-0.34-2.14,0.5-2.83l9.32-7.29
	c-0.2-1.45-0.3-2.9-0.31-4.37c0.01-1.43,0.11-2.86,0.31-4.28l-9.35-7.31c-0.84-0.69-1.05-1.89-0.5-2.83l8.84-15.26
	c0.55-0.93,1.7-1.33,2.71-0.94l10.97,4.41c2.28-1.77,4.77-3.23,7.42-4.37l1.64-11.65c0.21-1.07,1.14-1.85,2.23-1.86h17.66
	c1.07,0.02,1.98,0.78,2.2,1.82l1.64,11.65c2.67,1.12,5.17,2.58,7.45,4.37l10.97-4.41c1.01-0.39,2.16,0.01,2.71,0.94l8.83,15.24
	c0.55,0.94,0.34,2.14-0.5,2.83l-9.34,7.27C84.25,46.98,84.36,48.44,84.37,49.9z"/>
</svg>
