<?xml version="1.0" encoding="utf-8"?>
<!-- Generator: Adobe Illustrator 25.0.0, SVG Export Plug-In . SVG Version: 6.00 Build 0)  -->
<svg version="1.1" id="Calque_1" xmlns="http://www.w3.org/2000/svg" xmlns:xlink="http://www.w3.org/1999/xlink" x="0px" y="0px"
	 viewBox="0 0 139.3 64.3" style="enable-background:new 0 0 139.3 64.3;" xml:space="preserve">
<style type="text/css">
	.st0{fill-rule:evenodd;clip-rule:evenodd;fill:#0DFFBE;}
	.st1{fill-rule:evenodd;clip-rule:evenodd;fill:#F52C2C;}
	.st2{fill-rule:evenodd;clip-rule:evenodd;fill:#61ACF7;}
	.st3{fill-rule:evenodd;clip-rule:evenodd;fill:#F761DA;}
	.st4{fill-rule:evenodd;clip-rule:evenodd;fill:#909090;}
</style>
<g id="Groupe_200">
	<path id="Tracé_61" class="st0" d="M112.6,0.5C98.5,0.9,87.1,12.2,86.7,26.4c0.2,4.2,1.4,8.3,3.4,12l0.2,0.3
		c15.7,25.1,20.3,25.1,22.3,25.1c3.1,0,6.5-2.2,14.4-13.3c4.2-5.8,7.7-11.5,7.9-11.8l0.2-0.3c2-3.7,3.1-7.8,3.4-12
		C138.2,12.2,126.8,0.9,112.6,0.5z"/>
	<path id="Tracé_62" class="st1" d="M85.6,38.7c-0.1-0.1-0.1-0.2-0.2-0.3c-2-3.7-3.1-7.8-3.4-12c0.3-11,7.2-20.7,17.5-24.4
		C86.4-2.8,71.8,3.9,66.9,17c-1.1,3-1.6,6.1-1.6,9.3c0.2,4.2,1.4,8.3,3.4,12c0.1,0.1,0.1,0.2,0.2,0.3c15.6,25.1,20.3,25.1,22.3,25.1
		c2.2,0,4.4-1.1,8.3-5.5C94.4,52.2,89.7,45.6,85.6,38.7z"/>
	<path id="Tracé_63" class="st2" d="M64,38.7l-0.2-0.3c-2-3.7-3.1-7.8-3.4-12c0.3-11,7.2-20.7,17.5-24.4C64.8-2.8,50.2,3.9,45.3,17
		c-1.1,3-1.7,6.2-1.6,9.4c0.2,4.2,1.4,8.3,3.3,12c0.1,0.1,0.1,0.2,0.2,0.3c15.6,25.1,20.3,25.1,22.3,25.1c2.2,0,4.5-1.1,8.3-5.5
		C72.7,52.2,68.1,45.6,64,38.7z"/>
	<path id="Tracé_63_1_" class="st3" d="M42.4,38.7l-0.2-0.3c-2-3.7-3.1-7.8-3.4-12C39.1,15.5,46,5.8,56.3,2.1
		c-13.1-4.9-27.7,1.8-32.6,15c-1.1,3-1.7,6.2-1.6,9.4c0.2,4.2,1.4,8.3,3.3,12c0.1,0.1,0.1,0.2,0.2,0.3
		c15.6,25.1,20.3,25.1,22.3,25.1c2.2,0,4.5-1.1,8.3-5.5C51.2,52.2,46.5,45.7,42.4,38.7z"/>
	<path id="Tracé_63_2_" class="st4" d="M21.2,38.7L21,38.4c-2-3.7-3.1-7.8-3.4-12c0.3-10.9,7.2-20.6,17.5-24.3
		c-13-4.9-27.6,1.8-32.5,15c-1.1,3-1.7,6.2-1.6,9.4c0.2,4.2,1.4,8.3,3.3,12c0.1,0,0.2,0.1,0.2,0.2c15.6,25.1,20.3,25.1,22.3,25.1
		c2.2,0,4.5-1.1,8.3-5.5C30,52.2,25.3,45.7,21.2,38.7z"/>
</g>
</svg>
