<?xml version="1.0" encoding="utf-8"?>
<!-- Generator: Adobe Illustrator 25.1.0, SVG Export Plug-In . SVG Version: 6.00 Build 0)  -->
<svg version="1.1" id="Calque_1" xmlns="http://www.w3.org/2000/svg" xmlns:xlink="http://www.w3.org/1999/xlink" x="0px" y="0px"
	 viewBox="0 0 100 100" style="enable-background:new 0 0 100 100;" xml:space="preserve">
<style type="text/css">
	.st0{fill:#9D9D9D;}
</style>
<g id="Layer_2_2_">
	<path class="st0" d="M45.4,13.5c0-5-4.1-9.1-9.1-9.1s-9.1,4.1-9.1,9.1s4.1,9.1,9.1,9.1S45.4,18.6,45.4,13.5L45.4,13.5z M10.9,40.2
		c1.5-1.8,4.2-2.1,6-0.6l11,5l8.9-18.3l9.3-5.5l20.3-0.4c2.1-0.1,4.2,0.9,5.5,2.7l7.8,10.7c1.2,1.7,0.9,4.1-0.9,5.3h-0.1
		c-1.7,1.2-4.1,0.8-5.3-0.9l0,0l-7-9.9L55,30.2l17.2,34.6l16.7-7.6c1.8-0.9,4-0.3,5,1.5l0.6,1c1.1,1.8,0.5,4.2-1.4,5.2L73.6,76.4
		c-2.2,1.3-4.9,0.7-6.4-1.4C63,69.1,55,57.9,54.6,58.1l-14.9,10l-0.1,20.5c0,0,0,5.5-2.5,6.6s-5.5,0-6.6-2.5l0,0l-2-25
		c0,0,0-5.4,2.4-6.6L47,48.6l-6.2-9l-8.5,13.3c-1.5,1.7-4.1,1.9-5.9,0.5l-15.1-7.2C9.7,44.7,9.4,42,10.9,40.2z"/>
</g>
</svg>
