<?xml version="1.0" encoding="UTF-8"?>
<svg width="71px" height="55px" viewBox="0 0 71 55" version="1.1" xmlns="http://www.w3.org/2000/svg" xmlns:xlink="http://www.w3.org/1999/xlink">
    <!-- Generator: Sketch 48.1 (47250) - http://www.bohemiancoding.com/sketch -->
    <title>tracking</title>
    <desc>Created with Sketch.</desc>
    <defs>
        <polygon id="path-1" points="0 -1.95515149e-05 70.1805054 -1.95515149e-05 70.1805054 39.7572563 0 39.7572563"></polygon>
    </defs>
    <g id="landing-page" stroke="none" stroke-width="1" fill="none" fill-rule="evenodd" transform="translate(-120.000000, -2211.000000)">
        <g id="tracking" transform="translate(120.000000, 2211.685624)">
            <g id="Group-3" transform="translate(0.000000, 14.231047)">
                <mask id="mask-2" fill="white">
                    <use xlink:href="#path-1"></use>
                </mask>
                <g id="Clip-2"></g>
                <path d="M69.8377906,15.548491 L55.317444,1.02794946 C54.6610614,0.367083032 53.7670397,-0.00311913357 52.8355884,-4.17475096e-15 L32.7509025,-4.17475096e-15 L32.7509025,2.33935018 L38.599278,2.33935018 L38.599278,19.8844765 L40.9386282,19.8844765 L40.9386282,2.33935018 L52.8355884,2.33935018 C53.1463321,2.33935018 53.4440144,2.4627509 53.6633285,2.68206498 L55.6601588,4.67870036 L50.2960289,4.67870036 C49.0037329,4.67870036 47.9566787,5.72575451 47.9566787,7.01805054 L47.9566787,17.5451264 C47.9566787,18.8374224 49.0037329,19.8844765 50.2960289,19.8844765 L67.8411552,19.8844765 L67.8411552,29.2418773 C67.8411552,29.8875379 67.3171408,30.4115523 66.6714801,30.4115523 L64.238556,30.4115523 C63.6605415,26.3855307 60.2115596,23.3966209 56.1444043,23.3966209 C52.0772491,23.3966209 48.6282671,26.3855307 48.0502527,30.4115523 L31.4876534,30.4115523 C30.909639,26.3855307 27.460657,23.3966209 23.3935018,23.3966209 C19.3263466,23.3966209 15.8773646,26.3855307 15.2993502,30.4115523 L12.866426,30.4115523 C12.2207653,30.4115523 11.6967509,29.8875379 11.6967509,29.2418773 L11.6967509,18.7148014 L9.35740072,18.7148014 L9.35740072,29.2418773 C9.35740072,31.1798339 10.9284693,32.7509025 12.866426,32.7509025 L15.2993502,32.7509025 C15.5545343,34.5297834 16.3898773,36.1739567 17.6745704,37.4296029 L0,37.4296029 L0,39.7689531 L56.1444043,39.7689531 C60.21,39.7613502 63.655083,36.774 64.238556,32.7509025 L66.6714801,32.7509025 C68.6094368,32.7509025 70.1805054,31.1798339 70.1805054,29.2418773 L70.1805054,16.3754513 C70.1805054,16.0654874 70.0571047,15.7678051 69.8377906,15.548491 Z M17.5451264,31.5812274 C17.5451264,29.2159495 18.9699856,27.0830469 21.1555235,26.1783032 C23.3408664,25.2729747 25.8562527,25.7732058 27.529278,27.4454513 C29.2015235,29.1184765 29.7017545,31.6338628 28.796426,33.8192058 C27.8916823,36.0047437 25.7587798,37.4296029 23.3935018,37.4296029 C20.1653935,37.425704 17.5490253,34.8093357 17.5451264,31.5812274 Z M29.1124332,37.4296029 C30.3971264,36.1739567 31.2324693,34.5297834 31.4876534,32.7509025 L48.0502527,32.7509025 C48.3054368,34.5297834 49.1407798,36.1739567 50.4254729,37.4296029 L29.1124332,37.4296029 Z M56.1444043,37.4296029 C53.7791264,37.4296029 51.6462238,36.0047437 50.7414801,33.8192058 C49.8361516,31.6338628 50.3363827,29.1184765 52.0086282,27.4454513 C53.6816534,25.7732058 56.1970397,25.2729747 58.3823827,26.1783032 C60.5679206,27.0830469 61.9927798,29.2159495 61.9927798,31.5812274 C61.9888809,34.8093357 59.3725126,37.425704 56.1444043,37.4296029 Z M50.2960289,17.5451264 L50.2960289,7.01805054 L57.999509,7.01805054 L67.8411552,16.8596968 L67.8411552,17.5451264 L50.2960289,17.5451264 Z" id="Fill-1" fill="#2B2B2B" mask="url(#mask-2)"></path>
            </g>
            <polygon id="Fill-4" fill="#2B2B2B" points="22.2238267 46.9819495 24.5631769 46.9819495 24.5631769 44.6425993 22.2238267 44.6425993"></polygon>
            <polygon id="Fill-5" fill="#2B2B2B" points="54.9747292 46.9819495 57.3140794 46.9819495 57.3140794 44.6425993 54.9747292 44.6425993"></polygon>
            <polygon id="Fill-6" fill="#2B2B2B" points="0 43.4729242 5.84837545 43.4729242 5.84837545 41.133574 0 41.133574"></polygon>
            <polygon id="Fill-7" fill="#2B2B2B" points="2.33935018 38.7942238 5.84837545 38.7942238 5.84837545 36.4548736 2.33935018 36.4548736"></polygon>
            <g id="Group-11">
                <polygon id="Fill-8" fill="#2B2B2B" points="3.50902527 34.1155235 5.84837545 34.1155235 5.84837545 31.7761733 3.50902527 31.7761733"></polygon>
                <path d="M15.2057762,30.6064982 C21.3557329,30.6064982 26.9001877,26.9017473 29.2539639,21.2194657 C31.607935,15.537769 30.3064765,8.99714079 25.9582094,4.64828881 C21.6093574,0.300021661 15.0687292,-1.00143682 9.38703249,1.3525343 C3.7047509,3.70631047 0,9.25076534 0,15.400722 C0.00994223827,23.7948953 6.81160289,30.596556 15.2057762,30.6064982 Z M15.2057762,2.53429603 C20.4098556,2.53429603 25.1016173,5.66941516 27.0929892,10.4767798 C29.0841661,15.2849242 27.9831119,20.818852 24.303509,24.4984549 C20.6239061,28.1780578 15.0899783,29.2791119 10.2818339,27.287935 C5.47446931,25.2965632 2.33935018,20.6048014 2.33935018,15.400722 C2.34773285,8.29806498 8.10311913,2.5426787 15.2057762,2.53429603 Z" id="Fill-10" fill="#5EDEA8"></path>
            </g>
            <path d="M15.2057762,25.9277978 C15.5157401,25.9277978 15.8134224,25.8043971 16.0327365,25.585083 C16.7858123,24.8320072 23.3935018,18.0788881 23.3935018,13.0613718 C23.3935018,8.53960289 19.7275451,4.87364621 15.2057762,4.87364621 C10.6840072,4.87364621 7.01805054,8.53960289 7.01805054,13.0613718 C7.01805054,18.0788881 13.6257401,24.8320072 14.3788159,25.585083 C14.59813,25.8043971 14.8958123,25.9277978 15.2057762,25.9277978 Z M15.2057762,7.21299639 C18.4338845,7.21689531 21.0502527,9.83326354 21.0541516,13.0613718 C21.0541516,16.0625632 17.3729892,20.7009097 15.2057762,23.0630686 C13.0385632,20.7009097 9.35740072,16.0625632 9.35740072,13.0613718 C9.36129964,9.83326354 11.9776679,7.21689531 15.2057762,7.21299639 Z" id="Fill-12" fill="#5EDEA8"></path>
            <path d="M18.7148014,13.0613718 C18.7148014,11.6419711 17.859574,10.3625415 16.5483682,9.81961733 C15.2377473,9.27669314 13.7284765,9.5767148 12.7247004,10.580296 C11.7211191,11.5840722 11.4210975,13.093343 11.9640217,14.4039639 C12.5069458,15.7151697 13.7863755,16.5703971 15.2057762,16.5703971 C17.1437329,16.5703971 18.7148014,14.9993285 18.7148014,13.0613718 Z M14.0361011,13.0613718 C14.0361011,12.5884332 14.320917,12.1620866 14.7579856,11.980787 C15.1950542,11.7994874 15.6984043,11.9000794 16.0327365,12.2344116 C16.3670686,12.5687437 16.4676606,13.0720939 16.286361,13.5091625 C16.1050614,13.946231 15.6787148,14.2310469 15.2057762,14.2310469 C14.5601155,14.2310469 14.0361011,13.7070325 14.0361011,13.0613718 Z" id="Fill-13" fill="#5EDEA8"></path>
            <polygon id="Fill-14" fill="#2B2B2B" points="44.4476534 38.7942238 49.1263538 38.7942238 49.1263538 36.4548736 44.4476534 36.4548736"></polygon>
        </g>
    </g>
</svg>