<?xml version="1.0" encoding="utf-8"?>
<!-- Generator: Adobe Illustrator 25.4.1, SVG Export Plug-In . SVG Version: 6.00 Build 0)  -->
<svg version="1.1" id="Layer_1" xmlns="http://www.w3.org/2000/svg" xmlns:xlink="http://www.w3.org/1999/xlink" x="0px" y="0px"
	 viewBox="0 0 47.3 34.8" style="enable-background:new 0 0 47.3 34.8;" xml:space="preserve">
<style type="text/css">
	.st0{fill:#2E4593;}
	.st1{fill:#FCF5FF;}
	.st2{fill:#F42525;}
	.st3{fill:#FFFFFF;}
	.st4{fill:#CD002A;}
</style>
<g id="Group_20" transform="translate(-293.302 -60.627)">
	<g id="Group_18" transform="translate(293.302 60.693)">
		<g id="Group_5" transform="translate(0.044)">
			<path id="Path_100" class="st0" d="M47.2,2.6v29.6l0,0c-15.7-8.9-31.5,8.9-47.2,0V2.6C15.7,11.4,31.5-6.3,47.2,2.6z"/>
		</g>
		<g id="Group_8" transform="translate(0.044 2.53)">
			<g id="Group_6" transform="translate(0 0.029)">
				<path id="Path_101" class="st1" d="M47.2,26.5v3.1l0,0c-1.5-0.9-3.2-1.5-4.9-2c-4.3-3.6-9.2-6.5-14.5-8.3
					c-0.5-0.2-1-0.4-1.5-0.5c-0.6-0.2-1.1-0.4-1.7-0.6c-0.2-0.1-0.4-0.1-0.6-0.2c-0.6-0.2-1.2-0.4-1.7-0.6c-0.2-0.1-0.4-0.2-0.6-0.2
					L21.1,17c-0.4-0.1-0.7-0.3-1.1-0.4c-0.1,0-0.2-0.1-0.4-0.1c-0.2-0.1-0.4-0.1-0.5-0.2c-1.7-0.6-3.4-1.3-5.1-2.2
					c-0.8-0.4-1.5-0.8-2.3-1.2C7.2,10.4,3.3,7.1,0,3.1V0c0,0,0,0,0,0c0,0,0.1,0.1,0.1,0.1C1.6,0.9,3.2,1.6,4.9,2
					c4.3,3.7,9.4,6.5,14.8,8.4c0.5,0.2,1,0.4,1.5,0.5c0.1,0,0.3,0.1,0.4,0.1c0.8,0.3,1.5,0.5,2.3,0.8c0.1,0,0.2,0.1,0.2,0.1
					c0.3,0.1,0.6,0.2,0.9,0.3c0.5,0.2,0.9,0.3,1.4,0.5c0.1,0,0.2,0.1,0.2,0.1l1.2,0.4c0.4,0.1,0.8,0.3,1.2,0.4
					c1.1,0.4,2.1,0.8,3.2,1.3c0.8,0.4,1.5,0.7,2.3,1.1C39.4,18.7,43.7,22.2,47.2,26.5z"/>
			</g>
			<g id="Group_7">
				<path id="Path_102" class="st2" d="M47.2,29.6c0,0,0,0.1,0,0.1c-1-0.6-2.1-1.1-3.2-1.5c-4.6-4.5-10.2-7.9-16.3-9.9
					c-0.5-0.2-0.9-0.3-1.4-0.5c0,0,0,0-0.1,0c-0.5-0.2-0.9-0.3-1.4-0.5c-0.3-0.1-0.6-0.2-0.8-0.3c-0.5-0.2-1-0.4-1.5-0.5
					c-0.5-0.2-1-0.3-1.4-0.5c-0.1,0-0.1-0.1-0.2-0.1c-0.3-0.1-0.6-0.2-0.9-0.3c-0.1,0-0.2-0.1-0.4-0.1c-1.3-0.5-2.6-1-3.9-1.6
					c-0.8-0.3-1.5-0.7-2.3-1.1C8.3,10.2,3.7,6.5,0,2V0c0,0,0,0,0,0c0,0,0.1,0.1,0.1,0.1c4.4,5.4,10.1,9.5,16.6,12.1
					c0.8,0.3,1.5,0.6,2.3,0.9l0.6,0.2c0.5,0.2,1,0.4,1.5,0.5c0.2,0.1,0.4,0.1,0.5,0.2c0.3,0.1,0.6,0.2,0.9,0.3
					c0.5,0.2,1.1,0.4,1.6,0.6c0.7,0.2,1.4,0.5,2.2,0.8c0.1,0,0.2,0.1,0.2,0.1c0.3,0.1,0.5,0.2,0.8,0.3c0.1,0.1,0.3,0.1,0.4,0.2
					c0.6,0.2,1.3,0.5,1.9,0.7C36.5,19.6,42.6,23.9,47.2,29.6z"/>
			</g>
		</g>
		<g id="Group_11" transform="translate(0.044 0.847)">
			<g id="Group_9">
				<path id="Path_103" class="st1" d="M47.2,2.3v3.1C43.6,5.6,40,7.2,36.5,9.6c-0.8,0.5-1.5,1-2.3,1.6c-1.7,1.3-3.4,2.7-5.2,4.2
					c-0.4,0.3-0.8,0.7-1.2,1c-0.4,0.4-0.8,0.7-1.2,1.1c-0.1,0.1-0.2,0.1-0.2,0.2c-0.2,0.2-0.4,0.3-0.5,0.5c-0.3,0.3-0.6,0.5-0.9,0.8
					c-0.3,0.3-0.6,0.5-0.9,0.8c-0.2,0.2-0.4,0.3-0.6,0.5c-0.8,0.7-1.6,1.4-2.4,2.1c-0.5,0.4-1,0.9-1.5,1.3
					c-4.6,4.1-9.2,7.8-13.9,9.8c-2-0.4-4-1.1-5.8-2.2v-2.5c4.6-0.3,9.1-2.8,13.7-6.3c0.8-0.6,1.5-1.2,2.3-1.8
					c1.1-0.9,2.1-1.8,3.2-2.7c0.2-0.2,0.4-0.3,0.5-0.5c0.1-0.1,0.2-0.2,0.4-0.3c0.4-0.3,0.7-0.7,1.1-1c0.2-0.2,0.4-0.3,0.5-0.5
					c0.8-0.7,1.6-1.4,2.4-2.2c0.1-0.1,0.2-0.1,0.2-0.2c0.7-0.6,1.4-1.2,2-1.9l0.3-0.2c0.4-0.4,0.8-0.7,1.2-1.1
					C33,5.7,38.1,1.7,43.2,0c1.3,0.4,2.5,0.9,3.6,1.5C47,1.8,47.1,2,47.2,2.3z"/>
			</g>
			<g id="Group_10" transform="translate(0 0.629)">
				<path id="Path_104" class="st2" d="M47.1,1.8C42,2.1,36.8,5.3,31.7,9.5c-0.8,0.6-1.5,1.3-2.3,1.9c-0.5,0.4-1,0.9-1.5,1.3
					c-0.4,0.4-0.8,0.7-1.2,1.1c-0.1,0.1-0.2,0.1-0.2,0.2c-0.7,0.6-1.4,1.3-2.2,1.9l-1.6,1.5c-0.3,0.3-0.6,0.5-0.9,0.8
					c-0.2,0.2-0.4,0.3-0.5,0.5c0,0-0.1,0.1-0.1,0.1c-0.4,0.4-0.9,0.8-1.3,1.2c-0.3,0.3-0.6,0.6-1,0.8c-5.9,5.1-11.8,9.5-17.6,10.3
					c-0.4-0.2-0.7-0.4-1.1-0.6v-1.4c5.1-0.3,10.3-3.5,15.4-7.7c0.8-0.6,1.5-1.3,2.3-1.9c0.6-0.6,1.3-1.1,1.9-1.7
					c0.1-0.1,0.2-0.2,0.4-0.3c0.3-0.3,0.6-0.5,0.9-0.8c0.1-0.1,0.1-0.1,0.2-0.2c0.5-0.4,1-0.9,1.4-1.3c0.8-0.7,1.6-1.5,2.4-2.2
					l1.1-1c0.1-0.1,0.2-0.2,0.3-0.2c0.5-0.4,1-0.9,1.5-1.3c0.2-0.2,0.4-0.3,0.6-0.5C33.9,5.4,39.5,1.2,45,0c0.5,0.2,1.1,0.5,1.6,0.8
					C46.8,0.9,47,1,47.2,1.1c0,0.2,0,0.4,0,0.7C47.2,1.7,47.2,1.7,47.1,1.8z"/>
			</g>
		</g>
		<g id="Group_12" transform="translate(0 10.417)">
			<path id="Path_105" class="st3" d="M47.3,10.7c-15.8-8.9-31.5,8.9-47.3,0V2.6c15.8,8.9,31.5-8.9,47.3,0V10.7z"/>
		</g>
		<g id="Group_13" transform="translate(0 11.866)">
			<path id="Path_106" class="st2" d="M47.3,7.8C31.5-1.1,15.8,16.7,0,7.8V2.6c15.8,8.9,31.5-8.9,47.3,0V7.8z"/>
		</g>
		<g id="Group_14" transform="translate(21.184 1.806)">
			<path id="Path_107" class="st4" d="M5.2,0v29.6c-1.7,0.5-3.5,1-5.2,1.5V1.5C1.7,1,3.5,0.5,5.2,0z"/>
		</g>
		<g id="Group_17" transform="translate(19.722 1.424)">
			<g id="Group_15">
				<path id="Path_108" class="st3" d="M6.7,18.9c0.5-0.1,1-0.3,1.4-0.4v11.1c-2.7,0.7-5.4,1.5-8.1,2.2V20.8c0.5-0.1,1-0.3,1.4-0.4
					v-8.1c-0.5,0.1-1,0.3-1.4,0.4V2.2C2.7,1.5,5.4,0.7,8.1,0v10.4c-0.5,0.1-1,0.3-1.4,0.4V18.9z"/>
			</g>
			<g id="Group_16" transform="translate(1.421 0.377)">
				<path id="Path_109" class="st2" d="M5.3,0v29.6c-1.8,0.5-3.5,1-5.3,1.5V1.5C1.8,1,3.5,0.5,5.3,0z"/>
			</g>
		</g>
	</g>
</g>
</svg>
