<?xml version="1.0" encoding="UTF-8"?>
<svg width="15px" height="20px" viewBox="0 0 15 20" version="1.1" xmlns="http://www.w3.org/2000/svg" xmlns:xlink="http://www.w3.org/1999/xlink">
    <!-- Generator: Sketch 48.1 (47250) - http://www.bohemiancoding.com/sketch -->
    <title>user</title>
    <desc>Created with Sketch.</desc>
    <defs></defs>
    <g id="booking_signup" stroke="none" stroke-width="1" fill="none" fill-rule="evenodd" transform="translate(-382.000000, -246.000000)" opacity="0.5">
        <g id="Group-8" transform="translate(362.000000, 233.000000)" fill="#000000" fill-rule="nonzero">
            <g id="user" transform="translate(20.398496, 13.660248)">
                <path d="M7.11760289,9.09210029 C9.18457601,9.09210029 10.8603466,7.05678457 10.8603466,4.5460767 C10.8603466,2.03531573 10.3101665,0 7.11760289,0 C3.92503929,0 3.37475298,2.03531573 3.37475298,4.5460767 C3.37475298,7.05678457 5.05052353,9.09210029 7.11760289,9.09210029 Z" id="Shape"></path>
                <path d="M0.0510109421,16.2046861 C0.0480109421,15.7182219 0.0450109421,16.0676254 0.0510109421,16.2046861 Z" id="Shape"></path>
                <path d="M14.1866042,16.263868 C14.1961042,16.1885214 14.1898542,15.7411215 14.1866042,16.263868 Z" id="Shape"></path>
                <path d="M14.1786368,15.8497862 C14.1093198,11.4760723 13.5381056,10.2298013 9.16699447,9.44091595 C9.16699447,9.44091595 8.55169364,10.2249677 7.11754977,10.2249677 C5.68340591,10.2249677 5.06799884,9.44091595 5.06799884,9.44091595 C0.744586248,10.2211964 0.138633907,11.4489829 0.0589592478,15.7076997 C0.0524259258,16.055453 0.0493982887,16.0737251 0.048229727,16.0333566 C0.0484953092,16.1089944 0.0488140079,16.2489031 0.0488140079,16.4928669 C0.0488140079,16.4928669 1.08947129,18.5907538 7.11754977,18.5907538 C13.145522,18.5907538 14.1862855,16.4928669 14.1862855,16.4928669 C14.1862855,16.3361203 14.1863918,16.2271254 14.1865511,16.1529748 C14.1853826,16.1779396 14.1830454,16.1295505 14.1786368,15.8497862 Z" id="Shape"></path>
            </g>
        </g>
    </g>
</svg>