<svg width="58" height="59" viewBox="0 0 58 59" xmlns="http://www.w3.org/2000/svg">
    <g transform="translate(1 1.5)" fill="none" fill-rule="evenodd">
        <path d="M23.608 39.153c-.11-1.508-.18-2.384.146-3.841l1.183-5.023c.112-.45.163-.414.008-.848-.79-2.211.446-4.795 2.331-4.342.544.13.882.503 1.035 1.03.287.99-.323 2.547-.586 3.443-.292.991-.805 2.277.378 3.026 1.088.69 2.284.169 3.063-.434 1.288-.997 2.261-3.975 1.577-6.274-1.356-4.556-8.2-4.43-9.868-.052-.437 1.15-.487 2.332-.068 3.513.086.243.196.488.31.698.132.242.371.456.377.694.006.245-.33 1.482-.426 1.642-.72.038-1.561-1.05-1.858-1.543a6.375 6.375 0 0 1-.852-2.543c-.11-1.044.06-2.115.364-3.023.844-2.525 2.963-4.139 5.571-4.664 6.417-1.29 11.186 4.022 8.703 10.181-1.018 2.525-3.551 4.419-6.155 3.993-.832-.136-1.556-.506-2.05-1.14l-.131-.155-.858 3.23c-.51 1.471-1.013 1.943-1.34 2.723.334.243 1.876.453 2.4.503.923.089 1.93.066 2.837-.068 2.23-.328 4.528-1.349 6.093-2.771 1.717-1.562 2.808-3.024 3.588-5.327 2.087-6.161-1.275-13.026-7.38-15.123-3.225-1.108-7.048-.792-9.743.763-.673.389-1.182.714-1.75 1.168-.765.613-1.602 1.464-2.186 2.27a12.155 12.155 0 0 0-1.57 2.887c-1.205 3.19-.921 6.965.571 9.764.676 1.267 1.262 2.046 2.213 2.985.12.118.237.268.363.379.736.646 2.441 1.93 3.71 2.28" fill="#FEFEFE"/>
        <circle stroke="#FFF" stroke-width="2" opacity=".2" cx="28" cy="28" r="28"/>
    </g>
</svg>
